%TF.GenerationSoftware,KiCad,Pcbnew,7.0.2-1.fc37*%
%TF.CreationDate,2023-04-28T15:17:17+01:00*%
%TF.ProjectId,grblPANEL,6772626c-5041-44e4-954c-2e6b69636164,B*%
%TF.SameCoordinates,Original*%
%TF.FileFunction,Copper,L3,Inr*%
%TF.FilePolarity,Positive*%
%FSLAX46Y46*%
G04 Gerber Fmt 4.6, Leading zero omitted, Abs format (unit mm)*
G04 Created by KiCad (PCBNEW 7.0.2-1.fc37) date 2023-04-28 15:17:17*
%MOMM*%
%LPD*%
G01*
G04 APERTURE LIST*
G04 Aperture macros list*
%AMRoundRect*
0 Rectangle with rounded corners*
0 $1 Rounding radius*
0 $2 $3 $4 $5 $6 $7 $8 $9 X,Y pos of 4 corners*
0 Add a 4 corners polygon primitive as box body*
4,1,4,$2,$3,$4,$5,$6,$7,$8,$9,$2,$3,0*
0 Add four circle primitives for the rounded corners*
1,1,$1+$1,$2,$3*
1,1,$1+$1,$4,$5*
1,1,$1+$1,$6,$7*
1,1,$1+$1,$8,$9*
0 Add four rect primitives between the rounded corners*
20,1,$1+$1,$2,$3,$4,$5,0*
20,1,$1+$1,$4,$5,$6,$7,0*
20,1,$1+$1,$6,$7,$8,$9,0*
20,1,$1+$1,$8,$9,$2,$3,0*%
G04 Aperture macros list end*
%TA.AperFunction,ComponentPad*%
%ADD10C,2.000000*%
%TD*%
%TA.AperFunction,ComponentPad*%
%ADD11C,0.600000*%
%TD*%
%TA.AperFunction,ComponentPad*%
%ADD12R,2.400000X2.400000*%
%TD*%
%TA.AperFunction,ComponentPad*%
%ADD13C,2.400000*%
%TD*%
%TA.AperFunction,ComponentPad*%
%ADD14R,1.700000X1.700000*%
%TD*%
%TA.AperFunction,ComponentPad*%
%ADD15O,1.700000X1.700000*%
%TD*%
%TA.AperFunction,ComponentPad*%
%ADD16O,1.600000X1.000000*%
%TD*%
%TA.AperFunction,ComponentPad*%
%ADD17O,2.100000X1.000000*%
%TD*%
%TA.AperFunction,ComponentPad*%
%ADD18RoundRect,0.250000X0.600000X-0.600000X0.600000X0.600000X-0.600000X0.600000X-0.600000X-0.600000X0*%
%TD*%
%TA.AperFunction,ComponentPad*%
%ADD19C,1.700000*%
%TD*%
%TA.AperFunction,ViaPad*%
%ADD20C,0.700000*%
%TD*%
%TA.AperFunction,ViaPad*%
%ADD21C,0.550000*%
%TD*%
G04 APERTURE END LIST*
D10*
X161000000Y-100500000D03*
D11*
X171783300Y-119840000D03*
X171783300Y-118950000D03*
X171783300Y-118060000D03*
X170783300Y-119840000D03*
X170783300Y-118950000D03*
X170783300Y-118060000D03*
D10*
X154800000Y-81300000D03*
X161000000Y-97000000D03*
X118000000Y-94500000D03*
X161000000Y-89500000D03*
D11*
X133600000Y-95300000D03*
X133600000Y-94500000D03*
X133600000Y-93700000D03*
X132800000Y-95300000D03*
X132800000Y-94500000D03*
X132800000Y-93700000D03*
X132000000Y-95300000D03*
X132000000Y-94500000D03*
X132000000Y-93700000D03*
D10*
X161000000Y-93000000D03*
X154800000Y-84800000D03*
X118000000Y-91000000D03*
X161000000Y-104000000D03*
D12*
X118000000Y-125000000D03*
D13*
X114500000Y-125000000D03*
X111000000Y-125000000D03*
X107500000Y-125000000D03*
D14*
X174710000Y-98500000D03*
D15*
X177250000Y-98500000D03*
D12*
X160000000Y-125000000D03*
D13*
X156500000Y-125000000D03*
X153000000Y-125000000D03*
X149500000Y-125000000D03*
D14*
X174725000Y-83200000D03*
D15*
X177265000Y-83200000D03*
D12*
X184000000Y-81450000D03*
D13*
X184000000Y-84950000D03*
D10*
X107500000Y-111500000D03*
X107500000Y-108000000D03*
D12*
X184000000Y-118950000D03*
D13*
X184000000Y-122450000D03*
D16*
X107450000Y-89820000D03*
D17*
X111630000Y-89820000D03*
D16*
X107450000Y-81180000D03*
D17*
X111630000Y-81180000D03*
D12*
X132000000Y-125000000D03*
D13*
X128500000Y-125000000D03*
X125000000Y-125000000D03*
X121500000Y-125000000D03*
D18*
X143000000Y-81500000D03*
D19*
X143000000Y-78960000D03*
X140460000Y-81500000D03*
X140460000Y-78960000D03*
X137920000Y-81500000D03*
X137920000Y-78960000D03*
X135380000Y-81500000D03*
X135380000Y-78960000D03*
X132840000Y-81500000D03*
X132840000Y-78960000D03*
X130300000Y-81500000D03*
X130300000Y-78960000D03*
X127760000Y-81500000D03*
X127760000Y-78960000D03*
X125220000Y-81500000D03*
X125220000Y-78960000D03*
X122680000Y-81500000D03*
X122680000Y-78960000D03*
X120140000Y-81500000D03*
X120140000Y-78960000D03*
D12*
X184000000Y-96750000D03*
D13*
X184000000Y-100250000D03*
D12*
X146000000Y-125000000D03*
D13*
X142500000Y-125000000D03*
X139000000Y-125000000D03*
X135500000Y-125000000D03*
D20*
X161500000Y-118000000D03*
X166000000Y-125350000D03*
X111200000Y-122600000D03*
X175000000Y-104500000D03*
X162000000Y-76941799D03*
X141000000Y-93100000D03*
X142500000Y-91800000D03*
X186979040Y-82000000D03*
D21*
X135400000Y-83800000D03*
D20*
X140000000Y-111400000D03*
X167000000Y-128839052D03*
X186928500Y-97000000D03*
X106500000Y-106000000D03*
X117099500Y-114500000D03*
X164999999Y-125900000D03*
D21*
X125200000Y-83800000D03*
D20*
X147200000Y-121584476D03*
X178300000Y-117300000D03*
X138000000Y-86841716D03*
X139000000Y-122600000D03*
X110250000Y-105500000D03*
X152000000Y-86887820D03*
X142000000Y-128481535D03*
X182300000Y-83200000D03*
X132000000Y-76966742D03*
X110800000Y-78700000D03*
X115600000Y-105900000D03*
X113800000Y-81200000D03*
X147000000Y-76950113D03*
X159750000Y-118000000D03*
X187000000Y-76900000D03*
X118000000Y-96500000D03*
X163500000Y-81994500D03*
X157000000Y-91923831D03*
X157000000Y-80500000D03*
X177800000Y-96700000D03*
X172000000Y-91965208D03*
X162000000Y-116250000D03*
X134500000Y-104531955D03*
X133000000Y-86798816D03*
X129800000Y-111900000D03*
X162000000Y-82000000D03*
X145100000Y-88900000D03*
X165100000Y-111400000D03*
X132000000Y-128487309D03*
X162450000Y-118950000D03*
X113800000Y-89000000D03*
X107000000Y-77000000D03*
X120250000Y-98734515D03*
X137600000Y-121597225D03*
X125750000Y-102550000D03*
X131200000Y-106700000D03*
X137900000Y-95900000D03*
X145100000Y-115100000D03*
X133300000Y-89500000D03*
X113800000Y-89800000D03*
X163500000Y-86600000D03*
X172000000Y-76925170D03*
X151677268Y-118000000D03*
X167000000Y-91944520D03*
X108000000Y-95200000D03*
X132000000Y-115241302D03*
X186892751Y-92000000D03*
X186775876Y-117000000D03*
X163500000Y-104500000D03*
X186943291Y-87000000D03*
X166000000Y-116500000D03*
X172000000Y-128890531D03*
X116700000Y-82200000D03*
X112000000Y-76991685D03*
X131400000Y-98900000D03*
X115500000Y-99500000D03*
X119200000Y-122600000D03*
X157000000Y-86887821D03*
X146700000Y-88900000D03*
X138400000Y-89500000D03*
X107000000Y-122000000D03*
X138300000Y-111400000D03*
X170500000Y-116750000D03*
X162500000Y-84300000D03*
X179000000Y-98500000D03*
X116600000Y-102100000D03*
X158000000Y-114000000D03*
X172000000Y-107800000D03*
X161700000Y-102200000D03*
X106500000Y-113500000D03*
X112000000Y-128498857D03*
X186857001Y-102000000D03*
X133200000Y-121600000D03*
X133400000Y-111000000D03*
X133700000Y-102000000D03*
X161000000Y-121600000D03*
X139500000Y-94500000D03*
X147000000Y-128476904D03*
X158000000Y-112000000D03*
X125550000Y-114700000D03*
X151350000Y-102350000D03*
X137500000Y-89500000D03*
X140000000Y-115300000D03*
X147000000Y-82000000D03*
X182000000Y-86995069D03*
X127500000Y-86755917D03*
D21*
X118700000Y-83800000D03*
D20*
X151700000Y-121576496D03*
X165500000Y-107482790D03*
X185500000Y-108000000D03*
X162000000Y-111979125D03*
X147200000Y-122600000D03*
X165000000Y-96000000D03*
X112000000Y-95212212D03*
X157000000Y-128471130D03*
X177000000Y-128942010D03*
X137000000Y-128482678D03*
X167000000Y-76933484D03*
X137000000Y-76958428D03*
D21*
X120100000Y-83800000D03*
D20*
X126950000Y-105550000D03*
X151500000Y-82000000D03*
X125000000Y-122600000D03*
X161200000Y-122600000D03*
X165000000Y-128600000D03*
X122000000Y-76975057D03*
X186756206Y-129000000D03*
X138300000Y-116400000D03*
X117800000Y-86000000D03*
X122950000Y-111500000D03*
X152100000Y-92700000D03*
X127000000Y-76975056D03*
X181978181Y-117000000D03*
X167000000Y-101972166D03*
X110800000Y-92300000D03*
X173610000Y-100400000D03*
X177500000Y-115600000D03*
D21*
X130300000Y-83800000D03*
D20*
X117500000Y-88500000D03*
X181750000Y-111500000D03*
X161000000Y-107462102D03*
X142600000Y-89500000D03*
X162000000Y-86923570D03*
X133200000Y-122600000D03*
D21*
X140500000Y-83800000D03*
D20*
X152000000Y-128475761D03*
X134850000Y-107850000D03*
X112100000Y-103800000D03*
X142000000Y-76958428D03*
X107000000Y-128500000D03*
X186758635Y-122000000D03*
X156000000Y-105000000D03*
X181750000Y-106500000D03*
X112900000Y-108900000D03*
X178275000Y-79425000D03*
X120750000Y-119500000D03*
X151000000Y-110200000D03*
X156000000Y-108000000D03*
X156000000Y-101922514D03*
X182000000Y-128993490D03*
X119200000Y-121600000D03*
X177000000Y-76925169D03*
X177600000Y-109800000D03*
X139100000Y-107900000D03*
X135900000Y-96700000D03*
X182000000Y-92000000D03*
X111400000Y-115000000D03*
X173600000Y-94400000D03*
D21*
X181722716Y-100281167D03*
D20*
X115000000Y-116000000D03*
X132000000Y-111949333D03*
X176000000Y-87600000D03*
X141700000Y-105000000D03*
X172000000Y-86959320D03*
X109800000Y-121600000D03*
X171300000Y-124300000D03*
X161800000Y-91300000D03*
X117000000Y-128494226D03*
X172000000Y-101996992D03*
X114400000Y-79600000D03*
X157000000Y-76941799D03*
X110000000Y-95200000D03*
X177000000Y-91985896D03*
X107400000Y-103800000D03*
X117800000Y-84000000D03*
X118600000Y-116400000D03*
X109500000Y-103800000D03*
X169600000Y-109200000D03*
X113800000Y-82000000D03*
X151450000Y-96600000D03*
X120400000Y-112400000D03*
X122000000Y-122000000D03*
X122500000Y-86755917D03*
X152000000Y-76941799D03*
X167000000Y-86948520D03*
X127999938Y-94800000D03*
X123050000Y-107200000D03*
X125300000Y-92550000D03*
X185500000Y-105500000D03*
X146700000Y-115100000D03*
X122000000Y-104000000D03*
X162000000Y-128469987D03*
X152500000Y-99400000D03*
X122000000Y-128493083D03*
X107000000Y-92000000D03*
X127000000Y-128488452D03*
X107500000Y-117200000D03*
X182000000Y-76916855D03*
X139200000Y-103800000D03*
X114400000Y-91400000D03*
X120200000Y-108950000D03*
X117000000Y-76983371D03*
X156000000Y-97000000D03*
X153200000Y-122600000D03*
X151000000Y-111250000D03*
X134600000Y-97800000D03*
X128000000Y-95904128D03*
X157500000Y-100800000D03*
X184250000Y-109000000D03*
X136200000Y-97800000D03*
X163500000Y-84300000D03*
X157500000Y-105000000D03*
X133000000Y-108373500D03*
X133000000Y-97800000D03*
X114500000Y-99500000D03*
X164300000Y-86100000D03*
X139900000Y-107100000D03*
X109500000Y-106000000D03*
X120200000Y-110000000D03*
X170600000Y-109200000D03*
X130500000Y-107500000D03*
X156500000Y-107000000D03*
X164000000Y-128600000D03*
X164000000Y-125900000D03*
X114050000Y-83050000D03*
X114050000Y-87950000D03*
X182750000Y-106500000D03*
X113000000Y-95212212D03*
X111000000Y-95200000D03*
X107000000Y-95200000D03*
X110800000Y-91400000D03*
D21*
X117300000Y-85050000D03*
X117300000Y-86950000D03*
D20*
X110800000Y-79600000D03*
X137200000Y-110700000D03*
X137200000Y-116700000D03*
X150500500Y-96200000D03*
X139000000Y-110700000D03*
X139000000Y-115600000D03*
X153250000Y-98600000D03*
X116600000Y-105900000D03*
X119150000Y-109250000D03*
X178300000Y-108800000D03*
X182750000Y-111500000D03*
X110600000Y-103800000D03*
X122100000Y-107200000D03*
X126062500Y-106312500D03*
X113000000Y-104000000D03*
X156500000Y-106000000D03*
X171000000Y-106600000D03*
X141400000Y-106000000D03*
X130500000Y-106000000D03*
X120400000Y-111400000D03*
X139200000Y-105000000D03*
X125100000Y-101800000D03*
X133000000Y-101400000D03*
X126450000Y-103300000D03*
X121400000Y-98700000D03*
X134600000Y-101400000D03*
X128850000Y-111900000D03*
X161000000Y-120600000D03*
X126600000Y-114700000D03*
X151700000Y-120600000D03*
X123600000Y-112200000D03*
X147200000Y-120600000D03*
X137600000Y-120600000D03*
X122300000Y-112200000D03*
X133200000Y-120600000D03*
X121200000Y-118700000D03*
X117900000Y-114000000D03*
X119200000Y-120600000D03*
X116400000Y-115300000D03*
X109800000Y-120600000D03*
X161750000Y-113000000D03*
X169500000Y-117000000D03*
X161750000Y-115000000D03*
X167000000Y-117225788D03*
X133598363Y-103998795D03*
X123000000Y-104000000D03*
X127700000Y-104699500D03*
X133599500Y-105300500D03*
X119150000Y-115679112D03*
X140600000Y-105000000D03*
X158000000Y-113000000D03*
X181500500Y-99487174D03*
X142300000Y-90600000D03*
D21*
X141700000Y-89500000D03*
D20*
X141500000Y-91300000D03*
D21*
X140900000Y-89500000D03*
X140100000Y-89500000D03*
D20*
X140700000Y-92000000D03*
X139900000Y-92700000D03*
D21*
X139300000Y-89500000D03*
X136600000Y-89500000D03*
D20*
X139100000Y-93400000D03*
X138300000Y-94100000D03*
D21*
X135800000Y-89500000D03*
X135000000Y-89500000D03*
D20*
X137500000Y-94800000D03*
D21*
X134200000Y-89500000D03*
D20*
X136700000Y-95500000D03*
X130000000Y-95100000D03*
X125300000Y-93500000D03*
X140900000Y-114500000D03*
X150600000Y-97123500D03*
X140900000Y-110700000D03*
X115001000Y-114875000D03*
X115700500Y-116750000D03*
X158000000Y-111000000D03*
X158000000Y-115000000D03*
%TA.AperFunction,Conductor*%
G36*
X188675000Y-75270462D02*
G01*
X188729538Y-75325000D01*
X188749500Y-75399500D01*
X188749500Y-129600500D01*
X188729538Y-129675000D01*
X188675000Y-129729538D01*
X188600500Y-129749500D01*
X105399500Y-129749500D01*
X105325000Y-129729538D01*
X105270462Y-129675000D01*
X105250500Y-129600500D01*
X105250500Y-128599999D01*
X163517589Y-128599999D01*
X163537129Y-128735909D01*
X163594171Y-128860812D01*
X163684085Y-128964578D01*
X163684088Y-128964580D01*
X163684089Y-128964581D01*
X163799600Y-129038816D01*
X163931346Y-129077500D01*
X163931348Y-129077500D01*
X164068652Y-129077500D01*
X164068654Y-129077500D01*
X164200400Y-129038816D01*
X164315911Y-128964581D01*
X164405829Y-128860811D01*
X164462869Y-128735911D01*
X164462868Y-128735911D01*
X164462870Y-128735909D01*
X164482410Y-128599999D01*
X164462870Y-128464090D01*
X164405828Y-128339187D01*
X164315914Y-128235421D01*
X164200400Y-128161184D01*
X164068654Y-128122500D01*
X163931346Y-128122500D01*
X163843515Y-128148289D01*
X163799599Y-128161184D01*
X163684085Y-128235421D01*
X163594171Y-128339187D01*
X163537129Y-128464090D01*
X163517589Y-128599999D01*
X105250500Y-128599999D01*
X105250500Y-124999999D01*
X105787210Y-124999999D01*
X105806340Y-125255277D01*
X105863303Y-125504851D01*
X105956828Y-125743149D01*
X106084827Y-125964848D01*
X106125250Y-126015537D01*
X106125251Y-126015537D01*
X106935569Y-125205218D01*
X106975901Y-125302588D01*
X107072075Y-125427925D01*
X107197412Y-125524099D01*
X107294779Y-125564429D01*
X106484420Y-126374788D01*
X106643602Y-126483317D01*
X106874251Y-126594391D01*
X107118866Y-126669845D01*
X107372004Y-126708000D01*
X107627996Y-126708000D01*
X107881133Y-126669845D01*
X108125754Y-126594389D01*
X108356393Y-126483319D01*
X108515578Y-126374788D01*
X107705219Y-125564429D01*
X107802588Y-125524099D01*
X107927925Y-125427925D01*
X108024099Y-125302589D01*
X108064430Y-125205220D01*
X108874747Y-126015537D01*
X108915171Y-125964849D01*
X109043171Y-125743149D01*
X109136696Y-125504851D01*
X109193659Y-125255277D01*
X109212789Y-125000000D01*
X109212789Y-124999999D01*
X109667429Y-124999999D01*
X109687673Y-125231398D01*
X109747793Y-125455766D01*
X109833323Y-125639187D01*
X109845960Y-125666286D01*
X109979191Y-125856560D01*
X110143440Y-126020809D01*
X110333714Y-126154040D01*
X110544234Y-126252207D01*
X110768601Y-126312326D01*
X111000000Y-126332571D01*
X111231399Y-126312326D01*
X111455766Y-126252207D01*
X111666286Y-126154040D01*
X111856560Y-126020809D01*
X112020809Y-125856560D01*
X112154040Y-125666286D01*
X112252207Y-125455766D01*
X112312326Y-125231399D01*
X112332571Y-125000000D01*
X112332571Y-124999999D01*
X113167429Y-124999999D01*
X113187673Y-125231398D01*
X113247793Y-125455766D01*
X113333323Y-125639187D01*
X113345960Y-125666286D01*
X113479191Y-125856560D01*
X113643440Y-126020809D01*
X113833714Y-126154040D01*
X114044234Y-126252207D01*
X114268601Y-126312326D01*
X114500000Y-126332571D01*
X114731399Y-126312326D01*
X114955766Y-126252207D01*
X115040794Y-126212558D01*
X116672500Y-126212558D01*
X116679898Y-126249748D01*
X116708078Y-126291922D01*
X116750252Y-126320102D01*
X116787442Y-126327500D01*
X116787445Y-126327500D01*
X119212555Y-126327500D01*
X119212558Y-126327500D01*
X119249748Y-126320102D01*
X119291922Y-126291922D01*
X119320102Y-126249748D01*
X119327500Y-126212558D01*
X119327500Y-124999999D01*
X119787210Y-124999999D01*
X119806340Y-125255277D01*
X119863303Y-125504851D01*
X119956828Y-125743149D01*
X120084827Y-125964848D01*
X120125250Y-126015537D01*
X120125251Y-126015537D01*
X120935569Y-125205218D01*
X120975901Y-125302588D01*
X121072075Y-125427925D01*
X121197412Y-125524099D01*
X121294779Y-125564429D01*
X120484420Y-126374788D01*
X120643602Y-126483317D01*
X120874251Y-126594391D01*
X121118866Y-126669845D01*
X121372004Y-126708000D01*
X121627996Y-126708000D01*
X121881133Y-126669845D01*
X122125754Y-126594389D01*
X122356393Y-126483319D01*
X122515578Y-126374788D01*
X121705219Y-125564429D01*
X121802588Y-125524099D01*
X121927925Y-125427925D01*
X122024099Y-125302589D01*
X122064430Y-125205220D01*
X122874747Y-126015537D01*
X122915171Y-125964849D01*
X123043171Y-125743149D01*
X123136696Y-125504851D01*
X123193659Y-125255277D01*
X123212789Y-125000000D01*
X123667429Y-125000000D01*
X123687673Y-125231398D01*
X123747793Y-125455766D01*
X123833323Y-125639187D01*
X123845960Y-125666286D01*
X123979191Y-125856560D01*
X124143440Y-126020809D01*
X124333714Y-126154040D01*
X124544234Y-126252207D01*
X124768601Y-126312326D01*
X125000000Y-126332571D01*
X125231399Y-126312326D01*
X125455766Y-126252207D01*
X125666286Y-126154040D01*
X125856560Y-126020809D01*
X126020809Y-125856560D01*
X126154040Y-125666286D01*
X126252207Y-125455766D01*
X126312326Y-125231399D01*
X126332571Y-125000000D01*
X126332571Y-124999999D01*
X127167429Y-124999999D01*
X127187673Y-125231398D01*
X127247793Y-125455766D01*
X127333323Y-125639187D01*
X127345960Y-125666286D01*
X127479191Y-125856560D01*
X127643440Y-126020809D01*
X127833714Y-126154040D01*
X128044234Y-126252207D01*
X128268601Y-126312326D01*
X128500000Y-126332571D01*
X128731399Y-126312326D01*
X128955766Y-126252207D01*
X129040794Y-126212558D01*
X130672500Y-126212558D01*
X130679898Y-126249748D01*
X130708078Y-126291922D01*
X130750252Y-126320102D01*
X130787442Y-126327500D01*
X130787445Y-126327500D01*
X133212555Y-126327500D01*
X133212558Y-126327500D01*
X133249748Y-126320102D01*
X133291922Y-126291922D01*
X133320102Y-126249748D01*
X133327500Y-126212558D01*
X133327500Y-125000000D01*
X133787210Y-125000000D01*
X133806340Y-125255277D01*
X133863303Y-125504851D01*
X133956828Y-125743149D01*
X134084827Y-125964848D01*
X134125250Y-126015537D01*
X134125251Y-126015537D01*
X134935569Y-125205218D01*
X134975901Y-125302588D01*
X135072075Y-125427925D01*
X135197412Y-125524099D01*
X135294779Y-125564429D01*
X134484420Y-126374788D01*
X134643602Y-126483317D01*
X134874251Y-126594391D01*
X135118866Y-126669845D01*
X135372004Y-126708000D01*
X135627996Y-126708000D01*
X135881133Y-126669845D01*
X136125754Y-126594389D01*
X136356393Y-126483319D01*
X136515578Y-126374788D01*
X135705219Y-125564429D01*
X135802588Y-125524099D01*
X135927925Y-125427925D01*
X136024099Y-125302589D01*
X136064430Y-125205220D01*
X136874747Y-126015537D01*
X136915171Y-125964849D01*
X137043171Y-125743149D01*
X137136696Y-125504851D01*
X137193659Y-125255277D01*
X137212789Y-125000000D01*
X137667429Y-125000000D01*
X137687673Y-125231398D01*
X137747793Y-125455766D01*
X137833323Y-125639187D01*
X137845960Y-125666286D01*
X137979191Y-125856560D01*
X138143440Y-126020809D01*
X138333714Y-126154040D01*
X138544234Y-126252207D01*
X138768601Y-126312326D01*
X139000000Y-126332571D01*
X139231399Y-126312326D01*
X139455766Y-126252207D01*
X139666286Y-126154040D01*
X139856560Y-126020809D01*
X140020809Y-125856560D01*
X140154040Y-125666286D01*
X140252207Y-125455766D01*
X140312326Y-125231399D01*
X140332571Y-125000000D01*
X140332571Y-124999999D01*
X141167429Y-124999999D01*
X141187673Y-125231398D01*
X141247793Y-125455766D01*
X141333323Y-125639187D01*
X141345960Y-125666286D01*
X141479191Y-125856560D01*
X141643440Y-126020809D01*
X141833714Y-126154040D01*
X142044234Y-126252207D01*
X142268601Y-126312326D01*
X142500000Y-126332571D01*
X142731399Y-126312326D01*
X142955766Y-126252207D01*
X143040794Y-126212558D01*
X144672500Y-126212558D01*
X144679898Y-126249748D01*
X144708078Y-126291922D01*
X144750252Y-126320102D01*
X144787442Y-126327500D01*
X144787445Y-126327500D01*
X147212555Y-126327500D01*
X147212558Y-126327500D01*
X147249748Y-126320102D01*
X147291922Y-126291922D01*
X147320102Y-126249748D01*
X147327500Y-126212558D01*
X147327500Y-124999999D01*
X147787210Y-124999999D01*
X147806340Y-125255277D01*
X147863303Y-125504851D01*
X147956828Y-125743149D01*
X148084827Y-125964848D01*
X148125250Y-126015537D01*
X148125251Y-126015537D01*
X148935569Y-125205218D01*
X148975901Y-125302588D01*
X149072075Y-125427925D01*
X149197412Y-125524099D01*
X149294779Y-125564429D01*
X148484420Y-126374788D01*
X148643602Y-126483317D01*
X148874251Y-126594391D01*
X149118866Y-126669845D01*
X149372004Y-126708000D01*
X149627996Y-126708000D01*
X149881133Y-126669845D01*
X150125754Y-126594389D01*
X150356393Y-126483319D01*
X150515578Y-126374788D01*
X149705219Y-125564429D01*
X149802588Y-125524099D01*
X149927925Y-125427925D01*
X150024099Y-125302589D01*
X150064430Y-125205220D01*
X150874747Y-126015537D01*
X150915171Y-125964849D01*
X151043171Y-125743149D01*
X151136696Y-125504851D01*
X151193659Y-125255277D01*
X151212789Y-125000000D01*
X151212789Y-124999999D01*
X151667429Y-124999999D01*
X151687673Y-125231398D01*
X151747793Y-125455766D01*
X151833323Y-125639187D01*
X151845960Y-125666286D01*
X151979191Y-125856560D01*
X152143440Y-126020809D01*
X152333714Y-126154040D01*
X152544234Y-126252207D01*
X152768601Y-126312326D01*
X153000000Y-126332571D01*
X153231399Y-126312326D01*
X153455766Y-126252207D01*
X153666286Y-126154040D01*
X153856560Y-126020809D01*
X154020809Y-125856560D01*
X154154040Y-125666286D01*
X154252207Y-125455766D01*
X154312326Y-125231399D01*
X154332571Y-125000000D01*
X154332571Y-124999999D01*
X155167429Y-124999999D01*
X155187673Y-125231398D01*
X155247793Y-125455766D01*
X155333323Y-125639187D01*
X155345960Y-125666286D01*
X155479191Y-125856560D01*
X155643440Y-126020809D01*
X155833714Y-126154040D01*
X156044234Y-126252207D01*
X156268601Y-126312326D01*
X156500000Y-126332571D01*
X156731399Y-126312326D01*
X156955766Y-126252207D01*
X157040794Y-126212558D01*
X158672500Y-126212558D01*
X158679898Y-126249748D01*
X158708078Y-126291922D01*
X158750252Y-126320102D01*
X158787442Y-126327500D01*
X158787445Y-126327500D01*
X161212555Y-126327500D01*
X161212558Y-126327500D01*
X161249748Y-126320102D01*
X161291922Y-126291922D01*
X161320102Y-126249748D01*
X161327500Y-126212558D01*
X161327500Y-125899999D01*
X163517589Y-125899999D01*
X163537129Y-126035909D01*
X163594171Y-126160812D01*
X163684085Y-126264578D01*
X163684088Y-126264580D01*
X163684089Y-126264581D01*
X163799600Y-126338816D01*
X163931346Y-126377500D01*
X163931348Y-126377500D01*
X164068652Y-126377500D01*
X164068654Y-126377500D01*
X164200400Y-126338816D01*
X164315911Y-126264581D01*
X164326634Y-126252207D01*
X164405828Y-126160812D01*
X164405827Y-126160812D01*
X164405829Y-126160811D01*
X164462869Y-126035911D01*
X164462868Y-126035911D01*
X164462870Y-126035909D01*
X164482410Y-125900000D01*
X164462870Y-125764090D01*
X164405828Y-125639187D01*
X164315914Y-125535421D01*
X164200400Y-125461184D01*
X164181948Y-125455766D01*
X164068654Y-125422500D01*
X163931346Y-125422500D01*
X163843515Y-125448289D01*
X163799599Y-125461184D01*
X163684085Y-125535421D01*
X163594171Y-125639187D01*
X163537129Y-125764090D01*
X163517589Y-125899999D01*
X161327500Y-125899999D01*
X161327500Y-125350000D01*
X165517589Y-125350000D01*
X165537129Y-125485909D01*
X165594171Y-125610812D01*
X165684085Y-125714578D01*
X165684088Y-125714580D01*
X165684089Y-125714581D01*
X165799600Y-125788816D01*
X165931346Y-125827500D01*
X165931348Y-125827500D01*
X166068652Y-125827500D01*
X166068654Y-125827500D01*
X166200400Y-125788816D01*
X166315911Y-125714581D01*
X166405829Y-125610811D01*
X166462869Y-125485911D01*
X166462868Y-125485911D01*
X166462870Y-125485909D01*
X166482410Y-125349999D01*
X166462870Y-125214090D01*
X166405828Y-125089187D01*
X166315914Y-124985421D01*
X166200400Y-124911184D01*
X166200399Y-124911184D01*
X166068654Y-124872500D01*
X165931346Y-124872500D01*
X165843515Y-124898289D01*
X165799599Y-124911184D01*
X165684085Y-124985421D01*
X165594171Y-125089187D01*
X165537129Y-125214090D01*
X165517589Y-125350000D01*
X161327500Y-125350000D01*
X161327500Y-123787442D01*
X161320102Y-123750252D01*
X161291922Y-123708078D01*
X161249748Y-123679898D01*
X161212558Y-123672500D01*
X158787442Y-123672500D01*
X158759549Y-123678048D01*
X158750251Y-123679898D01*
X158708078Y-123708078D01*
X158679898Y-123750251D01*
X158679897Y-123750252D01*
X158679898Y-123750252D01*
X158672500Y-123787442D01*
X158672500Y-126212558D01*
X157040794Y-126212558D01*
X157166286Y-126154040D01*
X157356560Y-126020809D01*
X157520809Y-125856560D01*
X157654040Y-125666286D01*
X157752207Y-125455766D01*
X157812326Y-125231399D01*
X157832571Y-125000000D01*
X157812326Y-124768601D01*
X157752207Y-124544234D01*
X157654040Y-124333715D01*
X157520809Y-124143440D01*
X157356560Y-123979191D01*
X157166286Y-123845960D01*
X157120882Y-123824788D01*
X156955766Y-123747793D01*
X156731398Y-123687673D01*
X156520244Y-123669200D01*
X156500000Y-123667429D01*
X156499999Y-123667429D01*
X156268601Y-123687673D01*
X156044233Y-123747792D01*
X155833713Y-123845960D01*
X155643441Y-123979189D01*
X155479189Y-124143441D01*
X155345960Y-124333713D01*
X155247792Y-124544233D01*
X155187673Y-124768601D01*
X155167429Y-124999999D01*
X154332571Y-124999999D01*
X154312326Y-124768601D01*
X154252207Y-124544234D01*
X154154040Y-124333715D01*
X154020809Y-124143440D01*
X153856560Y-123979191D01*
X153666286Y-123845960D01*
X153620882Y-123824788D01*
X153455766Y-123747793D01*
X153231398Y-123687673D01*
X153000000Y-123667429D01*
X152768601Y-123687673D01*
X152544233Y-123747792D01*
X152333713Y-123845960D01*
X152143441Y-123979189D01*
X151979189Y-124143441D01*
X151845960Y-124333713D01*
X151747792Y-124544233D01*
X151687673Y-124768601D01*
X151667429Y-124999999D01*
X151212789Y-124999999D01*
X151193659Y-124744722D01*
X151136696Y-124495148D01*
X151043171Y-124256850D01*
X150915172Y-124035151D01*
X150874747Y-123984461D01*
X150064429Y-124794779D01*
X150024099Y-124697412D01*
X149927925Y-124572075D01*
X149802588Y-124475901D01*
X149705218Y-124435569D01*
X150515578Y-123625210D01*
X150356398Y-123516682D01*
X150125748Y-123405608D01*
X149881133Y-123330154D01*
X149627996Y-123292000D01*
X149372004Y-123292000D01*
X149118866Y-123330154D01*
X148874251Y-123405608D01*
X148643602Y-123516682D01*
X148484421Y-123625210D01*
X148484421Y-123625211D01*
X149294780Y-124435570D01*
X149197412Y-124475901D01*
X149072075Y-124572075D01*
X148975901Y-124697411D01*
X148935569Y-124794779D01*
X148125251Y-123984461D01*
X148125250Y-123984461D01*
X148084826Y-124035152D01*
X147956828Y-124256850D01*
X147863303Y-124495148D01*
X147806340Y-124744722D01*
X147787210Y-124999999D01*
X147327500Y-124999999D01*
X147327500Y-123787442D01*
X147320102Y-123750252D01*
X147291922Y-123708078D01*
X147249748Y-123679898D01*
X147212558Y-123672500D01*
X144787442Y-123672500D01*
X144759549Y-123678048D01*
X144750251Y-123679898D01*
X144708078Y-123708078D01*
X144679898Y-123750251D01*
X144679897Y-123750252D01*
X144679898Y-123750252D01*
X144672500Y-123787442D01*
X144672500Y-126212558D01*
X143040794Y-126212558D01*
X143166286Y-126154040D01*
X143356560Y-126020809D01*
X143520809Y-125856560D01*
X143654040Y-125666286D01*
X143752207Y-125455766D01*
X143812326Y-125231399D01*
X143832571Y-125000000D01*
X143812326Y-124768601D01*
X143752207Y-124544234D01*
X143654040Y-124333715D01*
X143520809Y-124143440D01*
X143356560Y-123979191D01*
X143166286Y-123845960D01*
X143120882Y-123824788D01*
X142955766Y-123747793D01*
X142731398Y-123687673D01*
X142520243Y-123669200D01*
X142500000Y-123667429D01*
X142499999Y-123667429D01*
X142268601Y-123687673D01*
X142044233Y-123747792D01*
X141833713Y-123845960D01*
X141643441Y-123979189D01*
X141479189Y-124143441D01*
X141345960Y-124333713D01*
X141247792Y-124544233D01*
X141187673Y-124768601D01*
X141167429Y-124999999D01*
X140332571Y-124999999D01*
X140312326Y-124768601D01*
X140252207Y-124544234D01*
X140154040Y-124333715D01*
X140020809Y-124143440D01*
X139856560Y-123979191D01*
X139666286Y-123845960D01*
X139620882Y-123824788D01*
X139455766Y-123747793D01*
X139231398Y-123687673D01*
X139000000Y-123667429D01*
X138768601Y-123687673D01*
X138544233Y-123747792D01*
X138333713Y-123845960D01*
X138143441Y-123979189D01*
X137979189Y-124143441D01*
X137845960Y-124333713D01*
X137747792Y-124544233D01*
X137687673Y-124768601D01*
X137667429Y-125000000D01*
X137212789Y-125000000D01*
X137212789Y-124999999D01*
X137193659Y-124744722D01*
X137136696Y-124495148D01*
X137043171Y-124256850D01*
X136915172Y-124035151D01*
X136874747Y-123984461D01*
X136064429Y-124794778D01*
X136024099Y-124697412D01*
X135927925Y-124572075D01*
X135802588Y-124475901D01*
X135705218Y-124435569D01*
X136515578Y-123625210D01*
X136356398Y-123516682D01*
X136125748Y-123405608D01*
X135881133Y-123330154D01*
X135627996Y-123292000D01*
X135372004Y-123292000D01*
X135118866Y-123330154D01*
X134874251Y-123405608D01*
X134643602Y-123516682D01*
X134484421Y-123625210D01*
X134484421Y-123625211D01*
X135294780Y-124435570D01*
X135197412Y-124475901D01*
X135072075Y-124572075D01*
X134975901Y-124697411D01*
X134935569Y-124794779D01*
X134125251Y-123984461D01*
X134125250Y-123984461D01*
X134084826Y-124035152D01*
X133956828Y-124256850D01*
X133863303Y-124495148D01*
X133806340Y-124744722D01*
X133787210Y-125000000D01*
X133327500Y-125000000D01*
X133327500Y-123787442D01*
X133320102Y-123750252D01*
X133291922Y-123708078D01*
X133249748Y-123679898D01*
X133212558Y-123672500D01*
X130787442Y-123672500D01*
X130759549Y-123678048D01*
X130750251Y-123679898D01*
X130708078Y-123708078D01*
X130679898Y-123750251D01*
X130679897Y-123750252D01*
X130679898Y-123750252D01*
X130672500Y-123787442D01*
X130672500Y-126212558D01*
X129040794Y-126212558D01*
X129166286Y-126154040D01*
X129356560Y-126020809D01*
X129520809Y-125856560D01*
X129654040Y-125666286D01*
X129752207Y-125455766D01*
X129812326Y-125231399D01*
X129832571Y-125000000D01*
X129812326Y-124768601D01*
X129752207Y-124544234D01*
X129654040Y-124333715D01*
X129520809Y-124143440D01*
X129356560Y-123979191D01*
X129166286Y-123845960D01*
X129120882Y-123824788D01*
X128955766Y-123747793D01*
X128731398Y-123687673D01*
X128500000Y-123667429D01*
X128268601Y-123687673D01*
X128044233Y-123747792D01*
X127833713Y-123845960D01*
X127643441Y-123979189D01*
X127479189Y-124143441D01*
X127345960Y-124333713D01*
X127247792Y-124544233D01*
X127187673Y-124768601D01*
X127167429Y-124999999D01*
X126332571Y-124999999D01*
X126312326Y-124768601D01*
X126252207Y-124544234D01*
X126154040Y-124333715D01*
X126020809Y-124143440D01*
X125856560Y-123979191D01*
X125666286Y-123845960D01*
X125620882Y-123824788D01*
X125455766Y-123747793D01*
X125231398Y-123687673D01*
X125000000Y-123667429D01*
X124768601Y-123687673D01*
X124544233Y-123747792D01*
X124333713Y-123845960D01*
X124143441Y-123979189D01*
X123979189Y-124143441D01*
X123845960Y-124333713D01*
X123747792Y-124544233D01*
X123687673Y-124768601D01*
X123667429Y-125000000D01*
X123212789Y-125000000D01*
X123193659Y-124744722D01*
X123136696Y-124495148D01*
X123043171Y-124256850D01*
X122915172Y-124035151D01*
X122874747Y-123984461D01*
X122064429Y-124794779D01*
X122024099Y-124697412D01*
X121927925Y-124572075D01*
X121802588Y-124475901D01*
X121705218Y-124435569D01*
X122515578Y-123625210D01*
X122356398Y-123516682D01*
X122125748Y-123405608D01*
X121881133Y-123330154D01*
X121627996Y-123292000D01*
X121372004Y-123292000D01*
X121118866Y-123330154D01*
X120874251Y-123405608D01*
X120643602Y-123516682D01*
X120484421Y-123625210D01*
X120484421Y-123625211D01*
X121294780Y-124435570D01*
X121197412Y-124475901D01*
X121072075Y-124572075D01*
X120975901Y-124697411D01*
X120935569Y-124794779D01*
X120125251Y-123984461D01*
X120125250Y-123984461D01*
X120084826Y-124035152D01*
X119956828Y-124256850D01*
X119863303Y-124495148D01*
X119806340Y-124744722D01*
X119787210Y-124999999D01*
X119327500Y-124999999D01*
X119327500Y-123787442D01*
X119320102Y-123750252D01*
X119291922Y-123708078D01*
X119249748Y-123679898D01*
X119212558Y-123672500D01*
X116787442Y-123672500D01*
X116759549Y-123678048D01*
X116750251Y-123679898D01*
X116708078Y-123708078D01*
X116679898Y-123750251D01*
X116679897Y-123750252D01*
X116679898Y-123750252D01*
X116672500Y-123787442D01*
X116672500Y-126212558D01*
X115040794Y-126212558D01*
X115166286Y-126154040D01*
X115356560Y-126020809D01*
X115520809Y-125856560D01*
X115654040Y-125666286D01*
X115752207Y-125455766D01*
X115812326Y-125231399D01*
X115832571Y-125000000D01*
X115812326Y-124768601D01*
X115752207Y-124544234D01*
X115654040Y-124333715D01*
X115520809Y-124143440D01*
X115356560Y-123979191D01*
X115166286Y-123845960D01*
X115120882Y-123824788D01*
X114955766Y-123747793D01*
X114731398Y-123687673D01*
X114500000Y-123667429D01*
X114268601Y-123687673D01*
X114044233Y-123747792D01*
X113833713Y-123845960D01*
X113643441Y-123979189D01*
X113479189Y-124143441D01*
X113345960Y-124333713D01*
X113247792Y-124544233D01*
X113187673Y-124768601D01*
X113167429Y-124999999D01*
X112332571Y-124999999D01*
X112312326Y-124768601D01*
X112252207Y-124544234D01*
X112154040Y-124333715D01*
X112020809Y-124143440D01*
X111856560Y-123979191D01*
X111666286Y-123845960D01*
X111620882Y-123824788D01*
X111455766Y-123747793D01*
X111231398Y-123687673D01*
X111020244Y-123669200D01*
X111000000Y-123667429D01*
X110999999Y-123667429D01*
X110768601Y-123687673D01*
X110544233Y-123747792D01*
X110333713Y-123845960D01*
X110143441Y-123979189D01*
X109979189Y-124143441D01*
X109845960Y-124333713D01*
X109747792Y-124544233D01*
X109687673Y-124768601D01*
X109667429Y-124999999D01*
X109212789Y-124999999D01*
X109193659Y-124744722D01*
X109136696Y-124495148D01*
X109043171Y-124256850D01*
X108915172Y-124035151D01*
X108874747Y-123984461D01*
X108064429Y-124794779D01*
X108024099Y-124697412D01*
X107927925Y-124572075D01*
X107802588Y-124475901D01*
X107705218Y-124435569D01*
X108515578Y-123625210D01*
X108356398Y-123516682D01*
X108125748Y-123405608D01*
X107881133Y-123330154D01*
X107627996Y-123292000D01*
X107372004Y-123292000D01*
X107118866Y-123330154D01*
X106874251Y-123405608D01*
X106643607Y-123516680D01*
X106484421Y-123625211D01*
X107294780Y-124435570D01*
X107197412Y-124475901D01*
X107072075Y-124572075D01*
X106975901Y-124697411D01*
X106935569Y-124794779D01*
X106125251Y-123984461D01*
X106125250Y-123984461D01*
X106084826Y-124035152D01*
X105956828Y-124256850D01*
X105863303Y-124495148D01*
X105806340Y-124744722D01*
X105787210Y-124999999D01*
X105250500Y-124999999D01*
X105250500Y-122450000D01*
X182287210Y-122450000D01*
X182306340Y-122705277D01*
X182363303Y-122954851D01*
X182456828Y-123193149D01*
X182584827Y-123414848D01*
X182625250Y-123465537D01*
X182625251Y-123465537D01*
X183435569Y-122655218D01*
X183475901Y-122752588D01*
X183572075Y-122877925D01*
X183697412Y-122974099D01*
X183794779Y-123014429D01*
X182984420Y-123824788D01*
X183143602Y-123933317D01*
X183374251Y-124044391D01*
X183618866Y-124119845D01*
X183872004Y-124158000D01*
X184127996Y-124158000D01*
X184381133Y-124119845D01*
X184625754Y-124044389D01*
X184856393Y-123933319D01*
X185015578Y-123824788D01*
X184205219Y-123014429D01*
X184302588Y-122974099D01*
X184427925Y-122877925D01*
X184524099Y-122752589D01*
X184564430Y-122655220D01*
X185374747Y-123465537D01*
X185415171Y-123414849D01*
X185543171Y-123193149D01*
X185636696Y-122954851D01*
X185693659Y-122705277D01*
X185712789Y-122449999D01*
X185693659Y-122194722D01*
X185636696Y-121945148D01*
X185543171Y-121706850D01*
X185415172Y-121485151D01*
X185374747Y-121434461D01*
X184564429Y-122244779D01*
X184524099Y-122147412D01*
X184427925Y-122022075D01*
X184302588Y-121925901D01*
X184205218Y-121885569D01*
X185015578Y-121075210D01*
X184856398Y-120966682D01*
X184625748Y-120855608D01*
X184381133Y-120780154D01*
X184127996Y-120742000D01*
X183872004Y-120742000D01*
X183618866Y-120780154D01*
X183374251Y-120855608D01*
X183143602Y-120966682D01*
X182984421Y-121075210D01*
X182984421Y-121075211D01*
X183794780Y-121885570D01*
X183697412Y-121925901D01*
X183572075Y-122022075D01*
X183475901Y-122147411D01*
X183435569Y-122244779D01*
X182625251Y-121434461D01*
X182625250Y-121434461D01*
X182584826Y-121485152D01*
X182456828Y-121706850D01*
X182363303Y-121945148D01*
X182306340Y-122194722D01*
X182287210Y-122450000D01*
X105250500Y-122450000D01*
X105250500Y-120600000D01*
X109317589Y-120600000D01*
X109337129Y-120735909D01*
X109394171Y-120860812D01*
X109484085Y-120964578D01*
X109484088Y-120964580D01*
X109484089Y-120964581D01*
X109599600Y-121038816D01*
X109731346Y-121077500D01*
X109731348Y-121077500D01*
X109868652Y-121077500D01*
X109868654Y-121077500D01*
X110000400Y-121038816D01*
X110115911Y-120964581D01*
X110205829Y-120860811D01*
X110262869Y-120735911D01*
X110262868Y-120735911D01*
X110262870Y-120735909D01*
X110282410Y-120600000D01*
X118717589Y-120600000D01*
X118737129Y-120735909D01*
X118794171Y-120860812D01*
X118884085Y-120964578D01*
X118884088Y-120964580D01*
X118884089Y-120964581D01*
X118999600Y-121038816D01*
X119131346Y-121077500D01*
X119131348Y-121077500D01*
X119268652Y-121077500D01*
X119268654Y-121077500D01*
X119400400Y-121038816D01*
X119515911Y-120964581D01*
X119605829Y-120860811D01*
X119662869Y-120735911D01*
X119662868Y-120735911D01*
X119662870Y-120735909D01*
X119682410Y-120600000D01*
X119682410Y-120599999D01*
X132717589Y-120599999D01*
X132737129Y-120735909D01*
X132794171Y-120860812D01*
X132884085Y-120964578D01*
X132884088Y-120964580D01*
X132884089Y-120964581D01*
X132999600Y-121038816D01*
X133131346Y-121077500D01*
X133131348Y-121077500D01*
X133268652Y-121077500D01*
X133268654Y-121077500D01*
X133400400Y-121038816D01*
X133515911Y-120964581D01*
X133605829Y-120860811D01*
X133662869Y-120735911D01*
X133662868Y-120735911D01*
X133662870Y-120735909D01*
X133682410Y-120599999D01*
X137117589Y-120599999D01*
X137137129Y-120735909D01*
X137194171Y-120860812D01*
X137284085Y-120964578D01*
X137284088Y-120964580D01*
X137284089Y-120964581D01*
X137399600Y-121038816D01*
X137531346Y-121077500D01*
X137531348Y-121077500D01*
X137668652Y-121077500D01*
X137668654Y-121077500D01*
X137800400Y-121038816D01*
X137915911Y-120964581D01*
X138005829Y-120860811D01*
X138062869Y-120735911D01*
X138062868Y-120735911D01*
X138062870Y-120735909D01*
X138082410Y-120599999D01*
X146717589Y-120599999D01*
X146737129Y-120735909D01*
X146794171Y-120860812D01*
X146884085Y-120964578D01*
X146884088Y-120964580D01*
X146884089Y-120964581D01*
X146999600Y-121038816D01*
X147131346Y-121077500D01*
X147131348Y-121077500D01*
X147268652Y-121077500D01*
X147268654Y-121077500D01*
X147400400Y-121038816D01*
X147515911Y-120964581D01*
X147605829Y-120860811D01*
X147662869Y-120735911D01*
X147662868Y-120735911D01*
X147662870Y-120735909D01*
X147682410Y-120600000D01*
X151217589Y-120600000D01*
X151237129Y-120735909D01*
X151294171Y-120860812D01*
X151384085Y-120964578D01*
X151384088Y-120964580D01*
X151384089Y-120964581D01*
X151499600Y-121038816D01*
X151631346Y-121077500D01*
X151631348Y-121077500D01*
X151768652Y-121077500D01*
X151768654Y-121077500D01*
X151900400Y-121038816D01*
X152015911Y-120964581D01*
X152105829Y-120860811D01*
X152162869Y-120735911D01*
X152162868Y-120735911D01*
X152162870Y-120735909D01*
X152182410Y-120600000D01*
X160517589Y-120600000D01*
X160537129Y-120735909D01*
X160594171Y-120860812D01*
X160684085Y-120964578D01*
X160684088Y-120964580D01*
X160684089Y-120964581D01*
X160799600Y-121038816D01*
X160931346Y-121077500D01*
X160931348Y-121077500D01*
X161068652Y-121077500D01*
X161068654Y-121077500D01*
X161200400Y-121038816D01*
X161315911Y-120964581D01*
X161405829Y-120860811D01*
X161462869Y-120735911D01*
X161462868Y-120735911D01*
X161462870Y-120735909D01*
X161482410Y-120600000D01*
X161462870Y-120464090D01*
X161405828Y-120339187D01*
X161315914Y-120235421D01*
X161202538Y-120162558D01*
X182672500Y-120162558D01*
X182679898Y-120199748D01*
X182708078Y-120241922D01*
X182750252Y-120270102D01*
X182787442Y-120277500D01*
X182787445Y-120277500D01*
X185212555Y-120277500D01*
X185212558Y-120277500D01*
X185249748Y-120270102D01*
X185291922Y-120241922D01*
X185320102Y-120199748D01*
X185327500Y-120162558D01*
X185327500Y-117737442D01*
X185320102Y-117700252D01*
X185291922Y-117658078D01*
X185249748Y-117629898D01*
X185212558Y-117622500D01*
X182787442Y-117622500D01*
X182759549Y-117628048D01*
X182750251Y-117629898D01*
X182708078Y-117658078D01*
X182679898Y-117700251D01*
X182679897Y-117700252D01*
X182679898Y-117700252D01*
X182672500Y-117737442D01*
X182672500Y-120162558D01*
X161202538Y-120162558D01*
X161200400Y-120161184D01*
X161068654Y-120122500D01*
X160931346Y-120122500D01*
X160843515Y-120148289D01*
X160799599Y-120161184D01*
X160684085Y-120235421D01*
X160594171Y-120339187D01*
X160537129Y-120464090D01*
X160517589Y-120600000D01*
X152182410Y-120600000D01*
X152162870Y-120464090D01*
X152105828Y-120339187D01*
X152015914Y-120235421D01*
X151900400Y-120161184D01*
X151900399Y-120161184D01*
X151768654Y-120122500D01*
X151631346Y-120122500D01*
X151543515Y-120148289D01*
X151499599Y-120161184D01*
X151384085Y-120235421D01*
X151294171Y-120339187D01*
X151237129Y-120464090D01*
X151217589Y-120600000D01*
X147682410Y-120600000D01*
X147682410Y-120599999D01*
X147662870Y-120464090D01*
X147605828Y-120339187D01*
X147515914Y-120235421D01*
X147400400Y-120161184D01*
X147268654Y-120122500D01*
X147131346Y-120122500D01*
X147043515Y-120148289D01*
X146999599Y-120161184D01*
X146884085Y-120235421D01*
X146794171Y-120339187D01*
X146737129Y-120464090D01*
X146717589Y-120599999D01*
X138082410Y-120599999D01*
X138062870Y-120464090D01*
X138005828Y-120339187D01*
X137915914Y-120235421D01*
X137800400Y-120161184D01*
X137668654Y-120122500D01*
X137531346Y-120122500D01*
X137443515Y-120148289D01*
X137399599Y-120161184D01*
X137284085Y-120235421D01*
X137194171Y-120339187D01*
X137137129Y-120464090D01*
X137117589Y-120599999D01*
X133682410Y-120599999D01*
X133662870Y-120464090D01*
X133605828Y-120339187D01*
X133515914Y-120235421D01*
X133400400Y-120161184D01*
X133268654Y-120122500D01*
X133131346Y-120122500D01*
X133043515Y-120148289D01*
X132999599Y-120161184D01*
X132884085Y-120235421D01*
X132794171Y-120339187D01*
X132737129Y-120464090D01*
X132717589Y-120599999D01*
X119682410Y-120599999D01*
X119662870Y-120464090D01*
X119605828Y-120339187D01*
X119515914Y-120235421D01*
X119400400Y-120161184D01*
X119268654Y-120122500D01*
X119131346Y-120122500D01*
X119043515Y-120148289D01*
X118999599Y-120161184D01*
X118884085Y-120235421D01*
X118794171Y-120339187D01*
X118737129Y-120464090D01*
X118717589Y-120600000D01*
X110282410Y-120600000D01*
X110282410Y-120599999D01*
X110262870Y-120464090D01*
X110205828Y-120339187D01*
X110115914Y-120235421D01*
X110000400Y-120161184D01*
X109868654Y-120122500D01*
X109731346Y-120122500D01*
X109643515Y-120148289D01*
X109599599Y-120161184D01*
X109484085Y-120235421D01*
X109394171Y-120339187D01*
X109337129Y-120464090D01*
X109317589Y-120600000D01*
X105250500Y-120600000D01*
X105250500Y-118700000D01*
X120717589Y-118700000D01*
X120737129Y-118835909D01*
X120794171Y-118960812D01*
X120884085Y-119064578D01*
X120884088Y-119064580D01*
X120884089Y-119064581D01*
X120999600Y-119138816D01*
X121131346Y-119177500D01*
X121131348Y-119177500D01*
X121268652Y-119177500D01*
X121268654Y-119177500D01*
X121400400Y-119138816D01*
X121515911Y-119064581D01*
X121605829Y-118960811D01*
X121662869Y-118835911D01*
X121662868Y-118835911D01*
X121662870Y-118835909D01*
X121682410Y-118699999D01*
X121662870Y-118564090D01*
X121605828Y-118439187D01*
X121515914Y-118335421D01*
X121400400Y-118261184D01*
X121399130Y-118260811D01*
X121268654Y-118222500D01*
X121131346Y-118222500D01*
X121043515Y-118248289D01*
X120999599Y-118261184D01*
X120884085Y-118335421D01*
X120794171Y-118439187D01*
X120737129Y-118564090D01*
X120717589Y-118700000D01*
X105250500Y-118700000D01*
X105250500Y-118000000D01*
X161017589Y-118000000D01*
X161037129Y-118135909D01*
X161094171Y-118260812D01*
X161184085Y-118364578D01*
X161184088Y-118364580D01*
X161184089Y-118364581D01*
X161299600Y-118438816D01*
X161431346Y-118477500D01*
X161431348Y-118477500D01*
X161568652Y-118477500D01*
X161568654Y-118477500D01*
X161700400Y-118438816D01*
X161815911Y-118364581D01*
X161905829Y-118260811D01*
X161962869Y-118135911D01*
X161962868Y-118135911D01*
X161962870Y-118135909D01*
X161982410Y-118000000D01*
X161962870Y-117864090D01*
X161905828Y-117739187D01*
X161815914Y-117635421D01*
X161700400Y-117561184D01*
X161700399Y-117561184D01*
X161568654Y-117522500D01*
X161431346Y-117522500D01*
X161343515Y-117548289D01*
X161299599Y-117561184D01*
X161184085Y-117635421D01*
X161094171Y-117739187D01*
X161037129Y-117864090D01*
X161017589Y-118000000D01*
X105250500Y-118000000D01*
X105250500Y-116750000D01*
X115218089Y-116750000D01*
X115237629Y-116885909D01*
X115294671Y-117010812D01*
X115384585Y-117114578D01*
X115384588Y-117114580D01*
X115384589Y-117114581D01*
X115500100Y-117188816D01*
X115631846Y-117227500D01*
X115631848Y-117227500D01*
X115769152Y-117227500D01*
X115769154Y-117227500D01*
X115774985Y-117225788D01*
X166517589Y-117225788D01*
X166537129Y-117361697D01*
X166594171Y-117486600D01*
X166684085Y-117590366D01*
X166684088Y-117590368D01*
X166684089Y-117590369D01*
X166799600Y-117664604D01*
X166931346Y-117703288D01*
X166931348Y-117703288D01*
X167068652Y-117703288D01*
X167068654Y-117703288D01*
X167200400Y-117664604D01*
X167315911Y-117590369D01*
X167405829Y-117486599D01*
X167462869Y-117361699D01*
X167462868Y-117361699D01*
X167462870Y-117361697D01*
X167482410Y-117225788D01*
X167462870Y-117089878D01*
X167421824Y-117000000D01*
X169017589Y-117000000D01*
X169037129Y-117135909D01*
X169094171Y-117260812D01*
X169184085Y-117364578D01*
X169184088Y-117364580D01*
X169184089Y-117364581D01*
X169299600Y-117438816D01*
X169431346Y-117477500D01*
X169431348Y-117477500D01*
X169568652Y-117477500D01*
X169568654Y-117477500D01*
X169700400Y-117438816D01*
X169815911Y-117364581D01*
X169818409Y-117361699D01*
X169905828Y-117260812D01*
X169905827Y-117260812D01*
X169905829Y-117260811D01*
X169962869Y-117135911D01*
X169962868Y-117135911D01*
X169962870Y-117135909D01*
X169982410Y-117000000D01*
X169962870Y-116864090D01*
X169905828Y-116739187D01*
X169815914Y-116635421D01*
X169700400Y-116561184D01*
X169700399Y-116561184D01*
X169568654Y-116522500D01*
X169431346Y-116522500D01*
X169343515Y-116548289D01*
X169299599Y-116561184D01*
X169184085Y-116635421D01*
X169094171Y-116739187D01*
X169037129Y-116864090D01*
X169017589Y-117000000D01*
X167421824Y-117000000D01*
X167405828Y-116964975D01*
X167315914Y-116861209D01*
X167200400Y-116786972D01*
X167200399Y-116786972D01*
X167068654Y-116748288D01*
X166931346Y-116748288D01*
X166843515Y-116774077D01*
X166799599Y-116786972D01*
X166684085Y-116861209D01*
X166594171Y-116964975D01*
X166537129Y-117089878D01*
X166517589Y-117225788D01*
X115774985Y-117225788D01*
X115900900Y-117188816D01*
X116016411Y-117114581D01*
X116037817Y-117089878D01*
X116106328Y-117010812D01*
X116106327Y-117010812D01*
X116106329Y-117010811D01*
X116163369Y-116885911D01*
X116163368Y-116885911D01*
X116163370Y-116885909D01*
X116182910Y-116750000D01*
X116175721Y-116699999D01*
X136717589Y-116699999D01*
X136737129Y-116835909D01*
X136794171Y-116960812D01*
X136884085Y-117064578D01*
X136884088Y-117064580D01*
X136884089Y-117064581D01*
X136999600Y-117138816D01*
X137131346Y-117177500D01*
X137131348Y-117177500D01*
X137268652Y-117177500D01*
X137268654Y-117177500D01*
X137400400Y-117138816D01*
X137515911Y-117064581D01*
X137605829Y-116960811D01*
X137662869Y-116835911D01*
X137662868Y-116835911D01*
X137662870Y-116835909D01*
X137682410Y-116700000D01*
X137662870Y-116564090D01*
X137605828Y-116439187D01*
X137515914Y-116335421D01*
X137400400Y-116261184D01*
X137400399Y-116261184D01*
X137268654Y-116222500D01*
X137131346Y-116222500D01*
X137043515Y-116248289D01*
X136999599Y-116261184D01*
X136884085Y-116335421D01*
X136794171Y-116439187D01*
X136737129Y-116564090D01*
X136717589Y-116699999D01*
X116175721Y-116699999D01*
X116163370Y-116614090D01*
X116106328Y-116489187D01*
X116016414Y-116385421D01*
X115900900Y-116311184D01*
X115769154Y-116272500D01*
X115631846Y-116272500D01*
X115544015Y-116298289D01*
X115500099Y-116311184D01*
X115384585Y-116385421D01*
X115294671Y-116489187D01*
X115237629Y-116614090D01*
X115218089Y-116750000D01*
X105250500Y-116750000D01*
X105250500Y-114874999D01*
X114518589Y-114874999D01*
X114538129Y-115010909D01*
X114595171Y-115135812D01*
X114685085Y-115239578D01*
X114685088Y-115239580D01*
X114685089Y-115239581D01*
X114800600Y-115313816D01*
X114932346Y-115352500D01*
X114932348Y-115352500D01*
X115069652Y-115352500D01*
X115069654Y-115352500D01*
X115201400Y-115313816D01*
X115222898Y-115300000D01*
X115917589Y-115300000D01*
X115937129Y-115435909D01*
X115994171Y-115560812D01*
X116084085Y-115664578D01*
X116084088Y-115664580D01*
X116084089Y-115664581D01*
X116199600Y-115738816D01*
X116331346Y-115777500D01*
X116331348Y-115777500D01*
X116468652Y-115777500D01*
X116468654Y-115777500D01*
X116600400Y-115738816D01*
X116693301Y-115679112D01*
X118667589Y-115679112D01*
X118687129Y-115815021D01*
X118744171Y-115939924D01*
X118834085Y-116043690D01*
X118834088Y-116043692D01*
X118834089Y-116043693D01*
X118949600Y-116117928D01*
X119081346Y-116156612D01*
X119081348Y-116156612D01*
X119218652Y-116156612D01*
X119218654Y-116156612D01*
X119350400Y-116117928D01*
X119465911Y-116043693D01*
X119555829Y-115939923D01*
X119612869Y-115815023D01*
X119612868Y-115815023D01*
X119612870Y-115815021D01*
X119632410Y-115679111D01*
X119621036Y-115600000D01*
X138517589Y-115600000D01*
X138537129Y-115735909D01*
X138594171Y-115860812D01*
X138684085Y-115964578D01*
X138684088Y-115964580D01*
X138684089Y-115964581D01*
X138799600Y-116038816D01*
X138931346Y-116077500D01*
X138931348Y-116077500D01*
X139068652Y-116077500D01*
X139068654Y-116077500D01*
X139200400Y-116038816D01*
X139315911Y-115964581D01*
X139337278Y-115939923D01*
X139405828Y-115860812D01*
X139405827Y-115860812D01*
X139405829Y-115860811D01*
X139462869Y-115735911D01*
X139462868Y-115735911D01*
X139462870Y-115735909D01*
X139482410Y-115599999D01*
X139462870Y-115464090D01*
X139405828Y-115339187D01*
X139315914Y-115235421D01*
X139200400Y-115161184D01*
X139068654Y-115122500D01*
X138931346Y-115122500D01*
X138875779Y-115138816D01*
X138799599Y-115161184D01*
X138684085Y-115235421D01*
X138594171Y-115339187D01*
X138537129Y-115464090D01*
X138517589Y-115600000D01*
X119621036Y-115600000D01*
X119612870Y-115543202D01*
X119555828Y-115418299D01*
X119465914Y-115314533D01*
X119443300Y-115300000D01*
X119350400Y-115240296D01*
X119218654Y-115201612D01*
X119081346Y-115201612D01*
X118993515Y-115227401D01*
X118949599Y-115240296D01*
X118834085Y-115314533D01*
X118744171Y-115418299D01*
X118687129Y-115543202D01*
X118667589Y-115679112D01*
X116693301Y-115679112D01*
X116715911Y-115664581D01*
X116805829Y-115560811D01*
X116862869Y-115435911D01*
X116862868Y-115435911D01*
X116862870Y-115435909D01*
X116882410Y-115299999D01*
X116862870Y-115164090D01*
X116805828Y-115039187D01*
X116715914Y-114935421D01*
X116600400Y-114861184D01*
X116600399Y-114861184D01*
X116468654Y-114822500D01*
X116331346Y-114822500D01*
X116243515Y-114848289D01*
X116199599Y-114861184D01*
X116084085Y-114935421D01*
X115994171Y-115039187D01*
X115937129Y-115164090D01*
X115917589Y-115300000D01*
X115222898Y-115300000D01*
X115316911Y-115239581D01*
X115320518Y-115235419D01*
X115406828Y-115135812D01*
X115406827Y-115135812D01*
X115406829Y-115135811D01*
X115463869Y-115010911D01*
X115463868Y-115010911D01*
X115463870Y-115010909D01*
X115483410Y-114875000D01*
X115463870Y-114739090D01*
X115446018Y-114699999D01*
X126117589Y-114699999D01*
X126137129Y-114835909D01*
X126194171Y-114960812D01*
X126284085Y-115064578D01*
X126284088Y-115064580D01*
X126284089Y-115064581D01*
X126399600Y-115138816D01*
X126531346Y-115177500D01*
X126531348Y-115177500D01*
X126668652Y-115177500D01*
X126668654Y-115177500D01*
X126800400Y-115138816D01*
X126915911Y-115064581D01*
X126937914Y-115039189D01*
X126971871Y-115000000D01*
X157517589Y-115000000D01*
X157537129Y-115135909D01*
X157594171Y-115260812D01*
X157684085Y-115364578D01*
X157684088Y-115364580D01*
X157684089Y-115364581D01*
X157799600Y-115438816D01*
X157931346Y-115477500D01*
X157931348Y-115477500D01*
X158068652Y-115477500D01*
X158068654Y-115477500D01*
X158200400Y-115438816D01*
X158315911Y-115364581D01*
X158326380Y-115352500D01*
X158405828Y-115260812D01*
X158405827Y-115260812D01*
X158405829Y-115260811D01*
X158462869Y-115135911D01*
X158462868Y-115135911D01*
X158462870Y-115135909D01*
X158480841Y-115010911D01*
X158482410Y-115000000D01*
X158482410Y-114999999D01*
X161267589Y-114999999D01*
X161287129Y-115135909D01*
X161344171Y-115260812D01*
X161434085Y-115364578D01*
X161434088Y-115364580D01*
X161434089Y-115364581D01*
X161549600Y-115438816D01*
X161681346Y-115477500D01*
X161681348Y-115477500D01*
X161818652Y-115477500D01*
X161818654Y-115477500D01*
X161950400Y-115438816D01*
X162065911Y-115364581D01*
X162076380Y-115352500D01*
X162155828Y-115260812D01*
X162155827Y-115260812D01*
X162155829Y-115260811D01*
X162212869Y-115135911D01*
X162212868Y-115135911D01*
X162212870Y-115135909D01*
X162230841Y-115010911D01*
X162232410Y-115000000D01*
X162226776Y-114960812D01*
X162212870Y-114864090D01*
X162155828Y-114739187D01*
X162065914Y-114635421D01*
X161950400Y-114561184D01*
X161818654Y-114522500D01*
X161681346Y-114522500D01*
X161593515Y-114548289D01*
X161549599Y-114561184D01*
X161434085Y-114635421D01*
X161344171Y-114739187D01*
X161287129Y-114864090D01*
X161267589Y-114999999D01*
X158482410Y-114999999D01*
X158476776Y-114960812D01*
X158462870Y-114864090D01*
X158405828Y-114739187D01*
X158315914Y-114635421D01*
X158200400Y-114561184D01*
X158068654Y-114522500D01*
X157931346Y-114522500D01*
X157843515Y-114548289D01*
X157799599Y-114561184D01*
X157684085Y-114635421D01*
X157594171Y-114739187D01*
X157537129Y-114864090D01*
X157517589Y-115000000D01*
X126971871Y-115000000D01*
X127005828Y-114960812D01*
X127005827Y-114960812D01*
X127005829Y-114960811D01*
X127062869Y-114835911D01*
X127062868Y-114835911D01*
X127062870Y-114835909D01*
X127082410Y-114699999D01*
X127062870Y-114564090D01*
X127033601Y-114500000D01*
X140417589Y-114500000D01*
X140437129Y-114635909D01*
X140494171Y-114760812D01*
X140584085Y-114864578D01*
X140584088Y-114864580D01*
X140584089Y-114864581D01*
X140699600Y-114938816D01*
X140831346Y-114977500D01*
X140831348Y-114977500D01*
X140968652Y-114977500D01*
X140968654Y-114977500D01*
X141100400Y-114938816D01*
X141215911Y-114864581D01*
X141216337Y-114864090D01*
X141305828Y-114760812D01*
X141305827Y-114760812D01*
X141305829Y-114760811D01*
X141362869Y-114635911D01*
X141362868Y-114635911D01*
X141362870Y-114635909D01*
X141382410Y-114500000D01*
X141362870Y-114364090D01*
X141305828Y-114239187D01*
X141215914Y-114135421D01*
X141100400Y-114061184D01*
X140968654Y-114022500D01*
X140831346Y-114022500D01*
X140743515Y-114048289D01*
X140699599Y-114061184D01*
X140584085Y-114135421D01*
X140494171Y-114239187D01*
X140437129Y-114364090D01*
X140417589Y-114500000D01*
X127033601Y-114500000D01*
X127005828Y-114439187D01*
X126915914Y-114335421D01*
X126800400Y-114261184D01*
X126799130Y-114260811D01*
X126668654Y-114222500D01*
X126531346Y-114222500D01*
X126443515Y-114248289D01*
X126399599Y-114261184D01*
X126284085Y-114335421D01*
X126194171Y-114439187D01*
X126137129Y-114564090D01*
X126117589Y-114699999D01*
X115446018Y-114699999D01*
X115406828Y-114614187D01*
X115316914Y-114510421D01*
X115201400Y-114436184D01*
X115201399Y-114436184D01*
X115069654Y-114397500D01*
X114932346Y-114397500D01*
X114844515Y-114423289D01*
X114800599Y-114436184D01*
X114685085Y-114510421D01*
X114595171Y-114614187D01*
X114538129Y-114739090D01*
X114518589Y-114874999D01*
X105250500Y-114874999D01*
X105250500Y-114000000D01*
X117417589Y-114000000D01*
X117437129Y-114135909D01*
X117494171Y-114260812D01*
X117584085Y-114364578D01*
X117584088Y-114364580D01*
X117584089Y-114364581D01*
X117699600Y-114438816D01*
X117831346Y-114477500D01*
X117831348Y-114477500D01*
X117968652Y-114477500D01*
X117968654Y-114477500D01*
X118100400Y-114438816D01*
X118215911Y-114364581D01*
X118216337Y-114364090D01*
X118305828Y-114260812D01*
X118305827Y-114260812D01*
X118305829Y-114260811D01*
X118362869Y-114135911D01*
X118362868Y-114135911D01*
X118362870Y-114135909D01*
X118382410Y-114000000D01*
X118362870Y-113864090D01*
X118305828Y-113739187D01*
X118215914Y-113635421D01*
X118100400Y-113561184D01*
X118100399Y-113561184D01*
X117968654Y-113522500D01*
X117831346Y-113522500D01*
X117743515Y-113548289D01*
X117699599Y-113561184D01*
X117584085Y-113635421D01*
X117494171Y-113739187D01*
X117437129Y-113864090D01*
X117417589Y-114000000D01*
X105250500Y-114000000D01*
X105250500Y-113000000D01*
X157517589Y-113000000D01*
X157537129Y-113135909D01*
X157594171Y-113260812D01*
X157684085Y-113364578D01*
X157684088Y-113364580D01*
X157684089Y-113364581D01*
X157799600Y-113438816D01*
X157931346Y-113477500D01*
X157931348Y-113477500D01*
X158068652Y-113477500D01*
X158068654Y-113477500D01*
X158200400Y-113438816D01*
X158315911Y-113364581D01*
X158405829Y-113260811D01*
X158462869Y-113135911D01*
X158462868Y-113135911D01*
X158462870Y-113135909D01*
X158482410Y-113000000D01*
X158482410Y-112999999D01*
X161267589Y-112999999D01*
X161287129Y-113135909D01*
X161344171Y-113260812D01*
X161434085Y-113364578D01*
X161434088Y-113364580D01*
X161434089Y-113364581D01*
X161549600Y-113438816D01*
X161681346Y-113477500D01*
X161681348Y-113477500D01*
X161818652Y-113477500D01*
X161818654Y-113477500D01*
X161950400Y-113438816D01*
X162065911Y-113364581D01*
X162155829Y-113260811D01*
X162212869Y-113135911D01*
X162212868Y-113135911D01*
X162212870Y-113135909D01*
X162232410Y-112999999D01*
X162212870Y-112864090D01*
X162155828Y-112739187D01*
X162065914Y-112635421D01*
X161950400Y-112561184D01*
X161818654Y-112522500D01*
X161681346Y-112522500D01*
X161593515Y-112548289D01*
X161549599Y-112561184D01*
X161434085Y-112635421D01*
X161344171Y-112739187D01*
X161287129Y-112864090D01*
X161267589Y-112999999D01*
X158482410Y-112999999D01*
X158462870Y-112864090D01*
X158405828Y-112739187D01*
X158315914Y-112635421D01*
X158200400Y-112561184D01*
X158068654Y-112522500D01*
X157931346Y-112522500D01*
X157843515Y-112548289D01*
X157799599Y-112561184D01*
X157684085Y-112635421D01*
X157594171Y-112739187D01*
X157537129Y-112864090D01*
X157517589Y-113000000D01*
X105250500Y-113000000D01*
X105250500Y-111500000D01*
X106367669Y-111500000D01*
X106386950Y-111708064D01*
X106444132Y-111909043D01*
X106537274Y-112096095D01*
X106663197Y-112262846D01*
X106817619Y-112403619D01*
X106995278Y-112513621D01*
X107190120Y-112589103D01*
X107190123Y-112589104D01*
X107395522Y-112627500D01*
X107604478Y-112627500D01*
X107809877Y-112589104D01*
X107907299Y-112551362D01*
X108004721Y-112513621D01*
X108004723Y-112513620D01*
X108182381Y-112403619D01*
X108336802Y-112262846D01*
X108384262Y-112199999D01*
X121817589Y-112199999D01*
X121837129Y-112335909D01*
X121894171Y-112460812D01*
X121984085Y-112564578D01*
X121984088Y-112564580D01*
X121984089Y-112564581D01*
X122099600Y-112638816D01*
X122231346Y-112677500D01*
X122231348Y-112677500D01*
X122368652Y-112677500D01*
X122368654Y-112677500D01*
X122500400Y-112638816D01*
X122615911Y-112564581D01*
X122660069Y-112513621D01*
X122705828Y-112460812D01*
X122705827Y-112460812D01*
X122705829Y-112460811D01*
X122762869Y-112335911D01*
X122762868Y-112335911D01*
X122762870Y-112335909D01*
X122782410Y-112200000D01*
X122782410Y-112199999D01*
X123117589Y-112199999D01*
X123137129Y-112335909D01*
X123194171Y-112460812D01*
X123284085Y-112564578D01*
X123284088Y-112564580D01*
X123284089Y-112564581D01*
X123399600Y-112638816D01*
X123531346Y-112677500D01*
X123531348Y-112677500D01*
X123668652Y-112677500D01*
X123668654Y-112677500D01*
X123800400Y-112638816D01*
X123915911Y-112564581D01*
X123960069Y-112513621D01*
X124005828Y-112460812D01*
X124005827Y-112460812D01*
X124005829Y-112460811D01*
X124062869Y-112335911D01*
X124062868Y-112335911D01*
X124062870Y-112335909D01*
X124082410Y-112200000D01*
X124062870Y-112064090D01*
X124005828Y-111939187D01*
X123971871Y-111899999D01*
X128367589Y-111899999D01*
X128387129Y-112035909D01*
X128444171Y-112160812D01*
X128534085Y-112264578D01*
X128534088Y-112264580D01*
X128534089Y-112264581D01*
X128649600Y-112338816D01*
X128781346Y-112377500D01*
X128781348Y-112377500D01*
X128918652Y-112377500D01*
X128918654Y-112377500D01*
X129050400Y-112338816D01*
X129165911Y-112264581D01*
X129167415Y-112262846D01*
X129255828Y-112160812D01*
X129255827Y-112160812D01*
X129255829Y-112160811D01*
X129312869Y-112035911D01*
X129312868Y-112035911D01*
X129312870Y-112035909D01*
X129329128Y-111922821D01*
X129332410Y-111900000D01*
X129327317Y-111864578D01*
X129312870Y-111764090D01*
X129255828Y-111639187D01*
X129165914Y-111535421D01*
X129127620Y-111510811D01*
X129050400Y-111461184D01*
X128918654Y-111422500D01*
X128781346Y-111422500D01*
X128725779Y-111438816D01*
X128649599Y-111461184D01*
X128534085Y-111535421D01*
X128444171Y-111639187D01*
X128387129Y-111764090D01*
X128367589Y-111899999D01*
X123971871Y-111899999D01*
X123915914Y-111835421D01*
X123800400Y-111761184D01*
X123799130Y-111760811D01*
X123668654Y-111722500D01*
X123531346Y-111722500D01*
X123443515Y-111748289D01*
X123399599Y-111761184D01*
X123284085Y-111835421D01*
X123194171Y-111939187D01*
X123137129Y-112064090D01*
X123117589Y-112199999D01*
X122782410Y-112199999D01*
X122762870Y-112064090D01*
X122705828Y-111939187D01*
X122615914Y-111835421D01*
X122500400Y-111761184D01*
X122499130Y-111760811D01*
X122368654Y-111722500D01*
X122231346Y-111722500D01*
X122143515Y-111748289D01*
X122099599Y-111761184D01*
X121984085Y-111835421D01*
X121894171Y-111939187D01*
X121837129Y-112064090D01*
X121817589Y-112199999D01*
X108384262Y-112199999D01*
X108462726Y-112096095D01*
X108555866Y-111909045D01*
X108564842Y-111877500D01*
X108576814Y-111835419D01*
X108613050Y-111708065D01*
X108632330Y-111500000D01*
X108623064Y-111399999D01*
X119917589Y-111399999D01*
X119937129Y-111535909D01*
X119994171Y-111660812D01*
X120084085Y-111764578D01*
X120084088Y-111764580D01*
X120084089Y-111764581D01*
X120199600Y-111838816D01*
X120331346Y-111877500D01*
X120331348Y-111877500D01*
X120468652Y-111877500D01*
X120468654Y-111877500D01*
X120600400Y-111838816D01*
X120715911Y-111764581D01*
X120716337Y-111764090D01*
X120805828Y-111660812D01*
X120805827Y-111660812D01*
X120805829Y-111660811D01*
X120862869Y-111535911D01*
X120862868Y-111535911D01*
X120862870Y-111535909D01*
X120882410Y-111400000D01*
X120862870Y-111264090D01*
X120856435Y-111250000D01*
X150517589Y-111250000D01*
X150537129Y-111385909D01*
X150594171Y-111510812D01*
X150684085Y-111614578D01*
X150684088Y-111614580D01*
X150684089Y-111614581D01*
X150799600Y-111688816D01*
X150931346Y-111727500D01*
X150931348Y-111727500D01*
X151068652Y-111727500D01*
X151068654Y-111727500D01*
X151200400Y-111688816D01*
X151315911Y-111614581D01*
X151405829Y-111510811D01*
X151410767Y-111499999D01*
X182267589Y-111499999D01*
X182287129Y-111635909D01*
X182344171Y-111760812D01*
X182434085Y-111864578D01*
X182434088Y-111864580D01*
X182434089Y-111864581D01*
X182549600Y-111938816D01*
X182681346Y-111977500D01*
X182681348Y-111977500D01*
X182818652Y-111977500D01*
X182818654Y-111977500D01*
X182950400Y-111938816D01*
X183065911Y-111864581D01*
X183155829Y-111760811D01*
X183212869Y-111635911D01*
X183212868Y-111635911D01*
X183212870Y-111635909D01*
X183232410Y-111500000D01*
X183212870Y-111364090D01*
X183155828Y-111239187D01*
X183065914Y-111135421D01*
X182950400Y-111061184D01*
X182818654Y-111022500D01*
X182681346Y-111022500D01*
X182593515Y-111048289D01*
X182549599Y-111061184D01*
X182434085Y-111135421D01*
X182344171Y-111239187D01*
X182287129Y-111364090D01*
X182267589Y-111499999D01*
X151410767Y-111499999D01*
X151462869Y-111385911D01*
X151462868Y-111385911D01*
X151462870Y-111385909D01*
X151482410Y-111250000D01*
X151462870Y-111114090D01*
X151410766Y-110999999D01*
X157517589Y-110999999D01*
X157537129Y-111135909D01*
X157594171Y-111260812D01*
X157684085Y-111364578D01*
X157684088Y-111364580D01*
X157684089Y-111364581D01*
X157799600Y-111438816D01*
X157931346Y-111477500D01*
X157931348Y-111477500D01*
X158068652Y-111477500D01*
X158068654Y-111477500D01*
X158200400Y-111438816D01*
X158315911Y-111364581D01*
X158316337Y-111364090D01*
X158402988Y-111264090D01*
X158405829Y-111260811D01*
X158462869Y-111135911D01*
X158462868Y-111135911D01*
X158462870Y-111135909D01*
X158482410Y-111000000D01*
X158462870Y-110864090D01*
X158405828Y-110739187D01*
X158315914Y-110635421D01*
X158200400Y-110561184D01*
X158068654Y-110522500D01*
X157931346Y-110522500D01*
X157843515Y-110548289D01*
X157799599Y-110561184D01*
X157684085Y-110635421D01*
X157594171Y-110739187D01*
X157537129Y-110864090D01*
X157517589Y-110999999D01*
X151410766Y-110999999D01*
X151405828Y-110989187D01*
X151315914Y-110885421D01*
X151200400Y-110811184D01*
X151068654Y-110772500D01*
X150931346Y-110772500D01*
X150843515Y-110798289D01*
X150799599Y-110811184D01*
X150684085Y-110885421D01*
X150594171Y-110989187D01*
X150537129Y-111114090D01*
X150517589Y-111250000D01*
X120856435Y-111250000D01*
X120805828Y-111139187D01*
X120715914Y-111035421D01*
X120600400Y-110961184D01*
X120599130Y-110960811D01*
X120468654Y-110922500D01*
X120331346Y-110922500D01*
X120243515Y-110948289D01*
X120199599Y-110961184D01*
X120084085Y-111035421D01*
X119994171Y-111139187D01*
X119937129Y-111264090D01*
X119917589Y-111399999D01*
X108623064Y-111399999D01*
X108613050Y-111291935D01*
X108569590Y-111139189D01*
X108555867Y-111090956D01*
X108505191Y-110989187D01*
X108462726Y-110903905D01*
X108338339Y-110739189D01*
X108336802Y-110737153D01*
X108296047Y-110700000D01*
X136717589Y-110700000D01*
X136737129Y-110835909D01*
X136794171Y-110960812D01*
X136884085Y-111064578D01*
X136884088Y-111064580D01*
X136884089Y-111064581D01*
X136999600Y-111138816D01*
X137131346Y-111177500D01*
X137131348Y-111177500D01*
X137268652Y-111177500D01*
X137268654Y-111177500D01*
X137400400Y-111138816D01*
X137515911Y-111064581D01*
X137605829Y-110960811D01*
X137662869Y-110835911D01*
X137662868Y-110835911D01*
X137662870Y-110835909D01*
X137682410Y-110700000D01*
X138517589Y-110700000D01*
X138537129Y-110835909D01*
X138594171Y-110960812D01*
X138684085Y-111064578D01*
X138684088Y-111064580D01*
X138684089Y-111064581D01*
X138799600Y-111138816D01*
X138931346Y-111177500D01*
X138931348Y-111177500D01*
X139068652Y-111177500D01*
X139068654Y-111177500D01*
X139200400Y-111138816D01*
X139315911Y-111064581D01*
X139405829Y-110960811D01*
X139462869Y-110835911D01*
X139462868Y-110835911D01*
X139462870Y-110835909D01*
X139482410Y-110699999D01*
X140417589Y-110699999D01*
X140437129Y-110835909D01*
X140494171Y-110960812D01*
X140584085Y-111064578D01*
X140584088Y-111064580D01*
X140584089Y-111064581D01*
X140699600Y-111138816D01*
X140831346Y-111177500D01*
X140831348Y-111177500D01*
X140968652Y-111177500D01*
X140968654Y-111177500D01*
X141100400Y-111138816D01*
X141215911Y-111064581D01*
X141305829Y-110960811D01*
X141362869Y-110835911D01*
X141362868Y-110835911D01*
X141362870Y-110835909D01*
X141382410Y-110699999D01*
X141362870Y-110564090D01*
X141305828Y-110439187D01*
X141215914Y-110335421D01*
X141100400Y-110261184D01*
X141099130Y-110260811D01*
X140968654Y-110222500D01*
X140831346Y-110222500D01*
X140743515Y-110248289D01*
X140699599Y-110261184D01*
X140584085Y-110335421D01*
X140494171Y-110439187D01*
X140437129Y-110564090D01*
X140417589Y-110699999D01*
X139482410Y-110699999D01*
X139462870Y-110564090D01*
X139405828Y-110439187D01*
X139315914Y-110335421D01*
X139200400Y-110261184D01*
X139199130Y-110260811D01*
X139068654Y-110222500D01*
X138931346Y-110222500D01*
X138843515Y-110248289D01*
X138799599Y-110261184D01*
X138684085Y-110335421D01*
X138594171Y-110439187D01*
X138537129Y-110564090D01*
X138517589Y-110700000D01*
X137682410Y-110700000D01*
X137662870Y-110564090D01*
X137605828Y-110439187D01*
X137515914Y-110335421D01*
X137400400Y-110261184D01*
X137399130Y-110260811D01*
X137268654Y-110222500D01*
X137131346Y-110222500D01*
X137043515Y-110248289D01*
X136999599Y-110261184D01*
X136884085Y-110335421D01*
X136794171Y-110439187D01*
X136737129Y-110564090D01*
X136717589Y-110700000D01*
X108296047Y-110700000D01*
X108182380Y-110596380D01*
X108004721Y-110486378D01*
X107809879Y-110410896D01*
X107604478Y-110372500D01*
X107395522Y-110372500D01*
X107190120Y-110410896D01*
X106995278Y-110486378D01*
X106817619Y-110596380D01*
X106663197Y-110737153D01*
X106537274Y-110903904D01*
X106444132Y-111090956D01*
X106386950Y-111291935D01*
X106367669Y-111500000D01*
X105250500Y-111500000D01*
X105250500Y-110000000D01*
X119717589Y-110000000D01*
X119737129Y-110135909D01*
X119794171Y-110260812D01*
X119884085Y-110364578D01*
X119884088Y-110364580D01*
X119884089Y-110364581D01*
X119999600Y-110438816D01*
X120131346Y-110477500D01*
X120131348Y-110477500D01*
X120268652Y-110477500D01*
X120268654Y-110477500D01*
X120400400Y-110438816D01*
X120515911Y-110364581D01*
X120605829Y-110260811D01*
X120662869Y-110135911D01*
X120662868Y-110135911D01*
X120662870Y-110135909D01*
X120682410Y-110000000D01*
X120662870Y-109864090D01*
X120605828Y-109739187D01*
X120515914Y-109635421D01*
X120400400Y-109561184D01*
X120268654Y-109522500D01*
X120131346Y-109522500D01*
X120043515Y-109548289D01*
X119999599Y-109561184D01*
X119884085Y-109635421D01*
X119794171Y-109739187D01*
X119737129Y-109864090D01*
X119717589Y-110000000D01*
X105250500Y-110000000D01*
X105250500Y-109249999D01*
X118667589Y-109249999D01*
X118687129Y-109385909D01*
X118744171Y-109510812D01*
X118834085Y-109614578D01*
X118834088Y-109614580D01*
X118834089Y-109614581D01*
X118949600Y-109688816D01*
X119081346Y-109727500D01*
X119081348Y-109727500D01*
X119218652Y-109727500D01*
X119218654Y-109727500D01*
X119350400Y-109688816D01*
X119465911Y-109614581D01*
X119555829Y-109510811D01*
X119612869Y-109385911D01*
X119612868Y-109385911D01*
X119612870Y-109385909D01*
X119632410Y-109250000D01*
X119625221Y-109200000D01*
X170117589Y-109200000D01*
X170137129Y-109335909D01*
X170194171Y-109460812D01*
X170284085Y-109564578D01*
X170284088Y-109564580D01*
X170284089Y-109564581D01*
X170399600Y-109638816D01*
X170531346Y-109677500D01*
X170531348Y-109677500D01*
X170668652Y-109677500D01*
X170668654Y-109677500D01*
X170800400Y-109638816D01*
X170915911Y-109564581D01*
X171005829Y-109460811D01*
X171062869Y-109335911D01*
X171062868Y-109335911D01*
X171062870Y-109335909D01*
X171082410Y-109200000D01*
X171062870Y-109064090D01*
X171005828Y-108939187D01*
X170915914Y-108835421D01*
X170860798Y-108800000D01*
X177817589Y-108800000D01*
X177837129Y-108935909D01*
X177894171Y-109060812D01*
X177984085Y-109164578D01*
X177984088Y-109164580D01*
X177984089Y-109164581D01*
X178099600Y-109238816D01*
X178231346Y-109277500D01*
X178231348Y-109277500D01*
X178368652Y-109277500D01*
X178368654Y-109277500D01*
X178500400Y-109238816D01*
X178615911Y-109164581D01*
X178705829Y-109060811D01*
X178733600Y-109000000D01*
X183767589Y-109000000D01*
X183787129Y-109135909D01*
X183844171Y-109260812D01*
X183934085Y-109364578D01*
X183934088Y-109364580D01*
X183934089Y-109364581D01*
X184049600Y-109438816D01*
X184181346Y-109477500D01*
X184181348Y-109477500D01*
X184318652Y-109477500D01*
X184318654Y-109477500D01*
X184450400Y-109438816D01*
X184565911Y-109364581D01*
X184655829Y-109260811D01*
X184712869Y-109135911D01*
X184712868Y-109135911D01*
X184712870Y-109135909D01*
X184732410Y-108999999D01*
X184712870Y-108864090D01*
X184655828Y-108739187D01*
X184565914Y-108635421D01*
X184450400Y-108561184D01*
X184318654Y-108522500D01*
X184181346Y-108522500D01*
X184093515Y-108548289D01*
X184049599Y-108561184D01*
X183934085Y-108635421D01*
X183844171Y-108739187D01*
X183787129Y-108864090D01*
X183767589Y-109000000D01*
X178733600Y-109000000D01*
X178762869Y-108935911D01*
X178762868Y-108935911D01*
X178762870Y-108935909D01*
X178782410Y-108800000D01*
X178762870Y-108664090D01*
X178705828Y-108539187D01*
X178615914Y-108435421D01*
X178500400Y-108361184D01*
X178368654Y-108322500D01*
X178231346Y-108322500D01*
X178143515Y-108348289D01*
X178099599Y-108361184D01*
X177984085Y-108435421D01*
X177894171Y-108539187D01*
X177837129Y-108664090D01*
X177817589Y-108800000D01*
X170860798Y-108800000D01*
X170800400Y-108761184D01*
X170668654Y-108722500D01*
X170531346Y-108722500D01*
X170443515Y-108748289D01*
X170399599Y-108761184D01*
X170284085Y-108835421D01*
X170194171Y-108939187D01*
X170137129Y-109064090D01*
X170117589Y-109200000D01*
X119625221Y-109200000D01*
X119612870Y-109114090D01*
X119555828Y-108989187D01*
X119465914Y-108885421D01*
X119350400Y-108811184D01*
X119218654Y-108772500D01*
X119081346Y-108772500D01*
X118993515Y-108798289D01*
X118949599Y-108811184D01*
X118834085Y-108885421D01*
X118744171Y-108989187D01*
X118687129Y-109114090D01*
X118667589Y-109249999D01*
X105250500Y-109249999D01*
X105250500Y-108000000D01*
X106367669Y-108000000D01*
X106386950Y-108208064D01*
X106444132Y-108409043D01*
X106537274Y-108596095D01*
X106663197Y-108762846D01*
X106817619Y-108903619D01*
X106995278Y-109013621D01*
X107190120Y-109089103D01*
X107190123Y-109089104D01*
X107395522Y-109127500D01*
X107604478Y-109127500D01*
X107809877Y-109089104D01*
X107907300Y-109051361D01*
X108004721Y-109013621D01*
X108026720Y-109000000D01*
X108182381Y-108903619D01*
X108336802Y-108762846D01*
X108462726Y-108596095D01*
X108555866Y-108409045D01*
X108565980Y-108373500D01*
X132517589Y-108373500D01*
X132537129Y-108509409D01*
X132594171Y-108634312D01*
X132684085Y-108738078D01*
X132684088Y-108738080D01*
X132684089Y-108738081D01*
X132799600Y-108812316D01*
X132931346Y-108851000D01*
X132931348Y-108851000D01*
X133068652Y-108851000D01*
X133068654Y-108851000D01*
X133200400Y-108812316D01*
X133315911Y-108738081D01*
X133405829Y-108634311D01*
X133462869Y-108509411D01*
X133462868Y-108509411D01*
X133462870Y-108509409D01*
X133482410Y-108373500D01*
X133462870Y-108237590D01*
X133405828Y-108112687D01*
X133315914Y-108008921D01*
X133200400Y-107934684D01*
X133200399Y-107934684D01*
X133068654Y-107896000D01*
X132931346Y-107896000D01*
X132843515Y-107921789D01*
X132799599Y-107934684D01*
X132684085Y-108008921D01*
X132594171Y-108112687D01*
X132537129Y-108237590D01*
X132517589Y-108373500D01*
X108565980Y-108373500D01*
X108580490Y-108322500D01*
X108613050Y-108208065D01*
X108632330Y-108000000D01*
X108613050Y-107791935D01*
X108569484Y-107638816D01*
X108555867Y-107590956D01*
X108492939Y-107464581D01*
X108462726Y-107403905D01*
X108338339Y-107239189D01*
X108336802Y-107237153D01*
X108296047Y-107200000D01*
X121617589Y-107200000D01*
X121637129Y-107335909D01*
X121694171Y-107460812D01*
X121784085Y-107564578D01*
X121784088Y-107564580D01*
X121784089Y-107564581D01*
X121899600Y-107638816D01*
X122031346Y-107677500D01*
X122031348Y-107677500D01*
X122168652Y-107677500D01*
X122168654Y-107677500D01*
X122300400Y-107638816D01*
X122415911Y-107564581D01*
X122471871Y-107500000D01*
X130017589Y-107500000D01*
X130037129Y-107635909D01*
X130094171Y-107760812D01*
X130184085Y-107864578D01*
X130184088Y-107864580D01*
X130184089Y-107864581D01*
X130299600Y-107938816D01*
X130431346Y-107977500D01*
X130431348Y-107977500D01*
X130568652Y-107977500D01*
X130568654Y-107977500D01*
X130700400Y-107938816D01*
X130815911Y-107864581D01*
X130905829Y-107760811D01*
X130962869Y-107635911D01*
X130962868Y-107635911D01*
X130962870Y-107635909D01*
X130982410Y-107500000D01*
X130962870Y-107364090D01*
X130905828Y-107239187D01*
X130815914Y-107135421D01*
X130760798Y-107100000D01*
X139417589Y-107100000D01*
X139437129Y-107235909D01*
X139494171Y-107360812D01*
X139584085Y-107464578D01*
X139584088Y-107464580D01*
X139584089Y-107464581D01*
X139699600Y-107538816D01*
X139831346Y-107577500D01*
X139831348Y-107577500D01*
X139968652Y-107577500D01*
X139968654Y-107577500D01*
X140100400Y-107538816D01*
X140215911Y-107464581D01*
X140305829Y-107360811D01*
X140362869Y-107235911D01*
X140362868Y-107235911D01*
X140362870Y-107235909D01*
X140382410Y-107100000D01*
X140368033Y-107000000D01*
X156017589Y-107000000D01*
X156037129Y-107135909D01*
X156094171Y-107260812D01*
X156184085Y-107364578D01*
X156184088Y-107364580D01*
X156184089Y-107364581D01*
X156299600Y-107438816D01*
X156431346Y-107477500D01*
X156431348Y-107477500D01*
X156568652Y-107477500D01*
X156568654Y-107477500D01*
X156700400Y-107438816D01*
X156815911Y-107364581D01*
X156816337Y-107364090D01*
X156905828Y-107260812D01*
X156905827Y-107260812D01*
X156905829Y-107260811D01*
X156962869Y-107135911D01*
X156962868Y-107135911D01*
X156962870Y-107135909D01*
X156982410Y-107000000D01*
X156962870Y-106864090D01*
X156905828Y-106739187D01*
X156815914Y-106635421D01*
X156800240Y-106625348D01*
X156777197Y-106600000D01*
X170517589Y-106600000D01*
X170537129Y-106735909D01*
X170594171Y-106860812D01*
X170684085Y-106964578D01*
X170684088Y-106964580D01*
X170684089Y-106964581D01*
X170799600Y-107038816D01*
X170931346Y-107077500D01*
X170931348Y-107077500D01*
X171068652Y-107077500D01*
X171068654Y-107077500D01*
X171200400Y-107038816D01*
X171315911Y-106964581D01*
X171316337Y-106964090D01*
X171402988Y-106864090D01*
X171405829Y-106860811D01*
X171462869Y-106735911D01*
X171462868Y-106735911D01*
X171462870Y-106735909D01*
X171482410Y-106600000D01*
X171468033Y-106500000D01*
X182267589Y-106500000D01*
X182287129Y-106635909D01*
X182344171Y-106760812D01*
X182434085Y-106864578D01*
X182434088Y-106864580D01*
X182434089Y-106864581D01*
X182549600Y-106938816D01*
X182681346Y-106977500D01*
X182681348Y-106977500D01*
X182818652Y-106977500D01*
X182818654Y-106977500D01*
X182950400Y-106938816D01*
X183065911Y-106864581D01*
X183066337Y-106864090D01*
X183155828Y-106760812D01*
X183155827Y-106760812D01*
X183155829Y-106760811D01*
X183212869Y-106635911D01*
X183212868Y-106635911D01*
X183212870Y-106635909D01*
X183232410Y-106500000D01*
X183212870Y-106364090D01*
X183155828Y-106239187D01*
X183065914Y-106135421D01*
X182950400Y-106061184D01*
X182818654Y-106022500D01*
X182681346Y-106022500D01*
X182593515Y-106048289D01*
X182549599Y-106061184D01*
X182434085Y-106135421D01*
X182344171Y-106239187D01*
X182287129Y-106364090D01*
X182267589Y-106500000D01*
X171468033Y-106500000D01*
X171462870Y-106464090D01*
X171405828Y-106339187D01*
X171315914Y-106235421D01*
X171200400Y-106161184D01*
X171199130Y-106160811D01*
X171068654Y-106122500D01*
X170931346Y-106122500D01*
X170843515Y-106148289D01*
X170799599Y-106161184D01*
X170684085Y-106235421D01*
X170594171Y-106339187D01*
X170537129Y-106464090D01*
X170517589Y-106600000D01*
X156777197Y-106600000D01*
X156748358Y-106568277D01*
X156731963Y-106492912D01*
X156755446Y-106419446D01*
X156800240Y-106374652D01*
X156815911Y-106364581D01*
X156816337Y-106364090D01*
X156905828Y-106260812D01*
X156905827Y-106260812D01*
X156905829Y-106260811D01*
X156962869Y-106135911D01*
X156962868Y-106135911D01*
X156962870Y-106135909D01*
X156982410Y-106000000D01*
X156962870Y-105864090D01*
X156905887Y-105739316D01*
X156905829Y-105739189D01*
X156905828Y-105739188D01*
X156905828Y-105739187D01*
X156815914Y-105635421D01*
X156700400Y-105561184D01*
X156568654Y-105522500D01*
X156431346Y-105522500D01*
X156343515Y-105548289D01*
X156299599Y-105561184D01*
X156184085Y-105635421D01*
X156094171Y-105739187D01*
X156037129Y-105864090D01*
X156017589Y-105999999D01*
X156037129Y-106135909D01*
X156094171Y-106260812D01*
X156184087Y-106364581D01*
X156199761Y-106374654D01*
X156251642Y-106431725D01*
X156268036Y-106507090D01*
X156244551Y-106580556D01*
X156199761Y-106625346D01*
X156184087Y-106635418D01*
X156094171Y-106739187D01*
X156037129Y-106864090D01*
X156017589Y-107000000D01*
X140368033Y-107000000D01*
X140362870Y-106964090D01*
X140305828Y-106839187D01*
X140215914Y-106735421D01*
X140100400Y-106661184D01*
X139968654Y-106622500D01*
X139831346Y-106622500D01*
X139743515Y-106648289D01*
X139699599Y-106661184D01*
X139584085Y-106735421D01*
X139494171Y-106839187D01*
X139437129Y-106964090D01*
X139417589Y-107100000D01*
X130760798Y-107100000D01*
X130700400Y-107061184D01*
X130568654Y-107022500D01*
X130431346Y-107022500D01*
X130375779Y-107038816D01*
X130299599Y-107061184D01*
X130184085Y-107135421D01*
X130094171Y-107239187D01*
X130037129Y-107364090D01*
X130017589Y-107500000D01*
X122471871Y-107500000D01*
X122505829Y-107460811D01*
X122562869Y-107335911D01*
X122562868Y-107335911D01*
X122562870Y-107335909D01*
X122582410Y-107200000D01*
X122562870Y-107064090D01*
X122505828Y-106939187D01*
X122415914Y-106835421D01*
X122300400Y-106761184D01*
X122299130Y-106760811D01*
X122168654Y-106722500D01*
X122031346Y-106722500D01*
X121943515Y-106748289D01*
X121899599Y-106761184D01*
X121784085Y-106835421D01*
X121694171Y-106939187D01*
X121637129Y-107064090D01*
X121617589Y-107200000D01*
X108296047Y-107200000D01*
X108182380Y-107096380D01*
X108004721Y-106986378D01*
X107809879Y-106910896D01*
X107604478Y-106872500D01*
X107395522Y-106872500D01*
X107190120Y-106910896D01*
X106995278Y-106986378D01*
X106817619Y-107096380D01*
X106663197Y-107237153D01*
X106537274Y-107403904D01*
X106444132Y-107590956D01*
X106386950Y-107791935D01*
X106367669Y-108000000D01*
X105250500Y-108000000D01*
X105250500Y-106000000D01*
X109017589Y-106000000D01*
X109037129Y-106135909D01*
X109094171Y-106260812D01*
X109184085Y-106364578D01*
X109184088Y-106364580D01*
X109184089Y-106364581D01*
X109299600Y-106438816D01*
X109431346Y-106477500D01*
X109431348Y-106477500D01*
X109568652Y-106477500D01*
X109568654Y-106477500D01*
X109700400Y-106438816D01*
X109815911Y-106364581D01*
X109816337Y-106364090D01*
X109905828Y-106260812D01*
X109905827Y-106260812D01*
X109905829Y-106260811D01*
X109962869Y-106135911D01*
X109962868Y-106135911D01*
X109962870Y-106135909D01*
X109982410Y-106000000D01*
X109968033Y-105899999D01*
X116117589Y-105899999D01*
X116137129Y-106035909D01*
X116194171Y-106160812D01*
X116284085Y-106264578D01*
X116284088Y-106264580D01*
X116284089Y-106264581D01*
X116399600Y-106338816D01*
X116531346Y-106377500D01*
X116531348Y-106377500D01*
X116668652Y-106377500D01*
X116668654Y-106377500D01*
X116800400Y-106338816D01*
X116841350Y-106312499D01*
X125580089Y-106312499D01*
X125599629Y-106448409D01*
X125656671Y-106573312D01*
X125746585Y-106677078D01*
X125746588Y-106677080D01*
X125746589Y-106677081D01*
X125862100Y-106751316D01*
X125993846Y-106790000D01*
X125993848Y-106790000D01*
X126131152Y-106790000D01*
X126131154Y-106790000D01*
X126262900Y-106751316D01*
X126378411Y-106677081D01*
X126414086Y-106635911D01*
X126468328Y-106573312D01*
X126468327Y-106573312D01*
X126468329Y-106573311D01*
X126525369Y-106448411D01*
X126525368Y-106448411D01*
X126525370Y-106448409D01*
X126544910Y-106312500D01*
X126525370Y-106176590D01*
X126468328Y-106051687D01*
X126423541Y-106000000D01*
X130017589Y-106000000D01*
X130037129Y-106135909D01*
X130094171Y-106260812D01*
X130184085Y-106364578D01*
X130184088Y-106364580D01*
X130184089Y-106364581D01*
X130299600Y-106438816D01*
X130431346Y-106477500D01*
X130431348Y-106477500D01*
X130568652Y-106477500D01*
X130568654Y-106477500D01*
X130700400Y-106438816D01*
X130815911Y-106364581D01*
X130816337Y-106364090D01*
X130905828Y-106260812D01*
X130905827Y-106260812D01*
X130905829Y-106260811D01*
X130962869Y-106135911D01*
X130962868Y-106135911D01*
X130962870Y-106135909D01*
X130982410Y-106000000D01*
X130982410Y-105999999D01*
X140917589Y-105999999D01*
X140937129Y-106135909D01*
X140994171Y-106260812D01*
X141084085Y-106364578D01*
X141084088Y-106364580D01*
X141084089Y-106364581D01*
X141199600Y-106438816D01*
X141331346Y-106477500D01*
X141331348Y-106477500D01*
X141468652Y-106477500D01*
X141468654Y-106477500D01*
X141600400Y-106438816D01*
X141715911Y-106364581D01*
X141716337Y-106364090D01*
X141805828Y-106260812D01*
X141805827Y-106260812D01*
X141805829Y-106260811D01*
X141862869Y-106135911D01*
X141862868Y-106135911D01*
X141862870Y-106135909D01*
X141882410Y-106000000D01*
X141862870Y-105864090D01*
X141805887Y-105739316D01*
X141805829Y-105739189D01*
X141805828Y-105739188D01*
X141805828Y-105739187D01*
X141715914Y-105635421D01*
X141600400Y-105561184D01*
X141468654Y-105522500D01*
X141331346Y-105522500D01*
X141243515Y-105548289D01*
X141199599Y-105561184D01*
X141084085Y-105635421D01*
X140994171Y-105739187D01*
X140937129Y-105864090D01*
X140917589Y-105999999D01*
X130982410Y-105999999D01*
X130962870Y-105864090D01*
X130905887Y-105739316D01*
X130905829Y-105739189D01*
X130905828Y-105739188D01*
X130905828Y-105739187D01*
X130815914Y-105635421D01*
X130700400Y-105561184D01*
X130700399Y-105561184D01*
X130568654Y-105522500D01*
X130431346Y-105522500D01*
X130343515Y-105548289D01*
X130299599Y-105561184D01*
X130184085Y-105635421D01*
X130094171Y-105739187D01*
X130037129Y-105864090D01*
X130017589Y-106000000D01*
X126423541Y-106000000D01*
X126378414Y-105947921D01*
X126262900Y-105873684D01*
X126262899Y-105873684D01*
X126131154Y-105835000D01*
X125993846Y-105835000D01*
X125906015Y-105860789D01*
X125862099Y-105873684D01*
X125746585Y-105947921D01*
X125656671Y-106051687D01*
X125599629Y-106176590D01*
X125580089Y-106312499D01*
X116841350Y-106312499D01*
X116915911Y-106264581D01*
X116937914Y-106239189D01*
X117005828Y-106160812D01*
X117005827Y-106160812D01*
X117005829Y-106160811D01*
X117062869Y-106035911D01*
X117062868Y-106035911D01*
X117062870Y-106035909D01*
X117082410Y-105899999D01*
X117062870Y-105764090D01*
X117005828Y-105639187D01*
X116915914Y-105535421D01*
X116800400Y-105461184D01*
X116800399Y-105461184D01*
X116668654Y-105422500D01*
X116531346Y-105422500D01*
X116475779Y-105438816D01*
X116399599Y-105461184D01*
X116284085Y-105535421D01*
X116194171Y-105639187D01*
X116137129Y-105764090D01*
X116117589Y-105899999D01*
X109968033Y-105899999D01*
X109962870Y-105864090D01*
X109905887Y-105739316D01*
X109905829Y-105739189D01*
X109905828Y-105739188D01*
X109905828Y-105739187D01*
X109815914Y-105635421D01*
X109700400Y-105561184D01*
X109700399Y-105561184D01*
X109568654Y-105522500D01*
X109431346Y-105522500D01*
X109343515Y-105548289D01*
X109299599Y-105561184D01*
X109184085Y-105635421D01*
X109094171Y-105739187D01*
X109037129Y-105864090D01*
X109017589Y-106000000D01*
X105250500Y-106000000D01*
X105250500Y-105300500D01*
X133117089Y-105300500D01*
X133136629Y-105436409D01*
X133193671Y-105561312D01*
X133283585Y-105665078D01*
X133283588Y-105665080D01*
X133283589Y-105665081D01*
X133399100Y-105739316D01*
X133530846Y-105778000D01*
X133530848Y-105778000D01*
X133668152Y-105778000D01*
X133668154Y-105778000D01*
X133799900Y-105739316D01*
X133915411Y-105665081D01*
X133937849Y-105639187D01*
X134005328Y-105561312D01*
X134005327Y-105561312D01*
X134005329Y-105561311D01*
X134062369Y-105436411D01*
X134062368Y-105436411D01*
X134062370Y-105436409D01*
X134081910Y-105300500D01*
X134062370Y-105164590D01*
X134005328Y-105039687D01*
X133970938Y-104999999D01*
X138717589Y-104999999D01*
X138737129Y-105135909D01*
X138794171Y-105260812D01*
X138884085Y-105364578D01*
X138884088Y-105364580D01*
X138884089Y-105364581D01*
X138999600Y-105438816D01*
X139131346Y-105477500D01*
X139131348Y-105477500D01*
X139268652Y-105477500D01*
X139268654Y-105477500D01*
X139400400Y-105438816D01*
X139515911Y-105364581D01*
X139605829Y-105260811D01*
X139662869Y-105135911D01*
X139662868Y-105135911D01*
X139662870Y-105135909D01*
X139682410Y-105000000D01*
X140117589Y-105000000D01*
X140137129Y-105135909D01*
X140194171Y-105260812D01*
X140284085Y-105364578D01*
X140284088Y-105364580D01*
X140284089Y-105364581D01*
X140399600Y-105438816D01*
X140531346Y-105477500D01*
X140531348Y-105477500D01*
X140668652Y-105477500D01*
X140668654Y-105477500D01*
X140800400Y-105438816D01*
X140915911Y-105364581D01*
X141005829Y-105260811D01*
X141062869Y-105135911D01*
X141062868Y-105135911D01*
X141062870Y-105135909D01*
X141082410Y-105000000D01*
X157017589Y-105000000D01*
X157037129Y-105135909D01*
X157094171Y-105260812D01*
X157184085Y-105364578D01*
X157184088Y-105364580D01*
X157184089Y-105364581D01*
X157299600Y-105438816D01*
X157431346Y-105477500D01*
X157431348Y-105477500D01*
X157568652Y-105477500D01*
X157568654Y-105477500D01*
X157700400Y-105438816D01*
X157815911Y-105364581D01*
X157905829Y-105260811D01*
X157962869Y-105135911D01*
X157962868Y-105135911D01*
X157962870Y-105135909D01*
X157982410Y-104999999D01*
X157962870Y-104864090D01*
X157905828Y-104739187D01*
X157815914Y-104635421D01*
X157700400Y-104561184D01*
X157568654Y-104522500D01*
X157431346Y-104522500D01*
X157343515Y-104548289D01*
X157299599Y-104561184D01*
X157184085Y-104635421D01*
X157094171Y-104739187D01*
X157037129Y-104864090D01*
X157017589Y-105000000D01*
X141082410Y-105000000D01*
X141082410Y-104999999D01*
X141062870Y-104864090D01*
X141005828Y-104739187D01*
X140915914Y-104635421D01*
X140800400Y-104561184D01*
X140668654Y-104522500D01*
X140531346Y-104522500D01*
X140443515Y-104548289D01*
X140399599Y-104561184D01*
X140284085Y-104635421D01*
X140194171Y-104739187D01*
X140137129Y-104864090D01*
X140117589Y-105000000D01*
X139682410Y-105000000D01*
X139682410Y-104999999D01*
X139662870Y-104864090D01*
X139605828Y-104739187D01*
X139515914Y-104635421D01*
X139400400Y-104561184D01*
X139268654Y-104522500D01*
X139131346Y-104522500D01*
X139043515Y-104548289D01*
X138999599Y-104561184D01*
X138884085Y-104635421D01*
X138794171Y-104739187D01*
X138737129Y-104864090D01*
X138717589Y-104999999D01*
X133970938Y-104999999D01*
X133915414Y-104935921D01*
X133799900Y-104861684D01*
X133799899Y-104861684D01*
X133668154Y-104823000D01*
X133530846Y-104823000D01*
X133443015Y-104848789D01*
X133399099Y-104861684D01*
X133283585Y-104935921D01*
X133193671Y-105039687D01*
X133136629Y-105164590D01*
X133117089Y-105300500D01*
X105250500Y-105300500D01*
X105250500Y-104699499D01*
X127217589Y-104699499D01*
X127237129Y-104835409D01*
X127294171Y-104960312D01*
X127384085Y-105064078D01*
X127384088Y-105064080D01*
X127384089Y-105064081D01*
X127499600Y-105138316D01*
X127631346Y-105177000D01*
X127631348Y-105177000D01*
X127768652Y-105177000D01*
X127768654Y-105177000D01*
X127900400Y-105138316D01*
X128015911Y-105064081D01*
X128105829Y-104960311D01*
X128162869Y-104835411D01*
X128162868Y-104835411D01*
X128162870Y-104835409D01*
X128182410Y-104699499D01*
X128162870Y-104563590D01*
X128105887Y-104438816D01*
X128105829Y-104438689D01*
X128105828Y-104438688D01*
X128105828Y-104438687D01*
X128015914Y-104334921D01*
X127900400Y-104260684D01*
X127896729Y-104259606D01*
X127768654Y-104222000D01*
X127631346Y-104222000D01*
X127574076Y-104238816D01*
X127499599Y-104260684D01*
X127384085Y-104334921D01*
X127294171Y-104438687D01*
X127237129Y-104563590D01*
X127217589Y-104699499D01*
X105250500Y-104699499D01*
X105250500Y-103799999D01*
X110117589Y-103799999D01*
X110137129Y-103935909D01*
X110194171Y-104060812D01*
X110284085Y-104164578D01*
X110284088Y-104164580D01*
X110284089Y-104164581D01*
X110399600Y-104238816D01*
X110531346Y-104277500D01*
X110531348Y-104277500D01*
X110668652Y-104277500D01*
X110668654Y-104277500D01*
X110800400Y-104238816D01*
X110915911Y-104164581D01*
X111005829Y-104060811D01*
X111033600Y-104000000D01*
X112517589Y-104000000D01*
X112537129Y-104135909D01*
X112594171Y-104260812D01*
X112684085Y-104364578D01*
X112684088Y-104364580D01*
X112684089Y-104364581D01*
X112799600Y-104438816D01*
X112931346Y-104477500D01*
X112931348Y-104477500D01*
X113068652Y-104477500D01*
X113068654Y-104477500D01*
X113200400Y-104438816D01*
X113315911Y-104364581D01*
X113316956Y-104363376D01*
X113405828Y-104260812D01*
X113405827Y-104260812D01*
X113405829Y-104260811D01*
X113462869Y-104135911D01*
X113462868Y-104135911D01*
X113462870Y-104135909D01*
X113482410Y-104000000D01*
X122517589Y-104000000D01*
X122537129Y-104135909D01*
X122594171Y-104260812D01*
X122684085Y-104364578D01*
X122684088Y-104364580D01*
X122684089Y-104364581D01*
X122799600Y-104438816D01*
X122931346Y-104477500D01*
X122931348Y-104477500D01*
X123068652Y-104477500D01*
X123068654Y-104477500D01*
X123200400Y-104438816D01*
X123315911Y-104364581D01*
X123316956Y-104363376D01*
X123405828Y-104260812D01*
X123405827Y-104260812D01*
X123405829Y-104260811D01*
X123462869Y-104135911D01*
X123462868Y-104135911D01*
X123462870Y-104135909D01*
X123482410Y-104000000D01*
X123482237Y-103998794D01*
X133115952Y-103998794D01*
X133135492Y-104134704D01*
X133192534Y-104259607D01*
X133282448Y-104363373D01*
X133282451Y-104363375D01*
X133282452Y-104363376D01*
X133397963Y-104437611D01*
X133529709Y-104476295D01*
X133529711Y-104476295D01*
X133667015Y-104476295D01*
X133667017Y-104476295D01*
X133798763Y-104437611D01*
X133914274Y-104363376D01*
X133938933Y-104334919D01*
X134004191Y-104259607D01*
X134004190Y-104259607D01*
X134004192Y-104259606D01*
X134061232Y-104134706D01*
X134061231Y-104134706D01*
X134061233Y-104134704D01*
X134080600Y-104000000D01*
X159867669Y-104000000D01*
X159886950Y-104208064D01*
X159944132Y-104409043D01*
X160037274Y-104596095D01*
X160163197Y-104762846D01*
X160317619Y-104903619D01*
X160495278Y-105013621D01*
X160625531Y-105064081D01*
X160690123Y-105089104D01*
X160895522Y-105127500D01*
X161104478Y-105127500D01*
X161309877Y-105089104D01*
X161407300Y-105051362D01*
X161504721Y-105013621D01*
X161526720Y-105000000D01*
X161682381Y-104903619D01*
X161836802Y-104762846D01*
X161962726Y-104596095D01*
X162055866Y-104409045D01*
X162113050Y-104208065D01*
X162132330Y-104000000D01*
X162113050Y-103791935D01*
X162079715Y-103674778D01*
X162055867Y-103590956D01*
X161978418Y-103435419D01*
X161962726Y-103403905D01*
X161884261Y-103300000D01*
X161836802Y-103237153D01*
X161682380Y-103096380D01*
X161504721Y-102986378D01*
X161309879Y-102910896D01*
X161104478Y-102872500D01*
X160895522Y-102872500D01*
X160690120Y-102910896D01*
X160495278Y-102986378D01*
X160317619Y-103096380D01*
X160163197Y-103237153D01*
X160037274Y-103403904D01*
X159944132Y-103590956D01*
X159886950Y-103791935D01*
X159867669Y-104000000D01*
X134080600Y-104000000D01*
X134080773Y-103998794D01*
X134061233Y-103862885D01*
X134004572Y-103738816D01*
X134004192Y-103737984D01*
X134004191Y-103737983D01*
X134004191Y-103737982D01*
X133914277Y-103634216D01*
X133798763Y-103559979D01*
X133798762Y-103559978D01*
X133667017Y-103521295D01*
X133529709Y-103521295D01*
X133441878Y-103547084D01*
X133397962Y-103559979D01*
X133282448Y-103634216D01*
X133192534Y-103737982D01*
X133135492Y-103862885D01*
X133115952Y-103998794D01*
X123482237Y-103998794D01*
X123462870Y-103864090D01*
X123405828Y-103739187D01*
X123315914Y-103635421D01*
X123200400Y-103561184D01*
X123196296Y-103559979D01*
X123068654Y-103522500D01*
X122931346Y-103522500D01*
X122843515Y-103548289D01*
X122799599Y-103561184D01*
X122684085Y-103635421D01*
X122594171Y-103739187D01*
X122537129Y-103864090D01*
X122517589Y-104000000D01*
X113482410Y-104000000D01*
X113462870Y-103864090D01*
X113405828Y-103739187D01*
X113315914Y-103635421D01*
X113200400Y-103561184D01*
X113196296Y-103559979D01*
X113068654Y-103522500D01*
X112931346Y-103522500D01*
X112843515Y-103548289D01*
X112799599Y-103561184D01*
X112684085Y-103635421D01*
X112594171Y-103739187D01*
X112537129Y-103864090D01*
X112517589Y-104000000D01*
X111033600Y-104000000D01*
X111062869Y-103935911D01*
X111062868Y-103935911D01*
X111062870Y-103935909D01*
X111082410Y-103800000D01*
X111062870Y-103664090D01*
X111005828Y-103539187D01*
X110915914Y-103435421D01*
X110800400Y-103361184D01*
X110668654Y-103322500D01*
X110531346Y-103322500D01*
X110443515Y-103348289D01*
X110399599Y-103361184D01*
X110284085Y-103435421D01*
X110194171Y-103539187D01*
X110137129Y-103664090D01*
X110117589Y-103799999D01*
X105250500Y-103799999D01*
X105250500Y-103300000D01*
X125967589Y-103300000D01*
X125987129Y-103435909D01*
X126044171Y-103560812D01*
X126134085Y-103664578D01*
X126134088Y-103664580D01*
X126134089Y-103664581D01*
X126249600Y-103738816D01*
X126381346Y-103777500D01*
X126381348Y-103777500D01*
X126518652Y-103777500D01*
X126518654Y-103777500D01*
X126650400Y-103738816D01*
X126765911Y-103664581D01*
X126766337Y-103664090D01*
X126855828Y-103560812D01*
X126855827Y-103560812D01*
X126855829Y-103560811D01*
X126912869Y-103435911D01*
X126912868Y-103435911D01*
X126912870Y-103435909D01*
X126932410Y-103299999D01*
X126912870Y-103164090D01*
X126855828Y-103039187D01*
X126765914Y-102935421D01*
X126650400Y-102861184D01*
X126518654Y-102822500D01*
X126381346Y-102822500D01*
X126293515Y-102848289D01*
X126249599Y-102861184D01*
X126134085Y-102935421D01*
X126044171Y-103039187D01*
X125987129Y-103164090D01*
X125967589Y-103300000D01*
X105250500Y-103300000D01*
X105250500Y-101800000D01*
X124617589Y-101800000D01*
X124637129Y-101935909D01*
X124694171Y-102060812D01*
X124784085Y-102164578D01*
X124784088Y-102164580D01*
X124784089Y-102164581D01*
X124899600Y-102238816D01*
X125031346Y-102277500D01*
X125031348Y-102277500D01*
X125168652Y-102277500D01*
X125168654Y-102277500D01*
X125300400Y-102238816D01*
X125415911Y-102164581D01*
X125505829Y-102060811D01*
X125562869Y-101935911D01*
X125562868Y-101935911D01*
X125562870Y-101935909D01*
X125582410Y-101800000D01*
X125562870Y-101664090D01*
X125505828Y-101539187D01*
X125415914Y-101435421D01*
X125360797Y-101399999D01*
X132517589Y-101399999D01*
X132537129Y-101535909D01*
X132594171Y-101660812D01*
X132684085Y-101764578D01*
X132684088Y-101764580D01*
X132684089Y-101764581D01*
X132799600Y-101838816D01*
X132931346Y-101877500D01*
X132931348Y-101877500D01*
X133068652Y-101877500D01*
X133068654Y-101877500D01*
X133200400Y-101838816D01*
X133315911Y-101764581D01*
X133405829Y-101660811D01*
X133462869Y-101535911D01*
X133462868Y-101535911D01*
X133462870Y-101535909D01*
X133482410Y-101400000D01*
X134117589Y-101400000D01*
X134137129Y-101535909D01*
X134194171Y-101660812D01*
X134284085Y-101764578D01*
X134284088Y-101764580D01*
X134284089Y-101764581D01*
X134399600Y-101838816D01*
X134531346Y-101877500D01*
X134531348Y-101877500D01*
X134668652Y-101877500D01*
X134668654Y-101877500D01*
X134800400Y-101838816D01*
X134915911Y-101764581D01*
X135005829Y-101660811D01*
X135062869Y-101535911D01*
X135062868Y-101535911D01*
X135062870Y-101535909D01*
X135082410Y-101399999D01*
X135062870Y-101264090D01*
X135005828Y-101139187D01*
X134915914Y-101035421D01*
X134800400Y-100961184D01*
X134668654Y-100922500D01*
X134531346Y-100922500D01*
X134443515Y-100948289D01*
X134399599Y-100961184D01*
X134284085Y-101035421D01*
X134194171Y-101139187D01*
X134137129Y-101264090D01*
X134117589Y-101400000D01*
X133482410Y-101400000D01*
X133462870Y-101264090D01*
X133405828Y-101139187D01*
X133315914Y-101035421D01*
X133200400Y-100961184D01*
X133068654Y-100922500D01*
X132931346Y-100922500D01*
X132843515Y-100948289D01*
X132799599Y-100961184D01*
X132684085Y-101035421D01*
X132594171Y-101139187D01*
X132537129Y-101264090D01*
X132517589Y-101399999D01*
X125360797Y-101399999D01*
X125300400Y-101361184D01*
X125168654Y-101322500D01*
X125031346Y-101322500D01*
X124943515Y-101348289D01*
X124899599Y-101361184D01*
X124784085Y-101435421D01*
X124694171Y-101539187D01*
X124637129Y-101664090D01*
X124617589Y-101800000D01*
X105250500Y-101800000D01*
X105250500Y-100800000D01*
X157017589Y-100800000D01*
X157037129Y-100935909D01*
X157094171Y-101060812D01*
X157184085Y-101164578D01*
X157184088Y-101164580D01*
X157184089Y-101164581D01*
X157299600Y-101238816D01*
X157431346Y-101277500D01*
X157431348Y-101277500D01*
X157568652Y-101277500D01*
X157568654Y-101277500D01*
X157700400Y-101238816D01*
X157815911Y-101164581D01*
X157837914Y-101139189D01*
X157905828Y-101060812D01*
X157905827Y-101060812D01*
X157905829Y-101060811D01*
X157962869Y-100935911D01*
X157962868Y-100935911D01*
X157962870Y-100935909D01*
X157982410Y-100800000D01*
X157962870Y-100664090D01*
X157905828Y-100539187D01*
X157871871Y-100499999D01*
X159867669Y-100499999D01*
X159886950Y-100708064D01*
X159944132Y-100909043D01*
X160037274Y-101096095D01*
X160163197Y-101262846D01*
X160317619Y-101403619D01*
X160495278Y-101513621D01*
X160673259Y-101582571D01*
X160690123Y-101589104D01*
X160895522Y-101627500D01*
X161104478Y-101627500D01*
X161309877Y-101589104D01*
X161438727Y-101539187D01*
X161504721Y-101513621D01*
X161504723Y-101513620D01*
X161682381Y-101403619D01*
X161836802Y-101262846D01*
X161962726Y-101096095D01*
X162055866Y-100909045D01*
X162113050Y-100708065D01*
X162132330Y-100500000D01*
X162113050Y-100291935D01*
X162101118Y-100250000D01*
X182667429Y-100250000D01*
X182687673Y-100481398D01*
X182747793Y-100705766D01*
X182842582Y-100909043D01*
X182845960Y-100916286D01*
X182979191Y-101106560D01*
X183143440Y-101270809D01*
X183333714Y-101404040D01*
X183544234Y-101502207D01*
X183768601Y-101562326D01*
X184000000Y-101582571D01*
X184231399Y-101562326D01*
X184455766Y-101502207D01*
X184666286Y-101404040D01*
X184856560Y-101270809D01*
X185020809Y-101106560D01*
X185154040Y-100916286D01*
X185252207Y-100705766D01*
X185312326Y-100481399D01*
X185332571Y-100250000D01*
X185312326Y-100018601D01*
X185281593Y-99903904D01*
X185252207Y-99794233D01*
X185154039Y-99583713D01*
X185020810Y-99393441D01*
X184856560Y-99229191D01*
X184852518Y-99226361D01*
X184666286Y-99095960D01*
X184598993Y-99064581D01*
X184455766Y-98997793D01*
X184231398Y-98937673D01*
X184000000Y-98917429D01*
X183768601Y-98937673D01*
X183544233Y-98997792D01*
X183333713Y-99095960D01*
X183143441Y-99229189D01*
X182979189Y-99393441D01*
X182845960Y-99583713D01*
X182747792Y-99794233D01*
X182687673Y-100018601D01*
X182667429Y-100250000D01*
X162101118Y-100250000D01*
X162079715Y-100174778D01*
X162055867Y-100090956D01*
X161992985Y-99964674D01*
X161962726Y-99903905D01*
X161854667Y-99760811D01*
X161836802Y-99737153D01*
X161682380Y-99596380D01*
X161506007Y-99487174D01*
X181018089Y-99487174D01*
X181037629Y-99623083D01*
X181094671Y-99747986D01*
X181184585Y-99851752D01*
X181184588Y-99851754D01*
X181184589Y-99851755D01*
X181300100Y-99925990D01*
X181431846Y-99964674D01*
X181431848Y-99964674D01*
X181569152Y-99964674D01*
X181569154Y-99964674D01*
X181700900Y-99925990D01*
X181816411Y-99851755D01*
X181906329Y-99747985D01*
X181963369Y-99623085D01*
X181963368Y-99623085D01*
X181963370Y-99623083D01*
X181982910Y-99487174D01*
X181963370Y-99351264D01*
X181912186Y-99239187D01*
X181906329Y-99226363D01*
X181906328Y-99226362D01*
X181906328Y-99226361D01*
X181816414Y-99122595D01*
X181774969Y-99095960D01*
X181700900Y-99048358D01*
X181569154Y-99009674D01*
X181431846Y-99009674D01*
X181344015Y-99035463D01*
X181300099Y-99048358D01*
X181184585Y-99122595D01*
X181094671Y-99226361D01*
X181037629Y-99351264D01*
X181018089Y-99487174D01*
X161506007Y-99487174D01*
X161504721Y-99486378D01*
X161309879Y-99410896D01*
X161104478Y-99372500D01*
X160895522Y-99372500D01*
X160690120Y-99410896D01*
X160495278Y-99486378D01*
X160317619Y-99596380D01*
X160163197Y-99737153D01*
X160037274Y-99903904D01*
X159944132Y-100090956D01*
X159886950Y-100291935D01*
X159867669Y-100499999D01*
X157871871Y-100499999D01*
X157815914Y-100435421D01*
X157700400Y-100361184D01*
X157568654Y-100322500D01*
X157431346Y-100322500D01*
X157343515Y-100348289D01*
X157299599Y-100361184D01*
X157184085Y-100435421D01*
X157094171Y-100539187D01*
X157037129Y-100664090D01*
X157017589Y-100800000D01*
X105250500Y-100800000D01*
X105250500Y-99500000D01*
X114017589Y-99500000D01*
X114037129Y-99635909D01*
X114094171Y-99760812D01*
X114184085Y-99864578D01*
X114184088Y-99864580D01*
X114184089Y-99864581D01*
X114299600Y-99938816D01*
X114431346Y-99977500D01*
X114431348Y-99977500D01*
X114568652Y-99977500D01*
X114568654Y-99977500D01*
X114700400Y-99938816D01*
X114815911Y-99864581D01*
X114827028Y-99851752D01*
X114905828Y-99760812D01*
X114905827Y-99760812D01*
X114905829Y-99760811D01*
X114962869Y-99635911D01*
X114962868Y-99635911D01*
X114962870Y-99635909D01*
X114982410Y-99499999D01*
X114962870Y-99364090D01*
X114962170Y-99362558D01*
X173732500Y-99362558D01*
X173739898Y-99399748D01*
X173768078Y-99441922D01*
X173810252Y-99470102D01*
X173847442Y-99477500D01*
X173847445Y-99477500D01*
X175572555Y-99477500D01*
X175572558Y-99477500D01*
X175609748Y-99470102D01*
X175651922Y-99441922D01*
X175680102Y-99399748D01*
X175687500Y-99362558D01*
X175687500Y-98499999D01*
X176267770Y-98499999D01*
X176286643Y-98691625D01*
X176342538Y-98875884D01*
X176433303Y-99045694D01*
X176433305Y-99045697D01*
X176433306Y-99045698D01*
X176555459Y-99194541D01*
X176704302Y-99316694D01*
X176704303Y-99316694D01*
X176704305Y-99316696D01*
X176859685Y-99399748D01*
X176874117Y-99407462D01*
X177058376Y-99463357D01*
X177250000Y-99482230D01*
X177441624Y-99463357D01*
X177625883Y-99407462D01*
X177795698Y-99316694D01*
X177944541Y-99194541D01*
X178066694Y-99045698D01*
X178157462Y-98875883D01*
X178213357Y-98691624D01*
X178232230Y-98500000D01*
X178213357Y-98308376D01*
X178157462Y-98124117D01*
X178132545Y-98077500D01*
X178071107Y-97962558D01*
X182672500Y-97962558D01*
X182679898Y-97999748D01*
X182708078Y-98041922D01*
X182750252Y-98070102D01*
X182787442Y-98077500D01*
X182787445Y-98077500D01*
X185212555Y-98077500D01*
X185212558Y-98077500D01*
X185249748Y-98070102D01*
X185291922Y-98041922D01*
X185320102Y-97999748D01*
X185327500Y-97962558D01*
X185327500Y-95537442D01*
X185320102Y-95500252D01*
X185291922Y-95458078D01*
X185249748Y-95429898D01*
X185212558Y-95422500D01*
X182787442Y-95422500D01*
X182759549Y-95428048D01*
X182750251Y-95429898D01*
X182708078Y-95458078D01*
X182679898Y-95500251D01*
X182679897Y-95500252D01*
X182679898Y-95500252D01*
X182672500Y-95537442D01*
X182672500Y-97962558D01*
X178071107Y-97962558D01*
X178066696Y-97954305D01*
X178066694Y-97954302D01*
X177944541Y-97805459D01*
X177795698Y-97683306D01*
X177795697Y-97683305D01*
X177795694Y-97683303D01*
X177625884Y-97592538D01*
X177441625Y-97536643D01*
X177250000Y-97517770D01*
X177058374Y-97536643D01*
X176874115Y-97592538D01*
X176704305Y-97683303D01*
X176555459Y-97805459D01*
X176433303Y-97954305D01*
X176342538Y-98124115D01*
X176286643Y-98308374D01*
X176267770Y-98499999D01*
X175687500Y-98499999D01*
X175687500Y-97637442D01*
X175680102Y-97600252D01*
X175651922Y-97558078D01*
X175609748Y-97529898D01*
X175572558Y-97522500D01*
X173847442Y-97522500D01*
X173819549Y-97528048D01*
X173810251Y-97529898D01*
X173768078Y-97558078D01*
X173739898Y-97600251D01*
X173739897Y-97600252D01*
X173739898Y-97600252D01*
X173732500Y-97637442D01*
X173732500Y-99362558D01*
X114962170Y-99362558D01*
X114905828Y-99239187D01*
X114815914Y-99135421D01*
X114795953Y-99122593D01*
X114700400Y-99061184D01*
X114568654Y-99022500D01*
X114431346Y-99022500D01*
X114375779Y-99038816D01*
X114299599Y-99061184D01*
X114184085Y-99135421D01*
X114094171Y-99239187D01*
X114037129Y-99364090D01*
X114017589Y-99500000D01*
X105250500Y-99500000D01*
X105250500Y-98699999D01*
X120917589Y-98699999D01*
X120937129Y-98835909D01*
X120994171Y-98960812D01*
X121084085Y-99064578D01*
X121084088Y-99064580D01*
X121084089Y-99064581D01*
X121199600Y-99138816D01*
X121331346Y-99177500D01*
X121331348Y-99177500D01*
X121468652Y-99177500D01*
X121468654Y-99177500D01*
X121600400Y-99138816D01*
X121715911Y-99064581D01*
X121729969Y-99048358D01*
X121805828Y-98960812D01*
X121805827Y-98960812D01*
X121805829Y-98960811D01*
X121862869Y-98835911D01*
X121862868Y-98835911D01*
X121862870Y-98835909D01*
X121882410Y-98699999D01*
X121868033Y-98600000D01*
X152767589Y-98600000D01*
X152787129Y-98735909D01*
X152844171Y-98860812D01*
X152934085Y-98964578D01*
X152934088Y-98964580D01*
X152934089Y-98964581D01*
X153049600Y-99038816D01*
X153181346Y-99077500D01*
X153181348Y-99077500D01*
X153318652Y-99077500D01*
X153318654Y-99077500D01*
X153450400Y-99038816D01*
X153565911Y-98964581D01*
X153589227Y-98937674D01*
X153655828Y-98860812D01*
X153655827Y-98860812D01*
X153655829Y-98860811D01*
X153712869Y-98735911D01*
X153712868Y-98735911D01*
X153712870Y-98735909D01*
X153732410Y-98600000D01*
X153712870Y-98464090D01*
X153655828Y-98339187D01*
X153565914Y-98235421D01*
X153450400Y-98161184D01*
X153318654Y-98122500D01*
X153181346Y-98122500D01*
X153093515Y-98148289D01*
X153049599Y-98161184D01*
X152934085Y-98235421D01*
X152844171Y-98339187D01*
X152787129Y-98464090D01*
X152767589Y-98600000D01*
X121868033Y-98600000D01*
X121862870Y-98564090D01*
X121805828Y-98439187D01*
X121715914Y-98335421D01*
X121600400Y-98261184D01*
X121468654Y-98222500D01*
X121331346Y-98222500D01*
X121275779Y-98238816D01*
X121199599Y-98261184D01*
X121084085Y-98335421D01*
X120994171Y-98439187D01*
X120937129Y-98564090D01*
X120917589Y-98699999D01*
X105250500Y-98699999D01*
X105250500Y-97799999D01*
X132517589Y-97799999D01*
X132537129Y-97935909D01*
X132594171Y-98060812D01*
X132684085Y-98164578D01*
X132684088Y-98164580D01*
X132684089Y-98164581D01*
X132799600Y-98238816D01*
X132931346Y-98277500D01*
X132931348Y-98277500D01*
X133068652Y-98277500D01*
X133068654Y-98277500D01*
X133200400Y-98238816D01*
X133315911Y-98164581D01*
X133405829Y-98060811D01*
X133462869Y-97935911D01*
X133462868Y-97935911D01*
X133462870Y-97935909D01*
X133482410Y-97800000D01*
X134117589Y-97800000D01*
X134137129Y-97935909D01*
X134194171Y-98060812D01*
X134284085Y-98164578D01*
X134284088Y-98164580D01*
X134284089Y-98164581D01*
X134399600Y-98238816D01*
X134531346Y-98277500D01*
X134531348Y-98277500D01*
X134668652Y-98277500D01*
X134668654Y-98277500D01*
X134800400Y-98238816D01*
X134915911Y-98164581D01*
X135005829Y-98060811D01*
X135062869Y-97935911D01*
X135062868Y-97935911D01*
X135062870Y-97935909D01*
X135082410Y-97800000D01*
X135082410Y-97799999D01*
X135717589Y-97799999D01*
X135737129Y-97935909D01*
X135794171Y-98060812D01*
X135884085Y-98164578D01*
X135884088Y-98164580D01*
X135884089Y-98164581D01*
X135999600Y-98238816D01*
X136131346Y-98277500D01*
X136131348Y-98277500D01*
X136268652Y-98277500D01*
X136268654Y-98277500D01*
X136400400Y-98238816D01*
X136515911Y-98164581D01*
X136605829Y-98060811D01*
X136662869Y-97935911D01*
X136662868Y-97935911D01*
X136662870Y-97935909D01*
X136682410Y-97799999D01*
X136662870Y-97664090D01*
X136605828Y-97539187D01*
X136515914Y-97435421D01*
X136400400Y-97361184D01*
X136268654Y-97322500D01*
X136131346Y-97322500D01*
X136043515Y-97348289D01*
X135999599Y-97361184D01*
X135884085Y-97435421D01*
X135794171Y-97539187D01*
X135737129Y-97664090D01*
X135717589Y-97799999D01*
X135082410Y-97799999D01*
X135062870Y-97664090D01*
X135005828Y-97539187D01*
X134915914Y-97435421D01*
X134800400Y-97361184D01*
X134668654Y-97322500D01*
X134531346Y-97322500D01*
X134443515Y-97348289D01*
X134399599Y-97361184D01*
X134284085Y-97435421D01*
X134194171Y-97539187D01*
X134137129Y-97664090D01*
X134117589Y-97800000D01*
X133482410Y-97800000D01*
X133482410Y-97799999D01*
X133462870Y-97664090D01*
X133405828Y-97539187D01*
X133315914Y-97435421D01*
X133200400Y-97361184D01*
X133068654Y-97322500D01*
X132931346Y-97322500D01*
X132843515Y-97348289D01*
X132799599Y-97361184D01*
X132684085Y-97435421D01*
X132594171Y-97539187D01*
X132537129Y-97664090D01*
X132517589Y-97799999D01*
X105250500Y-97799999D01*
X105250500Y-95904128D01*
X127517589Y-95904128D01*
X127537129Y-96040037D01*
X127594171Y-96164940D01*
X127684085Y-96268706D01*
X127684088Y-96268708D01*
X127684089Y-96268709D01*
X127799600Y-96342944D01*
X127931346Y-96381628D01*
X127931348Y-96381628D01*
X128068652Y-96381628D01*
X128068654Y-96381628D01*
X128200400Y-96342944D01*
X128315911Y-96268709D01*
X128375449Y-96199999D01*
X150018089Y-96199999D01*
X150037629Y-96335909D01*
X150094671Y-96460812D01*
X150184585Y-96564578D01*
X150184588Y-96564580D01*
X150184589Y-96564581D01*
X150212003Y-96582199D01*
X150263884Y-96639270D01*
X150280278Y-96714636D01*
X150256794Y-96788102D01*
X150244054Y-96805120D01*
X150194170Y-96862689D01*
X150137129Y-96987590D01*
X150117589Y-97123499D01*
X150137129Y-97259409D01*
X150194171Y-97384312D01*
X150284085Y-97488078D01*
X150284088Y-97488080D01*
X150284089Y-97488081D01*
X150399600Y-97562316D01*
X150531346Y-97601000D01*
X150531348Y-97601000D01*
X150668652Y-97601000D01*
X150668654Y-97601000D01*
X150800400Y-97562316D01*
X150915911Y-97488081D01*
X151005829Y-97384311D01*
X151062869Y-97259411D01*
X151062868Y-97259411D01*
X151062870Y-97259409D01*
X151082410Y-97123500D01*
X151064654Y-97000000D01*
X159867669Y-97000000D01*
X159886950Y-97208064D01*
X159944132Y-97409043D01*
X160037274Y-97596095D01*
X160163197Y-97762846D01*
X160317619Y-97903619D01*
X160495278Y-98013621D01*
X160690120Y-98089103D01*
X160690123Y-98089104D01*
X160895522Y-98127500D01*
X161104478Y-98127500D01*
X161309877Y-98089104D01*
X161407300Y-98051362D01*
X161504721Y-98013621D01*
X161527127Y-97999748D01*
X161682381Y-97903619D01*
X161836802Y-97762846D01*
X161962726Y-97596095D01*
X162055866Y-97409045D01*
X162062904Y-97384311D01*
X162080490Y-97322500D01*
X162113050Y-97208065D01*
X162132330Y-97000000D01*
X162113050Y-96791935D01*
X162069484Y-96638816D01*
X162055867Y-96590956D01*
X161991061Y-96460810D01*
X161962726Y-96403905D01*
X161911378Y-96335909D01*
X161836802Y-96237153D01*
X161682380Y-96096380D01*
X161504721Y-95986378D01*
X161309879Y-95910896D01*
X161104478Y-95872500D01*
X160895522Y-95872500D01*
X160690120Y-95910896D01*
X160495278Y-95986378D01*
X160317619Y-96096380D01*
X160163197Y-96237153D01*
X160037274Y-96403904D01*
X159944132Y-96590956D01*
X159886950Y-96791935D01*
X159867669Y-97000000D01*
X151064654Y-97000000D01*
X151062870Y-96987590D01*
X151005828Y-96862687D01*
X150915912Y-96758918D01*
X150888496Y-96741299D01*
X150836615Y-96684228D01*
X150820221Y-96608862D01*
X150843706Y-96535397D01*
X150856446Y-96518378D01*
X150906329Y-96460811D01*
X150963369Y-96335911D01*
X150963368Y-96335911D01*
X150963370Y-96335909D01*
X150982910Y-96199999D01*
X150963370Y-96064090D01*
X150906328Y-95939187D01*
X150816414Y-95835421D01*
X150700900Y-95761184D01*
X150699630Y-95760811D01*
X150569154Y-95722500D01*
X150431846Y-95722500D01*
X150344015Y-95748289D01*
X150300099Y-95761184D01*
X150184585Y-95835421D01*
X150094671Y-95939187D01*
X150037629Y-96064090D01*
X150018089Y-96199999D01*
X128375449Y-96199999D01*
X128405829Y-96164939D01*
X128462869Y-96040039D01*
X128462868Y-96040039D01*
X128462870Y-96040037D01*
X128482410Y-95904128D01*
X128462870Y-95768218D01*
X128413672Y-95660491D01*
X128405829Y-95643317D01*
X128405828Y-95643316D01*
X128405828Y-95643315D01*
X128315914Y-95539549D01*
X128314773Y-95538816D01*
X128200400Y-95465312D01*
X128068654Y-95426628D01*
X127931346Y-95426628D01*
X127843515Y-95452417D01*
X127799599Y-95465312D01*
X127684085Y-95539549D01*
X127594171Y-95643315D01*
X127537129Y-95768218D01*
X127517589Y-95904128D01*
X105250500Y-95904128D01*
X105250500Y-95200000D01*
X106517589Y-95200000D01*
X106537129Y-95335909D01*
X106594171Y-95460812D01*
X106684085Y-95564578D01*
X106684088Y-95564580D01*
X106684089Y-95564581D01*
X106799600Y-95638816D01*
X106931346Y-95677500D01*
X106931348Y-95677500D01*
X107068652Y-95677500D01*
X107068654Y-95677500D01*
X107200400Y-95638816D01*
X107315911Y-95564581D01*
X107337604Y-95539547D01*
X107405828Y-95460812D01*
X107405827Y-95460812D01*
X107405829Y-95460811D01*
X107462869Y-95335911D01*
X107462868Y-95335911D01*
X107462870Y-95335909D01*
X107482410Y-95200000D01*
X110517589Y-95200000D01*
X110537129Y-95335909D01*
X110594171Y-95460812D01*
X110684085Y-95564578D01*
X110684088Y-95564580D01*
X110684089Y-95564581D01*
X110799600Y-95638816D01*
X110931346Y-95677500D01*
X110931348Y-95677500D01*
X111068652Y-95677500D01*
X111068654Y-95677500D01*
X111200400Y-95638816D01*
X111315911Y-95564581D01*
X111337604Y-95539547D01*
X111405828Y-95460812D01*
X111405827Y-95460812D01*
X111405829Y-95460811D01*
X111462869Y-95335911D01*
X111462868Y-95335911D01*
X111462870Y-95335909D01*
X111480654Y-95212211D01*
X112517589Y-95212211D01*
X112537129Y-95348121D01*
X112594171Y-95473024D01*
X112684085Y-95576790D01*
X112684088Y-95576792D01*
X112684089Y-95576793D01*
X112799600Y-95651028D01*
X112931346Y-95689712D01*
X112931348Y-95689712D01*
X113068652Y-95689712D01*
X113068654Y-95689712D01*
X113200400Y-95651028D01*
X113315911Y-95576793D01*
X113326496Y-95564578D01*
X113405828Y-95473024D01*
X113405827Y-95473024D01*
X113405829Y-95473023D01*
X113462869Y-95348123D01*
X113462868Y-95348123D01*
X113462870Y-95348121D01*
X113482410Y-95212211D01*
X113462870Y-95076302D01*
X113405828Y-94951399D01*
X113315914Y-94847633D01*
X113200400Y-94773396D01*
X113200400Y-94773395D01*
X113068654Y-94734712D01*
X112931346Y-94734712D01*
X112843515Y-94760501D01*
X112799599Y-94773396D01*
X112684085Y-94847633D01*
X112594171Y-94951399D01*
X112537129Y-95076302D01*
X112517589Y-95212211D01*
X111480654Y-95212211D01*
X111482410Y-95200000D01*
X111462870Y-95064090D01*
X111405828Y-94939187D01*
X111315914Y-94835421D01*
X111200400Y-94761184D01*
X111068654Y-94722500D01*
X110931346Y-94722500D01*
X110843515Y-94748289D01*
X110799599Y-94761184D01*
X110684085Y-94835421D01*
X110594171Y-94939187D01*
X110537129Y-95064090D01*
X110517589Y-95200000D01*
X107482410Y-95200000D01*
X107462870Y-95064090D01*
X107405828Y-94939187D01*
X107315914Y-94835421D01*
X107200400Y-94761184D01*
X107068654Y-94722500D01*
X106931346Y-94722500D01*
X106843515Y-94748289D01*
X106799599Y-94761184D01*
X106684085Y-94835421D01*
X106594171Y-94939187D01*
X106537129Y-95064090D01*
X106517589Y-95200000D01*
X105250500Y-95200000D01*
X105250500Y-94499999D01*
X116867669Y-94499999D01*
X116874851Y-94577500D01*
X116886950Y-94708065D01*
X116896434Y-94741398D01*
X116944132Y-94909043D01*
X117037274Y-95096095D01*
X117163197Y-95262846D01*
X117317619Y-95403619D01*
X117495278Y-95513621D01*
X117690120Y-95589103D01*
X117690123Y-95589104D01*
X117895522Y-95627500D01*
X118104478Y-95627500D01*
X118309877Y-95589104D01*
X118439685Y-95538816D01*
X118504721Y-95513621D01*
X118526313Y-95500252D01*
X118682381Y-95403619D01*
X118836802Y-95262846D01*
X118959777Y-95100000D01*
X129517589Y-95100000D01*
X129537129Y-95235909D01*
X129594171Y-95360812D01*
X129684085Y-95464578D01*
X129684088Y-95464580D01*
X129684089Y-95464581D01*
X129799600Y-95538816D01*
X129931346Y-95577500D01*
X129931348Y-95577500D01*
X130068652Y-95577500D01*
X130068654Y-95577500D01*
X130200400Y-95538816D01*
X130260800Y-95499999D01*
X136217589Y-95499999D01*
X136237129Y-95635909D01*
X136294171Y-95760812D01*
X136384085Y-95864578D01*
X136384088Y-95864580D01*
X136384089Y-95864581D01*
X136499600Y-95938816D01*
X136631346Y-95977500D01*
X136631348Y-95977500D01*
X136768652Y-95977500D01*
X136768654Y-95977500D01*
X136900400Y-95938816D01*
X137015911Y-95864581D01*
X137105829Y-95760811D01*
X137162869Y-95635911D01*
X137162868Y-95635911D01*
X137162870Y-95635909D01*
X137182410Y-95500000D01*
X137177423Y-95465312D01*
X137171032Y-95420864D01*
X137180188Y-95344283D01*
X137226409Y-95282538D01*
X137297310Y-95252177D01*
X137360493Y-95256696D01*
X137431344Y-95277500D01*
X137431346Y-95277500D01*
X137568652Y-95277500D01*
X137568654Y-95277500D01*
X137700400Y-95238816D01*
X137815911Y-95164581D01*
X137905829Y-95060811D01*
X137962869Y-94935911D01*
X137962868Y-94935911D01*
X137962870Y-94935909D01*
X137982410Y-94800000D01*
X137971032Y-94720865D01*
X137980188Y-94644283D01*
X138026409Y-94582538D01*
X138097310Y-94552177D01*
X138160493Y-94556696D01*
X138231344Y-94577500D01*
X138231346Y-94577500D01*
X138368652Y-94577500D01*
X138368654Y-94577500D01*
X138500400Y-94538816D01*
X138615911Y-94464581D01*
X138705829Y-94360811D01*
X138762869Y-94235911D01*
X138762868Y-94235911D01*
X138762870Y-94235909D01*
X138782410Y-94100000D01*
X138771032Y-94020865D01*
X138780188Y-93944283D01*
X138826409Y-93882538D01*
X138897310Y-93852177D01*
X138960493Y-93856696D01*
X139031344Y-93877500D01*
X139031346Y-93877500D01*
X139168652Y-93877500D01*
X139168654Y-93877500D01*
X139300400Y-93838816D01*
X139415911Y-93764581D01*
X139417415Y-93762846D01*
X139505828Y-93660812D01*
X139505827Y-93660812D01*
X139505829Y-93660811D01*
X139562869Y-93535911D01*
X139562868Y-93535911D01*
X139562870Y-93535909D01*
X139582410Y-93400000D01*
X139571032Y-93320865D01*
X139580188Y-93244283D01*
X139626409Y-93182538D01*
X139697310Y-93152177D01*
X139760493Y-93156696D01*
X139831344Y-93177500D01*
X139831346Y-93177500D01*
X139968652Y-93177500D01*
X139968654Y-93177500D01*
X140100400Y-93138816D01*
X140215911Y-93064581D01*
X140271872Y-92999999D01*
X159867669Y-92999999D01*
X159886950Y-93208064D01*
X159944132Y-93409043D01*
X160037274Y-93596095D01*
X160163197Y-93762846D01*
X160317619Y-93903619D01*
X160495278Y-94013621D01*
X160690120Y-94089103D01*
X160690123Y-94089104D01*
X160895522Y-94127500D01*
X161104478Y-94127500D01*
X161309877Y-94089104D01*
X161486022Y-94020865D01*
X161504721Y-94013621D01*
X161504723Y-94013620D01*
X161682381Y-93903619D01*
X161836802Y-93762846D01*
X161962726Y-93596095D01*
X162055866Y-93409045D01*
X162113050Y-93208065D01*
X162132330Y-93000000D01*
X162113050Y-92791935D01*
X162079715Y-92674778D01*
X162055867Y-92590956D01*
X161989013Y-92456696D01*
X161962726Y-92403905D01*
X161931894Y-92363077D01*
X161836802Y-92237153D01*
X161682380Y-92096380D01*
X161504721Y-91986378D01*
X161309879Y-91910896D01*
X161104478Y-91872500D01*
X160895522Y-91872500D01*
X160690120Y-91910896D01*
X160495278Y-91986378D01*
X160317619Y-92096380D01*
X160163197Y-92237153D01*
X160037274Y-92403904D01*
X159944132Y-92590956D01*
X159886950Y-92791935D01*
X159867669Y-92999999D01*
X140271872Y-92999999D01*
X140305829Y-92960811D01*
X140362869Y-92835911D01*
X140362868Y-92835911D01*
X140362870Y-92835909D01*
X140382410Y-92700000D01*
X140371032Y-92620865D01*
X140380188Y-92544283D01*
X140426409Y-92482538D01*
X140497310Y-92452177D01*
X140560493Y-92456696D01*
X140631344Y-92477500D01*
X140631346Y-92477500D01*
X140768652Y-92477500D01*
X140768654Y-92477500D01*
X140900400Y-92438816D01*
X141015911Y-92364581D01*
X141105829Y-92260811D01*
X141162869Y-92135911D01*
X141162868Y-92135911D01*
X141162870Y-92135909D01*
X141182410Y-92000000D01*
X141171032Y-91920865D01*
X141180188Y-91844283D01*
X141226409Y-91782538D01*
X141297310Y-91752177D01*
X141360493Y-91756696D01*
X141431344Y-91777500D01*
X141431346Y-91777500D01*
X141568652Y-91777500D01*
X141568654Y-91777500D01*
X141700400Y-91738816D01*
X141815911Y-91664581D01*
X141905829Y-91560811D01*
X141962869Y-91435911D01*
X141962868Y-91435911D01*
X141962870Y-91435909D01*
X141982410Y-91300000D01*
X141971032Y-91220865D01*
X141980188Y-91144283D01*
X142026409Y-91082538D01*
X142097310Y-91052177D01*
X142160493Y-91056696D01*
X142231344Y-91077500D01*
X142231346Y-91077500D01*
X142368652Y-91077500D01*
X142368654Y-91077500D01*
X142500400Y-91038816D01*
X142615911Y-90964581D01*
X142705829Y-90860811D01*
X142762869Y-90735911D01*
X142762868Y-90735911D01*
X142762870Y-90735909D01*
X142782410Y-90600000D01*
X142762870Y-90464090D01*
X142705828Y-90339187D01*
X142615914Y-90235421D01*
X142500400Y-90161184D01*
X142368654Y-90122500D01*
X142231346Y-90122500D01*
X142143515Y-90148289D01*
X142099599Y-90161184D01*
X141984085Y-90235421D01*
X141894171Y-90339187D01*
X141837129Y-90464090D01*
X141817590Y-90599996D01*
X141817590Y-90599998D01*
X141817590Y-90600000D01*
X141821544Y-90627500D01*
X141828968Y-90679135D01*
X141819811Y-90755717D01*
X141773589Y-90817461D01*
X141702688Y-90847823D01*
X141639507Y-90843304D01*
X141568654Y-90822500D01*
X141431346Y-90822500D01*
X141360494Y-90843304D01*
X141299599Y-90861184D01*
X141184085Y-90935421D01*
X141094171Y-91039187D01*
X141037129Y-91164090D01*
X141017590Y-91299996D01*
X141017590Y-91299998D01*
X141017590Y-91300000D01*
X141028968Y-91379135D01*
X141019811Y-91455717D01*
X140973589Y-91517461D01*
X140902688Y-91547823D01*
X140839507Y-91543304D01*
X140768654Y-91522500D01*
X140631346Y-91522500D01*
X140560494Y-91543304D01*
X140499599Y-91561184D01*
X140384085Y-91635421D01*
X140294171Y-91739187D01*
X140237129Y-91864090D01*
X140217590Y-91999996D01*
X140217590Y-91999998D01*
X140217590Y-92000000D01*
X140228968Y-92079135D01*
X140219811Y-92155717D01*
X140173589Y-92217461D01*
X140102688Y-92247823D01*
X140039507Y-92243304D01*
X139968654Y-92222500D01*
X139831346Y-92222500D01*
X139760494Y-92243304D01*
X139699599Y-92261184D01*
X139584085Y-92335421D01*
X139494171Y-92439187D01*
X139437129Y-92564090D01*
X139417590Y-92699996D01*
X139417590Y-92699998D01*
X139417590Y-92700000D01*
X139428968Y-92779135D01*
X139419811Y-92855717D01*
X139373589Y-92917461D01*
X139302688Y-92947823D01*
X139239507Y-92943304D01*
X139168654Y-92922500D01*
X139031346Y-92922500D01*
X138960494Y-92943304D01*
X138899599Y-92961184D01*
X138784085Y-93035421D01*
X138694171Y-93139187D01*
X138637129Y-93264090D01*
X138617590Y-93399996D01*
X138617590Y-93399998D01*
X138617590Y-93400000D01*
X138619157Y-93410896D01*
X138628968Y-93479135D01*
X138619811Y-93555717D01*
X138573589Y-93617461D01*
X138502688Y-93647823D01*
X138439507Y-93643304D01*
X138368654Y-93622500D01*
X138231346Y-93622500D01*
X138160494Y-93643304D01*
X138099599Y-93661184D01*
X137984085Y-93735421D01*
X137894171Y-93839187D01*
X137837129Y-93964090D01*
X137817590Y-94099996D01*
X137817590Y-94099998D01*
X137817590Y-94100000D01*
X137821544Y-94127500D01*
X137828968Y-94179135D01*
X137819811Y-94255717D01*
X137773589Y-94317461D01*
X137702688Y-94347823D01*
X137639507Y-94343304D01*
X137568654Y-94322500D01*
X137431346Y-94322500D01*
X137360494Y-94343304D01*
X137299599Y-94361184D01*
X137184085Y-94435421D01*
X137094171Y-94539187D01*
X137037129Y-94664090D01*
X137017590Y-94799996D01*
X137017590Y-94799998D01*
X137017590Y-94800000D01*
X137024439Y-94847633D01*
X137028968Y-94879135D01*
X137019811Y-94955717D01*
X136973589Y-95017461D01*
X136902688Y-95047823D01*
X136839507Y-95043304D01*
X136768654Y-95022500D01*
X136631346Y-95022500D01*
X136560494Y-95043304D01*
X136499599Y-95061184D01*
X136384085Y-95135421D01*
X136294171Y-95239187D01*
X136237129Y-95364090D01*
X136217589Y-95499999D01*
X130260800Y-95499999D01*
X130315911Y-95464581D01*
X130353792Y-95420865D01*
X130402988Y-95364090D01*
X130405829Y-95360811D01*
X130462869Y-95235911D01*
X130462868Y-95235911D01*
X130462870Y-95235909D01*
X130482410Y-95099999D01*
X130462870Y-94964090D01*
X130405828Y-94839187D01*
X130315914Y-94735421D01*
X130200400Y-94661184D01*
X130068654Y-94622500D01*
X129931346Y-94622500D01*
X129857160Y-94644283D01*
X129799599Y-94661184D01*
X129684085Y-94735421D01*
X129594171Y-94839187D01*
X129537129Y-94964090D01*
X129517589Y-95100000D01*
X118959777Y-95100000D01*
X118962726Y-95096095D01*
X119055866Y-94909045D01*
X119113050Y-94708065D01*
X119132330Y-94500000D01*
X119113050Y-94291935D01*
X119058440Y-94100000D01*
X119055867Y-94090956D01*
X118999372Y-93977500D01*
X118962726Y-93903905D01*
X118913855Y-93839189D01*
X118836802Y-93737153D01*
X118682380Y-93596380D01*
X118526720Y-93499999D01*
X124817589Y-93499999D01*
X124837129Y-93635909D01*
X124894171Y-93760812D01*
X124984085Y-93864578D01*
X124984088Y-93864580D01*
X124984089Y-93864581D01*
X125099600Y-93938816D01*
X125231346Y-93977500D01*
X125231348Y-93977500D01*
X125368652Y-93977500D01*
X125368654Y-93977500D01*
X125500400Y-93938816D01*
X125615911Y-93864581D01*
X125622744Y-93856696D01*
X125705828Y-93760812D01*
X125705827Y-93760812D01*
X125705829Y-93760811D01*
X125762869Y-93635911D01*
X125762868Y-93635911D01*
X125762870Y-93635909D01*
X125782410Y-93500000D01*
X125762870Y-93364090D01*
X125705828Y-93239187D01*
X125615914Y-93135421D01*
X125500400Y-93061184D01*
X125368654Y-93022500D01*
X125231346Y-93022500D01*
X125143515Y-93048289D01*
X125099599Y-93061184D01*
X124984085Y-93135421D01*
X124894171Y-93239187D01*
X124837129Y-93364090D01*
X124817589Y-93499999D01*
X118526720Y-93499999D01*
X118504721Y-93486378D01*
X118309879Y-93410896D01*
X118104478Y-93372500D01*
X117895522Y-93372500D01*
X117690120Y-93410896D01*
X117495278Y-93486378D01*
X117317619Y-93596380D01*
X117163197Y-93737153D01*
X117037274Y-93903904D01*
X116944132Y-94090956D01*
X116886950Y-94291935D01*
X116867669Y-94499999D01*
X105250500Y-94499999D01*
X105250500Y-91399999D01*
X110317589Y-91399999D01*
X110337129Y-91535909D01*
X110394171Y-91660812D01*
X110484085Y-91764578D01*
X110484088Y-91764580D01*
X110484089Y-91764581D01*
X110599600Y-91838816D01*
X110731346Y-91877500D01*
X110731348Y-91877500D01*
X110868652Y-91877500D01*
X110868654Y-91877500D01*
X111000400Y-91838816D01*
X111115911Y-91764581D01*
X111117415Y-91762846D01*
X111205828Y-91660812D01*
X111205827Y-91660812D01*
X111205829Y-91660811D01*
X111262869Y-91535911D01*
X111262868Y-91535911D01*
X111262870Y-91535909D01*
X111282410Y-91400000D01*
X111262870Y-91264090D01*
X111205828Y-91139187D01*
X111115914Y-91035421D01*
X111060797Y-90999999D01*
X116867669Y-90999999D01*
X116886950Y-91208064D01*
X116944132Y-91409043D01*
X117037274Y-91596095D01*
X117163197Y-91762846D01*
X117317619Y-91903619D01*
X117495278Y-92013621D01*
X117664390Y-92079135D01*
X117690123Y-92089104D01*
X117895522Y-92127500D01*
X118104478Y-92127500D01*
X118309877Y-92089104D01*
X118407300Y-92051361D01*
X118504721Y-92013621D01*
X118526720Y-92000000D01*
X118682381Y-91903619D01*
X118836802Y-91762846D01*
X118962726Y-91596095D01*
X119055866Y-91409045D01*
X119113050Y-91208065D01*
X119132330Y-91000000D01*
X119113050Y-90791935D01*
X119058440Y-90600000D01*
X119055867Y-90590956D01*
X119009296Y-90497429D01*
X118962726Y-90403905D01*
X118913855Y-90339189D01*
X118836802Y-90237153D01*
X118682380Y-90096380D01*
X118504721Y-89986378D01*
X118309879Y-89910896D01*
X118104478Y-89872500D01*
X117895522Y-89872500D01*
X117690120Y-89910896D01*
X117495278Y-89986378D01*
X117317619Y-90096380D01*
X117163197Y-90237153D01*
X117037274Y-90403904D01*
X116944132Y-90590956D01*
X116886950Y-90791935D01*
X116867669Y-90999999D01*
X111060797Y-90999999D01*
X111000400Y-90961184D01*
X110868654Y-90922500D01*
X110731346Y-90922500D01*
X110643515Y-90948289D01*
X110599599Y-90961184D01*
X110484085Y-91035421D01*
X110394171Y-91139187D01*
X110337129Y-91264090D01*
X110317589Y-91399999D01*
X105250500Y-91399999D01*
X105250500Y-89780286D01*
X106518760Y-89780286D01*
X106526862Y-89909045D01*
X106528716Y-89938516D01*
X106577709Y-90089300D01*
X106662660Y-90223162D01*
X106778233Y-90331693D01*
X106917166Y-90408072D01*
X107070728Y-90447500D01*
X107070729Y-90447500D01*
X107784793Y-90447500D01*
X107789476Y-90447500D01*
X107907293Y-90432616D01*
X108054703Y-90374253D01*
X108182967Y-90281063D01*
X108284026Y-90158903D01*
X108351531Y-90015449D01*
X108381239Y-89859714D01*
X108376242Y-89780286D01*
X110448760Y-89780286D01*
X110456862Y-89909045D01*
X110458716Y-89938516D01*
X110507709Y-90089300D01*
X110592660Y-90223162D01*
X110708233Y-90331693D01*
X110847166Y-90408072D01*
X111000728Y-90447500D01*
X111000729Y-90447500D01*
X112214793Y-90447500D01*
X112219476Y-90447500D01*
X112337293Y-90432616D01*
X112484703Y-90374253D01*
X112612967Y-90281063D01*
X112714026Y-90158903D01*
X112781531Y-90015449D01*
X112811239Y-89859714D01*
X112801284Y-89701484D01*
X112752291Y-89550700D01*
X112720116Y-89500000D01*
X133769196Y-89500000D01*
X133790281Y-89633126D01*
X133851472Y-89753220D01*
X133946780Y-89848528D01*
X134066874Y-89909719D01*
X134200000Y-89930804D01*
X134333126Y-89909719D01*
X134453220Y-89848528D01*
X134494641Y-89807106D01*
X134561436Y-89768543D01*
X134638564Y-89768543D01*
X134705359Y-89807107D01*
X134746780Y-89848528D01*
X134866874Y-89909719D01*
X135000000Y-89930804D01*
X135133126Y-89909719D01*
X135253220Y-89848528D01*
X135294641Y-89807106D01*
X135361436Y-89768543D01*
X135438564Y-89768543D01*
X135505359Y-89807107D01*
X135546780Y-89848528D01*
X135666874Y-89909719D01*
X135800000Y-89930804D01*
X135933126Y-89909719D01*
X136053220Y-89848528D01*
X136094641Y-89807106D01*
X136161436Y-89768543D01*
X136238564Y-89768543D01*
X136305359Y-89807107D01*
X136346780Y-89848528D01*
X136466874Y-89909719D01*
X136600000Y-89930804D01*
X136733126Y-89909719D01*
X136853220Y-89848528D01*
X136948528Y-89753220D01*
X137009719Y-89633126D01*
X137030804Y-89500000D01*
X138869196Y-89500000D01*
X138890281Y-89633126D01*
X138951472Y-89753220D01*
X139046780Y-89848528D01*
X139166874Y-89909719D01*
X139300000Y-89930804D01*
X139433126Y-89909719D01*
X139553220Y-89848528D01*
X139594640Y-89807106D01*
X139661436Y-89768543D01*
X139738564Y-89768543D01*
X139805359Y-89807107D01*
X139846780Y-89848528D01*
X139966874Y-89909719D01*
X140100000Y-89930804D01*
X140233126Y-89909719D01*
X140353220Y-89848528D01*
X140394640Y-89807106D01*
X140461436Y-89768543D01*
X140538564Y-89768543D01*
X140605359Y-89807107D01*
X140646780Y-89848528D01*
X140766874Y-89909719D01*
X140900000Y-89930804D01*
X141033126Y-89909719D01*
X141153220Y-89848528D01*
X141194640Y-89807106D01*
X141261436Y-89768543D01*
X141338564Y-89768543D01*
X141405359Y-89807107D01*
X141446780Y-89848528D01*
X141566874Y-89909719D01*
X141700000Y-89930804D01*
X141833126Y-89909719D01*
X141953220Y-89848528D01*
X142048528Y-89753220D01*
X142109719Y-89633126D01*
X142130804Y-89500000D01*
X159867669Y-89500000D01*
X159886950Y-89708064D01*
X159944132Y-89909043D01*
X160037274Y-90096095D01*
X160163197Y-90262846D01*
X160317619Y-90403619D01*
X160495278Y-90513621D01*
X160690120Y-90589103D01*
X160690123Y-90589104D01*
X160895522Y-90627500D01*
X161104478Y-90627500D01*
X161309877Y-90589104D01*
X161407299Y-90551362D01*
X161504721Y-90513621D01*
X161504723Y-90513620D01*
X161682381Y-90403619D01*
X161836802Y-90262846D01*
X161962726Y-90096095D01*
X162055866Y-89909045D01*
X162113050Y-89708065D01*
X162132330Y-89500000D01*
X162113050Y-89291935D01*
X162063561Y-89118000D01*
X162055867Y-89090956D01*
X161995967Y-88970662D01*
X161962726Y-88903905D01*
X161878126Y-88791876D01*
X161836802Y-88737153D01*
X161682380Y-88596380D01*
X161504721Y-88486378D01*
X161309879Y-88410896D01*
X161104478Y-88372500D01*
X160895522Y-88372500D01*
X160690120Y-88410896D01*
X160495278Y-88486378D01*
X160317619Y-88596380D01*
X160163197Y-88737153D01*
X160037274Y-88903904D01*
X159944132Y-89090956D01*
X159886950Y-89291935D01*
X159867669Y-89500000D01*
X142130804Y-89500000D01*
X142109719Y-89366874D01*
X142048528Y-89246780D01*
X141953220Y-89151472D01*
X141833126Y-89090281D01*
X141700000Y-89069196D01*
X141699999Y-89069196D01*
X141566874Y-89090281D01*
X141446779Y-89151472D01*
X141405359Y-89192893D01*
X141338564Y-89231457D01*
X141261436Y-89231457D01*
X141194641Y-89192893D01*
X141153220Y-89151472D01*
X141033126Y-89090281D01*
X140900000Y-89069196D01*
X140899999Y-89069196D01*
X140766874Y-89090281D01*
X140646779Y-89151472D01*
X140605359Y-89192893D01*
X140538564Y-89231457D01*
X140461436Y-89231457D01*
X140394641Y-89192893D01*
X140353220Y-89151472D01*
X140233126Y-89090281D01*
X140100000Y-89069196D01*
X140099999Y-89069196D01*
X139966874Y-89090281D01*
X139846779Y-89151472D01*
X139805359Y-89192893D01*
X139738564Y-89231457D01*
X139661436Y-89231457D01*
X139594641Y-89192893D01*
X139553220Y-89151472D01*
X139433126Y-89090281D01*
X139300000Y-89069196D01*
X139299999Y-89069196D01*
X139166874Y-89090281D01*
X139046779Y-89151472D01*
X138951472Y-89246779D01*
X138928464Y-89291935D01*
X138890281Y-89366874D01*
X138869196Y-89500000D01*
X137030804Y-89500000D01*
X137009719Y-89366874D01*
X136948528Y-89246780D01*
X136853220Y-89151472D01*
X136733126Y-89090281D01*
X136600000Y-89069196D01*
X136466874Y-89090281D01*
X136346779Y-89151472D01*
X136305359Y-89192893D01*
X136238564Y-89231457D01*
X136161436Y-89231457D01*
X136094641Y-89192893D01*
X136053220Y-89151472D01*
X136053220Y-89151471D01*
X135933126Y-89090281D01*
X135800000Y-89069196D01*
X135666874Y-89090281D01*
X135546779Y-89151472D01*
X135505359Y-89192893D01*
X135438564Y-89231457D01*
X135361436Y-89231457D01*
X135294641Y-89192893D01*
X135253220Y-89151472D01*
X135253220Y-89151471D01*
X135133126Y-89090281D01*
X135000000Y-89069196D01*
X134866874Y-89090281D01*
X134746779Y-89151472D01*
X134705359Y-89192893D01*
X134638564Y-89231457D01*
X134561436Y-89231457D01*
X134494641Y-89192893D01*
X134453220Y-89151472D01*
X134453220Y-89151471D01*
X134333126Y-89090281D01*
X134200000Y-89069196D01*
X134066874Y-89090281D01*
X133946779Y-89151472D01*
X133851472Y-89246779D01*
X133790281Y-89366874D01*
X133782368Y-89416838D01*
X133769196Y-89500000D01*
X112720116Y-89500000D01*
X112667340Y-89416838D01*
X112551767Y-89308307D01*
X112551766Y-89308306D01*
X112489211Y-89273917D01*
X112412834Y-89231928D01*
X112259272Y-89192500D01*
X111518192Y-89192500D01*
X111443692Y-89172538D01*
X111389154Y-89118000D01*
X111369192Y-89043500D01*
X111389154Y-88969000D01*
X111430612Y-88922957D01*
X111462124Y-88900062D01*
X111531587Y-88849594D01*
X111624606Y-88737153D01*
X111632323Y-88727825D01*
X111664973Y-88658441D01*
X111699614Y-88584826D01*
X111729227Y-88429588D01*
X111719304Y-88271862D01*
X111670467Y-88121559D01*
X111585786Y-87988123D01*
X111545190Y-87950000D01*
X113567589Y-87950000D01*
X113587129Y-88085909D01*
X113644171Y-88210812D01*
X113734085Y-88314578D01*
X113734088Y-88314580D01*
X113734089Y-88314581D01*
X113849600Y-88388816D01*
X113981346Y-88427500D01*
X113981348Y-88427500D01*
X114118652Y-88427500D01*
X114118654Y-88427500D01*
X114250400Y-88388816D01*
X114365911Y-88314581D01*
X114455829Y-88210811D01*
X114512869Y-88085911D01*
X114512868Y-88085911D01*
X114512870Y-88085909D01*
X114532410Y-87950000D01*
X114512870Y-87814090D01*
X114455828Y-87689187D01*
X114365914Y-87585421D01*
X114250400Y-87511184D01*
X114118654Y-87472500D01*
X113981346Y-87472500D01*
X113893515Y-87498289D01*
X113849599Y-87511184D01*
X113734085Y-87585421D01*
X113644171Y-87689187D01*
X113587129Y-87814090D01*
X113567589Y-87950000D01*
X111545190Y-87950000D01*
X111470582Y-87879938D01*
X111470581Y-87879937D01*
X111332092Y-87803802D01*
X111210291Y-87772529D01*
X111179019Y-87764500D01*
X111060650Y-87764500D01*
X111056005Y-87765086D01*
X111056001Y-87765087D01*
X110943210Y-87779335D01*
X110796265Y-87837515D01*
X110668412Y-87930406D01*
X110567676Y-88052174D01*
X110500385Y-88195174D01*
X110470772Y-88350412D01*
X110480696Y-88508139D01*
X110529532Y-88658440D01*
X110579486Y-88737154D01*
X110614214Y-88791877D01*
X110729418Y-88900062D01*
X110806587Y-88942486D01*
X110857840Y-88970662D01*
X110913508Y-89024045D01*
X110935026Y-89098111D01*
X110916629Y-89173013D01*
X110863246Y-89228681D01*
X110840909Y-89239769D01*
X110775297Y-89265746D01*
X110647033Y-89358936D01*
X110545973Y-89481097D01*
X110478468Y-89624550D01*
X110448760Y-89780286D01*
X108376242Y-89780286D01*
X108371284Y-89701484D01*
X108322291Y-89550700D01*
X108237340Y-89416838D01*
X108121767Y-89308307D01*
X108121766Y-89308306D01*
X108059212Y-89273917D01*
X107982834Y-89231928D01*
X107829272Y-89192500D01*
X107110524Y-89192500D01*
X107105877Y-89193086D01*
X107105877Y-89193087D01*
X106992707Y-89207383D01*
X106845297Y-89265746D01*
X106717033Y-89358936D01*
X106615973Y-89481097D01*
X106548468Y-89624550D01*
X106518760Y-89780286D01*
X105250500Y-89780286D01*
X105250500Y-86950000D01*
X116869196Y-86950000D01*
X116890281Y-87083126D01*
X116951472Y-87203220D01*
X117046780Y-87298528D01*
X117166874Y-87359719D01*
X117300000Y-87380804D01*
X117433126Y-87359719D01*
X117553220Y-87298528D01*
X117648528Y-87203220D01*
X117709719Y-87083126D01*
X117730804Y-86950000D01*
X117709719Y-86816874D01*
X117648528Y-86696780D01*
X117553220Y-86601472D01*
X117433126Y-86540281D01*
X117300000Y-86519196D01*
X117166874Y-86540281D01*
X117046779Y-86601472D01*
X116951472Y-86696779D01*
X116890281Y-86816873D01*
X116890281Y-86816874D01*
X116869196Y-86950000D01*
X105250500Y-86950000D01*
X105250500Y-86099999D01*
X163817589Y-86099999D01*
X163837129Y-86235909D01*
X163894171Y-86360812D01*
X163984085Y-86464578D01*
X163984088Y-86464580D01*
X163984089Y-86464581D01*
X164099600Y-86538816D01*
X164231346Y-86577500D01*
X164231348Y-86577500D01*
X164368652Y-86577500D01*
X164368654Y-86577500D01*
X164500400Y-86538816D01*
X164615911Y-86464581D01*
X164705829Y-86360811D01*
X164762869Y-86235911D01*
X164762868Y-86235911D01*
X164762870Y-86235909D01*
X164782410Y-86100000D01*
X164762870Y-85964090D01*
X164705828Y-85839187D01*
X164615914Y-85735421D01*
X164500400Y-85661184D01*
X164368654Y-85622500D01*
X164231346Y-85622500D01*
X164143515Y-85648289D01*
X164099599Y-85661184D01*
X163984085Y-85735421D01*
X163894171Y-85839187D01*
X163837129Y-85964090D01*
X163817589Y-86099999D01*
X105250500Y-86099999D01*
X105250500Y-85050000D01*
X116869196Y-85050000D01*
X116890281Y-85183126D01*
X116951472Y-85303220D01*
X117046780Y-85398528D01*
X117166874Y-85459719D01*
X117300000Y-85480804D01*
X117433126Y-85459719D01*
X117553220Y-85398528D01*
X117648528Y-85303220D01*
X117709719Y-85183126D01*
X117730804Y-85050000D01*
X117709719Y-84916874D01*
X117650169Y-84800000D01*
X153667669Y-84800000D01*
X153686950Y-85008064D01*
X153744132Y-85209043D01*
X153837274Y-85396095D01*
X153963197Y-85562846D01*
X154117619Y-85703619D01*
X154295278Y-85813621D01*
X154490120Y-85889103D01*
X154490123Y-85889104D01*
X154695522Y-85927500D01*
X154904478Y-85927500D01*
X155109877Y-85889104D01*
X155238727Y-85839187D01*
X155304721Y-85813621D01*
X155316125Y-85806560D01*
X155482381Y-85703619D01*
X155636802Y-85562846D01*
X155762726Y-85396095D01*
X155855866Y-85209045D01*
X155913050Y-85008065D01*
X155918430Y-84950000D01*
X182667429Y-84950000D01*
X182687673Y-85181398D01*
X182747793Y-85405766D01*
X182821040Y-85562846D01*
X182845960Y-85616286D01*
X182979191Y-85806560D01*
X183143440Y-85970809D01*
X183333714Y-86104040D01*
X183544234Y-86202207D01*
X183768601Y-86262326D01*
X184000000Y-86282571D01*
X184231399Y-86262326D01*
X184455766Y-86202207D01*
X184666286Y-86104040D01*
X184856560Y-85970809D01*
X185020809Y-85806560D01*
X185154040Y-85616286D01*
X185252207Y-85405766D01*
X185312326Y-85181399D01*
X185332571Y-84950000D01*
X185312326Y-84718601D01*
X185291340Y-84640281D01*
X185252207Y-84494233D01*
X185154039Y-84283713D01*
X185020810Y-84093441D01*
X184856560Y-83929191D01*
X184809701Y-83896380D01*
X184666286Y-83795960D01*
X184483865Y-83710896D01*
X184455766Y-83697793D01*
X184231398Y-83637673D01*
X184000000Y-83617429D01*
X183768601Y-83637673D01*
X183544233Y-83697792D01*
X183333713Y-83795960D01*
X183143441Y-83929189D01*
X182979189Y-84093441D01*
X182845960Y-84283713D01*
X182747792Y-84494233D01*
X182687673Y-84718601D01*
X182667429Y-84950000D01*
X155918430Y-84950000D01*
X155932330Y-84800000D01*
X155913050Y-84591935D01*
X155868657Y-84435909D01*
X155855867Y-84390956D01*
X155810576Y-84300000D01*
X163017589Y-84300000D01*
X163037129Y-84435909D01*
X163094171Y-84560812D01*
X163184085Y-84664578D01*
X163184088Y-84664580D01*
X163184089Y-84664581D01*
X163299600Y-84738816D01*
X163431346Y-84777500D01*
X163431348Y-84777500D01*
X163568652Y-84777500D01*
X163568654Y-84777500D01*
X163700400Y-84738816D01*
X163815911Y-84664581D01*
X163836968Y-84640281D01*
X163905828Y-84560812D01*
X163905827Y-84560812D01*
X163905829Y-84560811D01*
X163962869Y-84435911D01*
X163962868Y-84435911D01*
X163962870Y-84435909D01*
X163982410Y-84300000D01*
X163962870Y-84164090D01*
X163916501Y-84062558D01*
X173747500Y-84062558D01*
X173754898Y-84099748D01*
X173783078Y-84141922D01*
X173825252Y-84170102D01*
X173862442Y-84177500D01*
X173862445Y-84177500D01*
X175587555Y-84177500D01*
X175587558Y-84177500D01*
X175624748Y-84170102D01*
X175666922Y-84141922D01*
X175695102Y-84099748D01*
X175702500Y-84062558D01*
X175702500Y-83200000D01*
X176282770Y-83200000D01*
X176301643Y-83391625D01*
X176357538Y-83575884D01*
X176448303Y-83745694D01*
X176448305Y-83745697D01*
X176448306Y-83745698D01*
X176570459Y-83894541D01*
X176719302Y-84016694D01*
X176719303Y-84016694D01*
X176719305Y-84016696D01*
X176874685Y-84099748D01*
X176889117Y-84107462D01*
X177073376Y-84163357D01*
X177265000Y-84182230D01*
X177456624Y-84163357D01*
X177640883Y-84107462D01*
X177810698Y-84016694D01*
X177959541Y-83894541D01*
X178081694Y-83745698D01*
X178172462Y-83575883D01*
X178228357Y-83391624D01*
X178247230Y-83200000D01*
X178228357Y-83008376D01*
X178172462Y-82824117D01*
X178147545Y-82777500D01*
X178086107Y-82662558D01*
X182672500Y-82662558D01*
X182679898Y-82699748D01*
X182708078Y-82741922D01*
X182750252Y-82770102D01*
X182787442Y-82777500D01*
X182787445Y-82777500D01*
X185212555Y-82777500D01*
X185212558Y-82777500D01*
X185249748Y-82770102D01*
X185291922Y-82741922D01*
X185320102Y-82699748D01*
X185327500Y-82662558D01*
X185327500Y-80237442D01*
X185320102Y-80200252D01*
X185291922Y-80158078D01*
X185249748Y-80129898D01*
X185212558Y-80122500D01*
X182787442Y-80122500D01*
X182759549Y-80128048D01*
X182750251Y-80129898D01*
X182708078Y-80158078D01*
X182679898Y-80200251D01*
X182679897Y-80200252D01*
X182679898Y-80200252D01*
X182672500Y-80237442D01*
X182672500Y-82662558D01*
X178086107Y-82662558D01*
X178081696Y-82654305D01*
X178077824Y-82649587D01*
X177959541Y-82505459D01*
X177810698Y-82383306D01*
X177810697Y-82383305D01*
X177810694Y-82383303D01*
X177640884Y-82292538D01*
X177456625Y-82236643D01*
X177265000Y-82217770D01*
X177073374Y-82236643D01*
X176889115Y-82292538D01*
X176719305Y-82383303D01*
X176570459Y-82505459D01*
X176448303Y-82654305D01*
X176357538Y-82824115D01*
X176301643Y-83008374D01*
X176282770Y-83200000D01*
X175702500Y-83200000D01*
X175702500Y-82337442D01*
X175695102Y-82300252D01*
X175666922Y-82258078D01*
X175624748Y-82229898D01*
X175587558Y-82222500D01*
X173862442Y-82222500D01*
X173834549Y-82228048D01*
X173825251Y-82229898D01*
X173783078Y-82258078D01*
X173754898Y-82300251D01*
X173754897Y-82300252D01*
X173754898Y-82300252D01*
X173747500Y-82337442D01*
X173747500Y-84062558D01*
X163916501Y-84062558D01*
X163905828Y-84039187D01*
X163815914Y-83935421D01*
X163752302Y-83894540D01*
X163700400Y-83861184D01*
X163568654Y-83822500D01*
X163431346Y-83822500D01*
X163343515Y-83848289D01*
X163299599Y-83861184D01*
X163184085Y-83935421D01*
X163094171Y-84039187D01*
X163037129Y-84164090D01*
X163017589Y-84300000D01*
X155810576Y-84300000D01*
X155802466Y-84283713D01*
X155762726Y-84203905D01*
X155689896Y-84107462D01*
X155636802Y-84037153D01*
X155482380Y-83896380D01*
X155304721Y-83786378D01*
X155109879Y-83710896D01*
X154904478Y-83672500D01*
X154695522Y-83672500D01*
X154490120Y-83710896D01*
X154295278Y-83786378D01*
X154117619Y-83896380D01*
X153963197Y-84037153D01*
X153837274Y-84203904D01*
X153744132Y-84390956D01*
X153686950Y-84591935D01*
X153667669Y-84800000D01*
X117650169Y-84800000D01*
X117648528Y-84796780D01*
X117553220Y-84701472D01*
X117433126Y-84640281D01*
X117300000Y-84619196D01*
X117166874Y-84640281D01*
X117046779Y-84701472D01*
X116951472Y-84796779D01*
X116949831Y-84800000D01*
X116890281Y-84916874D01*
X116869196Y-85050000D01*
X105250500Y-85050000D01*
X105250500Y-81140286D01*
X106518760Y-81140286D01*
X106528716Y-81298517D01*
X106531919Y-81308376D01*
X106577709Y-81449300D01*
X106662660Y-81583162D01*
X106778233Y-81691693D01*
X106917166Y-81768072D01*
X107070728Y-81807500D01*
X107070729Y-81807500D01*
X107784793Y-81807500D01*
X107789476Y-81807500D01*
X107907293Y-81792616D01*
X108054703Y-81734253D01*
X108182967Y-81641063D01*
X108284026Y-81518903D01*
X108351531Y-81375449D01*
X108381239Y-81219714D01*
X108376242Y-81140286D01*
X110448760Y-81140286D01*
X110458716Y-81298517D01*
X110461919Y-81308376D01*
X110507709Y-81449300D01*
X110592660Y-81583162D01*
X110708233Y-81691693D01*
X110847166Y-81768072D01*
X110847167Y-81768072D01*
X110854448Y-81772075D01*
X110910116Y-81825459D01*
X110931634Y-81899524D01*
X110913237Y-81974426D01*
X110859853Y-82030094D01*
X110837519Y-82041181D01*
X110796267Y-82057514D01*
X110668412Y-82150406D01*
X110567676Y-82272174D01*
X110500385Y-82415174D01*
X110470772Y-82570412D01*
X110480696Y-82728139D01*
X110529532Y-82878440D01*
X110614213Y-83011876D01*
X110729418Y-83120062D01*
X110867907Y-83196197D01*
X110944444Y-83215848D01*
X111020981Y-83235500D01*
X111020982Y-83235500D01*
X111134665Y-83235500D01*
X111139350Y-83235500D01*
X111256792Y-83220664D01*
X111403732Y-83162486D01*
X111531587Y-83069594D01*
X111547797Y-83049999D01*
X113567589Y-83049999D01*
X113587129Y-83185909D01*
X113644171Y-83310812D01*
X113734085Y-83414578D01*
X113734088Y-83414580D01*
X113734089Y-83414581D01*
X113849600Y-83488816D01*
X113981346Y-83527500D01*
X113981348Y-83527500D01*
X114118652Y-83527500D01*
X114118654Y-83527500D01*
X114250400Y-83488816D01*
X114365911Y-83414581D01*
X114455829Y-83310811D01*
X114512869Y-83185911D01*
X114512868Y-83185911D01*
X114512870Y-83185909D01*
X114532410Y-83049999D01*
X114512870Y-82914090D01*
X114455828Y-82789187D01*
X114365914Y-82685421D01*
X114250400Y-82611184D01*
X114118654Y-82572500D01*
X113981346Y-82572500D01*
X113893515Y-82598289D01*
X113849599Y-82611184D01*
X113734085Y-82685421D01*
X113644171Y-82789187D01*
X113587129Y-82914090D01*
X113567589Y-83049999D01*
X111547797Y-83049999D01*
X111587826Y-83001611D01*
X111632323Y-82947825D01*
X111664973Y-82878441D01*
X111699614Y-82804826D01*
X111729227Y-82649588D01*
X111719304Y-82491862D01*
X111670467Y-82341559D01*
X111585786Y-82208123D01*
X111508801Y-82135828D01*
X111470581Y-82099937D01*
X111447175Y-82087070D01*
X111391507Y-82033687D01*
X111369989Y-81959621D01*
X111388386Y-81884719D01*
X111441769Y-81829051D01*
X111515835Y-81807533D01*
X111518956Y-81807500D01*
X112214793Y-81807500D01*
X112219476Y-81807500D01*
X112337293Y-81792616D01*
X112484703Y-81734253D01*
X112612967Y-81641063D01*
X112714026Y-81518903D01*
X112722921Y-81500000D01*
X119157770Y-81500000D01*
X119176643Y-81691625D01*
X119232538Y-81875884D01*
X119323303Y-82045694D01*
X119323305Y-82045697D01*
X119323306Y-82045698D01*
X119445459Y-82194541D01*
X119594302Y-82316694D01*
X119594303Y-82316694D01*
X119594305Y-82316696D01*
X119764115Y-82407461D01*
X119764117Y-82407462D01*
X119948376Y-82463357D01*
X120140000Y-82482230D01*
X120331624Y-82463357D01*
X120515883Y-82407462D01*
X120685698Y-82316694D01*
X120834541Y-82194541D01*
X120956694Y-82045698D01*
X121047462Y-81875883D01*
X121103357Y-81691624D01*
X121122230Y-81500000D01*
X121122230Y-81499999D01*
X121697770Y-81499999D01*
X121716643Y-81691625D01*
X121772538Y-81875884D01*
X121863303Y-82045694D01*
X121863305Y-82045697D01*
X121863306Y-82045698D01*
X121985459Y-82194541D01*
X122134302Y-82316694D01*
X122134303Y-82316694D01*
X122134305Y-82316696D01*
X122304115Y-82407461D01*
X122304117Y-82407462D01*
X122488376Y-82463357D01*
X122680000Y-82482230D01*
X122871624Y-82463357D01*
X123055883Y-82407462D01*
X123225698Y-82316694D01*
X123374541Y-82194541D01*
X123496694Y-82045698D01*
X123587462Y-81875883D01*
X123643357Y-81691624D01*
X123662230Y-81500000D01*
X123662230Y-81499999D01*
X124237770Y-81499999D01*
X124256643Y-81691625D01*
X124312538Y-81875884D01*
X124403303Y-82045694D01*
X124403305Y-82045697D01*
X124403306Y-82045698D01*
X124525459Y-82194541D01*
X124674302Y-82316694D01*
X124674303Y-82316694D01*
X124674305Y-82316696D01*
X124844115Y-82407461D01*
X124844117Y-82407462D01*
X125028376Y-82463357D01*
X125220000Y-82482230D01*
X125411624Y-82463357D01*
X125595883Y-82407462D01*
X125765698Y-82316694D01*
X125914541Y-82194541D01*
X126036694Y-82045698D01*
X126127462Y-81875883D01*
X126183357Y-81691624D01*
X126202230Y-81500000D01*
X126202230Y-81499999D01*
X126777770Y-81499999D01*
X126796643Y-81691625D01*
X126852538Y-81875884D01*
X126943303Y-82045694D01*
X126943305Y-82045697D01*
X126943306Y-82045698D01*
X127065459Y-82194541D01*
X127214302Y-82316694D01*
X127214303Y-82316694D01*
X127214305Y-82316696D01*
X127384115Y-82407461D01*
X127384117Y-82407462D01*
X127568376Y-82463357D01*
X127760000Y-82482230D01*
X127951624Y-82463357D01*
X128135883Y-82407462D01*
X128305698Y-82316694D01*
X128454541Y-82194541D01*
X128576694Y-82045698D01*
X128667462Y-81875883D01*
X128723357Y-81691624D01*
X128742230Y-81500000D01*
X128742230Y-81499999D01*
X129317770Y-81499999D01*
X129336643Y-81691625D01*
X129392538Y-81875884D01*
X129483303Y-82045694D01*
X129483305Y-82045697D01*
X129483306Y-82045698D01*
X129605459Y-82194541D01*
X129754302Y-82316694D01*
X129754303Y-82316694D01*
X129754305Y-82316696D01*
X129924115Y-82407461D01*
X129924117Y-82407462D01*
X130108376Y-82463357D01*
X130300000Y-82482230D01*
X130491624Y-82463357D01*
X130675883Y-82407462D01*
X130845698Y-82316694D01*
X130994541Y-82194541D01*
X131116694Y-82045698D01*
X131207462Y-81875883D01*
X131263357Y-81691624D01*
X131282230Y-81500000D01*
X131282230Y-81499999D01*
X131857770Y-81499999D01*
X131876643Y-81691625D01*
X131932538Y-81875884D01*
X132023303Y-82045694D01*
X132023305Y-82045697D01*
X132023306Y-82045698D01*
X132145459Y-82194541D01*
X132294302Y-82316694D01*
X132294303Y-82316694D01*
X132294305Y-82316696D01*
X132464115Y-82407461D01*
X132464117Y-82407462D01*
X132648376Y-82463357D01*
X132840000Y-82482230D01*
X133031624Y-82463357D01*
X133215883Y-82407462D01*
X133385698Y-82316694D01*
X133534541Y-82194541D01*
X133656694Y-82045698D01*
X133747462Y-81875883D01*
X133803357Y-81691624D01*
X133822230Y-81500000D01*
X133822230Y-81499999D01*
X134397770Y-81499999D01*
X134416643Y-81691625D01*
X134472538Y-81875884D01*
X134563303Y-82045694D01*
X134563305Y-82045697D01*
X134563306Y-82045698D01*
X134685459Y-82194541D01*
X134834302Y-82316694D01*
X134834303Y-82316694D01*
X134834305Y-82316696D01*
X135004115Y-82407461D01*
X135004117Y-82407462D01*
X135188376Y-82463357D01*
X135380000Y-82482230D01*
X135571624Y-82463357D01*
X135755883Y-82407462D01*
X135925698Y-82316694D01*
X136074541Y-82194541D01*
X136196694Y-82045698D01*
X136287462Y-81875883D01*
X136343357Y-81691624D01*
X136362230Y-81500000D01*
X136362230Y-81499999D01*
X136937770Y-81499999D01*
X136956643Y-81691625D01*
X137012538Y-81875884D01*
X137103303Y-82045694D01*
X137103305Y-82045697D01*
X137103306Y-82045698D01*
X137225459Y-82194541D01*
X137374302Y-82316694D01*
X137374303Y-82316694D01*
X137374305Y-82316696D01*
X137544115Y-82407461D01*
X137544117Y-82407462D01*
X137728376Y-82463357D01*
X137920000Y-82482230D01*
X138111624Y-82463357D01*
X138295883Y-82407462D01*
X138465698Y-82316694D01*
X138614541Y-82194541D01*
X138736694Y-82045698D01*
X138827462Y-81875883D01*
X138883357Y-81691624D01*
X138902230Y-81500000D01*
X138902230Y-81499999D01*
X139477770Y-81499999D01*
X139496643Y-81691625D01*
X139552538Y-81875884D01*
X139643303Y-82045694D01*
X139643305Y-82045697D01*
X139643306Y-82045698D01*
X139765459Y-82194541D01*
X139914302Y-82316694D01*
X139914303Y-82316694D01*
X139914305Y-82316696D01*
X140084115Y-82407461D01*
X140084117Y-82407462D01*
X140268376Y-82463357D01*
X140460000Y-82482230D01*
X140651624Y-82463357D01*
X140835883Y-82407462D01*
X141005698Y-82316694D01*
X141154541Y-82194541D01*
X141202730Y-82135823D01*
X142022500Y-82135823D01*
X142033191Y-82209205D01*
X142088523Y-82322389D01*
X142088524Y-82322390D01*
X142177610Y-82411476D01*
X142290796Y-82466809D01*
X142364173Y-82477500D01*
X143635826Y-82477499D01*
X143709204Y-82466809D01*
X143822390Y-82411476D01*
X143911476Y-82322390D01*
X143966809Y-82209204D01*
X143977500Y-82135827D01*
X143977499Y-81299999D01*
X153667669Y-81299999D01*
X153685163Y-81488784D01*
X153686950Y-81508065D01*
X153690034Y-81518903D01*
X153744132Y-81709043D01*
X153837274Y-81896095D01*
X153963197Y-82062846D01*
X154117619Y-82203619D01*
X154295278Y-82313621D01*
X154490120Y-82389103D01*
X154490123Y-82389104D01*
X154695522Y-82427500D01*
X154904478Y-82427500D01*
X155109877Y-82389104D01*
X155207299Y-82351362D01*
X155304721Y-82313621D01*
X155326313Y-82300252D01*
X155482381Y-82203619D01*
X155636802Y-82062846D01*
X155762726Y-81896095D01*
X155855866Y-81709045D01*
X155860823Y-81691625D01*
X155870231Y-81658554D01*
X155913050Y-81508065D01*
X155932330Y-81300000D01*
X155932192Y-81298516D01*
X155917530Y-81140286D01*
X155913050Y-81091935D01*
X155873890Y-80954302D01*
X155855867Y-80890956D01*
X155770211Y-80718937D01*
X155762726Y-80703905D01*
X155703704Y-80625747D01*
X155636802Y-80537153D01*
X155482380Y-80396380D01*
X155304721Y-80286378D01*
X155109879Y-80210896D01*
X154904478Y-80172500D01*
X154695522Y-80172500D01*
X154490120Y-80210896D01*
X154295278Y-80286378D01*
X154117619Y-80396380D01*
X153963197Y-80537153D01*
X153837274Y-80703904D01*
X153744132Y-80890956D01*
X153686950Y-81091935D01*
X153667669Y-81299999D01*
X143977499Y-81299999D01*
X143977499Y-80864174D01*
X143966809Y-80790796D01*
X143911476Y-80677610D01*
X143822390Y-80588524D01*
X143709204Y-80533191D01*
X143709202Y-80533190D01*
X143709201Y-80533190D01*
X143635828Y-80522500D01*
X142364176Y-80522500D01*
X142290794Y-80533191D01*
X142177610Y-80588523D01*
X142088525Y-80677608D01*
X142033190Y-80790798D01*
X142022500Y-80864171D01*
X142022500Y-82135823D01*
X141202730Y-82135823D01*
X141276694Y-82045698D01*
X141367462Y-81875883D01*
X141423357Y-81691624D01*
X141442230Y-81500000D01*
X141423357Y-81308376D01*
X141367462Y-81124117D01*
X141333983Y-81061482D01*
X141276696Y-80954305D01*
X141240911Y-80910701D01*
X141154541Y-80805459D01*
X141005698Y-80683306D01*
X141005697Y-80683305D01*
X141005694Y-80683303D01*
X140835884Y-80592538D01*
X140651625Y-80536643D01*
X140460000Y-80517770D01*
X140268374Y-80536643D01*
X140084115Y-80592538D01*
X139914305Y-80683303D01*
X139765459Y-80805459D01*
X139643303Y-80954305D01*
X139552538Y-81124115D01*
X139496643Y-81308374D01*
X139477770Y-81499999D01*
X138902230Y-81499999D01*
X138883357Y-81308376D01*
X138827462Y-81124117D01*
X138793983Y-81061482D01*
X138736696Y-80954305D01*
X138700911Y-80910701D01*
X138614541Y-80805459D01*
X138465698Y-80683306D01*
X138465697Y-80683305D01*
X138465694Y-80683303D01*
X138295884Y-80592538D01*
X138111625Y-80536643D01*
X137920000Y-80517770D01*
X137728374Y-80536643D01*
X137544115Y-80592538D01*
X137374305Y-80683303D01*
X137225459Y-80805459D01*
X137103303Y-80954305D01*
X137012538Y-81124115D01*
X136956643Y-81308374D01*
X136937770Y-81499999D01*
X136362230Y-81499999D01*
X136343357Y-81308376D01*
X136287462Y-81124117D01*
X136253983Y-81061482D01*
X136196696Y-80954305D01*
X136160911Y-80910701D01*
X136074541Y-80805459D01*
X135925698Y-80683306D01*
X135925697Y-80683305D01*
X135925694Y-80683303D01*
X135755884Y-80592538D01*
X135571625Y-80536643D01*
X135380000Y-80517770D01*
X135188374Y-80536643D01*
X135004115Y-80592538D01*
X134834305Y-80683303D01*
X134685459Y-80805459D01*
X134563303Y-80954305D01*
X134472538Y-81124115D01*
X134416643Y-81308374D01*
X134397770Y-81499999D01*
X133822230Y-81499999D01*
X133803357Y-81308376D01*
X133747462Y-81124117D01*
X133713983Y-81061482D01*
X133656696Y-80954305D01*
X133620911Y-80910701D01*
X133534541Y-80805459D01*
X133385698Y-80683306D01*
X133385697Y-80683305D01*
X133385694Y-80683303D01*
X133215884Y-80592538D01*
X133031625Y-80536643D01*
X132840000Y-80517770D01*
X132648374Y-80536643D01*
X132464115Y-80592538D01*
X132294305Y-80683303D01*
X132145459Y-80805459D01*
X132023303Y-80954305D01*
X131932538Y-81124115D01*
X131876643Y-81308374D01*
X131857770Y-81499999D01*
X131282230Y-81499999D01*
X131263357Y-81308376D01*
X131207462Y-81124117D01*
X131173983Y-81061482D01*
X131116696Y-80954305D01*
X131080911Y-80910701D01*
X130994541Y-80805459D01*
X130845698Y-80683306D01*
X130845697Y-80683305D01*
X130845694Y-80683303D01*
X130675884Y-80592538D01*
X130491625Y-80536643D01*
X130348025Y-80522500D01*
X130300000Y-80517770D01*
X130299999Y-80517770D01*
X130108374Y-80536643D01*
X129924115Y-80592538D01*
X129754305Y-80683303D01*
X129605459Y-80805459D01*
X129483303Y-80954305D01*
X129392538Y-81124115D01*
X129336643Y-81308374D01*
X129317770Y-81499999D01*
X128742230Y-81499999D01*
X128723357Y-81308376D01*
X128667462Y-81124117D01*
X128633983Y-81061482D01*
X128576696Y-80954305D01*
X128540911Y-80910701D01*
X128454541Y-80805459D01*
X128305698Y-80683306D01*
X128305697Y-80683305D01*
X128305694Y-80683303D01*
X128135884Y-80592538D01*
X127951625Y-80536643D01*
X127760000Y-80517770D01*
X127568374Y-80536643D01*
X127384115Y-80592538D01*
X127214305Y-80683303D01*
X127065459Y-80805459D01*
X126943303Y-80954305D01*
X126852538Y-81124115D01*
X126796643Y-81308374D01*
X126777770Y-81499999D01*
X126202230Y-81499999D01*
X126183357Y-81308376D01*
X126127462Y-81124117D01*
X126093983Y-81061482D01*
X126036696Y-80954305D01*
X126000911Y-80910701D01*
X125914541Y-80805459D01*
X125765698Y-80683306D01*
X125765697Y-80683305D01*
X125765694Y-80683303D01*
X125595884Y-80592538D01*
X125411625Y-80536643D01*
X125220000Y-80517770D01*
X125028374Y-80536643D01*
X124844115Y-80592538D01*
X124674305Y-80683303D01*
X124525459Y-80805459D01*
X124403303Y-80954305D01*
X124312538Y-81124115D01*
X124256643Y-81308374D01*
X124237770Y-81499999D01*
X123662230Y-81499999D01*
X123643357Y-81308376D01*
X123587462Y-81124117D01*
X123553983Y-81061482D01*
X123496696Y-80954305D01*
X123460911Y-80910701D01*
X123374541Y-80805459D01*
X123225698Y-80683306D01*
X123225697Y-80683305D01*
X123225694Y-80683303D01*
X123055884Y-80592538D01*
X122871625Y-80536643D01*
X122728025Y-80522500D01*
X122680000Y-80517770D01*
X122679999Y-80517770D01*
X122488374Y-80536643D01*
X122304115Y-80592538D01*
X122134305Y-80683303D01*
X121985459Y-80805459D01*
X121863303Y-80954305D01*
X121772538Y-81124115D01*
X121716643Y-81308374D01*
X121697770Y-81499999D01*
X121122230Y-81499999D01*
X121103357Y-81308376D01*
X121047462Y-81124117D01*
X121013983Y-81061482D01*
X120956696Y-80954305D01*
X120920911Y-80910701D01*
X120834541Y-80805459D01*
X120685698Y-80683306D01*
X120685697Y-80683305D01*
X120685694Y-80683303D01*
X120515884Y-80592538D01*
X120331625Y-80536643D01*
X120188025Y-80522500D01*
X120140000Y-80517770D01*
X120139999Y-80517770D01*
X119948374Y-80536643D01*
X119764115Y-80592538D01*
X119594305Y-80683303D01*
X119445459Y-80805459D01*
X119323303Y-80954305D01*
X119232538Y-81124115D01*
X119176643Y-81308374D01*
X119157770Y-81500000D01*
X112722921Y-81500000D01*
X112781531Y-81375449D01*
X112811239Y-81219714D01*
X112801284Y-81061484D01*
X112752291Y-80910700D01*
X112667340Y-80776838D01*
X112561672Y-80677608D01*
X112551766Y-80668306D01*
X112489211Y-80633917D01*
X112412834Y-80591928D01*
X112259272Y-80552500D01*
X111040524Y-80552500D01*
X111035877Y-80553086D01*
X111035877Y-80553087D01*
X110922707Y-80567383D01*
X110775297Y-80625746D01*
X110647033Y-80718936D01*
X110545973Y-80841097D01*
X110478468Y-80984550D01*
X110448760Y-81140286D01*
X108376242Y-81140286D01*
X108371284Y-81061484D01*
X108322291Y-80910700D01*
X108237340Y-80776838D01*
X108131672Y-80677608D01*
X108121766Y-80668306D01*
X108059212Y-80633917D01*
X107982834Y-80591928D01*
X107829272Y-80552500D01*
X107110524Y-80552500D01*
X107105877Y-80553086D01*
X107105877Y-80553087D01*
X106992707Y-80567383D01*
X106845297Y-80625746D01*
X106717033Y-80718936D01*
X106615973Y-80841097D01*
X106548468Y-80984550D01*
X106518760Y-81140286D01*
X105250500Y-81140286D01*
X105250500Y-79600000D01*
X110317589Y-79600000D01*
X110337129Y-79735909D01*
X110394171Y-79860812D01*
X110484085Y-79964578D01*
X110484088Y-79964580D01*
X110484089Y-79964581D01*
X110599600Y-80038816D01*
X110731346Y-80077500D01*
X110731348Y-80077500D01*
X110868652Y-80077500D01*
X110868654Y-80077500D01*
X111000400Y-80038816D01*
X111115911Y-79964581D01*
X111135279Y-79942230D01*
X111205828Y-79860812D01*
X111205827Y-79860812D01*
X111205829Y-79860811D01*
X111262869Y-79735911D01*
X111262868Y-79735911D01*
X111262870Y-79735909D01*
X111282410Y-79600000D01*
X111262870Y-79464090D01*
X111205828Y-79339187D01*
X111115914Y-79235421D01*
X111000400Y-79161184D01*
X110868654Y-79122500D01*
X110731346Y-79122500D01*
X110643515Y-79148289D01*
X110599599Y-79161184D01*
X110484085Y-79235421D01*
X110394171Y-79339187D01*
X110337129Y-79464090D01*
X110317589Y-79600000D01*
X105250500Y-79600000D01*
X105250500Y-78959999D01*
X119157770Y-78959999D01*
X119176643Y-79151625D01*
X119232538Y-79335884D01*
X119323303Y-79505694D01*
X119323305Y-79505697D01*
X119323306Y-79505698D01*
X119445459Y-79654541D01*
X119594302Y-79776694D01*
X119594303Y-79776694D01*
X119594305Y-79776696D01*
X119751674Y-79860811D01*
X119764117Y-79867462D01*
X119948376Y-79923357D01*
X120140000Y-79942230D01*
X120331624Y-79923357D01*
X120515883Y-79867462D01*
X120685698Y-79776694D01*
X120834541Y-79654541D01*
X120956694Y-79505698D01*
X121047462Y-79335883D01*
X121103357Y-79151624D01*
X121122230Y-78960000D01*
X121697770Y-78960000D01*
X121716643Y-79151625D01*
X121772538Y-79335884D01*
X121863303Y-79505694D01*
X121863305Y-79505697D01*
X121863306Y-79505698D01*
X121985459Y-79654541D01*
X122134302Y-79776694D01*
X122134303Y-79776694D01*
X122134305Y-79776696D01*
X122291674Y-79860811D01*
X122304117Y-79867462D01*
X122488376Y-79923357D01*
X122680000Y-79942230D01*
X122871624Y-79923357D01*
X123055883Y-79867462D01*
X123225698Y-79776694D01*
X123374541Y-79654541D01*
X123496694Y-79505698D01*
X123587462Y-79335883D01*
X123643357Y-79151624D01*
X123662230Y-78960000D01*
X123662230Y-78959999D01*
X124237770Y-78959999D01*
X124256643Y-79151625D01*
X124312538Y-79335884D01*
X124403303Y-79505694D01*
X124403305Y-79505697D01*
X124403306Y-79505698D01*
X124525459Y-79654541D01*
X124674302Y-79776694D01*
X124674303Y-79776694D01*
X124674305Y-79776696D01*
X124831674Y-79860811D01*
X124844117Y-79867462D01*
X125028376Y-79923357D01*
X125220000Y-79942230D01*
X125411624Y-79923357D01*
X125595883Y-79867462D01*
X125765698Y-79776694D01*
X125914541Y-79654541D01*
X126036694Y-79505698D01*
X126127462Y-79335883D01*
X126183357Y-79151624D01*
X126202230Y-78960000D01*
X126777770Y-78960000D01*
X126796643Y-79151625D01*
X126852538Y-79335884D01*
X126943303Y-79505694D01*
X126943305Y-79505697D01*
X126943306Y-79505698D01*
X127065459Y-79654541D01*
X127214302Y-79776694D01*
X127214303Y-79776694D01*
X127214305Y-79776696D01*
X127371674Y-79860811D01*
X127384117Y-79867462D01*
X127568376Y-79923357D01*
X127760000Y-79942230D01*
X127951624Y-79923357D01*
X128135883Y-79867462D01*
X128305698Y-79776694D01*
X128454541Y-79654541D01*
X128576694Y-79505698D01*
X128667462Y-79335883D01*
X128723357Y-79151624D01*
X128742230Y-78960000D01*
X128742230Y-78959999D01*
X129317770Y-78959999D01*
X129336643Y-79151625D01*
X129392538Y-79335884D01*
X129483303Y-79505694D01*
X129483305Y-79505697D01*
X129483306Y-79505698D01*
X129605459Y-79654541D01*
X129754302Y-79776694D01*
X129754303Y-79776694D01*
X129754305Y-79776696D01*
X129911674Y-79860811D01*
X129924117Y-79867462D01*
X130108376Y-79923357D01*
X130300000Y-79942230D01*
X130491624Y-79923357D01*
X130675883Y-79867462D01*
X130845698Y-79776694D01*
X130994541Y-79654541D01*
X131116694Y-79505698D01*
X131207462Y-79335883D01*
X131263357Y-79151624D01*
X131282230Y-78960000D01*
X131857770Y-78960000D01*
X131876643Y-79151625D01*
X131932538Y-79335884D01*
X132023303Y-79505694D01*
X132023305Y-79505697D01*
X132023306Y-79505698D01*
X132145459Y-79654541D01*
X132294302Y-79776694D01*
X132294303Y-79776694D01*
X132294305Y-79776696D01*
X132451674Y-79860811D01*
X132464117Y-79867462D01*
X132648376Y-79923357D01*
X132840000Y-79942230D01*
X133031624Y-79923357D01*
X133215883Y-79867462D01*
X133385698Y-79776694D01*
X133534541Y-79654541D01*
X133656694Y-79505698D01*
X133747462Y-79335883D01*
X133803357Y-79151624D01*
X133822230Y-78960000D01*
X133822230Y-78959999D01*
X134397770Y-78959999D01*
X134416643Y-79151625D01*
X134472538Y-79335884D01*
X134563303Y-79505694D01*
X134563305Y-79505697D01*
X134563306Y-79505698D01*
X134685459Y-79654541D01*
X134834302Y-79776694D01*
X134834303Y-79776694D01*
X134834305Y-79776696D01*
X134991674Y-79860811D01*
X135004117Y-79867462D01*
X135188376Y-79923357D01*
X135380000Y-79942230D01*
X135571624Y-79923357D01*
X135755883Y-79867462D01*
X135925698Y-79776694D01*
X136074541Y-79654541D01*
X136196694Y-79505698D01*
X136287462Y-79335883D01*
X136343357Y-79151624D01*
X136362230Y-78960000D01*
X136937770Y-78960000D01*
X136956643Y-79151625D01*
X137012538Y-79335884D01*
X137103303Y-79505694D01*
X137103305Y-79505697D01*
X137103306Y-79505698D01*
X137225459Y-79654541D01*
X137374302Y-79776694D01*
X137374303Y-79776694D01*
X137374305Y-79776696D01*
X137531674Y-79860811D01*
X137544117Y-79867462D01*
X137728376Y-79923357D01*
X137920000Y-79942230D01*
X138111624Y-79923357D01*
X138295883Y-79867462D01*
X138465698Y-79776694D01*
X138614541Y-79654541D01*
X138736694Y-79505698D01*
X138827462Y-79335883D01*
X138883357Y-79151624D01*
X138902230Y-78960000D01*
X139477770Y-78960000D01*
X139496643Y-79151625D01*
X139552538Y-79335884D01*
X139643303Y-79505694D01*
X139643305Y-79505697D01*
X139643306Y-79505698D01*
X139765459Y-79654541D01*
X139914302Y-79776694D01*
X139914303Y-79776694D01*
X139914305Y-79776696D01*
X140071674Y-79860811D01*
X140084117Y-79867462D01*
X140268376Y-79923357D01*
X140460000Y-79942230D01*
X140651624Y-79923357D01*
X140835883Y-79867462D01*
X141005698Y-79776694D01*
X141154541Y-79654541D01*
X141276694Y-79505698D01*
X141367462Y-79335883D01*
X141423357Y-79151624D01*
X141442230Y-78960000D01*
X141442230Y-78959999D01*
X142017770Y-78959999D01*
X142036643Y-79151625D01*
X142092538Y-79335884D01*
X142183303Y-79505694D01*
X142183305Y-79505697D01*
X142183306Y-79505698D01*
X142305459Y-79654541D01*
X142454302Y-79776694D01*
X142454303Y-79776694D01*
X142454305Y-79776696D01*
X142611674Y-79860811D01*
X142624117Y-79867462D01*
X142808376Y-79923357D01*
X143000000Y-79942230D01*
X143191624Y-79923357D01*
X143375883Y-79867462D01*
X143545698Y-79776694D01*
X143694541Y-79654541D01*
X143816694Y-79505698D01*
X143907462Y-79335883D01*
X143963357Y-79151624D01*
X143982230Y-78960000D01*
X143963357Y-78768376D01*
X143907462Y-78584117D01*
X143816694Y-78414302D01*
X143694541Y-78265459D01*
X143545698Y-78143306D01*
X143545697Y-78143305D01*
X143545694Y-78143303D01*
X143375884Y-78052538D01*
X143191625Y-77996643D01*
X143000000Y-77977770D01*
X142808374Y-77996643D01*
X142624115Y-78052538D01*
X142454305Y-78143303D01*
X142305459Y-78265459D01*
X142183303Y-78414305D01*
X142092538Y-78584115D01*
X142036643Y-78768374D01*
X142017770Y-78959999D01*
X141442230Y-78959999D01*
X141423357Y-78768376D01*
X141367462Y-78584117D01*
X141276694Y-78414302D01*
X141154541Y-78265459D01*
X141005698Y-78143306D01*
X141005697Y-78143305D01*
X141005694Y-78143303D01*
X140835884Y-78052538D01*
X140651625Y-77996643D01*
X140460000Y-77977770D01*
X140268374Y-77996643D01*
X140084115Y-78052538D01*
X139914305Y-78143303D01*
X139765459Y-78265459D01*
X139643303Y-78414305D01*
X139552538Y-78584115D01*
X139496643Y-78768374D01*
X139477770Y-78960000D01*
X138902230Y-78960000D01*
X138883357Y-78768376D01*
X138827462Y-78584117D01*
X138736694Y-78414302D01*
X138614541Y-78265459D01*
X138465698Y-78143306D01*
X138465697Y-78143305D01*
X138465694Y-78143303D01*
X138295884Y-78052538D01*
X138111625Y-77996643D01*
X137920000Y-77977770D01*
X137728374Y-77996643D01*
X137544115Y-78052538D01*
X137374305Y-78143303D01*
X137225459Y-78265459D01*
X137103303Y-78414305D01*
X137012538Y-78584115D01*
X136956643Y-78768374D01*
X136937770Y-78960000D01*
X136362230Y-78960000D01*
X136343357Y-78768376D01*
X136287462Y-78584117D01*
X136196694Y-78414302D01*
X136074541Y-78265459D01*
X135925698Y-78143306D01*
X135925697Y-78143305D01*
X135925694Y-78143303D01*
X135755884Y-78052538D01*
X135571625Y-77996643D01*
X135380000Y-77977770D01*
X135188374Y-77996643D01*
X135004115Y-78052538D01*
X134834305Y-78143303D01*
X134685459Y-78265459D01*
X134563303Y-78414305D01*
X134472538Y-78584115D01*
X134416643Y-78768374D01*
X134397770Y-78959999D01*
X133822230Y-78959999D01*
X133803357Y-78768376D01*
X133747462Y-78584117D01*
X133656694Y-78414302D01*
X133534541Y-78265459D01*
X133385698Y-78143306D01*
X133385697Y-78143305D01*
X133385694Y-78143303D01*
X133215884Y-78052538D01*
X133031625Y-77996643D01*
X132935812Y-77987206D01*
X132840000Y-77977770D01*
X132839999Y-77977770D01*
X132648374Y-77996643D01*
X132464115Y-78052538D01*
X132294305Y-78143303D01*
X132145459Y-78265459D01*
X132023303Y-78414305D01*
X131932538Y-78584115D01*
X131876643Y-78768374D01*
X131857770Y-78960000D01*
X131282230Y-78960000D01*
X131263357Y-78768376D01*
X131207462Y-78584117D01*
X131116694Y-78414302D01*
X130994541Y-78265459D01*
X130845698Y-78143306D01*
X130845697Y-78143305D01*
X130845694Y-78143303D01*
X130675884Y-78052538D01*
X130491625Y-77996643D01*
X130395811Y-77987206D01*
X130300000Y-77977770D01*
X130299999Y-77977770D01*
X130108374Y-77996643D01*
X129924115Y-78052538D01*
X129754305Y-78143303D01*
X129605459Y-78265459D01*
X129483303Y-78414305D01*
X129392538Y-78584115D01*
X129336643Y-78768374D01*
X129317770Y-78959999D01*
X128742230Y-78959999D01*
X128723357Y-78768376D01*
X128667462Y-78584117D01*
X128576694Y-78414302D01*
X128454541Y-78265459D01*
X128305698Y-78143306D01*
X128305697Y-78143305D01*
X128305694Y-78143303D01*
X128135884Y-78052538D01*
X127951625Y-77996643D01*
X127760000Y-77977770D01*
X127568374Y-77996643D01*
X127384115Y-78052538D01*
X127214305Y-78143303D01*
X127065459Y-78265459D01*
X126943303Y-78414305D01*
X126852538Y-78584115D01*
X126796643Y-78768374D01*
X126777770Y-78960000D01*
X126202230Y-78960000D01*
X126183357Y-78768376D01*
X126127462Y-78584117D01*
X126036694Y-78414302D01*
X125914541Y-78265459D01*
X125765698Y-78143306D01*
X125765697Y-78143305D01*
X125765694Y-78143303D01*
X125595884Y-78052538D01*
X125411625Y-77996643D01*
X125220000Y-77977770D01*
X125028374Y-77996643D01*
X124844115Y-78052538D01*
X124674305Y-78143303D01*
X124525459Y-78265459D01*
X124403303Y-78414305D01*
X124312538Y-78584115D01*
X124256643Y-78768374D01*
X124237770Y-78959999D01*
X123662230Y-78959999D01*
X123643357Y-78768376D01*
X123587462Y-78584117D01*
X123496694Y-78414302D01*
X123374541Y-78265459D01*
X123225698Y-78143306D01*
X123225697Y-78143305D01*
X123225694Y-78143303D01*
X123055884Y-78052538D01*
X122871625Y-77996643D01*
X122680000Y-77977770D01*
X122488374Y-77996643D01*
X122304115Y-78052538D01*
X122134305Y-78143303D01*
X121985459Y-78265459D01*
X121863303Y-78414305D01*
X121772538Y-78584115D01*
X121716643Y-78768374D01*
X121697770Y-78960000D01*
X121122230Y-78960000D01*
X121103357Y-78768376D01*
X121047462Y-78584117D01*
X120956694Y-78414302D01*
X120834541Y-78265459D01*
X120685698Y-78143306D01*
X120685697Y-78143305D01*
X120685694Y-78143303D01*
X120515884Y-78052538D01*
X120331625Y-77996643D01*
X120235811Y-77987206D01*
X120140000Y-77977770D01*
X120139999Y-77977770D01*
X119948374Y-77996643D01*
X119764115Y-78052538D01*
X119594305Y-78143303D01*
X119445459Y-78265459D01*
X119323303Y-78414305D01*
X119232538Y-78584115D01*
X119176643Y-78768374D01*
X119157770Y-78959999D01*
X105250500Y-78959999D01*
X105250500Y-75399500D01*
X105270462Y-75325000D01*
X105325000Y-75270462D01*
X105399500Y-75250500D01*
X188600500Y-75250500D01*
X188675000Y-75270462D01*
G37*
%TD.AperFunction*%
M02*
