%TF.GenerationSoftware,KiCad,Pcbnew,6.0.9-1.fc35*%
%TF.CreationDate,2023-01-19T10:10:15+00:00*%
%TF.ProjectId,grblPANEL,6772626c-5041-44e4-954c-2e6b69636164,rev?*%
%TF.SameCoordinates,Original*%
%TF.FileFunction,Drillmap*%
%TF.FilePolarity,Positive*%
%FSLAX45Y45*%
G04 Gerber Fmt 4.5, Leading zero omitted, Abs format (unit mm)*
G04 Created by KiCad (PCBNEW 6.0.9-1.fc35) date 2023-01-19 10:10:15*
%MOMM*%
%LPD*%
G01*
G04 APERTURE LIST*
%ADD10C,0.200000*%
%ADD11C,0.025000*%
%ADD12C,0.030000*%
%ADD13C,0.060000*%
%ADD14C,0.100000*%
%ADD15C,0.120000*%
G04 APERTURE END LIST*
D10*
X10500000Y-13000000D02*
X18900000Y-13000000D01*
X18900000Y-13000000D02*
X18900000Y-7500000D01*
X18900000Y-7500000D02*
X10500000Y-7500000D01*
X10500000Y-7500000D02*
X10500000Y-13000000D01*
D11*
X11767500Y-8487500D02*
X11792500Y-8512500D01*
X11792500Y-8487500D02*
X11767500Y-8512500D01*
X11767500Y-8687500D02*
X11792500Y-8712500D01*
X11792500Y-8687500D02*
X11767500Y-8712500D01*
X12107500Y-8367500D02*
X12132500Y-8392500D01*
X12132500Y-8367500D02*
X12107500Y-8392500D01*
X12247500Y-8367500D02*
X12272500Y-8392500D01*
X12272500Y-8367500D02*
X12247500Y-8392500D01*
X12757500Y-8367500D02*
X12782500Y-8392500D01*
X12782500Y-8367500D02*
X12757500Y-8392500D01*
X13267500Y-8367500D02*
X13292500Y-8392500D01*
X13292500Y-8367500D02*
X13267500Y-8392500D01*
X13657500Y-8937500D02*
X13682500Y-8962500D01*
X13682500Y-8937500D02*
X13657500Y-8962500D01*
X13737500Y-8937500D02*
X13762500Y-8962500D01*
X13762500Y-8937500D02*
X13737500Y-8962500D01*
X13777500Y-8367500D02*
X13802500Y-8392500D01*
X13802500Y-8367500D02*
X13777500Y-8392500D01*
X13817500Y-8937500D02*
X13842500Y-8962500D01*
X13842500Y-8937500D02*
X13817500Y-8962500D01*
X13897500Y-8937500D02*
X13922500Y-8962500D01*
X13922500Y-8937500D02*
X13897500Y-8962500D01*
X14167500Y-8937500D02*
X14192500Y-8962500D01*
X14192500Y-8937500D02*
X14167500Y-8962500D01*
X14247500Y-8937500D02*
X14272500Y-8962500D01*
X14272500Y-8937500D02*
X14247500Y-8962500D01*
X14287500Y-8367500D02*
X14312500Y-8392500D01*
X14312500Y-8367500D02*
X14287500Y-8392500D01*
X14327500Y-8937500D02*
X14352500Y-8962500D01*
X14352500Y-8937500D02*
X14327500Y-8962500D01*
X14407500Y-8937500D02*
X14432500Y-8962500D01*
X14432500Y-8937500D02*
X14407500Y-8962500D01*
X18159772Y-10015617D02*
X18184772Y-10040617D01*
X18184772Y-10015617D02*
X18159772Y-10040617D01*
D12*
X10714113Y-11200000D02*
G75*
G03*
X10714113Y-11200000I-15000J0D01*
G01*
X10715000Y-7700000D02*
G75*
G03*
X10715000Y-7700000I-15000J0D01*
G01*
X10715000Y-9200000D02*
G75*
G03*
X10715000Y-9200000I-15000J0D01*
G01*
X10715000Y-9520000D02*
G75*
G03*
X10715000Y-9520000I-15000J0D01*
G01*
X10715000Y-10697419D02*
G75*
G03*
X10715000Y-10697419I-15000J0D01*
G01*
X10715000Y-12200000D02*
G75*
G03*
X10715000Y-12200000I-15000J0D01*
G01*
X10715000Y-12850000D02*
G75*
G03*
X10715000Y-12850000I-15000J0D01*
G01*
X10755000Y-10380000D02*
G75*
G03*
X10755000Y-10380000I-15000J0D01*
G01*
X10765000Y-11720000D02*
G75*
G03*
X10765000Y-11720000I-15000J0D01*
G01*
X10815000Y-9520000D02*
G75*
G03*
X10815000Y-9520000I-15000J0D01*
G01*
X10965000Y-10380000D02*
G75*
G03*
X10965000Y-10380000I-15000J0D01*
G01*
X10965000Y-10620000D02*
G75*
G03*
X10965000Y-10620000I-15000J0D01*
G01*
X10965000Y-10710000D02*
G75*
G03*
X10965000Y-10710000I-15000J0D01*
G01*
X10995000Y-12060000D02*
G75*
G03*
X10995000Y-12060000I-15000J0D01*
G01*
X10995000Y-12160000D02*
G75*
G03*
X10995000Y-12160000I-15000J0D01*
G01*
X11015000Y-9520000D02*
G75*
G03*
X11015000Y-9520000I-15000J0D01*
G01*
X11075000Y-10380000D02*
G75*
G03*
X11075000Y-10380000I-15000J0D01*
G01*
X11095000Y-7870000D02*
G75*
G03*
X11095000Y-7870000I-15000J0D01*
G01*
X11095000Y-7960000D02*
G75*
G03*
X11095000Y-7960000I-15000J0D01*
G01*
X11095000Y-9140000D02*
G75*
G03*
X11095000Y-9140000I-15000J0D01*
G01*
X11095000Y-9230000D02*
G75*
G03*
X11095000Y-9230000I-15000J0D01*
G01*
X11115000Y-9520000D02*
G75*
G03*
X11115000Y-9520000I-15000J0D01*
G01*
X11135000Y-12260000D02*
G75*
G03*
X11135000Y-12260000I-15000J0D01*
G01*
X11155000Y-11500000D02*
G75*
G03*
X11155000Y-11500000I-15000J0D01*
G01*
X11215000Y-7699168D02*
G75*
G03*
X11215000Y-7699168I-15000J0D01*
G01*
X11215000Y-9521221D02*
G75*
G03*
X11215000Y-9521221I-15000J0D01*
G01*
X11215000Y-12849886D02*
G75*
G03*
X11215000Y-12849886I-15000J0D01*
G01*
X11225000Y-10380000D02*
G75*
G03*
X11225000Y-10380000I-15000J0D01*
G01*
X11305000Y-11050000D02*
G75*
G03*
X11305000Y-11050000I-15000J0D01*
G01*
X11315000Y-9521221D02*
G75*
G03*
X11315000Y-9521221I-15000J0D01*
G01*
X11315000Y-10400000D02*
G75*
G03*
X11315000Y-10400000I-15000J0D01*
G01*
X11395000Y-8120000D02*
G75*
G03*
X11395000Y-8120000I-15000J0D01*
G01*
X11395000Y-8200000D02*
G75*
G03*
X11395000Y-8200000I-15000J0D01*
G01*
X11395000Y-8900000D02*
G75*
G03*
X11395000Y-8900000I-15000J0D01*
G01*
X11395000Y-8980000D02*
G75*
G03*
X11395000Y-8980000I-15000J0D01*
G01*
X11420000Y-8305000D02*
G75*
G03*
X11420000Y-8305000I-15000J0D01*
G01*
X11420000Y-8795000D02*
G75*
G03*
X11420000Y-8795000I-15000J0D01*
G01*
X11455000Y-7960000D02*
G75*
G03*
X11455000Y-7960000I-15000J0D01*
G01*
X11455000Y-9140000D02*
G75*
G03*
X11455000Y-9140000I-15000J0D01*
G01*
X11465000Y-9950000D02*
G75*
G03*
X11465000Y-9950000I-15000J0D01*
G01*
X11565000Y-9950000D02*
G75*
G03*
X11565000Y-9950000I-15000J0D01*
G01*
X11575000Y-10590000D02*
G75*
G03*
X11575000Y-10590000I-15000J0D01*
G01*
X11655000Y-11530000D02*
G75*
G03*
X11655000Y-11530000I-15000J0D01*
G01*
X11675000Y-10210000D02*
G75*
G03*
X11675000Y-10210000I-15000J0D01*
G01*
X11675000Y-10590000D02*
G75*
G03*
X11675000Y-10590000I-15000J0D01*
G01*
X11685000Y-8220000D02*
G75*
G03*
X11685000Y-8220000I-15000J0D01*
G01*
X11715000Y-7698337D02*
G75*
G03*
X11715000Y-7698337I-15000J0D01*
G01*
X11715000Y-11700000D02*
G75*
G03*
X11715000Y-11700000I-15000J0D01*
G01*
X11715000Y-12849423D02*
G75*
G03*
X11715000Y-12849423I-15000J0D01*
G01*
X11745000Y-11470000D02*
G75*
G03*
X11745000Y-11470000I-15000J0D01*
G01*
X11765000Y-9450000D02*
G75*
G03*
X11765000Y-9450000I-15000J0D01*
G01*
X11785000Y-11380000D02*
G75*
G03*
X11785000Y-11380000I-15000J0D01*
G01*
X11795000Y-8600000D02*
G75*
G03*
X11795000Y-8600000I-15000J0D01*
G01*
X11877450Y-8500000D02*
G75*
G03*
X11877450Y-8500000I-15000J0D01*
G01*
X11877450Y-8700000D02*
G75*
G03*
X11877450Y-8700000I-15000J0D01*
G01*
X11930000Y-10925000D02*
G75*
G03*
X11930000Y-10925000I-15000J0D01*
G01*
X11935000Y-12060000D02*
G75*
G03*
X11935000Y-12060000I-15000J0D01*
G01*
X11935000Y-12160000D02*
G75*
G03*
X11935000Y-12160000I-15000J0D01*
G01*
X11935000Y-12260000D02*
G75*
G03*
X11935000Y-12260000I-15000J0D01*
G01*
X11985000Y-11580000D02*
G75*
G03*
X11985000Y-11580000I-15000J0D01*
G01*
X11985000Y-11680000D02*
G75*
G03*
X11985000Y-11680000I-15000J0D01*
G01*
X12035000Y-10895000D02*
G75*
G03*
X12035000Y-10895000I-15000J0D01*
G01*
X12035000Y-11000000D02*
G75*
G03*
X12035000Y-11000000I-15000J0D01*
G01*
X12055000Y-11140000D02*
G75*
G03*
X12055000Y-11140000I-15000J0D01*
G01*
X12055000Y-11240000D02*
G75*
G03*
X12055000Y-11240000I-15000J0D01*
G01*
X12061598Y-9873452D02*
G75*
G03*
X12061598Y-9873452I-15000J0D01*
G01*
X12075000Y-11630000D02*
G75*
G03*
X12075000Y-11630000I-15000J0D01*
G01*
X12155000Y-9870000D02*
G75*
G03*
X12155000Y-9870000I-15000J0D01*
G01*
X12215000Y-7697506D02*
G75*
G03*
X12215000Y-7697506I-15000J0D01*
G01*
X12215000Y-10400000D02*
G75*
G03*
X12215000Y-10400000I-15000J0D01*
G01*
X12215000Y-12200000D02*
G75*
G03*
X12215000Y-12200000I-15000J0D01*
G01*
X12215000Y-12849308D02*
G75*
G03*
X12215000Y-12849308I-15000J0D01*
G01*
X12225000Y-10720000D02*
G75*
G03*
X12225000Y-10720000I-15000J0D01*
G01*
X12245000Y-11220000D02*
G75*
G03*
X12245000Y-11220000I-15000J0D01*
G01*
X12310000Y-11150000D02*
G75*
G03*
X12310000Y-11150000I-15000J0D01*
G01*
X12315000Y-10400000D02*
G75*
G03*
X12315000Y-10400000I-15000J0D01*
G01*
X12320000Y-10720000D02*
G75*
G03*
X12320000Y-10720000I-15000J0D01*
G01*
X12375000Y-11220000D02*
G75*
G03*
X12375000Y-11220000I-15000J0D01*
G01*
X12515000Y-8675592D02*
G75*
G03*
X12515000Y-8675592I-15000J0D01*
G01*
X12515000Y-12260000D02*
G75*
G03*
X12515000Y-12260000I-15000J0D01*
G01*
X12525000Y-10180000D02*
G75*
G03*
X12525000Y-10180000I-15000J0D01*
G01*
X12545000Y-9255000D02*
G75*
G03*
X12545000Y-9255000I-15000J0D01*
G01*
X12545000Y-9350000D02*
G75*
G03*
X12545000Y-9350000I-15000J0D01*
G01*
X12570000Y-11470000D02*
G75*
G03*
X12570000Y-11470000I-15000J0D01*
G01*
X12590000Y-10255000D02*
G75*
G03*
X12590000Y-10255000I-15000J0D01*
G01*
X12621250Y-10631250D02*
G75*
G03*
X12621250Y-10631250I-15000J0D01*
G01*
X12660000Y-10330000D02*
G75*
G03*
X12660000Y-10330000I-15000J0D01*
G01*
X12675000Y-11470000D02*
G75*
G03*
X12675000Y-11470000I-15000J0D01*
G01*
X12710000Y-10555000D02*
G75*
G03*
X12710000Y-10555000I-15000J0D01*
G01*
X12715000Y-7697506D02*
G75*
G03*
X12715000Y-7697506I-15000J0D01*
G01*
X12715000Y-12848845D02*
G75*
G03*
X12715000Y-12848845I-15000J0D01*
G01*
X12785000Y-10469950D02*
G75*
G03*
X12785000Y-10469950I-15000J0D01*
G01*
X12814994Y-9480000D02*
G75*
G03*
X12814994Y-9480000I-15000J0D01*
G01*
X12815000Y-9590413D02*
G75*
G03*
X12815000Y-9590413I-15000J0D01*
G01*
X12900000Y-11190000D02*
G75*
G03*
X12900000Y-11190000I-15000J0D01*
G01*
X12995000Y-11190000D02*
G75*
G03*
X12995000Y-11190000I-15000J0D01*
G01*
X13015000Y-8675592D02*
G75*
G03*
X13015000Y-8675592I-15000J0D01*
G01*
X13015000Y-9510000D02*
G75*
G03*
X13015000Y-9510000I-15000J0D01*
G01*
X13065000Y-10600000D02*
G75*
G03*
X13065000Y-10600000I-15000J0D01*
G01*
X13065000Y-10750000D02*
G75*
G03*
X13065000Y-10750000I-15000J0D01*
G01*
X13135000Y-10670000D02*
G75*
G03*
X13135000Y-10670000I-15000J0D01*
G01*
X13155000Y-9890000D02*
G75*
G03*
X13155000Y-9890000I-15000J0D01*
G01*
X13215000Y-7696674D02*
G75*
G03*
X13215000Y-7696674I-15000J0D01*
G01*
X13215000Y-11194933D02*
G75*
G03*
X13215000Y-11194933I-15000J0D01*
G01*
X13215000Y-11524130D02*
G75*
G03*
X13215000Y-11524130I-15000J0D01*
G01*
X13215000Y-12848731D02*
G75*
G03*
X13215000Y-12848731I-15000J0D01*
G01*
X13315000Y-9780000D02*
G75*
G03*
X13315000Y-9780000I-15000J0D01*
G01*
X13315000Y-10140000D02*
G75*
G03*
X13315000Y-10140000I-15000J0D01*
G01*
X13315000Y-10837350D02*
G75*
G03*
X13315000Y-10837350I-15000J0D01*
G01*
X13335000Y-12060000D02*
G75*
G03*
X13335000Y-12060000I-15000J0D01*
G01*
X13335000Y-12160000D02*
G75*
G03*
X13335000Y-12160000I-15000J0D01*
G01*
X13335000Y-12260000D02*
G75*
G03*
X13335000Y-12260000I-15000J0D01*
G01*
X13355000Y-11100000D02*
G75*
G03*
X13355000Y-11100000I-15000J0D01*
G01*
X13374836Y-10399880D02*
G75*
G03*
X13374836Y-10399880I-15000J0D01*
G01*
X13374950Y-10530050D02*
G75*
G03*
X13374950Y-10530050I-15000J0D01*
G01*
X13385000Y-10200000D02*
G75*
G03*
X13385000Y-10200000I-15000J0D01*
G01*
X13465000Y-10453196D02*
G75*
G03*
X13465000Y-10453196I-15000J0D01*
G01*
X13475000Y-9780000D02*
G75*
G03*
X13475000Y-9780000I-15000J0D01*
G01*
X13475000Y-10140000D02*
G75*
G03*
X13475000Y-10140000I-15000J0D01*
G01*
X13500000Y-10785000D02*
G75*
G03*
X13500000Y-10785000I-15000J0D01*
G01*
X13565000Y-8679882D02*
G75*
G03*
X13565000Y-8679882I-15000J0D01*
G01*
X13595000Y-8950000D02*
G75*
G03*
X13595000Y-8950000I-15000J0D01*
G01*
X13605000Y-9670000D02*
G75*
G03*
X13605000Y-9670000I-15000J0D01*
G01*
X13635000Y-9780000D02*
G75*
G03*
X13635000Y-9780000I-15000J0D01*
G01*
X13685000Y-9550000D02*
G75*
G03*
X13685000Y-9550000I-15000J0D01*
G01*
X13715000Y-7695843D02*
G75*
G03*
X13715000Y-7695843I-15000J0D01*
G01*
X13715000Y-10191380D02*
G75*
G03*
X13715000Y-10191380I-15000J0D01*
G01*
X13715000Y-11191954D02*
G75*
G03*
X13715000Y-11191954I-15000J0D01*
G01*
X13715000Y-11525000D02*
G75*
G03*
X13715000Y-11525000I-15000J0D01*
G01*
X13715000Y-12848268D02*
G75*
G03*
X13715000Y-12848268I-15000J0D01*
G01*
X13765000Y-9490000D02*
G75*
G03*
X13765000Y-9490000I-15000J0D01*
G01*
X13775000Y-12060000D02*
G75*
G03*
X13775000Y-12060000I-15000J0D01*
G01*
X13775000Y-12159722D02*
G75*
G03*
X13775000Y-12159722I-15000J0D01*
G01*
X13805000Y-9590000D02*
G75*
G03*
X13805000Y-9590000I-15000J0D01*
G01*
X13845000Y-9420000D02*
G75*
G03*
X13845000Y-9420000I-15000J0D01*
G01*
X13915000Y-12260000D02*
G75*
G03*
X13915000Y-12260000I-15000J0D01*
G01*
X13925000Y-9340000D02*
G75*
G03*
X13925000Y-9340000I-15000J0D01*
G01*
X13935000Y-11140000D02*
G75*
G03*
X13935000Y-11140000I-15000J0D01*
G01*
X13955000Y-9440000D02*
G75*
G03*
X13955000Y-9440000I-15000J0D01*
G01*
X14005000Y-11070000D02*
G75*
G03*
X14005000Y-11070000I-15000J0D01*
G01*
X14005000Y-11660050D02*
G75*
G03*
X14005000Y-11660050I-15000J0D01*
G01*
X14015000Y-8950000D02*
G75*
G03*
X14015000Y-8950000I-15000J0D01*
G01*
X14065000Y-8684172D02*
G75*
G03*
X14065000Y-8684172I-15000J0D01*
G01*
X14105000Y-8950000D02*
G75*
G03*
X14105000Y-8950000I-15000J0D01*
G01*
X14115000Y-11140000D02*
G75*
G03*
X14115000Y-11140000I-15000J0D01*
G01*
X14115000Y-11640000D02*
G75*
G03*
X14115000Y-11640000I-15000J0D01*
G01*
X14125000Y-10310000D02*
G75*
G03*
X14125000Y-10310000I-15000J0D01*
G01*
X14125000Y-10410000D02*
G75*
G03*
X14125000Y-10410000I-15000J0D01*
G01*
X14155000Y-10600000D02*
G75*
G03*
X14155000Y-10600000I-15000J0D01*
G01*
X14155000Y-10710000D02*
G75*
G03*
X14155000Y-10710000I-15000J0D01*
G01*
X14155000Y-10810000D02*
G75*
G03*
X14155000Y-10810000I-15000J0D01*
G01*
X14185000Y-11070000D02*
G75*
G03*
X14185000Y-11070000I-15000J0D01*
G01*
X14185000Y-11560000D02*
G75*
G03*
X14185000Y-11560000I-15000J0D01*
G01*
X14195000Y-9260000D02*
G75*
G03*
X14195000Y-9260000I-15000J0D01*
G01*
X14215000Y-7695843D02*
G75*
G03*
X14215000Y-7695843I-15000J0D01*
G01*
X14215000Y-12848153D02*
G75*
G03*
X14215000Y-12848153I-15000J0D01*
G01*
X14219462Y-10524462D02*
G75*
G03*
X14219462Y-10524462I-15000J0D01*
G01*
X14245000Y-10400000D02*
G75*
G03*
X14245000Y-10400000I-15000J0D01*
G01*
X14275000Y-9180000D02*
G75*
G03*
X14275000Y-9180000I-15000J0D01*
G01*
X14285000Y-11140000D02*
G75*
G03*
X14285000Y-11140000I-15000J0D01*
G01*
X14285000Y-11530000D02*
G75*
G03*
X14285000Y-11530000I-15000J0D01*
G01*
X14295000Y-9270000D02*
G75*
G03*
X14295000Y-9270000I-15000J0D01*
G01*
X14345000Y-11450000D02*
G75*
G03*
X14345000Y-11450000I-15000J0D01*
G01*
X14355000Y-9110000D02*
G75*
G03*
X14355000Y-9110000I-15000J0D01*
G01*
X14375000Y-11070000D02*
G75*
G03*
X14375000Y-11070000I-15000J0D01*
G01*
X14435000Y-9040000D02*
G75*
G03*
X14435000Y-9040000I-15000J0D01*
G01*
X14435000Y-11420000D02*
G75*
G03*
X14435000Y-11420000I-15000J0D01*
G01*
X14455000Y-9140000D02*
G75*
G03*
X14455000Y-9140000I-15000J0D01*
G01*
X14525000Y-8950000D02*
G75*
G03*
X14525000Y-8950000I-15000J0D01*
G01*
X14712021Y-9700000D02*
G75*
G03*
X14712021Y-9700000I-15000J0D01*
G01*
X14715000Y-7695011D02*
G75*
G03*
X14715000Y-7695011I-15000J0D01*
G01*
X14715000Y-8200000D02*
G75*
G03*
X14715000Y-8200000I-15000J0D01*
G01*
X14715000Y-8685207D02*
G75*
G03*
X14715000Y-8685207I-15000J0D01*
G01*
X14715000Y-10200000D02*
G75*
G03*
X14715000Y-10200000I-15000J0D01*
G01*
X14715000Y-10700000D02*
G75*
G03*
X14715000Y-10700000I-15000J0D01*
G01*
X14715000Y-12847690D02*
G75*
G03*
X14715000Y-12847690I-15000J0D01*
G01*
X14735000Y-12060000D02*
G75*
G03*
X14735000Y-12060000I-15000J0D01*
G01*
X14735000Y-12158448D02*
G75*
G03*
X14735000Y-12158448I-15000J0D01*
G01*
X14735000Y-12260000D02*
G75*
G03*
X14735000Y-12260000I-15000J0D01*
G01*
X14795000Y-8890000D02*
G75*
G03*
X14795000Y-8890000I-15000J0D01*
G01*
X14795000Y-11510000D02*
G75*
G03*
X14795000Y-11510000I-15000J0D01*
G01*
X14955000Y-8890000D02*
G75*
G03*
X14955000Y-8890000I-15000J0D01*
G01*
X14955000Y-11510000D02*
G75*
G03*
X14955000Y-11510000I-15000J0D01*
G01*
X15179152Y-11300000D02*
G75*
G03*
X15179152Y-11300000I-15000J0D01*
G01*
X15182727Y-11800000D02*
G75*
G03*
X15182727Y-11800000I-15000J0D01*
G01*
X15185000Y-12060000D02*
G75*
G03*
X15185000Y-12060000I-15000J0D01*
G01*
X15185000Y-12157650D02*
G75*
G03*
X15185000Y-12157650I-15000J0D01*
G01*
X15215000Y-7694180D02*
G75*
G03*
X15215000Y-7694180I-15000J0D01*
G01*
X15215000Y-8200000D02*
G75*
G03*
X15215000Y-8200000I-15000J0D01*
G01*
X15215000Y-8688782D02*
G75*
G03*
X15215000Y-8688782I-15000J0D01*
G01*
X15215000Y-12847576D02*
G75*
G03*
X15215000Y-12847576I-15000J0D01*
G01*
X15335000Y-12260000D02*
G75*
G03*
X15335000Y-12260000I-15000J0D01*
G01*
X15335050Y-9620000D02*
G75*
G03*
X15335050Y-9620000I-15000J0D01*
G01*
X15345000Y-9712350D02*
G75*
G03*
X15345000Y-9712350I-15000J0D01*
G01*
X15365000Y-9940000D02*
G75*
G03*
X15365000Y-9940000I-15000J0D01*
G01*
X15385000Y-11020000D02*
G75*
G03*
X15385000Y-11020000I-15000J0D01*
G01*
X15385000Y-11125000D02*
G75*
G03*
X15385000Y-11125000I-15000J0D01*
G01*
X15420000Y-10235000D02*
G75*
G03*
X15420000Y-10235000I-15000J0D01*
G01*
X15430000Y-9660000D02*
G75*
G03*
X15430000Y-9660000I-15000J0D01*
G01*
X15495000Y-9270000D02*
G75*
G03*
X15495000Y-9270000I-15000J0D01*
G01*
X15685000Y-9860000D02*
G75*
G03*
X15685000Y-9860000I-15000J0D01*
G01*
X15715000Y-7694180D02*
G75*
G03*
X15715000Y-7694180I-15000J0D01*
G01*
X15715000Y-8200000D02*
G75*
G03*
X15715000Y-8200000I-15000J0D01*
G01*
X15715000Y-8688782D02*
G75*
G03*
X15715000Y-8688782I-15000J0D01*
G01*
X15715000Y-9192383D02*
G75*
G03*
X15715000Y-9192383I-15000J0D01*
G01*
X15715000Y-10192251D02*
G75*
G03*
X15715000Y-10192251I-15000J0D01*
G01*
X15715000Y-12847113D02*
G75*
G03*
X15715000Y-12847113I-15000J0D01*
G01*
X15735000Y-10500000D02*
G75*
G03*
X15735000Y-10500000I-15000J0D01*
G01*
X15735000Y-10710000D02*
G75*
G03*
X15735000Y-10710000I-15000J0D01*
G01*
X15735000Y-10800000D02*
G75*
G03*
X15735000Y-10800000I-15000J0D01*
G01*
X15737500Y-10592500D02*
G75*
G03*
X15737500Y-10592500I-15000J0D01*
G01*
X15835000Y-10080000D02*
G75*
G03*
X15835000Y-10080000I-15000J0D01*
G01*
X15835000Y-10560000D02*
G75*
G03*
X15835000Y-10560000I-15000J0D01*
G01*
X15865000Y-11400000D02*
G75*
G03*
X15865000Y-11400000I-15000J0D01*
G01*
X15935000Y-10110000D02*
G75*
G03*
X15935000Y-10110000I-15000J0D01*
G01*
X16115000Y-10746210D02*
G75*
G03*
X16115000Y-10746210I-15000J0D01*
G01*
X16115000Y-12060000D02*
G75*
G03*
X16115000Y-12060000I-15000J0D01*
G01*
X16115000Y-12160000D02*
G75*
G03*
X16115000Y-12160000I-15000J0D01*
G01*
X16135000Y-12260000D02*
G75*
G03*
X16135000Y-12260000I-15000J0D01*
G01*
X16215000Y-7694180D02*
G75*
G03*
X16215000Y-7694180I-15000J0D01*
G01*
X16215000Y-8200000D02*
G75*
G03*
X16215000Y-8200000I-15000J0D01*
G01*
X16215000Y-8692357D02*
G75*
G03*
X16215000Y-8692357I-15000J0D01*
G01*
X16215000Y-9194452D02*
G75*
G03*
X16215000Y-9194452I-15000J0D01*
G01*
X16215000Y-9700000D02*
G75*
G03*
X16215000Y-9700000I-15000J0D01*
G01*
X16215000Y-10194734D02*
G75*
G03*
X16215000Y-10194734I-15000J0D01*
G01*
X16215000Y-11197912D02*
G75*
G03*
X16215000Y-11197912I-15000J0D01*
G01*
X16215000Y-12846999D02*
G75*
G03*
X16215000Y-12846999I-15000J0D01*
G01*
X16260000Y-11895000D02*
G75*
G03*
X16260000Y-11895000I-15000J0D01*
G01*
X16265000Y-8430000D02*
G75*
G03*
X16265000Y-8430000I-15000J0D01*
G01*
X16365000Y-8199450D02*
G75*
G03*
X16365000Y-8199450I-15000J0D01*
G01*
X16365000Y-8430000D02*
G75*
G03*
X16365000Y-8430000I-15000J0D01*
G01*
X16365000Y-8660000D02*
G75*
G03*
X16365000Y-8660000I-15000J0D01*
G01*
X16415000Y-12590000D02*
G75*
G03*
X16415000Y-12590000I-15000J0D01*
G01*
X16415000Y-12860000D02*
G75*
G03*
X16415000Y-12860000I-15000J0D01*
G01*
X16445000Y-8610000D02*
G75*
G03*
X16445000Y-8610000I-15000J0D01*
G01*
X16515000Y-12590000D02*
G75*
G03*
X16515000Y-12590000I-15000J0D01*
G01*
X16515000Y-12860000D02*
G75*
G03*
X16515000Y-12860000I-15000J0D01*
G01*
X16525000Y-11140000D02*
G75*
G03*
X16525000Y-11140000I-15000J0D01*
G01*
X16565000Y-10748279D02*
G75*
G03*
X16565000Y-10748279I-15000J0D01*
G01*
X16715000Y-7693348D02*
G75*
G03*
X16715000Y-7693348I-15000J0D01*
G01*
X16715000Y-8694852D02*
G75*
G03*
X16715000Y-8694852I-15000J0D01*
G01*
X16715000Y-9194452D02*
G75*
G03*
X16715000Y-9194452I-15000J0D01*
G01*
X16715000Y-10197217D02*
G75*
G03*
X16715000Y-10197217I-15000J0D01*
G01*
X16715000Y-12883905D02*
G75*
G03*
X16715000Y-12883905I-15000J0D01*
G01*
X16825000Y-11700000D02*
G75*
G03*
X16825000Y-11700000I-15000J0D01*
G01*
X16965000Y-11700000D02*
G75*
G03*
X16965000Y-11700000I-15000J0D01*
G01*
X16975000Y-10920000D02*
G75*
G03*
X16975000Y-10920000I-15000J0D01*
G01*
X17075000Y-10920000D02*
G75*
G03*
X17075000Y-10920000I-15000J0D01*
G01*
X17115000Y-10660000D02*
G75*
G03*
X17115000Y-10660000I-15000J0D01*
G01*
X17145000Y-12430000D02*
G75*
G03*
X17145000Y-12430000I-15000J0D01*
G01*
X17215000Y-7692517D02*
G75*
G03*
X17215000Y-7692517I-15000J0D01*
G01*
X17215000Y-8695932D02*
G75*
G03*
X17215000Y-8695932I-15000J0D01*
G01*
X17215000Y-9196521D02*
G75*
G03*
X17215000Y-9196521I-15000J0D01*
G01*
X17215000Y-10199699D02*
G75*
G03*
X17215000Y-10199699I-15000J0D01*
G01*
X17215000Y-10780000D02*
G75*
G03*
X17215000Y-10780000I-15000J0D01*
G01*
X17215000Y-12889053D02*
G75*
G03*
X17215000Y-12889053I-15000J0D01*
G01*
X17375000Y-9440000D02*
G75*
G03*
X17375000Y-9440000I-15000J0D01*
G01*
X17376000Y-10040000D02*
G75*
G03*
X17376000Y-10040000I-15000J0D01*
G01*
X17515000Y-10450000D02*
G75*
G03*
X17515000Y-10450000I-15000J0D01*
G01*
X17615000Y-8760000D02*
G75*
G03*
X17615000Y-8760000I-15000J0D01*
G01*
X17715000Y-7692517D02*
G75*
G03*
X17715000Y-7692517I-15000J0D01*
G01*
X17715000Y-9198590D02*
G75*
G03*
X17715000Y-9198590I-15000J0D01*
G01*
X17715000Y-12894201D02*
G75*
G03*
X17715000Y-12894201I-15000J0D01*
G01*
X17765000Y-11560000D02*
G75*
G03*
X17765000Y-11560000I-15000J0D01*
G01*
X17775000Y-10980000D02*
G75*
G03*
X17775000Y-10980000I-15000J0D01*
G01*
X17795000Y-9670000D02*
G75*
G03*
X17795000Y-9670000I-15000J0D01*
G01*
X17842500Y-7942500D02*
G75*
G03*
X17842500Y-7942500I-15000J0D01*
G01*
X17845000Y-10880000D02*
G75*
G03*
X17845000Y-10880000I-15000J0D01*
G01*
X17845000Y-11730000D02*
G75*
G03*
X17845000Y-11730000I-15000J0D01*
G01*
X17915000Y-9850000D02*
G75*
G03*
X17915000Y-9850000I-15000J0D01*
G01*
X18165050Y-9948717D02*
G75*
G03*
X18165050Y-9948717I-15000J0D01*
G01*
X18175000Y-10780000D02*
G75*
G03*
X18175000Y-10780000I-15000J0D01*
G01*
X18212818Y-11700000D02*
G75*
G03*
X18212818Y-11700000I-15000J0D01*
G01*
X18215000Y-7691685D02*
G75*
G03*
X18215000Y-7691685I-15000J0D01*
G01*
X18215000Y-8699507D02*
G75*
G03*
X18215000Y-8699507I-15000J0D01*
G01*
X18215000Y-9200000D02*
G75*
G03*
X18215000Y-9200000I-15000J0D01*
G01*
X18215000Y-12899349D02*
G75*
G03*
X18215000Y-12899349I-15000J0D01*
G01*
X18245000Y-8320000D02*
G75*
G03*
X18245000Y-8320000I-15000J0D01*
G01*
X18625000Y-10700000D02*
G75*
G03*
X18625000Y-10700000I-15000J0D01*
G01*
X18625000Y-11200000D02*
G75*
G03*
X18625000Y-11200000I-15000J0D01*
G01*
X18690621Y-12900000D02*
G75*
G03*
X18690621Y-12900000I-15000J0D01*
G01*
X18690864Y-12200000D02*
G75*
G03*
X18690864Y-12200000I-15000J0D01*
G01*
X18692588Y-11700000D02*
G75*
G03*
X18692588Y-11700000I-15000J0D01*
G01*
X18700700Y-10200000D02*
G75*
G03*
X18700700Y-10200000I-15000J0D01*
G01*
X18704275Y-9200000D02*
G75*
G03*
X18704275Y-9200000I-15000J0D01*
G01*
X18707850Y-9700000D02*
G75*
G03*
X18707850Y-9700000I-15000J0D01*
G01*
X18709329Y-8700000D02*
G75*
G03*
X18709329Y-8700000I-15000J0D01*
G01*
X18712904Y-8200000D02*
G75*
G03*
X18712904Y-8200000I-15000J0D01*
G01*
X18715000Y-7700000D02*
G75*
G03*
X18715000Y-7700000I-15000J0D01*
G01*
X13200000Y-9355000D02*
X13200000Y-9385000D01*
X13185000Y-9370000D02*
X13215000Y-9370000D01*
X13200000Y-9435000D02*
X13200000Y-9465000D01*
X13185000Y-9450000D02*
X13215000Y-9450000D01*
X13200000Y-9515000D02*
X13200000Y-9545000D01*
X13185000Y-9530000D02*
X13215000Y-9530000D01*
X13280000Y-9355000D02*
X13280000Y-9385000D01*
X13265000Y-9370000D02*
X13295000Y-9370000D01*
X13280000Y-9435000D02*
X13280000Y-9465000D01*
X13265000Y-9450000D02*
X13295000Y-9450000D01*
X13280000Y-9515000D02*
X13280000Y-9545000D01*
X13265000Y-9530000D02*
X13295000Y-9530000D01*
X13360000Y-9355000D02*
X13360000Y-9385000D01*
X13345000Y-9370000D02*
X13375000Y-9370000D01*
X13360000Y-9435000D02*
X13360000Y-9465000D01*
X13345000Y-9450000D02*
X13375000Y-9450000D01*
X13360000Y-9515000D02*
X13360000Y-9545000D01*
X13345000Y-9530000D02*
X13375000Y-9530000D01*
X17078330Y-11791000D02*
X17078330Y-11821000D01*
X17063330Y-11806000D02*
X17093330Y-11806000D01*
X17078330Y-11880000D02*
X17078330Y-11910000D01*
X17063330Y-11895000D02*
X17093330Y-11895000D01*
X17078330Y-11969000D02*
X17078330Y-11999000D01*
X17063330Y-11984000D02*
X17093330Y-11984000D01*
X17178330Y-11791000D02*
X17178330Y-11821000D01*
X17163330Y-11806000D02*
X17193330Y-11806000D01*
X17178330Y-11880000D02*
X17178330Y-11910000D01*
X17163330Y-11895000D02*
X17193330Y-11895000D01*
X17178330Y-11969000D02*
X17178330Y-11999000D01*
X17163330Y-11984000D02*
X17193330Y-11984000D01*
D13*
X10766213Y-8139213D02*
X10766213Y-8096787D01*
X10723787Y-8096787D01*
X10723787Y-8139213D01*
X10766213Y-8139213D01*
D10*
X10715000Y-8148000D02*
X10775000Y-8148000D01*
X10715000Y-8088000D02*
X10775000Y-8088000D01*
X10775000Y-8148000D02*
G75*
G03*
X10775000Y-8088000I0J30000D01*
G01*
X10715000Y-8088000D02*
G75*
G03*
X10715000Y-8148000I0J-30000D01*
G01*
D13*
X10766213Y-9003213D02*
X10766213Y-8960787D01*
X10723787Y-8960787D01*
X10723787Y-9003213D01*
X10766213Y-9003213D01*
D10*
X10715000Y-9012000D02*
X10775000Y-9012000D01*
X10715000Y-8952000D02*
X10775000Y-8952000D01*
X10775000Y-9012000D02*
G75*
G03*
X10775000Y-8952000I0J30000D01*
G01*
X10715000Y-8952000D02*
G75*
G03*
X10715000Y-9012000I0J-30000D01*
G01*
D13*
X11184213Y-8139213D02*
X11184213Y-8096787D01*
X11141787Y-8096787D01*
X11141787Y-8139213D01*
X11184213Y-8139213D01*
D10*
X11108000Y-8148000D02*
X11218000Y-8148000D01*
X11108000Y-8088000D02*
X11218000Y-8088000D01*
X11218000Y-8148000D02*
G75*
G03*
X11218000Y-8088000I0J30000D01*
G01*
X11108000Y-8088000D02*
G75*
G03*
X11108000Y-8148000I0J-30000D01*
G01*
D13*
X11184213Y-9003213D02*
X11184213Y-8960787D01*
X11141787Y-8960787D01*
X11141787Y-9003213D01*
X11184213Y-9003213D01*
D10*
X11108000Y-9012000D02*
X11218000Y-9012000D01*
X11108000Y-8952000D02*
X11218000Y-8952000D01*
X11218000Y-9012000D02*
G75*
G03*
X11218000Y-8952000I0J30000D01*
G01*
X11108000Y-8952000D02*
G75*
G03*
X11108000Y-9012000I0J-30000D01*
G01*
D14*
X11690000Y-9180000D02*
X11740000Y-9130000D01*
X11690000Y-9080000D01*
X11640000Y-9130000D01*
X11690000Y-9180000D01*
X12040000Y-9180000D02*
X12090000Y-9130000D01*
X12040000Y-9080000D01*
X11990000Y-9130000D01*
X12040000Y-9180000D01*
X12264000Y-7946000D02*
X12314000Y-7896000D01*
X12264000Y-7846000D01*
X12214000Y-7896000D01*
X12264000Y-7946000D01*
X12264000Y-8200000D02*
X12314000Y-8150000D01*
X12264000Y-8100000D01*
X12214000Y-8150000D01*
X12264000Y-8200000D01*
X12518000Y-7946000D02*
X12568000Y-7896000D01*
X12518000Y-7846000D01*
X12468000Y-7896000D01*
X12518000Y-7946000D01*
X12518000Y-8200000D02*
X12568000Y-8150000D01*
X12518000Y-8100000D01*
X12468000Y-8150000D01*
X12518000Y-8200000D01*
X12772000Y-7946000D02*
X12822000Y-7896000D01*
X12772000Y-7846000D01*
X12722000Y-7896000D01*
X12772000Y-7946000D01*
X12772000Y-8200000D02*
X12822000Y-8150000D01*
X12772000Y-8100000D01*
X12722000Y-8150000D01*
X12772000Y-8200000D01*
X13026000Y-7946000D02*
X13076000Y-7896000D01*
X13026000Y-7846000D01*
X12976000Y-7896000D01*
X13026000Y-7946000D01*
X13026000Y-8200000D02*
X13076000Y-8150000D01*
X13026000Y-8100000D01*
X12976000Y-8150000D01*
X13026000Y-8200000D01*
X13280000Y-7946000D02*
X13330000Y-7896000D01*
X13280000Y-7846000D01*
X13230000Y-7896000D01*
X13280000Y-7946000D01*
X13280000Y-8200000D02*
X13330000Y-8150000D01*
X13280000Y-8100000D01*
X13230000Y-8150000D01*
X13280000Y-8200000D01*
X13534000Y-7946000D02*
X13584000Y-7896000D01*
X13534000Y-7846000D01*
X13484000Y-7896000D01*
X13534000Y-7946000D01*
X13534000Y-8200000D02*
X13584000Y-8150000D01*
X13534000Y-8100000D01*
X13484000Y-8150000D01*
X13534000Y-8200000D01*
X13788000Y-7946000D02*
X13838000Y-7896000D01*
X13788000Y-7846000D01*
X13738000Y-7896000D01*
X13788000Y-7946000D01*
X13788000Y-8200000D02*
X13838000Y-8150000D01*
X13788000Y-8100000D01*
X13738000Y-8150000D01*
X13788000Y-8200000D01*
X14042000Y-7946000D02*
X14092000Y-7896000D01*
X14042000Y-7846000D01*
X13992000Y-7896000D01*
X14042000Y-7946000D01*
X14042000Y-8200000D02*
X14092000Y-8150000D01*
X14042000Y-8100000D01*
X13992000Y-8150000D01*
X14042000Y-8200000D01*
X14296000Y-7946000D02*
X14346000Y-7896000D01*
X14296000Y-7846000D01*
X14246000Y-7896000D01*
X14296000Y-7946000D01*
X14296000Y-8200000D02*
X14346000Y-8150000D01*
X14296000Y-8100000D01*
X14246000Y-8150000D01*
X14296000Y-8200000D01*
X14550000Y-7946000D02*
X14600000Y-7896000D01*
X14550000Y-7846000D01*
X14500000Y-7896000D01*
X14550000Y-7946000D01*
X14550000Y-8200000D02*
X14600000Y-8150000D01*
X14550000Y-8100000D01*
X14500000Y-8150000D01*
X14550000Y-8200000D01*
X15480000Y-8180000D02*
X15530000Y-8130000D01*
X15480000Y-8080000D01*
X15430000Y-8130000D01*
X15480000Y-8180000D01*
X15480000Y-8530000D02*
X15530000Y-8480000D01*
X15480000Y-8430000D01*
X15430000Y-8480000D01*
X15480000Y-8530000D01*
X15600000Y-11290000D02*
X15650000Y-11240000D01*
X15600000Y-11190000D01*
X15550000Y-11240000D01*
X15600000Y-11290000D01*
X15680000Y-11680000D02*
X15730000Y-11630000D01*
X15680000Y-11580000D01*
X15630000Y-11630000D01*
X15680000Y-11680000D01*
X16000000Y-10430000D02*
X16050000Y-10380000D01*
X16000000Y-10330000D01*
X15950000Y-10380000D01*
X16000000Y-10430000D01*
X16030000Y-11680000D02*
X16080000Y-11630000D01*
X16030000Y-11580000D01*
X15980000Y-11630000D01*
X16030000Y-11680000D01*
X16100000Y-9090000D02*
X16150000Y-9040000D01*
X16100000Y-8990000D01*
X16050000Y-9040000D01*
X16100000Y-9090000D01*
X16100000Y-9440000D02*
X16150000Y-9390000D01*
X16100000Y-9340000D01*
X16050000Y-9390000D01*
X16100000Y-9440000D01*
X16320000Y-10430000D02*
X16370000Y-10380000D01*
X16320000Y-10330000D01*
X16270000Y-10380000D01*
X16320000Y-10430000D01*
X16640000Y-10430000D02*
X16690000Y-10380000D01*
X16640000Y-10330000D01*
X16590000Y-10380000D01*
X16640000Y-10430000D01*
X17471000Y-9900000D02*
X17521000Y-9850000D01*
X17471000Y-9800000D01*
X17421000Y-9850000D01*
X17471000Y-9900000D01*
X17472500Y-8370000D02*
X17522500Y-8320000D01*
X17472500Y-8270000D01*
X17422500Y-8320000D01*
X17472500Y-8370000D01*
X17725000Y-9900000D02*
X17775000Y-9850000D01*
X17725000Y-9800000D01*
X17675000Y-9850000D01*
X17725000Y-9900000D01*
X17726500Y-8370000D02*
X17776500Y-8320000D01*
X17726500Y-8270000D01*
X17676500Y-8320000D01*
X17726500Y-8370000D01*
D15*
X10690000Y-12440000D02*
X10810000Y-12560000D01*
X10810000Y-12440000D02*
X10690000Y-12560000D01*
X10810000Y-12500000D02*
G75*
G03*
X10810000Y-12500000I-60000J0D01*
G01*
X11040000Y-12440000D02*
X11160000Y-12560000D01*
X11160000Y-12440000D02*
X11040000Y-12560000D01*
X11160000Y-12500000D02*
G75*
G03*
X11160000Y-12500000I-60000J0D01*
G01*
X11390000Y-12440000D02*
X11510000Y-12560000D01*
X11510000Y-12440000D02*
X11390000Y-12560000D01*
X11510000Y-12500000D02*
G75*
G03*
X11510000Y-12500000I-60000J0D01*
G01*
X11740000Y-12440000D02*
X11860000Y-12560000D01*
X11860000Y-12440000D02*
X11740000Y-12560000D01*
X11860000Y-12500000D02*
G75*
G03*
X11860000Y-12500000I-60000J0D01*
G01*
X12090000Y-12440000D02*
X12210000Y-12560000D01*
X12210000Y-12440000D02*
X12090000Y-12560000D01*
X12210000Y-12500000D02*
G75*
G03*
X12210000Y-12500000I-60000J0D01*
G01*
X12440000Y-12440000D02*
X12560000Y-12560000D01*
X12560000Y-12440000D02*
X12440000Y-12560000D01*
X12560000Y-12500000D02*
G75*
G03*
X12560000Y-12500000I-60000J0D01*
G01*
X12790000Y-12440000D02*
X12910000Y-12560000D01*
X12910000Y-12440000D02*
X12790000Y-12560000D01*
X12910000Y-12500000D02*
G75*
G03*
X12910000Y-12500000I-60000J0D01*
G01*
X13140000Y-12440000D02*
X13260000Y-12560000D01*
X13260000Y-12440000D02*
X13140000Y-12560000D01*
X13260000Y-12500000D02*
G75*
G03*
X13260000Y-12500000I-60000J0D01*
G01*
X13490000Y-12440000D02*
X13610000Y-12560000D01*
X13610000Y-12440000D02*
X13490000Y-12560000D01*
X13610000Y-12500000D02*
G75*
G03*
X13610000Y-12500000I-60000J0D01*
G01*
X13840000Y-12440000D02*
X13960000Y-12560000D01*
X13960000Y-12440000D02*
X13840000Y-12560000D01*
X13960000Y-12500000D02*
G75*
G03*
X13960000Y-12500000I-60000J0D01*
G01*
X14190000Y-12440000D02*
X14310000Y-12560000D01*
X14310000Y-12440000D02*
X14190000Y-12560000D01*
X14310000Y-12500000D02*
G75*
G03*
X14310000Y-12500000I-60000J0D01*
G01*
X14540000Y-12440000D02*
X14660000Y-12560000D01*
X14660000Y-12440000D02*
X14540000Y-12560000D01*
X14660000Y-12500000D02*
G75*
G03*
X14660000Y-12500000I-60000J0D01*
G01*
X14890000Y-12440000D02*
X15010000Y-12560000D01*
X15010000Y-12440000D02*
X14890000Y-12560000D01*
X15010000Y-12500000D02*
G75*
G03*
X15010000Y-12500000I-60000J0D01*
G01*
X15240000Y-12440000D02*
X15360000Y-12560000D01*
X15360000Y-12440000D02*
X15240000Y-12560000D01*
X15360000Y-12500000D02*
G75*
G03*
X15360000Y-12500000I-60000J0D01*
G01*
X15590000Y-12440000D02*
X15710000Y-12560000D01*
X15710000Y-12440000D02*
X15590000Y-12560000D01*
X15710000Y-12500000D02*
G75*
G03*
X15710000Y-12500000I-60000J0D01*
G01*
X15940000Y-12440000D02*
X16060000Y-12560000D01*
X16060000Y-12440000D02*
X15940000Y-12560000D01*
X16060000Y-12500000D02*
G75*
G03*
X16060000Y-12500000I-60000J0D01*
G01*
X18340000Y-8085000D02*
X18460000Y-8205000D01*
X18460000Y-8085000D02*
X18340000Y-8205000D01*
X18460000Y-8145000D02*
G75*
G03*
X18460000Y-8145000I-60000J0D01*
G01*
X18340000Y-8435000D02*
X18460000Y-8555000D01*
X18460000Y-8435000D02*
X18340000Y-8555000D01*
X18460000Y-8495000D02*
G75*
G03*
X18460000Y-8495000I-60000J0D01*
G01*
X18340000Y-9615000D02*
X18460000Y-9735000D01*
X18460000Y-9615000D02*
X18340000Y-9735000D01*
X18460000Y-9675000D02*
G75*
G03*
X18460000Y-9675000I-60000J0D01*
G01*
X18340000Y-9965000D02*
X18460000Y-10085000D01*
X18460000Y-9965000D02*
X18340000Y-10085000D01*
X18460000Y-10025000D02*
G75*
G03*
X18460000Y-10025000I-60000J0D01*
G01*
X18340000Y-11835000D02*
X18460000Y-11955000D01*
X18460000Y-11835000D02*
X18340000Y-11955000D01*
X18460000Y-11895000D02*
G75*
G03*
X18460000Y-11895000I-60000J0D01*
G01*
X18340000Y-12185000D02*
X18460000Y-12305000D01*
X18460000Y-12185000D02*
X18340000Y-12305000D01*
X18460000Y-12245000D02*
G75*
G03*
X18460000Y-12245000I-60000J0D01*
G01*
D10*
X10747619Y-13320476D02*
X10747619Y-13120476D01*
X10795238Y-13120476D01*
X10823810Y-13130000D01*
X10842857Y-13149048D01*
X10852381Y-13168095D01*
X10861905Y-13206190D01*
X10861905Y-13234762D01*
X10852381Y-13272857D01*
X10842857Y-13291905D01*
X10823810Y-13310952D01*
X10795238Y-13320476D01*
X10747619Y-13320476D01*
X10947619Y-13320476D02*
X10947619Y-13187143D01*
X10947619Y-13225238D02*
X10957143Y-13206190D01*
X10966667Y-13196667D01*
X10985714Y-13187143D01*
X11004762Y-13187143D01*
X11071429Y-13320476D02*
X11071429Y-13187143D01*
X11071429Y-13120476D02*
X11061905Y-13130000D01*
X11071429Y-13139524D01*
X11080952Y-13130000D01*
X11071429Y-13120476D01*
X11071429Y-13139524D01*
X11195238Y-13320476D02*
X11176190Y-13310952D01*
X11166667Y-13291905D01*
X11166667Y-13120476D01*
X11300000Y-13320476D02*
X11280952Y-13310952D01*
X11271428Y-13291905D01*
X11271428Y-13120476D01*
X11528571Y-13320476D02*
X11528571Y-13120476D01*
X11595238Y-13263333D01*
X11661905Y-13120476D01*
X11661905Y-13320476D01*
X11842857Y-13320476D02*
X11842857Y-13215714D01*
X11833333Y-13196667D01*
X11814286Y-13187143D01*
X11776190Y-13187143D01*
X11757143Y-13196667D01*
X11842857Y-13310952D02*
X11823809Y-13320476D01*
X11776190Y-13320476D01*
X11757143Y-13310952D01*
X11747619Y-13291905D01*
X11747619Y-13272857D01*
X11757143Y-13253809D01*
X11776190Y-13244286D01*
X11823809Y-13244286D01*
X11842857Y-13234762D01*
X11938095Y-13187143D02*
X11938095Y-13387143D01*
X11938095Y-13196667D02*
X11957143Y-13187143D01*
X11995238Y-13187143D01*
X12014286Y-13196667D01*
X12023809Y-13206190D01*
X12033333Y-13225238D01*
X12033333Y-13282381D01*
X12023809Y-13301428D01*
X12014286Y-13310952D01*
X11995238Y-13320476D01*
X11957143Y-13320476D01*
X11938095Y-13310952D01*
X12119048Y-13301428D02*
X12128571Y-13310952D01*
X12119048Y-13320476D01*
X12109524Y-13310952D01*
X12119048Y-13301428D01*
X12119048Y-13320476D01*
X12119048Y-13196667D02*
X12128571Y-13206190D01*
X12119048Y-13215714D01*
X12109524Y-13206190D01*
X12119048Y-13196667D01*
X12119048Y-13215714D01*
D11*
X10465000Y-13637500D02*
X10490000Y-13662500D01*
X10490000Y-13637500D02*
X10465000Y-13662500D01*
D10*
X10785714Y-13540476D02*
X10804762Y-13540476D01*
X10823810Y-13550000D01*
X10833333Y-13559524D01*
X10842857Y-13578571D01*
X10852381Y-13616667D01*
X10852381Y-13664286D01*
X10842857Y-13702381D01*
X10833333Y-13721428D01*
X10823810Y-13730952D01*
X10804762Y-13740476D01*
X10785714Y-13740476D01*
X10766667Y-13730952D01*
X10757143Y-13721428D01*
X10747619Y-13702381D01*
X10738095Y-13664286D01*
X10738095Y-13616667D01*
X10747619Y-13578571D01*
X10757143Y-13559524D01*
X10766667Y-13550000D01*
X10785714Y-13540476D01*
X10938095Y-13721428D02*
X10947619Y-13730952D01*
X10938095Y-13740476D01*
X10928571Y-13730952D01*
X10938095Y-13721428D01*
X10938095Y-13740476D01*
X11023810Y-13559524D02*
X11033333Y-13550000D01*
X11052381Y-13540476D01*
X11100000Y-13540476D01*
X11119048Y-13550000D01*
X11128571Y-13559524D01*
X11138095Y-13578571D01*
X11138095Y-13597619D01*
X11128571Y-13626190D01*
X11014286Y-13740476D01*
X11138095Y-13740476D01*
X11319048Y-13540476D02*
X11223809Y-13540476D01*
X11214286Y-13635714D01*
X11223809Y-13626190D01*
X11242857Y-13616667D01*
X11290476Y-13616667D01*
X11309524Y-13626190D01*
X11319048Y-13635714D01*
X11328571Y-13654762D01*
X11328571Y-13702381D01*
X11319048Y-13721428D01*
X11309524Y-13730952D01*
X11290476Y-13740476D01*
X11242857Y-13740476D01*
X11223809Y-13730952D01*
X11214286Y-13721428D01*
X11452381Y-13540476D02*
X11471428Y-13540476D01*
X11490476Y-13550000D01*
X11500000Y-13559524D01*
X11509524Y-13578571D01*
X11519048Y-13616667D01*
X11519048Y-13664286D01*
X11509524Y-13702381D01*
X11500000Y-13721428D01*
X11490476Y-13730952D01*
X11471428Y-13740476D01*
X11452381Y-13740476D01*
X11433333Y-13730952D01*
X11423809Y-13721428D01*
X11414286Y-13702381D01*
X11404762Y-13664286D01*
X11404762Y-13616667D01*
X11414286Y-13578571D01*
X11423809Y-13559524D01*
X11433333Y-13550000D01*
X11452381Y-13540476D01*
X11604762Y-13740476D02*
X11604762Y-13607143D01*
X11604762Y-13626190D02*
X11614286Y-13616667D01*
X11633333Y-13607143D01*
X11661905Y-13607143D01*
X11680952Y-13616667D01*
X11690476Y-13635714D01*
X11690476Y-13740476D01*
X11690476Y-13635714D02*
X11700000Y-13616667D01*
X11719048Y-13607143D01*
X11747619Y-13607143D01*
X11766667Y-13616667D01*
X11776190Y-13635714D01*
X11776190Y-13740476D01*
X11871428Y-13740476D02*
X11871428Y-13607143D01*
X11871428Y-13626190D02*
X11880952Y-13616667D01*
X11900000Y-13607143D01*
X11928571Y-13607143D01*
X11947619Y-13616667D01*
X11957143Y-13635714D01*
X11957143Y-13740476D01*
X11957143Y-13635714D02*
X11966667Y-13616667D01*
X11985714Y-13607143D01*
X12014286Y-13607143D01*
X12033333Y-13616667D01*
X12042857Y-13635714D01*
X12042857Y-13740476D01*
X12433333Y-13530952D02*
X12261905Y-13788095D01*
X12690476Y-13540476D02*
X12709524Y-13540476D01*
X12728571Y-13550000D01*
X12738095Y-13559524D01*
X12747619Y-13578571D01*
X12757143Y-13616667D01*
X12757143Y-13664286D01*
X12747619Y-13702381D01*
X12738095Y-13721428D01*
X12728571Y-13730952D01*
X12709524Y-13740476D01*
X12690476Y-13740476D01*
X12671428Y-13730952D01*
X12661905Y-13721428D01*
X12652381Y-13702381D01*
X12642857Y-13664286D01*
X12642857Y-13616667D01*
X12652381Y-13578571D01*
X12661905Y-13559524D01*
X12671428Y-13550000D01*
X12690476Y-13540476D01*
X12842857Y-13721428D02*
X12852381Y-13730952D01*
X12842857Y-13740476D01*
X12833333Y-13730952D01*
X12842857Y-13721428D01*
X12842857Y-13740476D01*
X12976190Y-13540476D02*
X12995238Y-13540476D01*
X13014286Y-13550000D01*
X13023809Y-13559524D01*
X13033333Y-13578571D01*
X13042857Y-13616667D01*
X13042857Y-13664286D01*
X13033333Y-13702381D01*
X13023809Y-13721428D01*
X13014286Y-13730952D01*
X12995238Y-13740476D01*
X12976190Y-13740476D01*
X12957143Y-13730952D01*
X12947619Y-13721428D01*
X12938095Y-13702381D01*
X12928571Y-13664286D01*
X12928571Y-13616667D01*
X12938095Y-13578571D01*
X12947619Y-13559524D01*
X12957143Y-13550000D01*
X12976190Y-13540476D01*
X13166667Y-13540476D02*
X13185714Y-13540476D01*
X13204762Y-13550000D01*
X13214286Y-13559524D01*
X13223809Y-13578571D01*
X13233333Y-13616667D01*
X13233333Y-13664286D01*
X13223809Y-13702381D01*
X13214286Y-13721428D01*
X13204762Y-13730952D01*
X13185714Y-13740476D01*
X13166667Y-13740476D01*
X13147619Y-13730952D01*
X13138095Y-13721428D01*
X13128571Y-13702381D01*
X13119048Y-13664286D01*
X13119048Y-13616667D01*
X13128571Y-13578571D01*
X13138095Y-13559524D01*
X13147619Y-13550000D01*
X13166667Y-13540476D01*
X13328571Y-13740476D02*
X13366667Y-13740476D01*
X13385714Y-13730952D01*
X13395238Y-13721428D01*
X13414286Y-13692857D01*
X13423809Y-13654762D01*
X13423809Y-13578571D01*
X13414286Y-13559524D01*
X13404762Y-13550000D01*
X13385714Y-13540476D01*
X13347619Y-13540476D01*
X13328571Y-13550000D01*
X13319048Y-13559524D01*
X13309524Y-13578571D01*
X13309524Y-13626190D01*
X13319048Y-13645238D01*
X13328571Y-13654762D01*
X13347619Y-13664286D01*
X13385714Y-13664286D01*
X13404762Y-13654762D01*
X13414286Y-13645238D01*
X13423809Y-13626190D01*
X13538095Y-13626190D02*
X13519048Y-13616667D01*
X13509524Y-13607143D01*
X13500000Y-13588095D01*
X13500000Y-13578571D01*
X13509524Y-13559524D01*
X13519048Y-13550000D01*
X13538095Y-13540476D01*
X13576190Y-13540476D01*
X13595238Y-13550000D01*
X13604762Y-13559524D01*
X13614286Y-13578571D01*
X13614286Y-13588095D01*
X13604762Y-13607143D01*
X13595238Y-13616667D01*
X13576190Y-13626190D01*
X13538095Y-13626190D01*
X13519048Y-13635714D01*
X13509524Y-13645238D01*
X13500000Y-13664286D01*
X13500000Y-13702381D01*
X13509524Y-13721428D01*
X13519048Y-13730952D01*
X13538095Y-13740476D01*
X13576190Y-13740476D01*
X13595238Y-13730952D01*
X13604762Y-13721428D01*
X13614286Y-13702381D01*
X13614286Y-13664286D01*
X13604762Y-13645238D01*
X13595238Y-13635714D01*
X13576190Y-13626190D01*
X13690476Y-13540476D02*
X13690476Y-13578571D01*
X13766667Y-13540476D02*
X13766667Y-13578571D01*
X14061905Y-13816667D02*
X14052381Y-13807143D01*
X14033333Y-13778571D01*
X14023809Y-13759524D01*
X14014286Y-13730952D01*
X14004762Y-13683333D01*
X14004762Y-13645238D01*
X14014286Y-13597619D01*
X14023809Y-13569048D01*
X14033333Y-13550000D01*
X14052381Y-13521428D01*
X14061905Y-13511905D01*
X14242857Y-13740476D02*
X14128571Y-13740476D01*
X14185714Y-13740476D02*
X14185714Y-13540476D01*
X14166667Y-13569048D01*
X14147619Y-13588095D01*
X14128571Y-13597619D01*
X14309524Y-13540476D02*
X14442857Y-13540476D01*
X14357143Y-13740476D01*
X14671428Y-13740476D02*
X14671428Y-13540476D01*
X14757143Y-13740476D02*
X14757143Y-13635714D01*
X14747619Y-13616667D01*
X14728571Y-13607143D01*
X14700000Y-13607143D01*
X14680952Y-13616667D01*
X14671428Y-13626190D01*
X14880952Y-13740476D02*
X14861905Y-13730952D01*
X14852381Y-13721428D01*
X14842857Y-13702381D01*
X14842857Y-13645238D01*
X14852381Y-13626190D01*
X14861905Y-13616667D01*
X14880952Y-13607143D01*
X14909524Y-13607143D01*
X14928571Y-13616667D01*
X14938095Y-13626190D01*
X14947619Y-13645238D01*
X14947619Y-13702381D01*
X14938095Y-13721428D01*
X14928571Y-13730952D01*
X14909524Y-13740476D01*
X14880952Y-13740476D01*
X15061905Y-13740476D02*
X15042857Y-13730952D01*
X15033333Y-13711905D01*
X15033333Y-13540476D01*
X15214286Y-13730952D02*
X15195238Y-13740476D01*
X15157143Y-13740476D01*
X15138095Y-13730952D01*
X15128571Y-13711905D01*
X15128571Y-13635714D01*
X15138095Y-13616667D01*
X15157143Y-13607143D01*
X15195238Y-13607143D01*
X15214286Y-13616667D01*
X15223809Y-13635714D01*
X15223809Y-13654762D01*
X15128571Y-13673809D01*
X15300000Y-13730952D02*
X15319048Y-13740476D01*
X15357143Y-13740476D01*
X15376190Y-13730952D01*
X15385714Y-13711905D01*
X15385714Y-13702381D01*
X15376190Y-13683333D01*
X15357143Y-13673809D01*
X15328571Y-13673809D01*
X15309524Y-13664286D01*
X15300000Y-13645238D01*
X15300000Y-13635714D01*
X15309524Y-13616667D01*
X15328571Y-13607143D01*
X15357143Y-13607143D01*
X15376190Y-13616667D01*
X15452381Y-13816667D02*
X15461905Y-13807143D01*
X15480952Y-13778571D01*
X15490476Y-13759524D01*
X15500000Y-13730952D01*
X15509524Y-13683333D01*
X15509524Y-13645238D01*
X15500000Y-13597619D01*
X15490476Y-13569048D01*
X15480952Y-13550000D01*
X15461905Y-13521428D01*
X15452381Y-13511905D01*
D12*
X10490000Y-13914000D02*
G75*
G03*
X10490000Y-13914000I-15000J0D01*
G01*
D10*
X10785714Y-13804476D02*
X10804762Y-13804476D01*
X10823810Y-13814000D01*
X10833333Y-13823524D01*
X10842857Y-13842571D01*
X10852381Y-13880667D01*
X10852381Y-13928286D01*
X10842857Y-13966381D01*
X10833333Y-13985428D01*
X10823810Y-13994952D01*
X10804762Y-14004476D01*
X10785714Y-14004476D01*
X10766667Y-13994952D01*
X10757143Y-13985428D01*
X10747619Y-13966381D01*
X10738095Y-13928286D01*
X10738095Y-13880667D01*
X10747619Y-13842571D01*
X10757143Y-13823524D01*
X10766667Y-13814000D01*
X10785714Y-13804476D01*
X10938095Y-13985428D02*
X10947619Y-13994952D01*
X10938095Y-14004476D01*
X10928571Y-13994952D01*
X10938095Y-13985428D01*
X10938095Y-14004476D01*
X11014286Y-13804476D02*
X11138095Y-13804476D01*
X11071429Y-13880667D01*
X11100000Y-13880667D01*
X11119048Y-13890190D01*
X11128571Y-13899714D01*
X11138095Y-13918762D01*
X11138095Y-13966381D01*
X11128571Y-13985428D01*
X11119048Y-13994952D01*
X11100000Y-14004476D01*
X11042857Y-14004476D01*
X11023810Y-13994952D01*
X11014286Y-13985428D01*
X11261905Y-13804476D02*
X11280952Y-13804476D01*
X11300000Y-13814000D01*
X11309524Y-13823524D01*
X11319048Y-13842571D01*
X11328571Y-13880667D01*
X11328571Y-13928286D01*
X11319048Y-13966381D01*
X11309524Y-13985428D01*
X11300000Y-13994952D01*
X11280952Y-14004476D01*
X11261905Y-14004476D01*
X11242857Y-13994952D01*
X11233333Y-13985428D01*
X11223809Y-13966381D01*
X11214286Y-13928286D01*
X11214286Y-13880667D01*
X11223809Y-13842571D01*
X11233333Y-13823524D01*
X11242857Y-13814000D01*
X11261905Y-13804476D01*
X11452381Y-13804476D02*
X11471428Y-13804476D01*
X11490476Y-13814000D01*
X11500000Y-13823524D01*
X11509524Y-13842571D01*
X11519048Y-13880667D01*
X11519048Y-13928286D01*
X11509524Y-13966381D01*
X11500000Y-13985428D01*
X11490476Y-13994952D01*
X11471428Y-14004476D01*
X11452381Y-14004476D01*
X11433333Y-13994952D01*
X11423809Y-13985428D01*
X11414286Y-13966381D01*
X11404762Y-13928286D01*
X11404762Y-13880667D01*
X11414286Y-13842571D01*
X11423809Y-13823524D01*
X11433333Y-13814000D01*
X11452381Y-13804476D01*
X11604762Y-14004476D02*
X11604762Y-13871143D01*
X11604762Y-13890190D02*
X11614286Y-13880667D01*
X11633333Y-13871143D01*
X11661905Y-13871143D01*
X11680952Y-13880667D01*
X11690476Y-13899714D01*
X11690476Y-14004476D01*
X11690476Y-13899714D02*
X11700000Y-13880667D01*
X11719048Y-13871143D01*
X11747619Y-13871143D01*
X11766667Y-13880667D01*
X11776190Y-13899714D01*
X11776190Y-14004476D01*
X11871428Y-14004476D02*
X11871428Y-13871143D01*
X11871428Y-13890190D02*
X11880952Y-13880667D01*
X11900000Y-13871143D01*
X11928571Y-13871143D01*
X11947619Y-13880667D01*
X11957143Y-13899714D01*
X11957143Y-14004476D01*
X11957143Y-13899714D02*
X11966667Y-13880667D01*
X11985714Y-13871143D01*
X12014286Y-13871143D01*
X12033333Y-13880667D01*
X12042857Y-13899714D01*
X12042857Y-14004476D01*
X12433333Y-13794952D02*
X12261905Y-14052095D01*
X12690476Y-13804476D02*
X12709524Y-13804476D01*
X12728571Y-13814000D01*
X12738095Y-13823524D01*
X12747619Y-13842571D01*
X12757143Y-13880667D01*
X12757143Y-13928286D01*
X12747619Y-13966381D01*
X12738095Y-13985428D01*
X12728571Y-13994952D01*
X12709524Y-14004476D01*
X12690476Y-14004476D01*
X12671428Y-13994952D01*
X12661905Y-13985428D01*
X12652381Y-13966381D01*
X12642857Y-13928286D01*
X12642857Y-13880667D01*
X12652381Y-13842571D01*
X12661905Y-13823524D01*
X12671428Y-13814000D01*
X12690476Y-13804476D01*
X12842857Y-13985428D02*
X12852381Y-13994952D01*
X12842857Y-14004476D01*
X12833333Y-13994952D01*
X12842857Y-13985428D01*
X12842857Y-14004476D01*
X12976190Y-13804476D02*
X12995238Y-13804476D01*
X13014286Y-13814000D01*
X13023809Y-13823524D01*
X13033333Y-13842571D01*
X13042857Y-13880667D01*
X13042857Y-13928286D01*
X13033333Y-13966381D01*
X13023809Y-13985428D01*
X13014286Y-13994952D01*
X12995238Y-14004476D01*
X12976190Y-14004476D01*
X12957143Y-13994952D01*
X12947619Y-13985428D01*
X12938095Y-13966381D01*
X12928571Y-13928286D01*
X12928571Y-13880667D01*
X12938095Y-13842571D01*
X12947619Y-13823524D01*
X12957143Y-13814000D01*
X12976190Y-13804476D01*
X13233333Y-14004476D02*
X13119048Y-14004476D01*
X13176190Y-14004476D02*
X13176190Y-13804476D01*
X13157143Y-13833048D01*
X13138095Y-13852095D01*
X13119048Y-13861619D01*
X13423809Y-14004476D02*
X13309524Y-14004476D01*
X13366667Y-14004476D02*
X13366667Y-13804476D01*
X13347619Y-13833048D01*
X13328571Y-13852095D01*
X13309524Y-13861619D01*
X13538095Y-13890190D02*
X13519048Y-13880667D01*
X13509524Y-13871143D01*
X13500000Y-13852095D01*
X13500000Y-13842571D01*
X13509524Y-13823524D01*
X13519048Y-13814000D01*
X13538095Y-13804476D01*
X13576190Y-13804476D01*
X13595238Y-13814000D01*
X13604762Y-13823524D01*
X13614286Y-13842571D01*
X13614286Y-13852095D01*
X13604762Y-13871143D01*
X13595238Y-13880667D01*
X13576190Y-13890190D01*
X13538095Y-13890190D01*
X13519048Y-13899714D01*
X13509524Y-13909238D01*
X13500000Y-13928286D01*
X13500000Y-13966381D01*
X13509524Y-13985428D01*
X13519048Y-13994952D01*
X13538095Y-14004476D01*
X13576190Y-14004476D01*
X13595238Y-13994952D01*
X13604762Y-13985428D01*
X13614286Y-13966381D01*
X13614286Y-13928286D01*
X13604762Y-13909238D01*
X13595238Y-13899714D01*
X13576190Y-13890190D01*
X13690476Y-13804476D02*
X13690476Y-13842571D01*
X13766667Y-13804476D02*
X13766667Y-13842571D01*
X14061905Y-14080667D02*
X14052381Y-14071143D01*
X14033333Y-14042571D01*
X14023809Y-14023524D01*
X14014286Y-13994952D01*
X14004762Y-13947333D01*
X14004762Y-13909238D01*
X14014286Y-13861619D01*
X14023809Y-13833048D01*
X14033333Y-13814000D01*
X14052381Y-13785428D01*
X14061905Y-13775905D01*
X14128571Y-13823524D02*
X14138095Y-13814000D01*
X14157143Y-13804476D01*
X14204762Y-13804476D01*
X14223809Y-13814000D01*
X14233333Y-13823524D01*
X14242857Y-13842571D01*
X14242857Y-13861619D01*
X14233333Y-13890190D01*
X14119048Y-14004476D01*
X14242857Y-14004476D01*
X14357143Y-13890190D02*
X14338095Y-13880667D01*
X14328571Y-13871143D01*
X14319048Y-13852095D01*
X14319048Y-13842571D01*
X14328571Y-13823524D01*
X14338095Y-13814000D01*
X14357143Y-13804476D01*
X14395238Y-13804476D01*
X14414286Y-13814000D01*
X14423809Y-13823524D01*
X14433333Y-13842571D01*
X14433333Y-13852095D01*
X14423809Y-13871143D01*
X14414286Y-13880667D01*
X14395238Y-13890190D01*
X14357143Y-13890190D01*
X14338095Y-13899714D01*
X14328571Y-13909238D01*
X14319048Y-13928286D01*
X14319048Y-13966381D01*
X14328571Y-13985428D01*
X14338095Y-13994952D01*
X14357143Y-14004476D01*
X14395238Y-14004476D01*
X14414286Y-13994952D01*
X14423809Y-13985428D01*
X14433333Y-13966381D01*
X14433333Y-13928286D01*
X14423809Y-13909238D01*
X14414286Y-13899714D01*
X14395238Y-13890190D01*
X14528571Y-14004476D02*
X14566667Y-14004476D01*
X14585714Y-13994952D01*
X14595238Y-13985428D01*
X14614286Y-13956857D01*
X14623809Y-13918762D01*
X14623809Y-13842571D01*
X14614286Y-13823524D01*
X14604762Y-13814000D01*
X14585714Y-13804476D01*
X14547619Y-13804476D01*
X14528571Y-13814000D01*
X14519048Y-13823524D01*
X14509524Y-13842571D01*
X14509524Y-13890190D01*
X14519048Y-13909238D01*
X14528571Y-13918762D01*
X14547619Y-13928286D01*
X14585714Y-13928286D01*
X14604762Y-13918762D01*
X14614286Y-13909238D01*
X14623809Y-13890190D01*
X14861905Y-14004476D02*
X14861905Y-13804476D01*
X14947619Y-14004476D02*
X14947619Y-13899714D01*
X14938095Y-13880667D01*
X14919048Y-13871143D01*
X14890476Y-13871143D01*
X14871428Y-13880667D01*
X14861905Y-13890190D01*
X15071428Y-14004476D02*
X15052381Y-13994952D01*
X15042857Y-13985428D01*
X15033333Y-13966381D01*
X15033333Y-13909238D01*
X15042857Y-13890190D01*
X15052381Y-13880667D01*
X15071428Y-13871143D01*
X15100000Y-13871143D01*
X15119048Y-13880667D01*
X15128571Y-13890190D01*
X15138095Y-13909238D01*
X15138095Y-13966381D01*
X15128571Y-13985428D01*
X15119048Y-13994952D01*
X15100000Y-14004476D01*
X15071428Y-14004476D01*
X15252381Y-14004476D02*
X15233333Y-13994952D01*
X15223809Y-13975905D01*
X15223809Y-13804476D01*
X15404762Y-13994952D02*
X15385714Y-14004476D01*
X15347619Y-14004476D01*
X15328571Y-13994952D01*
X15319048Y-13975905D01*
X15319048Y-13899714D01*
X15328571Y-13880667D01*
X15347619Y-13871143D01*
X15385714Y-13871143D01*
X15404762Y-13880667D01*
X15414286Y-13899714D01*
X15414286Y-13918762D01*
X15319048Y-13937809D01*
X15490476Y-13994952D02*
X15509524Y-14004476D01*
X15547619Y-14004476D01*
X15566667Y-13994952D01*
X15576190Y-13975905D01*
X15576190Y-13966381D01*
X15566667Y-13947333D01*
X15547619Y-13937809D01*
X15519048Y-13937809D01*
X15500000Y-13928286D01*
X15490476Y-13909238D01*
X15490476Y-13899714D01*
X15500000Y-13880667D01*
X15519048Y-13871143D01*
X15547619Y-13871143D01*
X15566667Y-13880667D01*
X15642857Y-14080667D02*
X15652381Y-14071143D01*
X15671428Y-14042571D01*
X15680952Y-14023524D01*
X15690476Y-13994952D01*
X15700000Y-13947333D01*
X15700000Y-13909238D01*
X15690476Y-13861619D01*
X15680952Y-13833048D01*
X15671428Y-13814000D01*
X15652381Y-13785428D01*
X15642857Y-13775905D01*
D12*
X10475000Y-14163000D02*
X10475000Y-14193000D01*
X10460000Y-14178000D02*
X10490000Y-14178000D01*
D10*
X10785714Y-14068476D02*
X10804762Y-14068476D01*
X10823810Y-14078000D01*
X10833333Y-14087524D01*
X10842857Y-14106571D01*
X10852381Y-14144667D01*
X10852381Y-14192286D01*
X10842857Y-14230381D01*
X10833333Y-14249428D01*
X10823810Y-14258952D01*
X10804762Y-14268476D01*
X10785714Y-14268476D01*
X10766667Y-14258952D01*
X10757143Y-14249428D01*
X10747619Y-14230381D01*
X10738095Y-14192286D01*
X10738095Y-14144667D01*
X10747619Y-14106571D01*
X10757143Y-14087524D01*
X10766667Y-14078000D01*
X10785714Y-14068476D01*
X10938095Y-14249428D02*
X10947619Y-14258952D01*
X10938095Y-14268476D01*
X10928571Y-14258952D01*
X10938095Y-14249428D01*
X10938095Y-14268476D01*
X11014286Y-14068476D02*
X11138095Y-14068476D01*
X11071429Y-14144667D01*
X11100000Y-14144667D01*
X11119048Y-14154190D01*
X11128571Y-14163714D01*
X11138095Y-14182762D01*
X11138095Y-14230381D01*
X11128571Y-14249428D01*
X11119048Y-14258952D01*
X11100000Y-14268476D01*
X11042857Y-14268476D01*
X11023810Y-14258952D01*
X11014286Y-14249428D01*
X11261905Y-14068476D02*
X11280952Y-14068476D01*
X11300000Y-14078000D01*
X11309524Y-14087524D01*
X11319048Y-14106571D01*
X11328571Y-14144667D01*
X11328571Y-14192286D01*
X11319048Y-14230381D01*
X11309524Y-14249428D01*
X11300000Y-14258952D01*
X11280952Y-14268476D01*
X11261905Y-14268476D01*
X11242857Y-14258952D01*
X11233333Y-14249428D01*
X11223809Y-14230381D01*
X11214286Y-14192286D01*
X11214286Y-14144667D01*
X11223809Y-14106571D01*
X11233333Y-14087524D01*
X11242857Y-14078000D01*
X11261905Y-14068476D01*
X11452381Y-14068476D02*
X11471428Y-14068476D01*
X11490476Y-14078000D01*
X11500000Y-14087524D01*
X11509524Y-14106571D01*
X11519048Y-14144667D01*
X11519048Y-14192286D01*
X11509524Y-14230381D01*
X11500000Y-14249428D01*
X11490476Y-14258952D01*
X11471428Y-14268476D01*
X11452381Y-14268476D01*
X11433333Y-14258952D01*
X11423809Y-14249428D01*
X11414286Y-14230381D01*
X11404762Y-14192286D01*
X11404762Y-14144667D01*
X11414286Y-14106571D01*
X11423809Y-14087524D01*
X11433333Y-14078000D01*
X11452381Y-14068476D01*
X11604762Y-14268476D02*
X11604762Y-14135143D01*
X11604762Y-14154190D02*
X11614286Y-14144667D01*
X11633333Y-14135143D01*
X11661905Y-14135143D01*
X11680952Y-14144667D01*
X11690476Y-14163714D01*
X11690476Y-14268476D01*
X11690476Y-14163714D02*
X11700000Y-14144667D01*
X11719048Y-14135143D01*
X11747619Y-14135143D01*
X11766667Y-14144667D01*
X11776190Y-14163714D01*
X11776190Y-14268476D01*
X11871428Y-14268476D02*
X11871428Y-14135143D01*
X11871428Y-14154190D02*
X11880952Y-14144667D01*
X11900000Y-14135143D01*
X11928571Y-14135143D01*
X11947619Y-14144667D01*
X11957143Y-14163714D01*
X11957143Y-14268476D01*
X11957143Y-14163714D02*
X11966667Y-14144667D01*
X11985714Y-14135143D01*
X12014286Y-14135143D01*
X12033333Y-14144667D01*
X12042857Y-14163714D01*
X12042857Y-14268476D01*
X12433333Y-14058952D02*
X12261905Y-14316095D01*
X12690476Y-14068476D02*
X12709524Y-14068476D01*
X12728571Y-14078000D01*
X12738095Y-14087524D01*
X12747619Y-14106571D01*
X12757143Y-14144667D01*
X12757143Y-14192286D01*
X12747619Y-14230381D01*
X12738095Y-14249428D01*
X12728571Y-14258952D01*
X12709524Y-14268476D01*
X12690476Y-14268476D01*
X12671428Y-14258952D01*
X12661905Y-14249428D01*
X12652381Y-14230381D01*
X12642857Y-14192286D01*
X12642857Y-14144667D01*
X12652381Y-14106571D01*
X12661905Y-14087524D01*
X12671428Y-14078000D01*
X12690476Y-14068476D01*
X12842857Y-14249428D02*
X12852381Y-14258952D01*
X12842857Y-14268476D01*
X12833333Y-14258952D01*
X12842857Y-14249428D01*
X12842857Y-14268476D01*
X12976190Y-14068476D02*
X12995238Y-14068476D01*
X13014286Y-14078000D01*
X13023809Y-14087524D01*
X13033333Y-14106571D01*
X13042857Y-14144667D01*
X13042857Y-14192286D01*
X13033333Y-14230381D01*
X13023809Y-14249428D01*
X13014286Y-14258952D01*
X12995238Y-14268476D01*
X12976190Y-14268476D01*
X12957143Y-14258952D01*
X12947619Y-14249428D01*
X12938095Y-14230381D01*
X12928571Y-14192286D01*
X12928571Y-14144667D01*
X12938095Y-14106571D01*
X12947619Y-14087524D01*
X12957143Y-14078000D01*
X12976190Y-14068476D01*
X13233333Y-14268476D02*
X13119048Y-14268476D01*
X13176190Y-14268476D02*
X13176190Y-14068476D01*
X13157143Y-14097048D01*
X13138095Y-14116095D01*
X13119048Y-14125619D01*
X13423809Y-14268476D02*
X13309524Y-14268476D01*
X13366667Y-14268476D02*
X13366667Y-14068476D01*
X13347619Y-14097048D01*
X13328571Y-14116095D01*
X13309524Y-14125619D01*
X13538095Y-14154190D02*
X13519048Y-14144667D01*
X13509524Y-14135143D01*
X13500000Y-14116095D01*
X13500000Y-14106571D01*
X13509524Y-14087524D01*
X13519048Y-14078000D01*
X13538095Y-14068476D01*
X13576190Y-14068476D01*
X13595238Y-14078000D01*
X13604762Y-14087524D01*
X13614286Y-14106571D01*
X13614286Y-14116095D01*
X13604762Y-14135143D01*
X13595238Y-14144667D01*
X13576190Y-14154190D01*
X13538095Y-14154190D01*
X13519048Y-14163714D01*
X13509524Y-14173238D01*
X13500000Y-14192286D01*
X13500000Y-14230381D01*
X13509524Y-14249428D01*
X13519048Y-14258952D01*
X13538095Y-14268476D01*
X13576190Y-14268476D01*
X13595238Y-14258952D01*
X13604762Y-14249428D01*
X13614286Y-14230381D01*
X13614286Y-14192286D01*
X13604762Y-14173238D01*
X13595238Y-14163714D01*
X13576190Y-14154190D01*
X13690476Y-14068476D02*
X13690476Y-14106571D01*
X13766667Y-14068476D02*
X13766667Y-14106571D01*
X14061905Y-14344667D02*
X14052381Y-14335143D01*
X14033333Y-14306571D01*
X14023809Y-14287524D01*
X14014286Y-14258952D01*
X14004762Y-14211333D01*
X14004762Y-14173238D01*
X14014286Y-14125619D01*
X14023809Y-14097048D01*
X14033333Y-14078000D01*
X14052381Y-14049428D01*
X14061905Y-14039905D01*
X14242857Y-14268476D02*
X14128571Y-14268476D01*
X14185714Y-14268476D02*
X14185714Y-14068476D01*
X14166667Y-14097048D01*
X14147619Y-14116095D01*
X14128571Y-14125619D01*
X14423809Y-14068476D02*
X14328571Y-14068476D01*
X14319048Y-14163714D01*
X14328571Y-14154190D01*
X14347619Y-14144667D01*
X14395238Y-14144667D01*
X14414286Y-14154190D01*
X14423809Y-14163714D01*
X14433333Y-14182762D01*
X14433333Y-14230381D01*
X14423809Y-14249428D01*
X14414286Y-14258952D01*
X14395238Y-14268476D01*
X14347619Y-14268476D01*
X14328571Y-14258952D01*
X14319048Y-14249428D01*
X14671428Y-14268476D02*
X14671428Y-14068476D01*
X14757143Y-14268476D02*
X14757143Y-14163714D01*
X14747619Y-14144667D01*
X14728571Y-14135143D01*
X14700000Y-14135143D01*
X14680952Y-14144667D01*
X14671428Y-14154190D01*
X14880952Y-14268476D02*
X14861905Y-14258952D01*
X14852381Y-14249428D01*
X14842857Y-14230381D01*
X14842857Y-14173238D01*
X14852381Y-14154190D01*
X14861905Y-14144667D01*
X14880952Y-14135143D01*
X14909524Y-14135143D01*
X14928571Y-14144667D01*
X14938095Y-14154190D01*
X14947619Y-14173238D01*
X14947619Y-14230381D01*
X14938095Y-14249428D01*
X14928571Y-14258952D01*
X14909524Y-14268476D01*
X14880952Y-14268476D01*
X15061905Y-14268476D02*
X15042857Y-14258952D01*
X15033333Y-14239905D01*
X15033333Y-14068476D01*
X15214286Y-14258952D02*
X15195238Y-14268476D01*
X15157143Y-14268476D01*
X15138095Y-14258952D01*
X15128571Y-14239905D01*
X15128571Y-14163714D01*
X15138095Y-14144667D01*
X15157143Y-14135143D01*
X15195238Y-14135143D01*
X15214286Y-14144667D01*
X15223809Y-14163714D01*
X15223809Y-14182762D01*
X15128571Y-14201809D01*
X15300000Y-14258952D02*
X15319048Y-14268476D01*
X15357143Y-14268476D01*
X15376190Y-14258952D01*
X15385714Y-14239905D01*
X15385714Y-14230381D01*
X15376190Y-14211333D01*
X15357143Y-14201809D01*
X15328571Y-14201809D01*
X15309524Y-14192286D01*
X15300000Y-14173238D01*
X15300000Y-14163714D01*
X15309524Y-14144667D01*
X15328571Y-14135143D01*
X15357143Y-14135143D01*
X15376190Y-14144667D01*
X15452381Y-14344667D02*
X15461905Y-14335143D01*
X15480952Y-14306571D01*
X15490476Y-14287524D01*
X15500000Y-14258952D01*
X15509524Y-14211333D01*
X15509524Y-14173238D01*
X15500000Y-14125619D01*
X15490476Y-14097048D01*
X15480952Y-14078000D01*
X15461905Y-14049428D01*
X15452381Y-14039905D01*
D13*
X10481213Y-14463213D02*
X10481213Y-14420787D01*
X10438787Y-14420787D01*
X10438787Y-14463213D01*
X10481213Y-14463213D01*
D10*
X10785714Y-14332476D02*
X10804762Y-14332476D01*
X10823810Y-14342000D01*
X10833333Y-14351524D01*
X10842857Y-14370571D01*
X10852381Y-14408667D01*
X10852381Y-14456286D01*
X10842857Y-14494381D01*
X10833333Y-14513428D01*
X10823810Y-14522952D01*
X10804762Y-14532476D01*
X10785714Y-14532476D01*
X10766667Y-14522952D01*
X10757143Y-14513428D01*
X10747619Y-14494381D01*
X10738095Y-14456286D01*
X10738095Y-14408667D01*
X10747619Y-14370571D01*
X10757143Y-14351524D01*
X10766667Y-14342000D01*
X10785714Y-14332476D01*
X10938095Y-14513428D02*
X10947619Y-14522952D01*
X10938095Y-14532476D01*
X10928571Y-14522952D01*
X10938095Y-14513428D01*
X10938095Y-14532476D01*
X11119048Y-14332476D02*
X11080952Y-14332476D01*
X11061905Y-14342000D01*
X11052381Y-14351524D01*
X11033333Y-14380095D01*
X11023810Y-14418190D01*
X11023810Y-14494381D01*
X11033333Y-14513428D01*
X11042857Y-14522952D01*
X11061905Y-14532476D01*
X11100000Y-14532476D01*
X11119048Y-14522952D01*
X11128571Y-14513428D01*
X11138095Y-14494381D01*
X11138095Y-14446762D01*
X11128571Y-14427714D01*
X11119048Y-14418190D01*
X11100000Y-14408667D01*
X11061905Y-14408667D01*
X11042857Y-14418190D01*
X11033333Y-14427714D01*
X11023810Y-14446762D01*
X11261905Y-14332476D02*
X11280952Y-14332476D01*
X11300000Y-14342000D01*
X11309524Y-14351524D01*
X11319048Y-14370571D01*
X11328571Y-14408667D01*
X11328571Y-14456286D01*
X11319048Y-14494381D01*
X11309524Y-14513428D01*
X11300000Y-14522952D01*
X11280952Y-14532476D01*
X11261905Y-14532476D01*
X11242857Y-14522952D01*
X11233333Y-14513428D01*
X11223809Y-14494381D01*
X11214286Y-14456286D01*
X11214286Y-14408667D01*
X11223809Y-14370571D01*
X11233333Y-14351524D01*
X11242857Y-14342000D01*
X11261905Y-14332476D01*
X11452381Y-14332476D02*
X11471428Y-14332476D01*
X11490476Y-14342000D01*
X11500000Y-14351524D01*
X11509524Y-14370571D01*
X11519048Y-14408667D01*
X11519048Y-14456286D01*
X11509524Y-14494381D01*
X11500000Y-14513428D01*
X11490476Y-14522952D01*
X11471428Y-14532476D01*
X11452381Y-14532476D01*
X11433333Y-14522952D01*
X11423809Y-14513428D01*
X11414286Y-14494381D01*
X11404762Y-14456286D01*
X11404762Y-14408667D01*
X11414286Y-14370571D01*
X11423809Y-14351524D01*
X11433333Y-14342000D01*
X11452381Y-14332476D01*
X11604762Y-14532476D02*
X11604762Y-14399143D01*
X11604762Y-14418190D02*
X11614286Y-14408667D01*
X11633333Y-14399143D01*
X11661905Y-14399143D01*
X11680952Y-14408667D01*
X11690476Y-14427714D01*
X11690476Y-14532476D01*
X11690476Y-14427714D02*
X11700000Y-14408667D01*
X11719048Y-14399143D01*
X11747619Y-14399143D01*
X11766667Y-14408667D01*
X11776190Y-14427714D01*
X11776190Y-14532476D01*
X11871428Y-14532476D02*
X11871428Y-14399143D01*
X11871428Y-14418190D02*
X11880952Y-14408667D01*
X11900000Y-14399143D01*
X11928571Y-14399143D01*
X11947619Y-14408667D01*
X11957143Y-14427714D01*
X11957143Y-14532476D01*
X11957143Y-14427714D02*
X11966667Y-14408667D01*
X11985714Y-14399143D01*
X12014286Y-14399143D01*
X12033333Y-14408667D01*
X12042857Y-14427714D01*
X12042857Y-14532476D01*
X12433333Y-14322952D02*
X12261905Y-14580095D01*
X12690476Y-14332476D02*
X12709524Y-14332476D01*
X12728571Y-14342000D01*
X12738095Y-14351524D01*
X12747619Y-14370571D01*
X12757143Y-14408667D01*
X12757143Y-14456286D01*
X12747619Y-14494381D01*
X12738095Y-14513428D01*
X12728571Y-14522952D01*
X12709524Y-14532476D01*
X12690476Y-14532476D01*
X12671428Y-14522952D01*
X12661905Y-14513428D01*
X12652381Y-14494381D01*
X12642857Y-14456286D01*
X12642857Y-14408667D01*
X12652381Y-14370571D01*
X12661905Y-14351524D01*
X12671428Y-14342000D01*
X12690476Y-14332476D01*
X12842857Y-14513428D02*
X12852381Y-14522952D01*
X12842857Y-14532476D01*
X12833333Y-14522952D01*
X12842857Y-14513428D01*
X12842857Y-14532476D01*
X12976190Y-14332476D02*
X12995238Y-14332476D01*
X13014286Y-14342000D01*
X13023809Y-14351524D01*
X13033333Y-14370571D01*
X13042857Y-14408667D01*
X13042857Y-14456286D01*
X13033333Y-14494381D01*
X13023809Y-14513428D01*
X13014286Y-14522952D01*
X12995238Y-14532476D01*
X12976190Y-14532476D01*
X12957143Y-14522952D01*
X12947619Y-14513428D01*
X12938095Y-14494381D01*
X12928571Y-14456286D01*
X12928571Y-14408667D01*
X12938095Y-14370571D01*
X12947619Y-14351524D01*
X12957143Y-14342000D01*
X12976190Y-14332476D01*
X13119048Y-14351524D02*
X13128571Y-14342000D01*
X13147619Y-14332476D01*
X13195238Y-14332476D01*
X13214286Y-14342000D01*
X13223809Y-14351524D01*
X13233333Y-14370571D01*
X13233333Y-14389619D01*
X13223809Y-14418190D01*
X13109524Y-14532476D01*
X13233333Y-14532476D01*
X13300000Y-14332476D02*
X13423809Y-14332476D01*
X13357143Y-14408667D01*
X13385714Y-14408667D01*
X13404762Y-14418190D01*
X13414286Y-14427714D01*
X13423809Y-14446762D01*
X13423809Y-14494381D01*
X13414286Y-14513428D01*
X13404762Y-14522952D01*
X13385714Y-14532476D01*
X13328571Y-14532476D01*
X13309524Y-14522952D01*
X13300000Y-14513428D01*
X13595238Y-14332476D02*
X13557143Y-14332476D01*
X13538095Y-14342000D01*
X13528571Y-14351524D01*
X13509524Y-14380095D01*
X13500000Y-14418190D01*
X13500000Y-14494381D01*
X13509524Y-14513428D01*
X13519048Y-14522952D01*
X13538095Y-14532476D01*
X13576190Y-14532476D01*
X13595238Y-14522952D01*
X13604762Y-14513428D01*
X13614286Y-14494381D01*
X13614286Y-14446762D01*
X13604762Y-14427714D01*
X13595238Y-14418190D01*
X13576190Y-14408667D01*
X13538095Y-14408667D01*
X13519048Y-14418190D01*
X13509524Y-14427714D01*
X13500000Y-14446762D01*
X13690476Y-14332476D02*
X13690476Y-14370571D01*
X13766667Y-14332476D02*
X13766667Y-14370571D01*
X14061905Y-14608667D02*
X14052381Y-14599143D01*
X14033333Y-14570571D01*
X14023809Y-14551524D01*
X14014286Y-14522952D01*
X14004762Y-14475333D01*
X14004762Y-14437238D01*
X14014286Y-14389619D01*
X14023809Y-14361048D01*
X14033333Y-14342000D01*
X14052381Y-14313428D01*
X14061905Y-14303905D01*
X14176190Y-14332476D02*
X14195238Y-14332476D01*
X14214286Y-14342000D01*
X14223809Y-14351524D01*
X14233333Y-14370571D01*
X14242857Y-14408667D01*
X14242857Y-14456286D01*
X14233333Y-14494381D01*
X14223809Y-14513428D01*
X14214286Y-14522952D01*
X14195238Y-14532476D01*
X14176190Y-14532476D01*
X14157143Y-14522952D01*
X14147619Y-14513428D01*
X14138095Y-14494381D01*
X14128571Y-14456286D01*
X14128571Y-14408667D01*
X14138095Y-14370571D01*
X14147619Y-14351524D01*
X14157143Y-14342000D01*
X14176190Y-14332476D01*
X14480952Y-14532476D02*
X14480952Y-14332476D01*
X14566667Y-14532476D02*
X14566667Y-14427714D01*
X14557143Y-14408667D01*
X14538095Y-14399143D01*
X14509524Y-14399143D01*
X14490476Y-14408667D01*
X14480952Y-14418190D01*
X14690476Y-14532476D02*
X14671428Y-14522952D01*
X14661905Y-14513428D01*
X14652381Y-14494381D01*
X14652381Y-14437238D01*
X14661905Y-14418190D01*
X14671428Y-14408667D01*
X14690476Y-14399143D01*
X14719048Y-14399143D01*
X14738095Y-14408667D01*
X14747619Y-14418190D01*
X14757143Y-14437238D01*
X14757143Y-14494381D01*
X14747619Y-14513428D01*
X14738095Y-14522952D01*
X14719048Y-14532476D01*
X14690476Y-14532476D01*
X14871428Y-14532476D02*
X14852381Y-14522952D01*
X14842857Y-14503905D01*
X14842857Y-14332476D01*
X15023809Y-14522952D02*
X15004762Y-14532476D01*
X14966667Y-14532476D01*
X14947619Y-14522952D01*
X14938095Y-14503905D01*
X14938095Y-14427714D01*
X14947619Y-14408667D01*
X14966667Y-14399143D01*
X15004762Y-14399143D01*
X15023809Y-14408667D01*
X15033333Y-14427714D01*
X15033333Y-14446762D01*
X14938095Y-14465809D01*
X15109524Y-14522952D02*
X15128571Y-14532476D01*
X15166667Y-14532476D01*
X15185714Y-14522952D01*
X15195238Y-14503905D01*
X15195238Y-14494381D01*
X15185714Y-14475333D01*
X15166667Y-14465809D01*
X15138095Y-14465809D01*
X15119048Y-14456286D01*
X15109524Y-14437238D01*
X15109524Y-14427714D01*
X15119048Y-14408667D01*
X15138095Y-14399143D01*
X15166667Y-14399143D01*
X15185714Y-14408667D01*
X15433333Y-14456286D02*
X15585714Y-14456286D01*
X15509524Y-14532476D02*
X15509524Y-14380095D01*
X15919048Y-14399143D02*
X15919048Y-14532476D01*
X15871428Y-14322952D02*
X15823809Y-14465809D01*
X15947619Y-14465809D01*
X16166667Y-14522952D02*
X16185714Y-14532476D01*
X16223809Y-14532476D01*
X16242857Y-14522952D01*
X16252381Y-14503905D01*
X16252381Y-14494381D01*
X16242857Y-14475333D01*
X16223809Y-14465809D01*
X16195238Y-14465809D01*
X16176190Y-14456286D01*
X16166667Y-14437238D01*
X16166667Y-14427714D01*
X16176190Y-14408667D01*
X16195238Y-14399143D01*
X16223809Y-14399143D01*
X16242857Y-14408667D01*
X16366667Y-14532476D02*
X16347619Y-14522952D01*
X16338095Y-14503905D01*
X16338095Y-14332476D01*
X16471428Y-14532476D02*
X16452381Y-14522952D01*
X16442857Y-14513428D01*
X16433333Y-14494381D01*
X16433333Y-14437238D01*
X16442857Y-14418190D01*
X16452381Y-14408667D01*
X16471428Y-14399143D01*
X16500000Y-14399143D01*
X16519048Y-14408667D01*
X16528571Y-14418190D01*
X16538095Y-14437238D01*
X16538095Y-14494381D01*
X16528571Y-14513428D01*
X16519048Y-14522952D01*
X16500000Y-14532476D01*
X16471428Y-14532476D01*
X16595238Y-14399143D02*
X16671428Y-14399143D01*
X16623809Y-14332476D02*
X16623809Y-14503905D01*
X16633333Y-14522952D01*
X16652381Y-14532476D01*
X16671428Y-14532476D01*
X16728571Y-14522952D02*
X16747619Y-14532476D01*
X16785714Y-14532476D01*
X16804762Y-14522952D01*
X16814286Y-14503905D01*
X16814286Y-14494381D01*
X16804762Y-14475333D01*
X16785714Y-14465809D01*
X16757143Y-14465809D01*
X16738095Y-14456286D01*
X16728571Y-14437238D01*
X16728571Y-14427714D01*
X16738095Y-14408667D01*
X16757143Y-14399143D01*
X16785714Y-14399143D01*
X16804762Y-14408667D01*
X16880952Y-14608667D02*
X16890476Y-14599143D01*
X16909524Y-14570571D01*
X16919048Y-14551524D01*
X16928571Y-14522952D01*
X16938095Y-14475333D01*
X16938095Y-14437238D01*
X16928571Y-14389619D01*
X16919048Y-14361048D01*
X16909524Y-14342000D01*
X16890476Y-14313428D01*
X16880952Y-14303905D01*
D14*
X10440000Y-14756000D02*
X10490000Y-14706000D01*
X10440000Y-14656000D01*
X10390000Y-14706000D01*
X10440000Y-14756000D01*
D10*
X10852381Y-14796476D02*
X10738095Y-14796476D01*
X10795238Y-14796476D02*
X10795238Y-14596476D01*
X10776190Y-14625048D01*
X10757143Y-14644095D01*
X10738095Y-14653619D01*
X10938095Y-14777428D02*
X10947619Y-14786952D01*
X10938095Y-14796476D01*
X10928571Y-14786952D01*
X10938095Y-14777428D01*
X10938095Y-14796476D01*
X11071429Y-14596476D02*
X11090476Y-14596476D01*
X11109524Y-14606000D01*
X11119048Y-14615524D01*
X11128571Y-14634571D01*
X11138095Y-14672667D01*
X11138095Y-14720286D01*
X11128571Y-14758381D01*
X11119048Y-14777428D01*
X11109524Y-14786952D01*
X11090476Y-14796476D01*
X11071429Y-14796476D01*
X11052381Y-14786952D01*
X11042857Y-14777428D01*
X11033333Y-14758381D01*
X11023810Y-14720286D01*
X11023810Y-14672667D01*
X11033333Y-14634571D01*
X11042857Y-14615524D01*
X11052381Y-14606000D01*
X11071429Y-14596476D01*
X11261905Y-14596476D02*
X11280952Y-14596476D01*
X11300000Y-14606000D01*
X11309524Y-14615524D01*
X11319048Y-14634571D01*
X11328571Y-14672667D01*
X11328571Y-14720286D01*
X11319048Y-14758381D01*
X11309524Y-14777428D01*
X11300000Y-14786952D01*
X11280952Y-14796476D01*
X11261905Y-14796476D01*
X11242857Y-14786952D01*
X11233333Y-14777428D01*
X11223809Y-14758381D01*
X11214286Y-14720286D01*
X11214286Y-14672667D01*
X11223809Y-14634571D01*
X11233333Y-14615524D01*
X11242857Y-14606000D01*
X11261905Y-14596476D01*
X11452381Y-14596476D02*
X11471428Y-14596476D01*
X11490476Y-14606000D01*
X11500000Y-14615524D01*
X11509524Y-14634571D01*
X11519048Y-14672667D01*
X11519048Y-14720286D01*
X11509524Y-14758381D01*
X11500000Y-14777428D01*
X11490476Y-14786952D01*
X11471428Y-14796476D01*
X11452381Y-14796476D01*
X11433333Y-14786952D01*
X11423809Y-14777428D01*
X11414286Y-14758381D01*
X11404762Y-14720286D01*
X11404762Y-14672667D01*
X11414286Y-14634571D01*
X11423809Y-14615524D01*
X11433333Y-14606000D01*
X11452381Y-14596476D01*
X11604762Y-14796476D02*
X11604762Y-14663143D01*
X11604762Y-14682190D02*
X11614286Y-14672667D01*
X11633333Y-14663143D01*
X11661905Y-14663143D01*
X11680952Y-14672667D01*
X11690476Y-14691714D01*
X11690476Y-14796476D01*
X11690476Y-14691714D02*
X11700000Y-14672667D01*
X11719048Y-14663143D01*
X11747619Y-14663143D01*
X11766667Y-14672667D01*
X11776190Y-14691714D01*
X11776190Y-14796476D01*
X11871428Y-14796476D02*
X11871428Y-14663143D01*
X11871428Y-14682190D02*
X11880952Y-14672667D01*
X11900000Y-14663143D01*
X11928571Y-14663143D01*
X11947619Y-14672667D01*
X11957143Y-14691714D01*
X11957143Y-14796476D01*
X11957143Y-14691714D02*
X11966667Y-14672667D01*
X11985714Y-14663143D01*
X12014286Y-14663143D01*
X12033333Y-14672667D01*
X12042857Y-14691714D01*
X12042857Y-14796476D01*
X12433333Y-14586952D02*
X12261905Y-14844095D01*
X12690476Y-14596476D02*
X12709524Y-14596476D01*
X12728571Y-14606000D01*
X12738095Y-14615524D01*
X12747619Y-14634571D01*
X12757143Y-14672667D01*
X12757143Y-14720286D01*
X12747619Y-14758381D01*
X12738095Y-14777428D01*
X12728571Y-14786952D01*
X12709524Y-14796476D01*
X12690476Y-14796476D01*
X12671428Y-14786952D01*
X12661905Y-14777428D01*
X12652381Y-14758381D01*
X12642857Y-14720286D01*
X12642857Y-14672667D01*
X12652381Y-14634571D01*
X12661905Y-14615524D01*
X12671428Y-14606000D01*
X12690476Y-14596476D01*
X12842857Y-14777428D02*
X12852381Y-14786952D01*
X12842857Y-14796476D01*
X12833333Y-14786952D01*
X12842857Y-14777428D01*
X12842857Y-14796476D01*
X12976190Y-14596476D02*
X12995238Y-14596476D01*
X13014286Y-14606000D01*
X13023809Y-14615524D01*
X13033333Y-14634571D01*
X13042857Y-14672667D01*
X13042857Y-14720286D01*
X13033333Y-14758381D01*
X13023809Y-14777428D01*
X13014286Y-14786952D01*
X12995238Y-14796476D01*
X12976190Y-14796476D01*
X12957143Y-14786952D01*
X12947619Y-14777428D01*
X12938095Y-14758381D01*
X12928571Y-14720286D01*
X12928571Y-14672667D01*
X12938095Y-14634571D01*
X12947619Y-14615524D01*
X12957143Y-14606000D01*
X12976190Y-14596476D01*
X13109524Y-14596476D02*
X13233333Y-14596476D01*
X13166667Y-14672667D01*
X13195238Y-14672667D01*
X13214286Y-14682190D01*
X13223809Y-14691714D01*
X13233333Y-14710762D01*
X13233333Y-14758381D01*
X13223809Y-14777428D01*
X13214286Y-14786952D01*
X13195238Y-14796476D01*
X13138095Y-14796476D01*
X13119048Y-14786952D01*
X13109524Y-14777428D01*
X13328571Y-14796476D02*
X13366667Y-14796476D01*
X13385714Y-14786952D01*
X13395238Y-14777428D01*
X13414286Y-14748857D01*
X13423809Y-14710762D01*
X13423809Y-14634571D01*
X13414286Y-14615524D01*
X13404762Y-14606000D01*
X13385714Y-14596476D01*
X13347619Y-14596476D01*
X13328571Y-14606000D01*
X13319048Y-14615524D01*
X13309524Y-14634571D01*
X13309524Y-14682190D01*
X13319048Y-14701238D01*
X13328571Y-14710762D01*
X13347619Y-14720286D01*
X13385714Y-14720286D01*
X13404762Y-14710762D01*
X13414286Y-14701238D01*
X13423809Y-14682190D01*
X13595238Y-14663143D02*
X13595238Y-14796476D01*
X13547619Y-14586952D02*
X13500000Y-14729809D01*
X13623809Y-14729809D01*
X13690476Y-14596476D02*
X13690476Y-14634571D01*
X13766667Y-14596476D02*
X13766667Y-14634571D01*
X14061905Y-14872667D02*
X14052381Y-14863143D01*
X14033333Y-14834571D01*
X14023809Y-14815524D01*
X14014286Y-14786952D01*
X14004762Y-14739333D01*
X14004762Y-14701238D01*
X14014286Y-14653619D01*
X14023809Y-14625048D01*
X14033333Y-14606000D01*
X14052381Y-14577428D01*
X14061905Y-14567905D01*
X14119048Y-14596476D02*
X14242857Y-14596476D01*
X14176190Y-14672667D01*
X14204762Y-14672667D01*
X14223809Y-14682190D01*
X14233333Y-14691714D01*
X14242857Y-14710762D01*
X14242857Y-14758381D01*
X14233333Y-14777428D01*
X14223809Y-14786952D01*
X14204762Y-14796476D01*
X14147619Y-14796476D01*
X14128571Y-14786952D01*
X14119048Y-14777428D01*
X14414286Y-14596476D02*
X14376190Y-14596476D01*
X14357143Y-14606000D01*
X14347619Y-14615524D01*
X14328571Y-14644095D01*
X14319048Y-14682190D01*
X14319048Y-14758381D01*
X14328571Y-14777428D01*
X14338095Y-14786952D01*
X14357143Y-14796476D01*
X14395238Y-14796476D01*
X14414286Y-14786952D01*
X14423809Y-14777428D01*
X14433333Y-14758381D01*
X14433333Y-14710762D01*
X14423809Y-14691714D01*
X14414286Y-14682190D01*
X14395238Y-14672667D01*
X14357143Y-14672667D01*
X14338095Y-14682190D01*
X14328571Y-14691714D01*
X14319048Y-14710762D01*
X14671428Y-14796476D02*
X14671428Y-14596476D01*
X14757143Y-14796476D02*
X14757143Y-14691714D01*
X14747619Y-14672667D01*
X14728571Y-14663143D01*
X14700000Y-14663143D01*
X14680952Y-14672667D01*
X14671428Y-14682190D01*
X14880952Y-14796476D02*
X14861905Y-14786952D01*
X14852381Y-14777428D01*
X14842857Y-14758381D01*
X14842857Y-14701238D01*
X14852381Y-14682190D01*
X14861905Y-14672667D01*
X14880952Y-14663143D01*
X14909524Y-14663143D01*
X14928571Y-14672667D01*
X14938095Y-14682190D01*
X14947619Y-14701238D01*
X14947619Y-14758381D01*
X14938095Y-14777428D01*
X14928571Y-14786952D01*
X14909524Y-14796476D01*
X14880952Y-14796476D01*
X15061905Y-14796476D02*
X15042857Y-14786952D01*
X15033333Y-14767905D01*
X15033333Y-14596476D01*
X15214286Y-14786952D02*
X15195238Y-14796476D01*
X15157143Y-14796476D01*
X15138095Y-14786952D01*
X15128571Y-14767905D01*
X15128571Y-14691714D01*
X15138095Y-14672667D01*
X15157143Y-14663143D01*
X15195238Y-14663143D01*
X15214286Y-14672667D01*
X15223809Y-14691714D01*
X15223809Y-14710762D01*
X15128571Y-14729809D01*
X15300000Y-14786952D02*
X15319048Y-14796476D01*
X15357143Y-14796476D01*
X15376190Y-14786952D01*
X15385714Y-14767905D01*
X15385714Y-14758381D01*
X15376190Y-14739333D01*
X15357143Y-14729809D01*
X15328571Y-14729809D01*
X15309524Y-14720286D01*
X15300000Y-14701238D01*
X15300000Y-14691714D01*
X15309524Y-14672667D01*
X15328571Y-14663143D01*
X15357143Y-14663143D01*
X15376190Y-14672667D01*
X15452381Y-14872667D02*
X15461905Y-14863143D01*
X15480952Y-14834571D01*
X15490476Y-14815524D01*
X15500000Y-14786952D01*
X15509524Y-14739333D01*
X15509524Y-14701238D01*
X15500000Y-14653619D01*
X15490476Y-14625048D01*
X15480952Y-14606000D01*
X15461905Y-14577428D01*
X15452381Y-14567905D01*
D15*
X10370000Y-14910000D02*
X10490000Y-15030000D01*
X10490000Y-14910000D02*
X10370000Y-15030000D01*
X10490000Y-14970000D02*
G75*
G03*
X10490000Y-14970000I-60000J0D01*
G01*
D10*
X10852381Y-15060476D02*
X10738095Y-15060476D01*
X10795238Y-15060476D02*
X10795238Y-14860476D01*
X10776190Y-14889048D01*
X10757143Y-14908095D01*
X10738095Y-14917619D01*
X10938095Y-15041428D02*
X10947619Y-15050952D01*
X10938095Y-15060476D01*
X10928571Y-15050952D01*
X10938095Y-15041428D01*
X10938095Y-15060476D01*
X11023810Y-14879524D02*
X11033333Y-14870000D01*
X11052381Y-14860476D01*
X11100000Y-14860476D01*
X11119048Y-14870000D01*
X11128571Y-14879524D01*
X11138095Y-14898571D01*
X11138095Y-14917619D01*
X11128571Y-14946190D01*
X11014286Y-15060476D01*
X11138095Y-15060476D01*
X11261905Y-14860476D02*
X11280952Y-14860476D01*
X11300000Y-14870000D01*
X11309524Y-14879524D01*
X11319048Y-14898571D01*
X11328571Y-14936667D01*
X11328571Y-14984286D01*
X11319048Y-15022381D01*
X11309524Y-15041428D01*
X11300000Y-15050952D01*
X11280952Y-15060476D01*
X11261905Y-15060476D01*
X11242857Y-15050952D01*
X11233333Y-15041428D01*
X11223809Y-15022381D01*
X11214286Y-14984286D01*
X11214286Y-14936667D01*
X11223809Y-14898571D01*
X11233333Y-14879524D01*
X11242857Y-14870000D01*
X11261905Y-14860476D01*
X11452381Y-14860476D02*
X11471428Y-14860476D01*
X11490476Y-14870000D01*
X11500000Y-14879524D01*
X11509524Y-14898571D01*
X11519048Y-14936667D01*
X11519048Y-14984286D01*
X11509524Y-15022381D01*
X11500000Y-15041428D01*
X11490476Y-15050952D01*
X11471428Y-15060476D01*
X11452381Y-15060476D01*
X11433333Y-15050952D01*
X11423809Y-15041428D01*
X11414286Y-15022381D01*
X11404762Y-14984286D01*
X11404762Y-14936667D01*
X11414286Y-14898571D01*
X11423809Y-14879524D01*
X11433333Y-14870000D01*
X11452381Y-14860476D01*
X11604762Y-15060476D02*
X11604762Y-14927143D01*
X11604762Y-14946190D02*
X11614286Y-14936667D01*
X11633333Y-14927143D01*
X11661905Y-14927143D01*
X11680952Y-14936667D01*
X11690476Y-14955714D01*
X11690476Y-15060476D01*
X11690476Y-14955714D02*
X11700000Y-14936667D01*
X11719048Y-14927143D01*
X11747619Y-14927143D01*
X11766667Y-14936667D01*
X11776190Y-14955714D01*
X11776190Y-15060476D01*
X11871428Y-15060476D02*
X11871428Y-14927143D01*
X11871428Y-14946190D02*
X11880952Y-14936667D01*
X11900000Y-14927143D01*
X11928571Y-14927143D01*
X11947619Y-14936667D01*
X11957143Y-14955714D01*
X11957143Y-15060476D01*
X11957143Y-14955714D02*
X11966667Y-14936667D01*
X11985714Y-14927143D01*
X12014286Y-14927143D01*
X12033333Y-14936667D01*
X12042857Y-14955714D01*
X12042857Y-15060476D01*
X12433333Y-14850952D02*
X12261905Y-15108095D01*
X12690476Y-14860476D02*
X12709524Y-14860476D01*
X12728571Y-14870000D01*
X12738095Y-14879524D01*
X12747619Y-14898571D01*
X12757143Y-14936667D01*
X12757143Y-14984286D01*
X12747619Y-15022381D01*
X12738095Y-15041428D01*
X12728571Y-15050952D01*
X12709524Y-15060476D01*
X12690476Y-15060476D01*
X12671428Y-15050952D01*
X12661905Y-15041428D01*
X12652381Y-15022381D01*
X12642857Y-14984286D01*
X12642857Y-14936667D01*
X12652381Y-14898571D01*
X12661905Y-14879524D01*
X12671428Y-14870000D01*
X12690476Y-14860476D01*
X12842857Y-15041428D02*
X12852381Y-15050952D01*
X12842857Y-15060476D01*
X12833333Y-15050952D01*
X12842857Y-15041428D01*
X12842857Y-15060476D01*
X12976190Y-14860476D02*
X12995238Y-14860476D01*
X13014286Y-14870000D01*
X13023809Y-14879524D01*
X13033333Y-14898571D01*
X13042857Y-14936667D01*
X13042857Y-14984286D01*
X13033333Y-15022381D01*
X13023809Y-15041428D01*
X13014286Y-15050952D01*
X12995238Y-15060476D01*
X12976190Y-15060476D01*
X12957143Y-15050952D01*
X12947619Y-15041428D01*
X12938095Y-15022381D01*
X12928571Y-14984286D01*
X12928571Y-14936667D01*
X12938095Y-14898571D01*
X12947619Y-14879524D01*
X12957143Y-14870000D01*
X12976190Y-14860476D01*
X13214286Y-14927143D02*
X13214286Y-15060476D01*
X13166667Y-14850952D02*
X13119048Y-14993809D01*
X13242857Y-14993809D01*
X13300000Y-14860476D02*
X13433333Y-14860476D01*
X13347619Y-15060476D01*
X13500000Y-14879524D02*
X13509524Y-14870000D01*
X13528571Y-14860476D01*
X13576190Y-14860476D01*
X13595238Y-14870000D01*
X13604762Y-14879524D01*
X13614286Y-14898571D01*
X13614286Y-14917619D01*
X13604762Y-14946190D01*
X13490476Y-15060476D01*
X13614286Y-15060476D01*
X13690476Y-14860476D02*
X13690476Y-14898571D01*
X13766667Y-14860476D02*
X13766667Y-14898571D01*
X14061905Y-15136667D02*
X14052381Y-15127143D01*
X14033333Y-15098571D01*
X14023809Y-15079524D01*
X14014286Y-15050952D01*
X14004762Y-15003333D01*
X14004762Y-14965238D01*
X14014286Y-14917619D01*
X14023809Y-14889048D01*
X14033333Y-14870000D01*
X14052381Y-14841428D01*
X14061905Y-14831905D01*
X14128571Y-14879524D02*
X14138095Y-14870000D01*
X14157143Y-14860476D01*
X14204762Y-14860476D01*
X14223809Y-14870000D01*
X14233333Y-14879524D01*
X14242857Y-14898571D01*
X14242857Y-14917619D01*
X14233333Y-14946190D01*
X14119048Y-15060476D01*
X14242857Y-15060476D01*
X14319048Y-14879524D02*
X14328571Y-14870000D01*
X14347619Y-14860476D01*
X14395238Y-14860476D01*
X14414286Y-14870000D01*
X14423809Y-14879524D01*
X14433333Y-14898571D01*
X14433333Y-14917619D01*
X14423809Y-14946190D01*
X14309524Y-15060476D01*
X14433333Y-15060476D01*
X14671428Y-15060476D02*
X14671428Y-14860476D01*
X14757143Y-15060476D02*
X14757143Y-14955714D01*
X14747619Y-14936667D01*
X14728571Y-14927143D01*
X14700000Y-14927143D01*
X14680952Y-14936667D01*
X14671428Y-14946190D01*
X14880952Y-15060476D02*
X14861905Y-15050952D01*
X14852381Y-15041428D01*
X14842857Y-15022381D01*
X14842857Y-14965238D01*
X14852381Y-14946190D01*
X14861905Y-14936667D01*
X14880952Y-14927143D01*
X14909524Y-14927143D01*
X14928571Y-14936667D01*
X14938095Y-14946190D01*
X14947619Y-14965238D01*
X14947619Y-15022381D01*
X14938095Y-15041428D01*
X14928571Y-15050952D01*
X14909524Y-15060476D01*
X14880952Y-15060476D01*
X15061905Y-15060476D02*
X15042857Y-15050952D01*
X15033333Y-15031905D01*
X15033333Y-14860476D01*
X15214286Y-15050952D02*
X15195238Y-15060476D01*
X15157143Y-15060476D01*
X15138095Y-15050952D01*
X15128571Y-15031905D01*
X15128571Y-14955714D01*
X15138095Y-14936667D01*
X15157143Y-14927143D01*
X15195238Y-14927143D01*
X15214286Y-14936667D01*
X15223809Y-14955714D01*
X15223809Y-14974762D01*
X15128571Y-14993809D01*
X15300000Y-15050952D02*
X15319048Y-15060476D01*
X15357143Y-15060476D01*
X15376190Y-15050952D01*
X15385714Y-15031905D01*
X15385714Y-15022381D01*
X15376190Y-15003333D01*
X15357143Y-14993809D01*
X15328571Y-14993809D01*
X15309524Y-14984286D01*
X15300000Y-14965238D01*
X15300000Y-14955714D01*
X15309524Y-14936667D01*
X15328571Y-14927143D01*
X15357143Y-14927143D01*
X15376190Y-14936667D01*
X15452381Y-15136667D02*
X15461905Y-15127143D01*
X15480952Y-15098571D01*
X15490476Y-15079524D01*
X15500000Y-15050952D01*
X15509524Y-15003333D01*
X15509524Y-14965238D01*
X15500000Y-14917619D01*
X15490476Y-14889048D01*
X15480952Y-14870000D01*
X15461905Y-14841428D01*
X15452381Y-14831905D01*
M02*
