M48
; DRILL file {KiCad 6.0.9-1.fc35} date Wed 18 Jan 2023 17:08:38 GMT
; FORMAT={-:-/ absolute / metric / decimal}
; #@! TF.CreationDate,2023-01-18T17:08:38+00:00
; #@! TF.GenerationSoftware,Kicad,Pcbnew,6.0.9-1.fc35
; #@! TF.FileFunction,Plated,1,4,PTH
FMAT,2
METRIC
; #@! TA.AperFunction,Plated,PTH,ViaDrill
T1C0.250
; #@! TA.AperFunction,Plated,PTH,ViaDrill
T2C0.300
; #@! TA.AperFunction,Plated,PTH,ComponentDrill
T3C0.300
; #@! TA.AperFunction,Plated,PTH,ComponentDrill
T4C0.600
; #@! TA.AperFunction,Plated,PTH,ComponentDrill
T5C1.000
; #@! TA.AperFunction,Plated,PTH,ComponentDrill
T6C1.200
%
G90
G05
T1
X117.8Y-85.0
X117.8Y-87.0
X121.2Y-83.8
X122.6Y-83.8
X127.7Y-83.8
X132.8Y-83.8
X136.7Y-89.5
X137.5Y-89.5
X137.9Y-83.8
X138.3Y-89.5
X139.1Y-89.5
X141.8Y-89.5
X142.6Y-89.5
X143.0Y-83.8
X143.4Y-89.5
X144.2Y-89.5
X181.723Y-100.281
T2
X106.991Y-112.0
X107.0Y-77.0
X107.0Y-92.0
X107.0Y-95.2
X107.0Y-106.974
X107.0Y-122.0
X107.0Y-128.5
X107.4Y-103.8
X107.5Y-117.2
X108.0Y-95.2
X109.5Y-103.8
X109.5Y-106.2
X109.5Y-107.1
X109.8Y-120.6
X109.8Y-121.6
X110.0Y-95.2
X110.6Y-103.8
X110.8Y-78.7
X110.8Y-79.6
X110.8Y-91.4
X110.8Y-92.3
X111.0Y-95.2
X111.2Y-122.6
X111.4Y-115.0
X112.0Y-76.992
X112.0Y-95.212
X112.0Y-128.499
X112.1Y-103.8
X112.9Y-110.5
X113.0Y-95.212
X113.0Y-104.0
X113.8Y-81.2
X113.8Y-82.0
X113.8Y-89.0
X113.8Y-89.8
X114.05Y-83.05
X114.05Y-87.95
X114.4Y-79.6
X114.4Y-91.4
X114.5Y-99.5
X115.5Y-99.5
X115.6Y-105.9
X116.4Y-115.3
X116.6Y-102.1
X116.6Y-105.9
X116.7Y-82.2
X117.0Y-76.983
X117.0Y-117.0
X117.0Y-128.494
X117.3Y-114.7
X117.5Y-94.5
X117.7Y-113.8
X117.8Y-86.0
X118.625Y-85.0
X118.625Y-87.0
X119.15Y-109.25
X119.2Y-120.6
X119.2Y-121.6
X119.2Y-122.6
X119.7Y-115.8
X119.7Y-116.8
X120.2Y-108.95
X120.2Y-110.0
X120.4Y-111.4
X120.4Y-112.4
X120.466Y-98.735
X120.6Y-116.3
X121.4Y-98.7
X122.0Y-76.975
X122.0Y-104.0
X122.0Y-122.0
X122.0Y-128.493
X122.1Y-107.2
X122.3Y-112.2
X122.95Y-111.5
X123.0Y-104.0
X123.05Y-107.2
X123.6Y-112.2
X125.0Y-86.756
X125.0Y-122.6
X125.1Y-101.8
X125.3Y-92.55
X125.3Y-93.5
X125.55Y-114.7
X125.75Y-102.55
X126.062Y-106.312
X126.45Y-103.3
X126.6Y-114.7
X126.95Y-105.55
X127.0Y-76.975
X127.0Y-128.488
X127.7Y-104.7
X128.0Y-94.8
X128.0Y-95.904
X128.85Y-111.9
X129.8Y-111.9
X130.0Y-86.756
X130.0Y-95.1
X130.5Y-106.0
X130.5Y-107.5
X131.2Y-106.7
X131.4Y-98.9
X132.0Y-76.967
X132.0Y-111.949
X132.0Y-115.241
X132.0Y-128.487
X133.0Y-97.8
X133.0Y-101.4
X133.0Y-108.373
X133.2Y-120.6
X133.2Y-121.6
X133.2Y-122.6
X133.4Y-111.0
X133.598Y-103.999
X133.6Y-105.3
X133.7Y-102.0
X134.5Y-104.532
X134.6Y-97.8
X134.6Y-101.4
X134.85Y-107.85
X135.5Y-86.799
X135.8Y-89.5
X135.9Y-96.7
X136.2Y-97.8
X136.7Y-95.5
X137.0Y-76.958
X137.0Y-101.914
X137.0Y-111.92
X137.0Y-115.25
X137.0Y-128.483
X137.5Y-94.9
X137.6Y-120.6
X137.6Y-121.597
X137.9Y-95.9
X138.3Y-94.2
X139.0Y-122.6
X139.1Y-93.4
X139.2Y-111.4
X139.4Y-94.4
X139.9Y-110.7
X139.9Y-116.6
X140.0Y-89.5
X140.5Y-86.842
X140.9Y-89.5
X141.0Y-111.4
X141.0Y-116.4
X141.1Y-103.1
X141.1Y-104.1
X141.4Y-106.0
X141.4Y-107.1
X141.4Y-108.1
X141.7Y-110.7
X141.7Y-115.6
X141.8Y-92.6
X142.0Y-76.958
X142.0Y-128.482
X142.045Y-105.245
X142.3Y-104.0
X142.6Y-91.8
X142.7Y-111.4
X142.7Y-115.3
X142.8Y-92.7
X143.3Y-114.5
X143.4Y-91.1
X143.6Y-110.7
X144.2Y-90.4
X144.2Y-114.2
X144.4Y-91.4
X145.1Y-89.5
X146.97Y-97.0
X147.0Y-76.95
X147.0Y-82.0
X147.0Y-86.852
X147.0Y-102.0
X147.0Y-107.0
X147.0Y-128.477
X147.2Y-120.6
X147.2Y-121.584
X147.2Y-122.6
X147.8Y-88.9
X147.8Y-115.1
X149.4Y-88.9
X149.4Y-115.1
X151.642Y-113.0
X151.677Y-118.0
X151.7Y-120.6
X151.7Y-121.576
X152.0Y-76.942
X152.0Y-82.0
X152.0Y-86.888
X152.0Y-128.476
X153.2Y-122.6
X153.201Y-96.2
X153.3Y-97.123
X153.5Y-99.4
X153.7Y-110.2
X153.7Y-111.25
X154.05Y-102.35
X154.15Y-96.6
X154.8Y-92.7
X156.7Y-98.6
X157.0Y-76.942
X157.0Y-82.0
X157.0Y-86.888
X157.0Y-91.924
X157.0Y-101.923
X157.0Y-128.471
X157.2Y-105.0
X157.2Y-107.1
X157.2Y-108.0
X157.225Y-105.925
X158.2Y-100.8
X158.2Y-105.6
X158.5Y-114.0
X159.2Y-101.1
X161.0Y-107.462
X161.0Y-120.6
X161.0Y-121.6
X161.2Y-122.6
X162.0Y-76.942
X162.0Y-82.0
X162.0Y-86.924
X162.0Y-91.945
X162.0Y-97.0
X162.0Y-101.947
X162.0Y-111.979
X162.0Y-128.47
X162.45Y-118.95
X162.5Y-84.3
X163.5Y-81.995
X163.5Y-84.3
X163.5Y-86.6
X164.0Y-125.9
X164.0Y-128.6
X164.3Y-86.1
X165.0Y-125.9
X165.0Y-128.6
X165.1Y-111.4
X165.5Y-107.483
X167.0Y-76.933
X167.0Y-86.949
X167.0Y-91.945
X167.0Y-101.972
X167.0Y-128.839
X168.1Y-117.0
X169.5Y-117.0
X169.6Y-109.2
X170.6Y-109.2
X171.0Y-106.6
X171.3Y-124.3
X172.0Y-76.925
X172.0Y-86.959
X172.0Y-91.965
X172.0Y-101.997
X172.0Y-107.8
X172.0Y-128.891
X173.6Y-94.4
X173.61Y-100.4
X175.0Y-104.5
X176.0Y-87.6
X177.0Y-76.925
X177.0Y-91.986
X177.0Y-128.942
X177.5Y-115.6
X177.6Y-109.8
X177.8Y-96.7
X178.275Y-79.425
X178.3Y-108.8
X178.3Y-117.3
X179.0Y-98.5
X181.5Y-99.487
X181.6Y-107.8
X181.978Y-117.0
X182.0Y-76.917
X182.0Y-86.995
X182.0Y-92.0
X182.0Y-128.993
X182.3Y-83.2
X186.1Y-107.0
X186.1Y-112.0
X186.756Y-129.0
X186.759Y-122.0
X186.776Y-117.0
X186.857Y-102.0
X186.893Y-92.0
X186.928Y-97.0
X186.943Y-87.0
X186.979Y-82.0
X187.0Y-77.0
T3
X132.0Y-93.7
X132.0Y-94.5
X132.0Y-95.3
X132.8Y-93.7
X132.8Y-94.5
X132.8Y-95.3
X133.6Y-93.7
X133.6Y-94.5
X133.6Y-95.3
X170.783Y-118.06
X170.783Y-118.95
X170.783Y-119.84
X171.783Y-118.06
X171.783Y-118.95
X171.783Y-119.84
T5
X116.9Y-91.3
X120.4Y-91.3
X122.64Y-78.96
X122.64Y-81.5
X125.18Y-78.96
X125.18Y-81.5
X127.72Y-78.96
X127.72Y-81.5
X130.26Y-78.96
X130.26Y-81.5
X132.8Y-78.96
X132.8Y-81.5
X135.34Y-78.96
X135.34Y-81.5
X137.88Y-78.96
X137.88Y-81.5
X140.42Y-78.96
X140.42Y-81.5
X142.96Y-78.96
X142.96Y-81.5
X145.5Y-78.96
X145.5Y-81.5
X154.8Y-81.3
X154.8Y-84.8
X156.0Y-112.4
X156.8Y-116.3
X160.0Y-103.8
X160.3Y-116.3
X161.0Y-90.4
X161.0Y-93.9
X163.2Y-103.8
X166.4Y-103.8
X174.71Y-98.5
X174.725Y-83.2
X177.25Y-98.5
X177.265Y-83.2
T6
X107.5Y-125.0
X111.0Y-125.0
X114.5Y-125.0
X118.0Y-125.0
X121.5Y-125.0
X125.0Y-125.0
X128.5Y-125.0
X132.0Y-125.0
X135.5Y-125.0
X139.0Y-125.0
X142.5Y-125.0
X146.0Y-125.0
X149.5Y-125.0
X153.0Y-125.0
X156.5Y-125.0
X160.0Y-125.0
X184.0Y-81.45
X184.0Y-84.95
X184.0Y-96.75
X184.0Y-100.25
X184.0Y-118.95
X184.0Y-122.45
T4
X107.15Y-81.18G85X107.75Y-81.18
G05
X107.15Y-89.82G85X107.75Y-89.82
G05
X111.08Y-81.18G85X112.18Y-81.18
G05
X111.08Y-89.82G85X112.18Y-89.82
G05
T0
M30
