%TF.GenerationSoftware,KiCad,Pcbnew,7.0.2-1.fc37*%
%TF.CreationDate,2023-04-28T16:21:15+01:00*%
%TF.ProjectId,grblPANEL,6772626c-5041-44e4-954c-2e6b69636164,B*%
%TF.SameCoordinates,Original*%
%TF.FileFunction,Drillmap*%
%TF.FilePolarity,Positive*%
%FSLAX45Y45*%
G04 Gerber Fmt 4.5, Leading zero omitted, Abs format (unit mm)*
G04 Created by KiCad (PCBNEW 7.0.2-1.fc37) date 2023-04-28 16:21:15*
%MOMM*%
%LPD*%
G01*
G04 APERTURE LIST*
%ADD10C,0.200000*%
%ADD11C,0.065000*%
G04 APERTURE END LIST*
D10*
X10500000Y-7500000D02*
X18900000Y-7500000D01*
X18900000Y-13000000D01*
X10500000Y-13000000D01*
X10500000Y-7500000D01*
D11*
X11077500Y-8228500D02*
X11142500Y-8293500D01*
X11142500Y-8228500D02*
X11077500Y-8293500D01*
X11077500Y-8806500D02*
X11142500Y-8871500D01*
X11142500Y-8806500D02*
X11077500Y-8871500D01*
D10*
X10737619Y-13322524D02*
X10737619Y-13122524D01*
X10737619Y-13122524D02*
X10785238Y-13122524D01*
X10785238Y-13122524D02*
X10813810Y-13132048D01*
X10813810Y-13132048D02*
X10832857Y-13151095D01*
X10832857Y-13151095D02*
X10842381Y-13170143D01*
X10842381Y-13170143D02*
X10851905Y-13208238D01*
X10851905Y-13208238D02*
X10851905Y-13236809D01*
X10851905Y-13236809D02*
X10842381Y-13274905D01*
X10842381Y-13274905D02*
X10832857Y-13293952D01*
X10832857Y-13293952D02*
X10813810Y-13313000D01*
X10813810Y-13313000D02*
X10785238Y-13322524D01*
X10785238Y-13322524D02*
X10737619Y-13322524D01*
X10937619Y-13322524D02*
X10937619Y-13189190D01*
X10937619Y-13227286D02*
X10947143Y-13208238D01*
X10947143Y-13208238D02*
X10956667Y-13198714D01*
X10956667Y-13198714D02*
X10975714Y-13189190D01*
X10975714Y-13189190D02*
X10994762Y-13189190D01*
X11061429Y-13322524D02*
X11061429Y-13189190D01*
X11061429Y-13122524D02*
X11051905Y-13132048D01*
X11051905Y-13132048D02*
X11061429Y-13141571D01*
X11061429Y-13141571D02*
X11070952Y-13132048D01*
X11070952Y-13132048D02*
X11061429Y-13122524D01*
X11061429Y-13122524D02*
X11061429Y-13141571D01*
X11185238Y-13322524D02*
X11166190Y-13313000D01*
X11166190Y-13313000D02*
X11156667Y-13293952D01*
X11156667Y-13293952D02*
X11156667Y-13122524D01*
X11290000Y-13322524D02*
X11270952Y-13313000D01*
X11270952Y-13313000D02*
X11261428Y-13293952D01*
X11261428Y-13293952D02*
X11261428Y-13122524D01*
X11518571Y-13322524D02*
X11518571Y-13122524D01*
X11518571Y-13122524D02*
X11585238Y-13265381D01*
X11585238Y-13265381D02*
X11651905Y-13122524D01*
X11651905Y-13122524D02*
X11651905Y-13322524D01*
X11832857Y-13322524D02*
X11832857Y-13217762D01*
X11832857Y-13217762D02*
X11823333Y-13198714D01*
X11823333Y-13198714D02*
X11804286Y-13189190D01*
X11804286Y-13189190D02*
X11766190Y-13189190D01*
X11766190Y-13189190D02*
X11747143Y-13198714D01*
X11832857Y-13313000D02*
X11813809Y-13322524D01*
X11813809Y-13322524D02*
X11766190Y-13322524D01*
X11766190Y-13322524D02*
X11747143Y-13313000D01*
X11747143Y-13313000D02*
X11737619Y-13293952D01*
X11737619Y-13293952D02*
X11737619Y-13274905D01*
X11737619Y-13274905D02*
X11747143Y-13255857D01*
X11747143Y-13255857D02*
X11766190Y-13246333D01*
X11766190Y-13246333D02*
X11813809Y-13246333D01*
X11813809Y-13246333D02*
X11832857Y-13236809D01*
X11928095Y-13189190D02*
X11928095Y-13389190D01*
X11928095Y-13198714D02*
X11947143Y-13189190D01*
X11947143Y-13189190D02*
X11985238Y-13189190D01*
X11985238Y-13189190D02*
X12004286Y-13198714D01*
X12004286Y-13198714D02*
X12013809Y-13208238D01*
X12013809Y-13208238D02*
X12023333Y-13227286D01*
X12023333Y-13227286D02*
X12023333Y-13284428D01*
X12023333Y-13284428D02*
X12013809Y-13303476D01*
X12013809Y-13303476D02*
X12004286Y-13313000D01*
X12004286Y-13313000D02*
X11985238Y-13322524D01*
X11985238Y-13322524D02*
X11947143Y-13322524D01*
X11947143Y-13322524D02*
X11928095Y-13313000D01*
X12109048Y-13303476D02*
X12118571Y-13313000D01*
X12118571Y-13313000D02*
X12109048Y-13322524D01*
X12109048Y-13322524D02*
X12099524Y-13313000D01*
X12099524Y-13313000D02*
X12109048Y-13303476D01*
X12109048Y-13303476D02*
X12109048Y-13322524D01*
X12109048Y-13198714D02*
X12118571Y-13208238D01*
X12118571Y-13208238D02*
X12109048Y-13217762D01*
X12109048Y-13217762D02*
X12099524Y-13208238D01*
X12099524Y-13208238D02*
X12109048Y-13198714D01*
X12109048Y-13198714D02*
X12109048Y-13217762D01*
D11*
X10425000Y-13617500D02*
X10490000Y-13682500D01*
X10490000Y-13617500D02*
X10425000Y-13682500D01*
D10*
X10775714Y-13542524D02*
X10794762Y-13542524D01*
X10794762Y-13542524D02*
X10813810Y-13552048D01*
X10813810Y-13552048D02*
X10823333Y-13561571D01*
X10823333Y-13561571D02*
X10832857Y-13580619D01*
X10832857Y-13580619D02*
X10842381Y-13618714D01*
X10842381Y-13618714D02*
X10842381Y-13666333D01*
X10842381Y-13666333D02*
X10832857Y-13704428D01*
X10832857Y-13704428D02*
X10823333Y-13723476D01*
X10823333Y-13723476D02*
X10813810Y-13733000D01*
X10813810Y-13733000D02*
X10794762Y-13742524D01*
X10794762Y-13742524D02*
X10775714Y-13742524D01*
X10775714Y-13742524D02*
X10756667Y-13733000D01*
X10756667Y-13733000D02*
X10747143Y-13723476D01*
X10747143Y-13723476D02*
X10737619Y-13704428D01*
X10737619Y-13704428D02*
X10728095Y-13666333D01*
X10728095Y-13666333D02*
X10728095Y-13618714D01*
X10728095Y-13618714D02*
X10737619Y-13580619D01*
X10737619Y-13580619D02*
X10747143Y-13561571D01*
X10747143Y-13561571D02*
X10756667Y-13552048D01*
X10756667Y-13552048D02*
X10775714Y-13542524D01*
X10928095Y-13723476D02*
X10937619Y-13733000D01*
X10937619Y-13733000D02*
X10928095Y-13742524D01*
X10928095Y-13742524D02*
X10918571Y-13733000D01*
X10918571Y-13733000D02*
X10928095Y-13723476D01*
X10928095Y-13723476D02*
X10928095Y-13742524D01*
X11109048Y-13542524D02*
X11070952Y-13542524D01*
X11070952Y-13542524D02*
X11051905Y-13552048D01*
X11051905Y-13552048D02*
X11042381Y-13561571D01*
X11042381Y-13561571D02*
X11023333Y-13590143D01*
X11023333Y-13590143D02*
X11013810Y-13628238D01*
X11013810Y-13628238D02*
X11013810Y-13704428D01*
X11013810Y-13704428D02*
X11023333Y-13723476D01*
X11023333Y-13723476D02*
X11032857Y-13733000D01*
X11032857Y-13733000D02*
X11051905Y-13742524D01*
X11051905Y-13742524D02*
X11090000Y-13742524D01*
X11090000Y-13742524D02*
X11109048Y-13733000D01*
X11109048Y-13733000D02*
X11118571Y-13723476D01*
X11118571Y-13723476D02*
X11128095Y-13704428D01*
X11128095Y-13704428D02*
X11128095Y-13656809D01*
X11128095Y-13656809D02*
X11118571Y-13637762D01*
X11118571Y-13637762D02*
X11109048Y-13628238D01*
X11109048Y-13628238D02*
X11090000Y-13618714D01*
X11090000Y-13618714D02*
X11051905Y-13618714D01*
X11051905Y-13618714D02*
X11032857Y-13628238D01*
X11032857Y-13628238D02*
X11023333Y-13637762D01*
X11023333Y-13637762D02*
X11013810Y-13656809D01*
X11309048Y-13542524D02*
X11213809Y-13542524D01*
X11213809Y-13542524D02*
X11204286Y-13637762D01*
X11204286Y-13637762D02*
X11213809Y-13628238D01*
X11213809Y-13628238D02*
X11232857Y-13618714D01*
X11232857Y-13618714D02*
X11280476Y-13618714D01*
X11280476Y-13618714D02*
X11299524Y-13628238D01*
X11299524Y-13628238D02*
X11309048Y-13637762D01*
X11309048Y-13637762D02*
X11318571Y-13656809D01*
X11318571Y-13656809D02*
X11318571Y-13704428D01*
X11318571Y-13704428D02*
X11309048Y-13723476D01*
X11309048Y-13723476D02*
X11299524Y-13733000D01*
X11299524Y-13733000D02*
X11280476Y-13742524D01*
X11280476Y-13742524D02*
X11232857Y-13742524D01*
X11232857Y-13742524D02*
X11213809Y-13733000D01*
X11213809Y-13733000D02*
X11204286Y-13723476D01*
X11442381Y-13542524D02*
X11461429Y-13542524D01*
X11461429Y-13542524D02*
X11480476Y-13552048D01*
X11480476Y-13552048D02*
X11490000Y-13561571D01*
X11490000Y-13561571D02*
X11499524Y-13580619D01*
X11499524Y-13580619D02*
X11509048Y-13618714D01*
X11509048Y-13618714D02*
X11509048Y-13666333D01*
X11509048Y-13666333D02*
X11499524Y-13704428D01*
X11499524Y-13704428D02*
X11490000Y-13723476D01*
X11490000Y-13723476D02*
X11480476Y-13733000D01*
X11480476Y-13733000D02*
X11461429Y-13742524D01*
X11461429Y-13742524D02*
X11442381Y-13742524D01*
X11442381Y-13742524D02*
X11423333Y-13733000D01*
X11423333Y-13733000D02*
X11413809Y-13723476D01*
X11413809Y-13723476D02*
X11404286Y-13704428D01*
X11404286Y-13704428D02*
X11394762Y-13666333D01*
X11394762Y-13666333D02*
X11394762Y-13618714D01*
X11394762Y-13618714D02*
X11404286Y-13580619D01*
X11404286Y-13580619D02*
X11413809Y-13561571D01*
X11413809Y-13561571D02*
X11423333Y-13552048D01*
X11423333Y-13552048D02*
X11442381Y-13542524D01*
X11594762Y-13742524D02*
X11594762Y-13609190D01*
X11594762Y-13628238D02*
X11604286Y-13618714D01*
X11604286Y-13618714D02*
X11623333Y-13609190D01*
X11623333Y-13609190D02*
X11651905Y-13609190D01*
X11651905Y-13609190D02*
X11670952Y-13618714D01*
X11670952Y-13618714D02*
X11680476Y-13637762D01*
X11680476Y-13637762D02*
X11680476Y-13742524D01*
X11680476Y-13637762D02*
X11690000Y-13618714D01*
X11690000Y-13618714D02*
X11709048Y-13609190D01*
X11709048Y-13609190D02*
X11737619Y-13609190D01*
X11737619Y-13609190D02*
X11756667Y-13618714D01*
X11756667Y-13618714D02*
X11766190Y-13637762D01*
X11766190Y-13637762D02*
X11766190Y-13742524D01*
X11861429Y-13742524D02*
X11861429Y-13609190D01*
X11861429Y-13628238D02*
X11870952Y-13618714D01*
X11870952Y-13618714D02*
X11890000Y-13609190D01*
X11890000Y-13609190D02*
X11918571Y-13609190D01*
X11918571Y-13609190D02*
X11937619Y-13618714D01*
X11937619Y-13618714D02*
X11947143Y-13637762D01*
X11947143Y-13637762D02*
X11947143Y-13742524D01*
X11947143Y-13637762D02*
X11956667Y-13618714D01*
X11956667Y-13618714D02*
X11975714Y-13609190D01*
X11975714Y-13609190D02*
X12004286Y-13609190D01*
X12004286Y-13609190D02*
X12023333Y-13618714D01*
X12023333Y-13618714D02*
X12032857Y-13637762D01*
X12032857Y-13637762D02*
X12032857Y-13742524D01*
X12423333Y-13533000D02*
X12251905Y-13790143D01*
X12680476Y-13542524D02*
X12699524Y-13542524D01*
X12699524Y-13542524D02*
X12718572Y-13552048D01*
X12718572Y-13552048D02*
X12728095Y-13561571D01*
X12728095Y-13561571D02*
X12737619Y-13580619D01*
X12737619Y-13580619D02*
X12747143Y-13618714D01*
X12747143Y-13618714D02*
X12747143Y-13666333D01*
X12747143Y-13666333D02*
X12737619Y-13704428D01*
X12737619Y-13704428D02*
X12728095Y-13723476D01*
X12728095Y-13723476D02*
X12718572Y-13733000D01*
X12718572Y-13733000D02*
X12699524Y-13742524D01*
X12699524Y-13742524D02*
X12680476Y-13742524D01*
X12680476Y-13742524D02*
X12661429Y-13733000D01*
X12661429Y-13733000D02*
X12651905Y-13723476D01*
X12651905Y-13723476D02*
X12642381Y-13704428D01*
X12642381Y-13704428D02*
X12632857Y-13666333D01*
X12632857Y-13666333D02*
X12632857Y-13618714D01*
X12632857Y-13618714D02*
X12642381Y-13580619D01*
X12642381Y-13580619D02*
X12651905Y-13561571D01*
X12651905Y-13561571D02*
X12661429Y-13552048D01*
X12661429Y-13552048D02*
X12680476Y-13542524D01*
X12832857Y-13723476D02*
X12842381Y-13733000D01*
X12842381Y-13733000D02*
X12832857Y-13742524D01*
X12832857Y-13742524D02*
X12823333Y-13733000D01*
X12823333Y-13733000D02*
X12832857Y-13723476D01*
X12832857Y-13723476D02*
X12832857Y-13742524D01*
X12966191Y-13542524D02*
X12985238Y-13542524D01*
X12985238Y-13542524D02*
X13004286Y-13552048D01*
X13004286Y-13552048D02*
X13013810Y-13561571D01*
X13013810Y-13561571D02*
X13023333Y-13580619D01*
X13023333Y-13580619D02*
X13032857Y-13618714D01*
X13032857Y-13618714D02*
X13032857Y-13666333D01*
X13032857Y-13666333D02*
X13023333Y-13704428D01*
X13023333Y-13704428D02*
X13013810Y-13723476D01*
X13013810Y-13723476D02*
X13004286Y-13733000D01*
X13004286Y-13733000D02*
X12985238Y-13742524D01*
X12985238Y-13742524D02*
X12966191Y-13742524D01*
X12966191Y-13742524D02*
X12947143Y-13733000D01*
X12947143Y-13733000D02*
X12937619Y-13723476D01*
X12937619Y-13723476D02*
X12928095Y-13704428D01*
X12928095Y-13704428D02*
X12918572Y-13666333D01*
X12918572Y-13666333D02*
X12918572Y-13618714D01*
X12918572Y-13618714D02*
X12928095Y-13580619D01*
X12928095Y-13580619D02*
X12937619Y-13561571D01*
X12937619Y-13561571D02*
X12947143Y-13552048D01*
X12947143Y-13552048D02*
X12966191Y-13542524D01*
X13109048Y-13561571D02*
X13118572Y-13552048D01*
X13118572Y-13552048D02*
X13137619Y-13542524D01*
X13137619Y-13542524D02*
X13185238Y-13542524D01*
X13185238Y-13542524D02*
X13204286Y-13552048D01*
X13204286Y-13552048D02*
X13213810Y-13561571D01*
X13213810Y-13561571D02*
X13223333Y-13580619D01*
X13223333Y-13580619D02*
X13223333Y-13599667D01*
X13223333Y-13599667D02*
X13213810Y-13628238D01*
X13213810Y-13628238D02*
X13099524Y-13742524D01*
X13099524Y-13742524D02*
X13223333Y-13742524D01*
X13404286Y-13542524D02*
X13309048Y-13542524D01*
X13309048Y-13542524D02*
X13299524Y-13637762D01*
X13299524Y-13637762D02*
X13309048Y-13628238D01*
X13309048Y-13628238D02*
X13328095Y-13618714D01*
X13328095Y-13618714D02*
X13375714Y-13618714D01*
X13375714Y-13618714D02*
X13394762Y-13628238D01*
X13394762Y-13628238D02*
X13404286Y-13637762D01*
X13404286Y-13637762D02*
X13413810Y-13656809D01*
X13413810Y-13656809D02*
X13413810Y-13704428D01*
X13413810Y-13704428D02*
X13404286Y-13723476D01*
X13404286Y-13723476D02*
X13394762Y-13733000D01*
X13394762Y-13733000D02*
X13375714Y-13742524D01*
X13375714Y-13742524D02*
X13328095Y-13742524D01*
X13328095Y-13742524D02*
X13309048Y-13733000D01*
X13309048Y-13733000D02*
X13299524Y-13723476D01*
X13585238Y-13542524D02*
X13547143Y-13542524D01*
X13547143Y-13542524D02*
X13528095Y-13552048D01*
X13528095Y-13552048D02*
X13518572Y-13561571D01*
X13518572Y-13561571D02*
X13499524Y-13590143D01*
X13499524Y-13590143D02*
X13490000Y-13628238D01*
X13490000Y-13628238D02*
X13490000Y-13704428D01*
X13490000Y-13704428D02*
X13499524Y-13723476D01*
X13499524Y-13723476D02*
X13509048Y-13733000D01*
X13509048Y-13733000D02*
X13528095Y-13742524D01*
X13528095Y-13742524D02*
X13566191Y-13742524D01*
X13566191Y-13742524D02*
X13585238Y-13733000D01*
X13585238Y-13733000D02*
X13594762Y-13723476D01*
X13594762Y-13723476D02*
X13604286Y-13704428D01*
X13604286Y-13704428D02*
X13604286Y-13656809D01*
X13604286Y-13656809D02*
X13594762Y-13637762D01*
X13594762Y-13637762D02*
X13585238Y-13628238D01*
X13585238Y-13628238D02*
X13566191Y-13618714D01*
X13566191Y-13618714D02*
X13528095Y-13618714D01*
X13528095Y-13618714D02*
X13509048Y-13628238D01*
X13509048Y-13628238D02*
X13499524Y-13637762D01*
X13499524Y-13637762D02*
X13490000Y-13656809D01*
X13680476Y-13542524D02*
X13680476Y-13580619D01*
X13756667Y-13542524D02*
X13756667Y-13580619D01*
X14051905Y-13818714D02*
X14042381Y-13809190D01*
X14042381Y-13809190D02*
X14023334Y-13780619D01*
X14023334Y-13780619D02*
X14013810Y-13761571D01*
X14013810Y-13761571D02*
X14004286Y-13733000D01*
X14004286Y-13733000D02*
X13994762Y-13685381D01*
X13994762Y-13685381D02*
X13994762Y-13647286D01*
X13994762Y-13647286D02*
X14004286Y-13599667D01*
X14004286Y-13599667D02*
X14013810Y-13571095D01*
X14013810Y-13571095D02*
X14023334Y-13552048D01*
X14023334Y-13552048D02*
X14042381Y-13523476D01*
X14042381Y-13523476D02*
X14051905Y-13513952D01*
X14118572Y-13561571D02*
X14128095Y-13552048D01*
X14128095Y-13552048D02*
X14147143Y-13542524D01*
X14147143Y-13542524D02*
X14194762Y-13542524D01*
X14194762Y-13542524D02*
X14213810Y-13552048D01*
X14213810Y-13552048D02*
X14223334Y-13561571D01*
X14223334Y-13561571D02*
X14232857Y-13580619D01*
X14232857Y-13580619D02*
X14232857Y-13599667D01*
X14232857Y-13599667D02*
X14223334Y-13628238D01*
X14223334Y-13628238D02*
X14109048Y-13742524D01*
X14109048Y-13742524D02*
X14232857Y-13742524D01*
X14470953Y-13742524D02*
X14470953Y-13542524D01*
X14556667Y-13742524D02*
X14556667Y-13637762D01*
X14556667Y-13637762D02*
X14547143Y-13618714D01*
X14547143Y-13618714D02*
X14528096Y-13609190D01*
X14528096Y-13609190D02*
X14499524Y-13609190D01*
X14499524Y-13609190D02*
X14480476Y-13618714D01*
X14480476Y-13618714D02*
X14470953Y-13628238D01*
X14680476Y-13742524D02*
X14661429Y-13733000D01*
X14661429Y-13733000D02*
X14651905Y-13723476D01*
X14651905Y-13723476D02*
X14642381Y-13704428D01*
X14642381Y-13704428D02*
X14642381Y-13647286D01*
X14642381Y-13647286D02*
X14651905Y-13628238D01*
X14651905Y-13628238D02*
X14661429Y-13618714D01*
X14661429Y-13618714D02*
X14680476Y-13609190D01*
X14680476Y-13609190D02*
X14709048Y-13609190D01*
X14709048Y-13609190D02*
X14728096Y-13618714D01*
X14728096Y-13618714D02*
X14737619Y-13628238D01*
X14737619Y-13628238D02*
X14747143Y-13647286D01*
X14747143Y-13647286D02*
X14747143Y-13704428D01*
X14747143Y-13704428D02*
X14737619Y-13723476D01*
X14737619Y-13723476D02*
X14728096Y-13733000D01*
X14728096Y-13733000D02*
X14709048Y-13742524D01*
X14709048Y-13742524D02*
X14680476Y-13742524D01*
X14861429Y-13742524D02*
X14842381Y-13733000D01*
X14842381Y-13733000D02*
X14832857Y-13713952D01*
X14832857Y-13713952D02*
X14832857Y-13542524D01*
X15013810Y-13733000D02*
X14994762Y-13742524D01*
X14994762Y-13742524D02*
X14956667Y-13742524D01*
X14956667Y-13742524D02*
X14937619Y-13733000D01*
X14937619Y-13733000D02*
X14928096Y-13713952D01*
X14928096Y-13713952D02*
X14928096Y-13637762D01*
X14928096Y-13637762D02*
X14937619Y-13618714D01*
X14937619Y-13618714D02*
X14956667Y-13609190D01*
X14956667Y-13609190D02*
X14994762Y-13609190D01*
X14994762Y-13609190D02*
X15013810Y-13618714D01*
X15013810Y-13618714D02*
X15023334Y-13637762D01*
X15023334Y-13637762D02*
X15023334Y-13656809D01*
X15023334Y-13656809D02*
X14928096Y-13675857D01*
X15099524Y-13733000D02*
X15118572Y-13742524D01*
X15118572Y-13742524D02*
X15156667Y-13742524D01*
X15156667Y-13742524D02*
X15175715Y-13733000D01*
X15175715Y-13733000D02*
X15185238Y-13713952D01*
X15185238Y-13713952D02*
X15185238Y-13704428D01*
X15185238Y-13704428D02*
X15175715Y-13685381D01*
X15175715Y-13685381D02*
X15156667Y-13675857D01*
X15156667Y-13675857D02*
X15128096Y-13675857D01*
X15128096Y-13675857D02*
X15109048Y-13666333D01*
X15109048Y-13666333D02*
X15099524Y-13647286D01*
X15099524Y-13647286D02*
X15099524Y-13637762D01*
X15099524Y-13637762D02*
X15109048Y-13618714D01*
X15109048Y-13618714D02*
X15128096Y-13609190D01*
X15128096Y-13609190D02*
X15156667Y-13609190D01*
X15156667Y-13609190D02*
X15175715Y-13618714D01*
X15251905Y-13818714D02*
X15261429Y-13809190D01*
X15261429Y-13809190D02*
X15280477Y-13780619D01*
X15280477Y-13780619D02*
X15290000Y-13761571D01*
X15290000Y-13761571D02*
X15299524Y-13733000D01*
X15299524Y-13733000D02*
X15309048Y-13685381D01*
X15309048Y-13685381D02*
X15309048Y-13647286D01*
X15309048Y-13647286D02*
X15299524Y-13599667D01*
X15299524Y-13599667D02*
X15290000Y-13571095D01*
X15290000Y-13571095D02*
X15280477Y-13552048D01*
X15280477Y-13552048D02*
X15261429Y-13523476D01*
X15261429Y-13523476D02*
X15251905Y-13513952D01*
X15613810Y-13818714D02*
X15604286Y-13809190D01*
X15604286Y-13809190D02*
X15585238Y-13780619D01*
X15585238Y-13780619D02*
X15575715Y-13761571D01*
X15575715Y-13761571D02*
X15566191Y-13733000D01*
X15566191Y-13733000D02*
X15556667Y-13685381D01*
X15556667Y-13685381D02*
X15556667Y-13647286D01*
X15556667Y-13647286D02*
X15566191Y-13599667D01*
X15566191Y-13599667D02*
X15575715Y-13571095D01*
X15575715Y-13571095D02*
X15585238Y-13552048D01*
X15585238Y-13552048D02*
X15604286Y-13523476D01*
X15604286Y-13523476D02*
X15613810Y-13513952D01*
X15690000Y-13609190D02*
X15690000Y-13742524D01*
X15690000Y-13628238D02*
X15699524Y-13618714D01*
X15699524Y-13618714D02*
X15718572Y-13609190D01*
X15718572Y-13609190D02*
X15747143Y-13609190D01*
X15747143Y-13609190D02*
X15766191Y-13618714D01*
X15766191Y-13618714D02*
X15775715Y-13637762D01*
X15775715Y-13637762D02*
X15775715Y-13742524D01*
X15899524Y-13742524D02*
X15880477Y-13733000D01*
X15880477Y-13733000D02*
X15870953Y-13723476D01*
X15870953Y-13723476D02*
X15861429Y-13704428D01*
X15861429Y-13704428D02*
X15861429Y-13647286D01*
X15861429Y-13647286D02*
X15870953Y-13628238D01*
X15870953Y-13628238D02*
X15880477Y-13618714D01*
X15880477Y-13618714D02*
X15899524Y-13609190D01*
X15899524Y-13609190D02*
X15928096Y-13609190D01*
X15928096Y-13609190D02*
X15947143Y-13618714D01*
X15947143Y-13618714D02*
X15956667Y-13628238D01*
X15956667Y-13628238D02*
X15966191Y-13647286D01*
X15966191Y-13647286D02*
X15966191Y-13704428D01*
X15966191Y-13704428D02*
X15956667Y-13723476D01*
X15956667Y-13723476D02*
X15947143Y-13733000D01*
X15947143Y-13733000D02*
X15928096Y-13742524D01*
X15928096Y-13742524D02*
X15899524Y-13742524D01*
X16023334Y-13609190D02*
X16099524Y-13609190D01*
X16051905Y-13542524D02*
X16051905Y-13713952D01*
X16051905Y-13713952D02*
X16061429Y-13733000D01*
X16061429Y-13733000D02*
X16080477Y-13742524D01*
X16080477Y-13742524D02*
X16099524Y-13742524D01*
X16318572Y-13609190D02*
X16318572Y-13809190D01*
X16318572Y-13618714D02*
X16337619Y-13609190D01*
X16337619Y-13609190D02*
X16375715Y-13609190D01*
X16375715Y-13609190D02*
X16394762Y-13618714D01*
X16394762Y-13618714D02*
X16404286Y-13628238D01*
X16404286Y-13628238D02*
X16413810Y-13647286D01*
X16413810Y-13647286D02*
X16413810Y-13704428D01*
X16413810Y-13704428D02*
X16404286Y-13723476D01*
X16404286Y-13723476D02*
X16394762Y-13733000D01*
X16394762Y-13733000D02*
X16375715Y-13742524D01*
X16375715Y-13742524D02*
X16337619Y-13742524D01*
X16337619Y-13742524D02*
X16318572Y-13733000D01*
X16528096Y-13742524D02*
X16509048Y-13733000D01*
X16509048Y-13733000D02*
X16499524Y-13713952D01*
X16499524Y-13713952D02*
X16499524Y-13542524D01*
X16690000Y-13742524D02*
X16690000Y-13637762D01*
X16690000Y-13637762D02*
X16680477Y-13618714D01*
X16680477Y-13618714D02*
X16661429Y-13609190D01*
X16661429Y-13609190D02*
X16623334Y-13609190D01*
X16623334Y-13609190D02*
X16604286Y-13618714D01*
X16690000Y-13733000D02*
X16670953Y-13742524D01*
X16670953Y-13742524D02*
X16623334Y-13742524D01*
X16623334Y-13742524D02*
X16604286Y-13733000D01*
X16604286Y-13733000D02*
X16594762Y-13713952D01*
X16594762Y-13713952D02*
X16594762Y-13694905D01*
X16594762Y-13694905D02*
X16604286Y-13675857D01*
X16604286Y-13675857D02*
X16623334Y-13666333D01*
X16623334Y-13666333D02*
X16670953Y-13666333D01*
X16670953Y-13666333D02*
X16690000Y-13656809D01*
X16756667Y-13609190D02*
X16832858Y-13609190D01*
X16785239Y-13542524D02*
X16785239Y-13713952D01*
X16785239Y-13713952D02*
X16794762Y-13733000D01*
X16794762Y-13733000D02*
X16813810Y-13742524D01*
X16813810Y-13742524D02*
X16832858Y-13742524D01*
X16975715Y-13733000D02*
X16956667Y-13742524D01*
X16956667Y-13742524D02*
X16918572Y-13742524D01*
X16918572Y-13742524D02*
X16899524Y-13733000D01*
X16899524Y-13733000D02*
X16890001Y-13713952D01*
X16890001Y-13713952D02*
X16890001Y-13637762D01*
X16890001Y-13637762D02*
X16899524Y-13618714D01*
X16899524Y-13618714D02*
X16918572Y-13609190D01*
X16918572Y-13609190D02*
X16956667Y-13609190D01*
X16956667Y-13609190D02*
X16975715Y-13618714D01*
X16975715Y-13618714D02*
X16985239Y-13637762D01*
X16985239Y-13637762D02*
X16985239Y-13656809D01*
X16985239Y-13656809D02*
X16890001Y-13675857D01*
X17156667Y-13742524D02*
X17156667Y-13542524D01*
X17156667Y-13733000D02*
X17137620Y-13742524D01*
X17137620Y-13742524D02*
X17099524Y-13742524D01*
X17099524Y-13742524D02*
X17080477Y-13733000D01*
X17080477Y-13733000D02*
X17070953Y-13723476D01*
X17070953Y-13723476D02*
X17061429Y-13704428D01*
X17061429Y-13704428D02*
X17061429Y-13647286D01*
X17061429Y-13647286D02*
X17070953Y-13628238D01*
X17070953Y-13628238D02*
X17080477Y-13618714D01*
X17080477Y-13618714D02*
X17099524Y-13609190D01*
X17099524Y-13609190D02*
X17137620Y-13609190D01*
X17137620Y-13609190D02*
X17156667Y-13618714D01*
X17232858Y-13818714D02*
X17242382Y-13809190D01*
X17242382Y-13809190D02*
X17261429Y-13780619D01*
X17261429Y-13780619D02*
X17270953Y-13761571D01*
X17270953Y-13761571D02*
X17280477Y-13733000D01*
X17280477Y-13733000D02*
X17290001Y-13685381D01*
X17290001Y-13685381D02*
X17290001Y-13647286D01*
X17290001Y-13647286D02*
X17280477Y-13599667D01*
X17280477Y-13599667D02*
X17270953Y-13571095D01*
X17270953Y-13571095D02*
X17261429Y-13552048D01*
X17261429Y-13552048D02*
X17242382Y-13523476D01*
X17242382Y-13523476D02*
X17232858Y-13513952D01*
M02*
