%TF.GenerationSoftware,KiCad,Pcbnew,7.0.2-1.fc37*%
%TF.CreationDate,2023-04-28T15:17:18+01:00*%
%TF.ProjectId,grblPANEL,6772626c-5041-44e4-954c-2e6b69636164,B*%
%TF.SameCoordinates,Original*%
%TF.FileFunction,Soldermask,Bot*%
%TF.FilePolarity,Negative*%
%FSLAX46Y46*%
G04 Gerber Fmt 4.6, Leading zero omitted, Abs format (unit mm)*
G04 Created by KiCad (PCBNEW 7.0.2-1.fc37) date 2023-04-28 15:17:18*
%MOMM*%
%LPD*%
G01*
G04 APERTURE LIST*
G04 Aperture macros list*
%AMRoundRect*
0 Rectangle with rounded corners*
0 $1 Rounding radius*
0 $2 $3 $4 $5 $6 $7 $8 $9 X,Y pos of 4 corners*
0 Add a 4 corners polygon primitive as box body*
4,1,4,$2,$3,$4,$5,$6,$7,$8,$9,$2,$3,0*
0 Add four circle primitives for the rounded corners*
1,1,$1+$1,$2,$3*
1,1,$1+$1,$4,$5*
1,1,$1+$1,$6,$7*
1,1,$1+$1,$8,$9*
0 Add four rect primitives between the rounded corners*
20,1,$1+$1,$2,$3,$4,$5,0*
20,1,$1+$1,$4,$5,$6,$7,0*
20,1,$1+$1,$6,$7,$8,$9,0*
20,1,$1+$1,$8,$9,$2,$3,0*%
G04 Aperture macros list end*
%ADD10C,2.000000*%
%ADD11RoundRect,0.218750X-0.218750X-0.256250X0.218750X-0.256250X0.218750X0.256250X-0.218750X0.256250X0*%
%ADD12RoundRect,0.218750X0.218750X0.256250X-0.218750X0.256250X-0.218750X-0.256250X0.218750X-0.256250X0*%
%ADD13R,2.400000X2.400000*%
%ADD14C,2.400000*%
%ADD15R,1.700000X1.700000*%
%ADD16O,1.700000X1.700000*%
%ADD17R,1.050000X0.650000*%
%ADD18R,0.740000X2.790000*%
%ADD19C,0.650000*%
%ADD20R,1.450000X0.600000*%
%ADD21R,1.450000X0.300000*%
%ADD22O,1.600000X1.000000*%
%ADD23O,2.100000X1.000000*%
%ADD24RoundRect,0.250000X0.600000X-0.600000X0.600000X0.600000X-0.600000X0.600000X-0.600000X-0.600000X0*%
%ADD25C,1.700000*%
G04 APERTURE END LIST*
D10*
X161000000Y-100500000D03*
X154800000Y-81300000D03*
X161000000Y-97000000D03*
X118000000Y-94500000D03*
X161000000Y-89500000D03*
X161000000Y-93000000D03*
X154800000Y-84800000D03*
X118000000Y-91000000D03*
X161000000Y-104000000D03*
D11*
X182712500Y-107500000D03*
X184287500Y-107500000D03*
D12*
X151787500Y-113250000D03*
X150212500Y-113250000D03*
D13*
X118000000Y-125000000D03*
D14*
X114500000Y-125000000D03*
X111000000Y-125000000D03*
X107500000Y-125000000D03*
D15*
X174710000Y-98500000D03*
D16*
X177250000Y-98500000D03*
D17*
X176675000Y-111225000D03*
X172525000Y-111225000D03*
X176675000Y-113375000D03*
X172525000Y-113375000D03*
D11*
X182712500Y-110500000D03*
X184287500Y-110500000D03*
D13*
X160000000Y-125000000D03*
D14*
X156500000Y-125000000D03*
X153000000Y-125000000D03*
X149500000Y-125000000D03*
D15*
X174725000Y-83200000D03*
D16*
X177265000Y-83200000D03*
D13*
X184000000Y-81450000D03*
D14*
X184000000Y-84950000D03*
D18*
X112540000Y-101532000D03*
X112540000Y-97468000D03*
X111270000Y-101532000D03*
X111270000Y-97468000D03*
X110000000Y-101532000D03*
X110000000Y-97468000D03*
X108730000Y-101532000D03*
X108730000Y-97468000D03*
X107460000Y-101532000D03*
X107460000Y-97468000D03*
D10*
X107500000Y-111500000D03*
X107500000Y-108000000D03*
D13*
X184000000Y-118950000D03*
D14*
X184000000Y-122450000D03*
D12*
X151787500Y-116000000D03*
X150212500Y-116000000D03*
D17*
X176675000Y-106725000D03*
X172525000Y-106725000D03*
X176675000Y-108875000D03*
X172525000Y-108875000D03*
D19*
X111100000Y-88390000D03*
X111100000Y-82610000D03*
D20*
X112545000Y-88750000D03*
X112545000Y-87950000D03*
D21*
X112545000Y-86750000D03*
X112545000Y-85750000D03*
X112545000Y-85250000D03*
X112545000Y-84250000D03*
D20*
X112545000Y-83050000D03*
X112545000Y-82250000D03*
X112545000Y-82250000D03*
X112545000Y-83050000D03*
D21*
X112545000Y-83750000D03*
X112545000Y-84750000D03*
X112545000Y-86250000D03*
X112545000Y-87250000D03*
D20*
X112545000Y-87950000D03*
X112545000Y-88750000D03*
D22*
X107450000Y-89820000D03*
D23*
X111630000Y-89820000D03*
D22*
X107450000Y-81180000D03*
D23*
X111630000Y-81180000D03*
D13*
X132000000Y-125000000D03*
D14*
X128500000Y-125000000D03*
X125000000Y-125000000D03*
X121500000Y-125000000D03*
D24*
X143000000Y-81500000D03*
D25*
X143000000Y-78960000D03*
X140460000Y-81500000D03*
X140460000Y-78960000D03*
X137920000Y-81500000D03*
X137920000Y-78960000D03*
X135380000Y-81500000D03*
X135380000Y-78960000D03*
X132840000Y-81500000D03*
X132840000Y-78960000D03*
X130300000Y-81500000D03*
X130300000Y-78960000D03*
X127760000Y-81500000D03*
X127760000Y-78960000D03*
X125220000Y-81500000D03*
X125220000Y-78960000D03*
X122680000Y-81500000D03*
X122680000Y-78960000D03*
X120140000Y-81500000D03*
X120140000Y-78960000D03*
D13*
X184000000Y-96750000D03*
D14*
X184000000Y-100250000D03*
D13*
X146000000Y-125000000D03*
D14*
X142500000Y-125000000D03*
X139000000Y-125000000D03*
X135500000Y-125000000D03*
M02*
