%TF.GenerationSoftware,KiCad,Pcbnew,7.0.2-1.fc37*%
%TF.CreationDate,2023-04-28T16:21:15+01:00*%
%TF.ProjectId,grblPANEL,6772626c-5041-44e4-954c-2e6b69636164,B*%
%TF.SameCoordinates,Original*%
%TF.FileFunction,Drillmap*%
%TF.FilePolarity,Positive*%
%FSLAX45Y45*%
G04 Gerber Fmt 4.5, Leading zero omitted, Abs format (unit mm)*
G04 Created by KiCad (PCBNEW 7.0.2-1.fc37) date 2023-04-28 16:21:15*
%MOMM*%
%LPD*%
G01*
G04 APERTURE LIST*
%ADD10C,0.200000*%
%ADD11C,0.030000*%
%ADD12C,0.060000*%
%ADD13C,0.100000*%
%ADD14C,0.120000*%
G04 APERTURE END LIST*
D10*
X10500000Y-7500000D02*
X18900000Y-7500000D01*
X18900000Y-13000000D01*
X10500000Y-13000000D01*
X10500000Y-7500000D01*
D11*
X10635000Y-10585000D02*
X10665000Y-10615000D01*
X10665000Y-10585000D02*
X10635000Y-10615000D01*
X10635000Y-11335000D02*
X10665000Y-11365000D01*
X10665000Y-11335000D02*
X10635000Y-11365000D01*
X10685000Y-7685000D02*
X10715000Y-7715000D01*
X10715000Y-7685000D02*
X10685000Y-7715000D01*
X10685000Y-9185000D02*
X10715000Y-9215000D01*
X10715000Y-9185000D02*
X10685000Y-9215000D01*
X10685000Y-9505000D02*
X10715000Y-9535000D01*
X10715000Y-9505000D02*
X10685000Y-9535000D01*
X10685000Y-12185000D02*
X10715000Y-12215000D01*
X10715000Y-12185000D02*
X10685000Y-12215000D01*
X10685000Y-12835000D02*
X10715000Y-12865000D01*
X10715000Y-12835000D02*
X10685000Y-12865000D01*
X10725000Y-10365000D02*
X10755000Y-10395000D01*
X10755000Y-10365000D02*
X10725000Y-10395000D01*
X10735000Y-11705000D02*
X10765000Y-11735000D01*
X10765000Y-11705000D02*
X10735000Y-11735000D01*
X10785000Y-9505000D02*
X10815000Y-9535000D01*
X10815000Y-9505000D02*
X10785000Y-9535000D01*
X10935000Y-10365000D02*
X10965000Y-10395000D01*
X10965000Y-10365000D02*
X10935000Y-10395000D01*
X10935000Y-10585000D02*
X10965000Y-10615000D01*
X10965000Y-10585000D02*
X10935000Y-10615000D01*
X10965000Y-12045000D02*
X10995000Y-12075000D01*
X10995000Y-12045000D02*
X10965000Y-12075000D01*
X10965000Y-12145000D02*
X10995000Y-12175000D01*
X10995000Y-12145000D02*
X10965000Y-12175000D01*
X10985000Y-9505000D02*
X11015000Y-9535000D01*
X11015000Y-9505000D02*
X10985000Y-9535000D01*
X11010000Y-10535000D02*
X11040000Y-10565000D01*
X11040000Y-10535000D02*
X11010000Y-10565000D01*
X11045000Y-10365000D02*
X11075000Y-10395000D01*
X11075000Y-10365000D02*
X11045000Y-10395000D01*
X11065000Y-7855000D02*
X11095000Y-7885000D01*
X11095000Y-7855000D02*
X11065000Y-7885000D01*
X11065000Y-7945000D02*
X11095000Y-7975000D01*
X11095000Y-7945000D02*
X11065000Y-7975000D01*
X11065000Y-9125000D02*
X11095000Y-9155000D01*
X11095000Y-9125000D02*
X11065000Y-9155000D01*
X11065000Y-9215000D02*
X11095000Y-9245000D01*
X11095000Y-9215000D02*
X11065000Y-9245000D01*
X11085000Y-9505000D02*
X11115000Y-9535000D01*
X11115000Y-9505000D02*
X11085000Y-9535000D01*
X11105000Y-12245000D02*
X11135000Y-12275000D01*
X11135000Y-12245000D02*
X11105000Y-12275000D01*
X11125000Y-11485000D02*
X11155000Y-11515000D01*
X11155000Y-11485000D02*
X11125000Y-11515000D01*
X11185000Y-7684168D02*
X11215000Y-7714168D01*
X11215000Y-7684168D02*
X11185000Y-7714168D01*
X11185000Y-9506221D02*
X11215000Y-9536221D01*
X11215000Y-9506221D02*
X11185000Y-9536221D01*
X11185000Y-12834886D02*
X11215000Y-12864886D01*
X11215000Y-12834886D02*
X11185000Y-12864886D01*
X11195000Y-10365000D02*
X11225000Y-10395000D01*
X11225000Y-10365000D02*
X11195000Y-10395000D01*
X11275000Y-10875000D02*
X11305000Y-10905000D01*
X11305000Y-10875000D02*
X11275000Y-10905000D01*
X11285000Y-9506221D02*
X11315000Y-9536221D01*
X11315000Y-9506221D02*
X11285000Y-9536221D01*
X11285000Y-10385000D02*
X11315000Y-10415000D01*
X11315000Y-10385000D02*
X11285000Y-10415000D01*
X11365000Y-8105000D02*
X11395000Y-8135000D01*
X11395000Y-8105000D02*
X11365000Y-8135000D01*
X11365000Y-8185000D02*
X11395000Y-8215000D01*
X11395000Y-8185000D02*
X11365000Y-8215000D01*
X11365000Y-8885000D02*
X11395000Y-8915000D01*
X11395000Y-8885000D02*
X11365000Y-8915000D01*
X11365000Y-8965000D02*
X11395000Y-8995000D01*
X11395000Y-8965000D02*
X11365000Y-8995000D01*
X11390000Y-8290000D02*
X11420000Y-8320000D01*
X11420000Y-8290000D02*
X11390000Y-8320000D01*
X11390000Y-8780000D02*
X11420000Y-8810000D01*
X11420000Y-8780000D02*
X11390000Y-8810000D01*
X11425000Y-7945000D02*
X11455000Y-7975000D01*
X11455000Y-7945000D02*
X11425000Y-7975000D01*
X11425000Y-9125000D02*
X11455000Y-9155000D01*
X11455000Y-9125000D02*
X11425000Y-9155000D01*
X11435000Y-9935000D02*
X11465000Y-9965000D01*
X11465000Y-9935000D02*
X11435000Y-9965000D01*
X11485000Y-11585000D02*
X11515000Y-11615000D01*
X11515000Y-11585000D02*
X11485000Y-11615000D01*
X11485100Y-11472500D02*
X11515100Y-11502500D01*
X11515100Y-11472500D02*
X11485100Y-11502500D01*
X11535000Y-9935000D02*
X11565000Y-9965000D01*
X11565000Y-9935000D02*
X11535000Y-9965000D01*
X11545000Y-10575000D02*
X11575000Y-10605000D01*
X11575000Y-10575000D02*
X11545000Y-10605000D01*
X11555050Y-11660000D02*
X11585050Y-11690000D01*
X11585050Y-11660000D02*
X11555050Y-11690000D01*
X11625000Y-11515000D02*
X11655000Y-11545000D01*
X11655000Y-11515000D02*
X11625000Y-11545000D01*
X11645000Y-10195000D02*
X11675000Y-10225000D01*
X11675000Y-10195000D02*
X11645000Y-10225000D01*
X11645000Y-10575000D02*
X11675000Y-10605000D01*
X11675000Y-10575000D02*
X11645000Y-10605000D01*
X11655000Y-8205000D02*
X11685000Y-8235000D01*
X11685000Y-8205000D02*
X11655000Y-8235000D01*
X11685000Y-7683337D02*
X11715000Y-7713337D01*
X11715000Y-7683337D02*
X11685000Y-7713337D01*
X11685000Y-12834423D02*
X11715000Y-12864423D01*
X11715000Y-12834423D02*
X11685000Y-12864423D01*
X11694950Y-11435000D02*
X11724950Y-11465000D01*
X11724950Y-11435000D02*
X11694950Y-11465000D01*
X11715000Y-8490000D02*
X11745000Y-8520000D01*
X11745000Y-8490000D02*
X11715000Y-8520000D01*
X11715000Y-8680000D02*
X11745000Y-8710000D01*
X11745000Y-8680000D02*
X11715000Y-8710000D01*
X11735000Y-8835000D02*
X11765000Y-8865000D01*
X11765000Y-8835000D02*
X11735000Y-8865000D01*
X11765000Y-8385000D02*
X11795000Y-8415000D01*
X11795000Y-8385000D02*
X11765000Y-8415000D01*
X11765000Y-8585000D02*
X11795000Y-8615000D01*
X11795000Y-8585000D02*
X11765000Y-8615000D01*
X11775000Y-11385000D02*
X11805000Y-11415000D01*
X11805000Y-11385000D02*
X11775000Y-11415000D01*
X11785000Y-9635000D02*
X11815000Y-9665000D01*
X11815000Y-9635000D02*
X11785000Y-9665000D01*
X11845000Y-11625000D02*
X11875000Y-11655000D01*
X11875000Y-11625000D02*
X11845000Y-11655000D01*
X11855000Y-8365000D02*
X11885000Y-8395000D01*
X11885000Y-8365000D02*
X11855000Y-8395000D01*
X11900000Y-10910000D02*
X11930000Y-10940000D01*
X11930000Y-10910000D02*
X11900000Y-10940000D01*
X11900000Y-11552911D02*
X11930000Y-11582911D01*
X11930000Y-11552911D02*
X11900000Y-11582911D01*
X11905000Y-12045000D02*
X11935000Y-12075000D01*
X11935000Y-12045000D02*
X11905000Y-12075000D01*
X11905000Y-12145000D02*
X11935000Y-12175000D01*
X11935000Y-12145000D02*
X11905000Y-12175000D01*
X11905000Y-12245000D02*
X11935000Y-12275000D01*
X11935000Y-12245000D02*
X11905000Y-12275000D01*
X11995000Y-8365000D02*
X12025000Y-8395000D01*
X12025000Y-8365000D02*
X11995000Y-8395000D01*
X12005000Y-10880000D02*
X12035000Y-10910000D01*
X12035000Y-10880000D02*
X12005000Y-10910000D01*
X12005000Y-10985000D02*
X12035000Y-11015000D01*
X12035000Y-10985000D02*
X12005000Y-11015000D01*
X12010000Y-9858452D02*
X12040000Y-9888452D01*
X12040000Y-9858452D02*
X12010000Y-9888452D01*
X12025000Y-11125000D02*
X12055000Y-11155000D01*
X12055000Y-11125000D02*
X12025000Y-11155000D01*
X12025000Y-11225000D02*
X12055000Y-11255000D01*
X12055000Y-11225000D02*
X12025000Y-11255000D01*
X12060000Y-11935000D02*
X12090000Y-11965000D01*
X12090000Y-11935000D02*
X12060000Y-11965000D01*
X12105000Y-11855000D02*
X12135000Y-11885000D01*
X12135000Y-11855000D02*
X12105000Y-11885000D01*
X12125000Y-9855000D02*
X12155000Y-9885000D01*
X12155000Y-9855000D02*
X12125000Y-9885000D01*
X12185000Y-7682506D02*
X12215000Y-7712506D01*
X12215000Y-7682506D02*
X12185000Y-7712506D01*
X12185000Y-10385000D02*
X12215000Y-10415000D01*
X12215000Y-10385000D02*
X12185000Y-10415000D01*
X12185000Y-12185000D02*
X12215000Y-12215000D01*
X12215000Y-12185000D02*
X12185000Y-12215000D01*
X12185000Y-12834308D02*
X12215000Y-12864308D01*
X12215000Y-12834308D02*
X12185000Y-12864308D01*
X12195000Y-10705000D02*
X12225000Y-10735000D01*
X12225000Y-10705000D02*
X12195000Y-10735000D01*
X12215000Y-11205000D02*
X12245000Y-11235000D01*
X12245000Y-11205000D02*
X12215000Y-11235000D01*
X12235000Y-8660592D02*
X12265000Y-8690592D01*
X12265000Y-8660592D02*
X12235000Y-8690592D01*
X12280000Y-11135000D02*
X12310000Y-11165000D01*
X12310000Y-11135000D02*
X12280000Y-11165000D01*
X12285000Y-10385000D02*
X12315000Y-10415000D01*
X12315000Y-10385000D02*
X12285000Y-10415000D01*
X12290000Y-10705000D02*
X12320000Y-10735000D01*
X12320000Y-10705000D02*
X12290000Y-10735000D01*
X12345000Y-11205000D02*
X12375000Y-11235000D01*
X12375000Y-11205000D02*
X12345000Y-11235000D01*
X12485000Y-12245000D02*
X12515000Y-12275000D01*
X12515000Y-12245000D02*
X12485000Y-12275000D01*
X12495000Y-10165000D02*
X12525000Y-10195000D01*
X12525000Y-10165000D02*
X12495000Y-10195000D01*
X12505000Y-8365000D02*
X12535000Y-8395000D01*
X12535000Y-8365000D02*
X12505000Y-8395000D01*
X12515000Y-9240000D02*
X12545000Y-9270000D01*
X12545000Y-9240000D02*
X12515000Y-9270000D01*
X12515000Y-9335000D02*
X12545000Y-9365000D01*
X12545000Y-9335000D02*
X12515000Y-9365000D01*
X12540000Y-11455000D02*
X12570000Y-11485000D01*
X12570000Y-11455000D02*
X12540000Y-11485000D01*
X12560000Y-10240000D02*
X12590000Y-10270000D01*
X12590000Y-10240000D02*
X12560000Y-10270000D01*
X12591250Y-10616250D02*
X12621250Y-10646250D01*
X12621250Y-10616250D02*
X12591250Y-10646250D01*
X12630000Y-10315000D02*
X12660000Y-10345000D01*
X12660000Y-10315000D02*
X12630000Y-10345000D01*
X12645000Y-11455000D02*
X12675000Y-11485000D01*
X12675000Y-11455000D02*
X12645000Y-11485000D01*
X12680000Y-10540000D02*
X12710000Y-10570000D01*
X12710000Y-10540000D02*
X12680000Y-10570000D01*
X12685000Y-7682506D02*
X12715000Y-7712506D01*
X12715000Y-7682506D02*
X12685000Y-7712506D01*
X12685000Y-12833845D02*
X12715000Y-12863845D01*
X12715000Y-12833845D02*
X12685000Y-12863845D01*
X12735000Y-8660592D02*
X12765000Y-8690592D01*
X12765000Y-8660592D02*
X12735000Y-8690592D01*
X12755000Y-10454950D02*
X12785000Y-10484950D01*
X12785000Y-10454950D02*
X12755000Y-10484950D01*
X12784994Y-9465000D02*
X12814994Y-9495000D01*
X12814994Y-9465000D02*
X12784994Y-9495000D01*
X12785000Y-9575413D02*
X12815000Y-9605413D01*
X12815000Y-9575413D02*
X12785000Y-9605413D01*
X12870000Y-11175000D02*
X12900000Y-11205000D01*
X12900000Y-11175000D02*
X12870000Y-11205000D01*
X12965000Y-11175000D02*
X12995000Y-11205000D01*
X12995000Y-11175000D02*
X12965000Y-11205000D01*
X12985000Y-9495000D02*
X13015000Y-9525000D01*
X13015000Y-9495000D02*
X12985000Y-9525000D01*
X13015000Y-8365000D02*
X13045000Y-8395000D01*
X13045000Y-8365000D02*
X13015000Y-8395000D01*
X13035000Y-10585000D02*
X13065000Y-10615000D01*
X13065000Y-10585000D02*
X13035000Y-10615000D01*
X13035000Y-10735000D02*
X13065000Y-10765000D01*
X13065000Y-10735000D02*
X13035000Y-10765000D01*
X13105000Y-10655000D02*
X13135000Y-10685000D01*
X13135000Y-10655000D02*
X13105000Y-10685000D01*
X13125000Y-9875000D02*
X13155000Y-9905000D01*
X13155000Y-9875000D02*
X13125000Y-9905000D01*
X13185000Y-7681674D02*
X13215000Y-7711674D01*
X13215000Y-7681674D02*
X13185000Y-7711674D01*
X13185000Y-11179933D02*
X13215000Y-11209933D01*
X13215000Y-11179933D02*
X13185000Y-11209933D01*
X13185000Y-11509130D02*
X13215000Y-11539130D01*
X13215000Y-11509130D02*
X13185000Y-11539130D01*
X13185000Y-12833731D02*
X13215000Y-12863731D01*
X13215000Y-12833731D02*
X13185000Y-12863731D01*
X13285000Y-8664882D02*
X13315000Y-8694882D01*
X13315000Y-8664882D02*
X13285000Y-8694882D01*
X13285000Y-9765000D02*
X13315000Y-9795000D01*
X13315000Y-9765000D02*
X13285000Y-9795000D01*
X13285000Y-10125000D02*
X13315000Y-10155000D01*
X13315000Y-10125000D02*
X13285000Y-10155000D01*
X13285000Y-10822350D02*
X13315000Y-10852350D01*
X13315000Y-10822350D02*
X13285000Y-10852350D01*
X13305000Y-12045000D02*
X13335000Y-12075000D01*
X13335000Y-12045000D02*
X13305000Y-12075000D01*
X13305000Y-12145000D02*
X13335000Y-12175000D01*
X13335000Y-12145000D02*
X13305000Y-12175000D01*
X13305000Y-12245000D02*
X13335000Y-12275000D01*
X13335000Y-12245000D02*
X13305000Y-12275000D01*
X13315000Y-8935000D02*
X13345000Y-8965000D01*
X13345000Y-8935000D02*
X13315000Y-8965000D01*
X13325000Y-11085000D02*
X13355000Y-11115000D01*
X13355000Y-11085000D02*
X13325000Y-11115000D01*
X13344836Y-10384880D02*
X13374836Y-10414880D01*
X13374836Y-10384880D02*
X13344836Y-10414880D01*
X13344950Y-10515050D02*
X13374950Y-10545050D01*
X13374950Y-10515050D02*
X13344950Y-10545050D01*
X13355000Y-10185000D02*
X13385000Y-10215000D01*
X13385000Y-10185000D02*
X13355000Y-10215000D01*
X13405000Y-8935000D02*
X13435000Y-8965000D01*
X13435000Y-8935000D02*
X13405000Y-8965000D01*
X13435000Y-10438196D02*
X13465000Y-10468196D01*
X13465000Y-10438196D02*
X13435000Y-10468196D01*
X13445000Y-9765000D02*
X13475000Y-9795000D01*
X13475000Y-9765000D02*
X13445000Y-9795000D01*
X13445000Y-10125000D02*
X13475000Y-10155000D01*
X13475000Y-10125000D02*
X13445000Y-10155000D01*
X13470000Y-10770000D02*
X13500000Y-10800000D01*
X13500000Y-10770000D02*
X13470000Y-10800000D01*
X13485000Y-8935000D02*
X13515000Y-8965000D01*
X13515000Y-8935000D02*
X13485000Y-8965000D01*
X13525000Y-8365000D02*
X13555000Y-8395000D01*
X13555000Y-8365000D02*
X13525000Y-8395000D01*
X13565000Y-8935000D02*
X13595000Y-8965000D01*
X13595000Y-8935000D02*
X13565000Y-8965000D01*
X13575000Y-9655000D02*
X13605000Y-9685000D01*
X13605000Y-9655000D02*
X13575000Y-9685000D01*
X13605000Y-9765000D02*
X13635000Y-9795000D01*
X13635000Y-9765000D02*
X13605000Y-9795000D01*
X13645000Y-8935000D02*
X13675000Y-8965000D01*
X13675000Y-8935000D02*
X13645000Y-8965000D01*
X13655000Y-9535000D02*
X13685000Y-9565000D01*
X13685000Y-9535000D02*
X13655000Y-9565000D01*
X13685000Y-7680843D02*
X13715000Y-7710843D01*
X13715000Y-7680843D02*
X13685000Y-7710843D01*
X13685000Y-12833268D02*
X13715000Y-12863268D01*
X13715000Y-12833268D02*
X13685000Y-12863268D01*
X13705000Y-11055000D02*
X13735000Y-11085000D01*
X13735000Y-11055000D02*
X13705000Y-11085000D01*
X13705000Y-11655000D02*
X13735000Y-11685000D01*
X13735000Y-11655000D02*
X13705000Y-11685000D01*
X13735000Y-8935000D02*
X13765000Y-8965000D01*
X13765000Y-8935000D02*
X13735000Y-8965000D01*
X13735000Y-9465000D02*
X13765000Y-9495000D01*
X13765000Y-9465000D02*
X13735000Y-9495000D01*
X13745000Y-12045000D02*
X13775000Y-12075000D01*
X13775000Y-12045000D02*
X13745000Y-12075000D01*
X13745000Y-12144722D02*
X13775000Y-12174722D01*
X13775000Y-12144722D02*
X13745000Y-12174722D01*
X13775000Y-9575000D02*
X13805000Y-9605000D01*
X13805000Y-9575000D02*
X13775000Y-9605000D01*
X13785000Y-8669172D02*
X13815000Y-8699172D01*
X13815000Y-8669172D02*
X13785000Y-8699172D01*
X13815000Y-9395000D02*
X13845000Y-9425000D01*
X13845000Y-9395000D02*
X13815000Y-9425000D01*
X13815000Y-11125000D02*
X13845000Y-11155000D01*
X13845000Y-11125000D02*
X13815000Y-11155000D01*
X13815000Y-11625000D02*
X13845000Y-11655000D01*
X13845000Y-11625000D02*
X13815000Y-11655000D01*
X13825000Y-8935000D02*
X13855000Y-8965000D01*
X13855000Y-8935000D02*
X13825000Y-8965000D01*
X13885000Y-11055000D02*
X13915000Y-11085000D01*
X13915000Y-11055000D02*
X13885000Y-11085000D01*
X13885000Y-11545000D02*
X13915000Y-11575000D01*
X13915000Y-11545000D02*
X13885000Y-11575000D01*
X13885000Y-12245000D02*
X13915000Y-12275000D01*
X13915000Y-12245000D02*
X13885000Y-12275000D01*
X13895000Y-9325000D02*
X13925000Y-9355000D01*
X13925000Y-9325000D02*
X13895000Y-9355000D01*
X13895000Y-10775000D02*
X13925000Y-10805000D01*
X13925000Y-10775000D02*
X13895000Y-10805000D01*
X13905000Y-10365000D02*
X13935000Y-10395000D01*
X13935000Y-10365000D02*
X13905000Y-10395000D01*
X13905000Y-10485000D02*
X13935000Y-10515000D01*
X13935000Y-10485000D02*
X13905000Y-10515000D01*
X13915000Y-8935000D02*
X13945000Y-8965000D01*
X13945000Y-8935000D02*
X13915000Y-8965000D01*
X13935000Y-9435000D02*
X13965000Y-9465000D01*
X13965000Y-9435000D02*
X13935000Y-9465000D01*
X13975000Y-9255000D02*
X14005000Y-9285000D01*
X14005000Y-9255000D02*
X13975000Y-9285000D01*
X13975000Y-10695000D02*
X14005000Y-10725000D01*
X14005000Y-10695000D02*
X13975000Y-10725000D01*
X13985000Y-11125000D02*
X14015000Y-11155000D01*
X14015000Y-11125000D02*
X13985000Y-11155000D01*
X13985000Y-11515000D02*
X14015000Y-11545000D01*
X14015000Y-11515000D02*
X13985000Y-11545000D01*
X13995000Y-8935000D02*
X14025000Y-8965000D01*
X14025000Y-8935000D02*
X13995000Y-8965000D01*
X14035000Y-8365000D02*
X14065000Y-8395000D01*
X14065000Y-8365000D02*
X14035000Y-8395000D01*
X14045000Y-10485000D02*
X14075000Y-10515000D01*
X14075000Y-10485000D02*
X14045000Y-10515000D01*
X14055000Y-9185000D02*
X14085000Y-9215000D01*
X14085000Y-9185000D02*
X14055000Y-9215000D01*
X14075000Y-8935000D02*
X14105000Y-8965000D01*
X14105000Y-8935000D02*
X14075000Y-8965000D01*
X14075000Y-11055000D02*
X14105000Y-11085000D01*
X14105000Y-11055000D02*
X14075000Y-11085000D01*
X14075000Y-11435000D02*
X14105000Y-11465000D01*
X14105000Y-11435000D02*
X14075000Y-11465000D01*
X14085000Y-9295000D02*
X14115000Y-9325000D01*
X14115000Y-9295000D02*
X14085000Y-9325000D01*
X14125000Y-10585000D02*
X14155000Y-10615000D01*
X14155000Y-10585000D02*
X14125000Y-10615000D01*
X14135000Y-9115000D02*
X14165000Y-9145000D01*
X14165000Y-9115000D02*
X14135000Y-9145000D01*
X14155000Y-8935000D02*
X14185000Y-8965000D01*
X14185000Y-8935000D02*
X14155000Y-8965000D01*
X14155000Y-10485000D02*
X14185000Y-10515000D01*
X14185000Y-10485000D02*
X14155000Y-10515000D01*
X14185000Y-7680843D02*
X14215000Y-7710843D01*
X14215000Y-7680843D02*
X14185000Y-7710843D01*
X14185000Y-12833153D02*
X14215000Y-12863153D01*
X14215000Y-12833153D02*
X14185000Y-12863153D01*
X14215000Y-9045000D02*
X14245000Y-9075000D01*
X14245000Y-9045000D02*
X14215000Y-9075000D01*
X14235000Y-9165000D02*
X14265000Y-9195000D01*
X14265000Y-9165000D02*
X14235000Y-9195000D01*
X14245000Y-8935000D02*
X14275000Y-8965000D01*
X14275000Y-8935000D02*
X14245000Y-8965000D01*
X14495000Y-8875000D02*
X14525000Y-8905000D01*
X14525000Y-8875000D02*
X14495000Y-8905000D01*
X14495000Y-11495000D02*
X14525000Y-11525000D01*
X14525000Y-11495000D02*
X14495000Y-11525000D01*
X14655000Y-8875000D02*
X14685000Y-8905000D01*
X14685000Y-8875000D02*
X14655000Y-8905000D01*
X14655000Y-11495000D02*
X14685000Y-11525000D01*
X14685000Y-11495000D02*
X14655000Y-11525000D01*
X14685000Y-7680011D02*
X14715000Y-7710011D01*
X14715000Y-7680011D02*
X14685000Y-7710011D01*
X14685000Y-8185000D02*
X14715000Y-8215000D01*
X14715000Y-8185000D02*
X14685000Y-8215000D01*
X14685000Y-12832690D02*
X14715000Y-12862690D01*
X14715000Y-12832690D02*
X14685000Y-12862690D01*
X14705000Y-12045000D02*
X14735000Y-12075000D01*
X14735000Y-12045000D02*
X14705000Y-12075000D01*
X14705000Y-12143448D02*
X14735000Y-12173448D01*
X14735000Y-12143448D02*
X14705000Y-12173448D01*
X14705000Y-12245000D02*
X14735000Y-12275000D01*
X14735000Y-12245000D02*
X14705000Y-12275000D01*
X15035050Y-9605000D02*
X15065050Y-9635000D01*
X15065050Y-9605000D02*
X15035050Y-9635000D01*
X15045000Y-9697350D02*
X15075000Y-9727350D01*
X15075000Y-9697350D02*
X15045000Y-9727350D01*
X15085000Y-11005000D02*
X15115000Y-11035000D01*
X15115000Y-11005000D02*
X15085000Y-11035000D01*
X15085000Y-11110000D02*
X15115000Y-11140000D01*
X15115000Y-11110000D02*
X15085000Y-11140000D01*
X15120000Y-10220000D02*
X15150000Y-10250000D01*
X15150000Y-10220000D02*
X15120000Y-10250000D01*
X15130000Y-9645000D02*
X15160000Y-9675000D01*
X15160000Y-9645000D02*
X15130000Y-9675000D01*
X15135000Y-8185000D02*
X15165000Y-8215000D01*
X15165000Y-8185000D02*
X15135000Y-8215000D01*
X15152727Y-11785000D02*
X15182727Y-11815000D01*
X15182727Y-11785000D02*
X15152727Y-11815000D01*
X15155000Y-12045000D02*
X15185000Y-12075000D01*
X15185000Y-12045000D02*
X15155000Y-12075000D01*
X15155000Y-12142650D02*
X15185000Y-12172650D01*
X15185000Y-12142650D02*
X15155000Y-12172650D01*
X15185000Y-7679180D02*
X15215000Y-7709180D01*
X15215000Y-7679180D02*
X15185000Y-7709180D01*
X15185000Y-8673782D02*
X15215000Y-8703782D01*
X15215000Y-8673782D02*
X15185000Y-8703782D01*
X15185000Y-12832576D02*
X15215000Y-12862576D01*
X15215000Y-12832576D02*
X15185000Y-12862576D01*
X15195000Y-9255000D02*
X15225000Y-9285000D01*
X15225000Y-9255000D02*
X15195000Y-9285000D01*
X15235000Y-9925000D02*
X15265000Y-9955000D01*
X15265000Y-9925000D02*
X15235000Y-9955000D01*
X15305000Y-12245000D02*
X15335000Y-12275000D01*
X15335000Y-12245000D02*
X15305000Y-12275000D01*
X15310000Y-9845000D02*
X15340000Y-9875000D01*
X15340000Y-9845000D02*
X15310000Y-9875000D01*
X15585000Y-9685000D02*
X15615000Y-9715000D01*
X15615000Y-9685000D02*
X15585000Y-9715000D01*
X15585000Y-10177251D02*
X15615000Y-10207251D01*
X15615000Y-10177251D02*
X15585000Y-10207251D01*
X15585000Y-10485000D02*
X15615000Y-10515000D01*
X15615000Y-10485000D02*
X15585000Y-10515000D01*
X15585000Y-10785000D02*
X15615000Y-10815000D01*
X15615000Y-10785000D02*
X15585000Y-10815000D01*
X15635000Y-10585000D02*
X15665000Y-10615000D01*
X15665000Y-10585000D02*
X15635000Y-10615000D01*
X15635000Y-10685000D02*
X15665000Y-10715000D01*
X15665000Y-10685000D02*
X15635000Y-10715000D01*
X15685000Y-7679180D02*
X15715000Y-7709180D01*
X15715000Y-7679180D02*
X15685000Y-7709180D01*
X15685000Y-8035000D02*
X15715000Y-8065000D01*
X15715000Y-8035000D02*
X15685000Y-8065000D01*
X15685000Y-8673782D02*
X15715000Y-8703782D01*
X15715000Y-8673782D02*
X15685000Y-8703782D01*
X15685000Y-9177383D02*
X15715000Y-9207383D01*
X15715000Y-9177383D02*
X15685000Y-9207383D01*
X15685000Y-12832113D02*
X15715000Y-12862113D01*
X15715000Y-12832113D02*
X15685000Y-12862113D01*
X15735000Y-10065000D02*
X15765000Y-10095000D01*
X15765000Y-10065000D02*
X15735000Y-10095000D01*
X15735000Y-10485000D02*
X15765000Y-10515000D01*
X15765000Y-10485000D02*
X15735000Y-10515000D01*
X15785000Y-11085000D02*
X15815000Y-11115000D01*
X15815000Y-11085000D02*
X15785000Y-11115000D01*
X15785000Y-11185000D02*
X15815000Y-11215000D01*
X15815000Y-11185000D02*
X15785000Y-11215000D01*
X15785000Y-11285000D02*
X15815000Y-11315000D01*
X15815000Y-11285000D02*
X15785000Y-11315000D01*
X15785000Y-11385000D02*
X15815000Y-11415000D01*
X15815000Y-11385000D02*
X15785000Y-11415000D01*
X15785000Y-11485000D02*
X15815000Y-11515000D01*
X15815000Y-11485000D02*
X15785000Y-11515000D01*
X15960000Y-11785000D02*
X15990000Y-11815000D01*
X15990000Y-11785000D02*
X15960000Y-11815000D01*
X16085000Y-10731210D02*
X16115000Y-10761210D01*
X16115000Y-10731210D02*
X16085000Y-10761210D01*
X16085000Y-12045000D02*
X16115000Y-12075000D01*
X16115000Y-12045000D02*
X16085000Y-12075000D01*
X16085000Y-12145000D02*
X16115000Y-12175000D01*
X16115000Y-12145000D02*
X16085000Y-12175000D01*
X16105000Y-12245000D02*
X16135000Y-12275000D01*
X16135000Y-12245000D02*
X16105000Y-12275000D01*
X16135000Y-11785000D02*
X16165000Y-11815000D01*
X16165000Y-11785000D02*
X16135000Y-11815000D01*
X16155000Y-10205000D02*
X16185000Y-10235000D01*
X16185000Y-10205000D02*
X16155000Y-10235000D01*
X16160000Y-11285000D02*
X16190000Y-11315000D01*
X16190000Y-11285000D02*
X16160000Y-11315000D01*
X16160000Y-11485000D02*
X16190000Y-11515000D01*
X16190000Y-11485000D02*
X16160000Y-11515000D01*
X16165000Y-9115000D02*
X16195000Y-9145000D01*
X16195000Y-9115000D02*
X16165000Y-9145000D01*
X16185000Y-7679180D02*
X16215000Y-7709180D01*
X16215000Y-7679180D02*
X16185000Y-7709180D01*
X16185000Y-8185000D02*
X16215000Y-8215000D01*
X16215000Y-8185000D02*
X16185000Y-8215000D01*
X16185000Y-8677357D02*
X16215000Y-8707357D01*
X16215000Y-8677357D02*
X16185000Y-8707357D01*
X16185000Y-11182913D02*
X16215000Y-11212912D01*
X16215000Y-11182913D02*
X16185000Y-11212912D01*
X16185000Y-11610000D02*
X16215000Y-11640000D01*
X16215000Y-11610000D02*
X16185000Y-11640000D01*
X16185000Y-12831999D02*
X16215000Y-12861999D01*
X16215000Y-12831999D02*
X16185000Y-12861999D01*
X16230000Y-11880000D02*
X16260000Y-11910000D01*
X16260000Y-11880000D02*
X16230000Y-11910000D01*
X16235000Y-8415000D02*
X16265000Y-8445000D01*
X16265000Y-8415000D02*
X16235000Y-8445000D01*
X16335000Y-8184450D02*
X16365000Y-8214450D01*
X16365000Y-8184450D02*
X16335000Y-8214450D01*
X16335000Y-8415000D02*
X16365000Y-8445000D01*
X16365000Y-8415000D02*
X16335000Y-8445000D01*
X16335000Y-8645000D02*
X16365000Y-8675000D01*
X16365000Y-8645000D02*
X16335000Y-8675000D01*
X16335000Y-10435000D02*
X16365000Y-10465000D01*
X16365000Y-10435000D02*
X16335000Y-10465000D01*
X16385000Y-12575000D02*
X16415000Y-12605000D01*
X16415000Y-12575000D02*
X16385000Y-12605000D01*
X16385000Y-12845000D02*
X16415000Y-12875000D01*
X16415000Y-12845000D02*
X16385000Y-12875000D01*
X16415000Y-8595000D02*
X16445000Y-8625000D01*
X16445000Y-8595000D02*
X16415000Y-8625000D01*
X16485000Y-12575000D02*
X16515000Y-12605000D01*
X16515000Y-12575000D02*
X16485000Y-12605000D01*
X16485000Y-9585000D02*
X16515000Y-9615000D01*
X16515000Y-9585000D02*
X16485000Y-9615000D01*
X16485000Y-12845000D02*
X16515000Y-12875000D01*
X16515000Y-12845000D02*
X16485000Y-12875000D01*
X16495000Y-11125000D02*
X16525000Y-11155000D01*
X16525000Y-11125000D02*
X16495000Y-11155000D01*
X16535000Y-10733279D02*
X16565000Y-10763279D01*
X16565000Y-10733279D02*
X16535000Y-10763279D01*
X16585000Y-11635000D02*
X16615000Y-11665000D01*
X16615000Y-11635000D02*
X16585000Y-11665000D01*
X16585000Y-12520000D02*
X16615000Y-12550000D01*
X16615000Y-12520000D02*
X16585000Y-12550000D01*
X16685000Y-7678348D02*
X16715000Y-7708348D01*
X16715000Y-7678348D02*
X16685000Y-7708348D01*
X16685000Y-8679852D02*
X16715000Y-8709852D01*
X16715000Y-8679852D02*
X16685000Y-8709852D01*
X16685000Y-9179452D02*
X16715000Y-9209452D01*
X16715000Y-9179452D02*
X16685000Y-9209452D01*
X16685000Y-10182217D02*
X16715000Y-10212217D01*
X16715000Y-10182217D02*
X16685000Y-10212217D01*
X16685000Y-11707579D02*
X16715000Y-11737579D01*
X16715000Y-11707579D02*
X16685000Y-11737579D01*
X16685000Y-12868905D02*
X16715000Y-12898905D01*
X16715000Y-12868905D02*
X16685000Y-12898905D01*
X16935000Y-11685000D02*
X16965000Y-11715000D01*
X16965000Y-11685000D02*
X16935000Y-11715000D01*
X16945000Y-10905000D02*
X16975000Y-10935000D01*
X16975000Y-10905000D02*
X16945000Y-10935000D01*
X17035000Y-11660000D02*
X17065000Y-11690000D01*
X17065000Y-11660000D02*
X17035000Y-11690000D01*
X17045000Y-10905000D02*
X17075000Y-10935000D01*
X17075000Y-10905000D02*
X17045000Y-10935000D01*
X17085000Y-10645000D02*
X17115000Y-10675000D01*
X17115000Y-10645000D02*
X17085000Y-10675000D01*
X17115000Y-12415000D02*
X17145000Y-12445000D01*
X17145000Y-12415000D02*
X17115000Y-12445000D01*
X17185000Y-7677517D02*
X17215000Y-7707517D01*
X17215000Y-7677517D02*
X17185000Y-7707517D01*
X17185000Y-8680932D02*
X17215000Y-8710932D01*
X17215000Y-8680932D02*
X17185000Y-8710932D01*
X17185000Y-9181521D02*
X17215000Y-9211521D01*
X17215000Y-9181521D02*
X17185000Y-9211521D01*
X17185000Y-10184699D02*
X17215000Y-10214699D01*
X17215000Y-10184699D02*
X17185000Y-10214699D01*
X17185000Y-10765000D02*
X17215000Y-10795000D01*
X17215000Y-10765000D02*
X17185000Y-10795000D01*
X17185000Y-12874053D02*
X17215000Y-12904053D01*
X17215000Y-12874053D02*
X17185000Y-12904053D01*
X17345000Y-9425000D02*
X17375000Y-9455000D01*
X17375000Y-9425000D02*
X17345000Y-9455000D01*
X17346000Y-10025000D02*
X17376000Y-10055000D01*
X17376000Y-10025000D02*
X17346000Y-10055000D01*
X17485000Y-10435000D02*
X17515000Y-10465000D01*
X17515000Y-10435000D02*
X17485000Y-10465000D01*
X17585000Y-8745000D02*
X17615000Y-8775000D01*
X17615000Y-8745000D02*
X17585000Y-8775000D01*
X17685000Y-7677517D02*
X17715000Y-7707517D01*
X17715000Y-7677517D02*
X17685000Y-7707517D01*
X17685000Y-9183590D02*
X17715000Y-9213590D01*
X17715000Y-9183590D02*
X17685000Y-9213590D01*
X17685000Y-12879201D02*
X17715000Y-12909201D01*
X17715000Y-12879201D02*
X17685000Y-12909201D01*
X17735000Y-11545000D02*
X17765000Y-11575000D01*
X17765000Y-11545000D02*
X17735000Y-11575000D01*
X17745000Y-10965000D02*
X17775000Y-10995000D01*
X17775000Y-10965000D02*
X17745000Y-10995000D01*
X17765000Y-9655000D02*
X17795000Y-9685000D01*
X17795000Y-9655000D02*
X17765000Y-9685000D01*
X17812500Y-7927500D02*
X17842500Y-7957500D01*
X17842500Y-7927500D02*
X17812500Y-7957500D01*
X17815000Y-10865000D02*
X17845000Y-10895000D01*
X17845000Y-10865000D02*
X17815000Y-10895000D01*
X17815000Y-11715000D02*
X17845000Y-11745000D01*
X17845000Y-11715000D02*
X17815000Y-11745000D01*
X17885000Y-9835000D02*
X17915000Y-9865000D01*
X17915000Y-9835000D02*
X17885000Y-9865000D01*
X18135050Y-9933717D02*
X18165050Y-9963717D01*
X18165050Y-9933717D02*
X18135050Y-9963717D01*
X18160000Y-10635000D02*
X18190000Y-10665000D01*
X18190000Y-10635000D02*
X18160000Y-10665000D01*
X18160000Y-11135000D02*
X18190000Y-11165000D01*
X18190000Y-11135000D02*
X18160000Y-11165000D01*
X18165000Y-10025000D02*
X18195000Y-10055000D01*
X18195000Y-10025000D02*
X18165000Y-10055000D01*
X18182818Y-11685000D02*
X18212818Y-11715000D01*
X18212818Y-11685000D02*
X18182818Y-11715000D01*
X18185000Y-7676685D02*
X18215000Y-7706685D01*
X18215000Y-7676685D02*
X18185000Y-7706685D01*
X18185000Y-8684507D02*
X18215000Y-8714507D01*
X18215000Y-8684507D02*
X18185000Y-8714507D01*
X18185000Y-9185000D02*
X18215000Y-9215000D01*
X18215000Y-9185000D02*
X18185000Y-9215000D01*
X18185000Y-12884349D02*
X18215000Y-12914349D01*
X18215000Y-12884349D02*
X18185000Y-12914349D01*
X18215000Y-8305000D02*
X18245000Y-8335000D01*
X18245000Y-8305000D02*
X18215000Y-8335000D01*
X18260000Y-10635000D02*
X18290000Y-10665000D01*
X18290000Y-10635000D02*
X18260000Y-10665000D01*
X18260000Y-11135000D02*
X18290000Y-11165000D01*
X18290000Y-11135000D02*
X18260000Y-11165000D01*
X18410000Y-10885000D02*
X18440000Y-10915000D01*
X18440000Y-10885000D02*
X18410000Y-10915000D01*
X18535000Y-10535000D02*
X18565000Y-10565000D01*
X18565000Y-10535000D02*
X18535000Y-10565000D01*
X18535000Y-10785000D02*
X18565000Y-10815000D01*
X18565000Y-10785000D02*
X18535000Y-10815000D01*
X18660621Y-12885000D02*
X18690621Y-12915000D01*
X18690621Y-12885000D02*
X18660621Y-12915000D01*
X18660864Y-12185000D02*
X18690864Y-12215000D01*
X18690864Y-12185000D02*
X18660864Y-12215000D01*
X18662588Y-11685000D02*
X18692588Y-11715000D01*
X18692588Y-11685000D02*
X18662588Y-11715000D01*
X18670700Y-10185000D02*
X18700700Y-10215000D01*
X18700700Y-10185000D02*
X18670700Y-10215000D01*
X18674275Y-9185000D02*
X18704275Y-9215000D01*
X18704275Y-9185000D02*
X18674275Y-9215000D01*
X18677850Y-9685000D02*
X18707850Y-9715000D01*
X18707850Y-9685000D02*
X18677850Y-9715000D01*
X18679329Y-8685000D02*
X18709329Y-8715000D01*
X18709329Y-8685000D02*
X18679329Y-8715000D01*
X18682904Y-8185000D02*
X18712904Y-8215000D01*
X18712904Y-8185000D02*
X18682904Y-8215000D01*
X18685000Y-7675000D02*
X18715000Y-7705000D01*
X18715000Y-7675000D02*
X18685000Y-7705000D01*
X13215000Y-9370000D02*
G75*
G03*
X13215000Y-9370000I-15000J0D01*
G01*
X13215000Y-9450000D02*
G75*
G03*
X13215000Y-9450000I-15000J0D01*
G01*
X13215000Y-9530000D02*
G75*
G03*
X13215000Y-9530000I-15000J0D01*
G01*
X13295000Y-9370000D02*
G75*
G03*
X13295000Y-9370000I-15000J0D01*
G01*
X13295000Y-9450000D02*
G75*
G03*
X13295000Y-9450000I-15000J0D01*
G01*
X13295000Y-9530000D02*
G75*
G03*
X13295000Y-9530000I-15000J0D01*
G01*
X13375000Y-9370000D02*
G75*
G03*
X13375000Y-9370000I-15000J0D01*
G01*
X13375000Y-9450000D02*
G75*
G03*
X13375000Y-9450000I-15000J0D01*
G01*
X13375000Y-9530000D02*
G75*
G03*
X13375000Y-9530000I-15000J0D01*
G01*
X17093330Y-11806000D02*
G75*
G03*
X17093330Y-11806000I-15000J0D01*
G01*
X17093330Y-11895000D02*
G75*
G03*
X17093330Y-11895000I-15000J0D01*
G01*
X17093330Y-11984000D02*
G75*
G03*
X17093330Y-11984000I-15000J0D01*
G01*
X17193330Y-11806000D02*
G75*
G03*
X17193330Y-11806000I-15000J0D01*
G01*
X17193330Y-11895000D02*
G75*
G03*
X17193330Y-11895000I-15000J0D01*
G01*
X17193330Y-11984000D02*
G75*
G03*
X17193330Y-11984000I-15000J0D01*
G01*
D12*
X10745000Y-8088000D02*
X10745000Y-8148000D01*
X10715000Y-8118000D02*
X10775000Y-8118000D01*
D10*
X10715000Y-8148000D02*
X10775000Y-8148000D01*
X10775000Y-8148000D02*
G75*
G03*
X10775000Y-8088000I0J30000D01*
G01*
X10775000Y-8088000D02*
X10715000Y-8088000D01*
X10715000Y-8088000D02*
G75*
G03*
X10715000Y-8148000I0J-30000D01*
G01*
D12*
X10745000Y-8952000D02*
X10745000Y-9012000D01*
X10715000Y-8982000D02*
X10775000Y-8982000D01*
D10*
X10715000Y-9012000D02*
X10775000Y-9012000D01*
X10775000Y-9012000D02*
G75*
G03*
X10775000Y-8952000I0J30000D01*
G01*
X10775000Y-8952000D02*
X10715000Y-8952000D01*
X10715000Y-8952000D02*
G75*
G03*
X10715000Y-9012000I0J-30000D01*
G01*
D12*
X11163000Y-8088000D02*
X11163000Y-8148000D01*
X11133000Y-8118000D02*
X11193000Y-8118000D01*
D10*
X11108000Y-8148000D02*
X11218000Y-8148000D01*
X11218000Y-8148000D02*
G75*
G03*
X11218000Y-8088000I0J30000D01*
G01*
X11218000Y-8088000D02*
X11108000Y-8088000D01*
X11108000Y-8088000D02*
G75*
G03*
X11108000Y-8148000I0J-30000D01*
G01*
D12*
X11163000Y-8952000D02*
X11163000Y-9012000D01*
X11133000Y-8982000D02*
X11193000Y-8982000D01*
D10*
X11108000Y-9012000D02*
X11218000Y-9012000D01*
X11218000Y-9012000D02*
G75*
G03*
X11218000Y-8952000I0J30000D01*
G01*
X11218000Y-8952000D02*
X11108000Y-8952000D01*
X11108000Y-8952000D02*
G75*
G03*
X11108000Y-9012000I0J-30000D01*
G01*
D13*
X10785356Y-10835356D02*
X10785356Y-10764644D01*
X10714644Y-10764644D01*
X10714644Y-10835356D01*
X10785356Y-10835356D01*
X10785356Y-11185356D02*
X10785356Y-11114644D01*
X10714644Y-11114644D01*
X10714644Y-11185356D01*
X10785356Y-11185356D01*
X11835356Y-9135356D02*
X11835356Y-9064644D01*
X11764644Y-9064644D01*
X11764644Y-9135356D01*
X11835356Y-9135356D01*
X11835356Y-9485356D02*
X11835356Y-9414644D01*
X11764644Y-9414644D01*
X11764644Y-9485356D01*
X11835356Y-9485356D01*
X12049356Y-7931356D02*
X12049356Y-7860644D01*
X11978644Y-7860644D01*
X11978644Y-7931356D01*
X12049356Y-7931356D01*
X12049356Y-8185356D02*
X12049356Y-8114644D01*
X11978644Y-8114644D01*
X11978644Y-8185356D01*
X12049356Y-8185356D01*
X12303356Y-7931356D02*
X12303356Y-7860644D01*
X12232644Y-7860644D01*
X12232644Y-7931356D01*
X12303356Y-7931356D01*
X12303356Y-8185356D02*
X12303356Y-8114644D01*
X12232644Y-8114644D01*
X12232644Y-8185356D01*
X12303356Y-8185356D01*
X12557356Y-7931356D02*
X12557356Y-7860644D01*
X12486644Y-7860644D01*
X12486644Y-7931356D01*
X12557356Y-7931356D01*
X12557356Y-8185356D02*
X12557356Y-8114644D01*
X12486644Y-8114644D01*
X12486644Y-8185356D01*
X12557356Y-8185356D01*
X12811356Y-7931356D02*
X12811356Y-7860644D01*
X12740644Y-7860644D01*
X12740644Y-7931356D01*
X12811356Y-7931356D01*
X12811356Y-8185356D02*
X12811356Y-8114644D01*
X12740644Y-8114644D01*
X12740644Y-8185356D01*
X12811356Y-8185356D01*
X13065356Y-7931356D02*
X13065356Y-7860644D01*
X12994644Y-7860644D01*
X12994644Y-7931356D01*
X13065356Y-7931356D01*
X13065356Y-8185356D02*
X13065356Y-8114644D01*
X12994644Y-8114644D01*
X12994644Y-8185356D01*
X13065356Y-8185356D01*
X13319356Y-7931356D02*
X13319356Y-7860644D01*
X13248644Y-7860644D01*
X13248644Y-7931356D01*
X13319356Y-7931356D01*
X13319356Y-8185356D02*
X13319356Y-8114644D01*
X13248644Y-8114644D01*
X13248644Y-8185356D01*
X13319356Y-8185356D01*
X13573356Y-7931356D02*
X13573356Y-7860644D01*
X13502644Y-7860644D01*
X13502644Y-7931356D01*
X13573356Y-7931356D01*
X13573356Y-8185356D02*
X13573356Y-8114644D01*
X13502644Y-8114644D01*
X13502644Y-8185356D01*
X13573356Y-8185356D01*
X13827356Y-7931356D02*
X13827356Y-7860644D01*
X13756644Y-7860644D01*
X13756644Y-7931356D01*
X13827356Y-7931356D01*
X13827356Y-8185356D02*
X13827356Y-8114644D01*
X13756644Y-8114644D01*
X13756644Y-8185356D01*
X13827356Y-8185356D01*
X14081356Y-7931356D02*
X14081356Y-7860644D01*
X14010644Y-7860644D01*
X14010644Y-7931356D01*
X14081356Y-7931356D01*
X14081356Y-8185356D02*
X14081356Y-8114644D01*
X14010644Y-8114644D01*
X14010644Y-8185356D01*
X14081356Y-8185356D01*
X14335356Y-7931356D02*
X14335356Y-7860644D01*
X14264644Y-7860644D01*
X14264644Y-7931356D01*
X14335356Y-7931356D01*
X14335356Y-8185356D02*
X14335356Y-8114644D01*
X14264644Y-8114644D01*
X14264644Y-8185356D01*
X14335356Y-8185356D01*
X15515356Y-8165356D02*
X15515356Y-8094644D01*
X15444644Y-8094644D01*
X15444644Y-8165356D01*
X15515356Y-8165356D01*
X15515356Y-8515356D02*
X15515356Y-8444644D01*
X15444644Y-8444644D01*
X15444644Y-8515356D01*
X15515356Y-8515356D01*
X16135356Y-8985356D02*
X16135356Y-8914644D01*
X16064644Y-8914644D01*
X16064644Y-8985356D01*
X16135356Y-8985356D01*
X16135356Y-9335356D02*
X16135356Y-9264644D01*
X16064644Y-9264644D01*
X16064644Y-9335356D01*
X16135356Y-9335356D01*
X16135356Y-9735356D02*
X16135356Y-9664644D01*
X16064644Y-9664644D01*
X16064644Y-9735356D01*
X16135356Y-9735356D01*
X16135356Y-10085356D02*
X16135356Y-10014644D01*
X16064644Y-10014644D01*
X16064644Y-10085356D01*
X16135356Y-10085356D01*
X16135356Y-10435356D02*
X16135356Y-10364644D01*
X16064644Y-10364644D01*
X16064644Y-10435356D01*
X16135356Y-10435356D01*
X17506356Y-9885356D02*
X17506356Y-9814644D01*
X17435644Y-9814644D01*
X17435644Y-9885356D01*
X17506356Y-9885356D01*
X17507856Y-8355356D02*
X17507856Y-8284644D01*
X17437144Y-8284644D01*
X17437144Y-8355356D01*
X17507856Y-8355356D01*
X17760356Y-9885356D02*
X17760356Y-9814644D01*
X17689644Y-9814644D01*
X17689644Y-9885356D01*
X17760356Y-9885356D01*
X17761856Y-8355356D02*
X17761856Y-8284644D01*
X17691144Y-8284644D01*
X17691144Y-8355356D01*
X17761856Y-8355356D01*
D14*
X10750000Y-12560000D02*
X10810000Y-12500000D01*
X10750000Y-12440000D01*
X10690000Y-12500000D01*
X10750000Y-12560000D01*
X11100000Y-12560000D02*
X11160000Y-12500000D01*
X11100000Y-12440000D01*
X11040000Y-12500000D01*
X11100000Y-12560000D01*
X11450000Y-12560000D02*
X11510000Y-12500000D01*
X11450000Y-12440000D01*
X11390000Y-12500000D01*
X11450000Y-12560000D01*
X11800000Y-12560000D02*
X11860000Y-12500000D01*
X11800000Y-12440000D01*
X11740000Y-12500000D01*
X11800000Y-12560000D01*
X12150000Y-12560000D02*
X12210000Y-12500000D01*
X12150000Y-12440000D01*
X12090000Y-12500000D01*
X12150000Y-12560000D01*
X12500000Y-12560000D02*
X12560000Y-12500000D01*
X12500000Y-12440000D01*
X12440000Y-12500000D01*
X12500000Y-12560000D01*
X12850000Y-12560000D02*
X12910000Y-12500000D01*
X12850000Y-12440000D01*
X12790000Y-12500000D01*
X12850000Y-12560000D01*
X13200000Y-12560000D02*
X13260000Y-12500000D01*
X13200000Y-12440000D01*
X13140000Y-12500000D01*
X13200000Y-12560000D01*
X13550000Y-12560000D02*
X13610000Y-12500000D01*
X13550000Y-12440000D01*
X13490000Y-12500000D01*
X13550000Y-12560000D01*
X13900000Y-12560000D02*
X13960000Y-12500000D01*
X13900000Y-12440000D01*
X13840000Y-12500000D01*
X13900000Y-12560000D01*
X14250000Y-12560000D02*
X14310000Y-12500000D01*
X14250000Y-12440000D01*
X14190000Y-12500000D01*
X14250000Y-12560000D01*
X14600000Y-12560000D02*
X14660000Y-12500000D01*
X14600000Y-12440000D01*
X14540000Y-12500000D01*
X14600000Y-12560000D01*
X14950000Y-12560000D02*
X15010000Y-12500000D01*
X14950000Y-12440000D01*
X14890000Y-12500000D01*
X14950000Y-12560000D01*
X15300000Y-12560000D02*
X15360000Y-12500000D01*
X15300000Y-12440000D01*
X15240000Y-12500000D01*
X15300000Y-12560000D01*
X15650000Y-12560000D02*
X15710000Y-12500000D01*
X15650000Y-12440000D01*
X15590000Y-12500000D01*
X15650000Y-12560000D01*
X16000000Y-12560000D02*
X16060000Y-12500000D01*
X16000000Y-12440000D01*
X15940000Y-12500000D01*
X16000000Y-12560000D01*
X18400000Y-8205000D02*
X18460000Y-8145000D01*
X18400000Y-8085000D01*
X18340000Y-8145000D01*
X18400000Y-8205000D01*
X18400000Y-8555000D02*
X18460000Y-8495000D01*
X18400000Y-8435000D01*
X18340000Y-8495000D01*
X18400000Y-8555000D01*
X18400000Y-9735000D02*
X18460000Y-9675000D01*
X18400000Y-9615000D01*
X18340000Y-9675000D01*
X18400000Y-9735000D01*
X18400000Y-10085000D02*
X18460000Y-10025000D01*
X18400000Y-9965000D01*
X18340000Y-10025000D01*
X18400000Y-10085000D01*
X18400000Y-11955000D02*
X18460000Y-11895000D01*
X18400000Y-11835000D01*
X18340000Y-11895000D01*
X18400000Y-11955000D01*
X18400000Y-12305000D02*
X18460000Y-12245000D01*
X18400000Y-12185000D01*
X18340000Y-12245000D01*
X18400000Y-12305000D01*
D10*
X10737619Y-13322524D02*
X10737619Y-13122524D01*
X10737619Y-13122524D02*
X10785238Y-13122524D01*
X10785238Y-13122524D02*
X10813810Y-13132048D01*
X10813810Y-13132048D02*
X10832857Y-13151095D01*
X10832857Y-13151095D02*
X10842381Y-13170143D01*
X10842381Y-13170143D02*
X10851905Y-13208238D01*
X10851905Y-13208238D02*
X10851905Y-13236809D01*
X10851905Y-13236809D02*
X10842381Y-13274905D01*
X10842381Y-13274905D02*
X10832857Y-13293952D01*
X10832857Y-13293952D02*
X10813810Y-13313000D01*
X10813810Y-13313000D02*
X10785238Y-13322524D01*
X10785238Y-13322524D02*
X10737619Y-13322524D01*
X10937619Y-13322524D02*
X10937619Y-13189190D01*
X10937619Y-13227286D02*
X10947143Y-13208238D01*
X10947143Y-13208238D02*
X10956667Y-13198714D01*
X10956667Y-13198714D02*
X10975714Y-13189190D01*
X10975714Y-13189190D02*
X10994762Y-13189190D01*
X11061429Y-13322524D02*
X11061429Y-13189190D01*
X11061429Y-13122524D02*
X11051905Y-13132048D01*
X11051905Y-13132048D02*
X11061429Y-13141571D01*
X11061429Y-13141571D02*
X11070952Y-13132048D01*
X11070952Y-13132048D02*
X11061429Y-13122524D01*
X11061429Y-13122524D02*
X11061429Y-13141571D01*
X11185238Y-13322524D02*
X11166190Y-13313000D01*
X11166190Y-13313000D02*
X11156667Y-13293952D01*
X11156667Y-13293952D02*
X11156667Y-13122524D01*
X11290000Y-13322524D02*
X11270952Y-13313000D01*
X11270952Y-13313000D02*
X11261428Y-13293952D01*
X11261428Y-13293952D02*
X11261428Y-13122524D01*
X11518571Y-13322524D02*
X11518571Y-13122524D01*
X11518571Y-13122524D02*
X11585238Y-13265381D01*
X11585238Y-13265381D02*
X11651905Y-13122524D01*
X11651905Y-13122524D02*
X11651905Y-13322524D01*
X11832857Y-13322524D02*
X11832857Y-13217762D01*
X11832857Y-13217762D02*
X11823333Y-13198714D01*
X11823333Y-13198714D02*
X11804286Y-13189190D01*
X11804286Y-13189190D02*
X11766190Y-13189190D01*
X11766190Y-13189190D02*
X11747143Y-13198714D01*
X11832857Y-13313000D02*
X11813809Y-13322524D01*
X11813809Y-13322524D02*
X11766190Y-13322524D01*
X11766190Y-13322524D02*
X11747143Y-13313000D01*
X11747143Y-13313000D02*
X11737619Y-13293952D01*
X11737619Y-13293952D02*
X11737619Y-13274905D01*
X11737619Y-13274905D02*
X11747143Y-13255857D01*
X11747143Y-13255857D02*
X11766190Y-13246333D01*
X11766190Y-13246333D02*
X11813809Y-13246333D01*
X11813809Y-13246333D02*
X11832857Y-13236809D01*
X11928095Y-13189190D02*
X11928095Y-13389190D01*
X11928095Y-13198714D02*
X11947143Y-13189190D01*
X11947143Y-13189190D02*
X11985238Y-13189190D01*
X11985238Y-13189190D02*
X12004286Y-13198714D01*
X12004286Y-13198714D02*
X12013809Y-13208238D01*
X12013809Y-13208238D02*
X12023333Y-13227286D01*
X12023333Y-13227286D02*
X12023333Y-13284428D01*
X12023333Y-13284428D02*
X12013809Y-13303476D01*
X12013809Y-13303476D02*
X12004286Y-13313000D01*
X12004286Y-13313000D02*
X11985238Y-13322524D01*
X11985238Y-13322524D02*
X11947143Y-13322524D01*
X11947143Y-13322524D02*
X11928095Y-13313000D01*
X12109048Y-13303476D02*
X12118571Y-13313000D01*
X12118571Y-13313000D02*
X12109048Y-13322524D01*
X12109048Y-13322524D02*
X12099524Y-13313000D01*
X12099524Y-13313000D02*
X12109048Y-13303476D01*
X12109048Y-13303476D02*
X12109048Y-13322524D01*
X12109048Y-13198714D02*
X12118571Y-13208238D01*
X12118571Y-13208238D02*
X12109048Y-13217762D01*
X12109048Y-13217762D02*
X12099524Y-13208238D01*
X12099524Y-13208238D02*
X12109048Y-13198714D01*
X12109048Y-13198714D02*
X12109048Y-13217762D01*
D11*
X10460000Y-13635000D02*
X10490000Y-13665000D01*
X10490000Y-13635000D02*
X10460000Y-13665000D01*
D10*
X10775714Y-13542524D02*
X10794762Y-13542524D01*
X10794762Y-13542524D02*
X10813810Y-13552048D01*
X10813810Y-13552048D02*
X10823333Y-13561571D01*
X10823333Y-13561571D02*
X10832857Y-13580619D01*
X10832857Y-13580619D02*
X10842381Y-13618714D01*
X10842381Y-13618714D02*
X10842381Y-13666333D01*
X10842381Y-13666333D02*
X10832857Y-13704428D01*
X10832857Y-13704428D02*
X10823333Y-13723476D01*
X10823333Y-13723476D02*
X10813810Y-13733000D01*
X10813810Y-13733000D02*
X10794762Y-13742524D01*
X10794762Y-13742524D02*
X10775714Y-13742524D01*
X10775714Y-13742524D02*
X10756667Y-13733000D01*
X10756667Y-13733000D02*
X10747143Y-13723476D01*
X10747143Y-13723476D02*
X10737619Y-13704428D01*
X10737619Y-13704428D02*
X10728095Y-13666333D01*
X10728095Y-13666333D02*
X10728095Y-13618714D01*
X10728095Y-13618714D02*
X10737619Y-13580619D01*
X10737619Y-13580619D02*
X10747143Y-13561571D01*
X10747143Y-13561571D02*
X10756667Y-13552048D01*
X10756667Y-13552048D02*
X10775714Y-13542524D01*
X10928095Y-13723476D02*
X10937619Y-13733000D01*
X10937619Y-13733000D02*
X10928095Y-13742524D01*
X10928095Y-13742524D02*
X10918571Y-13733000D01*
X10918571Y-13733000D02*
X10928095Y-13723476D01*
X10928095Y-13723476D02*
X10928095Y-13742524D01*
X11004286Y-13542524D02*
X11128095Y-13542524D01*
X11128095Y-13542524D02*
X11061429Y-13618714D01*
X11061429Y-13618714D02*
X11090000Y-13618714D01*
X11090000Y-13618714D02*
X11109048Y-13628238D01*
X11109048Y-13628238D02*
X11118571Y-13637762D01*
X11118571Y-13637762D02*
X11128095Y-13656809D01*
X11128095Y-13656809D02*
X11128095Y-13704428D01*
X11128095Y-13704428D02*
X11118571Y-13723476D01*
X11118571Y-13723476D02*
X11109048Y-13733000D01*
X11109048Y-13733000D02*
X11090000Y-13742524D01*
X11090000Y-13742524D02*
X11032857Y-13742524D01*
X11032857Y-13742524D02*
X11013810Y-13733000D01*
X11013810Y-13733000D02*
X11004286Y-13723476D01*
X11251905Y-13542524D02*
X11270952Y-13542524D01*
X11270952Y-13542524D02*
X11290000Y-13552048D01*
X11290000Y-13552048D02*
X11299524Y-13561571D01*
X11299524Y-13561571D02*
X11309048Y-13580619D01*
X11309048Y-13580619D02*
X11318571Y-13618714D01*
X11318571Y-13618714D02*
X11318571Y-13666333D01*
X11318571Y-13666333D02*
X11309048Y-13704428D01*
X11309048Y-13704428D02*
X11299524Y-13723476D01*
X11299524Y-13723476D02*
X11290000Y-13733000D01*
X11290000Y-13733000D02*
X11270952Y-13742524D01*
X11270952Y-13742524D02*
X11251905Y-13742524D01*
X11251905Y-13742524D02*
X11232857Y-13733000D01*
X11232857Y-13733000D02*
X11223333Y-13723476D01*
X11223333Y-13723476D02*
X11213809Y-13704428D01*
X11213809Y-13704428D02*
X11204286Y-13666333D01*
X11204286Y-13666333D02*
X11204286Y-13618714D01*
X11204286Y-13618714D02*
X11213809Y-13580619D01*
X11213809Y-13580619D02*
X11223333Y-13561571D01*
X11223333Y-13561571D02*
X11232857Y-13552048D01*
X11232857Y-13552048D02*
X11251905Y-13542524D01*
X11442381Y-13542524D02*
X11461429Y-13542524D01*
X11461429Y-13542524D02*
X11480476Y-13552048D01*
X11480476Y-13552048D02*
X11490000Y-13561571D01*
X11490000Y-13561571D02*
X11499524Y-13580619D01*
X11499524Y-13580619D02*
X11509048Y-13618714D01*
X11509048Y-13618714D02*
X11509048Y-13666333D01*
X11509048Y-13666333D02*
X11499524Y-13704428D01*
X11499524Y-13704428D02*
X11490000Y-13723476D01*
X11490000Y-13723476D02*
X11480476Y-13733000D01*
X11480476Y-13733000D02*
X11461429Y-13742524D01*
X11461429Y-13742524D02*
X11442381Y-13742524D01*
X11442381Y-13742524D02*
X11423333Y-13733000D01*
X11423333Y-13733000D02*
X11413809Y-13723476D01*
X11413809Y-13723476D02*
X11404286Y-13704428D01*
X11404286Y-13704428D02*
X11394762Y-13666333D01*
X11394762Y-13666333D02*
X11394762Y-13618714D01*
X11394762Y-13618714D02*
X11404286Y-13580619D01*
X11404286Y-13580619D02*
X11413809Y-13561571D01*
X11413809Y-13561571D02*
X11423333Y-13552048D01*
X11423333Y-13552048D02*
X11442381Y-13542524D01*
X11594762Y-13742524D02*
X11594762Y-13609190D01*
X11594762Y-13628238D02*
X11604286Y-13618714D01*
X11604286Y-13618714D02*
X11623333Y-13609190D01*
X11623333Y-13609190D02*
X11651905Y-13609190D01*
X11651905Y-13609190D02*
X11670952Y-13618714D01*
X11670952Y-13618714D02*
X11680476Y-13637762D01*
X11680476Y-13637762D02*
X11680476Y-13742524D01*
X11680476Y-13637762D02*
X11690000Y-13618714D01*
X11690000Y-13618714D02*
X11709048Y-13609190D01*
X11709048Y-13609190D02*
X11737619Y-13609190D01*
X11737619Y-13609190D02*
X11756667Y-13618714D01*
X11756667Y-13618714D02*
X11766190Y-13637762D01*
X11766190Y-13637762D02*
X11766190Y-13742524D01*
X11861429Y-13742524D02*
X11861429Y-13609190D01*
X11861429Y-13628238D02*
X11870952Y-13618714D01*
X11870952Y-13618714D02*
X11890000Y-13609190D01*
X11890000Y-13609190D02*
X11918571Y-13609190D01*
X11918571Y-13609190D02*
X11937619Y-13618714D01*
X11937619Y-13618714D02*
X11947143Y-13637762D01*
X11947143Y-13637762D02*
X11947143Y-13742524D01*
X11947143Y-13637762D02*
X11956667Y-13618714D01*
X11956667Y-13618714D02*
X11975714Y-13609190D01*
X11975714Y-13609190D02*
X12004286Y-13609190D01*
X12004286Y-13609190D02*
X12023333Y-13618714D01*
X12023333Y-13618714D02*
X12032857Y-13637762D01*
X12032857Y-13637762D02*
X12032857Y-13742524D01*
X12423333Y-13533000D02*
X12251905Y-13790143D01*
X12680476Y-13542524D02*
X12699524Y-13542524D01*
X12699524Y-13542524D02*
X12718572Y-13552048D01*
X12718572Y-13552048D02*
X12728095Y-13561571D01*
X12728095Y-13561571D02*
X12737619Y-13580619D01*
X12737619Y-13580619D02*
X12747143Y-13618714D01*
X12747143Y-13618714D02*
X12747143Y-13666333D01*
X12747143Y-13666333D02*
X12737619Y-13704428D01*
X12737619Y-13704428D02*
X12728095Y-13723476D01*
X12728095Y-13723476D02*
X12718572Y-13733000D01*
X12718572Y-13733000D02*
X12699524Y-13742524D01*
X12699524Y-13742524D02*
X12680476Y-13742524D01*
X12680476Y-13742524D02*
X12661429Y-13733000D01*
X12661429Y-13733000D02*
X12651905Y-13723476D01*
X12651905Y-13723476D02*
X12642381Y-13704428D01*
X12642381Y-13704428D02*
X12632857Y-13666333D01*
X12632857Y-13666333D02*
X12632857Y-13618714D01*
X12632857Y-13618714D02*
X12642381Y-13580619D01*
X12642381Y-13580619D02*
X12651905Y-13561571D01*
X12651905Y-13561571D02*
X12661429Y-13552048D01*
X12661429Y-13552048D02*
X12680476Y-13542524D01*
X12832857Y-13723476D02*
X12842381Y-13733000D01*
X12842381Y-13733000D02*
X12832857Y-13742524D01*
X12832857Y-13742524D02*
X12823333Y-13733000D01*
X12823333Y-13733000D02*
X12832857Y-13723476D01*
X12832857Y-13723476D02*
X12832857Y-13742524D01*
X12966191Y-13542524D02*
X12985238Y-13542524D01*
X12985238Y-13542524D02*
X13004286Y-13552048D01*
X13004286Y-13552048D02*
X13013810Y-13561571D01*
X13013810Y-13561571D02*
X13023333Y-13580619D01*
X13023333Y-13580619D02*
X13032857Y-13618714D01*
X13032857Y-13618714D02*
X13032857Y-13666333D01*
X13032857Y-13666333D02*
X13023333Y-13704428D01*
X13023333Y-13704428D02*
X13013810Y-13723476D01*
X13013810Y-13723476D02*
X13004286Y-13733000D01*
X13004286Y-13733000D02*
X12985238Y-13742524D01*
X12985238Y-13742524D02*
X12966191Y-13742524D01*
X12966191Y-13742524D02*
X12947143Y-13733000D01*
X12947143Y-13733000D02*
X12937619Y-13723476D01*
X12937619Y-13723476D02*
X12928095Y-13704428D01*
X12928095Y-13704428D02*
X12918572Y-13666333D01*
X12918572Y-13666333D02*
X12918572Y-13618714D01*
X12918572Y-13618714D02*
X12928095Y-13580619D01*
X12928095Y-13580619D02*
X12937619Y-13561571D01*
X12937619Y-13561571D02*
X12947143Y-13552048D01*
X12947143Y-13552048D02*
X12966191Y-13542524D01*
X13223333Y-13742524D02*
X13109048Y-13742524D01*
X13166191Y-13742524D02*
X13166191Y-13542524D01*
X13166191Y-13542524D02*
X13147143Y-13571095D01*
X13147143Y-13571095D02*
X13128095Y-13590143D01*
X13128095Y-13590143D02*
X13109048Y-13599667D01*
X13413810Y-13742524D02*
X13299524Y-13742524D01*
X13356667Y-13742524D02*
X13356667Y-13542524D01*
X13356667Y-13542524D02*
X13337619Y-13571095D01*
X13337619Y-13571095D02*
X13318572Y-13590143D01*
X13318572Y-13590143D02*
X13299524Y-13599667D01*
X13528095Y-13628238D02*
X13509048Y-13618714D01*
X13509048Y-13618714D02*
X13499524Y-13609190D01*
X13499524Y-13609190D02*
X13490000Y-13590143D01*
X13490000Y-13590143D02*
X13490000Y-13580619D01*
X13490000Y-13580619D02*
X13499524Y-13561571D01*
X13499524Y-13561571D02*
X13509048Y-13552048D01*
X13509048Y-13552048D02*
X13528095Y-13542524D01*
X13528095Y-13542524D02*
X13566191Y-13542524D01*
X13566191Y-13542524D02*
X13585238Y-13552048D01*
X13585238Y-13552048D02*
X13594762Y-13561571D01*
X13594762Y-13561571D02*
X13604286Y-13580619D01*
X13604286Y-13580619D02*
X13604286Y-13590143D01*
X13604286Y-13590143D02*
X13594762Y-13609190D01*
X13594762Y-13609190D02*
X13585238Y-13618714D01*
X13585238Y-13618714D02*
X13566191Y-13628238D01*
X13566191Y-13628238D02*
X13528095Y-13628238D01*
X13528095Y-13628238D02*
X13509048Y-13637762D01*
X13509048Y-13637762D02*
X13499524Y-13647286D01*
X13499524Y-13647286D02*
X13490000Y-13666333D01*
X13490000Y-13666333D02*
X13490000Y-13704428D01*
X13490000Y-13704428D02*
X13499524Y-13723476D01*
X13499524Y-13723476D02*
X13509048Y-13733000D01*
X13509048Y-13733000D02*
X13528095Y-13742524D01*
X13528095Y-13742524D02*
X13566191Y-13742524D01*
X13566191Y-13742524D02*
X13585238Y-13733000D01*
X13585238Y-13733000D02*
X13594762Y-13723476D01*
X13594762Y-13723476D02*
X13604286Y-13704428D01*
X13604286Y-13704428D02*
X13604286Y-13666333D01*
X13604286Y-13666333D02*
X13594762Y-13647286D01*
X13594762Y-13647286D02*
X13585238Y-13637762D01*
X13585238Y-13637762D02*
X13566191Y-13628238D01*
X13680476Y-13542524D02*
X13680476Y-13580619D01*
X13756667Y-13542524D02*
X13756667Y-13580619D01*
X14051905Y-13818714D02*
X14042381Y-13809190D01*
X14042381Y-13809190D02*
X14023334Y-13780619D01*
X14023334Y-13780619D02*
X14013810Y-13761571D01*
X14013810Y-13761571D02*
X14004286Y-13733000D01*
X14004286Y-13733000D02*
X13994762Y-13685381D01*
X13994762Y-13685381D02*
X13994762Y-13647286D01*
X13994762Y-13647286D02*
X14004286Y-13599667D01*
X14004286Y-13599667D02*
X14013810Y-13571095D01*
X14013810Y-13571095D02*
X14023334Y-13552048D01*
X14023334Y-13552048D02*
X14042381Y-13523476D01*
X14042381Y-13523476D02*
X14051905Y-13513952D01*
X14109048Y-13542524D02*
X14232857Y-13542524D01*
X14232857Y-13542524D02*
X14166191Y-13618714D01*
X14166191Y-13618714D02*
X14194762Y-13618714D01*
X14194762Y-13618714D02*
X14213810Y-13628238D01*
X14213810Y-13628238D02*
X14223334Y-13637762D01*
X14223334Y-13637762D02*
X14232857Y-13656809D01*
X14232857Y-13656809D02*
X14232857Y-13704428D01*
X14232857Y-13704428D02*
X14223334Y-13723476D01*
X14223334Y-13723476D02*
X14213810Y-13733000D01*
X14213810Y-13733000D02*
X14194762Y-13742524D01*
X14194762Y-13742524D02*
X14137619Y-13742524D01*
X14137619Y-13742524D02*
X14118572Y-13733000D01*
X14118572Y-13733000D02*
X14109048Y-13723476D01*
X14423334Y-13742524D02*
X14309048Y-13742524D01*
X14366191Y-13742524D02*
X14366191Y-13542524D01*
X14366191Y-13542524D02*
X14347143Y-13571095D01*
X14347143Y-13571095D02*
X14328095Y-13590143D01*
X14328095Y-13590143D02*
X14309048Y-13599667D01*
X14594762Y-13542524D02*
X14556667Y-13542524D01*
X14556667Y-13542524D02*
X14537619Y-13552048D01*
X14537619Y-13552048D02*
X14528095Y-13561571D01*
X14528095Y-13561571D02*
X14509048Y-13590143D01*
X14509048Y-13590143D02*
X14499524Y-13628238D01*
X14499524Y-13628238D02*
X14499524Y-13704428D01*
X14499524Y-13704428D02*
X14509048Y-13723476D01*
X14509048Y-13723476D02*
X14518572Y-13733000D01*
X14518572Y-13733000D02*
X14537619Y-13742524D01*
X14537619Y-13742524D02*
X14575715Y-13742524D01*
X14575715Y-13742524D02*
X14594762Y-13733000D01*
X14594762Y-13733000D02*
X14604286Y-13723476D01*
X14604286Y-13723476D02*
X14613810Y-13704428D01*
X14613810Y-13704428D02*
X14613810Y-13656809D01*
X14613810Y-13656809D02*
X14604286Y-13637762D01*
X14604286Y-13637762D02*
X14594762Y-13628238D01*
X14594762Y-13628238D02*
X14575715Y-13618714D01*
X14575715Y-13618714D02*
X14537619Y-13618714D01*
X14537619Y-13618714D02*
X14518572Y-13628238D01*
X14518572Y-13628238D02*
X14509048Y-13637762D01*
X14509048Y-13637762D02*
X14499524Y-13656809D01*
X14851905Y-13742524D02*
X14851905Y-13542524D01*
X14937619Y-13742524D02*
X14937619Y-13637762D01*
X14937619Y-13637762D02*
X14928096Y-13618714D01*
X14928096Y-13618714D02*
X14909048Y-13609190D01*
X14909048Y-13609190D02*
X14880476Y-13609190D01*
X14880476Y-13609190D02*
X14861429Y-13618714D01*
X14861429Y-13618714D02*
X14851905Y-13628238D01*
X15061429Y-13742524D02*
X15042381Y-13733000D01*
X15042381Y-13733000D02*
X15032857Y-13723476D01*
X15032857Y-13723476D02*
X15023334Y-13704428D01*
X15023334Y-13704428D02*
X15023334Y-13647286D01*
X15023334Y-13647286D02*
X15032857Y-13628238D01*
X15032857Y-13628238D02*
X15042381Y-13618714D01*
X15042381Y-13618714D02*
X15061429Y-13609190D01*
X15061429Y-13609190D02*
X15090000Y-13609190D01*
X15090000Y-13609190D02*
X15109048Y-13618714D01*
X15109048Y-13618714D02*
X15118572Y-13628238D01*
X15118572Y-13628238D02*
X15128096Y-13647286D01*
X15128096Y-13647286D02*
X15128096Y-13704428D01*
X15128096Y-13704428D02*
X15118572Y-13723476D01*
X15118572Y-13723476D02*
X15109048Y-13733000D01*
X15109048Y-13733000D02*
X15090000Y-13742524D01*
X15090000Y-13742524D02*
X15061429Y-13742524D01*
X15242381Y-13742524D02*
X15223334Y-13733000D01*
X15223334Y-13733000D02*
X15213810Y-13713952D01*
X15213810Y-13713952D02*
X15213810Y-13542524D01*
X15394762Y-13733000D02*
X15375715Y-13742524D01*
X15375715Y-13742524D02*
X15337619Y-13742524D01*
X15337619Y-13742524D02*
X15318572Y-13733000D01*
X15318572Y-13733000D02*
X15309048Y-13713952D01*
X15309048Y-13713952D02*
X15309048Y-13637762D01*
X15309048Y-13637762D02*
X15318572Y-13618714D01*
X15318572Y-13618714D02*
X15337619Y-13609190D01*
X15337619Y-13609190D02*
X15375715Y-13609190D01*
X15375715Y-13609190D02*
X15394762Y-13618714D01*
X15394762Y-13618714D02*
X15404286Y-13637762D01*
X15404286Y-13637762D02*
X15404286Y-13656809D01*
X15404286Y-13656809D02*
X15309048Y-13675857D01*
X15480477Y-13733000D02*
X15499524Y-13742524D01*
X15499524Y-13742524D02*
X15537619Y-13742524D01*
X15537619Y-13742524D02*
X15556667Y-13733000D01*
X15556667Y-13733000D02*
X15566191Y-13713952D01*
X15566191Y-13713952D02*
X15566191Y-13704428D01*
X15566191Y-13704428D02*
X15556667Y-13685381D01*
X15556667Y-13685381D02*
X15537619Y-13675857D01*
X15537619Y-13675857D02*
X15509048Y-13675857D01*
X15509048Y-13675857D02*
X15490000Y-13666333D01*
X15490000Y-13666333D02*
X15480477Y-13647286D01*
X15480477Y-13647286D02*
X15480477Y-13637762D01*
X15480477Y-13637762D02*
X15490000Y-13618714D01*
X15490000Y-13618714D02*
X15509048Y-13609190D01*
X15509048Y-13609190D02*
X15537619Y-13609190D01*
X15537619Y-13609190D02*
X15556667Y-13618714D01*
X15632858Y-13818714D02*
X15642381Y-13809190D01*
X15642381Y-13809190D02*
X15661429Y-13780619D01*
X15661429Y-13780619D02*
X15670953Y-13761571D01*
X15670953Y-13761571D02*
X15680477Y-13733000D01*
X15680477Y-13733000D02*
X15690000Y-13685381D01*
X15690000Y-13685381D02*
X15690000Y-13647286D01*
X15690000Y-13647286D02*
X15680477Y-13599667D01*
X15680477Y-13599667D02*
X15670953Y-13571095D01*
X15670953Y-13571095D02*
X15661429Y-13552048D01*
X15661429Y-13552048D02*
X15642381Y-13523476D01*
X15642381Y-13523476D02*
X15632858Y-13513952D01*
D11*
X10490000Y-13914000D02*
G75*
G03*
X10490000Y-13914000I-15000J0D01*
G01*
D10*
X10775714Y-13806524D02*
X10794762Y-13806524D01*
X10794762Y-13806524D02*
X10813810Y-13816048D01*
X10813810Y-13816048D02*
X10823333Y-13825571D01*
X10823333Y-13825571D02*
X10832857Y-13844619D01*
X10832857Y-13844619D02*
X10842381Y-13882714D01*
X10842381Y-13882714D02*
X10842381Y-13930333D01*
X10842381Y-13930333D02*
X10832857Y-13968428D01*
X10832857Y-13968428D02*
X10823333Y-13987476D01*
X10823333Y-13987476D02*
X10813810Y-13997000D01*
X10813810Y-13997000D02*
X10794762Y-14006524D01*
X10794762Y-14006524D02*
X10775714Y-14006524D01*
X10775714Y-14006524D02*
X10756667Y-13997000D01*
X10756667Y-13997000D02*
X10747143Y-13987476D01*
X10747143Y-13987476D02*
X10737619Y-13968428D01*
X10737619Y-13968428D02*
X10728095Y-13930333D01*
X10728095Y-13930333D02*
X10728095Y-13882714D01*
X10728095Y-13882714D02*
X10737619Y-13844619D01*
X10737619Y-13844619D02*
X10747143Y-13825571D01*
X10747143Y-13825571D02*
X10756667Y-13816048D01*
X10756667Y-13816048D02*
X10775714Y-13806524D01*
X10928095Y-13987476D02*
X10937619Y-13997000D01*
X10937619Y-13997000D02*
X10928095Y-14006524D01*
X10928095Y-14006524D02*
X10918571Y-13997000D01*
X10918571Y-13997000D02*
X10928095Y-13987476D01*
X10928095Y-13987476D02*
X10928095Y-14006524D01*
X11004286Y-13806524D02*
X11128095Y-13806524D01*
X11128095Y-13806524D02*
X11061429Y-13882714D01*
X11061429Y-13882714D02*
X11090000Y-13882714D01*
X11090000Y-13882714D02*
X11109048Y-13892238D01*
X11109048Y-13892238D02*
X11118571Y-13901762D01*
X11118571Y-13901762D02*
X11128095Y-13920809D01*
X11128095Y-13920809D02*
X11128095Y-13968428D01*
X11128095Y-13968428D02*
X11118571Y-13987476D01*
X11118571Y-13987476D02*
X11109048Y-13997000D01*
X11109048Y-13997000D02*
X11090000Y-14006524D01*
X11090000Y-14006524D02*
X11032857Y-14006524D01*
X11032857Y-14006524D02*
X11013810Y-13997000D01*
X11013810Y-13997000D02*
X11004286Y-13987476D01*
X11251905Y-13806524D02*
X11270952Y-13806524D01*
X11270952Y-13806524D02*
X11290000Y-13816048D01*
X11290000Y-13816048D02*
X11299524Y-13825571D01*
X11299524Y-13825571D02*
X11309048Y-13844619D01*
X11309048Y-13844619D02*
X11318571Y-13882714D01*
X11318571Y-13882714D02*
X11318571Y-13930333D01*
X11318571Y-13930333D02*
X11309048Y-13968428D01*
X11309048Y-13968428D02*
X11299524Y-13987476D01*
X11299524Y-13987476D02*
X11290000Y-13997000D01*
X11290000Y-13997000D02*
X11270952Y-14006524D01*
X11270952Y-14006524D02*
X11251905Y-14006524D01*
X11251905Y-14006524D02*
X11232857Y-13997000D01*
X11232857Y-13997000D02*
X11223333Y-13987476D01*
X11223333Y-13987476D02*
X11213809Y-13968428D01*
X11213809Y-13968428D02*
X11204286Y-13930333D01*
X11204286Y-13930333D02*
X11204286Y-13882714D01*
X11204286Y-13882714D02*
X11213809Y-13844619D01*
X11213809Y-13844619D02*
X11223333Y-13825571D01*
X11223333Y-13825571D02*
X11232857Y-13816048D01*
X11232857Y-13816048D02*
X11251905Y-13806524D01*
X11442381Y-13806524D02*
X11461429Y-13806524D01*
X11461429Y-13806524D02*
X11480476Y-13816048D01*
X11480476Y-13816048D02*
X11490000Y-13825571D01*
X11490000Y-13825571D02*
X11499524Y-13844619D01*
X11499524Y-13844619D02*
X11509048Y-13882714D01*
X11509048Y-13882714D02*
X11509048Y-13930333D01*
X11509048Y-13930333D02*
X11499524Y-13968428D01*
X11499524Y-13968428D02*
X11490000Y-13987476D01*
X11490000Y-13987476D02*
X11480476Y-13997000D01*
X11480476Y-13997000D02*
X11461429Y-14006524D01*
X11461429Y-14006524D02*
X11442381Y-14006524D01*
X11442381Y-14006524D02*
X11423333Y-13997000D01*
X11423333Y-13997000D02*
X11413809Y-13987476D01*
X11413809Y-13987476D02*
X11404286Y-13968428D01*
X11404286Y-13968428D02*
X11394762Y-13930333D01*
X11394762Y-13930333D02*
X11394762Y-13882714D01*
X11394762Y-13882714D02*
X11404286Y-13844619D01*
X11404286Y-13844619D02*
X11413809Y-13825571D01*
X11413809Y-13825571D02*
X11423333Y-13816048D01*
X11423333Y-13816048D02*
X11442381Y-13806524D01*
X11594762Y-14006524D02*
X11594762Y-13873190D01*
X11594762Y-13892238D02*
X11604286Y-13882714D01*
X11604286Y-13882714D02*
X11623333Y-13873190D01*
X11623333Y-13873190D02*
X11651905Y-13873190D01*
X11651905Y-13873190D02*
X11670952Y-13882714D01*
X11670952Y-13882714D02*
X11680476Y-13901762D01*
X11680476Y-13901762D02*
X11680476Y-14006524D01*
X11680476Y-13901762D02*
X11690000Y-13882714D01*
X11690000Y-13882714D02*
X11709048Y-13873190D01*
X11709048Y-13873190D02*
X11737619Y-13873190D01*
X11737619Y-13873190D02*
X11756667Y-13882714D01*
X11756667Y-13882714D02*
X11766190Y-13901762D01*
X11766190Y-13901762D02*
X11766190Y-14006524D01*
X11861429Y-14006524D02*
X11861429Y-13873190D01*
X11861429Y-13892238D02*
X11870952Y-13882714D01*
X11870952Y-13882714D02*
X11890000Y-13873190D01*
X11890000Y-13873190D02*
X11918571Y-13873190D01*
X11918571Y-13873190D02*
X11937619Y-13882714D01*
X11937619Y-13882714D02*
X11947143Y-13901762D01*
X11947143Y-13901762D02*
X11947143Y-14006524D01*
X11947143Y-13901762D02*
X11956667Y-13882714D01*
X11956667Y-13882714D02*
X11975714Y-13873190D01*
X11975714Y-13873190D02*
X12004286Y-13873190D01*
X12004286Y-13873190D02*
X12023333Y-13882714D01*
X12023333Y-13882714D02*
X12032857Y-13901762D01*
X12032857Y-13901762D02*
X12032857Y-14006524D01*
X12423333Y-13797000D02*
X12251905Y-14054143D01*
X12680476Y-13806524D02*
X12699524Y-13806524D01*
X12699524Y-13806524D02*
X12718572Y-13816048D01*
X12718572Y-13816048D02*
X12728095Y-13825571D01*
X12728095Y-13825571D02*
X12737619Y-13844619D01*
X12737619Y-13844619D02*
X12747143Y-13882714D01*
X12747143Y-13882714D02*
X12747143Y-13930333D01*
X12747143Y-13930333D02*
X12737619Y-13968428D01*
X12737619Y-13968428D02*
X12728095Y-13987476D01*
X12728095Y-13987476D02*
X12718572Y-13997000D01*
X12718572Y-13997000D02*
X12699524Y-14006524D01*
X12699524Y-14006524D02*
X12680476Y-14006524D01*
X12680476Y-14006524D02*
X12661429Y-13997000D01*
X12661429Y-13997000D02*
X12651905Y-13987476D01*
X12651905Y-13987476D02*
X12642381Y-13968428D01*
X12642381Y-13968428D02*
X12632857Y-13930333D01*
X12632857Y-13930333D02*
X12632857Y-13882714D01*
X12632857Y-13882714D02*
X12642381Y-13844619D01*
X12642381Y-13844619D02*
X12651905Y-13825571D01*
X12651905Y-13825571D02*
X12661429Y-13816048D01*
X12661429Y-13816048D02*
X12680476Y-13806524D01*
X12832857Y-13987476D02*
X12842381Y-13997000D01*
X12842381Y-13997000D02*
X12832857Y-14006524D01*
X12832857Y-14006524D02*
X12823333Y-13997000D01*
X12823333Y-13997000D02*
X12832857Y-13987476D01*
X12832857Y-13987476D02*
X12832857Y-14006524D01*
X12966191Y-13806524D02*
X12985238Y-13806524D01*
X12985238Y-13806524D02*
X13004286Y-13816048D01*
X13004286Y-13816048D02*
X13013810Y-13825571D01*
X13013810Y-13825571D02*
X13023333Y-13844619D01*
X13023333Y-13844619D02*
X13032857Y-13882714D01*
X13032857Y-13882714D02*
X13032857Y-13930333D01*
X13032857Y-13930333D02*
X13023333Y-13968428D01*
X13023333Y-13968428D02*
X13013810Y-13987476D01*
X13013810Y-13987476D02*
X13004286Y-13997000D01*
X13004286Y-13997000D02*
X12985238Y-14006524D01*
X12985238Y-14006524D02*
X12966191Y-14006524D01*
X12966191Y-14006524D02*
X12947143Y-13997000D01*
X12947143Y-13997000D02*
X12937619Y-13987476D01*
X12937619Y-13987476D02*
X12928095Y-13968428D01*
X12928095Y-13968428D02*
X12918572Y-13930333D01*
X12918572Y-13930333D02*
X12918572Y-13882714D01*
X12918572Y-13882714D02*
X12928095Y-13844619D01*
X12928095Y-13844619D02*
X12937619Y-13825571D01*
X12937619Y-13825571D02*
X12947143Y-13816048D01*
X12947143Y-13816048D02*
X12966191Y-13806524D01*
X13223333Y-14006524D02*
X13109048Y-14006524D01*
X13166191Y-14006524D02*
X13166191Y-13806524D01*
X13166191Y-13806524D02*
X13147143Y-13835095D01*
X13147143Y-13835095D02*
X13128095Y-13854143D01*
X13128095Y-13854143D02*
X13109048Y-13863667D01*
X13413810Y-14006524D02*
X13299524Y-14006524D01*
X13356667Y-14006524D02*
X13356667Y-13806524D01*
X13356667Y-13806524D02*
X13337619Y-13835095D01*
X13337619Y-13835095D02*
X13318572Y-13854143D01*
X13318572Y-13854143D02*
X13299524Y-13863667D01*
X13528095Y-13892238D02*
X13509048Y-13882714D01*
X13509048Y-13882714D02*
X13499524Y-13873190D01*
X13499524Y-13873190D02*
X13490000Y-13854143D01*
X13490000Y-13854143D02*
X13490000Y-13844619D01*
X13490000Y-13844619D02*
X13499524Y-13825571D01*
X13499524Y-13825571D02*
X13509048Y-13816048D01*
X13509048Y-13816048D02*
X13528095Y-13806524D01*
X13528095Y-13806524D02*
X13566191Y-13806524D01*
X13566191Y-13806524D02*
X13585238Y-13816048D01*
X13585238Y-13816048D02*
X13594762Y-13825571D01*
X13594762Y-13825571D02*
X13604286Y-13844619D01*
X13604286Y-13844619D02*
X13604286Y-13854143D01*
X13604286Y-13854143D02*
X13594762Y-13873190D01*
X13594762Y-13873190D02*
X13585238Y-13882714D01*
X13585238Y-13882714D02*
X13566191Y-13892238D01*
X13566191Y-13892238D02*
X13528095Y-13892238D01*
X13528095Y-13892238D02*
X13509048Y-13901762D01*
X13509048Y-13901762D02*
X13499524Y-13911286D01*
X13499524Y-13911286D02*
X13490000Y-13930333D01*
X13490000Y-13930333D02*
X13490000Y-13968428D01*
X13490000Y-13968428D02*
X13499524Y-13987476D01*
X13499524Y-13987476D02*
X13509048Y-13997000D01*
X13509048Y-13997000D02*
X13528095Y-14006524D01*
X13528095Y-14006524D02*
X13566191Y-14006524D01*
X13566191Y-14006524D02*
X13585238Y-13997000D01*
X13585238Y-13997000D02*
X13594762Y-13987476D01*
X13594762Y-13987476D02*
X13604286Y-13968428D01*
X13604286Y-13968428D02*
X13604286Y-13930333D01*
X13604286Y-13930333D02*
X13594762Y-13911286D01*
X13594762Y-13911286D02*
X13585238Y-13901762D01*
X13585238Y-13901762D02*
X13566191Y-13892238D01*
X13680476Y-13806524D02*
X13680476Y-13844619D01*
X13756667Y-13806524D02*
X13756667Y-13844619D01*
X14051905Y-14082714D02*
X14042381Y-14073190D01*
X14042381Y-14073190D02*
X14023334Y-14044619D01*
X14023334Y-14044619D02*
X14013810Y-14025571D01*
X14013810Y-14025571D02*
X14004286Y-13997000D01*
X14004286Y-13997000D02*
X13994762Y-13949381D01*
X13994762Y-13949381D02*
X13994762Y-13911286D01*
X13994762Y-13911286D02*
X14004286Y-13863667D01*
X14004286Y-13863667D02*
X14013810Y-13835095D01*
X14013810Y-13835095D02*
X14023334Y-13816048D01*
X14023334Y-13816048D02*
X14042381Y-13787476D01*
X14042381Y-13787476D02*
X14051905Y-13777952D01*
X14232857Y-14006524D02*
X14118572Y-14006524D01*
X14175714Y-14006524D02*
X14175714Y-13806524D01*
X14175714Y-13806524D02*
X14156667Y-13835095D01*
X14156667Y-13835095D02*
X14137619Y-13854143D01*
X14137619Y-13854143D02*
X14118572Y-13863667D01*
X14413810Y-13806524D02*
X14318572Y-13806524D01*
X14318572Y-13806524D02*
X14309048Y-13901762D01*
X14309048Y-13901762D02*
X14318572Y-13892238D01*
X14318572Y-13892238D02*
X14337619Y-13882714D01*
X14337619Y-13882714D02*
X14385238Y-13882714D01*
X14385238Y-13882714D02*
X14404286Y-13892238D01*
X14404286Y-13892238D02*
X14413810Y-13901762D01*
X14413810Y-13901762D02*
X14423334Y-13920809D01*
X14423334Y-13920809D02*
X14423334Y-13968428D01*
X14423334Y-13968428D02*
X14413810Y-13987476D01*
X14413810Y-13987476D02*
X14404286Y-13997000D01*
X14404286Y-13997000D02*
X14385238Y-14006524D01*
X14385238Y-14006524D02*
X14337619Y-14006524D01*
X14337619Y-14006524D02*
X14318572Y-13997000D01*
X14318572Y-13997000D02*
X14309048Y-13987476D01*
X14661429Y-14006524D02*
X14661429Y-13806524D01*
X14747143Y-14006524D02*
X14747143Y-13901762D01*
X14747143Y-13901762D02*
X14737619Y-13882714D01*
X14737619Y-13882714D02*
X14718572Y-13873190D01*
X14718572Y-13873190D02*
X14690000Y-13873190D01*
X14690000Y-13873190D02*
X14670953Y-13882714D01*
X14670953Y-13882714D02*
X14661429Y-13892238D01*
X14870953Y-14006524D02*
X14851905Y-13997000D01*
X14851905Y-13997000D02*
X14842381Y-13987476D01*
X14842381Y-13987476D02*
X14832857Y-13968428D01*
X14832857Y-13968428D02*
X14832857Y-13911286D01*
X14832857Y-13911286D02*
X14842381Y-13892238D01*
X14842381Y-13892238D02*
X14851905Y-13882714D01*
X14851905Y-13882714D02*
X14870953Y-13873190D01*
X14870953Y-13873190D02*
X14899524Y-13873190D01*
X14899524Y-13873190D02*
X14918572Y-13882714D01*
X14918572Y-13882714D02*
X14928096Y-13892238D01*
X14928096Y-13892238D02*
X14937619Y-13911286D01*
X14937619Y-13911286D02*
X14937619Y-13968428D01*
X14937619Y-13968428D02*
X14928096Y-13987476D01*
X14928096Y-13987476D02*
X14918572Y-13997000D01*
X14918572Y-13997000D02*
X14899524Y-14006524D01*
X14899524Y-14006524D02*
X14870953Y-14006524D01*
X15051905Y-14006524D02*
X15032857Y-13997000D01*
X15032857Y-13997000D02*
X15023334Y-13977952D01*
X15023334Y-13977952D02*
X15023334Y-13806524D01*
X15204286Y-13997000D02*
X15185238Y-14006524D01*
X15185238Y-14006524D02*
X15147143Y-14006524D01*
X15147143Y-14006524D02*
X15128096Y-13997000D01*
X15128096Y-13997000D02*
X15118572Y-13977952D01*
X15118572Y-13977952D02*
X15118572Y-13901762D01*
X15118572Y-13901762D02*
X15128096Y-13882714D01*
X15128096Y-13882714D02*
X15147143Y-13873190D01*
X15147143Y-13873190D02*
X15185238Y-13873190D01*
X15185238Y-13873190D02*
X15204286Y-13882714D01*
X15204286Y-13882714D02*
X15213810Y-13901762D01*
X15213810Y-13901762D02*
X15213810Y-13920809D01*
X15213810Y-13920809D02*
X15118572Y-13939857D01*
X15290000Y-13997000D02*
X15309048Y-14006524D01*
X15309048Y-14006524D02*
X15347143Y-14006524D01*
X15347143Y-14006524D02*
X15366191Y-13997000D01*
X15366191Y-13997000D02*
X15375715Y-13977952D01*
X15375715Y-13977952D02*
X15375715Y-13968428D01*
X15375715Y-13968428D02*
X15366191Y-13949381D01*
X15366191Y-13949381D02*
X15347143Y-13939857D01*
X15347143Y-13939857D02*
X15318572Y-13939857D01*
X15318572Y-13939857D02*
X15299524Y-13930333D01*
X15299524Y-13930333D02*
X15290000Y-13911286D01*
X15290000Y-13911286D02*
X15290000Y-13901762D01*
X15290000Y-13901762D02*
X15299524Y-13882714D01*
X15299524Y-13882714D02*
X15318572Y-13873190D01*
X15318572Y-13873190D02*
X15347143Y-13873190D01*
X15347143Y-13873190D02*
X15366191Y-13882714D01*
X15442381Y-14082714D02*
X15451905Y-14073190D01*
X15451905Y-14073190D02*
X15470953Y-14044619D01*
X15470953Y-14044619D02*
X15480477Y-14025571D01*
X15480477Y-14025571D02*
X15490000Y-13997000D01*
X15490000Y-13997000D02*
X15499524Y-13949381D01*
X15499524Y-13949381D02*
X15499524Y-13911286D01*
X15499524Y-13911286D02*
X15490000Y-13863667D01*
X15490000Y-13863667D02*
X15480477Y-13835095D01*
X15480477Y-13835095D02*
X15470953Y-13816048D01*
X15470953Y-13816048D02*
X15451905Y-13787476D01*
X15451905Y-13787476D02*
X15442381Y-13777952D01*
D12*
X10460000Y-14148000D02*
X10460000Y-14208000D01*
X10430000Y-14178000D02*
X10490000Y-14178000D01*
D10*
X10775714Y-14070524D02*
X10794762Y-14070524D01*
X10794762Y-14070524D02*
X10813810Y-14080048D01*
X10813810Y-14080048D02*
X10823333Y-14089571D01*
X10823333Y-14089571D02*
X10832857Y-14108619D01*
X10832857Y-14108619D02*
X10842381Y-14146714D01*
X10842381Y-14146714D02*
X10842381Y-14194333D01*
X10842381Y-14194333D02*
X10832857Y-14232428D01*
X10832857Y-14232428D02*
X10823333Y-14251476D01*
X10823333Y-14251476D02*
X10813810Y-14261000D01*
X10813810Y-14261000D02*
X10794762Y-14270524D01*
X10794762Y-14270524D02*
X10775714Y-14270524D01*
X10775714Y-14270524D02*
X10756667Y-14261000D01*
X10756667Y-14261000D02*
X10747143Y-14251476D01*
X10747143Y-14251476D02*
X10737619Y-14232428D01*
X10737619Y-14232428D02*
X10728095Y-14194333D01*
X10728095Y-14194333D02*
X10728095Y-14146714D01*
X10728095Y-14146714D02*
X10737619Y-14108619D01*
X10737619Y-14108619D02*
X10747143Y-14089571D01*
X10747143Y-14089571D02*
X10756667Y-14080048D01*
X10756667Y-14080048D02*
X10775714Y-14070524D01*
X10928095Y-14251476D02*
X10937619Y-14261000D01*
X10937619Y-14261000D02*
X10928095Y-14270524D01*
X10928095Y-14270524D02*
X10918571Y-14261000D01*
X10918571Y-14261000D02*
X10928095Y-14251476D01*
X10928095Y-14251476D02*
X10928095Y-14270524D01*
X11109048Y-14070524D02*
X11070952Y-14070524D01*
X11070952Y-14070524D02*
X11051905Y-14080048D01*
X11051905Y-14080048D02*
X11042381Y-14089571D01*
X11042381Y-14089571D02*
X11023333Y-14118143D01*
X11023333Y-14118143D02*
X11013810Y-14156238D01*
X11013810Y-14156238D02*
X11013810Y-14232428D01*
X11013810Y-14232428D02*
X11023333Y-14251476D01*
X11023333Y-14251476D02*
X11032857Y-14261000D01*
X11032857Y-14261000D02*
X11051905Y-14270524D01*
X11051905Y-14270524D02*
X11090000Y-14270524D01*
X11090000Y-14270524D02*
X11109048Y-14261000D01*
X11109048Y-14261000D02*
X11118571Y-14251476D01*
X11118571Y-14251476D02*
X11128095Y-14232428D01*
X11128095Y-14232428D02*
X11128095Y-14184809D01*
X11128095Y-14184809D02*
X11118571Y-14165762D01*
X11118571Y-14165762D02*
X11109048Y-14156238D01*
X11109048Y-14156238D02*
X11090000Y-14146714D01*
X11090000Y-14146714D02*
X11051905Y-14146714D01*
X11051905Y-14146714D02*
X11032857Y-14156238D01*
X11032857Y-14156238D02*
X11023333Y-14165762D01*
X11023333Y-14165762D02*
X11013810Y-14184809D01*
X11251905Y-14070524D02*
X11270952Y-14070524D01*
X11270952Y-14070524D02*
X11290000Y-14080048D01*
X11290000Y-14080048D02*
X11299524Y-14089571D01*
X11299524Y-14089571D02*
X11309048Y-14108619D01*
X11309048Y-14108619D02*
X11318571Y-14146714D01*
X11318571Y-14146714D02*
X11318571Y-14194333D01*
X11318571Y-14194333D02*
X11309048Y-14232428D01*
X11309048Y-14232428D02*
X11299524Y-14251476D01*
X11299524Y-14251476D02*
X11290000Y-14261000D01*
X11290000Y-14261000D02*
X11270952Y-14270524D01*
X11270952Y-14270524D02*
X11251905Y-14270524D01*
X11251905Y-14270524D02*
X11232857Y-14261000D01*
X11232857Y-14261000D02*
X11223333Y-14251476D01*
X11223333Y-14251476D02*
X11213809Y-14232428D01*
X11213809Y-14232428D02*
X11204286Y-14194333D01*
X11204286Y-14194333D02*
X11204286Y-14146714D01*
X11204286Y-14146714D02*
X11213809Y-14108619D01*
X11213809Y-14108619D02*
X11223333Y-14089571D01*
X11223333Y-14089571D02*
X11232857Y-14080048D01*
X11232857Y-14080048D02*
X11251905Y-14070524D01*
X11442381Y-14070524D02*
X11461429Y-14070524D01*
X11461429Y-14070524D02*
X11480476Y-14080048D01*
X11480476Y-14080048D02*
X11490000Y-14089571D01*
X11490000Y-14089571D02*
X11499524Y-14108619D01*
X11499524Y-14108619D02*
X11509048Y-14146714D01*
X11509048Y-14146714D02*
X11509048Y-14194333D01*
X11509048Y-14194333D02*
X11499524Y-14232428D01*
X11499524Y-14232428D02*
X11490000Y-14251476D01*
X11490000Y-14251476D02*
X11480476Y-14261000D01*
X11480476Y-14261000D02*
X11461429Y-14270524D01*
X11461429Y-14270524D02*
X11442381Y-14270524D01*
X11442381Y-14270524D02*
X11423333Y-14261000D01*
X11423333Y-14261000D02*
X11413809Y-14251476D01*
X11413809Y-14251476D02*
X11404286Y-14232428D01*
X11404286Y-14232428D02*
X11394762Y-14194333D01*
X11394762Y-14194333D02*
X11394762Y-14146714D01*
X11394762Y-14146714D02*
X11404286Y-14108619D01*
X11404286Y-14108619D02*
X11413809Y-14089571D01*
X11413809Y-14089571D02*
X11423333Y-14080048D01*
X11423333Y-14080048D02*
X11442381Y-14070524D01*
X11594762Y-14270524D02*
X11594762Y-14137190D01*
X11594762Y-14156238D02*
X11604286Y-14146714D01*
X11604286Y-14146714D02*
X11623333Y-14137190D01*
X11623333Y-14137190D02*
X11651905Y-14137190D01*
X11651905Y-14137190D02*
X11670952Y-14146714D01*
X11670952Y-14146714D02*
X11680476Y-14165762D01*
X11680476Y-14165762D02*
X11680476Y-14270524D01*
X11680476Y-14165762D02*
X11690000Y-14146714D01*
X11690000Y-14146714D02*
X11709048Y-14137190D01*
X11709048Y-14137190D02*
X11737619Y-14137190D01*
X11737619Y-14137190D02*
X11756667Y-14146714D01*
X11756667Y-14146714D02*
X11766190Y-14165762D01*
X11766190Y-14165762D02*
X11766190Y-14270524D01*
X11861429Y-14270524D02*
X11861429Y-14137190D01*
X11861429Y-14156238D02*
X11870952Y-14146714D01*
X11870952Y-14146714D02*
X11890000Y-14137190D01*
X11890000Y-14137190D02*
X11918571Y-14137190D01*
X11918571Y-14137190D02*
X11937619Y-14146714D01*
X11937619Y-14146714D02*
X11947143Y-14165762D01*
X11947143Y-14165762D02*
X11947143Y-14270524D01*
X11947143Y-14165762D02*
X11956667Y-14146714D01*
X11956667Y-14146714D02*
X11975714Y-14137190D01*
X11975714Y-14137190D02*
X12004286Y-14137190D01*
X12004286Y-14137190D02*
X12023333Y-14146714D01*
X12023333Y-14146714D02*
X12032857Y-14165762D01*
X12032857Y-14165762D02*
X12032857Y-14270524D01*
X12423333Y-14061000D02*
X12251905Y-14318143D01*
X12680476Y-14070524D02*
X12699524Y-14070524D01*
X12699524Y-14070524D02*
X12718572Y-14080048D01*
X12718572Y-14080048D02*
X12728095Y-14089571D01*
X12728095Y-14089571D02*
X12737619Y-14108619D01*
X12737619Y-14108619D02*
X12747143Y-14146714D01*
X12747143Y-14146714D02*
X12747143Y-14194333D01*
X12747143Y-14194333D02*
X12737619Y-14232428D01*
X12737619Y-14232428D02*
X12728095Y-14251476D01*
X12728095Y-14251476D02*
X12718572Y-14261000D01*
X12718572Y-14261000D02*
X12699524Y-14270524D01*
X12699524Y-14270524D02*
X12680476Y-14270524D01*
X12680476Y-14270524D02*
X12661429Y-14261000D01*
X12661429Y-14261000D02*
X12651905Y-14251476D01*
X12651905Y-14251476D02*
X12642381Y-14232428D01*
X12642381Y-14232428D02*
X12632857Y-14194333D01*
X12632857Y-14194333D02*
X12632857Y-14146714D01*
X12632857Y-14146714D02*
X12642381Y-14108619D01*
X12642381Y-14108619D02*
X12651905Y-14089571D01*
X12651905Y-14089571D02*
X12661429Y-14080048D01*
X12661429Y-14080048D02*
X12680476Y-14070524D01*
X12832857Y-14251476D02*
X12842381Y-14261000D01*
X12842381Y-14261000D02*
X12832857Y-14270524D01*
X12832857Y-14270524D02*
X12823333Y-14261000D01*
X12823333Y-14261000D02*
X12832857Y-14251476D01*
X12832857Y-14251476D02*
X12832857Y-14270524D01*
X12966191Y-14070524D02*
X12985238Y-14070524D01*
X12985238Y-14070524D02*
X13004286Y-14080048D01*
X13004286Y-14080048D02*
X13013810Y-14089571D01*
X13013810Y-14089571D02*
X13023333Y-14108619D01*
X13023333Y-14108619D02*
X13032857Y-14146714D01*
X13032857Y-14146714D02*
X13032857Y-14194333D01*
X13032857Y-14194333D02*
X13023333Y-14232428D01*
X13023333Y-14232428D02*
X13013810Y-14251476D01*
X13013810Y-14251476D02*
X13004286Y-14261000D01*
X13004286Y-14261000D02*
X12985238Y-14270524D01*
X12985238Y-14270524D02*
X12966191Y-14270524D01*
X12966191Y-14270524D02*
X12947143Y-14261000D01*
X12947143Y-14261000D02*
X12937619Y-14251476D01*
X12937619Y-14251476D02*
X12928095Y-14232428D01*
X12928095Y-14232428D02*
X12918572Y-14194333D01*
X12918572Y-14194333D02*
X12918572Y-14146714D01*
X12918572Y-14146714D02*
X12928095Y-14108619D01*
X12928095Y-14108619D02*
X12937619Y-14089571D01*
X12937619Y-14089571D02*
X12947143Y-14080048D01*
X12947143Y-14080048D02*
X12966191Y-14070524D01*
X13109048Y-14089571D02*
X13118572Y-14080048D01*
X13118572Y-14080048D02*
X13137619Y-14070524D01*
X13137619Y-14070524D02*
X13185238Y-14070524D01*
X13185238Y-14070524D02*
X13204286Y-14080048D01*
X13204286Y-14080048D02*
X13213810Y-14089571D01*
X13213810Y-14089571D02*
X13223333Y-14108619D01*
X13223333Y-14108619D02*
X13223333Y-14127667D01*
X13223333Y-14127667D02*
X13213810Y-14156238D01*
X13213810Y-14156238D02*
X13099524Y-14270524D01*
X13099524Y-14270524D02*
X13223333Y-14270524D01*
X13290000Y-14070524D02*
X13413810Y-14070524D01*
X13413810Y-14070524D02*
X13347143Y-14146714D01*
X13347143Y-14146714D02*
X13375714Y-14146714D01*
X13375714Y-14146714D02*
X13394762Y-14156238D01*
X13394762Y-14156238D02*
X13404286Y-14165762D01*
X13404286Y-14165762D02*
X13413810Y-14184809D01*
X13413810Y-14184809D02*
X13413810Y-14232428D01*
X13413810Y-14232428D02*
X13404286Y-14251476D01*
X13404286Y-14251476D02*
X13394762Y-14261000D01*
X13394762Y-14261000D02*
X13375714Y-14270524D01*
X13375714Y-14270524D02*
X13318572Y-14270524D01*
X13318572Y-14270524D02*
X13299524Y-14261000D01*
X13299524Y-14261000D02*
X13290000Y-14251476D01*
X13585238Y-14070524D02*
X13547143Y-14070524D01*
X13547143Y-14070524D02*
X13528095Y-14080048D01*
X13528095Y-14080048D02*
X13518572Y-14089571D01*
X13518572Y-14089571D02*
X13499524Y-14118143D01*
X13499524Y-14118143D02*
X13490000Y-14156238D01*
X13490000Y-14156238D02*
X13490000Y-14232428D01*
X13490000Y-14232428D02*
X13499524Y-14251476D01*
X13499524Y-14251476D02*
X13509048Y-14261000D01*
X13509048Y-14261000D02*
X13528095Y-14270524D01*
X13528095Y-14270524D02*
X13566191Y-14270524D01*
X13566191Y-14270524D02*
X13585238Y-14261000D01*
X13585238Y-14261000D02*
X13594762Y-14251476D01*
X13594762Y-14251476D02*
X13604286Y-14232428D01*
X13604286Y-14232428D02*
X13604286Y-14184809D01*
X13604286Y-14184809D02*
X13594762Y-14165762D01*
X13594762Y-14165762D02*
X13585238Y-14156238D01*
X13585238Y-14156238D02*
X13566191Y-14146714D01*
X13566191Y-14146714D02*
X13528095Y-14146714D01*
X13528095Y-14146714D02*
X13509048Y-14156238D01*
X13509048Y-14156238D02*
X13499524Y-14165762D01*
X13499524Y-14165762D02*
X13490000Y-14184809D01*
X13680476Y-14070524D02*
X13680476Y-14108619D01*
X13756667Y-14070524D02*
X13756667Y-14108619D01*
X14051905Y-14346714D02*
X14042381Y-14337190D01*
X14042381Y-14337190D02*
X14023334Y-14308619D01*
X14023334Y-14308619D02*
X14013810Y-14289571D01*
X14013810Y-14289571D02*
X14004286Y-14261000D01*
X14004286Y-14261000D02*
X13994762Y-14213381D01*
X13994762Y-14213381D02*
X13994762Y-14175286D01*
X13994762Y-14175286D02*
X14004286Y-14127667D01*
X14004286Y-14127667D02*
X14013810Y-14099095D01*
X14013810Y-14099095D02*
X14023334Y-14080048D01*
X14023334Y-14080048D02*
X14042381Y-14051476D01*
X14042381Y-14051476D02*
X14051905Y-14041952D01*
X14166191Y-14070524D02*
X14185238Y-14070524D01*
X14185238Y-14070524D02*
X14204286Y-14080048D01*
X14204286Y-14080048D02*
X14213810Y-14089571D01*
X14213810Y-14089571D02*
X14223334Y-14108619D01*
X14223334Y-14108619D02*
X14232857Y-14146714D01*
X14232857Y-14146714D02*
X14232857Y-14194333D01*
X14232857Y-14194333D02*
X14223334Y-14232428D01*
X14223334Y-14232428D02*
X14213810Y-14251476D01*
X14213810Y-14251476D02*
X14204286Y-14261000D01*
X14204286Y-14261000D02*
X14185238Y-14270524D01*
X14185238Y-14270524D02*
X14166191Y-14270524D01*
X14166191Y-14270524D02*
X14147143Y-14261000D01*
X14147143Y-14261000D02*
X14137619Y-14251476D01*
X14137619Y-14251476D02*
X14128095Y-14232428D01*
X14128095Y-14232428D02*
X14118572Y-14194333D01*
X14118572Y-14194333D02*
X14118572Y-14146714D01*
X14118572Y-14146714D02*
X14128095Y-14108619D01*
X14128095Y-14108619D02*
X14137619Y-14089571D01*
X14137619Y-14089571D02*
X14147143Y-14080048D01*
X14147143Y-14080048D02*
X14166191Y-14070524D01*
X14470953Y-14270524D02*
X14470953Y-14070524D01*
X14556667Y-14270524D02*
X14556667Y-14165762D01*
X14556667Y-14165762D02*
X14547143Y-14146714D01*
X14547143Y-14146714D02*
X14528096Y-14137190D01*
X14528096Y-14137190D02*
X14499524Y-14137190D01*
X14499524Y-14137190D02*
X14480476Y-14146714D01*
X14480476Y-14146714D02*
X14470953Y-14156238D01*
X14680476Y-14270524D02*
X14661429Y-14261000D01*
X14661429Y-14261000D02*
X14651905Y-14251476D01*
X14651905Y-14251476D02*
X14642381Y-14232428D01*
X14642381Y-14232428D02*
X14642381Y-14175286D01*
X14642381Y-14175286D02*
X14651905Y-14156238D01*
X14651905Y-14156238D02*
X14661429Y-14146714D01*
X14661429Y-14146714D02*
X14680476Y-14137190D01*
X14680476Y-14137190D02*
X14709048Y-14137190D01*
X14709048Y-14137190D02*
X14728096Y-14146714D01*
X14728096Y-14146714D02*
X14737619Y-14156238D01*
X14737619Y-14156238D02*
X14747143Y-14175286D01*
X14747143Y-14175286D02*
X14747143Y-14232428D01*
X14747143Y-14232428D02*
X14737619Y-14251476D01*
X14737619Y-14251476D02*
X14728096Y-14261000D01*
X14728096Y-14261000D02*
X14709048Y-14270524D01*
X14709048Y-14270524D02*
X14680476Y-14270524D01*
X14861429Y-14270524D02*
X14842381Y-14261000D01*
X14842381Y-14261000D02*
X14832857Y-14241952D01*
X14832857Y-14241952D02*
X14832857Y-14070524D01*
X15013810Y-14261000D02*
X14994762Y-14270524D01*
X14994762Y-14270524D02*
X14956667Y-14270524D01*
X14956667Y-14270524D02*
X14937619Y-14261000D01*
X14937619Y-14261000D02*
X14928096Y-14241952D01*
X14928096Y-14241952D02*
X14928096Y-14165762D01*
X14928096Y-14165762D02*
X14937619Y-14146714D01*
X14937619Y-14146714D02*
X14956667Y-14137190D01*
X14956667Y-14137190D02*
X14994762Y-14137190D01*
X14994762Y-14137190D02*
X15013810Y-14146714D01*
X15013810Y-14146714D02*
X15023334Y-14165762D01*
X15023334Y-14165762D02*
X15023334Y-14184809D01*
X15023334Y-14184809D02*
X14928096Y-14203857D01*
X15099524Y-14261000D02*
X15118572Y-14270524D01*
X15118572Y-14270524D02*
X15156667Y-14270524D01*
X15156667Y-14270524D02*
X15175715Y-14261000D01*
X15175715Y-14261000D02*
X15185238Y-14241952D01*
X15185238Y-14241952D02*
X15185238Y-14232428D01*
X15185238Y-14232428D02*
X15175715Y-14213381D01*
X15175715Y-14213381D02*
X15156667Y-14203857D01*
X15156667Y-14203857D02*
X15128096Y-14203857D01*
X15128096Y-14203857D02*
X15109048Y-14194333D01*
X15109048Y-14194333D02*
X15099524Y-14175286D01*
X15099524Y-14175286D02*
X15099524Y-14165762D01*
X15099524Y-14165762D02*
X15109048Y-14146714D01*
X15109048Y-14146714D02*
X15128096Y-14137190D01*
X15128096Y-14137190D02*
X15156667Y-14137190D01*
X15156667Y-14137190D02*
X15175715Y-14146714D01*
X15423334Y-14194333D02*
X15575715Y-14194333D01*
X15499524Y-14270524D02*
X15499524Y-14118143D01*
X15909048Y-14137190D02*
X15909048Y-14270524D01*
X15861429Y-14061000D02*
X15813810Y-14203857D01*
X15813810Y-14203857D02*
X15937619Y-14203857D01*
X16156667Y-14261000D02*
X16175715Y-14270524D01*
X16175715Y-14270524D02*
X16213810Y-14270524D01*
X16213810Y-14270524D02*
X16232858Y-14261000D01*
X16232858Y-14261000D02*
X16242381Y-14241952D01*
X16242381Y-14241952D02*
X16242381Y-14232428D01*
X16242381Y-14232428D02*
X16232858Y-14213381D01*
X16232858Y-14213381D02*
X16213810Y-14203857D01*
X16213810Y-14203857D02*
X16185239Y-14203857D01*
X16185239Y-14203857D02*
X16166191Y-14194333D01*
X16166191Y-14194333D02*
X16156667Y-14175286D01*
X16156667Y-14175286D02*
X16156667Y-14165762D01*
X16156667Y-14165762D02*
X16166191Y-14146714D01*
X16166191Y-14146714D02*
X16185239Y-14137190D01*
X16185239Y-14137190D02*
X16213810Y-14137190D01*
X16213810Y-14137190D02*
X16232858Y-14146714D01*
X16356667Y-14270524D02*
X16337620Y-14261000D01*
X16337620Y-14261000D02*
X16328096Y-14241952D01*
X16328096Y-14241952D02*
X16328096Y-14070524D01*
X16461429Y-14270524D02*
X16442381Y-14261000D01*
X16442381Y-14261000D02*
X16432858Y-14251476D01*
X16432858Y-14251476D02*
X16423334Y-14232428D01*
X16423334Y-14232428D02*
X16423334Y-14175286D01*
X16423334Y-14175286D02*
X16432858Y-14156238D01*
X16432858Y-14156238D02*
X16442381Y-14146714D01*
X16442381Y-14146714D02*
X16461429Y-14137190D01*
X16461429Y-14137190D02*
X16490001Y-14137190D01*
X16490001Y-14137190D02*
X16509048Y-14146714D01*
X16509048Y-14146714D02*
X16518572Y-14156238D01*
X16518572Y-14156238D02*
X16528096Y-14175286D01*
X16528096Y-14175286D02*
X16528096Y-14232428D01*
X16528096Y-14232428D02*
X16518572Y-14251476D01*
X16518572Y-14251476D02*
X16509048Y-14261000D01*
X16509048Y-14261000D02*
X16490001Y-14270524D01*
X16490001Y-14270524D02*
X16461429Y-14270524D01*
X16585239Y-14137190D02*
X16661429Y-14137190D01*
X16613810Y-14070524D02*
X16613810Y-14241952D01*
X16613810Y-14241952D02*
X16623334Y-14261000D01*
X16623334Y-14261000D02*
X16642381Y-14270524D01*
X16642381Y-14270524D02*
X16661429Y-14270524D01*
X16718572Y-14261000D02*
X16737620Y-14270524D01*
X16737620Y-14270524D02*
X16775715Y-14270524D01*
X16775715Y-14270524D02*
X16794763Y-14261000D01*
X16794763Y-14261000D02*
X16804286Y-14241952D01*
X16804286Y-14241952D02*
X16804286Y-14232428D01*
X16804286Y-14232428D02*
X16794763Y-14213381D01*
X16794763Y-14213381D02*
X16775715Y-14203857D01*
X16775715Y-14203857D02*
X16747143Y-14203857D01*
X16747143Y-14203857D02*
X16728096Y-14194333D01*
X16728096Y-14194333D02*
X16718572Y-14175286D01*
X16718572Y-14175286D02*
X16718572Y-14165762D01*
X16718572Y-14165762D02*
X16728096Y-14146714D01*
X16728096Y-14146714D02*
X16747143Y-14137190D01*
X16747143Y-14137190D02*
X16775715Y-14137190D01*
X16775715Y-14137190D02*
X16794763Y-14146714D01*
X16870953Y-14346714D02*
X16880477Y-14337190D01*
X16880477Y-14337190D02*
X16899524Y-14308619D01*
X16899524Y-14308619D02*
X16909048Y-14289571D01*
X16909048Y-14289571D02*
X16918572Y-14261000D01*
X16918572Y-14261000D02*
X16928096Y-14213381D01*
X16928096Y-14213381D02*
X16928096Y-14175286D01*
X16928096Y-14175286D02*
X16918572Y-14127667D01*
X16918572Y-14127667D02*
X16909048Y-14099095D01*
X16909048Y-14099095D02*
X16899524Y-14080048D01*
X16899524Y-14080048D02*
X16880477Y-14051476D01*
X16880477Y-14051476D02*
X16870953Y-14041952D01*
D13*
X10475356Y-14477356D02*
X10475356Y-14406644D01*
X10404644Y-14406644D01*
X10404644Y-14477356D01*
X10475356Y-14477356D01*
D10*
X10842381Y-14534524D02*
X10728095Y-14534524D01*
X10785238Y-14534524D02*
X10785238Y-14334524D01*
X10785238Y-14334524D02*
X10766190Y-14363095D01*
X10766190Y-14363095D02*
X10747143Y-14382143D01*
X10747143Y-14382143D02*
X10728095Y-14391667D01*
X10928095Y-14515476D02*
X10937619Y-14525000D01*
X10937619Y-14525000D02*
X10928095Y-14534524D01*
X10928095Y-14534524D02*
X10918571Y-14525000D01*
X10918571Y-14525000D02*
X10928095Y-14515476D01*
X10928095Y-14515476D02*
X10928095Y-14534524D01*
X11061429Y-14334524D02*
X11080476Y-14334524D01*
X11080476Y-14334524D02*
X11099524Y-14344048D01*
X11099524Y-14344048D02*
X11109048Y-14353571D01*
X11109048Y-14353571D02*
X11118571Y-14372619D01*
X11118571Y-14372619D02*
X11128095Y-14410714D01*
X11128095Y-14410714D02*
X11128095Y-14458333D01*
X11128095Y-14458333D02*
X11118571Y-14496428D01*
X11118571Y-14496428D02*
X11109048Y-14515476D01*
X11109048Y-14515476D02*
X11099524Y-14525000D01*
X11099524Y-14525000D02*
X11080476Y-14534524D01*
X11080476Y-14534524D02*
X11061429Y-14534524D01*
X11061429Y-14534524D02*
X11042381Y-14525000D01*
X11042381Y-14525000D02*
X11032857Y-14515476D01*
X11032857Y-14515476D02*
X11023333Y-14496428D01*
X11023333Y-14496428D02*
X11013810Y-14458333D01*
X11013810Y-14458333D02*
X11013810Y-14410714D01*
X11013810Y-14410714D02*
X11023333Y-14372619D01*
X11023333Y-14372619D02*
X11032857Y-14353571D01*
X11032857Y-14353571D02*
X11042381Y-14344048D01*
X11042381Y-14344048D02*
X11061429Y-14334524D01*
X11251905Y-14334524D02*
X11270952Y-14334524D01*
X11270952Y-14334524D02*
X11290000Y-14344048D01*
X11290000Y-14344048D02*
X11299524Y-14353571D01*
X11299524Y-14353571D02*
X11309048Y-14372619D01*
X11309048Y-14372619D02*
X11318571Y-14410714D01*
X11318571Y-14410714D02*
X11318571Y-14458333D01*
X11318571Y-14458333D02*
X11309048Y-14496428D01*
X11309048Y-14496428D02*
X11299524Y-14515476D01*
X11299524Y-14515476D02*
X11290000Y-14525000D01*
X11290000Y-14525000D02*
X11270952Y-14534524D01*
X11270952Y-14534524D02*
X11251905Y-14534524D01*
X11251905Y-14534524D02*
X11232857Y-14525000D01*
X11232857Y-14525000D02*
X11223333Y-14515476D01*
X11223333Y-14515476D02*
X11213809Y-14496428D01*
X11213809Y-14496428D02*
X11204286Y-14458333D01*
X11204286Y-14458333D02*
X11204286Y-14410714D01*
X11204286Y-14410714D02*
X11213809Y-14372619D01*
X11213809Y-14372619D02*
X11223333Y-14353571D01*
X11223333Y-14353571D02*
X11232857Y-14344048D01*
X11232857Y-14344048D02*
X11251905Y-14334524D01*
X11442381Y-14334524D02*
X11461429Y-14334524D01*
X11461429Y-14334524D02*
X11480476Y-14344048D01*
X11480476Y-14344048D02*
X11490000Y-14353571D01*
X11490000Y-14353571D02*
X11499524Y-14372619D01*
X11499524Y-14372619D02*
X11509048Y-14410714D01*
X11509048Y-14410714D02*
X11509048Y-14458333D01*
X11509048Y-14458333D02*
X11499524Y-14496428D01*
X11499524Y-14496428D02*
X11490000Y-14515476D01*
X11490000Y-14515476D02*
X11480476Y-14525000D01*
X11480476Y-14525000D02*
X11461429Y-14534524D01*
X11461429Y-14534524D02*
X11442381Y-14534524D01*
X11442381Y-14534524D02*
X11423333Y-14525000D01*
X11423333Y-14525000D02*
X11413809Y-14515476D01*
X11413809Y-14515476D02*
X11404286Y-14496428D01*
X11404286Y-14496428D02*
X11394762Y-14458333D01*
X11394762Y-14458333D02*
X11394762Y-14410714D01*
X11394762Y-14410714D02*
X11404286Y-14372619D01*
X11404286Y-14372619D02*
X11413809Y-14353571D01*
X11413809Y-14353571D02*
X11423333Y-14344048D01*
X11423333Y-14344048D02*
X11442381Y-14334524D01*
X11594762Y-14534524D02*
X11594762Y-14401190D01*
X11594762Y-14420238D02*
X11604286Y-14410714D01*
X11604286Y-14410714D02*
X11623333Y-14401190D01*
X11623333Y-14401190D02*
X11651905Y-14401190D01*
X11651905Y-14401190D02*
X11670952Y-14410714D01*
X11670952Y-14410714D02*
X11680476Y-14429762D01*
X11680476Y-14429762D02*
X11680476Y-14534524D01*
X11680476Y-14429762D02*
X11690000Y-14410714D01*
X11690000Y-14410714D02*
X11709048Y-14401190D01*
X11709048Y-14401190D02*
X11737619Y-14401190D01*
X11737619Y-14401190D02*
X11756667Y-14410714D01*
X11756667Y-14410714D02*
X11766190Y-14429762D01*
X11766190Y-14429762D02*
X11766190Y-14534524D01*
X11861429Y-14534524D02*
X11861429Y-14401190D01*
X11861429Y-14420238D02*
X11870952Y-14410714D01*
X11870952Y-14410714D02*
X11890000Y-14401190D01*
X11890000Y-14401190D02*
X11918571Y-14401190D01*
X11918571Y-14401190D02*
X11937619Y-14410714D01*
X11937619Y-14410714D02*
X11947143Y-14429762D01*
X11947143Y-14429762D02*
X11947143Y-14534524D01*
X11947143Y-14429762D02*
X11956667Y-14410714D01*
X11956667Y-14410714D02*
X11975714Y-14401190D01*
X11975714Y-14401190D02*
X12004286Y-14401190D01*
X12004286Y-14401190D02*
X12023333Y-14410714D01*
X12023333Y-14410714D02*
X12032857Y-14429762D01*
X12032857Y-14429762D02*
X12032857Y-14534524D01*
X12423333Y-14325000D02*
X12251905Y-14582143D01*
X12680476Y-14334524D02*
X12699524Y-14334524D01*
X12699524Y-14334524D02*
X12718572Y-14344048D01*
X12718572Y-14344048D02*
X12728095Y-14353571D01*
X12728095Y-14353571D02*
X12737619Y-14372619D01*
X12737619Y-14372619D02*
X12747143Y-14410714D01*
X12747143Y-14410714D02*
X12747143Y-14458333D01*
X12747143Y-14458333D02*
X12737619Y-14496428D01*
X12737619Y-14496428D02*
X12728095Y-14515476D01*
X12728095Y-14515476D02*
X12718572Y-14525000D01*
X12718572Y-14525000D02*
X12699524Y-14534524D01*
X12699524Y-14534524D02*
X12680476Y-14534524D01*
X12680476Y-14534524D02*
X12661429Y-14525000D01*
X12661429Y-14525000D02*
X12651905Y-14515476D01*
X12651905Y-14515476D02*
X12642381Y-14496428D01*
X12642381Y-14496428D02*
X12632857Y-14458333D01*
X12632857Y-14458333D02*
X12632857Y-14410714D01*
X12632857Y-14410714D02*
X12642381Y-14372619D01*
X12642381Y-14372619D02*
X12651905Y-14353571D01*
X12651905Y-14353571D02*
X12661429Y-14344048D01*
X12661429Y-14344048D02*
X12680476Y-14334524D01*
X12832857Y-14515476D02*
X12842381Y-14525000D01*
X12842381Y-14525000D02*
X12832857Y-14534524D01*
X12832857Y-14534524D02*
X12823333Y-14525000D01*
X12823333Y-14525000D02*
X12832857Y-14515476D01*
X12832857Y-14515476D02*
X12832857Y-14534524D01*
X12966191Y-14334524D02*
X12985238Y-14334524D01*
X12985238Y-14334524D02*
X13004286Y-14344048D01*
X13004286Y-14344048D02*
X13013810Y-14353571D01*
X13013810Y-14353571D02*
X13023333Y-14372619D01*
X13023333Y-14372619D02*
X13032857Y-14410714D01*
X13032857Y-14410714D02*
X13032857Y-14458333D01*
X13032857Y-14458333D02*
X13023333Y-14496428D01*
X13023333Y-14496428D02*
X13013810Y-14515476D01*
X13013810Y-14515476D02*
X13004286Y-14525000D01*
X13004286Y-14525000D02*
X12985238Y-14534524D01*
X12985238Y-14534524D02*
X12966191Y-14534524D01*
X12966191Y-14534524D02*
X12947143Y-14525000D01*
X12947143Y-14525000D02*
X12937619Y-14515476D01*
X12937619Y-14515476D02*
X12928095Y-14496428D01*
X12928095Y-14496428D02*
X12918572Y-14458333D01*
X12918572Y-14458333D02*
X12918572Y-14410714D01*
X12918572Y-14410714D02*
X12928095Y-14372619D01*
X12928095Y-14372619D02*
X12937619Y-14353571D01*
X12937619Y-14353571D02*
X12947143Y-14344048D01*
X12947143Y-14344048D02*
X12966191Y-14334524D01*
X13099524Y-14334524D02*
X13223333Y-14334524D01*
X13223333Y-14334524D02*
X13156667Y-14410714D01*
X13156667Y-14410714D02*
X13185238Y-14410714D01*
X13185238Y-14410714D02*
X13204286Y-14420238D01*
X13204286Y-14420238D02*
X13213810Y-14429762D01*
X13213810Y-14429762D02*
X13223333Y-14448809D01*
X13223333Y-14448809D02*
X13223333Y-14496428D01*
X13223333Y-14496428D02*
X13213810Y-14515476D01*
X13213810Y-14515476D02*
X13204286Y-14525000D01*
X13204286Y-14525000D02*
X13185238Y-14534524D01*
X13185238Y-14534524D02*
X13128095Y-14534524D01*
X13128095Y-14534524D02*
X13109048Y-14525000D01*
X13109048Y-14525000D02*
X13099524Y-14515476D01*
X13318572Y-14534524D02*
X13356667Y-14534524D01*
X13356667Y-14534524D02*
X13375714Y-14525000D01*
X13375714Y-14525000D02*
X13385238Y-14515476D01*
X13385238Y-14515476D02*
X13404286Y-14486905D01*
X13404286Y-14486905D02*
X13413810Y-14448809D01*
X13413810Y-14448809D02*
X13413810Y-14372619D01*
X13413810Y-14372619D02*
X13404286Y-14353571D01*
X13404286Y-14353571D02*
X13394762Y-14344048D01*
X13394762Y-14344048D02*
X13375714Y-14334524D01*
X13375714Y-14334524D02*
X13337619Y-14334524D01*
X13337619Y-14334524D02*
X13318572Y-14344048D01*
X13318572Y-14344048D02*
X13309048Y-14353571D01*
X13309048Y-14353571D02*
X13299524Y-14372619D01*
X13299524Y-14372619D02*
X13299524Y-14420238D01*
X13299524Y-14420238D02*
X13309048Y-14439286D01*
X13309048Y-14439286D02*
X13318572Y-14448809D01*
X13318572Y-14448809D02*
X13337619Y-14458333D01*
X13337619Y-14458333D02*
X13375714Y-14458333D01*
X13375714Y-14458333D02*
X13394762Y-14448809D01*
X13394762Y-14448809D02*
X13404286Y-14439286D01*
X13404286Y-14439286D02*
X13413810Y-14420238D01*
X13585238Y-14401190D02*
X13585238Y-14534524D01*
X13537619Y-14325000D02*
X13490000Y-14467857D01*
X13490000Y-14467857D02*
X13613810Y-14467857D01*
X13680476Y-14334524D02*
X13680476Y-14372619D01*
X13756667Y-14334524D02*
X13756667Y-14372619D01*
X14051905Y-14610714D02*
X14042381Y-14601190D01*
X14042381Y-14601190D02*
X14023334Y-14572619D01*
X14023334Y-14572619D02*
X14013810Y-14553571D01*
X14013810Y-14553571D02*
X14004286Y-14525000D01*
X14004286Y-14525000D02*
X13994762Y-14477381D01*
X13994762Y-14477381D02*
X13994762Y-14439286D01*
X13994762Y-14439286D02*
X14004286Y-14391667D01*
X14004286Y-14391667D02*
X14013810Y-14363095D01*
X14013810Y-14363095D02*
X14023334Y-14344048D01*
X14023334Y-14344048D02*
X14042381Y-14315476D01*
X14042381Y-14315476D02*
X14051905Y-14305952D01*
X14109048Y-14334524D02*
X14232857Y-14334524D01*
X14232857Y-14334524D02*
X14166191Y-14410714D01*
X14166191Y-14410714D02*
X14194762Y-14410714D01*
X14194762Y-14410714D02*
X14213810Y-14420238D01*
X14213810Y-14420238D02*
X14223334Y-14429762D01*
X14223334Y-14429762D02*
X14232857Y-14448809D01*
X14232857Y-14448809D02*
X14232857Y-14496428D01*
X14232857Y-14496428D02*
X14223334Y-14515476D01*
X14223334Y-14515476D02*
X14213810Y-14525000D01*
X14213810Y-14525000D02*
X14194762Y-14534524D01*
X14194762Y-14534524D02*
X14137619Y-14534524D01*
X14137619Y-14534524D02*
X14118572Y-14525000D01*
X14118572Y-14525000D02*
X14109048Y-14515476D01*
X14413810Y-14334524D02*
X14318572Y-14334524D01*
X14318572Y-14334524D02*
X14309048Y-14429762D01*
X14309048Y-14429762D02*
X14318572Y-14420238D01*
X14318572Y-14420238D02*
X14337619Y-14410714D01*
X14337619Y-14410714D02*
X14385238Y-14410714D01*
X14385238Y-14410714D02*
X14404286Y-14420238D01*
X14404286Y-14420238D02*
X14413810Y-14429762D01*
X14413810Y-14429762D02*
X14423334Y-14448809D01*
X14423334Y-14448809D02*
X14423334Y-14496428D01*
X14423334Y-14496428D02*
X14413810Y-14515476D01*
X14413810Y-14515476D02*
X14404286Y-14525000D01*
X14404286Y-14525000D02*
X14385238Y-14534524D01*
X14385238Y-14534524D02*
X14337619Y-14534524D01*
X14337619Y-14534524D02*
X14318572Y-14525000D01*
X14318572Y-14525000D02*
X14309048Y-14515476D01*
X14661429Y-14534524D02*
X14661429Y-14334524D01*
X14747143Y-14534524D02*
X14747143Y-14429762D01*
X14747143Y-14429762D02*
X14737619Y-14410714D01*
X14737619Y-14410714D02*
X14718572Y-14401190D01*
X14718572Y-14401190D02*
X14690000Y-14401190D01*
X14690000Y-14401190D02*
X14670953Y-14410714D01*
X14670953Y-14410714D02*
X14661429Y-14420238D01*
X14870953Y-14534524D02*
X14851905Y-14525000D01*
X14851905Y-14525000D02*
X14842381Y-14515476D01*
X14842381Y-14515476D02*
X14832857Y-14496428D01*
X14832857Y-14496428D02*
X14832857Y-14439286D01*
X14832857Y-14439286D02*
X14842381Y-14420238D01*
X14842381Y-14420238D02*
X14851905Y-14410714D01*
X14851905Y-14410714D02*
X14870953Y-14401190D01*
X14870953Y-14401190D02*
X14899524Y-14401190D01*
X14899524Y-14401190D02*
X14918572Y-14410714D01*
X14918572Y-14410714D02*
X14928096Y-14420238D01*
X14928096Y-14420238D02*
X14937619Y-14439286D01*
X14937619Y-14439286D02*
X14937619Y-14496428D01*
X14937619Y-14496428D02*
X14928096Y-14515476D01*
X14928096Y-14515476D02*
X14918572Y-14525000D01*
X14918572Y-14525000D02*
X14899524Y-14534524D01*
X14899524Y-14534524D02*
X14870953Y-14534524D01*
X15051905Y-14534524D02*
X15032857Y-14525000D01*
X15032857Y-14525000D02*
X15023334Y-14505952D01*
X15023334Y-14505952D02*
X15023334Y-14334524D01*
X15204286Y-14525000D02*
X15185238Y-14534524D01*
X15185238Y-14534524D02*
X15147143Y-14534524D01*
X15147143Y-14534524D02*
X15128096Y-14525000D01*
X15128096Y-14525000D02*
X15118572Y-14505952D01*
X15118572Y-14505952D02*
X15118572Y-14429762D01*
X15118572Y-14429762D02*
X15128096Y-14410714D01*
X15128096Y-14410714D02*
X15147143Y-14401190D01*
X15147143Y-14401190D02*
X15185238Y-14401190D01*
X15185238Y-14401190D02*
X15204286Y-14410714D01*
X15204286Y-14410714D02*
X15213810Y-14429762D01*
X15213810Y-14429762D02*
X15213810Y-14448809D01*
X15213810Y-14448809D02*
X15118572Y-14467857D01*
X15290000Y-14525000D02*
X15309048Y-14534524D01*
X15309048Y-14534524D02*
X15347143Y-14534524D01*
X15347143Y-14534524D02*
X15366191Y-14525000D01*
X15366191Y-14525000D02*
X15375715Y-14505952D01*
X15375715Y-14505952D02*
X15375715Y-14496428D01*
X15375715Y-14496428D02*
X15366191Y-14477381D01*
X15366191Y-14477381D02*
X15347143Y-14467857D01*
X15347143Y-14467857D02*
X15318572Y-14467857D01*
X15318572Y-14467857D02*
X15299524Y-14458333D01*
X15299524Y-14458333D02*
X15290000Y-14439286D01*
X15290000Y-14439286D02*
X15290000Y-14429762D01*
X15290000Y-14429762D02*
X15299524Y-14410714D01*
X15299524Y-14410714D02*
X15318572Y-14401190D01*
X15318572Y-14401190D02*
X15347143Y-14401190D01*
X15347143Y-14401190D02*
X15366191Y-14410714D01*
X15442381Y-14610714D02*
X15451905Y-14601190D01*
X15451905Y-14601190D02*
X15470953Y-14572619D01*
X15470953Y-14572619D02*
X15480477Y-14553571D01*
X15480477Y-14553571D02*
X15490000Y-14525000D01*
X15490000Y-14525000D02*
X15499524Y-14477381D01*
X15499524Y-14477381D02*
X15499524Y-14439286D01*
X15499524Y-14439286D02*
X15490000Y-14391667D01*
X15490000Y-14391667D02*
X15480477Y-14363095D01*
X15480477Y-14363095D02*
X15470953Y-14344048D01*
X15470953Y-14344048D02*
X15451905Y-14315476D01*
X15451905Y-14315476D02*
X15442381Y-14305952D01*
D14*
X10430000Y-14766000D02*
X10490000Y-14706000D01*
X10430000Y-14646000D01*
X10370000Y-14706000D01*
X10430000Y-14766000D01*
D10*
X10842381Y-14798524D02*
X10728095Y-14798524D01*
X10785238Y-14798524D02*
X10785238Y-14598524D01*
X10785238Y-14598524D02*
X10766190Y-14627095D01*
X10766190Y-14627095D02*
X10747143Y-14646143D01*
X10747143Y-14646143D02*
X10728095Y-14655667D01*
X10928095Y-14779476D02*
X10937619Y-14789000D01*
X10937619Y-14789000D02*
X10928095Y-14798524D01*
X10928095Y-14798524D02*
X10918571Y-14789000D01*
X10918571Y-14789000D02*
X10928095Y-14779476D01*
X10928095Y-14779476D02*
X10928095Y-14798524D01*
X11013810Y-14617571D02*
X11023333Y-14608048D01*
X11023333Y-14608048D02*
X11042381Y-14598524D01*
X11042381Y-14598524D02*
X11090000Y-14598524D01*
X11090000Y-14598524D02*
X11109048Y-14608048D01*
X11109048Y-14608048D02*
X11118571Y-14617571D01*
X11118571Y-14617571D02*
X11128095Y-14636619D01*
X11128095Y-14636619D02*
X11128095Y-14655667D01*
X11128095Y-14655667D02*
X11118571Y-14684238D01*
X11118571Y-14684238D02*
X11004286Y-14798524D01*
X11004286Y-14798524D02*
X11128095Y-14798524D01*
X11251905Y-14598524D02*
X11270952Y-14598524D01*
X11270952Y-14598524D02*
X11290000Y-14608048D01*
X11290000Y-14608048D02*
X11299524Y-14617571D01*
X11299524Y-14617571D02*
X11309048Y-14636619D01*
X11309048Y-14636619D02*
X11318571Y-14674714D01*
X11318571Y-14674714D02*
X11318571Y-14722333D01*
X11318571Y-14722333D02*
X11309048Y-14760428D01*
X11309048Y-14760428D02*
X11299524Y-14779476D01*
X11299524Y-14779476D02*
X11290000Y-14789000D01*
X11290000Y-14789000D02*
X11270952Y-14798524D01*
X11270952Y-14798524D02*
X11251905Y-14798524D01*
X11251905Y-14798524D02*
X11232857Y-14789000D01*
X11232857Y-14789000D02*
X11223333Y-14779476D01*
X11223333Y-14779476D02*
X11213809Y-14760428D01*
X11213809Y-14760428D02*
X11204286Y-14722333D01*
X11204286Y-14722333D02*
X11204286Y-14674714D01*
X11204286Y-14674714D02*
X11213809Y-14636619D01*
X11213809Y-14636619D02*
X11223333Y-14617571D01*
X11223333Y-14617571D02*
X11232857Y-14608048D01*
X11232857Y-14608048D02*
X11251905Y-14598524D01*
X11442381Y-14598524D02*
X11461429Y-14598524D01*
X11461429Y-14598524D02*
X11480476Y-14608048D01*
X11480476Y-14608048D02*
X11490000Y-14617571D01*
X11490000Y-14617571D02*
X11499524Y-14636619D01*
X11499524Y-14636619D02*
X11509048Y-14674714D01*
X11509048Y-14674714D02*
X11509048Y-14722333D01*
X11509048Y-14722333D02*
X11499524Y-14760428D01*
X11499524Y-14760428D02*
X11490000Y-14779476D01*
X11490000Y-14779476D02*
X11480476Y-14789000D01*
X11480476Y-14789000D02*
X11461429Y-14798524D01*
X11461429Y-14798524D02*
X11442381Y-14798524D01*
X11442381Y-14798524D02*
X11423333Y-14789000D01*
X11423333Y-14789000D02*
X11413809Y-14779476D01*
X11413809Y-14779476D02*
X11404286Y-14760428D01*
X11404286Y-14760428D02*
X11394762Y-14722333D01*
X11394762Y-14722333D02*
X11394762Y-14674714D01*
X11394762Y-14674714D02*
X11404286Y-14636619D01*
X11404286Y-14636619D02*
X11413809Y-14617571D01*
X11413809Y-14617571D02*
X11423333Y-14608048D01*
X11423333Y-14608048D02*
X11442381Y-14598524D01*
X11594762Y-14798524D02*
X11594762Y-14665190D01*
X11594762Y-14684238D02*
X11604286Y-14674714D01*
X11604286Y-14674714D02*
X11623333Y-14665190D01*
X11623333Y-14665190D02*
X11651905Y-14665190D01*
X11651905Y-14665190D02*
X11670952Y-14674714D01*
X11670952Y-14674714D02*
X11680476Y-14693762D01*
X11680476Y-14693762D02*
X11680476Y-14798524D01*
X11680476Y-14693762D02*
X11690000Y-14674714D01*
X11690000Y-14674714D02*
X11709048Y-14665190D01*
X11709048Y-14665190D02*
X11737619Y-14665190D01*
X11737619Y-14665190D02*
X11756667Y-14674714D01*
X11756667Y-14674714D02*
X11766190Y-14693762D01*
X11766190Y-14693762D02*
X11766190Y-14798524D01*
X11861429Y-14798524D02*
X11861429Y-14665190D01*
X11861429Y-14684238D02*
X11870952Y-14674714D01*
X11870952Y-14674714D02*
X11890000Y-14665190D01*
X11890000Y-14665190D02*
X11918571Y-14665190D01*
X11918571Y-14665190D02*
X11937619Y-14674714D01*
X11937619Y-14674714D02*
X11947143Y-14693762D01*
X11947143Y-14693762D02*
X11947143Y-14798524D01*
X11947143Y-14693762D02*
X11956667Y-14674714D01*
X11956667Y-14674714D02*
X11975714Y-14665190D01*
X11975714Y-14665190D02*
X12004286Y-14665190D01*
X12004286Y-14665190D02*
X12023333Y-14674714D01*
X12023333Y-14674714D02*
X12032857Y-14693762D01*
X12032857Y-14693762D02*
X12032857Y-14798524D01*
X12423333Y-14589000D02*
X12251905Y-14846143D01*
X12680476Y-14598524D02*
X12699524Y-14598524D01*
X12699524Y-14598524D02*
X12718572Y-14608048D01*
X12718572Y-14608048D02*
X12728095Y-14617571D01*
X12728095Y-14617571D02*
X12737619Y-14636619D01*
X12737619Y-14636619D02*
X12747143Y-14674714D01*
X12747143Y-14674714D02*
X12747143Y-14722333D01*
X12747143Y-14722333D02*
X12737619Y-14760428D01*
X12737619Y-14760428D02*
X12728095Y-14779476D01*
X12728095Y-14779476D02*
X12718572Y-14789000D01*
X12718572Y-14789000D02*
X12699524Y-14798524D01*
X12699524Y-14798524D02*
X12680476Y-14798524D01*
X12680476Y-14798524D02*
X12661429Y-14789000D01*
X12661429Y-14789000D02*
X12651905Y-14779476D01*
X12651905Y-14779476D02*
X12642381Y-14760428D01*
X12642381Y-14760428D02*
X12632857Y-14722333D01*
X12632857Y-14722333D02*
X12632857Y-14674714D01*
X12632857Y-14674714D02*
X12642381Y-14636619D01*
X12642381Y-14636619D02*
X12651905Y-14617571D01*
X12651905Y-14617571D02*
X12661429Y-14608048D01*
X12661429Y-14608048D02*
X12680476Y-14598524D01*
X12832857Y-14779476D02*
X12842381Y-14789000D01*
X12842381Y-14789000D02*
X12832857Y-14798524D01*
X12832857Y-14798524D02*
X12823333Y-14789000D01*
X12823333Y-14789000D02*
X12832857Y-14779476D01*
X12832857Y-14779476D02*
X12832857Y-14798524D01*
X12966191Y-14598524D02*
X12985238Y-14598524D01*
X12985238Y-14598524D02*
X13004286Y-14608048D01*
X13004286Y-14608048D02*
X13013810Y-14617571D01*
X13013810Y-14617571D02*
X13023333Y-14636619D01*
X13023333Y-14636619D02*
X13032857Y-14674714D01*
X13032857Y-14674714D02*
X13032857Y-14722333D01*
X13032857Y-14722333D02*
X13023333Y-14760428D01*
X13023333Y-14760428D02*
X13013810Y-14779476D01*
X13013810Y-14779476D02*
X13004286Y-14789000D01*
X13004286Y-14789000D02*
X12985238Y-14798524D01*
X12985238Y-14798524D02*
X12966191Y-14798524D01*
X12966191Y-14798524D02*
X12947143Y-14789000D01*
X12947143Y-14789000D02*
X12937619Y-14779476D01*
X12937619Y-14779476D02*
X12928095Y-14760428D01*
X12928095Y-14760428D02*
X12918572Y-14722333D01*
X12918572Y-14722333D02*
X12918572Y-14674714D01*
X12918572Y-14674714D02*
X12928095Y-14636619D01*
X12928095Y-14636619D02*
X12937619Y-14617571D01*
X12937619Y-14617571D02*
X12947143Y-14608048D01*
X12947143Y-14608048D02*
X12966191Y-14598524D01*
X13204286Y-14665190D02*
X13204286Y-14798524D01*
X13156667Y-14589000D02*
X13109048Y-14731857D01*
X13109048Y-14731857D02*
X13232857Y-14731857D01*
X13290000Y-14598524D02*
X13423333Y-14598524D01*
X13423333Y-14598524D02*
X13337619Y-14798524D01*
X13490000Y-14617571D02*
X13499524Y-14608048D01*
X13499524Y-14608048D02*
X13518572Y-14598524D01*
X13518572Y-14598524D02*
X13566191Y-14598524D01*
X13566191Y-14598524D02*
X13585238Y-14608048D01*
X13585238Y-14608048D02*
X13594762Y-14617571D01*
X13594762Y-14617571D02*
X13604286Y-14636619D01*
X13604286Y-14636619D02*
X13604286Y-14655667D01*
X13604286Y-14655667D02*
X13594762Y-14684238D01*
X13594762Y-14684238D02*
X13480476Y-14798524D01*
X13480476Y-14798524D02*
X13604286Y-14798524D01*
X13680476Y-14598524D02*
X13680476Y-14636619D01*
X13756667Y-14598524D02*
X13756667Y-14636619D01*
X14051905Y-14874714D02*
X14042381Y-14865190D01*
X14042381Y-14865190D02*
X14023334Y-14836619D01*
X14023334Y-14836619D02*
X14013810Y-14817571D01*
X14013810Y-14817571D02*
X14004286Y-14789000D01*
X14004286Y-14789000D02*
X13994762Y-14741381D01*
X13994762Y-14741381D02*
X13994762Y-14703286D01*
X13994762Y-14703286D02*
X14004286Y-14655667D01*
X14004286Y-14655667D02*
X14013810Y-14627095D01*
X14013810Y-14627095D02*
X14023334Y-14608048D01*
X14023334Y-14608048D02*
X14042381Y-14579476D01*
X14042381Y-14579476D02*
X14051905Y-14569952D01*
X14118572Y-14617571D02*
X14128095Y-14608048D01*
X14128095Y-14608048D02*
X14147143Y-14598524D01*
X14147143Y-14598524D02*
X14194762Y-14598524D01*
X14194762Y-14598524D02*
X14213810Y-14608048D01*
X14213810Y-14608048D02*
X14223334Y-14617571D01*
X14223334Y-14617571D02*
X14232857Y-14636619D01*
X14232857Y-14636619D02*
X14232857Y-14655667D01*
X14232857Y-14655667D02*
X14223334Y-14684238D01*
X14223334Y-14684238D02*
X14109048Y-14798524D01*
X14109048Y-14798524D02*
X14232857Y-14798524D01*
X14309048Y-14617571D02*
X14318572Y-14608048D01*
X14318572Y-14608048D02*
X14337619Y-14598524D01*
X14337619Y-14598524D02*
X14385238Y-14598524D01*
X14385238Y-14598524D02*
X14404286Y-14608048D01*
X14404286Y-14608048D02*
X14413810Y-14617571D01*
X14413810Y-14617571D02*
X14423334Y-14636619D01*
X14423334Y-14636619D02*
X14423334Y-14655667D01*
X14423334Y-14655667D02*
X14413810Y-14684238D01*
X14413810Y-14684238D02*
X14299524Y-14798524D01*
X14299524Y-14798524D02*
X14423334Y-14798524D01*
X14661429Y-14798524D02*
X14661429Y-14598524D01*
X14747143Y-14798524D02*
X14747143Y-14693762D01*
X14747143Y-14693762D02*
X14737619Y-14674714D01*
X14737619Y-14674714D02*
X14718572Y-14665190D01*
X14718572Y-14665190D02*
X14690000Y-14665190D01*
X14690000Y-14665190D02*
X14670953Y-14674714D01*
X14670953Y-14674714D02*
X14661429Y-14684238D01*
X14870953Y-14798524D02*
X14851905Y-14789000D01*
X14851905Y-14789000D02*
X14842381Y-14779476D01*
X14842381Y-14779476D02*
X14832857Y-14760428D01*
X14832857Y-14760428D02*
X14832857Y-14703286D01*
X14832857Y-14703286D02*
X14842381Y-14684238D01*
X14842381Y-14684238D02*
X14851905Y-14674714D01*
X14851905Y-14674714D02*
X14870953Y-14665190D01*
X14870953Y-14665190D02*
X14899524Y-14665190D01*
X14899524Y-14665190D02*
X14918572Y-14674714D01*
X14918572Y-14674714D02*
X14928096Y-14684238D01*
X14928096Y-14684238D02*
X14937619Y-14703286D01*
X14937619Y-14703286D02*
X14937619Y-14760428D01*
X14937619Y-14760428D02*
X14928096Y-14779476D01*
X14928096Y-14779476D02*
X14918572Y-14789000D01*
X14918572Y-14789000D02*
X14899524Y-14798524D01*
X14899524Y-14798524D02*
X14870953Y-14798524D01*
X15051905Y-14798524D02*
X15032857Y-14789000D01*
X15032857Y-14789000D02*
X15023334Y-14769952D01*
X15023334Y-14769952D02*
X15023334Y-14598524D01*
X15204286Y-14789000D02*
X15185238Y-14798524D01*
X15185238Y-14798524D02*
X15147143Y-14798524D01*
X15147143Y-14798524D02*
X15128096Y-14789000D01*
X15128096Y-14789000D02*
X15118572Y-14769952D01*
X15118572Y-14769952D02*
X15118572Y-14693762D01*
X15118572Y-14693762D02*
X15128096Y-14674714D01*
X15128096Y-14674714D02*
X15147143Y-14665190D01*
X15147143Y-14665190D02*
X15185238Y-14665190D01*
X15185238Y-14665190D02*
X15204286Y-14674714D01*
X15204286Y-14674714D02*
X15213810Y-14693762D01*
X15213810Y-14693762D02*
X15213810Y-14712809D01*
X15213810Y-14712809D02*
X15118572Y-14731857D01*
X15290000Y-14789000D02*
X15309048Y-14798524D01*
X15309048Y-14798524D02*
X15347143Y-14798524D01*
X15347143Y-14798524D02*
X15366191Y-14789000D01*
X15366191Y-14789000D02*
X15375715Y-14769952D01*
X15375715Y-14769952D02*
X15375715Y-14760428D01*
X15375715Y-14760428D02*
X15366191Y-14741381D01*
X15366191Y-14741381D02*
X15347143Y-14731857D01*
X15347143Y-14731857D02*
X15318572Y-14731857D01*
X15318572Y-14731857D02*
X15299524Y-14722333D01*
X15299524Y-14722333D02*
X15290000Y-14703286D01*
X15290000Y-14703286D02*
X15290000Y-14693762D01*
X15290000Y-14693762D02*
X15299524Y-14674714D01*
X15299524Y-14674714D02*
X15318572Y-14665190D01*
X15318572Y-14665190D02*
X15347143Y-14665190D01*
X15347143Y-14665190D02*
X15366191Y-14674714D01*
X15442381Y-14874714D02*
X15451905Y-14865190D01*
X15451905Y-14865190D02*
X15470953Y-14836619D01*
X15470953Y-14836619D02*
X15480477Y-14817571D01*
X15480477Y-14817571D02*
X15490000Y-14789000D01*
X15490000Y-14789000D02*
X15499524Y-14741381D01*
X15499524Y-14741381D02*
X15499524Y-14703286D01*
X15499524Y-14703286D02*
X15490000Y-14655667D01*
X15490000Y-14655667D02*
X15480477Y-14627095D01*
X15480477Y-14627095D02*
X15470953Y-14608048D01*
X15470953Y-14608048D02*
X15451905Y-14579476D01*
X15451905Y-14579476D02*
X15442381Y-14569952D01*
M02*
