M48
; DRILL file {KiCad 7.0.2-1.fc37} date Fri 28 Apr 2023 16:21:14 BST
; FORMAT={-:-/ absolute / metric / decimal}
; #@! TF.CreationDate,2023-04-28T16:21:14+01:00
; #@! TF.GenerationSoftware,Kicad,Pcbnew,7.0.2-1.fc37
; #@! TF.FileFunction,Plated,1,4,PTH
FMAT,2
METRIC
; #@! TA.AperFunction,Plated,PTH,ViaDrill
T1C0.300
; #@! TA.AperFunction,Plated,PTH,ComponentDrill
T2C0.300
; #@! TA.AperFunction,Plated,PTH,ComponentDrill
T3C0.600
; #@! TA.AperFunction,Plated,PTH,ComponentDrill
T4C1.000
; #@! TA.AperFunction,Plated,PTH,ComponentDrill
T5C1.200
%
G90
G05
T1
X106.5Y-106.0
X106.5Y-113.5
X107.0Y-77.0
X107.0Y-92.0
X107.0Y-95.2
X107.0Y-122.0
X107.0Y-128.5
X107.4Y-103.8
X107.5Y-117.2
X108.0Y-95.2
X109.5Y-103.8
X109.5Y-106.0
X109.8Y-120.6
X109.8Y-121.6
X110.0Y-95.2
X110.25Y-105.5
X110.6Y-103.8
X110.8Y-78.7
X110.8Y-79.6
X110.8Y-91.4
X110.8Y-92.3
X111.0Y-95.2
X111.2Y-122.6
X111.4Y-115.0
X112.0Y-76.992
X112.0Y-95.212
X112.0Y-128.499
X112.1Y-103.8
X112.9Y-108.9
X113.0Y-95.212
X113.0Y-104.0
X113.8Y-81.2
X113.8Y-82.0
X113.8Y-89.0
X113.8Y-89.8
X114.05Y-83.05
X114.05Y-87.95
X114.4Y-79.6
X114.4Y-91.4
X114.5Y-99.5
X115.0Y-116.0
X115.001Y-114.875
X115.5Y-99.5
X115.6Y-105.9
X115.7Y-116.75
X116.4Y-115.3
X116.6Y-102.1
X116.6Y-105.9
X116.7Y-82.2
X117.0Y-76.983
X117.0Y-128.494
X117.099Y-114.5
X117.3Y-85.05
X117.3Y-86.95
X117.5Y-88.5
X117.8Y-84.0
X117.8Y-86.0
X117.9Y-114.0
X118.0Y-96.5
X118.6Y-116.4
X118.7Y-83.8
X119.15Y-109.25
X119.15Y-115.679
X119.2Y-120.6
X119.2Y-121.6
X119.2Y-122.6
X120.1Y-83.8
X120.2Y-108.95
X120.2Y-110.0
X120.25Y-98.735
X120.4Y-111.4
X120.4Y-112.4
X120.75Y-119.5
X121.2Y-118.7
X121.4Y-98.7
X122.0Y-76.975
X122.0Y-104.0
X122.0Y-122.0
X122.0Y-128.493
X122.1Y-107.2
X122.3Y-112.2
X122.5Y-86.756
X122.95Y-111.5
X123.0Y-104.0
X123.05Y-107.2
X123.6Y-112.2
X125.0Y-122.6
X125.1Y-101.8
X125.2Y-83.8
X125.3Y-92.55
X125.3Y-93.5
X125.55Y-114.7
X125.75Y-102.55
X126.062Y-106.312
X126.45Y-103.3
X126.6Y-114.7
X126.95Y-105.55
X127.0Y-76.975
X127.0Y-128.488
X127.5Y-86.756
X127.7Y-104.7
X128.0Y-94.8
X128.0Y-95.904
X128.85Y-111.9
X129.8Y-111.9
X130.0Y-95.1
X130.3Y-83.8
X130.5Y-106.0
X130.5Y-107.5
X131.2Y-106.7
X131.4Y-98.9
X132.0Y-76.967
X132.0Y-111.949
X132.0Y-115.241
X132.0Y-128.487
X133.0Y-86.799
X133.0Y-97.8
X133.0Y-101.4
X133.0Y-108.373
X133.2Y-120.6
X133.2Y-121.6
X133.2Y-122.6
X133.3Y-89.5
X133.4Y-111.0
X133.598Y-103.999
X133.6Y-105.3
X133.7Y-102.0
X134.2Y-89.5
X134.5Y-104.532
X134.6Y-97.8
X134.6Y-101.4
X134.85Y-107.85
X135.0Y-89.5
X135.4Y-83.8
X135.8Y-89.5
X135.9Y-96.7
X136.2Y-97.8
X136.6Y-89.5
X136.7Y-95.5
X137.0Y-76.958
X137.0Y-128.483
X137.2Y-110.7
X137.2Y-116.7
X137.5Y-89.5
X137.5Y-94.8
X137.6Y-120.6
X137.6Y-121.597
X137.9Y-95.9
X138.0Y-86.842
X138.3Y-94.1
X138.3Y-111.4
X138.3Y-116.4
X138.4Y-89.5
X139.0Y-110.7
X139.0Y-115.6
X139.0Y-122.6
X139.1Y-93.4
X139.1Y-107.9
X139.2Y-103.8
X139.2Y-105.0
X139.3Y-89.5
X139.5Y-94.5
X139.9Y-92.7
X139.9Y-107.1
X140.0Y-111.4
X140.0Y-115.3
X140.1Y-89.5
X140.5Y-83.8
X140.6Y-105.0
X140.7Y-92.0
X140.9Y-89.5
X140.9Y-110.7
X140.9Y-114.5
X141.0Y-93.1
X141.4Y-106.0
X141.5Y-91.3
X141.7Y-89.5
X141.7Y-105.0
X142.0Y-76.958
X142.0Y-128.482
X142.3Y-90.6
X142.5Y-91.8
X142.6Y-89.5
X145.1Y-88.9
X145.1Y-115.1
X146.7Y-88.9
X146.7Y-115.1
X147.0Y-76.95
X147.0Y-82.0
X147.0Y-128.477
X147.2Y-120.6
X147.2Y-121.584
X147.2Y-122.6
X150.5Y-96.2
X150.6Y-97.123
X151.0Y-110.2
X151.0Y-111.25
X151.35Y-102.35
X151.45Y-96.6
X151.5Y-82.0
X151.677Y-118.0
X151.7Y-120.6
X151.7Y-121.576
X152.0Y-76.942
X152.0Y-86.888
X152.0Y-128.476
X152.1Y-92.7
X152.5Y-99.4
X153.2Y-122.6
X153.25Y-98.6
X156.0Y-97.0
X156.0Y-101.923
X156.0Y-105.0
X156.0Y-108.0
X156.5Y-106.0
X156.5Y-107.0
X157.0Y-76.942
X157.0Y-80.5
X157.0Y-86.888
X157.0Y-91.924
X157.0Y-128.471
X157.5Y-100.8
X157.5Y-105.0
X158.0Y-111.0
X158.0Y-112.0
X158.0Y-113.0
X158.0Y-114.0
X158.0Y-115.0
X159.75Y-118.0
X161.0Y-107.462
X161.0Y-120.6
X161.0Y-121.6
X161.2Y-122.6
X161.5Y-118.0
X161.7Y-102.2
X161.75Y-113.0
X161.75Y-115.0
X161.8Y-91.3
X162.0Y-76.942
X162.0Y-82.0
X162.0Y-86.924
X162.0Y-111.979
X162.0Y-116.25
X162.0Y-128.47
X162.45Y-118.95
X162.5Y-84.3
X163.5Y-81.995
X163.5Y-84.3
X163.5Y-86.6
X163.5Y-104.5
X164.0Y-125.9
X164.0Y-128.6
X164.3Y-86.1
X165.0Y-125.9
X165.0Y-96.0
X165.0Y-128.6
X165.1Y-111.4
X165.5Y-107.483
X166.0Y-116.5
X166.0Y-125.35
X167.0Y-76.933
X167.0Y-86.949
X167.0Y-91.945
X167.0Y-101.972
X167.0Y-117.226
X167.0Y-128.839
X169.5Y-117.0
X169.6Y-109.2
X170.5Y-116.75
X170.6Y-109.2
X171.0Y-106.6
X171.3Y-124.3
X172.0Y-76.925
X172.0Y-86.959
X172.0Y-91.965
X172.0Y-101.997
X172.0Y-107.8
X172.0Y-128.891
X173.6Y-94.4
X173.61Y-100.4
X175.0Y-104.5
X176.0Y-87.6
X177.0Y-76.925
X177.0Y-91.986
X177.0Y-128.942
X177.5Y-115.6
X177.6Y-109.8
X177.8Y-96.7
X178.275Y-79.425
X178.3Y-108.8
X178.3Y-117.3
X179.0Y-98.5
X181.5Y-99.487
X181.75Y-106.5
X181.75Y-111.5
X181.8Y-100.4
X181.978Y-117.0
X182.0Y-76.917
X182.0Y-86.995
X182.0Y-92.0
X182.0Y-128.993
X182.3Y-83.2
X182.75Y-106.5
X182.75Y-111.5
X184.25Y-109.0
X185.5Y-105.5
X185.5Y-108.0
X186.756Y-129.0
X186.759Y-122.0
X186.776Y-117.0
X186.857Y-102.0
X186.893Y-92.0
X186.928Y-97.0
X186.943Y-87.0
X186.979Y-82.0
X187.0Y-76.9
T2
X132.0Y-93.7
X132.0Y-94.5
X132.0Y-95.3
X132.8Y-93.7
X132.8Y-94.5
X132.8Y-95.3
X133.6Y-93.7
X133.6Y-94.5
X133.6Y-95.3
X170.783Y-118.06
X170.783Y-118.95
X170.783Y-119.84
X171.783Y-118.06
X171.783Y-118.95
X171.783Y-119.84
T4
X107.5Y-108.0
X107.5Y-111.5
X118.0Y-91.0
X118.0Y-94.5
X120.14Y-78.96
X120.14Y-81.5
X122.68Y-78.96
X122.68Y-81.5
X125.22Y-78.96
X125.22Y-81.5
X127.76Y-78.96
X127.76Y-81.5
X130.3Y-78.96
X130.3Y-81.5
X132.84Y-78.96
X132.84Y-81.5
X135.38Y-78.96
X135.38Y-81.5
X137.92Y-78.96
X137.92Y-81.5
X140.46Y-78.96
X140.46Y-81.5
X143.0Y-78.96
X143.0Y-81.5
X154.8Y-81.3
X154.8Y-84.8
X161.0Y-89.5
X161.0Y-93.0
X161.0Y-97.0
X161.0Y-100.5
X161.0Y-104.0
X174.71Y-98.5
X174.725Y-83.2
X177.25Y-98.5
X177.265Y-83.2
T5
X107.5Y-125.0
X111.0Y-125.0
X114.5Y-125.0
X118.0Y-125.0
X121.5Y-125.0
X125.0Y-125.0
X128.5Y-125.0
X132.0Y-125.0
X135.5Y-125.0
X139.0Y-125.0
X142.5Y-125.0
X146.0Y-125.0
X149.5Y-125.0
X153.0Y-125.0
X156.5Y-125.0
X160.0Y-125.0
X184.0Y-81.45
X184.0Y-84.95
X184.0Y-96.75
X184.0Y-100.25
X184.0Y-118.95
X184.0Y-122.45
T3
X107.15Y-81.18G85X107.75Y-81.18
G05
X107.15Y-89.82G85X107.75Y-89.82
G05
X111.08Y-81.18G85X112.18Y-81.18
G05
X111.08Y-89.82G85X112.18Y-89.82
G05
T0
M30
