%TF.GenerationSoftware,KiCad,Pcbnew,6.0.9-1.fc35*%
%TF.CreationDate,2023-01-19T10:10:11+00:00*%
%TF.ProjectId,grblPANEL,6772626c-5041-44e4-954c-2e6b69636164,rev?*%
%TF.SameCoordinates,Original*%
%TF.FileFunction,Legend,Top*%
%TF.FilePolarity,Positive*%
%FSLAX46Y46*%
G04 Gerber Fmt 4.6, Leading zero omitted, Abs format (unit mm)*
G04 Created by KiCad (PCBNEW 6.0.9-1.fc35) date 2023-01-19 10:10:11*
%MOMM*%
%LPD*%
G01*
G04 APERTURE LIST*
G04 Aperture macros list*
%AMRoundRect*
0 Rectangle with rounded corners*
0 $1 Rounding radius*
0 $2 $3 $4 $5 $6 $7 $8 $9 X,Y pos of 4 corners*
0 Add a 4 corners polygon primitive as box body*
4,1,4,$2,$3,$4,$5,$6,$7,$8,$9,$2,$3,0*
0 Add four circle primitives for the rounded corners*
1,1,$1+$1,$2,$3*
1,1,$1+$1,$4,$5*
1,1,$1+$1,$6,$7*
1,1,$1+$1,$8,$9*
0 Add four rect primitives between the rounded corners*
20,1,$1+$1,$2,$3,$4,$5,0*
20,1,$1+$1,$4,$5,$6,$7,0*
20,1,$1+$1,$6,$7,$8,$9,0*
20,1,$1+$1,$8,$9,$2,$3,0*%
G04 Aperture macros list end*
%ADD10C,0.200000*%
%ADD11C,0.250000*%
%ADD12C,0.150000*%
%ADD13C,0.120000*%
%ADD14C,2.000000*%
%ADD15RoundRect,0.225000X-0.250000X0.225000X-0.250000X-0.225000X0.250000X-0.225000X0.250000X0.225000X0*%
%ADD16RoundRect,0.200000X-0.275000X0.200000X-0.275000X-0.200000X0.275000X-0.200000X0.275000X0.200000X0*%
%ADD17RoundRect,0.200000X0.275000X-0.200000X0.275000X0.200000X-0.275000X0.200000X-0.275000X-0.200000X0*%
%ADD18RoundRect,0.250000X-0.475000X0.250000X-0.475000X-0.250000X0.475000X-0.250000X0.475000X0.250000X0*%
%ADD19R,0.706399X0.254800*%
%ADD20R,1.600200X2.387600*%
%ADD21R,0.500000X0.800000*%
%ADD22R,0.400000X0.800000*%
%ADD23R,0.250000X0.600000*%
%ADD24RoundRect,0.075000X-0.662500X-0.075000X0.662500X-0.075000X0.662500X0.075000X-0.662500X0.075000X0*%
%ADD25RoundRect,0.075000X-0.075000X-0.662500X0.075000X-0.662500X0.075000X0.662500X-0.075000X0.662500X0*%
%ADD26RoundRect,0.218750X-0.256250X0.218750X-0.256250X-0.218750X0.256250X-0.218750X0.256250X0.218750X0*%
%ADD27RoundRect,0.225000X0.250000X-0.225000X0.250000X0.225000X-0.250000X0.225000X-0.250000X-0.225000X0*%
%ADD28RoundRect,0.200000X0.200000X0.275000X-0.200000X0.275000X-0.200000X-0.275000X0.200000X-0.275000X0*%
%ADD29RoundRect,0.200000X-0.200000X-0.275000X0.200000X-0.275000X0.200000X0.275000X-0.200000X0.275000X0*%
%ADD30R,0.450000X0.600000*%
%ADD31R,1.300000X0.300000*%
%ADD32R,2.200000X1.800000*%
%ADD33RoundRect,0.250000X0.475000X-0.250000X0.475000X0.250000X-0.475000X0.250000X-0.475000X-0.250000X0*%
%ADD34RoundRect,0.150000X-0.825000X-0.150000X0.825000X-0.150000X0.825000X0.150000X-0.825000X0.150000X0*%
%ADD35RoundRect,0.218750X0.256250X-0.218750X0.256250X0.218750X-0.256250X0.218750X-0.256250X-0.218750X0*%
%ADD36RoundRect,0.050000X-0.349999X0.050000X-0.349999X-0.050000X0.349999X-0.050000X0.349999X0.050000X0*%
%ADD37RoundRect,0.050000X0.050000X0.349999X-0.050000X0.349999X-0.050000X-0.349999X0.050000X-0.349999X0*%
%ADD38R,2.200000X2.200000*%
%ADD39RoundRect,0.250000X-0.312500X-0.625000X0.312500X-0.625000X0.312500X0.625000X-0.312500X0.625000X0*%
%ADD40RoundRect,0.150000X-0.587500X-0.150000X0.587500X-0.150000X0.587500X0.150000X-0.587500X0.150000X0*%
%ADD41R,1.200000X1.400000*%
%ADD42R,0.600000X0.450000*%
%ADD43RoundRect,0.150000X0.512500X0.150000X-0.512500X0.150000X-0.512500X-0.150000X0.512500X-0.150000X0*%
%ADD44RoundRect,0.225000X0.225000X0.250000X-0.225000X0.250000X-0.225000X-0.250000X0.225000X-0.250000X0*%
%ADD45R,1.800000X2.500000*%
%ADD46R,2.000000X1.500000*%
%ADD47R,2.000000X3.800000*%
%ADD48RoundRect,0.225000X-0.225000X-0.250000X0.225000X-0.250000X0.225000X0.250000X-0.225000X0.250000X0*%
%ADD49RoundRect,0.150000X-0.150000X0.587500X-0.150000X-0.587500X0.150000X-0.587500X0.150000X0.587500X0*%
%ADD50R,2.400000X2.400000*%
%ADD51C,2.400000*%
%ADD52R,1.700000X1.700000*%
%ADD53O,1.700000X1.700000*%
%ADD54C,0.650000*%
%ADD55O,2.100000X1.000000*%
%ADD56O,1.600000X1.000000*%
%ADD57RoundRect,0.250000X0.600000X-0.600000X0.600000X0.600000X-0.600000X0.600000X-0.600000X-0.600000X0*%
%ADD58C,1.700000*%
G04 APERTURE END LIST*
D10*
X116800000Y-106600000D02*
G75*
G03*
X116800000Y-106600000I-200000J0D01*
G01*
X135700000Y-95700000D02*
G75*
G03*
X135700000Y-95700000I-200000J0D01*
G01*
X165500000Y-80400000D02*
G75*
G03*
X165500000Y-80400000I-200000J0D01*
G01*
X117600000Y-88000000D02*
G75*
G03*
X117600000Y-88000000I-200000J0D01*
G01*
X165500000Y-95650000D02*
G75*
G03*
X165500000Y-95650000I-200000J0D01*
G01*
D11*
X187978571Y-108733333D02*
X186478571Y-108733333D01*
X186478571Y-108238095D01*
X186550000Y-108114285D01*
X186621428Y-108052380D01*
X186764285Y-107990476D01*
X186978571Y-107990476D01*
X187121428Y-108052380D01*
X187192857Y-108114285D01*
X187264285Y-108238095D01*
X187264285Y-108733333D01*
X186478571Y-107557142D02*
X187978571Y-107247619D01*
X186907142Y-107000000D01*
X187978571Y-106752380D01*
X186478571Y-106442857D01*
X187978571Y-105204761D02*
X187264285Y-105638095D01*
X187978571Y-105947619D02*
X186478571Y-105947619D01*
X186478571Y-105452380D01*
X186550000Y-105328571D01*
X186621428Y-105266666D01*
X186764285Y-105204761D01*
X186978571Y-105204761D01*
X187121428Y-105266666D01*
X187192857Y-105328571D01*
X187264285Y-105452380D01*
X187264285Y-105947619D01*
D12*
X181978571Y-77802380D02*
X181978571Y-78516666D01*
X181950000Y-78659523D01*
X181892857Y-78754761D01*
X181807142Y-78802380D01*
X181750000Y-78802380D01*
X182550000Y-78802380D02*
X182264285Y-78802380D01*
X182264285Y-77802380D01*
X183092857Y-78707142D02*
X183064285Y-78754761D01*
X182978571Y-78802380D01*
X182921428Y-78802380D01*
X182835714Y-78754761D01*
X182778571Y-78659523D01*
X182750000Y-78564285D01*
X182721428Y-78373809D01*
X182721428Y-78230952D01*
X182750000Y-78040476D01*
X182778571Y-77945238D01*
X182835714Y-77850000D01*
X182921428Y-77802380D01*
X182978571Y-77802380D01*
X183064285Y-77850000D01*
X183092857Y-77897619D01*
X183521428Y-77802380D02*
X183521428Y-78516666D01*
X183492857Y-78659523D01*
X183435714Y-78754761D01*
X183350000Y-78802380D01*
X183292857Y-78802380D01*
X184092857Y-78802380D02*
X183807142Y-78802380D01*
X183807142Y-77802380D01*
X184635714Y-78707142D02*
X184607142Y-78754761D01*
X184521428Y-78802380D01*
X184464285Y-78802380D01*
X184378571Y-78754761D01*
X184321428Y-78659523D01*
X184292857Y-78564285D01*
X184264285Y-78373809D01*
X184264285Y-78230952D01*
X184292857Y-78040476D01*
X184321428Y-77945238D01*
X184378571Y-77850000D01*
X184464285Y-77802380D01*
X184521428Y-77802380D01*
X184607142Y-77850000D01*
X184635714Y-77897619D01*
X185064285Y-77802380D02*
X185064285Y-78516666D01*
X185035714Y-78659523D01*
X184978571Y-78754761D01*
X184892857Y-78802380D01*
X184835714Y-78802380D01*
X185635714Y-78802380D02*
X185350000Y-78802380D01*
X185350000Y-77802380D01*
X186178571Y-78707142D02*
X186150000Y-78754761D01*
X186064285Y-78802380D01*
X186007142Y-78802380D01*
X185921428Y-78754761D01*
X185864285Y-78659523D01*
X185835714Y-78564285D01*
X185807142Y-78373809D01*
X185807142Y-78230952D01*
X185835714Y-78040476D01*
X185864285Y-77945238D01*
X185921428Y-77850000D01*
X186007142Y-77802380D01*
X186064285Y-77802380D01*
X186150000Y-77850000D01*
X186178571Y-77897619D01*
X186607142Y-77802380D02*
X186607142Y-78516666D01*
X186578571Y-78659523D01*
X186521428Y-78754761D01*
X186435714Y-78802380D01*
X186378571Y-78802380D01*
X187178571Y-78802380D02*
X186892857Y-78802380D01*
X186892857Y-77802380D01*
X187721428Y-78707142D02*
X187692857Y-78754761D01*
X187607142Y-78802380D01*
X187550000Y-78802380D01*
X187464285Y-78754761D01*
X187407142Y-78659523D01*
X187378571Y-78564285D01*
X187350000Y-78373809D01*
X187350000Y-78230952D01*
X187378571Y-78040476D01*
X187407142Y-77945238D01*
X187464285Y-77850000D01*
X187550000Y-77802380D01*
X187607142Y-77802380D01*
X187692857Y-77850000D01*
X187721428Y-77897619D01*
D11*
X143271428Y-98590476D02*
X144771428Y-98590476D01*
X144771428Y-98900000D01*
X144700000Y-99085714D01*
X144557142Y-99209523D01*
X144414285Y-99271428D01*
X144128571Y-99333333D01*
X143914285Y-99333333D01*
X143628571Y-99271428D01*
X143485714Y-99209523D01*
X143342857Y-99085714D01*
X143271428Y-98900000D01*
X143271428Y-98590476D01*
X143271428Y-99890476D02*
X144771428Y-99890476D01*
X143342857Y-100447619D02*
X143271428Y-100633333D01*
X143271428Y-100942857D01*
X143342857Y-101066666D01*
X143414285Y-101128571D01*
X143557142Y-101190476D01*
X143700000Y-101190476D01*
X143842857Y-101128571D01*
X143914285Y-101066666D01*
X143985714Y-100942857D01*
X144057142Y-100695238D01*
X144128571Y-100571428D01*
X144200000Y-100509523D01*
X144342857Y-100447619D01*
X144485714Y-100447619D01*
X144628571Y-100509523D01*
X144700000Y-100571428D01*
X144771428Y-100695238D01*
X144771428Y-101004761D01*
X144700000Y-101190476D01*
X143271428Y-101747619D02*
X144771428Y-101747619D01*
X144771428Y-102242857D01*
X144700000Y-102366666D01*
X144628571Y-102428571D01*
X144485714Y-102490476D01*
X144271428Y-102490476D01*
X144128571Y-102428571D01*
X144057142Y-102366666D01*
X143985714Y-102242857D01*
X143985714Y-101747619D01*
X143271428Y-103666666D02*
X143271428Y-103047619D01*
X144771428Y-103047619D01*
X143700000Y-104038095D02*
X143700000Y-104657142D01*
X143271428Y-103914285D02*
X144771428Y-104347619D01*
X143271428Y-104780952D01*
X143985714Y-105461904D02*
X143271428Y-105461904D01*
X144771428Y-105028571D02*
X143985714Y-105461904D01*
X144771428Y-105895238D01*
X186478571Y-113640476D02*
X187692857Y-113640476D01*
X187835714Y-113578571D01*
X187907142Y-113516666D01*
X187978571Y-113392857D01*
X187978571Y-113145238D01*
X187907142Y-113021428D01*
X187835714Y-112959523D01*
X187692857Y-112897619D01*
X186478571Y-112897619D01*
X187907142Y-112340476D02*
X187978571Y-112154761D01*
X187978571Y-111845238D01*
X187907142Y-111721428D01*
X187835714Y-111659523D01*
X187692857Y-111597619D01*
X187550000Y-111597619D01*
X187407142Y-111659523D01*
X187335714Y-111721428D01*
X187264285Y-111845238D01*
X187192857Y-112092857D01*
X187121428Y-112216666D01*
X187050000Y-112278571D01*
X186907142Y-112340476D01*
X186764285Y-112340476D01*
X186621428Y-112278571D01*
X186550000Y-112216666D01*
X186478571Y-112092857D01*
X186478571Y-111783333D01*
X186550000Y-111597619D01*
X187978571Y-110297619D02*
X187264285Y-110730952D01*
X187978571Y-111040476D02*
X186478571Y-111040476D01*
X186478571Y-110545238D01*
X186550000Y-110421428D01*
X186621428Y-110359523D01*
X186764285Y-110297619D01*
X186978571Y-110297619D01*
X187121428Y-110359523D01*
X187192857Y-110421428D01*
X187264285Y-110545238D01*
X187264285Y-111040476D01*
D13*
X164400000Y-103800000D02*
G75*
G03*
X164400000Y-103800000I-1200000J0D01*
G01*
X114990000Y-109259420D02*
X114990000Y-109540580D01*
X116010000Y-109259420D02*
X116010000Y-109540580D01*
X134077500Y-99337742D02*
X134077500Y-99812258D01*
X135122500Y-99337742D02*
X135122500Y-99812258D01*
X177777500Y-107237258D02*
X177777500Y-106762742D01*
X178822500Y-107237258D02*
X178822500Y-106762742D01*
X169365000Y-122488748D02*
X169365000Y-123011252D01*
X170835000Y-122488748D02*
X170835000Y-123011252D01*
X169606900Y-120410141D02*
X169606900Y-120626400D01*
X172959700Y-117489859D02*
X172959700Y-117273600D01*
X172959700Y-117273600D02*
X169606900Y-117273600D01*
X169606900Y-120626400D02*
X172959700Y-120626400D01*
X169606900Y-117273600D02*
X169606900Y-117489859D01*
X172959700Y-120626400D02*
X172959700Y-120410141D01*
X173785099Y-119950000D02*
G75*
G03*
X173785099Y-119950000I-101600J0D01*
G01*
X134480000Y-88300000D02*
X134480000Y-87300000D01*
X131120000Y-88300000D02*
X131120000Y-87300000D01*
X136220000Y-88300000D02*
X136220000Y-87300000D01*
X139580000Y-88300000D02*
X139580000Y-87300000D01*
X116077500Y-103762742D02*
X116077500Y-104237258D01*
X117122500Y-103762742D02*
X117122500Y-104237258D01*
X156000000Y-81300000D02*
G75*
G03*
X156000000Y-81300000I-1200000J0D01*
G01*
X157200000Y-112400000D02*
G75*
G03*
X157200000Y-112400000I-1200000J0D01*
G01*
X131375000Y-86000000D02*
X131375000Y-84000000D01*
X134225000Y-84400000D02*
X134225000Y-86000000D01*
X134225000Y-86000000D02*
X131375000Y-86000000D01*
X131375000Y-84000000D02*
X133825000Y-84000000D01*
X134225000Y-84375000D02*
X133825000Y-84000000D01*
X175522500Y-85962742D02*
X175522500Y-86437258D01*
X174477500Y-85962742D02*
X174477500Y-86437258D01*
X135677500Y-99337742D02*
X135677500Y-99812258D01*
X136722500Y-99337742D02*
X136722500Y-99812258D01*
X167600000Y-103800000D02*
G75*
G03*
X167600000Y-103800000I-1200000J0D01*
G01*
X125060000Y-113610000D02*
X125510000Y-113610000D01*
X118740000Y-106390000D02*
X118290000Y-106390000D01*
X125060000Y-106390000D02*
X125510000Y-106390000D01*
X125510000Y-113610000D02*
X125510000Y-113160000D01*
X118290000Y-106390000D02*
X118290000Y-106840000D01*
X118740000Y-113610000D02*
X118290000Y-113610000D01*
X118290000Y-113610000D02*
X118290000Y-113160000D01*
X125510000Y-106390000D02*
X125510000Y-106840000D01*
X118290000Y-106840000D02*
X117000000Y-106840000D01*
X185735000Y-105515000D02*
X184265000Y-105515000D01*
X185735000Y-107800000D02*
X185735000Y-105515000D01*
X184265000Y-105515000D02*
X184265000Y-107800000D01*
X165010000Y-83340580D02*
X165010000Y-83059420D01*
X163990000Y-83340580D02*
X163990000Y-83059420D01*
X124477500Y-95537258D02*
X124477500Y-95062742D01*
X125522500Y-95537258D02*
X125522500Y-95062742D01*
X167337258Y-122272500D02*
X166862742Y-122272500D01*
X167337258Y-121227500D02*
X166862742Y-121227500D01*
X154522500Y-107962742D02*
X154522500Y-108437258D01*
X153477500Y-107962742D02*
X153477500Y-108437258D01*
X176437258Y-120177500D02*
X175962742Y-120177500D01*
X176437258Y-121222500D02*
X175962742Y-121222500D01*
X132477500Y-99337742D02*
X132477500Y-99812258D01*
X133522500Y-99337742D02*
X133522500Y-99812258D01*
X112962742Y-120077500D02*
X113437258Y-120077500D01*
X112962742Y-121122500D02*
X113437258Y-121122500D01*
X174477500Y-79962742D02*
X174477500Y-80437258D01*
X175522500Y-79962742D02*
X175522500Y-80437258D01*
X110522500Y-101262742D02*
X110522500Y-101737258D01*
X109477500Y-101262742D02*
X109477500Y-101737258D01*
X107150000Y-99000000D02*
X108850000Y-99000000D01*
X108850000Y-99000000D02*
X108850000Y-96450000D01*
X107150000Y-99000000D02*
X107150000Y-96450000D01*
X129125000Y-84400000D02*
X129125000Y-86000000D01*
X129125000Y-86000000D02*
X126275000Y-86000000D01*
X126275000Y-84000000D02*
X128725000Y-84000000D01*
X126275000Y-86000000D02*
X126275000Y-84000000D01*
X129125000Y-84375000D02*
X128725000Y-84000000D01*
X117437258Y-121122500D02*
X116962742Y-121122500D01*
X117437258Y-120077500D02*
X116962742Y-120077500D01*
X167637258Y-94277500D02*
X167162742Y-94277500D01*
X167637258Y-95322500D02*
X167162742Y-95322500D01*
X147240000Y-90350000D02*
X145500000Y-90350000D01*
X151300000Y-112160000D02*
X151300000Y-113650000D01*
X151300000Y-91840000D02*
X152500000Y-91840000D01*
X151300000Y-91840000D02*
X151300000Y-90350000D01*
X145500000Y-90350000D02*
X145500000Y-113650000D01*
X151300000Y-90350000D02*
X149960000Y-90350000D01*
X151300000Y-113650000D02*
X149960000Y-113650000D01*
X145500000Y-113650000D02*
X147240000Y-113650000D01*
X162965000Y-113161252D02*
X162965000Y-112638748D01*
X164435000Y-113161252D02*
X164435000Y-112638748D01*
X108990000Y-109259420D02*
X108990000Y-109540580D01*
X110010000Y-109259420D02*
X110010000Y-109540580D01*
X118100000Y-91300000D02*
G75*
G03*
X118100000Y-91300000I-1200000J0D01*
G01*
X169500000Y-95940000D02*
X166050000Y-95940000D01*
X169500000Y-95940000D02*
X171450000Y-95940000D01*
X169500000Y-101060000D02*
X171450000Y-101060000D01*
X169500000Y-101060000D02*
X167550000Y-101060000D01*
X111690000Y-113334420D02*
X111690000Y-113615580D01*
X112710000Y-113334420D02*
X112710000Y-113615580D01*
X183322500Y-106762742D02*
X183322500Y-107237258D01*
X182277500Y-106762742D02*
X182277500Y-107237258D01*
X112710000Y-116815580D02*
X112710000Y-116534420D01*
X111690000Y-116815580D02*
X111690000Y-116534420D01*
X158000000Y-116300000D02*
G75*
G03*
X158000000Y-116300000I-1200000J0D01*
G01*
X133512742Y-113977500D02*
X133987258Y-113977500D01*
X133512742Y-115022500D02*
X133987258Y-115022500D01*
X185735000Y-113485000D02*
X185735000Y-111200000D01*
X184265000Y-111200000D02*
X184265000Y-113485000D01*
X184265000Y-113485000D02*
X185735000Y-113485000D01*
X128390000Y-95440580D02*
X128390000Y-95159420D01*
X129410000Y-95440580D02*
X129410000Y-95159420D01*
X162200000Y-90400000D02*
G75*
G03*
X162200000Y-90400000I-1200000J0D01*
G01*
X126962742Y-120077500D02*
X127437258Y-120077500D01*
X126962742Y-121122500D02*
X127437258Y-121122500D01*
X140962742Y-120077500D02*
X141437258Y-120077500D01*
X140962742Y-121122500D02*
X141437258Y-121122500D01*
X177222500Y-101737258D02*
X177222500Y-101262742D01*
X176177500Y-101737258D02*
X176177500Y-101262742D01*
X106477500Y-101262742D02*
X106477500Y-101737258D01*
X107522500Y-101262742D02*
X107522500Y-101737258D01*
X134677000Y-96377000D02*
X134677000Y-95932741D01*
X130923000Y-92623000D02*
X130923000Y-93067259D01*
X134677000Y-93067259D02*
X134677000Y-92623000D01*
X130923000Y-96377000D02*
X131367259Y-96377000D01*
X134232741Y-96377000D02*
X134677000Y-96377000D01*
X131367259Y-92623000D02*
X130923000Y-92623000D01*
X134677000Y-92623000D02*
X134232741Y-92623000D01*
X130923000Y-95932741D02*
X130923000Y-96377000D01*
X179272936Y-102910000D02*
X180727064Y-102910000D01*
X179272936Y-101090000D02*
X180727064Y-101090000D01*
X173235000Y-122488748D02*
X173235000Y-123011252D01*
X171765000Y-122488748D02*
X171765000Y-123011252D01*
X179272936Y-94090000D02*
X180727064Y-94090000D01*
X179272936Y-95910000D02*
X180727064Y-95910000D01*
X180000000Y-81640000D02*
X180650000Y-81640000D01*
X180000000Y-84760000D02*
X179350000Y-84760000D01*
X180000000Y-81640000D02*
X178325000Y-81640000D01*
X180000000Y-84760000D02*
X180650000Y-84760000D01*
X107750000Y-118100000D02*
X111050000Y-118100000D01*
X111050000Y-118100000D02*
X111050000Y-114100000D01*
X177222500Y-95262742D02*
X177222500Y-95737258D01*
X176177500Y-95262742D02*
X176177500Y-95737258D01*
X155477500Y-108437258D02*
X155477500Y-107962742D01*
X156522500Y-108437258D02*
X156522500Y-107962742D01*
X154962742Y-120077500D02*
X155437258Y-120077500D01*
X154962742Y-121122500D02*
X155437258Y-121122500D01*
X132700000Y-121750000D02*
X130150000Y-121750000D01*
X132700000Y-123450000D02*
X132700000Y-121750000D01*
X132700000Y-123450000D02*
X130150000Y-123450000D01*
X169737258Y-79972500D02*
X169262742Y-79972500D01*
X169737258Y-78927500D02*
X169262742Y-78927500D01*
X139650000Y-123450000D02*
X142200000Y-123450000D01*
X139650000Y-121750000D02*
X139650000Y-123450000D01*
X139650000Y-121750000D02*
X142200000Y-121750000D01*
X168422500Y-118712742D02*
X168422500Y-119187258D01*
X167377500Y-118712742D02*
X167377500Y-119187258D01*
X175522500Y-95737258D02*
X175522500Y-95262742D01*
X174477500Y-95737258D02*
X174477500Y-95262742D01*
X112362742Y-80122500D02*
X112837258Y-80122500D01*
X112362742Y-79077500D02*
X112837258Y-79077500D01*
X120920000Y-88300000D02*
X120920000Y-87300000D01*
X124280000Y-88300000D02*
X124280000Y-87300000D01*
X169500000Y-85760000D02*
X171450000Y-85760000D01*
X169500000Y-80640000D02*
X166050000Y-80640000D01*
X169500000Y-80640000D02*
X171450000Y-80640000D01*
X169500000Y-85760000D02*
X167550000Y-85760000D01*
X175962742Y-118477500D02*
X176437258Y-118477500D01*
X175962742Y-119522500D02*
X176437258Y-119522500D01*
X115200000Y-87560000D02*
X114400000Y-87560000D01*
X115200000Y-87560000D02*
X117000000Y-87560000D01*
X115200000Y-84440000D02*
X114400000Y-84440000D01*
X115200000Y-84440000D02*
X116000000Y-84440000D01*
X121175000Y-86000000D02*
X121175000Y-84000000D01*
X124025000Y-84375000D02*
X123625000Y-84000000D01*
X124025000Y-84400000D02*
X124025000Y-86000000D01*
X124025000Y-86000000D02*
X121175000Y-86000000D01*
X121175000Y-84000000D02*
X123625000Y-84000000D01*
X109150000Y-99000000D02*
X110850000Y-99000000D01*
X109150000Y-99000000D02*
X109150000Y-96450000D01*
X110850000Y-99000000D02*
X110850000Y-96450000D01*
X129410000Y-109859420D02*
X129410000Y-110140580D01*
X128390000Y-109859420D02*
X128390000Y-110140580D01*
X163840580Y-118447500D02*
X163559420Y-118447500D01*
X163840580Y-117427500D02*
X163559420Y-117427500D01*
X153490000Y-94340580D02*
X153490000Y-94059420D01*
X154510000Y-94340580D02*
X154510000Y-94059420D01*
X181650000Y-117300000D02*
X181650000Y-122700000D01*
X181650000Y-117300000D02*
X178350000Y-117300000D01*
X178350000Y-117300000D02*
X178350000Y-122700000D01*
X111150000Y-99000000D02*
X112850000Y-99000000D01*
X111150000Y-99000000D02*
X111150000Y-96450000D01*
X112850000Y-99000000D02*
X112850000Y-96450000D01*
X176935000Y-114238748D02*
X176935000Y-114761252D01*
X175465000Y-114238748D02*
X175465000Y-114761252D01*
X116040580Y-82890000D02*
X115759420Y-82890000D01*
X116040580Y-83910000D02*
X115759420Y-83910000D01*
X176490000Y-80340580D02*
X176490000Y-80059420D01*
X177510000Y-80340580D02*
X177510000Y-80059420D01*
X175962742Y-122922500D02*
X176437258Y-122922500D01*
X175962742Y-121877500D02*
X176437258Y-121877500D01*
X118700000Y-123450000D02*
X118700000Y-121750000D01*
X118700000Y-123450000D02*
X116150000Y-123450000D01*
X118700000Y-121750000D02*
X116150000Y-121750000D01*
X131162742Y-108477500D02*
X131637258Y-108477500D01*
X131162742Y-109522500D02*
X131637258Y-109522500D01*
X113390000Y-109259420D02*
X113390000Y-109540580D01*
X114410000Y-109259420D02*
X114410000Y-109540580D01*
X145437258Y-121122500D02*
X144962742Y-121122500D01*
X145437258Y-120077500D02*
X144962742Y-120077500D01*
X163150000Y-121250000D02*
X163150000Y-123800000D01*
X164850000Y-121250000D02*
X163150000Y-121250000D01*
X164850000Y-121250000D02*
X164850000Y-123800000D01*
X176490000Y-86340580D02*
X176490000Y-86059420D01*
X177510000Y-86340580D02*
X177510000Y-86059420D01*
X169697258Y-101677500D02*
X169222742Y-101677500D01*
X169697258Y-102722500D02*
X169222742Y-102722500D01*
X162200000Y-93900000D02*
G75*
G03*
X162200000Y-93900000I-1200000J0D01*
G01*
X126065000Y-95561252D02*
X126065000Y-95038748D01*
X127535000Y-95561252D02*
X127535000Y-95038748D01*
X176437258Y-123577500D02*
X175962742Y-123577500D01*
X176437258Y-124622500D02*
X175962742Y-124622500D01*
X141575000Y-84000000D02*
X144025000Y-84000000D01*
X144425000Y-86000000D02*
X141575000Y-86000000D01*
X144425000Y-84375000D02*
X144025000Y-84000000D01*
X141575000Y-86000000D02*
X141575000Y-84000000D01*
X144425000Y-84400000D02*
X144425000Y-86000000D01*
X131162742Y-110477500D02*
X131637258Y-110477500D01*
X131162742Y-111522500D02*
X131637258Y-111522500D01*
X165800000Y-109490000D02*
X171810000Y-109490000D01*
X171810000Y-116310000D02*
X171810000Y-115050000D01*
X171810000Y-109490000D02*
X171810000Y-110750000D01*
X168050000Y-116310000D02*
X171810000Y-116310000D01*
X126020000Y-88300000D02*
X126020000Y-87300000D01*
X129380000Y-88300000D02*
X129380000Y-87300000D01*
X161500000Y-116300000D02*
G75*
G03*
X161500000Y-116300000I-1200000J0D01*
G01*
X110865000Y-109138748D02*
X110865000Y-109661252D01*
X112335000Y-109138748D02*
X112335000Y-109661252D01*
X153700000Y-121750000D02*
X156250000Y-121750000D01*
X153700000Y-123450000D02*
X156250000Y-123450000D01*
X153700000Y-121750000D02*
X153700000Y-123450000D01*
X156000000Y-84800000D02*
G75*
G03*
X156000000Y-84800000I-1200000J0D01*
G01*
X180000000Y-100060000D02*
X180650000Y-100060000D01*
X180000000Y-100060000D02*
X179350000Y-100060000D01*
X180000000Y-96940000D02*
X180650000Y-96940000D01*
X180000000Y-96940000D02*
X178325000Y-96940000D01*
X112850000Y-100000000D02*
X111150000Y-100000000D01*
X112850000Y-100000000D02*
X112850000Y-102550000D01*
X111150000Y-100000000D02*
X111150000Y-102550000D01*
X125650000Y-121750000D02*
X125650000Y-123450000D01*
X125650000Y-121750000D02*
X128200000Y-121750000D01*
X125650000Y-123450000D02*
X128200000Y-123450000D01*
X175962742Y-117822500D02*
X176437258Y-117822500D01*
X175962742Y-116777500D02*
X176437258Y-116777500D01*
X167337258Y-124272500D02*
X166862742Y-124272500D01*
X167337258Y-123227500D02*
X166862742Y-123227500D01*
X146700000Y-123450000D02*
X146700000Y-121750000D01*
X146700000Y-123450000D02*
X144150000Y-123450000D01*
X146700000Y-121750000D02*
X144150000Y-121750000D01*
X134462742Y-109522500D02*
X134937258Y-109522500D01*
X134462742Y-108477500D02*
X134937258Y-108477500D01*
X165690000Y-119100279D02*
X165690000Y-118774721D01*
X166710000Y-119100279D02*
X166710000Y-118774721D01*
X163840580Y-119427500D02*
X163559420Y-119427500D01*
X163840580Y-120447500D02*
X163559420Y-120447500D01*
X156735000Y-94461252D02*
X156735000Y-93938748D01*
X155265000Y-94461252D02*
X155265000Y-93938748D01*
X144680000Y-88300000D02*
X144680000Y-87300000D01*
X141320000Y-88300000D02*
X141320000Y-87300000D01*
X182277500Y-111762742D02*
X182277500Y-112237258D01*
X183322500Y-111762742D02*
X183322500Y-112237258D01*
X107977500Y-101262742D02*
X107977500Y-101737258D01*
X109022500Y-101262742D02*
X109022500Y-101737258D01*
X121600000Y-91300000D02*
G75*
G03*
X121600000Y-91300000I-1200000J0D01*
G01*
X114422500Y-116437742D02*
X114422500Y-116912258D01*
X113377500Y-116437742D02*
X113377500Y-116912258D01*
X171459420Y-95310000D02*
X171740580Y-95310000D01*
X171459420Y-94290000D02*
X171740580Y-94290000D01*
X159437258Y-120077500D02*
X158962742Y-120077500D01*
X159437258Y-121122500D02*
X158962742Y-121122500D01*
X112362742Y-91922500D02*
X112837258Y-91922500D01*
X112362742Y-90877500D02*
X112837258Y-90877500D01*
X161200000Y-103800000D02*
G75*
G03*
X161200000Y-103800000I-1200000J0D01*
G01*
X153440000Y-104600000D02*
X153440000Y-105250000D01*
X153440000Y-104600000D02*
X153440000Y-103950000D01*
X156560000Y-104600000D02*
X156560000Y-102925000D01*
X156560000Y-104600000D02*
X156560000Y-105250000D01*
X131437258Y-121122500D02*
X130962742Y-121122500D01*
X131437258Y-120077500D02*
X130962742Y-120077500D01*
X160700000Y-123450000D02*
X158150000Y-123450000D01*
X160700000Y-121750000D02*
X158150000Y-121750000D01*
X160700000Y-123450000D02*
X160700000Y-121750000D01*
X111700000Y-121750000D02*
X111700000Y-123450000D01*
X111700000Y-121750000D02*
X114250000Y-121750000D01*
X111700000Y-123450000D02*
X114250000Y-123450000D01*
X155237258Y-100177500D02*
X154762742Y-100177500D01*
X155237258Y-101222500D02*
X154762742Y-101222500D01*
X139325000Y-84375000D02*
X138925000Y-84000000D01*
X139325000Y-86000000D02*
X136475000Y-86000000D01*
X139325000Y-84400000D02*
X139325000Y-86000000D01*
X136475000Y-86000000D02*
X136475000Y-84000000D01*
X136475000Y-84000000D02*
X138925000Y-84000000D01*
%LPC*%
D14*
X163200000Y-103800000D03*
D15*
X115500000Y-108625000D03*
X115500000Y-110175000D03*
D16*
X134600000Y-98750000D03*
X134600000Y-100400000D03*
D17*
X178300000Y-107825000D03*
X178300000Y-106175000D03*
D18*
X170100000Y-121800000D03*
X170100000Y-123700000D03*
D19*
X172779500Y-119950001D03*
X172779500Y-119449999D03*
X172779500Y-118950000D03*
X172779500Y-118450001D03*
X172779500Y-117949999D03*
X169787100Y-117949999D03*
X169787100Y-118450001D03*
X169787100Y-118950000D03*
X169787100Y-119449999D03*
X169787100Y-119950001D03*
D20*
X171283300Y-118950000D03*
D21*
X134000000Y-86900000D03*
D22*
X133200000Y-86900000D03*
X132400000Y-86900000D03*
D21*
X131600000Y-86900000D03*
X131600000Y-88700000D03*
D22*
X132400000Y-88700000D03*
X133200000Y-88700000D03*
D21*
X134000000Y-88700000D03*
X139100000Y-86900000D03*
D22*
X138300000Y-86900000D03*
X137500000Y-86900000D03*
D21*
X136700000Y-86900000D03*
X136700000Y-88700000D03*
D22*
X137500000Y-88700000D03*
X138300000Y-88700000D03*
D21*
X139100000Y-88700000D03*
D16*
X116600000Y-103175000D03*
X116600000Y-104825000D03*
D14*
X154800000Y-81300000D03*
X156000000Y-112400000D03*
D23*
X133800000Y-84575000D03*
X133300000Y-84575000D03*
X132800000Y-84575000D03*
X132300000Y-84575000D03*
X131800000Y-84575000D03*
X131800000Y-85425000D03*
X132300000Y-85425000D03*
X132800000Y-85425000D03*
X133300000Y-85425000D03*
X133800000Y-85425000D03*
D16*
X175000000Y-85375000D03*
X175000000Y-87025000D03*
X136200000Y-98750000D03*
X136200000Y-100400000D03*
D14*
X166400000Y-103800000D03*
D24*
X117737500Y-107250000D03*
X117737500Y-107750000D03*
X117737500Y-108250000D03*
X117737500Y-108750000D03*
X117737500Y-109250000D03*
X117737500Y-109750000D03*
X117737500Y-110250000D03*
X117737500Y-110750000D03*
X117737500Y-111250000D03*
X117737500Y-111750000D03*
X117737500Y-112250000D03*
X117737500Y-112750000D03*
D25*
X119150000Y-114162500D03*
X119650000Y-114162500D03*
X120150000Y-114162500D03*
X120650000Y-114162500D03*
X121150000Y-114162500D03*
X121650000Y-114162500D03*
X122150000Y-114162500D03*
X122650000Y-114162500D03*
X123150000Y-114162500D03*
X123650000Y-114162500D03*
X124150000Y-114162500D03*
X124650000Y-114162500D03*
D24*
X126062500Y-112750000D03*
X126062500Y-112250000D03*
X126062500Y-111750000D03*
X126062500Y-111250000D03*
X126062500Y-110750000D03*
X126062500Y-110250000D03*
X126062500Y-109750000D03*
X126062500Y-109250000D03*
X126062500Y-108750000D03*
X126062500Y-108250000D03*
X126062500Y-107750000D03*
X126062500Y-107250000D03*
D25*
X124650000Y-105837500D03*
X124150000Y-105837500D03*
X123650000Y-105837500D03*
X123150000Y-105837500D03*
X122650000Y-105837500D03*
X122150000Y-105837500D03*
X121650000Y-105837500D03*
X121150000Y-105837500D03*
X120650000Y-105837500D03*
X120150000Y-105837500D03*
X119650000Y-105837500D03*
X119150000Y-105837500D03*
D26*
X185000000Y-106212500D03*
X185000000Y-107787500D03*
D27*
X164500000Y-83975000D03*
X164500000Y-82425000D03*
D17*
X125000000Y-96125000D03*
X125000000Y-94475000D03*
D28*
X167925000Y-121750000D03*
X166275000Y-121750000D03*
D16*
X154000000Y-107375000D03*
X154000000Y-109025000D03*
D28*
X177025000Y-120700000D03*
X175375000Y-120700000D03*
D16*
X133000000Y-98750000D03*
X133000000Y-100400000D03*
D29*
X112375000Y-120600000D03*
X114025000Y-120600000D03*
D16*
X175000000Y-79375000D03*
X175000000Y-81025000D03*
X110000000Y-100675000D03*
X110000000Y-102325000D03*
D30*
X108000000Y-98550000D03*
X108000000Y-96450000D03*
D23*
X128700000Y-84575000D03*
X128200000Y-84575000D03*
X127700000Y-84575000D03*
X127200000Y-84575000D03*
X126700000Y-84575000D03*
X126700000Y-85425000D03*
X127200000Y-85425000D03*
X127700000Y-85425000D03*
X128200000Y-85425000D03*
X128700000Y-85425000D03*
D28*
X118025000Y-120600000D03*
X116375000Y-120600000D03*
X168225000Y-94800000D03*
X166575000Y-94800000D03*
D31*
X151850000Y-92250000D03*
X151850000Y-92750000D03*
X151850000Y-93250000D03*
X151850000Y-93750000D03*
X151850000Y-94250000D03*
X151850000Y-94750000D03*
X151850000Y-95250000D03*
X151850000Y-95750000D03*
X151850000Y-96250000D03*
X151850000Y-96750000D03*
X151850000Y-97250000D03*
X151850000Y-97750000D03*
X151850000Y-98250000D03*
X151850000Y-98750000D03*
X151850000Y-99250000D03*
X151850000Y-99750000D03*
X151850000Y-100250000D03*
X151850000Y-100750000D03*
X151850000Y-101250000D03*
X151850000Y-101750000D03*
X151850000Y-102250000D03*
X151850000Y-102750000D03*
X151850000Y-103250000D03*
X151850000Y-103750000D03*
X151850000Y-104250000D03*
X151850000Y-104750000D03*
X151850000Y-105250000D03*
X151850000Y-105750000D03*
X151850000Y-106250000D03*
X151850000Y-106750000D03*
X151850000Y-107250000D03*
X151850000Y-107750000D03*
X151850000Y-108250000D03*
X151850000Y-108750000D03*
X151850000Y-109250000D03*
X151850000Y-109750000D03*
X151850000Y-110250000D03*
X151850000Y-110750000D03*
X151850000Y-111250000D03*
X151850000Y-111750000D03*
D32*
X148600000Y-113650000D03*
X148600000Y-90350000D03*
D33*
X163700000Y-113850000D03*
X163700000Y-111950000D03*
D15*
X109500000Y-108625000D03*
X109500000Y-110175000D03*
D14*
X116900000Y-91300000D03*
D34*
X167025000Y-96595000D03*
X167025000Y-97865000D03*
X167025000Y-99135000D03*
X167025000Y-100405000D03*
X171975000Y-100405000D03*
X171975000Y-99135000D03*
X171975000Y-97865000D03*
X171975000Y-96595000D03*
D15*
X112200000Y-112700000D03*
X112200000Y-114250000D03*
D16*
X182800000Y-106175000D03*
X182800000Y-107825000D03*
D27*
X112200000Y-117450000D03*
X112200000Y-115900000D03*
D14*
X156800000Y-116300000D03*
D29*
X132925000Y-114500000D03*
X134575000Y-114500000D03*
D35*
X185000000Y-112787500D03*
X185000000Y-111212500D03*
D27*
X128900000Y-96075000D03*
X128900000Y-94525000D03*
D14*
X161000000Y-90400000D03*
D29*
X126375000Y-120600000D03*
X128025000Y-120600000D03*
X140375000Y-120600000D03*
X142025000Y-120600000D03*
D17*
X176700000Y-102325000D03*
X176700000Y-100675000D03*
D16*
X107000000Y-100675000D03*
X107000000Y-102325000D03*
D36*
X134449999Y-95500001D03*
X134449999Y-95099999D03*
X134449999Y-94700000D03*
X134449999Y-94300000D03*
X134449999Y-93900001D03*
X134449999Y-93499999D03*
D37*
X133800001Y-92850001D03*
X133399999Y-92850001D03*
X133000000Y-92850001D03*
X132600000Y-92850001D03*
X132200001Y-92850001D03*
X131799999Y-92850001D03*
D36*
X131150001Y-93499999D03*
X131150001Y-93900001D03*
X131150001Y-94300000D03*
X131150001Y-94700000D03*
X131150001Y-95099999D03*
X131150001Y-95500001D03*
D37*
X131799999Y-96149999D03*
X132200001Y-96149999D03*
X132600000Y-96149999D03*
X133000000Y-96149999D03*
X133399999Y-96149999D03*
X133800001Y-96149999D03*
D38*
X132800000Y-94500000D03*
D39*
X178537500Y-102000000D03*
X181462500Y-102000000D03*
D18*
X172500000Y-121800000D03*
X172500000Y-123700000D03*
D39*
X178537500Y-95000000D03*
X181462500Y-95000000D03*
D40*
X179062500Y-82250000D03*
X179062500Y-84150000D03*
X180937500Y-83200000D03*
D41*
X110250000Y-117200000D03*
X110250000Y-115000000D03*
X108550000Y-115000000D03*
X108550000Y-117200000D03*
D16*
X176700000Y-94675000D03*
X176700000Y-96325000D03*
D17*
X156000000Y-109025000D03*
X156000000Y-107375000D03*
D29*
X154375000Y-120600000D03*
X156025000Y-120600000D03*
D42*
X132250000Y-122600000D03*
X130150000Y-122600000D03*
D28*
X170325000Y-79450000D03*
X168675000Y-79450000D03*
D42*
X140100000Y-122600000D03*
X142200000Y-122600000D03*
D16*
X167900000Y-118125000D03*
X167900000Y-119775000D03*
D17*
X175000000Y-96325000D03*
X175000000Y-94675000D03*
D29*
X111775000Y-79600000D03*
X113425000Y-79600000D03*
D21*
X123800000Y-86900000D03*
D22*
X123000000Y-86900000D03*
X122200000Y-86900000D03*
D21*
X121400000Y-86900000D03*
X121400000Y-88700000D03*
D22*
X122200000Y-88700000D03*
X123000000Y-88700000D03*
D21*
X123800000Y-88700000D03*
D34*
X167025000Y-81295000D03*
X167025000Y-82565000D03*
X167025000Y-83835000D03*
X167025000Y-85105000D03*
X171975000Y-85105000D03*
X171975000Y-83835000D03*
X171975000Y-82565000D03*
X171975000Y-81295000D03*
D29*
X175375000Y-119000000D03*
X177025000Y-119000000D03*
D43*
X116337500Y-86950000D03*
X116337500Y-86000000D03*
X116337500Y-85050000D03*
X114062500Y-85050000D03*
X114062500Y-86000000D03*
X114062500Y-86950000D03*
D23*
X123600000Y-84575000D03*
X123100000Y-84575000D03*
X122600000Y-84575000D03*
X122100000Y-84575000D03*
X121600000Y-84575000D03*
X121600000Y-85425000D03*
X122100000Y-85425000D03*
X122600000Y-85425000D03*
X123100000Y-85425000D03*
X123600000Y-85425000D03*
D30*
X110000000Y-98550000D03*
X110000000Y-96450000D03*
D15*
X128900000Y-109225000D03*
X128900000Y-110775000D03*
D44*
X164475000Y-117937500D03*
X162925000Y-117937500D03*
D27*
X154000000Y-94975000D03*
X154000000Y-93425000D03*
D45*
X180000000Y-118700000D03*
X180000000Y-122700000D03*
D30*
X112000000Y-98550000D03*
X112000000Y-96450000D03*
D18*
X176200000Y-113550000D03*
X176200000Y-115450000D03*
D44*
X116675000Y-83400000D03*
X115125000Y-83400000D03*
D27*
X177000000Y-80975000D03*
X177000000Y-79425000D03*
D29*
X175375000Y-122400000D03*
X177025000Y-122400000D03*
D42*
X118250000Y-122600000D03*
X116150000Y-122600000D03*
D29*
X130575000Y-109000000D03*
X132225000Y-109000000D03*
D15*
X113900000Y-108625000D03*
X113900000Y-110175000D03*
D28*
X146025000Y-120600000D03*
X144375000Y-120600000D03*
D30*
X164000000Y-121700000D03*
X164000000Y-123800000D03*
D27*
X177000000Y-86975000D03*
X177000000Y-85425000D03*
D28*
X170285000Y-102200000D03*
X168635000Y-102200000D03*
D14*
X161000000Y-93900000D03*
D33*
X126800000Y-96250000D03*
X126800000Y-94350000D03*
D28*
X177025000Y-124100000D03*
X175375000Y-124100000D03*
D23*
X144000000Y-84575000D03*
X143500000Y-84575000D03*
X143000000Y-84575000D03*
X142500000Y-84575000D03*
X142000000Y-84575000D03*
X142000000Y-85425000D03*
X142500000Y-85425000D03*
X143000000Y-85425000D03*
X143500000Y-85425000D03*
X144000000Y-85425000D03*
D29*
X130575000Y-111000000D03*
X132225000Y-111000000D03*
D46*
X166750000Y-110600000D03*
X166750000Y-112900000D03*
D47*
X173050000Y-112900000D03*
D46*
X166750000Y-115200000D03*
D21*
X128900000Y-86900000D03*
D22*
X128100000Y-86900000D03*
X127300000Y-86900000D03*
D21*
X126500000Y-86900000D03*
X126500000Y-88700000D03*
D22*
X127300000Y-88700000D03*
X128100000Y-88700000D03*
D21*
X128900000Y-88700000D03*
D14*
X160300000Y-116300000D03*
D18*
X111600000Y-108450000D03*
X111600000Y-110350000D03*
D42*
X154150000Y-122600000D03*
X156250000Y-122600000D03*
D14*
X154800000Y-84800000D03*
D40*
X179062500Y-97550000D03*
X179062500Y-99450000D03*
X180937500Y-98500000D03*
D30*
X112000000Y-100450000D03*
X112000000Y-102550000D03*
D42*
X126100000Y-122600000D03*
X128200000Y-122600000D03*
D29*
X175375000Y-117300000D03*
X177025000Y-117300000D03*
D28*
X167925000Y-123750000D03*
X166275000Y-123750000D03*
D42*
X146250000Y-122600000D03*
X144150000Y-122600000D03*
D29*
X133875000Y-109000000D03*
X135525000Y-109000000D03*
D35*
X166200000Y-119725000D03*
X166200000Y-118150000D03*
D44*
X164475000Y-119937500D03*
X162925000Y-119937500D03*
D33*
X156000000Y-95150000D03*
X156000000Y-93250000D03*
D21*
X144200000Y-86900000D03*
D22*
X143400000Y-86900000D03*
X142600000Y-86900000D03*
D21*
X141800000Y-86900000D03*
X141800000Y-88700000D03*
D22*
X142600000Y-88700000D03*
X143400000Y-88700000D03*
D21*
X144200000Y-88700000D03*
D16*
X182800000Y-111175000D03*
X182800000Y-112825000D03*
X108500000Y-100675000D03*
X108500000Y-102325000D03*
D14*
X120400000Y-91300000D03*
D16*
X113900000Y-115850000D03*
X113900000Y-117500000D03*
D48*
X170825000Y-94800000D03*
X172375000Y-94800000D03*
D28*
X160025000Y-120600000D03*
X158375000Y-120600000D03*
D29*
X111775000Y-91400000D03*
X113425000Y-91400000D03*
D14*
X160000000Y-103800000D03*
D49*
X155950000Y-103662500D03*
X154050000Y-103662500D03*
X155000000Y-105537500D03*
D28*
X132025000Y-120600000D03*
X130375000Y-120600000D03*
D42*
X160250000Y-122600000D03*
X158150000Y-122600000D03*
X112150000Y-122600000D03*
X114250000Y-122600000D03*
D28*
X155825000Y-100700000D03*
X154175000Y-100700000D03*
D23*
X138900000Y-84575000D03*
X138400000Y-84575000D03*
X137900000Y-84575000D03*
X137400000Y-84575000D03*
X136900000Y-84575000D03*
X136900000Y-85425000D03*
X137400000Y-85425000D03*
X137900000Y-85425000D03*
X138400000Y-85425000D03*
X138900000Y-85425000D03*
D50*
X118000000Y-125000000D03*
D51*
X114500000Y-125000000D03*
X111000000Y-125000000D03*
X107500000Y-125000000D03*
D52*
X174710000Y-98500000D03*
D53*
X177250000Y-98500000D03*
D50*
X160000000Y-125000000D03*
D51*
X156500000Y-125000000D03*
X153000000Y-125000000D03*
X149500000Y-125000000D03*
D52*
X174725000Y-83200000D03*
D53*
X177265000Y-83200000D03*
D50*
X184000000Y-81450000D03*
D51*
X184000000Y-84950000D03*
D50*
X184000000Y-118950000D03*
D51*
X184000000Y-122450000D03*
D54*
X111100000Y-88390000D03*
X111100000Y-82610000D03*
D55*
X111630000Y-81180000D03*
D56*
X107450000Y-81180000D03*
D55*
X111630000Y-89820000D03*
D56*
X107450000Y-89820000D03*
D50*
X132000000Y-125000000D03*
D51*
X128500000Y-125000000D03*
X125000000Y-125000000D03*
X121500000Y-125000000D03*
D57*
X145500000Y-81500000D03*
D58*
X145500000Y-78960000D03*
X142960000Y-81500000D03*
X142960000Y-78960000D03*
X140420000Y-81500000D03*
X140420000Y-78960000D03*
X137880000Y-81500000D03*
X137880000Y-78960000D03*
X135340000Y-81500000D03*
X135340000Y-78960000D03*
X132800000Y-81500000D03*
X132800000Y-78960000D03*
X130260000Y-81500000D03*
X130260000Y-78960000D03*
X127720000Y-81500000D03*
X127720000Y-78960000D03*
X125180000Y-81500000D03*
X125180000Y-78960000D03*
X122640000Y-81500000D03*
X122640000Y-78960000D03*
D50*
X184000000Y-96750000D03*
D51*
X184000000Y-100250000D03*
D50*
X146000000Y-125000000D03*
D51*
X142500000Y-125000000D03*
X139000000Y-125000000D03*
X135500000Y-125000000D03*
M02*
