%TF.GenerationSoftware,KiCad,Pcbnew,6.0.9-1.fc35*%
%TF.CreationDate,2023-01-18T17:07:39+00:00*%
%TF.ProjectId,grblPANEL,6772626c-5041-44e4-954c-2e6b69636164,rev?*%
%TF.SameCoordinates,Original*%
%TF.FileFunction,Soldermask,Top*%
%TF.FilePolarity,Negative*%
%FSLAX46Y46*%
G04 Gerber Fmt 4.6, Leading zero omitted, Abs format (unit mm)*
G04 Created by KiCad (PCBNEW 6.0.9-1.fc35) date 2023-01-18 17:07:39*
%MOMM*%
%LPD*%
G01*
G04 APERTURE LIST*
G04 Aperture macros list*
%AMRoundRect*
0 Rectangle with rounded corners*
0 $1 Rounding radius*
0 $2 $3 $4 $5 $6 $7 $8 $9 X,Y pos of 4 corners*
0 Add a 4 corners polygon primitive as box body*
4,1,4,$2,$3,$4,$5,$6,$7,$8,$9,$2,$3,0*
0 Add four circle primitives for the rounded corners*
1,1,$1+$1,$2,$3*
1,1,$1+$1,$4,$5*
1,1,$1+$1,$6,$7*
1,1,$1+$1,$8,$9*
0 Add four rect primitives between the rounded corners*
20,1,$1+$1,$2,$3,$4,$5,0*
20,1,$1+$1,$4,$5,$6,$7,0*
20,1,$1+$1,$6,$7,$8,$9,0*
20,1,$1+$1,$8,$9,$2,$3,0*%
G04 Aperture macros list end*
%ADD10C,2.000000*%
%ADD11RoundRect,0.225000X-0.250000X0.225000X-0.250000X-0.225000X0.250000X-0.225000X0.250000X0.225000X0*%
%ADD12RoundRect,0.200000X-0.275000X0.200000X-0.275000X-0.200000X0.275000X-0.200000X0.275000X0.200000X0*%
%ADD13RoundRect,0.200000X0.275000X-0.200000X0.275000X0.200000X-0.275000X0.200000X-0.275000X-0.200000X0*%
%ADD14RoundRect,0.250000X-0.475000X0.250000X-0.475000X-0.250000X0.475000X-0.250000X0.475000X0.250000X0*%
%ADD15R,0.706399X0.254800*%
%ADD16R,1.600200X2.387600*%
%ADD17R,0.500000X0.800000*%
%ADD18R,0.400000X0.800000*%
%ADD19R,0.250000X0.600000*%
%ADD20RoundRect,0.075000X-0.662500X-0.075000X0.662500X-0.075000X0.662500X0.075000X-0.662500X0.075000X0*%
%ADD21RoundRect,0.075000X-0.075000X-0.662500X0.075000X-0.662500X0.075000X0.662500X-0.075000X0.662500X0*%
%ADD22RoundRect,0.218750X-0.256250X0.218750X-0.256250X-0.218750X0.256250X-0.218750X0.256250X0.218750X0*%
%ADD23RoundRect,0.225000X0.250000X-0.225000X0.250000X0.225000X-0.250000X0.225000X-0.250000X-0.225000X0*%
%ADD24RoundRect,0.200000X0.200000X0.275000X-0.200000X0.275000X-0.200000X-0.275000X0.200000X-0.275000X0*%
%ADD25RoundRect,0.200000X-0.200000X-0.275000X0.200000X-0.275000X0.200000X0.275000X-0.200000X0.275000X0*%
%ADD26R,0.450000X0.600000*%
%ADD27R,1.300000X0.300000*%
%ADD28R,2.200000X1.800000*%
%ADD29RoundRect,0.250000X0.475000X-0.250000X0.475000X0.250000X-0.475000X0.250000X-0.475000X-0.250000X0*%
%ADD30RoundRect,0.150000X-0.825000X-0.150000X0.825000X-0.150000X0.825000X0.150000X-0.825000X0.150000X0*%
%ADD31RoundRect,0.218750X0.256250X-0.218750X0.256250X0.218750X-0.256250X0.218750X-0.256250X-0.218750X0*%
%ADD32RoundRect,0.050000X-0.349999X0.050000X-0.349999X-0.050000X0.349999X-0.050000X0.349999X0.050000X0*%
%ADD33RoundRect,0.050000X0.050000X0.349999X-0.050000X0.349999X-0.050000X-0.349999X0.050000X-0.349999X0*%
%ADD34R,2.200000X2.200000*%
%ADD35RoundRect,0.250000X-0.312500X-0.625000X0.312500X-0.625000X0.312500X0.625000X-0.312500X0.625000X0*%
%ADD36RoundRect,0.150000X-0.587500X-0.150000X0.587500X-0.150000X0.587500X0.150000X-0.587500X0.150000X0*%
%ADD37R,1.200000X1.400000*%
%ADD38R,0.600000X0.450000*%
%ADD39RoundRect,0.150000X0.512500X0.150000X-0.512500X0.150000X-0.512500X-0.150000X0.512500X-0.150000X0*%
%ADD40RoundRect,0.225000X0.225000X0.250000X-0.225000X0.250000X-0.225000X-0.250000X0.225000X-0.250000X0*%
%ADD41R,1.800000X2.500000*%
%ADD42R,2.000000X1.500000*%
%ADD43R,2.000000X3.800000*%
%ADD44RoundRect,0.225000X-0.225000X-0.250000X0.225000X-0.250000X0.225000X0.250000X-0.225000X0.250000X0*%
%ADD45RoundRect,0.150000X-0.150000X0.587500X-0.150000X-0.587500X0.150000X-0.587500X0.150000X0.587500X0*%
%ADD46R,2.400000X2.400000*%
%ADD47C,2.400000*%
%ADD48R,1.700000X1.700000*%
%ADD49O,1.700000X1.700000*%
%ADD50C,0.650000*%
%ADD51O,2.100000X1.000000*%
%ADD52O,1.600000X1.000000*%
%ADD53RoundRect,0.250000X0.600000X-0.600000X0.600000X0.600000X-0.600000X0.600000X-0.600000X-0.600000X0*%
%ADD54C,1.700000*%
G04 APERTURE END LIST*
D10*
X163200000Y-103800000D03*
D11*
X115500000Y-108625000D03*
X115500000Y-110175000D03*
D12*
X134600000Y-98750000D03*
X134600000Y-100400000D03*
D13*
X178300000Y-107825000D03*
X178300000Y-106175000D03*
D14*
X170100000Y-121800000D03*
X170100000Y-123700000D03*
D15*
X172779500Y-119950001D03*
X172779500Y-119449999D03*
X172779500Y-118950000D03*
X172779500Y-118450001D03*
X172779500Y-117949999D03*
X169787100Y-117949999D03*
X169787100Y-118450001D03*
X169787100Y-118950000D03*
X169787100Y-119449999D03*
X169787100Y-119950001D03*
D16*
X171283300Y-118950000D03*
D17*
X134000000Y-86900000D03*
D18*
X133200000Y-86900000D03*
X132400000Y-86900000D03*
D17*
X131600000Y-86900000D03*
X131600000Y-88700000D03*
D18*
X132400000Y-88700000D03*
X133200000Y-88700000D03*
D17*
X134000000Y-88700000D03*
X139100000Y-86900000D03*
D18*
X138300000Y-86900000D03*
X137500000Y-86900000D03*
D17*
X136700000Y-86900000D03*
X136700000Y-88700000D03*
D18*
X137500000Y-88700000D03*
X138300000Y-88700000D03*
D17*
X139100000Y-88700000D03*
D12*
X116600000Y-103175000D03*
X116600000Y-104825000D03*
D10*
X154800000Y-81300000D03*
X156000000Y-112400000D03*
D19*
X133800000Y-84575000D03*
X133300000Y-84575000D03*
X132800000Y-84575000D03*
X132300000Y-84575000D03*
X131800000Y-84575000D03*
X131800000Y-85425000D03*
X132300000Y-85425000D03*
X132800000Y-85425000D03*
X133300000Y-85425000D03*
X133800000Y-85425000D03*
D12*
X175000000Y-85375000D03*
X175000000Y-87025000D03*
X136200000Y-98750000D03*
X136200000Y-100400000D03*
D10*
X166400000Y-103800000D03*
D20*
X117737500Y-107250000D03*
X117737500Y-107750000D03*
X117737500Y-108250000D03*
X117737500Y-108750000D03*
X117737500Y-109250000D03*
X117737500Y-109750000D03*
X117737500Y-110250000D03*
X117737500Y-110750000D03*
X117737500Y-111250000D03*
X117737500Y-111750000D03*
X117737500Y-112250000D03*
X117737500Y-112750000D03*
D21*
X119150000Y-114162500D03*
X119650000Y-114162500D03*
X120150000Y-114162500D03*
X120650000Y-114162500D03*
X121150000Y-114162500D03*
X121650000Y-114162500D03*
X122150000Y-114162500D03*
X122650000Y-114162500D03*
X123150000Y-114162500D03*
X123650000Y-114162500D03*
X124150000Y-114162500D03*
X124650000Y-114162500D03*
D20*
X126062500Y-112750000D03*
X126062500Y-112250000D03*
X126062500Y-111750000D03*
X126062500Y-111250000D03*
X126062500Y-110750000D03*
X126062500Y-110250000D03*
X126062500Y-109750000D03*
X126062500Y-109250000D03*
X126062500Y-108750000D03*
X126062500Y-108250000D03*
X126062500Y-107750000D03*
X126062500Y-107250000D03*
D21*
X124650000Y-105837500D03*
X124150000Y-105837500D03*
X123650000Y-105837500D03*
X123150000Y-105837500D03*
X122650000Y-105837500D03*
X122150000Y-105837500D03*
X121650000Y-105837500D03*
X121150000Y-105837500D03*
X120650000Y-105837500D03*
X120150000Y-105837500D03*
X119650000Y-105837500D03*
X119150000Y-105837500D03*
D22*
X185000000Y-106212500D03*
X185000000Y-107787500D03*
D23*
X164500000Y-83975000D03*
X164500000Y-82425000D03*
D13*
X125000000Y-96125000D03*
X125000000Y-94475000D03*
D24*
X167925000Y-121750000D03*
X166275000Y-121750000D03*
D12*
X154000000Y-107375000D03*
X154000000Y-109025000D03*
D24*
X177025000Y-120700000D03*
X175375000Y-120700000D03*
D12*
X133000000Y-98750000D03*
X133000000Y-100400000D03*
D25*
X112375000Y-120600000D03*
X114025000Y-120600000D03*
D12*
X175000000Y-79375000D03*
X175000000Y-81025000D03*
X110000000Y-100675000D03*
X110000000Y-102325000D03*
D26*
X108000000Y-98550000D03*
X108000000Y-96450000D03*
D19*
X128700000Y-84575000D03*
X128200000Y-84575000D03*
X127700000Y-84575000D03*
X127200000Y-84575000D03*
X126700000Y-84575000D03*
X126700000Y-85425000D03*
X127200000Y-85425000D03*
X127700000Y-85425000D03*
X128200000Y-85425000D03*
X128700000Y-85425000D03*
D24*
X118025000Y-120600000D03*
X116375000Y-120600000D03*
X168225000Y-94800000D03*
X166575000Y-94800000D03*
D27*
X151850000Y-92250000D03*
X151850000Y-92750000D03*
X151850000Y-93250000D03*
X151850000Y-93750000D03*
X151850000Y-94250000D03*
X151850000Y-94750000D03*
X151850000Y-95250000D03*
X151850000Y-95750000D03*
X151850000Y-96250000D03*
X151850000Y-96750000D03*
X151850000Y-97250000D03*
X151850000Y-97750000D03*
X151850000Y-98250000D03*
X151850000Y-98750000D03*
X151850000Y-99250000D03*
X151850000Y-99750000D03*
X151850000Y-100250000D03*
X151850000Y-100750000D03*
X151850000Y-101250000D03*
X151850000Y-101750000D03*
X151850000Y-102250000D03*
X151850000Y-102750000D03*
X151850000Y-103250000D03*
X151850000Y-103750000D03*
X151850000Y-104250000D03*
X151850000Y-104750000D03*
X151850000Y-105250000D03*
X151850000Y-105750000D03*
X151850000Y-106250000D03*
X151850000Y-106750000D03*
X151850000Y-107250000D03*
X151850000Y-107750000D03*
X151850000Y-108250000D03*
X151850000Y-108750000D03*
X151850000Y-109250000D03*
X151850000Y-109750000D03*
X151850000Y-110250000D03*
X151850000Y-110750000D03*
X151850000Y-111250000D03*
X151850000Y-111750000D03*
D28*
X148600000Y-113650000D03*
X148600000Y-90350000D03*
D29*
X163700000Y-113850000D03*
X163700000Y-111950000D03*
D11*
X109500000Y-108625000D03*
X109500000Y-110175000D03*
D10*
X116900000Y-91300000D03*
D30*
X167025000Y-96595000D03*
X167025000Y-97865000D03*
X167025000Y-99135000D03*
X167025000Y-100405000D03*
X171975000Y-100405000D03*
X171975000Y-99135000D03*
X171975000Y-97865000D03*
X171975000Y-96595000D03*
D11*
X112200000Y-112700000D03*
X112200000Y-114250000D03*
D12*
X182800000Y-106175000D03*
X182800000Y-107825000D03*
D23*
X112200000Y-117450000D03*
X112200000Y-115900000D03*
D10*
X156800000Y-116300000D03*
D25*
X132925000Y-114500000D03*
X134575000Y-114500000D03*
D31*
X185000000Y-112787500D03*
X185000000Y-111212500D03*
D23*
X128900000Y-96075000D03*
X128900000Y-94525000D03*
D10*
X161000000Y-90400000D03*
D25*
X126375000Y-120600000D03*
X128025000Y-120600000D03*
X140375000Y-120600000D03*
X142025000Y-120600000D03*
D13*
X176700000Y-102325000D03*
X176700000Y-100675000D03*
D12*
X107000000Y-100675000D03*
X107000000Y-102325000D03*
D32*
X134449999Y-95500001D03*
X134449999Y-95099999D03*
X134449999Y-94700000D03*
X134449999Y-94300000D03*
X134449999Y-93900001D03*
X134449999Y-93499999D03*
D33*
X133800001Y-92850001D03*
X133399999Y-92850001D03*
X133000000Y-92850001D03*
X132600000Y-92850001D03*
X132200001Y-92850001D03*
X131799999Y-92850001D03*
D32*
X131150001Y-93499999D03*
X131150001Y-93900001D03*
X131150001Y-94300000D03*
X131150001Y-94700000D03*
X131150001Y-95099999D03*
X131150001Y-95500001D03*
D33*
X131799999Y-96149999D03*
X132200001Y-96149999D03*
X132600000Y-96149999D03*
X133000000Y-96149999D03*
X133399999Y-96149999D03*
X133800001Y-96149999D03*
D34*
X132800000Y-94500000D03*
D35*
X178537500Y-102000000D03*
X181462500Y-102000000D03*
D14*
X172500000Y-121800000D03*
X172500000Y-123700000D03*
D35*
X178537500Y-95000000D03*
X181462500Y-95000000D03*
D36*
X179062500Y-82250000D03*
X179062500Y-84150000D03*
X180937500Y-83200000D03*
D37*
X110250000Y-117200000D03*
X110250000Y-115000000D03*
X108550000Y-115000000D03*
X108550000Y-117200000D03*
D12*
X176700000Y-94675000D03*
X176700000Y-96325000D03*
D13*
X156000000Y-109025000D03*
X156000000Y-107375000D03*
D25*
X154375000Y-120600000D03*
X156025000Y-120600000D03*
D38*
X132250000Y-122600000D03*
X130150000Y-122600000D03*
D24*
X170325000Y-79450000D03*
X168675000Y-79450000D03*
D38*
X140100000Y-122600000D03*
X142200000Y-122600000D03*
D12*
X167900000Y-118125000D03*
X167900000Y-119775000D03*
D13*
X175000000Y-96325000D03*
X175000000Y-94675000D03*
D25*
X111775000Y-79600000D03*
X113425000Y-79600000D03*
D17*
X123800000Y-86900000D03*
D18*
X123000000Y-86900000D03*
X122200000Y-86900000D03*
D17*
X121400000Y-86900000D03*
X121400000Y-88700000D03*
D18*
X122200000Y-88700000D03*
X123000000Y-88700000D03*
D17*
X123800000Y-88700000D03*
D30*
X167025000Y-81295000D03*
X167025000Y-82565000D03*
X167025000Y-83835000D03*
X167025000Y-85105000D03*
X171975000Y-85105000D03*
X171975000Y-83835000D03*
X171975000Y-82565000D03*
X171975000Y-81295000D03*
D25*
X175375000Y-119000000D03*
X177025000Y-119000000D03*
D39*
X116337500Y-86950000D03*
X116337500Y-86000000D03*
X116337500Y-85050000D03*
X114062500Y-85050000D03*
X114062500Y-86000000D03*
X114062500Y-86950000D03*
D19*
X123600000Y-84575000D03*
X123100000Y-84575000D03*
X122600000Y-84575000D03*
X122100000Y-84575000D03*
X121600000Y-84575000D03*
X121600000Y-85425000D03*
X122100000Y-85425000D03*
X122600000Y-85425000D03*
X123100000Y-85425000D03*
X123600000Y-85425000D03*
D26*
X110000000Y-98550000D03*
X110000000Y-96450000D03*
D11*
X128900000Y-109225000D03*
X128900000Y-110775000D03*
D40*
X164475000Y-117937500D03*
X162925000Y-117937500D03*
D23*
X154000000Y-94975000D03*
X154000000Y-93425000D03*
D41*
X180000000Y-118700000D03*
X180000000Y-122700000D03*
D26*
X112000000Y-98550000D03*
X112000000Y-96450000D03*
D14*
X176200000Y-113550000D03*
X176200000Y-115450000D03*
D40*
X116675000Y-83400000D03*
X115125000Y-83400000D03*
D23*
X177000000Y-80975000D03*
X177000000Y-79425000D03*
D25*
X175375000Y-122400000D03*
X177025000Y-122400000D03*
D38*
X118250000Y-122600000D03*
X116150000Y-122600000D03*
D25*
X130575000Y-109000000D03*
X132225000Y-109000000D03*
D11*
X113900000Y-108625000D03*
X113900000Y-110175000D03*
D24*
X146025000Y-120600000D03*
X144375000Y-120600000D03*
D26*
X164000000Y-121700000D03*
X164000000Y-123800000D03*
D23*
X177000000Y-86975000D03*
X177000000Y-85425000D03*
D24*
X170285000Y-102200000D03*
X168635000Y-102200000D03*
D10*
X161000000Y-93900000D03*
D29*
X126800000Y-96250000D03*
X126800000Y-94350000D03*
D24*
X177025000Y-124100000D03*
X175375000Y-124100000D03*
D19*
X144000000Y-84575000D03*
X143500000Y-84575000D03*
X143000000Y-84575000D03*
X142500000Y-84575000D03*
X142000000Y-84575000D03*
X142000000Y-85425000D03*
X142500000Y-85425000D03*
X143000000Y-85425000D03*
X143500000Y-85425000D03*
X144000000Y-85425000D03*
D25*
X130575000Y-111000000D03*
X132225000Y-111000000D03*
D42*
X166750000Y-110600000D03*
X166750000Y-112900000D03*
D43*
X173050000Y-112900000D03*
D42*
X166750000Y-115200000D03*
D17*
X128900000Y-86900000D03*
D18*
X128100000Y-86900000D03*
X127300000Y-86900000D03*
D17*
X126500000Y-86900000D03*
X126500000Y-88700000D03*
D18*
X127300000Y-88700000D03*
X128100000Y-88700000D03*
D17*
X128900000Y-88700000D03*
D10*
X160300000Y-116300000D03*
D14*
X111600000Y-108450000D03*
X111600000Y-110350000D03*
D38*
X154150000Y-122600000D03*
X156250000Y-122600000D03*
D10*
X154800000Y-84800000D03*
D36*
X179062500Y-97550000D03*
X179062500Y-99450000D03*
X180937500Y-98500000D03*
D26*
X112000000Y-100450000D03*
X112000000Y-102550000D03*
D38*
X126100000Y-122600000D03*
X128200000Y-122600000D03*
D25*
X175375000Y-117300000D03*
X177025000Y-117300000D03*
D24*
X167925000Y-123750000D03*
X166275000Y-123750000D03*
D38*
X146250000Y-122600000D03*
X144150000Y-122600000D03*
D25*
X133875000Y-109000000D03*
X135525000Y-109000000D03*
D31*
X166200000Y-119725000D03*
X166200000Y-118150000D03*
D40*
X164475000Y-119937500D03*
X162925000Y-119937500D03*
D29*
X156000000Y-95150000D03*
X156000000Y-93250000D03*
D17*
X144200000Y-86900000D03*
D18*
X143400000Y-86900000D03*
X142600000Y-86900000D03*
D17*
X141800000Y-86900000D03*
X141800000Y-88700000D03*
D18*
X142600000Y-88700000D03*
X143400000Y-88700000D03*
D17*
X144200000Y-88700000D03*
D12*
X182800000Y-111175000D03*
X182800000Y-112825000D03*
X108500000Y-100675000D03*
X108500000Y-102325000D03*
D10*
X120400000Y-91300000D03*
D12*
X113900000Y-115850000D03*
X113900000Y-117500000D03*
D44*
X170825000Y-94800000D03*
X172375000Y-94800000D03*
D24*
X160025000Y-120600000D03*
X158375000Y-120600000D03*
D25*
X111775000Y-91400000D03*
X113425000Y-91400000D03*
D10*
X160000000Y-103800000D03*
D45*
X155950000Y-103662500D03*
X154050000Y-103662500D03*
X155000000Y-105537500D03*
D24*
X132025000Y-120600000D03*
X130375000Y-120600000D03*
D38*
X160250000Y-122600000D03*
X158150000Y-122600000D03*
X112150000Y-122600000D03*
X114250000Y-122600000D03*
D24*
X155825000Y-100700000D03*
X154175000Y-100700000D03*
D19*
X138900000Y-84575000D03*
X138400000Y-84575000D03*
X137900000Y-84575000D03*
X137400000Y-84575000D03*
X136900000Y-84575000D03*
X136900000Y-85425000D03*
X137400000Y-85425000D03*
X137900000Y-85425000D03*
X138400000Y-85425000D03*
X138900000Y-85425000D03*
D46*
X118000000Y-125000000D03*
D47*
X114500000Y-125000000D03*
X111000000Y-125000000D03*
X107500000Y-125000000D03*
D48*
X174710000Y-98500000D03*
D49*
X177250000Y-98500000D03*
D46*
X160000000Y-125000000D03*
D47*
X156500000Y-125000000D03*
X153000000Y-125000000D03*
X149500000Y-125000000D03*
D48*
X174725000Y-83200000D03*
D49*
X177265000Y-83200000D03*
D46*
X184000000Y-81450000D03*
D47*
X184000000Y-84950000D03*
D46*
X184000000Y-118950000D03*
D47*
X184000000Y-122450000D03*
D50*
X111100000Y-88390000D03*
X111100000Y-82610000D03*
D51*
X111630000Y-81180000D03*
D52*
X107450000Y-81180000D03*
D51*
X111630000Y-89820000D03*
D52*
X107450000Y-89820000D03*
D46*
X132000000Y-125000000D03*
D47*
X128500000Y-125000000D03*
X125000000Y-125000000D03*
X121500000Y-125000000D03*
D53*
X145500000Y-81500000D03*
D54*
X145500000Y-78960000D03*
X142960000Y-81500000D03*
X142960000Y-78960000D03*
X140420000Y-81500000D03*
X140420000Y-78960000D03*
X137880000Y-81500000D03*
X137880000Y-78960000D03*
X135340000Y-81500000D03*
X135340000Y-78960000D03*
X132800000Y-81500000D03*
X132800000Y-78960000D03*
X130260000Y-81500000D03*
X130260000Y-78960000D03*
X127720000Y-81500000D03*
X127720000Y-78960000D03*
X125180000Y-81500000D03*
X125180000Y-78960000D03*
X122640000Y-81500000D03*
X122640000Y-78960000D03*
D46*
X184000000Y-96750000D03*
D47*
X184000000Y-100250000D03*
D46*
X146000000Y-125000000D03*
D47*
X142500000Y-125000000D03*
X139000000Y-125000000D03*
X135500000Y-125000000D03*
M02*
