%TF.GenerationSoftware,KiCad,Pcbnew,7.0.2-1.fc37*%
%TF.CreationDate,2023-04-28T16:21:11+01:00*%
%TF.ProjectId,grblPANEL,6772626c-5041-44e4-954c-2e6b69636164,B*%
%TF.SameCoordinates,Original*%
%TF.FileFunction,Paste,Top*%
%TF.FilePolarity,Positive*%
%FSLAX46Y46*%
G04 Gerber Fmt 4.6, Leading zero omitted, Abs format (unit mm)*
G04 Created by KiCad (PCBNEW 7.0.2-1.fc37) date 2023-04-28 16:21:11*
%MOMM*%
%LPD*%
G01*
G04 APERTURE LIST*
G04 Aperture macros list*
%AMRoundRect*
0 Rectangle with rounded corners*
0 $1 Rounding radius*
0 $2 $3 $4 $5 $6 $7 $8 $9 X,Y pos of 4 corners*
0 Add a 4 corners polygon primitive as box body*
4,1,4,$2,$3,$4,$5,$6,$7,$8,$9,$2,$3,0*
0 Add four circle primitives for the rounded corners*
1,1,$1+$1,$2,$3*
1,1,$1+$1,$4,$5*
1,1,$1+$1,$6,$7*
1,1,$1+$1,$8,$9*
0 Add four rect primitives between the rounded corners*
20,1,$1+$1,$2,$3,$4,$5,0*
20,1,$1+$1,$4,$5,$6,$7,0*
20,1,$1+$1,$6,$7,$8,$9,0*
20,1,$1+$1,$8,$9,$2,$3,0*%
G04 Aperture macros list end*
%ADD10RoundRect,0.225000X-0.250000X0.225000X-0.250000X-0.225000X0.250000X-0.225000X0.250000X0.225000X0*%
%ADD11RoundRect,0.200000X-0.275000X0.200000X-0.275000X-0.200000X0.275000X-0.200000X0.275000X0.200000X0*%
%ADD12RoundRect,0.200000X0.275000X-0.200000X0.275000X0.200000X-0.275000X0.200000X-0.275000X-0.200000X0*%
%ADD13RoundRect,0.250000X-0.475000X0.250000X-0.475000X-0.250000X0.475000X-0.250000X0.475000X0.250000X0*%
%ADD14R,0.706399X0.254800*%
%ADD15R,1.600200X2.387600*%
%ADD16R,0.500000X0.800000*%
%ADD17R,0.400000X0.800000*%
%ADD18RoundRect,0.112500X-0.187500X-0.112500X0.187500X-0.112500X0.187500X0.112500X-0.187500X0.112500X0*%
%ADD19R,0.250000X0.600000*%
%ADD20RoundRect,0.075000X-0.662500X-0.075000X0.662500X-0.075000X0.662500X0.075000X-0.662500X0.075000X0*%
%ADD21RoundRect,0.075000X-0.075000X-0.662500X0.075000X-0.662500X0.075000X0.662500X-0.075000X0.662500X0*%
%ADD22RoundRect,0.200000X-0.200000X-0.275000X0.200000X-0.275000X0.200000X0.275000X-0.200000X0.275000X0*%
%ADD23RoundRect,0.225000X0.250000X-0.225000X0.250000X0.225000X-0.250000X0.225000X-0.250000X-0.225000X0*%
%ADD24RoundRect,0.200000X0.200000X0.275000X-0.200000X0.275000X-0.200000X-0.275000X0.200000X-0.275000X0*%
%ADD25RoundRect,0.112500X0.112500X-0.187500X0.112500X0.187500X-0.112500X0.187500X-0.112500X-0.187500X0*%
%ADD26R,1.300000X0.300000*%
%ADD27R,2.200000X1.800000*%
%ADD28RoundRect,0.250000X0.475000X-0.250000X0.475000X0.250000X-0.475000X0.250000X-0.475000X-0.250000X0*%
%ADD29RoundRect,0.150000X-0.825000X-0.150000X0.825000X-0.150000X0.825000X0.150000X-0.825000X0.150000X0*%
%ADD30RoundRect,0.225000X0.225000X0.225000X-0.225000X0.225000X-0.225000X-0.225000X0.225000X-0.225000X0*%
%ADD31RoundRect,0.050000X-0.349999X0.050000X-0.349999X-0.050000X0.349999X-0.050000X0.349999X0.050000X0*%
%ADD32RoundRect,0.050000X0.050000X0.349999X-0.050000X0.349999X-0.050000X-0.349999X0.050000X-0.349999X0*%
%ADD33RoundRect,0.250000X-0.312500X-0.625000X0.312500X-0.625000X0.312500X0.625000X-0.312500X0.625000X0*%
%ADD34RoundRect,0.150000X-0.587500X-0.150000X0.587500X-0.150000X0.587500X0.150000X-0.587500X0.150000X0*%
%ADD35R,1.200000X1.400000*%
%ADD36RoundRect,0.112500X0.187500X0.112500X-0.187500X0.112500X-0.187500X-0.112500X0.187500X-0.112500X0*%
%ADD37RoundRect,0.150000X0.512500X0.150000X-0.512500X0.150000X-0.512500X-0.150000X0.512500X-0.150000X0*%
%ADD38RoundRect,0.225000X0.225000X0.250000X-0.225000X0.250000X-0.225000X-0.250000X0.225000X-0.250000X0*%
%ADD39RoundRect,0.250000X-0.650000X1.000000X-0.650000X-1.000000X0.650000X-1.000000X0.650000X1.000000X0*%
%ADD40RoundRect,0.112500X-0.112500X0.187500X-0.112500X-0.187500X0.112500X-0.187500X0.112500X0.187500X0*%
%ADD41RoundRect,0.150000X0.587500X0.150000X-0.587500X0.150000X-0.587500X-0.150000X0.587500X-0.150000X0*%
%ADD42R,2.000000X1.500000*%
%ADD43R,2.000000X3.800000*%
%ADD44RoundRect,0.218750X0.256250X-0.218750X0.256250X0.218750X-0.256250X0.218750X-0.256250X-0.218750X0*%
%ADD45RoundRect,0.225000X-0.225000X-0.250000X0.225000X-0.250000X0.225000X0.250000X-0.225000X0.250000X0*%
%ADD46RoundRect,0.150000X-0.150000X0.587500X-0.150000X-0.587500X0.150000X-0.587500X0.150000X0.587500X0*%
G04 APERTURE END LIST*
D10*
X115500000Y-107025000D03*
X115500000Y-108575000D03*
D11*
X134600000Y-98750000D03*
X134600000Y-100400000D03*
D12*
X178300000Y-107825000D03*
X178300000Y-106175000D03*
D13*
X170100000Y-121800000D03*
X170100000Y-123700000D03*
D14*
X172779500Y-119950001D03*
X172779500Y-119449999D03*
X172779500Y-118950000D03*
X172779500Y-118450001D03*
X172779500Y-117949999D03*
X169787100Y-117949999D03*
X169787100Y-118450001D03*
X169787100Y-118950000D03*
X169787100Y-119449999D03*
X169787100Y-119950001D03*
D15*
X171283300Y-118950000D03*
D16*
X131500000Y-86900000D03*
D17*
X130700000Y-86900000D03*
X129900000Y-86900000D03*
D16*
X129100000Y-86900000D03*
X129100000Y-88700000D03*
D17*
X129900000Y-88700000D03*
X130700000Y-88700000D03*
D16*
X131500000Y-88700000D03*
D18*
X158900000Y-116000000D03*
X161000000Y-116000000D03*
D16*
X136600000Y-86900000D03*
D17*
X135800000Y-86900000D03*
X135000000Y-86900000D03*
D16*
X134200000Y-86900000D03*
X134200000Y-88700000D03*
D17*
X135000000Y-88700000D03*
X135800000Y-88700000D03*
D16*
X136600000Y-88700000D03*
D11*
X116600000Y-103175000D03*
X116600000Y-104825000D03*
D19*
X131300000Y-84575000D03*
X130800000Y-84575000D03*
X130300000Y-84575000D03*
X129800000Y-84575000D03*
X129300000Y-84575000D03*
X129300000Y-85425000D03*
X129800000Y-85425000D03*
X130300000Y-85425000D03*
X130800000Y-85425000D03*
X131300000Y-85425000D03*
D11*
X175000000Y-85375000D03*
X175000000Y-87025000D03*
X136200000Y-98750000D03*
X136200000Y-100400000D03*
D20*
X117737500Y-107250000D03*
X117737500Y-107750000D03*
X117737500Y-108250000D03*
X117737500Y-108750000D03*
X117737500Y-109250000D03*
X117737500Y-109750000D03*
X117737500Y-110250000D03*
X117737500Y-110750000D03*
X117737500Y-111250000D03*
X117737500Y-111750000D03*
X117737500Y-112250000D03*
X117737500Y-112750000D03*
D21*
X119150000Y-114162500D03*
X119650000Y-114162500D03*
X120150000Y-114162500D03*
X120650000Y-114162500D03*
X121150000Y-114162500D03*
X121650000Y-114162500D03*
X122150000Y-114162500D03*
X122650000Y-114162500D03*
X123150000Y-114162500D03*
X123650000Y-114162500D03*
X124150000Y-114162500D03*
X124650000Y-114162500D03*
D20*
X126062500Y-112750000D03*
X126062500Y-112250000D03*
X126062500Y-111750000D03*
X126062500Y-111250000D03*
X126062500Y-110750000D03*
X126062500Y-110250000D03*
X126062500Y-109750000D03*
X126062500Y-109250000D03*
X126062500Y-108750000D03*
X126062500Y-108250000D03*
X126062500Y-107750000D03*
X126062500Y-107250000D03*
D21*
X124650000Y-105837500D03*
X124150000Y-105837500D03*
X123650000Y-105837500D03*
X123150000Y-105837500D03*
X122650000Y-105837500D03*
X122150000Y-105837500D03*
X121650000Y-105837500D03*
X121150000Y-105837500D03*
X120650000Y-105837500D03*
X120150000Y-105837500D03*
X119650000Y-105837500D03*
X119150000Y-105837500D03*
D22*
X159125000Y-114000000D03*
X160775000Y-114000000D03*
D23*
X164500000Y-83975000D03*
X164500000Y-82425000D03*
D12*
X125000000Y-96125000D03*
X125000000Y-94475000D03*
D22*
X155175000Y-112000000D03*
X156825000Y-112000000D03*
D24*
X167925000Y-121750000D03*
X166275000Y-121750000D03*
D11*
X151300000Y-107375000D03*
X151300000Y-109025000D03*
D24*
X177025000Y-120700000D03*
X175375000Y-120700000D03*
D11*
X133000000Y-98750000D03*
X133000000Y-100400000D03*
D22*
X112375000Y-120600000D03*
X114025000Y-120600000D03*
D11*
X175000000Y-79375000D03*
X175000000Y-81025000D03*
X110000000Y-100675000D03*
X110000000Y-102325000D03*
D25*
X108000000Y-98550000D03*
X108000000Y-96450000D03*
D19*
X126200000Y-84575000D03*
X125700000Y-84575000D03*
X125200000Y-84575000D03*
X124700000Y-84575000D03*
X124200000Y-84575000D03*
X124200000Y-85425000D03*
X124700000Y-85425000D03*
X125200000Y-85425000D03*
X125700000Y-85425000D03*
X126200000Y-85425000D03*
D24*
X118025000Y-120600000D03*
X116375000Y-120600000D03*
X156825000Y-114000000D03*
X155175000Y-114000000D03*
X168225000Y-94800000D03*
X166575000Y-94800000D03*
D26*
X149150000Y-92250000D03*
X149150000Y-92750000D03*
X149150000Y-93250000D03*
X149150000Y-93750000D03*
X149150000Y-94250000D03*
X149150000Y-94750000D03*
X149150000Y-95250000D03*
X149150000Y-95750000D03*
X149150000Y-96250000D03*
X149150000Y-96750000D03*
X149150000Y-97250000D03*
X149150000Y-97750000D03*
X149150000Y-98250000D03*
X149150000Y-98750000D03*
X149150000Y-99250000D03*
X149150000Y-99750000D03*
X149150000Y-100250000D03*
X149150000Y-100750000D03*
X149150000Y-101250000D03*
X149150000Y-101750000D03*
X149150000Y-102250000D03*
X149150000Y-102750000D03*
X149150000Y-103250000D03*
X149150000Y-103750000D03*
X149150000Y-104250000D03*
X149150000Y-104750000D03*
X149150000Y-105250000D03*
X149150000Y-105750000D03*
X149150000Y-106250000D03*
X149150000Y-106750000D03*
X149150000Y-107250000D03*
X149150000Y-107750000D03*
X149150000Y-108250000D03*
X149150000Y-108750000D03*
X149150000Y-109250000D03*
X149150000Y-109750000D03*
X149150000Y-110250000D03*
X149150000Y-110750000D03*
X149150000Y-111250000D03*
X149150000Y-111750000D03*
D27*
X145900000Y-90350000D03*
X145900000Y-113650000D03*
D28*
X163700000Y-113850000D03*
X163700000Y-111950000D03*
D10*
X109500000Y-107025000D03*
X109500000Y-108575000D03*
D29*
X167025000Y-96595000D03*
X167025000Y-97865000D03*
X167025000Y-99135000D03*
X167025000Y-100405000D03*
X171975000Y-100405000D03*
X171975000Y-99135000D03*
X171975000Y-97865000D03*
X171975000Y-96595000D03*
D10*
X112200000Y-112700000D03*
X112200000Y-114250000D03*
D22*
X182675000Y-105500000D03*
X184325000Y-105500000D03*
D23*
X112200000Y-117450000D03*
X112200000Y-115900000D03*
D22*
X132925000Y-114500000D03*
X134575000Y-114500000D03*
D23*
X128900000Y-96075000D03*
X128900000Y-94525000D03*
D22*
X126375000Y-120600000D03*
X128025000Y-120600000D03*
X140375000Y-120600000D03*
X142025000Y-120600000D03*
D12*
X176700000Y-102325000D03*
X176700000Y-100675000D03*
D11*
X107000000Y-100675000D03*
X107000000Y-102325000D03*
D30*
X133350000Y-95050000D03*
X133350000Y-93950000D03*
X132250000Y-95050000D03*
X132250000Y-93950000D03*
D31*
X134449999Y-95500001D03*
X134449999Y-95099999D03*
X134449999Y-94700000D03*
X134449999Y-94300000D03*
X134449999Y-93900001D03*
X134449999Y-93499999D03*
D32*
X133800001Y-92850001D03*
X133399999Y-92850001D03*
X133000000Y-92850001D03*
X132600000Y-92850001D03*
X132200001Y-92850001D03*
X131799999Y-92850001D03*
D31*
X131150001Y-93499999D03*
X131150001Y-93900001D03*
X131150001Y-94300000D03*
X131150001Y-94700000D03*
X131150001Y-95099999D03*
X131150001Y-95500001D03*
D32*
X131799999Y-96149999D03*
X132200001Y-96149999D03*
X132600000Y-96149999D03*
X133000000Y-96149999D03*
X133399999Y-96149999D03*
X133800001Y-96149999D03*
D33*
X178537500Y-102000000D03*
X181462500Y-102000000D03*
D13*
X172500000Y-121800000D03*
X172500000Y-123700000D03*
D33*
X178537500Y-95000000D03*
X181462500Y-95000000D03*
D34*
X179062500Y-82250000D03*
X179062500Y-84150000D03*
X180937500Y-83200000D03*
D35*
X110250000Y-117200000D03*
X110250000Y-115000000D03*
X108550000Y-115000000D03*
X108550000Y-117200000D03*
D11*
X176700000Y-94675000D03*
X176700000Y-96325000D03*
D12*
X153300000Y-109025000D03*
X153300000Y-107375000D03*
D22*
X154375000Y-120600000D03*
X156025000Y-120600000D03*
D36*
X132250000Y-122600000D03*
X130150000Y-122600000D03*
D24*
X170325000Y-79450000D03*
X168675000Y-79450000D03*
D18*
X140100000Y-122600000D03*
X142200000Y-122600000D03*
D11*
X167900000Y-118125000D03*
X167900000Y-119775000D03*
D12*
X175000000Y-96325000D03*
X175000000Y-94675000D03*
D22*
X111775000Y-79600000D03*
X113425000Y-79600000D03*
D16*
X121300000Y-86900000D03*
D17*
X120500000Y-86900000D03*
X119700000Y-86900000D03*
D16*
X118900000Y-86900000D03*
X118900000Y-88700000D03*
D17*
X119700000Y-88700000D03*
X120500000Y-88700000D03*
D16*
X121300000Y-88700000D03*
D29*
X167025000Y-81295000D03*
X167025000Y-82565000D03*
X167025000Y-83835000D03*
X167025000Y-85105000D03*
X171975000Y-85105000D03*
X171975000Y-83835000D03*
X171975000Y-82565000D03*
X171975000Y-81295000D03*
D22*
X175375000Y-119000000D03*
X177025000Y-119000000D03*
D37*
X116337500Y-86950000D03*
X116337500Y-86000000D03*
X116337500Y-85050000D03*
X114062500Y-85050000D03*
X114062500Y-86000000D03*
X114062500Y-86950000D03*
D19*
X121100000Y-84575000D03*
X120600000Y-84575000D03*
X120100000Y-84575000D03*
X119600000Y-84575000D03*
X119100000Y-84575000D03*
X119100000Y-85425000D03*
X119600000Y-85425000D03*
X120100000Y-85425000D03*
X120600000Y-85425000D03*
X121100000Y-85425000D03*
D25*
X110000000Y-98550000D03*
X110000000Y-96450000D03*
D10*
X128900000Y-109225000D03*
X128900000Y-110775000D03*
D38*
X164475000Y-117937500D03*
X162925000Y-117937500D03*
D23*
X151300000Y-94975000D03*
X151300000Y-93425000D03*
D39*
X180000000Y-118700000D03*
X180000000Y-122700000D03*
D25*
X112000000Y-98550000D03*
X112000000Y-96450000D03*
D13*
X176200000Y-113550000D03*
X176200000Y-115450000D03*
D38*
X116675000Y-83400000D03*
X115125000Y-83400000D03*
D23*
X177000000Y-80975000D03*
X177000000Y-79425000D03*
D22*
X175375000Y-122400000D03*
X177025000Y-122400000D03*
D36*
X118250000Y-122600000D03*
X116150000Y-122600000D03*
D22*
X130575000Y-109000000D03*
X132225000Y-109000000D03*
X159125000Y-112000000D03*
X160775000Y-112000000D03*
D10*
X113900000Y-107025000D03*
X113900000Y-108575000D03*
D24*
X146025000Y-120600000D03*
X144375000Y-120600000D03*
D40*
X164000000Y-121700000D03*
X164000000Y-123800000D03*
D41*
X153325000Y-115950000D03*
X153325000Y-114050000D03*
X151450000Y-115000000D03*
D23*
X177000000Y-86975000D03*
X177000000Y-85425000D03*
D24*
X170285000Y-102200000D03*
X168635000Y-102200000D03*
D28*
X126800000Y-96250000D03*
X126800000Y-94350000D03*
D24*
X177025000Y-124100000D03*
X175375000Y-124100000D03*
D19*
X141500000Y-84575000D03*
X141000000Y-84575000D03*
X140500000Y-84575000D03*
X140000000Y-84575000D03*
X139500000Y-84575000D03*
X139500000Y-85425000D03*
X140000000Y-85425000D03*
X140500000Y-85425000D03*
X141000000Y-85425000D03*
X141500000Y-85425000D03*
D22*
X130575000Y-111000000D03*
X132225000Y-111000000D03*
D42*
X166750000Y-110600000D03*
X166750000Y-112900000D03*
D43*
X173050000Y-112900000D03*
D42*
X166750000Y-115200000D03*
D16*
X126400000Y-86900000D03*
D17*
X125600000Y-86900000D03*
X124800000Y-86900000D03*
D16*
X124000000Y-86900000D03*
X124000000Y-88700000D03*
D17*
X124800000Y-88700000D03*
X125600000Y-88700000D03*
D16*
X126400000Y-88700000D03*
D13*
X111600000Y-106850000D03*
X111600000Y-108750000D03*
D18*
X154150000Y-122600000D03*
X156250000Y-122600000D03*
D34*
X179062500Y-97550000D03*
X179062500Y-99450000D03*
X180937500Y-98500000D03*
D40*
X112000000Y-100450000D03*
X112000000Y-102550000D03*
D18*
X126100000Y-122600000D03*
X128200000Y-122600000D03*
D22*
X175375000Y-117300000D03*
X177025000Y-117300000D03*
D24*
X167925000Y-123750000D03*
X166275000Y-123750000D03*
D36*
X146250000Y-122600000D03*
X144150000Y-122600000D03*
D22*
X133875000Y-109000000D03*
X135525000Y-109000000D03*
D44*
X166200000Y-119725000D03*
X166200000Y-118150000D03*
D38*
X164475000Y-119937500D03*
X162925000Y-119937500D03*
D28*
X153300000Y-95150000D03*
X153300000Y-93250000D03*
D24*
X156825000Y-116000000D03*
X155175000Y-116000000D03*
D16*
X141700000Y-86900000D03*
D17*
X140900000Y-86900000D03*
X140100000Y-86900000D03*
D16*
X139300000Y-86900000D03*
X139300000Y-88700000D03*
D17*
X140100000Y-88700000D03*
X140900000Y-88700000D03*
D16*
X141700000Y-88700000D03*
D24*
X184325000Y-112500000D03*
X182675000Y-112500000D03*
D11*
X108500000Y-100675000D03*
X108500000Y-102325000D03*
X113900000Y-115850000D03*
X113900000Y-117500000D03*
D45*
X170825000Y-94800000D03*
X172375000Y-94800000D03*
D24*
X160025000Y-120600000D03*
X158375000Y-120600000D03*
D22*
X111775000Y-91400000D03*
X113425000Y-91400000D03*
D46*
X153250000Y-103662500D03*
X151350000Y-103662500D03*
X152300000Y-105537500D03*
D24*
X132025000Y-120600000D03*
X130375000Y-120600000D03*
D36*
X160250000Y-122600000D03*
X158150000Y-122600000D03*
D18*
X112150000Y-122600000D03*
X114250000Y-122600000D03*
D24*
X153125000Y-100700000D03*
X151475000Y-100700000D03*
D19*
X136400000Y-84575000D03*
X135900000Y-84575000D03*
X135400000Y-84575000D03*
X134900000Y-84575000D03*
X134400000Y-84575000D03*
X134400000Y-85425000D03*
X134900000Y-85425000D03*
X135400000Y-85425000D03*
X135900000Y-85425000D03*
X136400000Y-85425000D03*
M02*
