%TF.GenerationSoftware,KiCad,Pcbnew,7.0.2-1.fc37*%
%TF.CreationDate,2023-04-28T15:17:18+01:00*%
%TF.ProjectId,grblPANEL,6772626c-5041-44e4-954c-2e6b69636164,B*%
%TF.SameCoordinates,Original*%
%TF.FileFunction,Legend,Bot*%
%TF.FilePolarity,Positive*%
%FSLAX46Y46*%
G04 Gerber Fmt 4.6, Leading zero omitted, Abs format (unit mm)*
G04 Created by KiCad (PCBNEW 7.0.2-1.fc37) date 2023-04-28 15:17:18*
%MOMM*%
%LPD*%
G01*
G04 APERTURE LIST*
G04 Aperture macros list*
%AMRoundRect*
0 Rectangle with rounded corners*
0 $1 Rounding radius*
0 $2 $3 $4 $5 $6 $7 $8 $9 X,Y pos of 4 corners*
0 Add a 4 corners polygon primitive as box body*
4,1,4,$2,$3,$4,$5,$6,$7,$8,$9,$2,$3,0*
0 Add four circle primitives for the rounded corners*
1,1,$1+$1,$2,$3*
1,1,$1+$1,$4,$5*
1,1,$1+$1,$6,$7*
1,1,$1+$1,$8,$9*
0 Add four rect primitives between the rounded corners*
20,1,$1+$1,$2,$3,$4,$5,0*
20,1,$1+$1,$4,$5,$6,$7,0*
20,1,$1+$1,$6,$7,$8,$9,0*
20,1,$1+$1,$8,$9,$2,$3,0*%
G04 Aperture macros list end*
%ADD10C,0.150000*%
%ADD11C,0.200000*%
%ADD12C,0.400000*%
%ADD13C,0.300000*%
%ADD14C,0.500000*%
%ADD15C,0.120000*%
%ADD16C,0.002540*%
%ADD17C,2.000000*%
%ADD18RoundRect,0.218750X-0.218750X-0.256250X0.218750X-0.256250X0.218750X0.256250X-0.218750X0.256250X0*%
%ADD19RoundRect,0.218750X0.218750X0.256250X-0.218750X0.256250X-0.218750X-0.256250X0.218750X-0.256250X0*%
%ADD20R,2.400000X2.400000*%
%ADD21C,2.400000*%
%ADD22R,1.700000X1.700000*%
%ADD23O,1.700000X1.700000*%
%ADD24R,1.050000X0.650000*%
%ADD25R,0.740000X2.790000*%
%ADD26C,0.650000*%
%ADD27R,1.450000X0.600000*%
%ADD28R,1.450000X0.300000*%
%ADD29O,1.600000X1.000000*%
%ADD30O,2.100000X1.000000*%
%ADD31RoundRect,0.250000X0.600000X-0.600000X0.600000X0.600000X-0.600000X0.600000X-0.600000X-0.600000X0*%
%ADD32C,1.700000*%
G04 APERTURE END LIST*
D10*
X162200000Y-95400000D02*
X162200000Y-105500000D01*
X158300000Y-95400000D02*
X164100000Y-95400000D01*
X164100000Y-105500000D01*
X158300000Y-105500000D01*
X158300000Y-95400000D01*
X167000000Y-80500000D02*
X179500000Y-80500000D01*
X179500000Y-86000000D01*
X167000000Y-86000000D01*
X167000000Y-80500000D01*
X166500000Y-96000000D02*
X179500000Y-96000000D01*
X179500000Y-101000000D01*
X166500000Y-101000000D01*
X166500000Y-96000000D01*
X162200000Y-88000000D02*
X162200000Y-94500000D01*
X158300000Y-88000000D02*
X164100000Y-88000000D01*
X164100000Y-94500000D01*
X158300000Y-94500000D01*
X158300000Y-88000000D01*
D11*
X162644857Y-94107142D02*
X163844857Y-94107142D01*
X163844857Y-94107142D02*
X162987714Y-93773809D01*
X162987714Y-93773809D02*
X163844857Y-93440476D01*
X163844857Y-93440476D02*
X162644857Y-93440476D01*
X163844857Y-92773809D02*
X163844857Y-92583333D01*
X163844857Y-92583333D02*
X163787714Y-92488095D01*
X163787714Y-92488095D02*
X163673428Y-92392857D01*
X163673428Y-92392857D02*
X163444857Y-92345238D01*
X163444857Y-92345238D02*
X163044857Y-92345238D01*
X163044857Y-92345238D02*
X162816285Y-92392857D01*
X162816285Y-92392857D02*
X162702000Y-92488095D01*
X162702000Y-92488095D02*
X162644857Y-92583333D01*
X162644857Y-92583333D02*
X162644857Y-92773809D01*
X162644857Y-92773809D02*
X162702000Y-92869047D01*
X162702000Y-92869047D02*
X162816285Y-92964285D01*
X162816285Y-92964285D02*
X163044857Y-93011904D01*
X163044857Y-93011904D02*
X163444857Y-93011904D01*
X163444857Y-93011904D02*
X163673428Y-92964285D01*
X163673428Y-92964285D02*
X163787714Y-92869047D01*
X163787714Y-92869047D02*
X163844857Y-92773809D01*
X162644857Y-91916666D02*
X163844857Y-91916666D01*
X163844857Y-91916666D02*
X163844857Y-91678571D01*
X163844857Y-91678571D02*
X163787714Y-91535714D01*
X163787714Y-91535714D02*
X163673428Y-91440476D01*
X163673428Y-91440476D02*
X163559142Y-91392857D01*
X163559142Y-91392857D02*
X163330571Y-91345238D01*
X163330571Y-91345238D02*
X163159142Y-91345238D01*
X163159142Y-91345238D02*
X162930571Y-91392857D01*
X162930571Y-91392857D02*
X162816285Y-91440476D01*
X162816285Y-91440476D02*
X162702000Y-91535714D01*
X162702000Y-91535714D02*
X162644857Y-91678571D01*
X162644857Y-91678571D02*
X162644857Y-91916666D01*
X163273428Y-90583333D02*
X163216285Y-90440476D01*
X163216285Y-90440476D02*
X163159142Y-90392857D01*
X163159142Y-90392857D02*
X163044857Y-90345238D01*
X163044857Y-90345238D02*
X162873428Y-90345238D01*
X162873428Y-90345238D02*
X162759142Y-90392857D01*
X162759142Y-90392857D02*
X162702000Y-90440476D01*
X162702000Y-90440476D02*
X162644857Y-90535714D01*
X162644857Y-90535714D02*
X162644857Y-90916666D01*
X162644857Y-90916666D02*
X163844857Y-90916666D01*
X163844857Y-90916666D02*
X163844857Y-90583333D01*
X163844857Y-90583333D02*
X163787714Y-90488095D01*
X163787714Y-90488095D02*
X163730571Y-90440476D01*
X163730571Y-90440476D02*
X163616285Y-90392857D01*
X163616285Y-90392857D02*
X163502000Y-90392857D01*
X163502000Y-90392857D02*
X163387714Y-90440476D01*
X163387714Y-90440476D02*
X163330571Y-90488095D01*
X163330571Y-90488095D02*
X163273428Y-90583333D01*
X163273428Y-90583333D02*
X163273428Y-90916666D01*
X163844857Y-89916666D02*
X162873428Y-89916666D01*
X162873428Y-89916666D02*
X162759142Y-89869047D01*
X162759142Y-89869047D02*
X162702000Y-89821428D01*
X162702000Y-89821428D02*
X162644857Y-89726190D01*
X162644857Y-89726190D02*
X162644857Y-89535714D01*
X162644857Y-89535714D02*
X162702000Y-89440476D01*
X162702000Y-89440476D02*
X162759142Y-89392857D01*
X162759142Y-89392857D02*
X162873428Y-89345238D01*
X162873428Y-89345238D02*
X163844857Y-89345238D01*
X162702000Y-88916666D02*
X162644857Y-88773809D01*
X162644857Y-88773809D02*
X162644857Y-88535714D01*
X162644857Y-88535714D02*
X162702000Y-88440476D01*
X162702000Y-88440476D02*
X162759142Y-88392857D01*
X162759142Y-88392857D02*
X162873428Y-88345238D01*
X162873428Y-88345238D02*
X162987714Y-88345238D01*
X162987714Y-88345238D02*
X163102000Y-88392857D01*
X163102000Y-88392857D02*
X163159142Y-88440476D01*
X163159142Y-88440476D02*
X163216285Y-88535714D01*
X163216285Y-88535714D02*
X163273428Y-88726190D01*
X163273428Y-88726190D02*
X163330571Y-88821428D01*
X163330571Y-88821428D02*
X163387714Y-88869047D01*
X163387714Y-88869047D02*
X163502000Y-88916666D01*
X163502000Y-88916666D02*
X163616285Y-88916666D01*
X163616285Y-88916666D02*
X163730571Y-88869047D01*
X163730571Y-88869047D02*
X163787714Y-88821428D01*
X163787714Y-88821428D02*
X163844857Y-88726190D01*
X163844857Y-88726190D02*
X163844857Y-88488095D01*
X163844857Y-88488095D02*
X163787714Y-88345238D01*
D10*
X110500000Y-106250000D02*
X110500000Y-113250000D01*
X105750000Y-106250000D02*
X112500000Y-106250000D01*
X112500000Y-113250000D01*
X105750000Y-113250000D01*
X105750000Y-106250000D01*
D11*
X111059142Y-112345238D02*
X111002000Y-112392857D01*
X111002000Y-112392857D02*
X110944857Y-112535714D01*
X110944857Y-112535714D02*
X110944857Y-112630952D01*
X110944857Y-112630952D02*
X111002000Y-112773809D01*
X111002000Y-112773809D02*
X111116285Y-112869047D01*
X111116285Y-112869047D02*
X111230571Y-112916666D01*
X111230571Y-112916666D02*
X111459142Y-112964285D01*
X111459142Y-112964285D02*
X111630571Y-112964285D01*
X111630571Y-112964285D02*
X111859142Y-112916666D01*
X111859142Y-112916666D02*
X111973428Y-112869047D01*
X111973428Y-112869047D02*
X112087714Y-112773809D01*
X112087714Y-112773809D02*
X112144857Y-112630952D01*
X112144857Y-112630952D02*
X112144857Y-112535714D01*
X112144857Y-112535714D02*
X112087714Y-112392857D01*
X112087714Y-112392857D02*
X112030571Y-112345238D01*
X112144857Y-111726190D02*
X112144857Y-111535714D01*
X112144857Y-111535714D02*
X112087714Y-111440476D01*
X112087714Y-111440476D02*
X111973428Y-111345238D01*
X111973428Y-111345238D02*
X111744857Y-111297619D01*
X111744857Y-111297619D02*
X111344857Y-111297619D01*
X111344857Y-111297619D02*
X111116285Y-111345238D01*
X111116285Y-111345238D02*
X111002000Y-111440476D01*
X111002000Y-111440476D02*
X110944857Y-111535714D01*
X110944857Y-111535714D02*
X110944857Y-111726190D01*
X110944857Y-111726190D02*
X111002000Y-111821428D01*
X111002000Y-111821428D02*
X111116285Y-111916666D01*
X111116285Y-111916666D02*
X111344857Y-111964285D01*
X111344857Y-111964285D02*
X111744857Y-111964285D01*
X111744857Y-111964285D02*
X111973428Y-111916666D01*
X111973428Y-111916666D02*
X112087714Y-111821428D01*
X112087714Y-111821428D02*
X112144857Y-111726190D01*
X110944857Y-110869047D02*
X112144857Y-110869047D01*
X112144857Y-110869047D02*
X110944857Y-110297619D01*
X110944857Y-110297619D02*
X112144857Y-110297619D01*
X111002000Y-109869047D02*
X110944857Y-109726190D01*
X110944857Y-109726190D02*
X110944857Y-109488095D01*
X110944857Y-109488095D02*
X111002000Y-109392857D01*
X111002000Y-109392857D02*
X111059142Y-109345238D01*
X111059142Y-109345238D02*
X111173428Y-109297619D01*
X111173428Y-109297619D02*
X111287714Y-109297619D01*
X111287714Y-109297619D02*
X111402000Y-109345238D01*
X111402000Y-109345238D02*
X111459142Y-109392857D01*
X111459142Y-109392857D02*
X111516285Y-109488095D01*
X111516285Y-109488095D02*
X111573428Y-109678571D01*
X111573428Y-109678571D02*
X111630571Y-109773809D01*
X111630571Y-109773809D02*
X111687714Y-109821428D01*
X111687714Y-109821428D02*
X111802000Y-109869047D01*
X111802000Y-109869047D02*
X111916285Y-109869047D01*
X111916285Y-109869047D02*
X112030571Y-109821428D01*
X112030571Y-109821428D02*
X112087714Y-109773809D01*
X112087714Y-109773809D02*
X112144857Y-109678571D01*
X112144857Y-109678571D02*
X112144857Y-109440476D01*
X112144857Y-109440476D02*
X112087714Y-109297619D01*
X112144857Y-108678571D02*
X112144857Y-108488095D01*
X112144857Y-108488095D02*
X112087714Y-108392857D01*
X112087714Y-108392857D02*
X111973428Y-108297619D01*
X111973428Y-108297619D02*
X111744857Y-108250000D01*
X111744857Y-108250000D02*
X111344857Y-108250000D01*
X111344857Y-108250000D02*
X111116285Y-108297619D01*
X111116285Y-108297619D02*
X111002000Y-108392857D01*
X111002000Y-108392857D02*
X110944857Y-108488095D01*
X110944857Y-108488095D02*
X110944857Y-108678571D01*
X110944857Y-108678571D02*
X111002000Y-108773809D01*
X111002000Y-108773809D02*
X111116285Y-108869047D01*
X111116285Y-108869047D02*
X111344857Y-108916666D01*
X111344857Y-108916666D02*
X111744857Y-108916666D01*
X111744857Y-108916666D02*
X111973428Y-108869047D01*
X111973428Y-108869047D02*
X112087714Y-108773809D01*
X112087714Y-108773809D02*
X112144857Y-108678571D01*
X110944857Y-107345238D02*
X110944857Y-107821428D01*
X110944857Y-107821428D02*
X112144857Y-107821428D01*
X111573428Y-107011904D02*
X111573428Y-106678571D01*
X110944857Y-106535714D02*
X110944857Y-107011904D01*
X110944857Y-107011904D02*
X112144857Y-107011904D01*
X112144857Y-107011904D02*
X112144857Y-106535714D01*
D10*
X119400000Y-89500000D02*
X119400000Y-96000000D01*
X115250000Y-89500000D02*
X121350000Y-89500000D01*
X121350000Y-96000000D01*
X115250000Y-96000000D01*
X115250000Y-89500000D01*
X156000000Y-79800000D02*
X156000000Y-86200000D01*
X152000000Y-79800000D02*
X158000000Y-79800000D01*
X158000000Y-86200000D01*
X152000000Y-86200000D01*
X152000000Y-79800000D01*
D11*
X156559142Y-83595238D02*
X156502000Y-83642857D01*
X156502000Y-83642857D02*
X156444857Y-83785714D01*
X156444857Y-83785714D02*
X156444857Y-83880952D01*
X156444857Y-83880952D02*
X156502000Y-84023809D01*
X156502000Y-84023809D02*
X156616285Y-84119047D01*
X156616285Y-84119047D02*
X156730571Y-84166666D01*
X156730571Y-84166666D02*
X156959142Y-84214285D01*
X156959142Y-84214285D02*
X157130571Y-84214285D01*
X157130571Y-84214285D02*
X157359142Y-84166666D01*
X157359142Y-84166666D02*
X157473428Y-84119047D01*
X157473428Y-84119047D02*
X157587714Y-84023809D01*
X157587714Y-84023809D02*
X157644857Y-83880952D01*
X157644857Y-83880952D02*
X157644857Y-83785714D01*
X157644857Y-83785714D02*
X157587714Y-83642857D01*
X157587714Y-83642857D02*
X157530571Y-83595238D01*
X156787714Y-83214285D02*
X156787714Y-82738095D01*
X156444857Y-83309523D02*
X157644857Y-82976190D01*
X157644857Y-82976190D02*
X156444857Y-82642857D01*
X156444857Y-82309523D02*
X157644857Y-82309523D01*
X157644857Y-82309523D02*
X156444857Y-81738095D01*
X156444857Y-81738095D02*
X157644857Y-81738095D01*
D12*
X113800000Y-102900000D02*
X113800000Y-100300000D01*
D10*
X161800000Y-117400000D02*
X105700000Y-117400000D01*
X147700000Y-121300000D02*
X147700000Y-117800000D01*
X105700000Y-121300000D02*
X105700000Y-117800000D01*
X119700000Y-121300000D02*
X119700000Y-117800000D01*
X161800000Y-121300000D02*
X161800000Y-117800000D01*
X133800000Y-121300000D02*
X133800000Y-117800000D01*
D13*
X111864284Y-94622500D02*
X111678570Y-94693928D01*
X111678570Y-94693928D02*
X111369046Y-94693928D01*
X111369046Y-94693928D02*
X111245237Y-94622500D01*
X111245237Y-94622500D02*
X111183332Y-94551071D01*
X111183332Y-94551071D02*
X111121427Y-94408214D01*
X111121427Y-94408214D02*
X111121427Y-94265357D01*
X111121427Y-94265357D02*
X111183332Y-94122500D01*
X111183332Y-94122500D02*
X111245237Y-94051071D01*
X111245237Y-94051071D02*
X111369046Y-93979642D01*
X111369046Y-93979642D02*
X111616665Y-93908214D01*
X111616665Y-93908214D02*
X111740475Y-93836785D01*
X111740475Y-93836785D02*
X111802380Y-93765357D01*
X111802380Y-93765357D02*
X111864284Y-93622500D01*
X111864284Y-93622500D02*
X111864284Y-93479642D01*
X111864284Y-93479642D02*
X111802380Y-93336785D01*
X111802380Y-93336785D02*
X111740475Y-93265357D01*
X111740475Y-93265357D02*
X111616665Y-93193928D01*
X111616665Y-93193928D02*
X111307142Y-93193928D01*
X111307142Y-93193928D02*
X111121427Y-93265357D01*
X110688094Y-93193928D02*
X110378570Y-94693928D01*
X110378570Y-94693928D02*
X110130951Y-93622500D01*
X110130951Y-93622500D02*
X109883332Y-94693928D01*
X109883332Y-94693928D02*
X109573809Y-93193928D01*
X109078571Y-94693928D02*
X109078571Y-93193928D01*
X109078571Y-93193928D02*
X108769047Y-93193928D01*
X108769047Y-93193928D02*
X108583333Y-93265357D01*
X108583333Y-93265357D02*
X108459523Y-93408214D01*
X108459523Y-93408214D02*
X108397618Y-93551071D01*
X108397618Y-93551071D02*
X108335714Y-93836785D01*
X108335714Y-93836785D02*
X108335714Y-94051071D01*
X108335714Y-94051071D02*
X108397618Y-94336785D01*
X108397618Y-94336785D02*
X108459523Y-94479642D01*
X108459523Y-94479642D02*
X108583333Y-94622500D01*
X108583333Y-94622500D02*
X108769047Y-94693928D01*
X108769047Y-94693928D02*
X109078571Y-94693928D01*
D11*
X128428571Y-120408214D02*
X128285714Y-120479642D01*
X128285714Y-120479642D02*
X128238095Y-120551071D01*
X128238095Y-120551071D02*
X128190476Y-120693928D01*
X128190476Y-120693928D02*
X128190476Y-120908214D01*
X128190476Y-120908214D02*
X128238095Y-121051071D01*
X128238095Y-121051071D02*
X128285714Y-121122500D01*
X128285714Y-121122500D02*
X128380952Y-121193928D01*
X128380952Y-121193928D02*
X128761904Y-121193928D01*
X128761904Y-121193928D02*
X128761904Y-119693928D01*
X128761904Y-119693928D02*
X128428571Y-119693928D01*
X128428571Y-119693928D02*
X128333333Y-119765357D01*
X128333333Y-119765357D02*
X128285714Y-119836785D01*
X128285714Y-119836785D02*
X128238095Y-119979642D01*
X128238095Y-119979642D02*
X128238095Y-120122500D01*
X128238095Y-120122500D02*
X128285714Y-120265357D01*
X128285714Y-120265357D02*
X128333333Y-120336785D01*
X128333333Y-120336785D02*
X128428571Y-120408214D01*
X128428571Y-120408214D02*
X128761904Y-120408214D01*
D13*
X187011905Y-79001071D02*
X187073809Y-79072500D01*
X187073809Y-79072500D02*
X187259524Y-79143928D01*
X187259524Y-79143928D02*
X187383333Y-79143928D01*
X187383333Y-79143928D02*
X187569047Y-79072500D01*
X187569047Y-79072500D02*
X187692857Y-78929642D01*
X187692857Y-78929642D02*
X187754762Y-78786785D01*
X187754762Y-78786785D02*
X187816666Y-78501071D01*
X187816666Y-78501071D02*
X187816666Y-78286785D01*
X187816666Y-78286785D02*
X187754762Y-78001071D01*
X187754762Y-78001071D02*
X187692857Y-77858214D01*
X187692857Y-77858214D02*
X187569047Y-77715357D01*
X187569047Y-77715357D02*
X187383333Y-77643928D01*
X187383333Y-77643928D02*
X187259524Y-77643928D01*
X187259524Y-77643928D02*
X187073809Y-77715357D01*
X187073809Y-77715357D02*
X187011905Y-77786785D01*
X186516666Y-78715357D02*
X185897619Y-78715357D01*
X186640476Y-79143928D02*
X186207143Y-77643928D01*
X186207143Y-77643928D02*
X185773809Y-79143928D01*
X185340476Y-79143928D02*
X185340476Y-77643928D01*
X185340476Y-77643928D02*
X184597619Y-79143928D01*
X184597619Y-79143928D02*
X184597619Y-77643928D01*
X182988095Y-79143928D02*
X182988095Y-77643928D01*
X182988095Y-78358214D02*
X182245238Y-78358214D01*
X182245238Y-79143928D02*
X182245238Y-77643928D01*
X187038143Y-89001071D02*
X187100047Y-89072500D01*
X187100047Y-89072500D02*
X187285762Y-89143928D01*
X187285762Y-89143928D02*
X187409571Y-89143928D01*
X187409571Y-89143928D02*
X187595285Y-89072500D01*
X187595285Y-89072500D02*
X187719095Y-88929642D01*
X187719095Y-88929642D02*
X187781000Y-88786785D01*
X187781000Y-88786785D02*
X187842904Y-88501071D01*
X187842904Y-88501071D02*
X187842904Y-88286785D01*
X187842904Y-88286785D02*
X187781000Y-88001071D01*
X187781000Y-88001071D02*
X187719095Y-87858214D01*
X187719095Y-87858214D02*
X187595285Y-87715357D01*
X187595285Y-87715357D02*
X187409571Y-87643928D01*
X187409571Y-87643928D02*
X187285762Y-87643928D01*
X187285762Y-87643928D02*
X187100047Y-87715357D01*
X187100047Y-87715357D02*
X187038143Y-87786785D01*
X186542904Y-88715357D02*
X185923857Y-88715357D01*
X186666714Y-89143928D02*
X186233381Y-87643928D01*
X186233381Y-87643928D02*
X185800047Y-89143928D01*
X185366714Y-89143928D02*
X185366714Y-87643928D01*
X185366714Y-87643928D02*
X184623857Y-89143928D01*
X184623857Y-89143928D02*
X184623857Y-87643928D01*
X182395285Y-89143928D02*
X183014333Y-89143928D01*
X183014333Y-89143928D02*
X183014333Y-87643928D01*
D11*
X142428571Y-120408214D02*
X142285714Y-120479642D01*
X142285714Y-120479642D02*
X142238095Y-120551071D01*
X142238095Y-120551071D02*
X142190476Y-120693928D01*
X142190476Y-120693928D02*
X142190476Y-120908214D01*
X142190476Y-120908214D02*
X142238095Y-121051071D01*
X142238095Y-121051071D02*
X142285714Y-121122500D01*
X142285714Y-121122500D02*
X142380952Y-121193928D01*
X142380952Y-121193928D02*
X142761904Y-121193928D01*
X142761904Y-121193928D02*
X142761904Y-119693928D01*
X142761904Y-119693928D02*
X142428571Y-119693928D01*
X142428571Y-119693928D02*
X142333333Y-119765357D01*
X142333333Y-119765357D02*
X142285714Y-119836785D01*
X142285714Y-119836785D02*
X142238095Y-119979642D01*
X142238095Y-119979642D02*
X142238095Y-120122500D01*
X142238095Y-120122500D02*
X142285714Y-120265357D01*
X142285714Y-120265357D02*
X142333333Y-120336785D01*
X142333333Y-120336785D02*
X142428571Y-120408214D01*
X142428571Y-120408214D02*
X142761904Y-120408214D01*
D10*
X144821428Y-118438809D02*
X144488095Y-118438809D01*
X144345238Y-118962619D02*
X144821428Y-118962619D01*
X144821428Y-118962619D02*
X144821428Y-117962619D01*
X144821428Y-117962619D02*
X144345238Y-117962619D01*
X143916666Y-118962619D02*
X143916666Y-117962619D01*
X143916666Y-117962619D02*
X143345238Y-118962619D01*
X143345238Y-118962619D02*
X143345238Y-117962619D01*
X142297619Y-118867380D02*
X142345238Y-118915000D01*
X142345238Y-118915000D02*
X142488095Y-118962619D01*
X142488095Y-118962619D02*
X142583333Y-118962619D01*
X142583333Y-118962619D02*
X142726190Y-118915000D01*
X142726190Y-118915000D02*
X142821428Y-118819761D01*
X142821428Y-118819761D02*
X142869047Y-118724523D01*
X142869047Y-118724523D02*
X142916666Y-118534047D01*
X142916666Y-118534047D02*
X142916666Y-118391190D01*
X142916666Y-118391190D02*
X142869047Y-118200714D01*
X142869047Y-118200714D02*
X142821428Y-118105476D01*
X142821428Y-118105476D02*
X142726190Y-118010238D01*
X142726190Y-118010238D02*
X142583333Y-117962619D01*
X142583333Y-117962619D02*
X142488095Y-117962619D01*
X142488095Y-117962619D02*
X142345238Y-118010238D01*
X142345238Y-118010238D02*
X142297619Y-118057857D01*
X141678571Y-117962619D02*
X141488095Y-117962619D01*
X141488095Y-117962619D02*
X141392857Y-118010238D01*
X141392857Y-118010238D02*
X141297619Y-118105476D01*
X141297619Y-118105476D02*
X141250000Y-118295952D01*
X141250000Y-118295952D02*
X141250000Y-118629285D01*
X141250000Y-118629285D02*
X141297619Y-118819761D01*
X141297619Y-118819761D02*
X141392857Y-118915000D01*
X141392857Y-118915000D02*
X141488095Y-118962619D01*
X141488095Y-118962619D02*
X141678571Y-118962619D01*
X141678571Y-118962619D02*
X141773809Y-118915000D01*
X141773809Y-118915000D02*
X141869047Y-118819761D01*
X141869047Y-118819761D02*
X141916666Y-118629285D01*
X141916666Y-118629285D02*
X141916666Y-118295952D01*
X141916666Y-118295952D02*
X141869047Y-118105476D01*
X141869047Y-118105476D02*
X141773809Y-118010238D01*
X141773809Y-118010238D02*
X141678571Y-117962619D01*
X140821428Y-118962619D02*
X140821428Y-117962619D01*
X140821428Y-117962619D02*
X140583333Y-117962619D01*
X140583333Y-117962619D02*
X140440476Y-118010238D01*
X140440476Y-118010238D02*
X140345238Y-118105476D01*
X140345238Y-118105476D02*
X140297619Y-118200714D01*
X140297619Y-118200714D02*
X140250000Y-118391190D01*
X140250000Y-118391190D02*
X140250000Y-118534047D01*
X140250000Y-118534047D02*
X140297619Y-118724523D01*
X140297619Y-118724523D02*
X140345238Y-118819761D01*
X140345238Y-118819761D02*
X140440476Y-118915000D01*
X140440476Y-118915000D02*
X140583333Y-118962619D01*
X140583333Y-118962619D02*
X140821428Y-118962619D01*
X139821428Y-118438809D02*
X139488095Y-118438809D01*
X139345238Y-118962619D02*
X139821428Y-118962619D01*
X139821428Y-118962619D02*
X139821428Y-117962619D01*
X139821428Y-117962619D02*
X139345238Y-117962619D01*
X138345238Y-118962619D02*
X138678571Y-118486428D01*
X138916666Y-118962619D02*
X138916666Y-117962619D01*
X138916666Y-117962619D02*
X138535714Y-117962619D01*
X138535714Y-117962619D02*
X138440476Y-118010238D01*
X138440476Y-118010238D02*
X138392857Y-118057857D01*
X138392857Y-118057857D02*
X138345238Y-118153095D01*
X138345238Y-118153095D02*
X138345238Y-118295952D01*
X138345238Y-118295952D02*
X138392857Y-118391190D01*
X138392857Y-118391190D02*
X138440476Y-118438809D01*
X138440476Y-118438809D02*
X138535714Y-118486428D01*
X138535714Y-118486428D02*
X138916666Y-118486428D01*
X137202380Y-118057857D02*
X137154761Y-118010238D01*
X137154761Y-118010238D02*
X137059523Y-117962619D01*
X137059523Y-117962619D02*
X136821428Y-117962619D01*
X136821428Y-117962619D02*
X136726190Y-118010238D01*
X136726190Y-118010238D02*
X136678571Y-118057857D01*
X136678571Y-118057857D02*
X136630952Y-118153095D01*
X136630952Y-118153095D02*
X136630952Y-118248333D01*
X136630952Y-118248333D02*
X136678571Y-118391190D01*
X136678571Y-118391190D02*
X137249999Y-118962619D01*
X137249999Y-118962619D02*
X136630952Y-118962619D01*
D11*
X179614284Y-122251071D02*
X179671427Y-122322500D01*
X179671427Y-122322500D02*
X179842855Y-122393928D01*
X179842855Y-122393928D02*
X179957141Y-122393928D01*
X179957141Y-122393928D02*
X180128570Y-122322500D01*
X180128570Y-122322500D02*
X180242855Y-122179642D01*
X180242855Y-122179642D02*
X180299998Y-122036785D01*
X180299998Y-122036785D02*
X180357141Y-121751071D01*
X180357141Y-121751071D02*
X180357141Y-121536785D01*
X180357141Y-121536785D02*
X180299998Y-121251071D01*
X180299998Y-121251071D02*
X180242855Y-121108214D01*
X180242855Y-121108214D02*
X180128570Y-120965357D01*
X180128570Y-120965357D02*
X179957141Y-120893928D01*
X179957141Y-120893928D02*
X179842855Y-120893928D01*
X179842855Y-120893928D02*
X179671427Y-120965357D01*
X179671427Y-120965357D02*
X179614284Y-121036785D01*
X178414284Y-122251071D02*
X178471427Y-122322500D01*
X178471427Y-122322500D02*
X178642855Y-122393928D01*
X178642855Y-122393928D02*
X178757141Y-122393928D01*
X178757141Y-122393928D02*
X178928570Y-122322500D01*
X178928570Y-122322500D02*
X179042855Y-122179642D01*
X179042855Y-122179642D02*
X179099998Y-122036785D01*
X179099998Y-122036785D02*
X179157141Y-121751071D01*
X179157141Y-121751071D02*
X179157141Y-121536785D01*
X179157141Y-121536785D02*
X179099998Y-121251071D01*
X179099998Y-121251071D02*
X179042855Y-121108214D01*
X179042855Y-121108214D02*
X178928570Y-120965357D01*
X178928570Y-120965357D02*
X178757141Y-120893928D01*
X178757141Y-120893928D02*
X178642855Y-120893928D01*
X178642855Y-120893928D02*
X178471427Y-120965357D01*
X178471427Y-120965357D02*
X178414284Y-121036785D01*
X177899998Y-121822500D02*
X176985713Y-121822500D01*
X176014284Y-121608214D02*
X175842856Y-121679642D01*
X175842856Y-121679642D02*
X175785713Y-121751071D01*
X175785713Y-121751071D02*
X175728570Y-121893928D01*
X175728570Y-121893928D02*
X175728570Y-122108214D01*
X175728570Y-122108214D02*
X175785713Y-122251071D01*
X175785713Y-122251071D02*
X175842856Y-122322500D01*
X175842856Y-122322500D02*
X175957141Y-122393928D01*
X175957141Y-122393928D02*
X176414284Y-122393928D01*
X176414284Y-122393928D02*
X176414284Y-120893928D01*
X176414284Y-120893928D02*
X176014284Y-120893928D01*
X176014284Y-120893928D02*
X175899999Y-120965357D01*
X175899999Y-120965357D02*
X175842856Y-121036785D01*
X175842856Y-121036785D02*
X175785713Y-121179642D01*
X175785713Y-121179642D02*
X175785713Y-121322500D01*
X175785713Y-121322500D02*
X175842856Y-121465357D01*
X175842856Y-121465357D02*
X175899999Y-121536785D01*
X175899999Y-121536785D02*
X176014284Y-121608214D01*
X176014284Y-121608214D02*
X176414284Y-121608214D01*
X174985713Y-121679642D02*
X174985713Y-122393928D01*
X175385713Y-120893928D02*
X174985713Y-121679642D01*
X174985713Y-121679642D02*
X174585713Y-120893928D01*
X174185713Y-121822500D02*
X173271428Y-121822500D01*
X172757142Y-122322500D02*
X172585714Y-122393928D01*
X172585714Y-122393928D02*
X172299999Y-122393928D01*
X172299999Y-122393928D02*
X172185714Y-122322500D01*
X172185714Y-122322500D02*
X172128571Y-122251071D01*
X172128571Y-122251071D02*
X172071428Y-122108214D01*
X172071428Y-122108214D02*
X172071428Y-121965357D01*
X172071428Y-121965357D02*
X172128571Y-121822500D01*
X172128571Y-121822500D02*
X172185714Y-121751071D01*
X172185714Y-121751071D02*
X172299999Y-121679642D01*
X172299999Y-121679642D02*
X172528571Y-121608214D01*
X172528571Y-121608214D02*
X172642856Y-121536785D01*
X172642856Y-121536785D02*
X172699999Y-121465357D01*
X172699999Y-121465357D02*
X172757142Y-121322500D01*
X172757142Y-121322500D02*
X172757142Y-121179642D01*
X172757142Y-121179642D02*
X172699999Y-121036785D01*
X172699999Y-121036785D02*
X172642856Y-120965357D01*
X172642856Y-120965357D02*
X172528571Y-120893928D01*
X172528571Y-120893928D02*
X172242856Y-120893928D01*
X172242856Y-120893928D02*
X172071428Y-120965357D01*
X171614285Y-121965357D02*
X171042857Y-121965357D01*
X171728571Y-122393928D02*
X171328571Y-120893928D01*
X171328571Y-120893928D02*
X170928571Y-122393928D01*
X154190475Y-119708295D02*
X153857142Y-121208295D01*
X153857142Y-121208295D02*
X153523809Y-119708295D01*
X152761904Y-121136867D02*
X152857142Y-121208295D01*
X152857142Y-121208295D02*
X153047618Y-121208295D01*
X153047618Y-121208295D02*
X153142856Y-121136867D01*
X153142856Y-121136867D02*
X153190475Y-121065438D01*
X153190475Y-121065438D02*
X153238094Y-120922581D01*
X153238094Y-120922581D02*
X153238094Y-120494009D01*
X153238094Y-120494009D02*
X153190475Y-120351152D01*
X153190475Y-120351152D02*
X153142856Y-120279724D01*
X153142856Y-120279724D02*
X153047618Y-120208295D01*
X153047618Y-120208295D02*
X152857142Y-120208295D01*
X152857142Y-120208295D02*
X152761904Y-120279724D01*
X151904761Y-121136867D02*
X151999999Y-121208295D01*
X151999999Y-121208295D02*
X152190475Y-121208295D01*
X152190475Y-121208295D02*
X152285713Y-121136867D01*
X152285713Y-121136867D02*
X152333332Y-121065438D01*
X152333332Y-121065438D02*
X152380951Y-120922581D01*
X152380951Y-120922581D02*
X152380951Y-120494009D01*
X152380951Y-120494009D02*
X152333332Y-120351152D01*
X152333332Y-120351152D02*
X152285713Y-120279724D01*
X152285713Y-120279724D02*
X152190475Y-120208295D01*
X152190475Y-120208295D02*
X151999999Y-120208295D01*
X151999999Y-120208295D02*
X151904761Y-120279724D01*
D13*
X187523809Y-104193928D02*
X187957142Y-103479642D01*
X188266666Y-104193928D02*
X188266666Y-102693928D01*
X188266666Y-102693928D02*
X187771428Y-102693928D01*
X187771428Y-102693928D02*
X187647618Y-102765357D01*
X187647618Y-102765357D02*
X187585713Y-102836785D01*
X187585713Y-102836785D02*
X187523809Y-102979642D01*
X187523809Y-102979642D02*
X187523809Y-103193928D01*
X187523809Y-103193928D02*
X187585713Y-103336785D01*
X187585713Y-103336785D02*
X187647618Y-103408214D01*
X187647618Y-103408214D02*
X187771428Y-103479642D01*
X187771428Y-103479642D02*
X188266666Y-103479642D01*
X187028570Y-104122500D02*
X186842856Y-104193928D01*
X186842856Y-104193928D02*
X186533332Y-104193928D01*
X186533332Y-104193928D02*
X186409523Y-104122500D01*
X186409523Y-104122500D02*
X186347618Y-104051071D01*
X186347618Y-104051071D02*
X186285713Y-103908214D01*
X186285713Y-103908214D02*
X186285713Y-103765357D01*
X186285713Y-103765357D02*
X186347618Y-103622500D01*
X186347618Y-103622500D02*
X186409523Y-103551071D01*
X186409523Y-103551071D02*
X186533332Y-103479642D01*
X186533332Y-103479642D02*
X186780951Y-103408214D01*
X186780951Y-103408214D02*
X186904761Y-103336785D01*
X186904761Y-103336785D02*
X186966666Y-103265357D01*
X186966666Y-103265357D02*
X187028570Y-103122500D01*
X187028570Y-103122500D02*
X187028570Y-102979642D01*
X187028570Y-102979642D02*
X186966666Y-102836785D01*
X186966666Y-102836785D02*
X186904761Y-102765357D01*
X186904761Y-102765357D02*
X186780951Y-102693928D01*
X186780951Y-102693928D02*
X186471428Y-102693928D01*
X186471428Y-102693928D02*
X186285713Y-102765357D01*
X185171428Y-103193928D02*
X185171428Y-104193928D01*
X185480952Y-102622500D02*
X185790475Y-103693928D01*
X185790475Y-103693928D02*
X184985714Y-103693928D01*
X184304761Y-103336785D02*
X184428571Y-103265357D01*
X184428571Y-103265357D02*
X184490476Y-103193928D01*
X184490476Y-103193928D02*
X184552380Y-103051071D01*
X184552380Y-103051071D02*
X184552380Y-102979642D01*
X184552380Y-102979642D02*
X184490476Y-102836785D01*
X184490476Y-102836785D02*
X184428571Y-102765357D01*
X184428571Y-102765357D02*
X184304761Y-102693928D01*
X184304761Y-102693928D02*
X184057142Y-102693928D01*
X184057142Y-102693928D02*
X183933333Y-102765357D01*
X183933333Y-102765357D02*
X183871428Y-102836785D01*
X183871428Y-102836785D02*
X183809523Y-102979642D01*
X183809523Y-102979642D02*
X183809523Y-103051071D01*
X183809523Y-103051071D02*
X183871428Y-103193928D01*
X183871428Y-103193928D02*
X183933333Y-103265357D01*
X183933333Y-103265357D02*
X184057142Y-103336785D01*
X184057142Y-103336785D02*
X184304761Y-103336785D01*
X184304761Y-103336785D02*
X184428571Y-103408214D01*
X184428571Y-103408214D02*
X184490476Y-103479642D01*
X184490476Y-103479642D02*
X184552380Y-103622500D01*
X184552380Y-103622500D02*
X184552380Y-103908214D01*
X184552380Y-103908214D02*
X184490476Y-104051071D01*
X184490476Y-104051071D02*
X184428571Y-104122500D01*
X184428571Y-104122500D02*
X184304761Y-104193928D01*
X184304761Y-104193928D02*
X184057142Y-104193928D01*
X184057142Y-104193928D02*
X183933333Y-104122500D01*
X183933333Y-104122500D02*
X183871428Y-104051071D01*
X183871428Y-104051071D02*
X183809523Y-103908214D01*
X183809523Y-103908214D02*
X183809523Y-103622500D01*
X183809523Y-103622500D02*
X183871428Y-103479642D01*
X183871428Y-103479642D02*
X183933333Y-103408214D01*
X183933333Y-103408214D02*
X184057142Y-103336785D01*
X182633333Y-102693928D02*
X183252381Y-102693928D01*
X183252381Y-102693928D02*
X183314285Y-103408214D01*
X183314285Y-103408214D02*
X183252381Y-103336785D01*
X183252381Y-103336785D02*
X183128571Y-103265357D01*
X183128571Y-103265357D02*
X182819047Y-103265357D01*
X182819047Y-103265357D02*
X182695238Y-103336785D01*
X182695238Y-103336785D02*
X182633333Y-103408214D01*
X182633333Y-103408214D02*
X182571428Y-103551071D01*
X182571428Y-103551071D02*
X182571428Y-103908214D01*
X182571428Y-103908214D02*
X182633333Y-104051071D01*
X182633333Y-104051071D02*
X182695238Y-104122500D01*
X182695238Y-104122500D02*
X182819047Y-104193928D01*
X182819047Y-104193928D02*
X183128571Y-104193928D01*
X183128571Y-104193928D02*
X183252381Y-104122500D01*
X183252381Y-104122500D02*
X183314285Y-104051071D01*
X180590476Y-103408214D02*
X180404762Y-103479642D01*
X180404762Y-103479642D02*
X180342857Y-103551071D01*
X180342857Y-103551071D02*
X180280953Y-103693928D01*
X180280953Y-103693928D02*
X180280953Y-103908214D01*
X180280953Y-103908214D02*
X180342857Y-104051071D01*
X180342857Y-104051071D02*
X180404762Y-104122500D01*
X180404762Y-104122500D02*
X180528572Y-104193928D01*
X180528572Y-104193928D02*
X181023810Y-104193928D01*
X181023810Y-104193928D02*
X181023810Y-102693928D01*
X181023810Y-102693928D02*
X180590476Y-102693928D01*
X180590476Y-102693928D02*
X180466667Y-102765357D01*
X180466667Y-102765357D02*
X180404762Y-102836785D01*
X180404762Y-102836785D02*
X180342857Y-102979642D01*
X180342857Y-102979642D02*
X180342857Y-103122500D01*
X180342857Y-103122500D02*
X180404762Y-103265357D01*
X180404762Y-103265357D02*
X180466667Y-103336785D01*
X180466667Y-103336785D02*
X180590476Y-103408214D01*
X180590476Y-103408214D02*
X181023810Y-103408214D01*
X179723810Y-103622500D02*
X178733334Y-103622500D01*
D10*
X130871428Y-118399532D02*
X130538095Y-118399532D01*
X130395238Y-118923342D02*
X130871428Y-118923342D01*
X130871428Y-118923342D02*
X130871428Y-117923342D01*
X130871428Y-117923342D02*
X130395238Y-117923342D01*
X129966666Y-118923342D02*
X129966666Y-117923342D01*
X129966666Y-117923342D02*
X129395238Y-118923342D01*
X129395238Y-118923342D02*
X129395238Y-117923342D01*
X128347619Y-118828103D02*
X128395238Y-118875723D01*
X128395238Y-118875723D02*
X128538095Y-118923342D01*
X128538095Y-118923342D02*
X128633333Y-118923342D01*
X128633333Y-118923342D02*
X128776190Y-118875723D01*
X128776190Y-118875723D02*
X128871428Y-118780484D01*
X128871428Y-118780484D02*
X128919047Y-118685246D01*
X128919047Y-118685246D02*
X128966666Y-118494770D01*
X128966666Y-118494770D02*
X128966666Y-118351913D01*
X128966666Y-118351913D02*
X128919047Y-118161437D01*
X128919047Y-118161437D02*
X128871428Y-118066199D01*
X128871428Y-118066199D02*
X128776190Y-117970961D01*
X128776190Y-117970961D02*
X128633333Y-117923342D01*
X128633333Y-117923342D02*
X128538095Y-117923342D01*
X128538095Y-117923342D02*
X128395238Y-117970961D01*
X128395238Y-117970961D02*
X128347619Y-118018580D01*
X127728571Y-117923342D02*
X127538095Y-117923342D01*
X127538095Y-117923342D02*
X127442857Y-117970961D01*
X127442857Y-117970961D02*
X127347619Y-118066199D01*
X127347619Y-118066199D02*
X127300000Y-118256675D01*
X127300000Y-118256675D02*
X127300000Y-118590008D01*
X127300000Y-118590008D02*
X127347619Y-118780484D01*
X127347619Y-118780484D02*
X127442857Y-118875723D01*
X127442857Y-118875723D02*
X127538095Y-118923342D01*
X127538095Y-118923342D02*
X127728571Y-118923342D01*
X127728571Y-118923342D02*
X127823809Y-118875723D01*
X127823809Y-118875723D02*
X127919047Y-118780484D01*
X127919047Y-118780484D02*
X127966666Y-118590008D01*
X127966666Y-118590008D02*
X127966666Y-118256675D01*
X127966666Y-118256675D02*
X127919047Y-118066199D01*
X127919047Y-118066199D02*
X127823809Y-117970961D01*
X127823809Y-117970961D02*
X127728571Y-117923342D01*
X126871428Y-118923342D02*
X126871428Y-117923342D01*
X126871428Y-117923342D02*
X126633333Y-117923342D01*
X126633333Y-117923342D02*
X126490476Y-117970961D01*
X126490476Y-117970961D02*
X126395238Y-118066199D01*
X126395238Y-118066199D02*
X126347619Y-118161437D01*
X126347619Y-118161437D02*
X126300000Y-118351913D01*
X126300000Y-118351913D02*
X126300000Y-118494770D01*
X126300000Y-118494770D02*
X126347619Y-118685246D01*
X126347619Y-118685246D02*
X126395238Y-118780484D01*
X126395238Y-118780484D02*
X126490476Y-118875723D01*
X126490476Y-118875723D02*
X126633333Y-118923342D01*
X126633333Y-118923342D02*
X126871428Y-118923342D01*
X125871428Y-118399532D02*
X125538095Y-118399532D01*
X125395238Y-118923342D02*
X125871428Y-118923342D01*
X125871428Y-118923342D02*
X125871428Y-117923342D01*
X125871428Y-117923342D02*
X125395238Y-117923342D01*
X124395238Y-118923342D02*
X124728571Y-118447151D01*
X124966666Y-118923342D02*
X124966666Y-117923342D01*
X124966666Y-117923342D02*
X124585714Y-117923342D01*
X124585714Y-117923342D02*
X124490476Y-117970961D01*
X124490476Y-117970961D02*
X124442857Y-118018580D01*
X124442857Y-118018580D02*
X124395238Y-118113818D01*
X124395238Y-118113818D02*
X124395238Y-118256675D01*
X124395238Y-118256675D02*
X124442857Y-118351913D01*
X124442857Y-118351913D02*
X124490476Y-118399532D01*
X124490476Y-118399532D02*
X124585714Y-118447151D01*
X124585714Y-118447151D02*
X124966666Y-118447151D01*
X123299999Y-117923342D02*
X122680952Y-117923342D01*
X122680952Y-117923342D02*
X123014285Y-118304294D01*
X123014285Y-118304294D02*
X122871428Y-118304294D01*
X122871428Y-118304294D02*
X122776190Y-118351913D01*
X122776190Y-118351913D02*
X122728571Y-118399532D01*
X122728571Y-118399532D02*
X122680952Y-118494770D01*
X122680952Y-118494770D02*
X122680952Y-118732865D01*
X122680952Y-118732865D02*
X122728571Y-118828103D01*
X122728571Y-118828103D02*
X122776190Y-118875723D01*
X122776190Y-118875723D02*
X122871428Y-118923342D01*
X122871428Y-118923342D02*
X123157142Y-118923342D01*
X123157142Y-118923342D02*
X123252380Y-118875723D01*
X123252380Y-118875723D02*
X123299999Y-118828103D01*
D11*
X108261904Y-119765357D02*
X108357142Y-119693928D01*
X108357142Y-119693928D02*
X108499999Y-119693928D01*
X108499999Y-119693928D02*
X108642856Y-119765357D01*
X108642856Y-119765357D02*
X108738094Y-119908214D01*
X108738094Y-119908214D02*
X108785713Y-120051071D01*
X108785713Y-120051071D02*
X108833332Y-120336785D01*
X108833332Y-120336785D02*
X108833332Y-120551071D01*
X108833332Y-120551071D02*
X108785713Y-120836785D01*
X108785713Y-120836785D02*
X108738094Y-120979642D01*
X108738094Y-120979642D02*
X108642856Y-121122500D01*
X108642856Y-121122500D02*
X108499999Y-121193928D01*
X108499999Y-121193928D02*
X108404761Y-121193928D01*
X108404761Y-121193928D02*
X108261904Y-121122500D01*
X108261904Y-121122500D02*
X108214285Y-121051071D01*
X108214285Y-121051071D02*
X108214285Y-120551071D01*
X108214285Y-120551071D02*
X108404761Y-120551071D01*
X107785713Y-121193928D02*
X107785713Y-119693928D01*
X107785713Y-119693928D02*
X107214285Y-121193928D01*
X107214285Y-121193928D02*
X107214285Y-119693928D01*
X106738094Y-121193928D02*
X106738094Y-119693928D01*
X106738094Y-119693928D02*
X106499999Y-119693928D01*
X106499999Y-119693928D02*
X106357142Y-119765357D01*
X106357142Y-119765357D02*
X106261904Y-119908214D01*
X106261904Y-119908214D02*
X106214285Y-120051071D01*
X106214285Y-120051071D02*
X106166666Y-120336785D01*
X106166666Y-120336785D02*
X106166666Y-120551071D01*
X106166666Y-120551071D02*
X106214285Y-120836785D01*
X106214285Y-120836785D02*
X106261904Y-120979642D01*
X106261904Y-120979642D02*
X106357142Y-121122500D01*
X106357142Y-121122500D02*
X106499999Y-121193928D01*
X106499999Y-121193928D02*
X106738094Y-121193928D01*
D13*
X184990475Y-125265357D02*
X185114285Y-125193928D01*
X185114285Y-125193928D02*
X185299999Y-125193928D01*
X185299999Y-125193928D02*
X185485713Y-125265357D01*
X185485713Y-125265357D02*
X185609523Y-125408214D01*
X185609523Y-125408214D02*
X185671428Y-125551071D01*
X185671428Y-125551071D02*
X185733332Y-125836785D01*
X185733332Y-125836785D02*
X185733332Y-126051071D01*
X185733332Y-126051071D02*
X185671428Y-126336785D01*
X185671428Y-126336785D02*
X185609523Y-126479642D01*
X185609523Y-126479642D02*
X185485713Y-126622500D01*
X185485713Y-126622500D02*
X185299999Y-126693928D01*
X185299999Y-126693928D02*
X185176190Y-126693928D01*
X185176190Y-126693928D02*
X184990475Y-126622500D01*
X184990475Y-126622500D02*
X184928571Y-126551071D01*
X184928571Y-126551071D02*
X184928571Y-126051071D01*
X184928571Y-126051071D02*
X185176190Y-126051071D01*
X184371428Y-126693928D02*
X184371428Y-125193928D01*
X184371428Y-125193928D02*
X183628571Y-126693928D01*
X183628571Y-126693928D02*
X183628571Y-125193928D01*
X183009523Y-126693928D02*
X183009523Y-125193928D01*
X183009523Y-125193928D02*
X182699999Y-125193928D01*
X182699999Y-125193928D02*
X182514285Y-125265357D01*
X182514285Y-125265357D02*
X182390475Y-125408214D01*
X182390475Y-125408214D02*
X182328570Y-125551071D01*
X182328570Y-125551071D02*
X182266666Y-125836785D01*
X182266666Y-125836785D02*
X182266666Y-126051071D01*
X182266666Y-126051071D02*
X182328570Y-126336785D01*
X182328570Y-126336785D02*
X182390475Y-126479642D01*
X182390475Y-126479642D02*
X182514285Y-126622500D01*
X182514285Y-126622500D02*
X182699999Y-126693928D01*
X182699999Y-126693928D02*
X183009523Y-126693928D01*
D11*
X158644857Y-89666666D02*
X159216285Y-89999999D01*
X158644857Y-90238094D02*
X159844857Y-90238094D01*
X159844857Y-90238094D02*
X159844857Y-89857142D01*
X159844857Y-89857142D02*
X159787714Y-89761904D01*
X159787714Y-89761904D02*
X159730571Y-89714285D01*
X159730571Y-89714285D02*
X159616285Y-89666666D01*
X159616285Y-89666666D02*
X159444857Y-89666666D01*
X159444857Y-89666666D02*
X159330571Y-89714285D01*
X159330571Y-89714285D02*
X159273428Y-89761904D01*
X159273428Y-89761904D02*
X159216285Y-89857142D01*
X159216285Y-89857142D02*
X159216285Y-90238094D01*
X159844857Y-89333332D02*
X158644857Y-88666666D01*
X159844857Y-88666666D02*
X158644857Y-89333332D01*
X136261904Y-119765357D02*
X136357142Y-119693928D01*
X136357142Y-119693928D02*
X136499999Y-119693928D01*
X136499999Y-119693928D02*
X136642856Y-119765357D01*
X136642856Y-119765357D02*
X136738094Y-119908214D01*
X136738094Y-119908214D02*
X136785713Y-120051071D01*
X136785713Y-120051071D02*
X136833332Y-120336785D01*
X136833332Y-120336785D02*
X136833332Y-120551071D01*
X136833332Y-120551071D02*
X136785713Y-120836785D01*
X136785713Y-120836785D02*
X136738094Y-120979642D01*
X136738094Y-120979642D02*
X136642856Y-121122500D01*
X136642856Y-121122500D02*
X136499999Y-121193928D01*
X136499999Y-121193928D02*
X136404761Y-121193928D01*
X136404761Y-121193928D02*
X136261904Y-121122500D01*
X136261904Y-121122500D02*
X136214285Y-121051071D01*
X136214285Y-121051071D02*
X136214285Y-120551071D01*
X136214285Y-120551071D02*
X136404761Y-120551071D01*
X135785713Y-121193928D02*
X135785713Y-119693928D01*
X135785713Y-119693928D02*
X135214285Y-121193928D01*
X135214285Y-121193928D02*
X135214285Y-119693928D01*
X134738094Y-121193928D02*
X134738094Y-119693928D01*
X134738094Y-119693928D02*
X134499999Y-119693928D01*
X134499999Y-119693928D02*
X134357142Y-119765357D01*
X134357142Y-119765357D02*
X134261904Y-119908214D01*
X134261904Y-119908214D02*
X134214285Y-120051071D01*
X134214285Y-120051071D02*
X134166666Y-120336785D01*
X134166666Y-120336785D02*
X134166666Y-120551071D01*
X134166666Y-120551071D02*
X134214285Y-120836785D01*
X134214285Y-120836785D02*
X134261904Y-120979642D01*
X134261904Y-120979642D02*
X134357142Y-121122500D01*
X134357142Y-121122500D02*
X134499999Y-121193928D01*
X134499999Y-121193928D02*
X134738094Y-121193928D01*
X162644857Y-103238094D02*
X163844857Y-103238094D01*
X163844857Y-103238094D02*
X163844857Y-102999999D01*
X163844857Y-102999999D02*
X163787714Y-102857142D01*
X163787714Y-102857142D02*
X163673428Y-102761904D01*
X163673428Y-102761904D02*
X163559142Y-102714285D01*
X163559142Y-102714285D02*
X163330571Y-102666666D01*
X163330571Y-102666666D02*
X163159142Y-102666666D01*
X163159142Y-102666666D02*
X162930571Y-102714285D01*
X162930571Y-102714285D02*
X162816285Y-102761904D01*
X162816285Y-102761904D02*
X162702000Y-102857142D01*
X162702000Y-102857142D02*
X162644857Y-102999999D01*
X162644857Y-102999999D02*
X162644857Y-103238094D01*
X162644857Y-102238094D02*
X163844857Y-102238094D01*
X162702000Y-101809523D02*
X162644857Y-101666666D01*
X162644857Y-101666666D02*
X162644857Y-101428571D01*
X162644857Y-101428571D02*
X162702000Y-101333333D01*
X162702000Y-101333333D02*
X162759142Y-101285714D01*
X162759142Y-101285714D02*
X162873428Y-101238095D01*
X162873428Y-101238095D02*
X162987714Y-101238095D01*
X162987714Y-101238095D02*
X163102000Y-101285714D01*
X163102000Y-101285714D02*
X163159142Y-101333333D01*
X163159142Y-101333333D02*
X163216285Y-101428571D01*
X163216285Y-101428571D02*
X163273428Y-101619047D01*
X163273428Y-101619047D02*
X163330571Y-101714285D01*
X163330571Y-101714285D02*
X163387714Y-101761904D01*
X163387714Y-101761904D02*
X163502000Y-101809523D01*
X163502000Y-101809523D02*
X163616285Y-101809523D01*
X163616285Y-101809523D02*
X163730571Y-101761904D01*
X163730571Y-101761904D02*
X163787714Y-101714285D01*
X163787714Y-101714285D02*
X163844857Y-101619047D01*
X163844857Y-101619047D02*
X163844857Y-101380952D01*
X163844857Y-101380952D02*
X163787714Y-101238095D01*
X162644857Y-100809523D02*
X163844857Y-100809523D01*
X163844857Y-100809523D02*
X163844857Y-100428571D01*
X163844857Y-100428571D02*
X163787714Y-100333333D01*
X163787714Y-100333333D02*
X163730571Y-100285714D01*
X163730571Y-100285714D02*
X163616285Y-100238095D01*
X163616285Y-100238095D02*
X163444857Y-100238095D01*
X163444857Y-100238095D02*
X163330571Y-100285714D01*
X163330571Y-100285714D02*
X163273428Y-100333333D01*
X163273428Y-100333333D02*
X163216285Y-100428571D01*
X163216285Y-100428571D02*
X163216285Y-100809523D01*
X162644857Y-99333333D02*
X162644857Y-99809523D01*
X162644857Y-99809523D02*
X163844857Y-99809523D01*
X162987714Y-99047618D02*
X162987714Y-98571428D01*
X162644857Y-99142856D02*
X163844857Y-98809523D01*
X163844857Y-98809523D02*
X162644857Y-98476190D01*
X163216285Y-97952380D02*
X162644857Y-97952380D01*
X163844857Y-98285713D02*
X163216285Y-97952380D01*
X163216285Y-97952380D02*
X163844857Y-97619047D01*
X187619047Y-111055142D02*
X188095237Y-111055142D01*
X188095237Y-111055142D02*
X188095237Y-109855142D01*
X187285713Y-111055142D02*
X187285713Y-109855142D01*
X186809523Y-111055142D02*
X186809523Y-109855142D01*
X186809523Y-109855142D02*
X186238095Y-111055142D01*
X186238095Y-111055142D02*
X186238095Y-109855142D01*
X185761904Y-111055142D02*
X185761904Y-109855142D01*
X185190476Y-111055142D02*
X185619047Y-110369428D01*
X185190476Y-109855142D02*
X185761904Y-110540857D01*
X132238094Y-120765357D02*
X131761904Y-120765357D01*
X132333332Y-121193928D02*
X131999999Y-119693928D01*
X131999999Y-119693928D02*
X131666666Y-121193928D01*
X156321428Y-115355142D02*
X156321428Y-116326571D01*
X156321428Y-116326571D02*
X156273809Y-116440857D01*
X156273809Y-116440857D02*
X156226190Y-116498000D01*
X156226190Y-116498000D02*
X156130952Y-116555142D01*
X156130952Y-116555142D02*
X155940476Y-116555142D01*
X155940476Y-116555142D02*
X155845238Y-116498000D01*
X155845238Y-116498000D02*
X155797619Y-116440857D01*
X155797619Y-116440857D02*
X155750000Y-116326571D01*
X155750000Y-116326571D02*
X155750000Y-115355142D01*
X155416666Y-115355142D02*
X155083333Y-116555142D01*
X155083333Y-116555142D02*
X154750000Y-115355142D01*
X154226190Y-115355142D02*
X154035714Y-115355142D01*
X154035714Y-115355142D02*
X153940476Y-115412285D01*
X153940476Y-115412285D02*
X153845238Y-115526571D01*
X153845238Y-115526571D02*
X153797619Y-115755142D01*
X153797619Y-115755142D02*
X153797619Y-116155142D01*
X153797619Y-116155142D02*
X153845238Y-116383714D01*
X153845238Y-116383714D02*
X153940476Y-116498000D01*
X153940476Y-116498000D02*
X154035714Y-116555142D01*
X154035714Y-116555142D02*
X154226190Y-116555142D01*
X154226190Y-116555142D02*
X154321428Y-116498000D01*
X154321428Y-116498000D02*
X154416666Y-116383714D01*
X154416666Y-116383714D02*
X154464285Y-116155142D01*
X154464285Y-116155142D02*
X154464285Y-115755142D01*
X154464285Y-115755142D02*
X154416666Y-115526571D01*
X154416666Y-115526571D02*
X154321428Y-115412285D01*
X154321428Y-115412285D02*
X154226190Y-115355142D01*
X153511904Y-115355142D02*
X153178571Y-116555142D01*
X153178571Y-116555142D02*
X152845238Y-115355142D01*
X115559142Y-95095238D02*
X115502000Y-95142857D01*
X115502000Y-95142857D02*
X115444857Y-95285714D01*
X115444857Y-95285714D02*
X115444857Y-95380952D01*
X115444857Y-95380952D02*
X115502000Y-95523809D01*
X115502000Y-95523809D02*
X115616285Y-95619047D01*
X115616285Y-95619047D02*
X115730571Y-95666666D01*
X115730571Y-95666666D02*
X115959142Y-95714285D01*
X115959142Y-95714285D02*
X116130571Y-95714285D01*
X116130571Y-95714285D02*
X116359142Y-95666666D01*
X116359142Y-95666666D02*
X116473428Y-95619047D01*
X116473428Y-95619047D02*
X116587714Y-95523809D01*
X116587714Y-95523809D02*
X116644857Y-95380952D01*
X116644857Y-95380952D02*
X116644857Y-95285714D01*
X116644857Y-95285714D02*
X116587714Y-95142857D01*
X116587714Y-95142857D02*
X116530571Y-95095238D01*
X115444857Y-94190476D02*
X115444857Y-94666666D01*
X115444857Y-94666666D02*
X116644857Y-94666666D01*
X115444857Y-93857142D02*
X116644857Y-93857142D01*
X115444857Y-93285714D02*
X116130571Y-93714285D01*
X116644857Y-93285714D02*
X115959142Y-93857142D01*
X112190475Y-119708295D02*
X111857142Y-121208295D01*
X111857142Y-121208295D02*
X111523809Y-119708295D01*
X110761904Y-121136867D02*
X110857142Y-121208295D01*
X110857142Y-121208295D02*
X111047618Y-121208295D01*
X111047618Y-121208295D02*
X111142856Y-121136867D01*
X111142856Y-121136867D02*
X111190475Y-121065438D01*
X111190475Y-121065438D02*
X111238094Y-120922581D01*
X111238094Y-120922581D02*
X111238094Y-120494009D01*
X111238094Y-120494009D02*
X111190475Y-120351152D01*
X111190475Y-120351152D02*
X111142856Y-120279724D01*
X111142856Y-120279724D02*
X111047618Y-120208295D01*
X111047618Y-120208295D02*
X110857142Y-120208295D01*
X110857142Y-120208295D02*
X110761904Y-120279724D01*
X109904761Y-121136867D02*
X109999999Y-121208295D01*
X109999999Y-121208295D02*
X110190475Y-121208295D01*
X110190475Y-121208295D02*
X110285713Y-121136867D01*
X110285713Y-121136867D02*
X110333332Y-121065438D01*
X110333332Y-121065438D02*
X110380951Y-120922581D01*
X110380951Y-120922581D02*
X110380951Y-120494009D01*
X110380951Y-120494009D02*
X110333332Y-120351152D01*
X110333332Y-120351152D02*
X110285713Y-120279724D01*
X110285713Y-120279724D02*
X110190475Y-120208295D01*
X110190475Y-120208295D02*
X109999999Y-120208295D01*
X109999999Y-120208295D02*
X109904761Y-120279724D01*
X155702381Y-113176571D02*
X156035714Y-113176571D01*
X156035714Y-113805142D02*
X156035714Y-112605142D01*
X156035714Y-112605142D02*
X155559524Y-112605142D01*
X154702381Y-113805142D02*
X155178571Y-113805142D01*
X155178571Y-113805142D02*
X155178571Y-112605142D01*
X154416666Y-113462285D02*
X153940476Y-113462285D01*
X154511904Y-113805142D02*
X154178571Y-112605142D01*
X154178571Y-112605142D02*
X153845238Y-113805142D01*
X152988095Y-112662285D02*
X153083333Y-112605142D01*
X153083333Y-112605142D02*
X153226190Y-112605142D01*
X153226190Y-112605142D02*
X153369047Y-112662285D01*
X153369047Y-112662285D02*
X153464285Y-112776571D01*
X153464285Y-112776571D02*
X153511904Y-112890857D01*
X153511904Y-112890857D02*
X153559523Y-113119428D01*
X153559523Y-113119428D02*
X153559523Y-113290857D01*
X153559523Y-113290857D02*
X153511904Y-113519428D01*
X153511904Y-113519428D02*
X153464285Y-113633714D01*
X153464285Y-113633714D02*
X153369047Y-113748000D01*
X153369047Y-113748000D02*
X153226190Y-113805142D01*
X153226190Y-113805142D02*
X153130952Y-113805142D01*
X153130952Y-113805142D02*
X152988095Y-113748000D01*
X152988095Y-113748000D02*
X152940476Y-113690857D01*
X152940476Y-113690857D02*
X152940476Y-113290857D01*
X152940476Y-113290857D02*
X153130952Y-113290857D01*
X126190475Y-119708295D02*
X125857142Y-121208295D01*
X125857142Y-121208295D02*
X125523809Y-119708295D01*
X124761904Y-121136867D02*
X124857142Y-121208295D01*
X124857142Y-121208295D02*
X125047618Y-121208295D01*
X125047618Y-121208295D02*
X125142856Y-121136867D01*
X125142856Y-121136867D02*
X125190475Y-121065438D01*
X125190475Y-121065438D02*
X125238094Y-120922581D01*
X125238094Y-120922581D02*
X125238094Y-120494009D01*
X125238094Y-120494009D02*
X125190475Y-120351152D01*
X125190475Y-120351152D02*
X125142856Y-120279724D01*
X125142856Y-120279724D02*
X125047618Y-120208295D01*
X125047618Y-120208295D02*
X124857142Y-120208295D01*
X124857142Y-120208295D02*
X124761904Y-120279724D01*
X123904761Y-121136867D02*
X123999999Y-121208295D01*
X123999999Y-121208295D02*
X124190475Y-121208295D01*
X124190475Y-121208295D02*
X124285713Y-121136867D01*
X124285713Y-121136867D02*
X124333332Y-121065438D01*
X124333332Y-121065438D02*
X124380951Y-120922581D01*
X124380951Y-120922581D02*
X124380951Y-120494009D01*
X124380951Y-120494009D02*
X124333332Y-120351152D01*
X124333332Y-120351152D02*
X124285713Y-120279724D01*
X124285713Y-120279724D02*
X124190475Y-120208295D01*
X124190475Y-120208295D02*
X123999999Y-120208295D01*
X123999999Y-120208295D02*
X123904761Y-120279724D01*
X158644857Y-97761904D02*
X159844857Y-97761904D01*
X159844857Y-97761904D02*
X159844857Y-97523809D01*
X159844857Y-97523809D02*
X159787714Y-97380952D01*
X159787714Y-97380952D02*
X159673428Y-97285714D01*
X159673428Y-97285714D02*
X159559142Y-97238095D01*
X159559142Y-97238095D02*
X159330571Y-97190476D01*
X159330571Y-97190476D02*
X159159142Y-97190476D01*
X159159142Y-97190476D02*
X158930571Y-97238095D01*
X158930571Y-97238095D02*
X158816285Y-97285714D01*
X158816285Y-97285714D02*
X158702000Y-97380952D01*
X158702000Y-97380952D02*
X158644857Y-97523809D01*
X158644857Y-97523809D02*
X158644857Y-97761904D01*
X158759142Y-96190476D02*
X158702000Y-96238095D01*
X158702000Y-96238095D02*
X158644857Y-96380952D01*
X158644857Y-96380952D02*
X158644857Y-96476190D01*
X158644857Y-96476190D02*
X158702000Y-96619047D01*
X158702000Y-96619047D02*
X158816285Y-96714285D01*
X158816285Y-96714285D02*
X158930571Y-96761904D01*
X158930571Y-96761904D02*
X159159142Y-96809523D01*
X159159142Y-96809523D02*
X159330571Y-96809523D01*
X159330571Y-96809523D02*
X159559142Y-96761904D01*
X159559142Y-96761904D02*
X159673428Y-96714285D01*
X159673428Y-96714285D02*
X159787714Y-96619047D01*
X159787714Y-96619047D02*
X159844857Y-96476190D01*
X159844857Y-96476190D02*
X159844857Y-96380952D01*
X159844857Y-96380952D02*
X159787714Y-96238095D01*
X159787714Y-96238095D02*
X159730571Y-96190476D01*
X177261905Y-78055142D02*
X177261905Y-79026571D01*
X177261905Y-79026571D02*
X177309524Y-79140857D01*
X177309524Y-79140857D02*
X177357143Y-79198000D01*
X177357143Y-79198000D02*
X177452381Y-79255142D01*
X177452381Y-79255142D02*
X177595238Y-79255142D01*
X177595238Y-79255142D02*
X177690476Y-79198000D01*
X177261905Y-78798000D02*
X177357143Y-78855142D01*
X177357143Y-78855142D02*
X177547619Y-78855142D01*
X177547619Y-78855142D02*
X177642857Y-78798000D01*
X177642857Y-78798000D02*
X177690476Y-78740857D01*
X177690476Y-78740857D02*
X177738095Y-78626571D01*
X177738095Y-78626571D02*
X177738095Y-78283714D01*
X177738095Y-78283714D02*
X177690476Y-78169428D01*
X177690476Y-78169428D02*
X177642857Y-78112285D01*
X177642857Y-78112285D02*
X177547619Y-78055142D01*
X177547619Y-78055142D02*
X177357143Y-78055142D01*
X177357143Y-78055142D02*
X177261905Y-78112285D01*
X176785714Y-78855142D02*
X176785714Y-78055142D01*
X176785714Y-77655142D02*
X176833333Y-77712285D01*
X176833333Y-77712285D02*
X176785714Y-77769428D01*
X176785714Y-77769428D02*
X176738095Y-77712285D01*
X176738095Y-77712285D02*
X176785714Y-77655142D01*
X176785714Y-77655142D02*
X176785714Y-77769428D01*
X176452381Y-78055142D02*
X176071429Y-78055142D01*
X176309524Y-77655142D02*
X176309524Y-78683714D01*
X176309524Y-78683714D02*
X176261905Y-78798000D01*
X176261905Y-78798000D02*
X176166667Y-78855142D01*
X176166667Y-78855142D02*
X176071429Y-78855142D01*
X175738095Y-78855142D02*
X175738095Y-77655142D01*
X175309524Y-78855142D02*
X175309524Y-78226571D01*
X175309524Y-78226571D02*
X175357143Y-78112285D01*
X175357143Y-78112285D02*
X175452381Y-78055142D01*
X175452381Y-78055142D02*
X175595238Y-78055142D01*
X175595238Y-78055142D02*
X175690476Y-78112285D01*
X175690476Y-78112285D02*
X175738095Y-78169428D01*
X174404762Y-78055142D02*
X174404762Y-78855142D01*
X174833333Y-78055142D02*
X174833333Y-78683714D01*
X174833333Y-78683714D02*
X174785714Y-78798000D01*
X174785714Y-78798000D02*
X174690476Y-78855142D01*
X174690476Y-78855142D02*
X174547619Y-78855142D01*
X174547619Y-78855142D02*
X174452381Y-78798000D01*
X174452381Y-78798000D02*
X174404762Y-78740857D01*
X173928571Y-78855142D02*
X173928571Y-77655142D01*
X173928571Y-78112285D02*
X173833333Y-78055142D01*
X173833333Y-78055142D02*
X173642857Y-78055142D01*
X173642857Y-78055142D02*
X173547619Y-78112285D01*
X173547619Y-78112285D02*
X173500000Y-78169428D01*
X173500000Y-78169428D02*
X173452381Y-78283714D01*
X173452381Y-78283714D02*
X173452381Y-78626571D01*
X173452381Y-78626571D02*
X173500000Y-78740857D01*
X173500000Y-78740857D02*
X173547619Y-78798000D01*
X173547619Y-78798000D02*
X173642857Y-78855142D01*
X173642857Y-78855142D02*
X173833333Y-78855142D01*
X173833333Y-78855142D02*
X173928571Y-78798000D01*
X173023809Y-78740857D02*
X172976190Y-78798000D01*
X172976190Y-78798000D02*
X173023809Y-78855142D01*
X173023809Y-78855142D02*
X173071428Y-78798000D01*
X173071428Y-78798000D02*
X173023809Y-78740857D01*
X173023809Y-78740857D02*
X173023809Y-78855142D01*
X172119048Y-78798000D02*
X172214286Y-78855142D01*
X172214286Y-78855142D02*
X172404762Y-78855142D01*
X172404762Y-78855142D02*
X172500000Y-78798000D01*
X172500000Y-78798000D02*
X172547619Y-78740857D01*
X172547619Y-78740857D02*
X172595238Y-78626571D01*
X172595238Y-78626571D02*
X172595238Y-78283714D01*
X172595238Y-78283714D02*
X172547619Y-78169428D01*
X172547619Y-78169428D02*
X172500000Y-78112285D01*
X172500000Y-78112285D02*
X172404762Y-78055142D01*
X172404762Y-78055142D02*
X172214286Y-78055142D01*
X172214286Y-78055142D02*
X172119048Y-78112285D01*
X171547619Y-78855142D02*
X171642857Y-78798000D01*
X171642857Y-78798000D02*
X171690476Y-78740857D01*
X171690476Y-78740857D02*
X171738095Y-78626571D01*
X171738095Y-78626571D02*
X171738095Y-78283714D01*
X171738095Y-78283714D02*
X171690476Y-78169428D01*
X171690476Y-78169428D02*
X171642857Y-78112285D01*
X171642857Y-78112285D02*
X171547619Y-78055142D01*
X171547619Y-78055142D02*
X171404762Y-78055142D01*
X171404762Y-78055142D02*
X171309524Y-78112285D01*
X171309524Y-78112285D02*
X171261905Y-78169428D01*
X171261905Y-78169428D02*
X171214286Y-78283714D01*
X171214286Y-78283714D02*
X171214286Y-78626571D01*
X171214286Y-78626571D02*
X171261905Y-78740857D01*
X171261905Y-78740857D02*
X171309524Y-78798000D01*
X171309524Y-78798000D02*
X171404762Y-78855142D01*
X171404762Y-78855142D02*
X171547619Y-78855142D01*
X170785714Y-78855142D02*
X170785714Y-78055142D01*
X170785714Y-78169428D02*
X170738095Y-78112285D01*
X170738095Y-78112285D02*
X170642857Y-78055142D01*
X170642857Y-78055142D02*
X170500000Y-78055142D01*
X170500000Y-78055142D02*
X170404762Y-78112285D01*
X170404762Y-78112285D02*
X170357143Y-78226571D01*
X170357143Y-78226571D02*
X170357143Y-78855142D01*
X170357143Y-78226571D02*
X170309524Y-78112285D01*
X170309524Y-78112285D02*
X170214286Y-78055142D01*
X170214286Y-78055142D02*
X170071429Y-78055142D01*
X170071429Y-78055142D02*
X169976190Y-78112285D01*
X169976190Y-78112285D02*
X169928571Y-78226571D01*
X169928571Y-78226571D02*
X169928571Y-78855142D01*
X168738096Y-77598000D02*
X169595238Y-79140857D01*
X167976191Y-78855142D02*
X167976191Y-77655142D01*
X167976191Y-78798000D02*
X168071429Y-78855142D01*
X168071429Y-78855142D02*
X168261905Y-78855142D01*
X168261905Y-78855142D02*
X168357143Y-78798000D01*
X168357143Y-78798000D02*
X168404762Y-78740857D01*
X168404762Y-78740857D02*
X168452381Y-78626571D01*
X168452381Y-78626571D02*
X168452381Y-78283714D01*
X168452381Y-78283714D02*
X168404762Y-78169428D01*
X168404762Y-78169428D02*
X168357143Y-78112285D01*
X168357143Y-78112285D02*
X168261905Y-78055142D01*
X168261905Y-78055142D02*
X168071429Y-78055142D01*
X168071429Y-78055142D02*
X167976191Y-78112285D01*
X167500000Y-78855142D02*
X167500000Y-78055142D01*
X167500000Y-78283714D02*
X167452381Y-78169428D01*
X167452381Y-78169428D02*
X167404762Y-78112285D01*
X167404762Y-78112285D02*
X167309524Y-78055142D01*
X167309524Y-78055142D02*
X167214286Y-78055142D01*
X166500000Y-78798000D02*
X166595238Y-78855142D01*
X166595238Y-78855142D02*
X166785714Y-78855142D01*
X166785714Y-78855142D02*
X166880952Y-78798000D01*
X166880952Y-78798000D02*
X166928571Y-78683714D01*
X166928571Y-78683714D02*
X166928571Y-78226571D01*
X166928571Y-78226571D02*
X166880952Y-78112285D01*
X166880952Y-78112285D02*
X166785714Y-78055142D01*
X166785714Y-78055142D02*
X166595238Y-78055142D01*
X166595238Y-78055142D02*
X166500000Y-78112285D01*
X166500000Y-78112285D02*
X166452381Y-78226571D01*
X166452381Y-78226571D02*
X166452381Y-78340857D01*
X166452381Y-78340857D02*
X166928571Y-78455142D01*
X166071428Y-78798000D02*
X165976190Y-78855142D01*
X165976190Y-78855142D02*
X165785714Y-78855142D01*
X165785714Y-78855142D02*
X165690476Y-78798000D01*
X165690476Y-78798000D02*
X165642857Y-78683714D01*
X165642857Y-78683714D02*
X165642857Y-78626571D01*
X165642857Y-78626571D02*
X165690476Y-78512285D01*
X165690476Y-78512285D02*
X165785714Y-78455142D01*
X165785714Y-78455142D02*
X165928571Y-78455142D01*
X165928571Y-78455142D02*
X166023809Y-78398000D01*
X166023809Y-78398000D02*
X166071428Y-78283714D01*
X166071428Y-78283714D02*
X166071428Y-78226571D01*
X166071428Y-78226571D02*
X166023809Y-78112285D01*
X166023809Y-78112285D02*
X165928571Y-78055142D01*
X165928571Y-78055142D02*
X165785714Y-78055142D01*
X165785714Y-78055142D02*
X165690476Y-78112285D01*
X164785714Y-78798000D02*
X164880952Y-78855142D01*
X164880952Y-78855142D02*
X165071428Y-78855142D01*
X165071428Y-78855142D02*
X165166666Y-78798000D01*
X165166666Y-78798000D02*
X165214285Y-78740857D01*
X165214285Y-78740857D02*
X165261904Y-78626571D01*
X165261904Y-78626571D02*
X165261904Y-78283714D01*
X165261904Y-78283714D02*
X165214285Y-78169428D01*
X165214285Y-78169428D02*
X165166666Y-78112285D01*
X165166666Y-78112285D02*
X165071428Y-78055142D01*
X165071428Y-78055142D02*
X164880952Y-78055142D01*
X164880952Y-78055142D02*
X164785714Y-78112285D01*
X164214285Y-78855142D02*
X164309523Y-78798000D01*
X164309523Y-78798000D02*
X164357142Y-78740857D01*
X164357142Y-78740857D02*
X164404761Y-78626571D01*
X164404761Y-78626571D02*
X164404761Y-78283714D01*
X164404761Y-78283714D02*
X164357142Y-78169428D01*
X164357142Y-78169428D02*
X164309523Y-78112285D01*
X164309523Y-78112285D02*
X164214285Y-78055142D01*
X164214285Y-78055142D02*
X164071428Y-78055142D01*
X164071428Y-78055142D02*
X163976190Y-78112285D01*
X163976190Y-78112285D02*
X163928571Y-78169428D01*
X163928571Y-78169428D02*
X163880952Y-78283714D01*
X163880952Y-78283714D02*
X163880952Y-78626571D01*
X163880952Y-78626571D02*
X163928571Y-78740857D01*
X163928571Y-78740857D02*
X163976190Y-78798000D01*
X163976190Y-78798000D02*
X164071428Y-78855142D01*
X164071428Y-78855142D02*
X164214285Y-78855142D01*
X162738095Y-77598000D02*
X163595237Y-79140857D01*
X161976190Y-78055142D02*
X161976190Y-79026571D01*
X161976190Y-79026571D02*
X162023809Y-79140857D01*
X162023809Y-79140857D02*
X162071428Y-79198000D01*
X162071428Y-79198000D02*
X162166666Y-79255142D01*
X162166666Y-79255142D02*
X162309523Y-79255142D01*
X162309523Y-79255142D02*
X162404761Y-79198000D01*
X161976190Y-78798000D02*
X162071428Y-78855142D01*
X162071428Y-78855142D02*
X162261904Y-78855142D01*
X162261904Y-78855142D02*
X162357142Y-78798000D01*
X162357142Y-78798000D02*
X162404761Y-78740857D01*
X162404761Y-78740857D02*
X162452380Y-78626571D01*
X162452380Y-78626571D02*
X162452380Y-78283714D01*
X162452380Y-78283714D02*
X162404761Y-78169428D01*
X162404761Y-78169428D02*
X162357142Y-78112285D01*
X162357142Y-78112285D02*
X162261904Y-78055142D01*
X162261904Y-78055142D02*
X162071428Y-78055142D01*
X162071428Y-78055142D02*
X161976190Y-78112285D01*
X161499999Y-78855142D02*
X161499999Y-78055142D01*
X161499999Y-78283714D02*
X161452380Y-78169428D01*
X161452380Y-78169428D02*
X161404761Y-78112285D01*
X161404761Y-78112285D02*
X161309523Y-78055142D01*
X161309523Y-78055142D02*
X161214285Y-78055142D01*
X160880951Y-78855142D02*
X160880951Y-77655142D01*
X160880951Y-78112285D02*
X160785713Y-78055142D01*
X160785713Y-78055142D02*
X160595237Y-78055142D01*
X160595237Y-78055142D02*
X160499999Y-78112285D01*
X160499999Y-78112285D02*
X160452380Y-78169428D01*
X160452380Y-78169428D02*
X160404761Y-78283714D01*
X160404761Y-78283714D02*
X160404761Y-78626571D01*
X160404761Y-78626571D02*
X160452380Y-78740857D01*
X160452380Y-78740857D02*
X160499999Y-78798000D01*
X160499999Y-78798000D02*
X160595237Y-78855142D01*
X160595237Y-78855142D02*
X160785713Y-78855142D01*
X160785713Y-78855142D02*
X160880951Y-78798000D01*
X159833332Y-78855142D02*
X159928570Y-78798000D01*
X159928570Y-78798000D02*
X159976189Y-78683714D01*
X159976189Y-78683714D02*
X159976189Y-77655142D01*
X159452379Y-78855142D02*
X159452379Y-77655142D01*
X159452379Y-77655142D02*
X159071427Y-77655142D01*
X159071427Y-77655142D02*
X158976189Y-77712285D01*
X158976189Y-77712285D02*
X158928570Y-77769428D01*
X158928570Y-77769428D02*
X158880951Y-77883714D01*
X158880951Y-77883714D02*
X158880951Y-78055142D01*
X158880951Y-78055142D02*
X158928570Y-78169428D01*
X158928570Y-78169428D02*
X158976189Y-78226571D01*
X158976189Y-78226571D02*
X159071427Y-78283714D01*
X159071427Y-78283714D02*
X159452379Y-78283714D01*
X158499998Y-78512285D02*
X158023808Y-78512285D01*
X158595236Y-78855142D02*
X158261903Y-77655142D01*
X158261903Y-77655142D02*
X157928570Y-78855142D01*
X157595236Y-78855142D02*
X157595236Y-77655142D01*
X157595236Y-77655142D02*
X157023808Y-78855142D01*
X157023808Y-78855142D02*
X157023808Y-77655142D01*
X156547617Y-78226571D02*
X156214284Y-78226571D01*
X156071427Y-78855142D02*
X156547617Y-78855142D01*
X156547617Y-78855142D02*
X156547617Y-77655142D01*
X156547617Y-77655142D02*
X156071427Y-77655142D01*
X155166665Y-78855142D02*
X155642855Y-78855142D01*
X155642855Y-78855142D02*
X155642855Y-77655142D01*
X140190475Y-119708295D02*
X139857142Y-121208295D01*
X139857142Y-121208295D02*
X139523809Y-119708295D01*
X138761904Y-121136867D02*
X138857142Y-121208295D01*
X138857142Y-121208295D02*
X139047618Y-121208295D01*
X139047618Y-121208295D02*
X139142856Y-121136867D01*
X139142856Y-121136867D02*
X139190475Y-121065438D01*
X139190475Y-121065438D02*
X139238094Y-120922581D01*
X139238094Y-120922581D02*
X139238094Y-120494009D01*
X139238094Y-120494009D02*
X139190475Y-120351152D01*
X139190475Y-120351152D02*
X139142856Y-120279724D01*
X139142856Y-120279724D02*
X139047618Y-120208295D01*
X139047618Y-120208295D02*
X138857142Y-120208295D01*
X138857142Y-120208295D02*
X138761904Y-120279724D01*
X137904761Y-121136867D02*
X137999999Y-121208295D01*
X137999999Y-121208295D02*
X138190475Y-121208295D01*
X138190475Y-121208295D02*
X138285713Y-121136867D01*
X138285713Y-121136867D02*
X138333332Y-121065438D01*
X138333332Y-121065438D02*
X138380951Y-120922581D01*
X138380951Y-120922581D02*
X138380951Y-120494009D01*
X138380951Y-120494009D02*
X138333332Y-120351152D01*
X138333332Y-120351152D02*
X138285713Y-120279724D01*
X138285713Y-120279724D02*
X138190475Y-120208295D01*
X138190475Y-120208295D02*
X137999999Y-120208295D01*
X137999999Y-120208295D02*
X137904761Y-120279724D01*
D13*
X187430952Y-94193928D02*
X187864285Y-93479642D01*
X188173809Y-94193928D02*
X188173809Y-92693928D01*
X188173809Y-92693928D02*
X187678571Y-92693928D01*
X187678571Y-92693928D02*
X187554761Y-92765357D01*
X187554761Y-92765357D02*
X187492856Y-92836785D01*
X187492856Y-92836785D02*
X187430952Y-92979642D01*
X187430952Y-92979642D02*
X187430952Y-93193928D01*
X187430952Y-93193928D02*
X187492856Y-93336785D01*
X187492856Y-93336785D02*
X187554761Y-93408214D01*
X187554761Y-93408214D02*
X187678571Y-93479642D01*
X187678571Y-93479642D02*
X188173809Y-93479642D01*
X186935713Y-94122500D02*
X186749999Y-94193928D01*
X186749999Y-94193928D02*
X186440475Y-94193928D01*
X186440475Y-94193928D02*
X186316666Y-94122500D01*
X186316666Y-94122500D02*
X186254761Y-94051071D01*
X186254761Y-94051071D02*
X186192856Y-93908214D01*
X186192856Y-93908214D02*
X186192856Y-93765357D01*
X186192856Y-93765357D02*
X186254761Y-93622500D01*
X186254761Y-93622500D02*
X186316666Y-93551071D01*
X186316666Y-93551071D02*
X186440475Y-93479642D01*
X186440475Y-93479642D02*
X186688094Y-93408214D01*
X186688094Y-93408214D02*
X186811904Y-93336785D01*
X186811904Y-93336785D02*
X186873809Y-93265357D01*
X186873809Y-93265357D02*
X186935713Y-93122500D01*
X186935713Y-93122500D02*
X186935713Y-92979642D01*
X186935713Y-92979642D02*
X186873809Y-92836785D01*
X186873809Y-92836785D02*
X186811904Y-92765357D01*
X186811904Y-92765357D02*
X186688094Y-92693928D01*
X186688094Y-92693928D02*
X186378571Y-92693928D01*
X186378571Y-92693928D02*
X186192856Y-92765357D01*
X185078571Y-93193928D02*
X185078571Y-94193928D01*
X185388095Y-92622500D02*
X185697618Y-93693928D01*
X185697618Y-93693928D02*
X184892857Y-93693928D01*
X184211904Y-93336785D02*
X184335714Y-93265357D01*
X184335714Y-93265357D02*
X184397619Y-93193928D01*
X184397619Y-93193928D02*
X184459523Y-93051071D01*
X184459523Y-93051071D02*
X184459523Y-92979642D01*
X184459523Y-92979642D02*
X184397619Y-92836785D01*
X184397619Y-92836785D02*
X184335714Y-92765357D01*
X184335714Y-92765357D02*
X184211904Y-92693928D01*
X184211904Y-92693928D02*
X183964285Y-92693928D01*
X183964285Y-92693928D02*
X183840476Y-92765357D01*
X183840476Y-92765357D02*
X183778571Y-92836785D01*
X183778571Y-92836785D02*
X183716666Y-92979642D01*
X183716666Y-92979642D02*
X183716666Y-93051071D01*
X183716666Y-93051071D02*
X183778571Y-93193928D01*
X183778571Y-93193928D02*
X183840476Y-93265357D01*
X183840476Y-93265357D02*
X183964285Y-93336785D01*
X183964285Y-93336785D02*
X184211904Y-93336785D01*
X184211904Y-93336785D02*
X184335714Y-93408214D01*
X184335714Y-93408214D02*
X184397619Y-93479642D01*
X184397619Y-93479642D02*
X184459523Y-93622500D01*
X184459523Y-93622500D02*
X184459523Y-93908214D01*
X184459523Y-93908214D02*
X184397619Y-94051071D01*
X184397619Y-94051071D02*
X184335714Y-94122500D01*
X184335714Y-94122500D02*
X184211904Y-94193928D01*
X184211904Y-94193928D02*
X183964285Y-94193928D01*
X183964285Y-94193928D02*
X183840476Y-94122500D01*
X183840476Y-94122500D02*
X183778571Y-94051071D01*
X183778571Y-94051071D02*
X183716666Y-93908214D01*
X183716666Y-93908214D02*
X183716666Y-93622500D01*
X183716666Y-93622500D02*
X183778571Y-93479642D01*
X183778571Y-93479642D02*
X183840476Y-93408214D01*
X183840476Y-93408214D02*
X183964285Y-93336785D01*
X182540476Y-92693928D02*
X183159524Y-92693928D01*
X183159524Y-92693928D02*
X183221428Y-93408214D01*
X183221428Y-93408214D02*
X183159524Y-93336785D01*
X183159524Y-93336785D02*
X183035714Y-93265357D01*
X183035714Y-93265357D02*
X182726190Y-93265357D01*
X182726190Y-93265357D02*
X182602381Y-93336785D01*
X182602381Y-93336785D02*
X182540476Y-93408214D01*
X182540476Y-93408214D02*
X182478571Y-93551071D01*
X182478571Y-93551071D02*
X182478571Y-93908214D01*
X182478571Y-93908214D02*
X182540476Y-94051071D01*
X182540476Y-94051071D02*
X182602381Y-94122500D01*
X182602381Y-94122500D02*
X182726190Y-94193928D01*
X182726190Y-94193928D02*
X183035714Y-94193928D01*
X183035714Y-94193928D02*
X183159524Y-94122500D01*
X183159524Y-94122500D02*
X183221428Y-94051071D01*
X180992857Y-93765357D02*
X180373810Y-93765357D01*
X181116667Y-94193928D02*
X180683334Y-92693928D01*
X180683334Y-92693928D02*
X180250000Y-94193928D01*
X179816667Y-93622500D02*
X178826191Y-93622500D01*
X179321429Y-94193928D02*
X179321429Y-93051071D01*
D11*
X170835714Y-82536071D02*
X170897618Y-82607500D01*
X170897618Y-82607500D02*
X171083333Y-82678928D01*
X171083333Y-82678928D02*
X171207142Y-82678928D01*
X171207142Y-82678928D02*
X171392856Y-82607500D01*
X171392856Y-82607500D02*
X171516666Y-82464642D01*
X171516666Y-82464642D02*
X171578571Y-82321785D01*
X171578571Y-82321785D02*
X171640475Y-82036071D01*
X171640475Y-82036071D02*
X171640475Y-81821785D01*
X171640475Y-81821785D02*
X171578571Y-81536071D01*
X171578571Y-81536071D02*
X171516666Y-81393214D01*
X171516666Y-81393214D02*
X171392856Y-81250357D01*
X171392856Y-81250357D02*
X171207142Y-81178928D01*
X171207142Y-81178928D02*
X171083333Y-81178928D01*
X171083333Y-81178928D02*
X170897618Y-81250357D01*
X170897618Y-81250357D02*
X170835714Y-81321785D01*
X170340475Y-82250357D02*
X169721428Y-82250357D01*
X170464285Y-82678928D02*
X170030952Y-81178928D01*
X170030952Y-81178928D02*
X169597618Y-82678928D01*
X169164285Y-82678928D02*
X169164285Y-81178928D01*
X169164285Y-81178928D02*
X168421428Y-82678928D01*
X168421428Y-82678928D02*
X168421428Y-81178928D01*
X172352380Y-83608928D02*
X171609523Y-83608928D01*
X171980951Y-85108928D02*
X171980951Y-83608928D01*
X171176190Y-84323214D02*
X170742856Y-84323214D01*
X170557142Y-85108928D02*
X171176190Y-85108928D01*
X171176190Y-85108928D02*
X171176190Y-83608928D01*
X171176190Y-83608928D02*
X170557142Y-83608928D01*
X169257143Y-85108928D02*
X169690476Y-84394642D01*
X170000000Y-85108928D02*
X170000000Y-83608928D01*
X170000000Y-83608928D02*
X169504762Y-83608928D01*
X169504762Y-83608928D02*
X169380952Y-83680357D01*
X169380952Y-83680357D02*
X169319047Y-83751785D01*
X169319047Y-83751785D02*
X169257143Y-83894642D01*
X169257143Y-83894642D02*
X169257143Y-84108928D01*
X169257143Y-84108928D02*
X169319047Y-84251785D01*
X169319047Y-84251785D02*
X169380952Y-84323214D01*
X169380952Y-84323214D02*
X169504762Y-84394642D01*
X169504762Y-84394642D02*
X170000000Y-84394642D01*
X168700000Y-85108928D02*
X168700000Y-83608928D01*
X168700000Y-83608928D02*
X168266666Y-84680357D01*
X168266666Y-84680357D02*
X167833333Y-83608928D01*
X167833333Y-83608928D02*
X167833333Y-85108928D01*
X160238094Y-120796776D02*
X159761904Y-120796776D01*
X160333332Y-121225347D02*
X159999999Y-119725347D01*
X159999999Y-119725347D02*
X159666666Y-121225347D01*
X114428571Y-120408214D02*
X114285714Y-120479642D01*
X114285714Y-120479642D02*
X114238095Y-120551071D01*
X114238095Y-120551071D02*
X114190476Y-120693928D01*
X114190476Y-120693928D02*
X114190476Y-120908214D01*
X114190476Y-120908214D02*
X114238095Y-121051071D01*
X114238095Y-121051071D02*
X114285714Y-121122500D01*
X114285714Y-121122500D02*
X114380952Y-121193928D01*
X114380952Y-121193928D02*
X114761904Y-121193928D01*
X114761904Y-121193928D02*
X114761904Y-119693928D01*
X114761904Y-119693928D02*
X114428571Y-119693928D01*
X114428571Y-119693928D02*
X114333333Y-119765357D01*
X114333333Y-119765357D02*
X114285714Y-119836785D01*
X114285714Y-119836785D02*
X114238095Y-119979642D01*
X114238095Y-119979642D02*
X114238095Y-120122500D01*
X114238095Y-120122500D02*
X114285714Y-120265357D01*
X114285714Y-120265357D02*
X114333333Y-120336785D01*
X114333333Y-120336785D02*
X114428571Y-120408214D01*
X114428571Y-120408214D02*
X114761904Y-120408214D01*
X146238094Y-120765357D02*
X145761904Y-120765357D01*
X146333332Y-121193928D02*
X145999999Y-119693928D01*
X145999999Y-119693928D02*
X145666666Y-121193928D01*
X118238094Y-120765357D02*
X117761904Y-120765357D01*
X118333332Y-121193928D02*
X117999999Y-119693928D01*
X117999999Y-119693928D02*
X117666666Y-121193928D01*
X172073809Y-97978928D02*
X172507142Y-97264642D01*
X172816666Y-97978928D02*
X172816666Y-96478928D01*
X172816666Y-96478928D02*
X172321428Y-96478928D01*
X172321428Y-96478928D02*
X172197618Y-96550357D01*
X172197618Y-96550357D02*
X172135713Y-96621785D01*
X172135713Y-96621785D02*
X172073809Y-96764642D01*
X172073809Y-96764642D02*
X172073809Y-96978928D01*
X172073809Y-96978928D02*
X172135713Y-97121785D01*
X172135713Y-97121785D02*
X172197618Y-97193214D01*
X172197618Y-97193214D02*
X172321428Y-97264642D01*
X172321428Y-97264642D02*
X172816666Y-97264642D01*
X171578570Y-97907500D02*
X171392856Y-97978928D01*
X171392856Y-97978928D02*
X171083332Y-97978928D01*
X171083332Y-97978928D02*
X170959523Y-97907500D01*
X170959523Y-97907500D02*
X170897618Y-97836071D01*
X170897618Y-97836071D02*
X170835713Y-97693214D01*
X170835713Y-97693214D02*
X170835713Y-97550357D01*
X170835713Y-97550357D02*
X170897618Y-97407500D01*
X170897618Y-97407500D02*
X170959523Y-97336071D01*
X170959523Y-97336071D02*
X171083332Y-97264642D01*
X171083332Y-97264642D02*
X171330951Y-97193214D01*
X171330951Y-97193214D02*
X171454761Y-97121785D01*
X171454761Y-97121785D02*
X171516666Y-97050357D01*
X171516666Y-97050357D02*
X171578570Y-96907500D01*
X171578570Y-96907500D02*
X171578570Y-96764642D01*
X171578570Y-96764642D02*
X171516666Y-96621785D01*
X171516666Y-96621785D02*
X171454761Y-96550357D01*
X171454761Y-96550357D02*
X171330951Y-96478928D01*
X171330951Y-96478928D02*
X171021428Y-96478928D01*
X171021428Y-96478928D02*
X170835713Y-96550357D01*
X169721428Y-96978928D02*
X169721428Y-97978928D01*
X170030952Y-96407500D02*
X170340475Y-97478928D01*
X170340475Y-97478928D02*
X169535714Y-97478928D01*
X168854761Y-97121785D02*
X168978571Y-97050357D01*
X168978571Y-97050357D02*
X169040476Y-96978928D01*
X169040476Y-96978928D02*
X169102380Y-96836071D01*
X169102380Y-96836071D02*
X169102380Y-96764642D01*
X169102380Y-96764642D02*
X169040476Y-96621785D01*
X169040476Y-96621785D02*
X168978571Y-96550357D01*
X168978571Y-96550357D02*
X168854761Y-96478928D01*
X168854761Y-96478928D02*
X168607142Y-96478928D01*
X168607142Y-96478928D02*
X168483333Y-96550357D01*
X168483333Y-96550357D02*
X168421428Y-96621785D01*
X168421428Y-96621785D02*
X168359523Y-96764642D01*
X168359523Y-96764642D02*
X168359523Y-96836071D01*
X168359523Y-96836071D02*
X168421428Y-96978928D01*
X168421428Y-96978928D02*
X168483333Y-97050357D01*
X168483333Y-97050357D02*
X168607142Y-97121785D01*
X168607142Y-97121785D02*
X168854761Y-97121785D01*
X168854761Y-97121785D02*
X168978571Y-97193214D01*
X168978571Y-97193214D02*
X169040476Y-97264642D01*
X169040476Y-97264642D02*
X169102380Y-97407500D01*
X169102380Y-97407500D02*
X169102380Y-97693214D01*
X169102380Y-97693214D02*
X169040476Y-97836071D01*
X169040476Y-97836071D02*
X168978571Y-97907500D01*
X168978571Y-97907500D02*
X168854761Y-97978928D01*
X168854761Y-97978928D02*
X168607142Y-97978928D01*
X168607142Y-97978928D02*
X168483333Y-97907500D01*
X168483333Y-97907500D02*
X168421428Y-97836071D01*
X168421428Y-97836071D02*
X168359523Y-97693214D01*
X168359523Y-97693214D02*
X168359523Y-97407500D01*
X168359523Y-97407500D02*
X168421428Y-97264642D01*
X168421428Y-97264642D02*
X168483333Y-97193214D01*
X168483333Y-97193214D02*
X168607142Y-97121785D01*
X167183333Y-96478928D02*
X167802381Y-96478928D01*
X167802381Y-96478928D02*
X167864285Y-97193214D01*
X167864285Y-97193214D02*
X167802381Y-97121785D01*
X167802381Y-97121785D02*
X167678571Y-97050357D01*
X167678571Y-97050357D02*
X167369047Y-97050357D01*
X167369047Y-97050357D02*
X167245238Y-97121785D01*
X167245238Y-97121785D02*
X167183333Y-97193214D01*
X167183333Y-97193214D02*
X167121428Y-97336071D01*
X167121428Y-97336071D02*
X167121428Y-97693214D01*
X167121428Y-97693214D02*
X167183333Y-97836071D01*
X167183333Y-97836071D02*
X167245238Y-97907500D01*
X167245238Y-97907500D02*
X167369047Y-97978928D01*
X167369047Y-97978928D02*
X167678571Y-97978928D01*
X167678571Y-97978928D02*
X167802381Y-97907500D01*
X167802381Y-97907500D02*
X167864285Y-97836071D01*
X172352380Y-98908928D02*
X171609523Y-98908928D01*
X171980951Y-100408928D02*
X171980951Y-98908928D01*
X171176190Y-99623214D02*
X170742856Y-99623214D01*
X170557142Y-100408928D02*
X171176190Y-100408928D01*
X171176190Y-100408928D02*
X171176190Y-98908928D01*
X171176190Y-98908928D02*
X170557142Y-98908928D01*
X169257143Y-100408928D02*
X169690476Y-99694642D01*
X170000000Y-100408928D02*
X170000000Y-98908928D01*
X170000000Y-98908928D02*
X169504762Y-98908928D01*
X169504762Y-98908928D02*
X169380952Y-98980357D01*
X169380952Y-98980357D02*
X169319047Y-99051785D01*
X169319047Y-99051785D02*
X169257143Y-99194642D01*
X169257143Y-99194642D02*
X169257143Y-99408928D01*
X169257143Y-99408928D02*
X169319047Y-99551785D01*
X169319047Y-99551785D02*
X169380952Y-99623214D01*
X169380952Y-99623214D02*
X169504762Y-99694642D01*
X169504762Y-99694642D02*
X170000000Y-99694642D01*
X168700000Y-100408928D02*
X168700000Y-98908928D01*
X168700000Y-98908928D02*
X168266666Y-99980357D01*
X168266666Y-99980357D02*
X167833333Y-98908928D01*
X167833333Y-98908928D02*
X167833333Y-100408928D01*
X119844857Y-95321428D02*
X121044857Y-95321428D01*
X119844857Y-94750000D02*
X120530571Y-95178571D01*
X121044857Y-94750000D02*
X120359142Y-95321428D01*
X120473428Y-94321428D02*
X120473428Y-93988095D01*
X119844857Y-93845238D02*
X119844857Y-94321428D01*
X119844857Y-94321428D02*
X121044857Y-94321428D01*
X121044857Y-94321428D02*
X121044857Y-93845238D01*
X120416285Y-93226190D02*
X119844857Y-93226190D01*
X121044857Y-93559523D02*
X120416285Y-93226190D01*
X120416285Y-93226190D02*
X121044857Y-92892857D01*
X119844857Y-92559523D02*
X121044857Y-92559523D01*
X121044857Y-92559523D02*
X121044857Y-92178571D01*
X121044857Y-92178571D02*
X120987714Y-92083333D01*
X120987714Y-92083333D02*
X120930571Y-92035714D01*
X120930571Y-92035714D02*
X120816285Y-91988095D01*
X120816285Y-91988095D02*
X120644857Y-91988095D01*
X120644857Y-91988095D02*
X120530571Y-92035714D01*
X120530571Y-92035714D02*
X120473428Y-92083333D01*
X120473428Y-92083333D02*
X120416285Y-92178571D01*
X120416285Y-92178571D02*
X120416285Y-92559523D01*
X120187714Y-91607142D02*
X120187714Y-91130952D01*
X119844857Y-91702380D02*
X121044857Y-91369047D01*
X121044857Y-91369047D02*
X119844857Y-91035714D01*
X119844857Y-90702380D02*
X121044857Y-90702380D01*
X121044857Y-90702380D02*
X121044857Y-90464285D01*
X121044857Y-90464285D02*
X120987714Y-90321428D01*
X120987714Y-90321428D02*
X120873428Y-90226190D01*
X120873428Y-90226190D02*
X120759142Y-90178571D01*
X120759142Y-90178571D02*
X120530571Y-90130952D01*
X120530571Y-90130952D02*
X120359142Y-90130952D01*
X120359142Y-90130952D02*
X120130571Y-90178571D01*
X120130571Y-90178571D02*
X120016285Y-90226190D01*
X120016285Y-90226190D02*
X119902000Y-90321428D01*
X119902000Y-90321428D02*
X119844857Y-90464285D01*
X119844857Y-90464285D02*
X119844857Y-90702380D01*
X156428571Y-120436948D02*
X156285714Y-120508376D01*
X156285714Y-120508376D02*
X156238095Y-120579805D01*
X156238095Y-120579805D02*
X156190476Y-120722662D01*
X156190476Y-120722662D02*
X156190476Y-120936948D01*
X156190476Y-120936948D02*
X156238095Y-121079805D01*
X156238095Y-121079805D02*
X156285714Y-121151234D01*
X156285714Y-121151234D02*
X156380952Y-121222662D01*
X156380952Y-121222662D02*
X156761904Y-121222662D01*
X156761904Y-121222662D02*
X156761904Y-119722662D01*
X156761904Y-119722662D02*
X156428571Y-119722662D01*
X156428571Y-119722662D02*
X156333333Y-119794091D01*
X156333333Y-119794091D02*
X156285714Y-119865519D01*
X156285714Y-119865519D02*
X156238095Y-120008376D01*
X156238095Y-120008376D02*
X156238095Y-120151234D01*
X156238095Y-120151234D02*
X156285714Y-120294091D01*
X156285714Y-120294091D02*
X156333333Y-120365519D01*
X156333333Y-120365519D02*
X156428571Y-120436948D01*
X156428571Y-120436948D02*
X156761904Y-120436948D01*
X110144857Y-112261904D02*
X110144857Y-111690476D01*
X108944857Y-111976190D02*
X110144857Y-111976190D01*
X110144857Y-111452380D02*
X108944857Y-110785714D01*
X110144857Y-110785714D02*
X108944857Y-111452380D01*
X152444857Y-85142857D02*
X153016285Y-85476190D01*
X152444857Y-85714285D02*
X153644857Y-85714285D01*
X153644857Y-85714285D02*
X153644857Y-85333333D01*
X153644857Y-85333333D02*
X153587714Y-85238095D01*
X153587714Y-85238095D02*
X153530571Y-85190476D01*
X153530571Y-85190476D02*
X153416285Y-85142857D01*
X153416285Y-85142857D02*
X153244857Y-85142857D01*
X153244857Y-85142857D02*
X153130571Y-85190476D01*
X153130571Y-85190476D02*
X153073428Y-85238095D01*
X153073428Y-85238095D02*
X153016285Y-85333333D01*
X153016285Y-85333333D02*
X153016285Y-85714285D01*
X153644857Y-84809523D02*
X152444857Y-84142857D01*
X153644857Y-84142857D02*
X152444857Y-84809523D01*
D13*
X109390476Y-78243928D02*
X109390476Y-79458214D01*
X109390476Y-79458214D02*
X109328571Y-79601071D01*
X109328571Y-79601071D02*
X109266666Y-79672500D01*
X109266666Y-79672500D02*
X109142857Y-79743928D01*
X109142857Y-79743928D02*
X108895238Y-79743928D01*
X108895238Y-79743928D02*
X108771428Y-79672500D01*
X108771428Y-79672500D02*
X108709523Y-79601071D01*
X108709523Y-79601071D02*
X108647619Y-79458214D01*
X108647619Y-79458214D02*
X108647619Y-78243928D01*
X108090475Y-79672500D02*
X107904761Y-79743928D01*
X107904761Y-79743928D02*
X107595237Y-79743928D01*
X107595237Y-79743928D02*
X107471428Y-79672500D01*
X107471428Y-79672500D02*
X107409523Y-79601071D01*
X107409523Y-79601071D02*
X107347618Y-79458214D01*
X107347618Y-79458214D02*
X107347618Y-79315357D01*
X107347618Y-79315357D02*
X107409523Y-79172500D01*
X107409523Y-79172500D02*
X107471428Y-79101071D01*
X107471428Y-79101071D02*
X107595237Y-79029642D01*
X107595237Y-79029642D02*
X107842856Y-78958214D01*
X107842856Y-78958214D02*
X107966666Y-78886785D01*
X107966666Y-78886785D02*
X108028571Y-78815357D01*
X108028571Y-78815357D02*
X108090475Y-78672500D01*
X108090475Y-78672500D02*
X108090475Y-78529642D01*
X108090475Y-78529642D02*
X108028571Y-78386785D01*
X108028571Y-78386785D02*
X107966666Y-78315357D01*
X107966666Y-78315357D02*
X107842856Y-78243928D01*
X107842856Y-78243928D02*
X107533333Y-78243928D01*
X107533333Y-78243928D02*
X107347618Y-78315357D01*
X106357142Y-78958214D02*
X106171428Y-79029642D01*
X106171428Y-79029642D02*
X106109523Y-79101071D01*
X106109523Y-79101071D02*
X106047619Y-79243928D01*
X106047619Y-79243928D02*
X106047619Y-79458214D01*
X106047619Y-79458214D02*
X106109523Y-79601071D01*
X106109523Y-79601071D02*
X106171428Y-79672500D01*
X106171428Y-79672500D02*
X106295238Y-79743928D01*
X106295238Y-79743928D02*
X106790476Y-79743928D01*
X106790476Y-79743928D02*
X106790476Y-78243928D01*
X106790476Y-78243928D02*
X106357142Y-78243928D01*
X106357142Y-78243928D02*
X106233333Y-78315357D01*
X106233333Y-78315357D02*
X106171428Y-78386785D01*
X106171428Y-78386785D02*
X106109523Y-78529642D01*
X106109523Y-78529642D02*
X106109523Y-78672500D01*
X106109523Y-78672500D02*
X106171428Y-78815357D01*
X106171428Y-78815357D02*
X106233333Y-78886785D01*
X106233333Y-78886785D02*
X106357142Y-78958214D01*
X106357142Y-78958214D02*
X106790476Y-78958214D01*
D11*
X158702000Y-105214285D02*
X158644857Y-105071428D01*
X158644857Y-105071428D02*
X158644857Y-104833333D01*
X158644857Y-104833333D02*
X158702000Y-104738095D01*
X158702000Y-104738095D02*
X158759142Y-104690476D01*
X158759142Y-104690476D02*
X158873428Y-104642857D01*
X158873428Y-104642857D02*
X158987714Y-104642857D01*
X158987714Y-104642857D02*
X159102000Y-104690476D01*
X159102000Y-104690476D02*
X159159142Y-104738095D01*
X159159142Y-104738095D02*
X159216285Y-104833333D01*
X159216285Y-104833333D02*
X159273428Y-105023809D01*
X159273428Y-105023809D02*
X159330571Y-105119047D01*
X159330571Y-105119047D02*
X159387714Y-105166666D01*
X159387714Y-105166666D02*
X159502000Y-105214285D01*
X159502000Y-105214285D02*
X159616285Y-105214285D01*
X159616285Y-105214285D02*
X159730571Y-105166666D01*
X159730571Y-105166666D02*
X159787714Y-105119047D01*
X159787714Y-105119047D02*
X159844857Y-105023809D01*
X159844857Y-105023809D02*
X159844857Y-104785714D01*
X159844857Y-104785714D02*
X159787714Y-104642857D01*
X158644857Y-104214285D02*
X159844857Y-104214285D01*
X159844857Y-104214285D02*
X159844857Y-103976190D01*
X159844857Y-103976190D02*
X159787714Y-103833333D01*
X159787714Y-103833333D02*
X159673428Y-103738095D01*
X159673428Y-103738095D02*
X159559142Y-103690476D01*
X159559142Y-103690476D02*
X159330571Y-103642857D01*
X159330571Y-103642857D02*
X159159142Y-103642857D01*
X159159142Y-103642857D02*
X158930571Y-103690476D01*
X158930571Y-103690476D02*
X158816285Y-103738095D01*
X158816285Y-103738095D02*
X158702000Y-103833333D01*
X158702000Y-103833333D02*
X158644857Y-103976190D01*
X158644857Y-103976190D02*
X158644857Y-104214285D01*
X158987714Y-103261904D02*
X158987714Y-102785714D01*
X158644857Y-103357142D02*
X159844857Y-103023809D01*
X159844857Y-103023809D02*
X158644857Y-102690476D01*
X122261904Y-119765357D02*
X122357142Y-119693928D01*
X122357142Y-119693928D02*
X122499999Y-119693928D01*
X122499999Y-119693928D02*
X122642856Y-119765357D01*
X122642856Y-119765357D02*
X122738094Y-119908214D01*
X122738094Y-119908214D02*
X122785713Y-120051071D01*
X122785713Y-120051071D02*
X122833332Y-120336785D01*
X122833332Y-120336785D02*
X122833332Y-120551071D01*
X122833332Y-120551071D02*
X122785713Y-120836785D01*
X122785713Y-120836785D02*
X122738094Y-120979642D01*
X122738094Y-120979642D02*
X122642856Y-121122500D01*
X122642856Y-121122500D02*
X122499999Y-121193928D01*
X122499999Y-121193928D02*
X122404761Y-121193928D01*
X122404761Y-121193928D02*
X122261904Y-121122500D01*
X122261904Y-121122500D02*
X122214285Y-121051071D01*
X122214285Y-121051071D02*
X122214285Y-120551071D01*
X122214285Y-120551071D02*
X122404761Y-120551071D01*
X121785713Y-121193928D02*
X121785713Y-119693928D01*
X121785713Y-119693928D02*
X121214285Y-121193928D01*
X121214285Y-121193928D02*
X121214285Y-119693928D01*
X120738094Y-121193928D02*
X120738094Y-119693928D01*
X120738094Y-119693928D02*
X120499999Y-119693928D01*
X120499999Y-119693928D02*
X120357142Y-119765357D01*
X120357142Y-119765357D02*
X120261904Y-119908214D01*
X120261904Y-119908214D02*
X120214285Y-120051071D01*
X120214285Y-120051071D02*
X120166666Y-120336785D01*
X120166666Y-120336785D02*
X120166666Y-120551071D01*
X120166666Y-120551071D02*
X120214285Y-120836785D01*
X120214285Y-120836785D02*
X120261904Y-120979642D01*
X120261904Y-120979642D02*
X120357142Y-121122500D01*
X120357142Y-121122500D02*
X120499999Y-121193928D01*
X120499999Y-121193928D02*
X120738094Y-121193928D01*
D10*
X158821428Y-118438809D02*
X158488095Y-118438809D01*
X158345238Y-118962619D02*
X158821428Y-118962619D01*
X158821428Y-118962619D02*
X158821428Y-117962619D01*
X158821428Y-117962619D02*
X158345238Y-117962619D01*
X157916666Y-118962619D02*
X157916666Y-117962619D01*
X157916666Y-117962619D02*
X157345238Y-118962619D01*
X157345238Y-118962619D02*
X157345238Y-117962619D01*
X156297619Y-118867380D02*
X156345238Y-118915000D01*
X156345238Y-118915000D02*
X156488095Y-118962619D01*
X156488095Y-118962619D02*
X156583333Y-118962619D01*
X156583333Y-118962619D02*
X156726190Y-118915000D01*
X156726190Y-118915000D02*
X156821428Y-118819761D01*
X156821428Y-118819761D02*
X156869047Y-118724523D01*
X156869047Y-118724523D02*
X156916666Y-118534047D01*
X156916666Y-118534047D02*
X156916666Y-118391190D01*
X156916666Y-118391190D02*
X156869047Y-118200714D01*
X156869047Y-118200714D02*
X156821428Y-118105476D01*
X156821428Y-118105476D02*
X156726190Y-118010238D01*
X156726190Y-118010238D02*
X156583333Y-117962619D01*
X156583333Y-117962619D02*
X156488095Y-117962619D01*
X156488095Y-117962619D02*
X156345238Y-118010238D01*
X156345238Y-118010238D02*
X156297619Y-118057857D01*
X155678571Y-117962619D02*
X155488095Y-117962619D01*
X155488095Y-117962619D02*
X155392857Y-118010238D01*
X155392857Y-118010238D02*
X155297619Y-118105476D01*
X155297619Y-118105476D02*
X155250000Y-118295952D01*
X155250000Y-118295952D02*
X155250000Y-118629285D01*
X155250000Y-118629285D02*
X155297619Y-118819761D01*
X155297619Y-118819761D02*
X155392857Y-118915000D01*
X155392857Y-118915000D02*
X155488095Y-118962619D01*
X155488095Y-118962619D02*
X155678571Y-118962619D01*
X155678571Y-118962619D02*
X155773809Y-118915000D01*
X155773809Y-118915000D02*
X155869047Y-118819761D01*
X155869047Y-118819761D02*
X155916666Y-118629285D01*
X155916666Y-118629285D02*
X155916666Y-118295952D01*
X155916666Y-118295952D02*
X155869047Y-118105476D01*
X155869047Y-118105476D02*
X155773809Y-118010238D01*
X155773809Y-118010238D02*
X155678571Y-117962619D01*
X154821428Y-118962619D02*
X154821428Y-117962619D01*
X154821428Y-117962619D02*
X154583333Y-117962619D01*
X154583333Y-117962619D02*
X154440476Y-118010238D01*
X154440476Y-118010238D02*
X154345238Y-118105476D01*
X154345238Y-118105476D02*
X154297619Y-118200714D01*
X154297619Y-118200714D02*
X154250000Y-118391190D01*
X154250000Y-118391190D02*
X154250000Y-118534047D01*
X154250000Y-118534047D02*
X154297619Y-118724523D01*
X154297619Y-118724523D02*
X154345238Y-118819761D01*
X154345238Y-118819761D02*
X154440476Y-118915000D01*
X154440476Y-118915000D02*
X154583333Y-118962619D01*
X154583333Y-118962619D02*
X154821428Y-118962619D01*
X153821428Y-118438809D02*
X153488095Y-118438809D01*
X153345238Y-118962619D02*
X153821428Y-118962619D01*
X153821428Y-118962619D02*
X153821428Y-117962619D01*
X153821428Y-117962619D02*
X153345238Y-117962619D01*
X152345238Y-118962619D02*
X152678571Y-118486428D01*
X152916666Y-118962619D02*
X152916666Y-117962619D01*
X152916666Y-117962619D02*
X152535714Y-117962619D01*
X152535714Y-117962619D02*
X152440476Y-118010238D01*
X152440476Y-118010238D02*
X152392857Y-118057857D01*
X152392857Y-118057857D02*
X152345238Y-118153095D01*
X152345238Y-118153095D02*
X152345238Y-118295952D01*
X152345238Y-118295952D02*
X152392857Y-118391190D01*
X152392857Y-118391190D02*
X152440476Y-118438809D01*
X152440476Y-118438809D02*
X152535714Y-118486428D01*
X152535714Y-118486428D02*
X152916666Y-118486428D01*
X150630952Y-118962619D02*
X151202380Y-118962619D01*
X150916666Y-118962619D02*
X150916666Y-117962619D01*
X150916666Y-117962619D02*
X151011904Y-118105476D01*
X151011904Y-118105476D02*
X151107142Y-118200714D01*
X151107142Y-118200714D02*
X151202380Y-118248333D01*
D11*
X153644857Y-82119047D02*
X153644857Y-81547619D01*
X152444857Y-81833333D02*
X153644857Y-81833333D01*
X153644857Y-81309523D02*
X152444857Y-80642857D01*
X153644857Y-80642857D02*
X152444857Y-81309523D01*
X167680952Y-120383142D02*
X168014285Y-119811714D01*
X168252380Y-120383142D02*
X168252380Y-119183142D01*
X168252380Y-119183142D02*
X167871428Y-119183142D01*
X167871428Y-119183142D02*
X167776190Y-119240285D01*
X167776190Y-119240285D02*
X167728571Y-119297428D01*
X167728571Y-119297428D02*
X167680952Y-119411714D01*
X167680952Y-119411714D02*
X167680952Y-119583142D01*
X167680952Y-119583142D02*
X167728571Y-119697428D01*
X167728571Y-119697428D02*
X167776190Y-119754571D01*
X167776190Y-119754571D02*
X167871428Y-119811714D01*
X167871428Y-119811714D02*
X168252380Y-119811714D01*
X166871428Y-120326000D02*
X166966666Y-120383142D01*
X166966666Y-120383142D02*
X167157142Y-120383142D01*
X167157142Y-120383142D02*
X167252380Y-120326000D01*
X167252380Y-120326000D02*
X167299999Y-120211714D01*
X167299999Y-120211714D02*
X167299999Y-119754571D01*
X167299999Y-119754571D02*
X167252380Y-119640285D01*
X167252380Y-119640285D02*
X167157142Y-119583142D01*
X167157142Y-119583142D02*
X166966666Y-119583142D01*
X166966666Y-119583142D02*
X166871428Y-119640285D01*
X166871428Y-119640285D02*
X166823809Y-119754571D01*
X166823809Y-119754571D02*
X166823809Y-119868857D01*
X166823809Y-119868857D02*
X167299999Y-119983142D01*
X166490475Y-119583142D02*
X166252380Y-120383142D01*
X166252380Y-120383142D02*
X166014285Y-119583142D01*
X164538094Y-119754571D02*
X164395237Y-119811714D01*
X164395237Y-119811714D02*
X164347618Y-119868857D01*
X164347618Y-119868857D02*
X164299999Y-119983142D01*
X164299999Y-119983142D02*
X164299999Y-120154571D01*
X164299999Y-120154571D02*
X164347618Y-120268857D01*
X164347618Y-120268857D02*
X164395237Y-120326000D01*
X164395237Y-120326000D02*
X164490475Y-120383142D01*
X164490475Y-120383142D02*
X164871427Y-120383142D01*
X164871427Y-120383142D02*
X164871427Y-119183142D01*
X164871427Y-119183142D02*
X164538094Y-119183142D01*
X164538094Y-119183142D02*
X164442856Y-119240285D01*
X164442856Y-119240285D02*
X164395237Y-119297428D01*
X164395237Y-119297428D02*
X164347618Y-119411714D01*
X164347618Y-119411714D02*
X164347618Y-119526000D01*
X164347618Y-119526000D02*
X164395237Y-119640285D01*
X164395237Y-119640285D02*
X164442856Y-119697428D01*
X164442856Y-119697428D02*
X164538094Y-119754571D01*
X164538094Y-119754571D02*
X164871427Y-119754571D01*
X168299999Y-121127142D02*
X168204761Y-121127142D01*
X168204761Y-121127142D02*
X168109523Y-121184285D01*
X168109523Y-121184285D02*
X168061904Y-121241428D01*
X168061904Y-121241428D02*
X168014285Y-121355714D01*
X168014285Y-121355714D02*
X167966666Y-121584285D01*
X167966666Y-121584285D02*
X167966666Y-121870000D01*
X167966666Y-121870000D02*
X168014285Y-122098571D01*
X168014285Y-122098571D02*
X168061904Y-122212857D01*
X168061904Y-122212857D02*
X168109523Y-122270000D01*
X168109523Y-122270000D02*
X168204761Y-122327142D01*
X168204761Y-122327142D02*
X168299999Y-122327142D01*
X168299999Y-122327142D02*
X168395237Y-122270000D01*
X168395237Y-122270000D02*
X168442856Y-122212857D01*
X168442856Y-122212857D02*
X168490475Y-122098571D01*
X168490475Y-122098571D02*
X168538094Y-121870000D01*
X168538094Y-121870000D02*
X168538094Y-121584285D01*
X168538094Y-121584285D02*
X168490475Y-121355714D01*
X168490475Y-121355714D02*
X168442856Y-121241428D01*
X168442856Y-121241428D02*
X168395237Y-121184285D01*
X168395237Y-121184285D02*
X168299999Y-121127142D01*
X167109523Y-121527142D02*
X167109523Y-122327142D01*
X167347618Y-121070000D02*
X167585713Y-121927142D01*
X167585713Y-121927142D02*
X166966666Y-121927142D01*
X165871428Y-121070000D02*
X166728570Y-122612857D01*
X165585713Y-121241428D02*
X165538094Y-121184285D01*
X165538094Y-121184285D02*
X165442856Y-121127142D01*
X165442856Y-121127142D02*
X165204761Y-121127142D01*
X165204761Y-121127142D02*
X165109523Y-121184285D01*
X165109523Y-121184285D02*
X165061904Y-121241428D01*
X165061904Y-121241428D02*
X165014285Y-121355714D01*
X165014285Y-121355714D02*
X165014285Y-121470000D01*
X165014285Y-121470000D02*
X165061904Y-121641428D01*
X165061904Y-121641428D02*
X165633332Y-122327142D01*
X165633332Y-122327142D02*
X165014285Y-122327142D01*
X164680951Y-121127142D02*
X164061904Y-121127142D01*
X164061904Y-121127142D02*
X164395237Y-121584285D01*
X164395237Y-121584285D02*
X164252380Y-121584285D01*
X164252380Y-121584285D02*
X164157142Y-121641428D01*
X164157142Y-121641428D02*
X164109523Y-121698571D01*
X164109523Y-121698571D02*
X164061904Y-121812857D01*
X164061904Y-121812857D02*
X164061904Y-122098571D01*
X164061904Y-122098571D02*
X164109523Y-122212857D01*
X164109523Y-122212857D02*
X164157142Y-122270000D01*
X164157142Y-122270000D02*
X164252380Y-122327142D01*
X164252380Y-122327142D02*
X164538094Y-122327142D01*
X164538094Y-122327142D02*
X164633332Y-122270000D01*
X164633332Y-122270000D02*
X164680951Y-122212857D01*
X150261904Y-119765357D02*
X150357142Y-119693928D01*
X150357142Y-119693928D02*
X150499999Y-119693928D01*
X150499999Y-119693928D02*
X150642856Y-119765357D01*
X150642856Y-119765357D02*
X150738094Y-119908214D01*
X150738094Y-119908214D02*
X150785713Y-120051071D01*
X150785713Y-120051071D02*
X150833332Y-120336785D01*
X150833332Y-120336785D02*
X150833332Y-120551071D01*
X150833332Y-120551071D02*
X150785713Y-120836785D01*
X150785713Y-120836785D02*
X150738094Y-120979642D01*
X150738094Y-120979642D02*
X150642856Y-121122500D01*
X150642856Y-121122500D02*
X150499999Y-121193928D01*
X150499999Y-121193928D02*
X150404761Y-121193928D01*
X150404761Y-121193928D02*
X150261904Y-121122500D01*
X150261904Y-121122500D02*
X150214285Y-121051071D01*
X150214285Y-121051071D02*
X150214285Y-120551071D01*
X150214285Y-120551071D02*
X150404761Y-120551071D01*
X149785713Y-121193928D02*
X149785713Y-119693928D01*
X149785713Y-119693928D02*
X149214285Y-121193928D01*
X149214285Y-121193928D02*
X149214285Y-119693928D01*
X148738094Y-121193928D02*
X148738094Y-119693928D01*
X148738094Y-119693928D02*
X148499999Y-119693928D01*
X148499999Y-119693928D02*
X148357142Y-119765357D01*
X148357142Y-119765357D02*
X148261904Y-119908214D01*
X148261904Y-119908214D02*
X148214285Y-120051071D01*
X148214285Y-120051071D02*
X148166666Y-120336785D01*
X148166666Y-120336785D02*
X148166666Y-120551071D01*
X148166666Y-120551071D02*
X148214285Y-120836785D01*
X148214285Y-120836785D02*
X148261904Y-120979642D01*
X148261904Y-120979642D02*
X148357142Y-121122500D01*
X148357142Y-121122500D02*
X148499999Y-121193928D01*
X148499999Y-121193928D02*
X148738094Y-121193928D01*
D13*
X170788094Y-112993928D02*
X171221427Y-112279642D01*
X171530951Y-112993928D02*
X171530951Y-111493928D01*
X171530951Y-111493928D02*
X171035713Y-111493928D01*
X171035713Y-111493928D02*
X170911903Y-111565357D01*
X170911903Y-111565357D02*
X170849998Y-111636785D01*
X170849998Y-111636785D02*
X170788094Y-111779642D01*
X170788094Y-111779642D02*
X170788094Y-111993928D01*
X170788094Y-111993928D02*
X170849998Y-112136785D01*
X170849998Y-112136785D02*
X170911903Y-112208214D01*
X170911903Y-112208214D02*
X171035713Y-112279642D01*
X171035713Y-112279642D02*
X171530951Y-112279642D01*
X170230951Y-112208214D02*
X169797617Y-112208214D01*
X169611903Y-112993928D02*
X170230951Y-112993928D01*
X170230951Y-112993928D02*
X170230951Y-111493928D01*
X170230951Y-111493928D02*
X169611903Y-111493928D01*
X169116665Y-112922500D02*
X168930951Y-112993928D01*
X168930951Y-112993928D02*
X168621427Y-112993928D01*
X168621427Y-112993928D02*
X168497618Y-112922500D01*
X168497618Y-112922500D02*
X168435713Y-112851071D01*
X168435713Y-112851071D02*
X168373808Y-112708214D01*
X168373808Y-112708214D02*
X168373808Y-112565357D01*
X168373808Y-112565357D02*
X168435713Y-112422500D01*
X168435713Y-112422500D02*
X168497618Y-112351071D01*
X168497618Y-112351071D02*
X168621427Y-112279642D01*
X168621427Y-112279642D02*
X168869046Y-112208214D01*
X168869046Y-112208214D02*
X168992856Y-112136785D01*
X168992856Y-112136785D02*
X169054761Y-112065357D01*
X169054761Y-112065357D02*
X169116665Y-111922500D01*
X169116665Y-111922500D02*
X169116665Y-111779642D01*
X169116665Y-111779642D02*
X169054761Y-111636785D01*
X169054761Y-111636785D02*
X168992856Y-111565357D01*
X168992856Y-111565357D02*
X168869046Y-111493928D01*
X168869046Y-111493928D02*
X168559523Y-111493928D01*
X168559523Y-111493928D02*
X168373808Y-111565357D01*
X167816666Y-112208214D02*
X167383332Y-112208214D01*
X167197618Y-112993928D02*
X167816666Y-112993928D01*
X167816666Y-112993928D02*
X167816666Y-111493928D01*
X167816666Y-111493928D02*
X167197618Y-111493928D01*
X166826190Y-111493928D02*
X166083333Y-111493928D01*
X166454761Y-112993928D02*
X166454761Y-111493928D01*
X186576190Y-114493928D02*
X186576190Y-112993928D01*
X186576190Y-112993928D02*
X186266666Y-112993928D01*
X186266666Y-112993928D02*
X186080952Y-113065357D01*
X186080952Y-113065357D02*
X185957142Y-113208214D01*
X185957142Y-113208214D02*
X185895237Y-113351071D01*
X185895237Y-113351071D02*
X185833333Y-113636785D01*
X185833333Y-113636785D02*
X185833333Y-113851071D01*
X185833333Y-113851071D02*
X185895237Y-114136785D01*
X185895237Y-114136785D02*
X185957142Y-114279642D01*
X185957142Y-114279642D02*
X186080952Y-114422500D01*
X186080952Y-114422500D02*
X186266666Y-114493928D01*
X186266666Y-114493928D02*
X186576190Y-114493928D01*
X184533333Y-114351071D02*
X184595237Y-114422500D01*
X184595237Y-114422500D02*
X184780952Y-114493928D01*
X184780952Y-114493928D02*
X184904761Y-114493928D01*
X184904761Y-114493928D02*
X185090475Y-114422500D01*
X185090475Y-114422500D02*
X185214285Y-114279642D01*
X185214285Y-114279642D02*
X185276190Y-114136785D01*
X185276190Y-114136785D02*
X185338094Y-113851071D01*
X185338094Y-113851071D02*
X185338094Y-113636785D01*
X185338094Y-113636785D02*
X185276190Y-113351071D01*
X185276190Y-113351071D02*
X185214285Y-113208214D01*
X185214285Y-113208214D02*
X185090475Y-113065357D01*
X185090475Y-113065357D02*
X184904761Y-112993928D01*
X184904761Y-112993928D02*
X184780952Y-112993928D01*
X184780952Y-112993928D02*
X184595237Y-113065357D01*
X184595237Y-113065357D02*
X184533333Y-113136785D01*
X182985714Y-114493928D02*
X182985714Y-112993928D01*
X182366666Y-114493928D02*
X182366666Y-112993928D01*
X182366666Y-112993928D02*
X181623809Y-114493928D01*
X181623809Y-114493928D02*
X181623809Y-112993928D01*
D11*
X158702000Y-101690475D02*
X158644857Y-101547618D01*
X158644857Y-101547618D02*
X158644857Y-101309523D01*
X158644857Y-101309523D02*
X158702000Y-101214285D01*
X158702000Y-101214285D02*
X158759142Y-101166666D01*
X158759142Y-101166666D02*
X158873428Y-101119047D01*
X158873428Y-101119047D02*
X158987714Y-101119047D01*
X158987714Y-101119047D02*
X159102000Y-101166666D01*
X159102000Y-101166666D02*
X159159142Y-101214285D01*
X159159142Y-101214285D02*
X159216285Y-101309523D01*
X159216285Y-101309523D02*
X159273428Y-101499999D01*
X159273428Y-101499999D02*
X159330571Y-101595237D01*
X159330571Y-101595237D02*
X159387714Y-101642856D01*
X159387714Y-101642856D02*
X159502000Y-101690475D01*
X159502000Y-101690475D02*
X159616285Y-101690475D01*
X159616285Y-101690475D02*
X159730571Y-101642856D01*
X159730571Y-101642856D02*
X159787714Y-101595237D01*
X159787714Y-101595237D02*
X159844857Y-101499999D01*
X159844857Y-101499999D02*
X159844857Y-101261904D01*
X159844857Y-101261904D02*
X159787714Y-101119047D01*
X158759142Y-100119047D02*
X158702000Y-100166666D01*
X158702000Y-100166666D02*
X158644857Y-100309523D01*
X158644857Y-100309523D02*
X158644857Y-100404761D01*
X158644857Y-100404761D02*
X158702000Y-100547618D01*
X158702000Y-100547618D02*
X158816285Y-100642856D01*
X158816285Y-100642856D02*
X158930571Y-100690475D01*
X158930571Y-100690475D02*
X159159142Y-100738094D01*
X159159142Y-100738094D02*
X159330571Y-100738094D01*
X159330571Y-100738094D02*
X159559142Y-100690475D01*
X159559142Y-100690475D02*
X159673428Y-100642856D01*
X159673428Y-100642856D02*
X159787714Y-100547618D01*
X159787714Y-100547618D02*
X159844857Y-100404761D01*
X159844857Y-100404761D02*
X159844857Y-100309523D01*
X159844857Y-100309523D02*
X159787714Y-100166666D01*
X159787714Y-100166666D02*
X159730571Y-100119047D01*
X158644857Y-99214285D02*
X158644857Y-99690475D01*
X158644857Y-99690475D02*
X159844857Y-99690475D01*
X159844857Y-93761904D02*
X159844857Y-93190476D01*
X158644857Y-93476190D02*
X159844857Y-93476190D01*
X159844857Y-92952380D02*
X158644857Y-92285714D01*
X159844857Y-92285714D02*
X158644857Y-92952380D01*
D13*
X171064285Y-107708214D02*
X170878571Y-107779642D01*
X170878571Y-107779642D02*
X170816666Y-107851071D01*
X170816666Y-107851071D02*
X170754762Y-107993928D01*
X170754762Y-107993928D02*
X170754762Y-108208214D01*
X170754762Y-108208214D02*
X170816666Y-108351071D01*
X170816666Y-108351071D02*
X170878571Y-108422500D01*
X170878571Y-108422500D02*
X171002381Y-108493928D01*
X171002381Y-108493928D02*
X171497619Y-108493928D01*
X171497619Y-108493928D02*
X171497619Y-106993928D01*
X171497619Y-106993928D02*
X171064285Y-106993928D01*
X171064285Y-106993928D02*
X170940476Y-107065357D01*
X170940476Y-107065357D02*
X170878571Y-107136785D01*
X170878571Y-107136785D02*
X170816666Y-107279642D01*
X170816666Y-107279642D02*
X170816666Y-107422500D01*
X170816666Y-107422500D02*
X170878571Y-107565357D01*
X170878571Y-107565357D02*
X170940476Y-107636785D01*
X170940476Y-107636785D02*
X171064285Y-107708214D01*
X171064285Y-107708214D02*
X171497619Y-107708214D01*
X169950000Y-106993928D02*
X169702381Y-106993928D01*
X169702381Y-106993928D02*
X169578571Y-107065357D01*
X169578571Y-107065357D02*
X169454762Y-107208214D01*
X169454762Y-107208214D02*
X169392857Y-107493928D01*
X169392857Y-107493928D02*
X169392857Y-107993928D01*
X169392857Y-107993928D02*
X169454762Y-108279642D01*
X169454762Y-108279642D02*
X169578571Y-108422500D01*
X169578571Y-108422500D02*
X169702381Y-108493928D01*
X169702381Y-108493928D02*
X169950000Y-108493928D01*
X169950000Y-108493928D02*
X170073809Y-108422500D01*
X170073809Y-108422500D02*
X170197619Y-108279642D01*
X170197619Y-108279642D02*
X170259523Y-107993928D01*
X170259523Y-107993928D02*
X170259523Y-107493928D01*
X170259523Y-107493928D02*
X170197619Y-107208214D01*
X170197619Y-107208214D02*
X170073809Y-107065357D01*
X170073809Y-107065357D02*
X169950000Y-106993928D01*
X168588095Y-106993928D02*
X168340476Y-106993928D01*
X168340476Y-106993928D02*
X168216666Y-107065357D01*
X168216666Y-107065357D02*
X168092857Y-107208214D01*
X168092857Y-107208214D02*
X168030952Y-107493928D01*
X168030952Y-107493928D02*
X168030952Y-107993928D01*
X168030952Y-107993928D02*
X168092857Y-108279642D01*
X168092857Y-108279642D02*
X168216666Y-108422500D01*
X168216666Y-108422500D02*
X168340476Y-108493928D01*
X168340476Y-108493928D02*
X168588095Y-108493928D01*
X168588095Y-108493928D02*
X168711904Y-108422500D01*
X168711904Y-108422500D02*
X168835714Y-108279642D01*
X168835714Y-108279642D02*
X168897618Y-107993928D01*
X168897618Y-107993928D02*
X168897618Y-107493928D01*
X168897618Y-107493928D02*
X168835714Y-107208214D01*
X168835714Y-107208214D02*
X168711904Y-107065357D01*
X168711904Y-107065357D02*
X168588095Y-106993928D01*
X167659523Y-106993928D02*
X166916666Y-106993928D01*
X167288094Y-108493928D02*
X167288094Y-106993928D01*
D11*
X108944857Y-108166666D02*
X109516285Y-108499999D01*
X108944857Y-108738094D02*
X110144857Y-108738094D01*
X110144857Y-108738094D02*
X110144857Y-108357142D01*
X110144857Y-108357142D02*
X110087714Y-108261904D01*
X110087714Y-108261904D02*
X110030571Y-108214285D01*
X110030571Y-108214285D02*
X109916285Y-108166666D01*
X109916285Y-108166666D02*
X109744857Y-108166666D01*
X109744857Y-108166666D02*
X109630571Y-108214285D01*
X109630571Y-108214285D02*
X109573428Y-108261904D01*
X109573428Y-108261904D02*
X109516285Y-108357142D01*
X109516285Y-108357142D02*
X109516285Y-108738094D01*
X110144857Y-107833332D02*
X108944857Y-107166666D01*
X110144857Y-107166666D02*
X108944857Y-107833332D01*
D13*
X186290475Y-115193928D02*
X186909523Y-115193928D01*
X186909523Y-115193928D02*
X186971427Y-115908214D01*
X186971427Y-115908214D02*
X186909523Y-115836785D01*
X186909523Y-115836785D02*
X186785713Y-115765357D01*
X186785713Y-115765357D02*
X186476189Y-115765357D01*
X186476189Y-115765357D02*
X186352380Y-115836785D01*
X186352380Y-115836785D02*
X186290475Y-115908214D01*
X186290475Y-115908214D02*
X186228570Y-116051071D01*
X186228570Y-116051071D02*
X186228570Y-116408214D01*
X186228570Y-116408214D02*
X186290475Y-116551071D01*
X186290475Y-116551071D02*
X186352380Y-116622500D01*
X186352380Y-116622500D02*
X186476189Y-116693928D01*
X186476189Y-116693928D02*
X186785713Y-116693928D01*
X186785713Y-116693928D02*
X186909523Y-116622500D01*
X186909523Y-116622500D02*
X186971427Y-116551071D01*
X185671428Y-116122500D02*
X184680952Y-116122500D01*
X183380951Y-116693928D02*
X184123808Y-116693928D01*
X183752380Y-116693928D02*
X183752380Y-115193928D01*
X183752380Y-115193928D02*
X183876189Y-115408214D01*
X183876189Y-115408214D02*
X183999999Y-115551071D01*
X183999999Y-115551071D02*
X184123808Y-115622500D01*
X182885713Y-115336785D02*
X182823809Y-115265357D01*
X182823809Y-115265357D02*
X182699999Y-115193928D01*
X182699999Y-115193928D02*
X182390475Y-115193928D01*
X182390475Y-115193928D02*
X182266666Y-115265357D01*
X182266666Y-115265357D02*
X182204761Y-115336785D01*
X182204761Y-115336785D02*
X182142856Y-115479642D01*
X182142856Y-115479642D02*
X182142856Y-115622500D01*
X182142856Y-115622500D02*
X182204761Y-115836785D01*
X182204761Y-115836785D02*
X182947618Y-116693928D01*
X182947618Y-116693928D02*
X182142856Y-116693928D01*
X181771428Y-115193928D02*
X181338095Y-116693928D01*
X181338095Y-116693928D02*
X180904761Y-115193928D01*
X135242857Y-86693928D02*
X135242857Y-85193928D01*
X134500000Y-86693928D02*
X135057142Y-85836785D01*
X134500000Y-85193928D02*
X135242857Y-86051071D01*
X133942857Y-85908214D02*
X133509523Y-85908214D01*
X133323809Y-86693928D02*
X133942857Y-86693928D01*
X133942857Y-86693928D02*
X133942857Y-85193928D01*
X133942857Y-85193928D02*
X133323809Y-85193928D01*
X132519048Y-85979642D02*
X132519048Y-86693928D01*
X132952381Y-85193928D02*
X132519048Y-85979642D01*
X132519048Y-85979642D02*
X132085714Y-85193928D01*
X131652381Y-86693928D02*
X131652381Y-85193928D01*
X131652381Y-85193928D02*
X131157143Y-85193928D01*
X131157143Y-85193928D02*
X131033333Y-85265357D01*
X131033333Y-85265357D02*
X130971428Y-85336785D01*
X130971428Y-85336785D02*
X130909524Y-85479642D01*
X130909524Y-85479642D02*
X130909524Y-85693928D01*
X130909524Y-85693928D02*
X130971428Y-85836785D01*
X130971428Y-85836785D02*
X131033333Y-85908214D01*
X131033333Y-85908214D02*
X131157143Y-85979642D01*
X131157143Y-85979642D02*
X131652381Y-85979642D01*
X130414285Y-86265357D02*
X129795238Y-86265357D01*
X130538095Y-86693928D02*
X130104762Y-85193928D01*
X130104762Y-85193928D02*
X129671428Y-86693928D01*
X129238095Y-86693928D02*
X129238095Y-85193928D01*
X129238095Y-85193928D02*
X128928571Y-85193928D01*
X128928571Y-85193928D02*
X128742857Y-85265357D01*
X128742857Y-85265357D02*
X128619047Y-85408214D01*
X128619047Y-85408214D02*
X128557142Y-85551071D01*
X128557142Y-85551071D02*
X128495238Y-85836785D01*
X128495238Y-85836785D02*
X128495238Y-86051071D01*
X128495238Y-86051071D02*
X128557142Y-86336785D01*
X128557142Y-86336785D02*
X128619047Y-86479642D01*
X128619047Y-86479642D02*
X128742857Y-86622500D01*
X128742857Y-86622500D02*
X128928571Y-86693928D01*
X128928571Y-86693928D02*
X129238095Y-86693928D01*
D14*
X178411904Y-125787857D02*
X178411904Y-128216428D01*
X178411904Y-128216428D02*
X178516666Y-128502142D01*
X178516666Y-128502142D02*
X178621428Y-128645000D01*
X178621428Y-128645000D02*
X178830951Y-128787857D01*
X178830951Y-128787857D02*
X179145237Y-128787857D01*
X179145237Y-128787857D02*
X179354761Y-128645000D01*
X178411904Y-127645000D02*
X178621428Y-127787857D01*
X178621428Y-127787857D02*
X179040475Y-127787857D01*
X179040475Y-127787857D02*
X179249999Y-127645000D01*
X179249999Y-127645000D02*
X179354761Y-127502142D01*
X179354761Y-127502142D02*
X179459523Y-127216428D01*
X179459523Y-127216428D02*
X179459523Y-126359285D01*
X179459523Y-126359285D02*
X179354761Y-126073571D01*
X179354761Y-126073571D02*
X179249999Y-125930714D01*
X179249999Y-125930714D02*
X179040475Y-125787857D01*
X179040475Y-125787857D02*
X178621428Y-125787857D01*
X178621428Y-125787857D02*
X178411904Y-125930714D01*
X177364285Y-127787857D02*
X177364285Y-125787857D01*
X177364285Y-126359285D02*
X177259523Y-126073571D01*
X177259523Y-126073571D02*
X177154761Y-125930714D01*
X177154761Y-125930714D02*
X176945237Y-125787857D01*
X176945237Y-125787857D02*
X176735714Y-125787857D01*
X176002380Y-127787857D02*
X176002380Y-124787857D01*
X176002380Y-125930714D02*
X175792856Y-125787857D01*
X175792856Y-125787857D02*
X175373809Y-125787857D01*
X175373809Y-125787857D02*
X175164285Y-125930714D01*
X175164285Y-125930714D02*
X175059523Y-126073571D01*
X175059523Y-126073571D02*
X174954761Y-126359285D01*
X174954761Y-126359285D02*
X174954761Y-127216428D01*
X174954761Y-127216428D02*
X175059523Y-127502142D01*
X175059523Y-127502142D02*
X175164285Y-127645000D01*
X175164285Y-127645000D02*
X175373809Y-127787857D01*
X175373809Y-127787857D02*
X175792856Y-127787857D01*
X175792856Y-127787857D02*
X176002380Y-127645000D01*
X173697618Y-127787857D02*
X173907142Y-127645000D01*
X173907142Y-127645000D02*
X174011904Y-127359285D01*
X174011904Y-127359285D02*
X174011904Y-124787857D01*
X172859523Y-127787857D02*
X172859523Y-124787857D01*
X172859523Y-124787857D02*
X172021428Y-124787857D01*
X172021428Y-124787857D02*
X171811904Y-124930714D01*
X171811904Y-124930714D02*
X171707142Y-125073571D01*
X171707142Y-125073571D02*
X171602380Y-125359285D01*
X171602380Y-125359285D02*
X171602380Y-125787857D01*
X171602380Y-125787857D02*
X171707142Y-126073571D01*
X171707142Y-126073571D02*
X171811904Y-126216428D01*
X171811904Y-126216428D02*
X172021428Y-126359285D01*
X172021428Y-126359285D02*
X172859523Y-126359285D01*
X170764285Y-126930714D02*
X169716666Y-126930714D01*
X170973809Y-127787857D02*
X170240475Y-124787857D01*
X170240475Y-124787857D02*
X169507142Y-127787857D01*
X168773809Y-127787857D02*
X168773809Y-124787857D01*
X168773809Y-124787857D02*
X167516666Y-127787857D01*
X167516666Y-127787857D02*
X167516666Y-124787857D01*
X166469047Y-126216428D02*
X165735714Y-126216428D01*
X165421428Y-127787857D02*
X166469047Y-127787857D01*
X166469047Y-127787857D02*
X166469047Y-124787857D01*
X166469047Y-124787857D02*
X165421428Y-124787857D01*
X163430952Y-127787857D02*
X164478571Y-127787857D01*
X164478571Y-127787857D02*
X164478571Y-124787857D01*
D11*
X187904761Y-108055142D02*
X187904761Y-106855142D01*
X187904761Y-106855142D02*
X187523809Y-106855142D01*
X187523809Y-106855142D02*
X187428571Y-106912285D01*
X187428571Y-106912285D02*
X187380952Y-106969428D01*
X187380952Y-106969428D02*
X187333333Y-107083714D01*
X187333333Y-107083714D02*
X187333333Y-107255142D01*
X187333333Y-107255142D02*
X187380952Y-107369428D01*
X187380952Y-107369428D02*
X187428571Y-107426571D01*
X187428571Y-107426571D02*
X187523809Y-107483714D01*
X187523809Y-107483714D02*
X187904761Y-107483714D01*
X186999999Y-106855142D02*
X186761904Y-108055142D01*
X186761904Y-108055142D02*
X186571428Y-107198000D01*
X186571428Y-107198000D02*
X186380952Y-108055142D01*
X186380952Y-108055142D02*
X186142857Y-106855142D01*
X185190476Y-108055142D02*
X185523809Y-107483714D01*
X185761904Y-108055142D02*
X185761904Y-106855142D01*
X185761904Y-106855142D02*
X185380952Y-106855142D01*
X185380952Y-106855142D02*
X185285714Y-106912285D01*
X185285714Y-106912285D02*
X185238095Y-106969428D01*
X185238095Y-106969428D02*
X185190476Y-107083714D01*
X185190476Y-107083714D02*
X185190476Y-107255142D01*
X185190476Y-107255142D02*
X185238095Y-107369428D01*
X185238095Y-107369428D02*
X185285714Y-107426571D01*
X185285714Y-107426571D02*
X185380952Y-107483714D01*
X185380952Y-107483714D02*
X185761904Y-107483714D01*
D10*
X116821428Y-118438809D02*
X116488095Y-118438809D01*
X116345238Y-118962619D02*
X116821428Y-118962619D01*
X116821428Y-118962619D02*
X116821428Y-117962619D01*
X116821428Y-117962619D02*
X116345238Y-117962619D01*
X115916666Y-118962619D02*
X115916666Y-117962619D01*
X115916666Y-117962619D02*
X115345238Y-118962619D01*
X115345238Y-118962619D02*
X115345238Y-117962619D01*
X114297619Y-118867380D02*
X114345238Y-118915000D01*
X114345238Y-118915000D02*
X114488095Y-118962619D01*
X114488095Y-118962619D02*
X114583333Y-118962619D01*
X114583333Y-118962619D02*
X114726190Y-118915000D01*
X114726190Y-118915000D02*
X114821428Y-118819761D01*
X114821428Y-118819761D02*
X114869047Y-118724523D01*
X114869047Y-118724523D02*
X114916666Y-118534047D01*
X114916666Y-118534047D02*
X114916666Y-118391190D01*
X114916666Y-118391190D02*
X114869047Y-118200714D01*
X114869047Y-118200714D02*
X114821428Y-118105476D01*
X114821428Y-118105476D02*
X114726190Y-118010238D01*
X114726190Y-118010238D02*
X114583333Y-117962619D01*
X114583333Y-117962619D02*
X114488095Y-117962619D01*
X114488095Y-117962619D02*
X114345238Y-118010238D01*
X114345238Y-118010238D02*
X114297619Y-118057857D01*
X113678571Y-117962619D02*
X113488095Y-117962619D01*
X113488095Y-117962619D02*
X113392857Y-118010238D01*
X113392857Y-118010238D02*
X113297619Y-118105476D01*
X113297619Y-118105476D02*
X113250000Y-118295952D01*
X113250000Y-118295952D02*
X113250000Y-118629285D01*
X113250000Y-118629285D02*
X113297619Y-118819761D01*
X113297619Y-118819761D02*
X113392857Y-118915000D01*
X113392857Y-118915000D02*
X113488095Y-118962619D01*
X113488095Y-118962619D02*
X113678571Y-118962619D01*
X113678571Y-118962619D02*
X113773809Y-118915000D01*
X113773809Y-118915000D02*
X113869047Y-118819761D01*
X113869047Y-118819761D02*
X113916666Y-118629285D01*
X113916666Y-118629285D02*
X113916666Y-118295952D01*
X113916666Y-118295952D02*
X113869047Y-118105476D01*
X113869047Y-118105476D02*
X113773809Y-118010238D01*
X113773809Y-118010238D02*
X113678571Y-117962619D01*
X112821428Y-118962619D02*
X112821428Y-117962619D01*
X112821428Y-117962619D02*
X112583333Y-117962619D01*
X112583333Y-117962619D02*
X112440476Y-118010238D01*
X112440476Y-118010238D02*
X112345238Y-118105476D01*
X112345238Y-118105476D02*
X112297619Y-118200714D01*
X112297619Y-118200714D02*
X112250000Y-118391190D01*
X112250000Y-118391190D02*
X112250000Y-118534047D01*
X112250000Y-118534047D02*
X112297619Y-118724523D01*
X112297619Y-118724523D02*
X112345238Y-118819761D01*
X112345238Y-118819761D02*
X112440476Y-118915000D01*
X112440476Y-118915000D02*
X112583333Y-118962619D01*
X112583333Y-118962619D02*
X112821428Y-118962619D01*
X111821428Y-118438809D02*
X111488095Y-118438809D01*
X111345238Y-118962619D02*
X111821428Y-118962619D01*
X111821428Y-118962619D02*
X111821428Y-117962619D01*
X111821428Y-117962619D02*
X111345238Y-117962619D01*
X110345238Y-118962619D02*
X110678571Y-118486428D01*
X110916666Y-118962619D02*
X110916666Y-117962619D01*
X110916666Y-117962619D02*
X110535714Y-117962619D01*
X110535714Y-117962619D02*
X110440476Y-118010238D01*
X110440476Y-118010238D02*
X110392857Y-118057857D01*
X110392857Y-118057857D02*
X110345238Y-118153095D01*
X110345238Y-118153095D02*
X110345238Y-118295952D01*
X110345238Y-118295952D02*
X110392857Y-118391190D01*
X110392857Y-118391190D02*
X110440476Y-118438809D01*
X110440476Y-118438809D02*
X110535714Y-118486428D01*
X110535714Y-118486428D02*
X110916666Y-118486428D01*
X108726190Y-118295952D02*
X108726190Y-118962619D01*
X108964285Y-117915000D02*
X109202380Y-118629285D01*
X109202380Y-118629285D02*
X108583333Y-118629285D01*
D11*
X115502000Y-92214285D02*
X115444857Y-92071428D01*
X115444857Y-92071428D02*
X115444857Y-91833333D01*
X115444857Y-91833333D02*
X115502000Y-91738095D01*
X115502000Y-91738095D02*
X115559142Y-91690476D01*
X115559142Y-91690476D02*
X115673428Y-91642857D01*
X115673428Y-91642857D02*
X115787714Y-91642857D01*
X115787714Y-91642857D02*
X115902000Y-91690476D01*
X115902000Y-91690476D02*
X115959142Y-91738095D01*
X115959142Y-91738095D02*
X116016285Y-91833333D01*
X116016285Y-91833333D02*
X116073428Y-92023809D01*
X116073428Y-92023809D02*
X116130571Y-92119047D01*
X116130571Y-92119047D02*
X116187714Y-92166666D01*
X116187714Y-92166666D02*
X116302000Y-92214285D01*
X116302000Y-92214285D02*
X116416285Y-92214285D01*
X116416285Y-92214285D02*
X116530571Y-92166666D01*
X116530571Y-92166666D02*
X116587714Y-92119047D01*
X116587714Y-92119047D02*
X116644857Y-92023809D01*
X116644857Y-92023809D02*
X116644857Y-91785714D01*
X116644857Y-91785714D02*
X116587714Y-91642857D01*
X115444857Y-91214285D02*
X116644857Y-91214285D01*
X116644857Y-91214285D02*
X116644857Y-90976190D01*
X116644857Y-90976190D02*
X116587714Y-90833333D01*
X116587714Y-90833333D02*
X116473428Y-90738095D01*
X116473428Y-90738095D02*
X116359142Y-90690476D01*
X116359142Y-90690476D02*
X116130571Y-90642857D01*
X116130571Y-90642857D02*
X115959142Y-90642857D01*
X115959142Y-90642857D02*
X115730571Y-90690476D01*
X115730571Y-90690476D02*
X115616285Y-90738095D01*
X115616285Y-90738095D02*
X115502000Y-90833333D01*
X115502000Y-90833333D02*
X115444857Y-90976190D01*
X115444857Y-90976190D02*
X115444857Y-91214285D01*
X115787714Y-90261904D02*
X115787714Y-89785714D01*
X115444857Y-90357142D02*
X116644857Y-90023809D01*
X116644857Y-90023809D02*
X115444857Y-89690476D01*
D15*
X182015000Y-106765000D02*
X184300000Y-106765000D01*
X182015000Y-108235000D02*
X182015000Y-106765000D01*
X184300000Y-108235000D02*
X182015000Y-108235000D01*
X152485000Y-113985000D02*
X150200000Y-113985000D01*
X152485000Y-112515000D02*
X152485000Y-113985000D01*
X150200000Y-112515000D02*
X152485000Y-112515000D01*
X120050000Y-129800000D02*
X119650000Y-129800000D01*
X120050000Y-129160000D02*
X120050000Y-129800000D01*
X119810000Y-129560000D02*
X105690000Y-129560000D01*
X119810000Y-129100000D02*
X105690000Y-129100000D01*
X119810000Y-128000000D02*
X105690000Y-128000000D01*
X119810000Y-121840000D02*
X119810000Y-129560000D01*
X119810000Y-121840000D02*
X105690000Y-121840000D01*
X115645000Y-125941000D02*
X115774000Y-126069000D01*
X115475000Y-126181000D02*
X115569000Y-126274000D01*
X113430000Y-123725000D02*
X113524000Y-123819000D01*
X113225000Y-123931000D02*
X113354000Y-124059000D01*
X112145000Y-125941000D02*
X112274000Y-126069000D01*
X111975000Y-126181000D02*
X112069000Y-126274000D01*
X109930000Y-123725000D02*
X110024000Y-123819000D01*
X109725000Y-123931000D02*
X109854000Y-124059000D01*
X108645000Y-125941000D02*
X108774000Y-126069000D01*
X108475000Y-126181000D02*
X108569000Y-126274000D01*
X106430000Y-123725000D02*
X106524000Y-123819000D01*
X106225000Y-123931000D02*
X106354000Y-124059000D01*
X105690000Y-121840000D02*
X105690000Y-129560000D01*
X119425358Y-125889894D02*
G75*
G03*
X119440000Y-124134000I-1425356J889894D01*
G01*
X117971326Y-126680098D02*
G75*
G03*
X118866000Y-126440000I28671J1680112D01*
G01*
X117109736Y-126424721D02*
G75*
G03*
X118000000Y-126680000I890261J1424711D01*
G01*
X118889894Y-123574642D02*
G75*
G03*
X117134000Y-123560000I-889894J-1425356D01*
G01*
X116574496Y-124109807D02*
G75*
G03*
X116575000Y-125891000I1425507J-890193D01*
G01*
X116180000Y-125000000D02*
G75*
G03*
X116180000Y-125000000I-1680000J0D01*
G01*
X112680000Y-125000000D02*
G75*
G03*
X112680000Y-125000000I-1680000J0D01*
G01*
X109180000Y-125000000D02*
G75*
G03*
X109180000Y-125000000I-1680000J0D01*
G01*
X178580000Y-97170000D02*
X178580000Y-99830000D01*
X175980000Y-97170000D02*
X178580000Y-97170000D01*
X175980000Y-97170000D02*
X175980000Y-99830000D01*
X174710000Y-97170000D02*
X173380000Y-97170000D01*
X173380000Y-97170000D02*
X173380000Y-98500000D01*
X175980000Y-99830000D02*
X178580000Y-99830000D01*
X176800000Y-114000000D02*
X172400000Y-114000000D01*
X176800000Y-113880000D02*
X176800000Y-114000000D01*
X176800000Y-111730000D02*
X176800000Y-112870000D01*
X176800000Y-110600000D02*
X176800000Y-110720000D01*
X172400000Y-114000000D02*
X172400000Y-113880000D01*
X172400000Y-112870000D02*
X172400000Y-111730000D01*
X172400000Y-110720000D02*
X172400000Y-110600000D01*
X172400000Y-110600000D02*
X176800000Y-110600000D01*
D16*
X175865100Y-115403180D02*
X175969240Y-115408260D01*
X176045440Y-115413340D01*
X176075920Y-115418420D01*
X176075920Y-115420960D01*
X176088620Y-115461600D01*
X176106400Y-115545420D01*
X176129260Y-115659720D01*
X176157200Y-115796880D01*
X176162280Y-115822280D01*
X176185140Y-115954360D01*
X176208000Y-116061040D01*
X176223240Y-116137240D01*
X176233400Y-116165180D01*
X176243560Y-116172800D01*
X176299440Y-116195660D01*
X176388340Y-116233760D01*
X176497560Y-116276940D01*
X176751560Y-116381080D01*
X177063980Y-116165180D01*
X177094460Y-116147400D01*
X177206220Y-116071200D01*
X177297660Y-116007700D01*
X177361160Y-115967060D01*
X177389100Y-115951820D01*
X177391640Y-115954360D01*
X177422120Y-115979760D01*
X177483080Y-116038180D01*
X177569440Y-116122000D01*
X177665960Y-116218520D01*
X177739620Y-116292180D01*
X177825980Y-116378540D01*
X177879320Y-116436960D01*
X177909800Y-116475060D01*
X177919960Y-116497920D01*
X177917420Y-116513160D01*
X177897100Y-116546180D01*
X177851380Y-116614760D01*
X177787880Y-116708740D01*
X177711680Y-116820500D01*
X177648180Y-116911940D01*
X177582140Y-117016080D01*
X177536420Y-117092280D01*
X177521180Y-117127840D01*
X177526260Y-117143080D01*
X177546580Y-117204040D01*
X177584680Y-117298020D01*
X177630400Y-117407240D01*
X177739620Y-117653620D01*
X177902180Y-117686640D01*
X178001240Y-117704420D01*
X178138400Y-117729820D01*
X178267940Y-117755220D01*
X178473680Y-117795860D01*
X178481300Y-118547700D01*
X178450820Y-118562940D01*
X178420340Y-118570560D01*
X178344140Y-118588340D01*
X178234920Y-118608660D01*
X178107920Y-118634060D01*
X177998700Y-118654380D01*
X177886940Y-118674700D01*
X177808200Y-118689940D01*
X177772640Y-118697560D01*
X177765020Y-118707720D01*
X177737080Y-118761060D01*
X177698980Y-118847420D01*
X177655800Y-118949020D01*
X177610080Y-119053160D01*
X177571980Y-119152220D01*
X177544040Y-119225880D01*
X177533880Y-119263980D01*
X177549120Y-119291920D01*
X177592300Y-119357960D01*
X177653260Y-119449400D01*
X177726920Y-119558620D01*
X177800580Y-119667840D01*
X177864080Y-119761820D01*
X177907260Y-119827860D01*
X177927580Y-119858340D01*
X177917420Y-119881200D01*
X177874240Y-119932000D01*
X177790420Y-120018360D01*
X177668500Y-120140280D01*
X177648180Y-120158060D01*
X177551660Y-120252040D01*
X177467840Y-120328240D01*
X177411960Y-120379040D01*
X177386560Y-120399360D01*
X177356080Y-120384120D01*
X177292580Y-120343480D01*
X177198600Y-120282520D01*
X177089380Y-120208860D01*
X176977620Y-120132660D01*
X176888720Y-120071700D01*
X176825220Y-120031060D01*
X176797280Y-120018360D01*
X176784580Y-120023440D01*
X176731240Y-120048840D01*
X176655040Y-120086940D01*
X176611860Y-120109800D01*
X176540740Y-120140280D01*
X176507720Y-120145360D01*
X176500100Y-120137740D01*
X176474700Y-120084400D01*
X176436600Y-119992960D01*
X176383260Y-119871040D01*
X176322300Y-119731340D01*
X176258800Y-119578940D01*
X176192760Y-119424000D01*
X176131800Y-119274140D01*
X176078460Y-119142060D01*
X176035280Y-119032840D01*
X176004800Y-118959180D01*
X175994640Y-118926160D01*
X175997180Y-118918540D01*
X176032740Y-118885520D01*
X176093700Y-118839800D01*
X176225780Y-118733120D01*
X176355320Y-118570560D01*
X176434060Y-118385140D01*
X176462000Y-118181940D01*
X176439140Y-117991440D01*
X176362940Y-117808560D01*
X176235940Y-117646000D01*
X176083540Y-117524080D01*
X175903200Y-117445340D01*
X175700000Y-117422480D01*
X175506960Y-117442800D01*
X175321540Y-117516460D01*
X175156440Y-117640920D01*
X175087860Y-117722200D01*
X174991340Y-117887300D01*
X174938000Y-118065100D01*
X174930380Y-118110820D01*
X174940540Y-118306400D01*
X174996420Y-118491820D01*
X175100560Y-118659460D01*
X175242800Y-118796620D01*
X175260580Y-118811860D01*
X175329160Y-118860120D01*
X175372340Y-118895680D01*
X175407900Y-118923620D01*
X175158980Y-119523060D01*
X175118340Y-119617040D01*
X175049760Y-119782140D01*
X174991340Y-119921840D01*
X174943080Y-120033600D01*
X174910060Y-120109800D01*
X174894820Y-120140280D01*
X174892280Y-120140280D01*
X174871960Y-120145360D01*
X174826240Y-120127580D01*
X174742420Y-120086940D01*
X174686540Y-120059000D01*
X174623040Y-120028520D01*
X174595100Y-120018360D01*
X174569700Y-120031060D01*
X174508740Y-120069160D01*
X174419840Y-120130120D01*
X174313160Y-120203780D01*
X174211560Y-120272360D01*
X174117580Y-120333320D01*
X174049000Y-120376500D01*
X174015980Y-120394280D01*
X174010900Y-120394280D01*
X173980420Y-120379040D01*
X173927080Y-120333320D01*
X173845800Y-120257120D01*
X173728960Y-120142820D01*
X173711180Y-120125040D01*
X173617200Y-120028520D01*
X173541000Y-119947240D01*
X173487660Y-119891360D01*
X173469880Y-119863420D01*
X173487660Y-119830400D01*
X173530840Y-119764360D01*
X173591800Y-119667840D01*
X173668000Y-119556080D01*
X173866120Y-119269060D01*
X173756900Y-118997280D01*
X173723880Y-118913460D01*
X173680700Y-118811860D01*
X173650220Y-118740740D01*
X173634980Y-118707720D01*
X173604500Y-118697560D01*
X173530840Y-118679780D01*
X173421620Y-118656920D01*
X173292080Y-118634060D01*
X173170160Y-118611200D01*
X173060940Y-118590880D01*
X172979660Y-118575640D01*
X172944100Y-118568020D01*
X172933940Y-118562940D01*
X172928860Y-118545160D01*
X172923780Y-118507060D01*
X172921240Y-118441020D01*
X172918700Y-118334340D01*
X172918700Y-118181940D01*
X172918700Y-118164160D01*
X172921240Y-118016840D01*
X172923780Y-117902540D01*
X172926320Y-117826340D01*
X172931400Y-117795860D01*
X172966960Y-117788240D01*
X173045700Y-117770460D01*
X173154920Y-117750140D01*
X173287000Y-117724740D01*
X173297160Y-117722200D01*
X173426700Y-117696800D01*
X173538460Y-117673940D01*
X173614660Y-117656160D01*
X173647680Y-117646000D01*
X173655300Y-117635840D01*
X173680700Y-117585040D01*
X173718800Y-117503760D01*
X173761980Y-117404700D01*
X173805160Y-117300560D01*
X173843260Y-117209120D01*
X173868660Y-117138000D01*
X173876280Y-117107520D01*
X173873740Y-117107520D01*
X173855960Y-117074500D01*
X173810240Y-117005920D01*
X173746740Y-116911940D01*
X173668000Y-116800180D01*
X173662920Y-116792560D01*
X173586720Y-116680800D01*
X173525760Y-116586820D01*
X173485120Y-116518240D01*
X173469880Y-116487760D01*
X173495280Y-116454740D01*
X173551160Y-116391240D01*
X173632440Y-116304880D01*
X173731500Y-116208360D01*
X173761980Y-116177880D01*
X173868660Y-116071200D01*
X173944860Y-116002620D01*
X173990580Y-115964520D01*
X174013440Y-115956900D01*
X174015980Y-115956900D01*
X174049000Y-115977220D01*
X174117580Y-116022940D01*
X174214100Y-116088980D01*
X174325860Y-116165180D01*
X174333480Y-116170260D01*
X174445240Y-116246460D01*
X174539220Y-116309960D01*
X174605260Y-116353140D01*
X174633200Y-116370920D01*
X174638280Y-116370920D01*
X174684000Y-116355680D01*
X174762740Y-116327740D01*
X174859260Y-116292180D01*
X174963400Y-116249000D01*
X175054840Y-116210900D01*
X175125960Y-116177880D01*
X175158980Y-116160100D01*
X175158980Y-116157560D01*
X175171680Y-116119460D01*
X175192000Y-116035640D01*
X175214860Y-115921340D01*
X175240260Y-115784180D01*
X175245340Y-115761320D01*
X175270740Y-115629240D01*
X175291060Y-115520020D01*
X175306300Y-115443820D01*
X175313920Y-115413340D01*
X175334240Y-115408260D01*
X175397740Y-115403180D01*
X175496800Y-115400640D01*
X175616180Y-115400640D01*
X175740640Y-115400640D01*
X175865100Y-115403180D01*
G36*
X175865100Y-115403180D02*
G01*
X175969240Y-115408260D01*
X176045440Y-115413340D01*
X176075920Y-115418420D01*
X176075920Y-115420960D01*
X176088620Y-115461600D01*
X176106400Y-115545420D01*
X176129260Y-115659720D01*
X176157200Y-115796880D01*
X176162280Y-115822280D01*
X176185140Y-115954360D01*
X176208000Y-116061040D01*
X176223240Y-116137240D01*
X176233400Y-116165180D01*
X176243560Y-116172800D01*
X176299440Y-116195660D01*
X176388340Y-116233760D01*
X176497560Y-116276940D01*
X176751560Y-116381080D01*
X177063980Y-116165180D01*
X177094460Y-116147400D01*
X177206220Y-116071200D01*
X177297660Y-116007700D01*
X177361160Y-115967060D01*
X177389100Y-115951820D01*
X177391640Y-115954360D01*
X177422120Y-115979760D01*
X177483080Y-116038180D01*
X177569440Y-116122000D01*
X177665960Y-116218520D01*
X177739620Y-116292180D01*
X177825980Y-116378540D01*
X177879320Y-116436960D01*
X177909800Y-116475060D01*
X177919960Y-116497920D01*
X177917420Y-116513160D01*
X177897100Y-116546180D01*
X177851380Y-116614760D01*
X177787880Y-116708740D01*
X177711680Y-116820500D01*
X177648180Y-116911940D01*
X177582140Y-117016080D01*
X177536420Y-117092280D01*
X177521180Y-117127840D01*
X177526260Y-117143080D01*
X177546580Y-117204040D01*
X177584680Y-117298020D01*
X177630400Y-117407240D01*
X177739620Y-117653620D01*
X177902180Y-117686640D01*
X178001240Y-117704420D01*
X178138400Y-117729820D01*
X178267940Y-117755220D01*
X178473680Y-117795860D01*
X178481300Y-118547700D01*
X178450820Y-118562940D01*
X178420340Y-118570560D01*
X178344140Y-118588340D01*
X178234920Y-118608660D01*
X178107920Y-118634060D01*
X177998700Y-118654380D01*
X177886940Y-118674700D01*
X177808200Y-118689940D01*
X177772640Y-118697560D01*
X177765020Y-118707720D01*
X177737080Y-118761060D01*
X177698980Y-118847420D01*
X177655800Y-118949020D01*
X177610080Y-119053160D01*
X177571980Y-119152220D01*
X177544040Y-119225880D01*
X177533880Y-119263980D01*
X177549120Y-119291920D01*
X177592300Y-119357960D01*
X177653260Y-119449400D01*
X177726920Y-119558620D01*
X177800580Y-119667840D01*
X177864080Y-119761820D01*
X177907260Y-119827860D01*
X177927580Y-119858340D01*
X177917420Y-119881200D01*
X177874240Y-119932000D01*
X177790420Y-120018360D01*
X177668500Y-120140280D01*
X177648180Y-120158060D01*
X177551660Y-120252040D01*
X177467840Y-120328240D01*
X177411960Y-120379040D01*
X177386560Y-120399360D01*
X177356080Y-120384120D01*
X177292580Y-120343480D01*
X177198600Y-120282520D01*
X177089380Y-120208860D01*
X176977620Y-120132660D01*
X176888720Y-120071700D01*
X176825220Y-120031060D01*
X176797280Y-120018360D01*
X176784580Y-120023440D01*
X176731240Y-120048840D01*
X176655040Y-120086940D01*
X176611860Y-120109800D01*
X176540740Y-120140280D01*
X176507720Y-120145360D01*
X176500100Y-120137740D01*
X176474700Y-120084400D01*
X176436600Y-119992960D01*
X176383260Y-119871040D01*
X176322300Y-119731340D01*
X176258800Y-119578940D01*
X176192760Y-119424000D01*
X176131800Y-119274140D01*
X176078460Y-119142060D01*
X176035280Y-119032840D01*
X176004800Y-118959180D01*
X175994640Y-118926160D01*
X175997180Y-118918540D01*
X176032740Y-118885520D01*
X176093700Y-118839800D01*
X176225780Y-118733120D01*
X176355320Y-118570560D01*
X176434060Y-118385140D01*
X176462000Y-118181940D01*
X176439140Y-117991440D01*
X176362940Y-117808560D01*
X176235940Y-117646000D01*
X176083540Y-117524080D01*
X175903200Y-117445340D01*
X175700000Y-117422480D01*
X175506960Y-117442800D01*
X175321540Y-117516460D01*
X175156440Y-117640920D01*
X175087860Y-117722200D01*
X174991340Y-117887300D01*
X174938000Y-118065100D01*
X174930380Y-118110820D01*
X174940540Y-118306400D01*
X174996420Y-118491820D01*
X175100560Y-118659460D01*
X175242800Y-118796620D01*
X175260580Y-118811860D01*
X175329160Y-118860120D01*
X175372340Y-118895680D01*
X175407900Y-118923620D01*
X175158980Y-119523060D01*
X175118340Y-119617040D01*
X175049760Y-119782140D01*
X174991340Y-119921840D01*
X174943080Y-120033600D01*
X174910060Y-120109800D01*
X174894820Y-120140280D01*
X174892280Y-120140280D01*
X174871960Y-120145360D01*
X174826240Y-120127580D01*
X174742420Y-120086940D01*
X174686540Y-120059000D01*
X174623040Y-120028520D01*
X174595100Y-120018360D01*
X174569700Y-120031060D01*
X174508740Y-120069160D01*
X174419840Y-120130120D01*
X174313160Y-120203780D01*
X174211560Y-120272360D01*
X174117580Y-120333320D01*
X174049000Y-120376500D01*
X174015980Y-120394280D01*
X174010900Y-120394280D01*
X173980420Y-120379040D01*
X173927080Y-120333320D01*
X173845800Y-120257120D01*
X173728960Y-120142820D01*
X173711180Y-120125040D01*
X173617200Y-120028520D01*
X173541000Y-119947240D01*
X173487660Y-119891360D01*
X173469880Y-119863420D01*
X173487660Y-119830400D01*
X173530840Y-119764360D01*
X173591800Y-119667840D01*
X173668000Y-119556080D01*
X173866120Y-119269060D01*
X173756900Y-118997280D01*
X173723880Y-118913460D01*
X173680700Y-118811860D01*
X173650220Y-118740740D01*
X173634980Y-118707720D01*
X173604500Y-118697560D01*
X173530840Y-118679780D01*
X173421620Y-118656920D01*
X173292080Y-118634060D01*
X173170160Y-118611200D01*
X173060940Y-118590880D01*
X172979660Y-118575640D01*
X172944100Y-118568020D01*
X172933940Y-118562940D01*
X172928860Y-118545160D01*
X172923780Y-118507060D01*
X172921240Y-118441020D01*
X172918700Y-118334340D01*
X172918700Y-118181940D01*
X172918700Y-118164160D01*
X172921240Y-118016840D01*
X172923780Y-117902540D01*
X172926320Y-117826340D01*
X172931400Y-117795860D01*
X172966960Y-117788240D01*
X173045700Y-117770460D01*
X173154920Y-117750140D01*
X173287000Y-117724740D01*
X173297160Y-117722200D01*
X173426700Y-117696800D01*
X173538460Y-117673940D01*
X173614660Y-117656160D01*
X173647680Y-117646000D01*
X173655300Y-117635840D01*
X173680700Y-117585040D01*
X173718800Y-117503760D01*
X173761980Y-117404700D01*
X173805160Y-117300560D01*
X173843260Y-117209120D01*
X173868660Y-117138000D01*
X173876280Y-117107520D01*
X173873740Y-117107520D01*
X173855960Y-117074500D01*
X173810240Y-117005920D01*
X173746740Y-116911940D01*
X173668000Y-116800180D01*
X173662920Y-116792560D01*
X173586720Y-116680800D01*
X173525760Y-116586820D01*
X173485120Y-116518240D01*
X173469880Y-116487760D01*
X173495280Y-116454740D01*
X173551160Y-116391240D01*
X173632440Y-116304880D01*
X173731500Y-116208360D01*
X173761980Y-116177880D01*
X173868660Y-116071200D01*
X173944860Y-116002620D01*
X173990580Y-115964520D01*
X174013440Y-115956900D01*
X174015980Y-115956900D01*
X174049000Y-115977220D01*
X174117580Y-116022940D01*
X174214100Y-116088980D01*
X174325860Y-116165180D01*
X174333480Y-116170260D01*
X174445240Y-116246460D01*
X174539220Y-116309960D01*
X174605260Y-116353140D01*
X174633200Y-116370920D01*
X174638280Y-116370920D01*
X174684000Y-116355680D01*
X174762740Y-116327740D01*
X174859260Y-116292180D01*
X174963400Y-116249000D01*
X175054840Y-116210900D01*
X175125960Y-116177880D01*
X175158980Y-116160100D01*
X175158980Y-116157560D01*
X175171680Y-116119460D01*
X175192000Y-116035640D01*
X175214860Y-115921340D01*
X175240260Y-115784180D01*
X175245340Y-115761320D01*
X175270740Y-115629240D01*
X175291060Y-115520020D01*
X175306300Y-115443820D01*
X175313920Y-115413340D01*
X175334240Y-115408260D01*
X175397740Y-115403180D01*
X175496800Y-115400640D01*
X175616180Y-115400640D01*
X175740640Y-115400640D01*
X175865100Y-115403180D01*
G37*
D15*
X182015000Y-109765000D02*
X184300000Y-109765000D01*
X182015000Y-111235000D02*
X182015000Y-109765000D01*
X184300000Y-111235000D02*
X182015000Y-111235000D01*
X162050000Y-129800000D02*
X161650000Y-129800000D01*
X162050000Y-129160000D02*
X162050000Y-129800000D01*
X161810000Y-129560000D02*
X147690000Y-129560000D01*
X161810000Y-129100000D02*
X147690000Y-129100000D01*
X161810000Y-128000000D02*
X147690000Y-128000000D01*
X161810000Y-121840000D02*
X161810000Y-129560000D01*
X161810000Y-121840000D02*
X147690000Y-121840000D01*
X157645000Y-125941000D02*
X157774000Y-126069000D01*
X157475000Y-126181000D02*
X157569000Y-126274000D01*
X155430000Y-123725000D02*
X155524000Y-123819000D01*
X155225000Y-123931000D02*
X155354000Y-124059000D01*
X154145000Y-125941000D02*
X154274000Y-126069000D01*
X153975000Y-126181000D02*
X154069000Y-126274000D01*
X151930000Y-123725000D02*
X152024000Y-123819000D01*
X151725000Y-123931000D02*
X151854000Y-124059000D01*
X150645000Y-125941000D02*
X150774000Y-126069000D01*
X150475000Y-126181000D02*
X150569000Y-126274000D01*
X148430000Y-123725000D02*
X148524000Y-123819000D01*
X148225000Y-123931000D02*
X148354000Y-124059000D01*
X147690000Y-121840000D02*
X147690000Y-129560000D01*
X161425358Y-125889894D02*
G75*
G03*
X161440000Y-124134000I-1425356J889894D01*
G01*
X159971326Y-126680098D02*
G75*
G03*
X160866000Y-126440000I28671J1680112D01*
G01*
X159109736Y-126424721D02*
G75*
G03*
X160000000Y-126680000I890261J1424711D01*
G01*
X160889894Y-123574642D02*
G75*
G03*
X159134000Y-123560000I-889894J-1425356D01*
G01*
X158574496Y-124109807D02*
G75*
G03*
X158575000Y-125891000I1425507J-890193D01*
G01*
X158180000Y-125000000D02*
G75*
G03*
X158180000Y-125000000I-1680000J0D01*
G01*
X154680000Y-125000000D02*
G75*
G03*
X154680000Y-125000000I-1680000J0D01*
G01*
X151180000Y-125000000D02*
G75*
G03*
X151180000Y-125000000I-1680000J0D01*
G01*
X178595000Y-81870000D02*
X178595000Y-84530000D01*
X175995000Y-81870000D02*
X178595000Y-81870000D01*
X175995000Y-81870000D02*
X175995000Y-84530000D01*
X174725000Y-81870000D02*
X173395000Y-81870000D01*
X173395000Y-81870000D02*
X173395000Y-83200000D01*
X175995000Y-84530000D02*
X178595000Y-84530000D01*
X188800000Y-79400000D02*
X188800000Y-79800000D01*
X188160000Y-79400000D02*
X188800000Y-79400000D01*
X188560000Y-79640000D02*
X188560000Y-86760000D01*
X188100000Y-79640000D02*
X188100000Y-86760000D01*
X187000000Y-79640000D02*
X187000000Y-86760000D01*
X180840000Y-79640000D02*
X188560000Y-79640000D01*
X180840000Y-79640000D02*
X180840000Y-86760000D01*
X184941000Y-83805000D02*
X185069000Y-83676000D01*
X185181000Y-83975000D02*
X185274000Y-83881000D01*
X182725000Y-86020000D02*
X182819000Y-85926000D01*
X182931000Y-86225000D02*
X183059000Y-86096000D01*
X180840000Y-86760000D02*
X188560000Y-86760000D01*
X184889894Y-80024642D02*
G75*
G03*
X183134000Y-80010000I-889894J-1425356D01*
G01*
X185680098Y-81478674D02*
G75*
G03*
X185440000Y-80584000I-1680112J28671D01*
G01*
X185424721Y-82340264D02*
G75*
G03*
X185680000Y-81450000I-1424711J890261D01*
G01*
X182574642Y-80560106D02*
G75*
G03*
X182560000Y-82316000I1425356J-889894D01*
G01*
X183109807Y-82875504D02*
G75*
G03*
X184891000Y-82875000I890193J1425507D01*
G01*
X185680000Y-84950000D02*
G75*
G03*
X185680000Y-84950000I-1680000J0D01*
G01*
D10*
X113200000Y-95500000D02*
X113200000Y-103500000D01*
X106800000Y-103500000D02*
X113200000Y-103500000D01*
X106800000Y-95500000D02*
X113200000Y-95500000D01*
X106800000Y-95500000D02*
X106800000Y-103500000D01*
D15*
X108700000Y-111500000D02*
G75*
G03*
X108700000Y-111500000I-1200000J0D01*
G01*
X108700000Y-108000000D02*
G75*
G03*
X108700000Y-108000000I-1200000J0D01*
G01*
X188800000Y-116900000D02*
X188800000Y-117300000D01*
X188160000Y-116900000D02*
X188800000Y-116900000D01*
X188560000Y-117140000D02*
X188560000Y-124260000D01*
X188100000Y-117140000D02*
X188100000Y-124260000D01*
X187000000Y-117140000D02*
X187000000Y-124260000D01*
X180840000Y-117140000D02*
X188560000Y-117140000D01*
X180840000Y-117140000D02*
X180840000Y-124260000D01*
X184941000Y-121305000D02*
X185069000Y-121176000D01*
X185181000Y-121475000D02*
X185274000Y-121381000D01*
X182725000Y-123520000D02*
X182819000Y-123426000D01*
X182931000Y-123725000D02*
X183059000Y-123596000D01*
X180840000Y-124260000D02*
X188560000Y-124260000D01*
X184889894Y-117524642D02*
G75*
G03*
X183134000Y-117510000I-889894J-1425356D01*
G01*
X185680098Y-118978674D02*
G75*
G03*
X185440000Y-118084000I-1680112J28671D01*
G01*
X185424721Y-119840264D02*
G75*
G03*
X185680000Y-118950000I-1424711J890261D01*
G01*
X182574642Y-118060106D02*
G75*
G03*
X182560000Y-119816000I1425356J-889894D01*
G01*
X183109807Y-120375504D02*
G75*
G03*
X184891000Y-120375000I890193J1425507D01*
G01*
X185680000Y-122450000D02*
G75*
G03*
X185680000Y-122450000I-1680000J0D01*
G01*
X152485000Y-116735000D02*
X150200000Y-116735000D01*
X152485000Y-115265000D02*
X152485000Y-116735000D01*
X150200000Y-115265000D02*
X152485000Y-115265000D01*
X176800000Y-109500000D02*
X172400000Y-109500000D01*
X176800000Y-109380000D02*
X176800000Y-109500000D01*
X176800000Y-107230000D02*
X176800000Y-108370000D01*
X176800000Y-106100000D02*
X176800000Y-106220000D01*
X172400000Y-109500000D02*
X172400000Y-109380000D01*
X172400000Y-108370000D02*
X172400000Y-107230000D01*
X172400000Y-106220000D02*
X172400000Y-106100000D01*
X172400000Y-106100000D02*
X176800000Y-106100000D01*
X104600000Y-90200000D02*
X104600000Y-80800000D01*
X106500000Y-90200000D02*
X104600000Y-90200000D01*
X110400000Y-90200000D02*
X108400000Y-90200000D01*
X106500000Y-80800000D02*
X104600000Y-80800000D01*
X110400000Y-80800000D02*
X108400000Y-80800000D01*
X134050000Y-129800000D02*
X133650000Y-129800000D01*
X134050000Y-129160000D02*
X134050000Y-129800000D01*
X133810000Y-129560000D02*
X119690000Y-129560000D01*
X133810000Y-129100000D02*
X119690000Y-129100000D01*
X133810000Y-128000000D02*
X119690000Y-128000000D01*
X133810000Y-121840000D02*
X133810000Y-129560000D01*
X133810000Y-121840000D02*
X119690000Y-121840000D01*
X129645000Y-125941000D02*
X129774000Y-126069000D01*
X129475000Y-126181000D02*
X129569000Y-126274000D01*
X127430000Y-123725000D02*
X127524000Y-123819000D01*
X127225000Y-123931000D02*
X127354000Y-124059000D01*
X126145000Y-125941000D02*
X126274000Y-126069000D01*
X125975000Y-126181000D02*
X126069000Y-126274000D01*
X123930000Y-123725000D02*
X124024000Y-123819000D01*
X123725000Y-123931000D02*
X123854000Y-124059000D01*
X122645000Y-125941000D02*
X122774000Y-126069000D01*
X122475000Y-126181000D02*
X122569000Y-126274000D01*
X120430000Y-123725000D02*
X120524000Y-123819000D01*
X120225000Y-123931000D02*
X120354000Y-124059000D01*
X119690000Y-121840000D02*
X119690000Y-129560000D01*
X133425358Y-125889894D02*
G75*
G03*
X133440000Y-124134000I-1425356J889894D01*
G01*
X131971326Y-126680098D02*
G75*
G03*
X132866000Y-126440000I28671J1680112D01*
G01*
X131109736Y-126424721D02*
G75*
G03*
X132000000Y-126680000I890261J1424711D01*
G01*
X132889894Y-123574642D02*
G75*
G03*
X131134000Y-123560000I-889894J-1425356D01*
G01*
X130574496Y-124109807D02*
G75*
G03*
X130575000Y-125891000I1425507J-890193D01*
G01*
X130180000Y-125000000D02*
G75*
G03*
X130180000Y-125000000I-1680000J0D01*
G01*
X126680000Y-125000000D02*
G75*
G03*
X126680000Y-125000000I-1680000J0D01*
G01*
X123180000Y-125000000D02*
G75*
G03*
X123180000Y-125000000I-1680000J0D01*
G01*
X142500000Y-86180000D02*
X143000000Y-85180000D01*
X143500000Y-86180000D02*
X142500000Y-86180000D01*
X143000000Y-85180000D02*
X143500000Y-86180000D01*
X114930000Y-84790000D02*
X148210000Y-84790000D01*
X133620000Y-84790000D02*
X133620000Y-83480000D01*
X148210000Y-84790000D02*
X148210000Y-75670000D01*
X116230000Y-83480000D02*
X129520000Y-83480000D01*
X129520000Y-83480000D02*
X129520000Y-84790000D01*
X129520000Y-83480000D02*
X129520000Y-83480000D01*
X133620000Y-83480000D02*
X146910000Y-83480000D01*
X146910000Y-83480000D02*
X146910000Y-76980000D01*
X116230000Y-76980000D02*
X116230000Y-83480000D01*
X146910000Y-76980000D02*
X116230000Y-76980000D01*
X114930000Y-75670000D02*
X114930000Y-84790000D01*
X148210000Y-75670000D02*
X114930000Y-75670000D01*
X188800000Y-94700000D02*
X188800000Y-95100000D01*
X188160000Y-94700000D02*
X188800000Y-94700000D01*
X188560000Y-94940000D02*
X188560000Y-102060000D01*
X188100000Y-94940000D02*
X188100000Y-102060000D01*
X187000000Y-94940000D02*
X187000000Y-102060000D01*
X180840000Y-94940000D02*
X188560000Y-94940000D01*
X180840000Y-94940000D02*
X180840000Y-102060000D01*
X184941000Y-99105000D02*
X185069000Y-98976000D01*
X185181000Y-99275000D02*
X185274000Y-99181000D01*
X182725000Y-101320000D02*
X182819000Y-101226000D01*
X182931000Y-101525000D02*
X183059000Y-101396000D01*
X180840000Y-102060000D02*
X188560000Y-102060000D01*
X184889894Y-95324642D02*
G75*
G03*
X183134000Y-95310000I-889894J-1425356D01*
G01*
X185680098Y-96778674D02*
G75*
G03*
X185440000Y-95884000I-1680112J28671D01*
G01*
X185424721Y-97640264D02*
G75*
G03*
X185680000Y-96750000I-1424711J890261D01*
G01*
X182574642Y-95860106D02*
G75*
G03*
X182560000Y-97616000I1425356J-889894D01*
G01*
X183109807Y-98175504D02*
G75*
G03*
X184891000Y-98175000I890193J1425507D01*
G01*
X185680000Y-100250000D02*
G75*
G03*
X185680000Y-100250000I-1680000J0D01*
G01*
X148050000Y-129800000D02*
X147650000Y-129800000D01*
X148050000Y-129160000D02*
X148050000Y-129800000D01*
X147810000Y-129560000D02*
X133690000Y-129560000D01*
X147810000Y-129100000D02*
X133690000Y-129100000D01*
X147810000Y-128000000D02*
X133690000Y-128000000D01*
X147810000Y-121840000D02*
X147810000Y-129560000D01*
X147810000Y-121840000D02*
X133690000Y-121840000D01*
X143645000Y-125941000D02*
X143774000Y-126069000D01*
X143475000Y-126181000D02*
X143569000Y-126274000D01*
X141430000Y-123725000D02*
X141524000Y-123819000D01*
X141225000Y-123931000D02*
X141354000Y-124059000D01*
X140145000Y-125941000D02*
X140274000Y-126069000D01*
X139975000Y-126181000D02*
X140069000Y-126274000D01*
X137930000Y-123725000D02*
X138024000Y-123819000D01*
X137725000Y-123931000D02*
X137854000Y-124059000D01*
X136645000Y-125941000D02*
X136774000Y-126069000D01*
X136475000Y-126181000D02*
X136569000Y-126274000D01*
X134430000Y-123725000D02*
X134524000Y-123819000D01*
X134225000Y-123931000D02*
X134354000Y-124059000D01*
X133690000Y-121840000D02*
X133690000Y-129560000D01*
X147425358Y-125889894D02*
G75*
G03*
X147440000Y-124134000I-1425356J889894D01*
G01*
X145971326Y-126680098D02*
G75*
G03*
X146866000Y-126440000I28671J1680112D01*
G01*
X145109736Y-126424721D02*
G75*
G03*
X146000000Y-126680000I890261J1424711D01*
G01*
X146889894Y-123574642D02*
G75*
G03*
X145134000Y-123560000I-889894J-1425356D01*
G01*
X144574496Y-124109807D02*
G75*
G03*
X144575000Y-125891000I1425507J-890193D01*
G01*
X144180000Y-125000000D02*
G75*
G03*
X144180000Y-125000000I-1680000J0D01*
G01*
X140680000Y-125000000D02*
G75*
G03*
X140680000Y-125000000I-1680000J0D01*
G01*
X137180000Y-125000000D02*
G75*
G03*
X137180000Y-125000000I-1680000J0D01*
G01*
%LPC*%
D17*
X161000000Y-100500000D03*
X154800000Y-81300000D03*
X161000000Y-97000000D03*
X118000000Y-94500000D03*
X161000000Y-89500000D03*
X161000000Y-93000000D03*
X154800000Y-84800000D03*
X118000000Y-91000000D03*
X161000000Y-104000000D03*
D18*
X182712500Y-107500000D03*
X184287500Y-107500000D03*
D19*
X151787500Y-113250000D03*
X150212500Y-113250000D03*
D20*
X118000000Y-125000000D03*
D21*
X114500000Y-125000000D03*
X111000000Y-125000000D03*
X107500000Y-125000000D03*
D22*
X174710000Y-98500000D03*
D23*
X177250000Y-98500000D03*
D24*
X176675000Y-111225000D03*
X172525000Y-111225000D03*
X176675000Y-113375000D03*
X172525000Y-113375000D03*
D18*
X182712500Y-110500000D03*
X184287500Y-110500000D03*
D20*
X160000000Y-125000000D03*
D21*
X156500000Y-125000000D03*
X153000000Y-125000000D03*
X149500000Y-125000000D03*
D22*
X174725000Y-83200000D03*
D23*
X177265000Y-83200000D03*
D20*
X184000000Y-81450000D03*
D21*
X184000000Y-84950000D03*
D25*
X112540000Y-101532000D03*
X112540000Y-97468000D03*
X111270000Y-101532000D03*
X111270000Y-97468000D03*
X110000000Y-101532000D03*
X110000000Y-97468000D03*
X108730000Y-101532000D03*
X108730000Y-97468000D03*
X107460000Y-101532000D03*
X107460000Y-97468000D03*
D17*
X107500000Y-111500000D03*
X107500000Y-108000000D03*
D20*
X184000000Y-118950000D03*
D21*
X184000000Y-122450000D03*
D19*
X151787500Y-116000000D03*
X150212500Y-116000000D03*
D24*
X176675000Y-106725000D03*
X172525000Y-106725000D03*
X176675000Y-108875000D03*
X172525000Y-108875000D03*
D26*
X111100000Y-88390000D03*
X111100000Y-82610000D03*
D27*
X112545000Y-88750000D03*
X112545000Y-87950000D03*
D28*
X112545000Y-86750000D03*
X112545000Y-85750000D03*
X112545000Y-85250000D03*
X112545000Y-84250000D03*
D27*
X112545000Y-83050000D03*
X112545000Y-82250000D03*
X112545000Y-82250000D03*
X112545000Y-83050000D03*
D28*
X112545000Y-83750000D03*
X112545000Y-84750000D03*
X112545000Y-86250000D03*
X112545000Y-87250000D03*
D27*
X112545000Y-87950000D03*
X112545000Y-88750000D03*
D29*
X107450000Y-89820000D03*
D30*
X111630000Y-89820000D03*
D29*
X107450000Y-81180000D03*
D30*
X111630000Y-81180000D03*
D20*
X132000000Y-125000000D03*
D21*
X128500000Y-125000000D03*
X125000000Y-125000000D03*
X121500000Y-125000000D03*
D31*
X143000000Y-81500000D03*
D32*
X143000000Y-78960000D03*
X140460000Y-81500000D03*
X140460000Y-78960000D03*
X137920000Y-81500000D03*
X137920000Y-78960000D03*
X135380000Y-81500000D03*
X135380000Y-78960000D03*
X132840000Y-81500000D03*
X132840000Y-78960000D03*
X130300000Y-81500000D03*
X130300000Y-78960000D03*
X127760000Y-81500000D03*
X127760000Y-78960000D03*
X125220000Y-81500000D03*
X125220000Y-78960000D03*
X122680000Y-81500000D03*
X122680000Y-78960000D03*
X120140000Y-81500000D03*
X120140000Y-78960000D03*
D20*
X184000000Y-96750000D03*
D21*
X184000000Y-100250000D03*
D20*
X146000000Y-125000000D03*
D21*
X142500000Y-125000000D03*
X139000000Y-125000000D03*
X135500000Y-125000000D03*
%LPD*%
M02*
