%TF.GenerationSoftware,KiCad,Pcbnew,6.0.9-1.fc35*%
%TF.CreationDate,2023-01-18T17:07:39+00:00*%
%TF.ProjectId,grblPANEL,6772626c-5041-44e4-954c-2e6b69636164,rev?*%
%TF.SameCoordinates,Original*%
%TF.FileFunction,Copper,L1,Top*%
%TF.FilePolarity,Positive*%
%FSLAX46Y46*%
G04 Gerber Fmt 4.6, Leading zero omitted, Abs format (unit mm)*
G04 Created by KiCad (PCBNEW 6.0.9-1.fc35) date 2023-01-18 17:07:39*
%MOMM*%
%LPD*%
G01*
G04 APERTURE LIST*
G04 Aperture macros list*
%AMRoundRect*
0 Rectangle with rounded corners*
0 $1 Rounding radius*
0 $2 $3 $4 $5 $6 $7 $8 $9 X,Y pos of 4 corners*
0 Add a 4 corners polygon primitive as box body*
4,1,4,$2,$3,$4,$5,$6,$7,$8,$9,$2,$3,0*
0 Add four circle primitives for the rounded corners*
1,1,$1+$1,$2,$3*
1,1,$1+$1,$4,$5*
1,1,$1+$1,$6,$7*
1,1,$1+$1,$8,$9*
0 Add four rect primitives between the rounded corners*
20,1,$1+$1,$2,$3,$4,$5,0*
20,1,$1+$1,$4,$5,$6,$7,0*
20,1,$1+$1,$6,$7,$8,$9,0*
20,1,$1+$1,$8,$9,$2,$3,0*%
G04 Aperture macros list end*
%TA.AperFunction,ComponentPad*%
%ADD10C,2.000000*%
%TD*%
%TA.AperFunction,SMDPad,CuDef*%
%ADD11RoundRect,0.225000X-0.250000X0.225000X-0.250000X-0.225000X0.250000X-0.225000X0.250000X0.225000X0*%
%TD*%
%TA.AperFunction,SMDPad,CuDef*%
%ADD12RoundRect,0.200000X-0.275000X0.200000X-0.275000X-0.200000X0.275000X-0.200000X0.275000X0.200000X0*%
%TD*%
%TA.AperFunction,SMDPad,CuDef*%
%ADD13RoundRect,0.200000X0.275000X-0.200000X0.275000X0.200000X-0.275000X0.200000X-0.275000X-0.200000X0*%
%TD*%
%TA.AperFunction,SMDPad,CuDef*%
%ADD14RoundRect,0.250000X-0.475000X0.250000X-0.475000X-0.250000X0.475000X-0.250000X0.475000X0.250000X0*%
%TD*%
%TA.AperFunction,SMDPad,CuDef*%
%ADD15R,0.706399X0.254800*%
%TD*%
%TA.AperFunction,ComponentPad*%
%ADD16C,0.600000*%
%TD*%
%TA.AperFunction,SMDPad,CuDef*%
%ADD17R,1.600200X2.387600*%
%TD*%
%TA.AperFunction,SMDPad,CuDef*%
%ADD18R,0.500000X0.800000*%
%TD*%
%TA.AperFunction,SMDPad,CuDef*%
%ADD19R,0.400000X0.800000*%
%TD*%
%TA.AperFunction,SMDPad,CuDef*%
%ADD20R,0.250000X0.600000*%
%TD*%
%TA.AperFunction,SMDPad,CuDef*%
%ADD21RoundRect,0.075000X-0.662500X-0.075000X0.662500X-0.075000X0.662500X0.075000X-0.662500X0.075000X0*%
%TD*%
%TA.AperFunction,SMDPad,CuDef*%
%ADD22RoundRect,0.075000X-0.075000X-0.662500X0.075000X-0.662500X0.075000X0.662500X-0.075000X0.662500X0*%
%TD*%
%TA.AperFunction,SMDPad,CuDef*%
%ADD23RoundRect,0.218750X-0.256250X0.218750X-0.256250X-0.218750X0.256250X-0.218750X0.256250X0.218750X0*%
%TD*%
%TA.AperFunction,SMDPad,CuDef*%
%ADD24RoundRect,0.225000X0.250000X-0.225000X0.250000X0.225000X-0.250000X0.225000X-0.250000X-0.225000X0*%
%TD*%
%TA.AperFunction,SMDPad,CuDef*%
%ADD25RoundRect,0.200000X0.200000X0.275000X-0.200000X0.275000X-0.200000X-0.275000X0.200000X-0.275000X0*%
%TD*%
%TA.AperFunction,SMDPad,CuDef*%
%ADD26RoundRect,0.200000X-0.200000X-0.275000X0.200000X-0.275000X0.200000X0.275000X-0.200000X0.275000X0*%
%TD*%
%TA.AperFunction,SMDPad,CuDef*%
%ADD27R,0.450000X0.600000*%
%TD*%
%TA.AperFunction,SMDPad,CuDef*%
%ADD28R,1.300000X0.300000*%
%TD*%
%TA.AperFunction,SMDPad,CuDef*%
%ADD29R,2.200000X1.800000*%
%TD*%
%TA.AperFunction,SMDPad,CuDef*%
%ADD30RoundRect,0.250000X0.475000X-0.250000X0.475000X0.250000X-0.475000X0.250000X-0.475000X-0.250000X0*%
%TD*%
%TA.AperFunction,SMDPad,CuDef*%
%ADD31RoundRect,0.150000X-0.825000X-0.150000X0.825000X-0.150000X0.825000X0.150000X-0.825000X0.150000X0*%
%TD*%
%TA.AperFunction,SMDPad,CuDef*%
%ADD32RoundRect,0.218750X0.256250X-0.218750X0.256250X0.218750X-0.256250X0.218750X-0.256250X-0.218750X0*%
%TD*%
%TA.AperFunction,SMDPad,CuDef*%
%ADD33RoundRect,0.050000X-0.349999X0.050000X-0.349999X-0.050000X0.349999X-0.050000X0.349999X0.050000X0*%
%TD*%
%TA.AperFunction,SMDPad,CuDef*%
%ADD34RoundRect,0.050000X0.050000X0.349999X-0.050000X0.349999X-0.050000X-0.349999X0.050000X-0.349999X0*%
%TD*%
%TA.AperFunction,SMDPad,CuDef*%
%ADD35R,2.200000X2.200000*%
%TD*%
%TA.AperFunction,SMDPad,CuDef*%
%ADD36RoundRect,0.250000X-0.312500X-0.625000X0.312500X-0.625000X0.312500X0.625000X-0.312500X0.625000X0*%
%TD*%
%TA.AperFunction,SMDPad,CuDef*%
%ADD37RoundRect,0.150000X-0.587500X-0.150000X0.587500X-0.150000X0.587500X0.150000X-0.587500X0.150000X0*%
%TD*%
%TA.AperFunction,SMDPad,CuDef*%
%ADD38R,1.200000X1.400000*%
%TD*%
%TA.AperFunction,SMDPad,CuDef*%
%ADD39R,0.600000X0.450000*%
%TD*%
%TA.AperFunction,SMDPad,CuDef*%
%ADD40RoundRect,0.150000X0.512500X0.150000X-0.512500X0.150000X-0.512500X-0.150000X0.512500X-0.150000X0*%
%TD*%
%TA.AperFunction,SMDPad,CuDef*%
%ADD41RoundRect,0.225000X0.225000X0.250000X-0.225000X0.250000X-0.225000X-0.250000X0.225000X-0.250000X0*%
%TD*%
%TA.AperFunction,SMDPad,CuDef*%
%ADD42R,1.800000X2.500000*%
%TD*%
%TA.AperFunction,SMDPad,CuDef*%
%ADD43R,2.000000X1.500000*%
%TD*%
%TA.AperFunction,SMDPad,CuDef*%
%ADD44R,2.000000X3.800000*%
%TD*%
%TA.AperFunction,SMDPad,CuDef*%
%ADD45RoundRect,0.225000X-0.225000X-0.250000X0.225000X-0.250000X0.225000X0.250000X-0.225000X0.250000X0*%
%TD*%
%TA.AperFunction,SMDPad,CuDef*%
%ADD46RoundRect,0.150000X-0.150000X0.587500X-0.150000X-0.587500X0.150000X-0.587500X0.150000X0.587500X0*%
%TD*%
%TA.AperFunction,ComponentPad*%
%ADD47R,2.400000X2.400000*%
%TD*%
%TA.AperFunction,ComponentPad*%
%ADD48C,2.400000*%
%TD*%
%TA.AperFunction,ComponentPad*%
%ADD49R,1.700000X1.700000*%
%TD*%
%TA.AperFunction,ComponentPad*%
%ADD50O,1.700000X1.700000*%
%TD*%
%TA.AperFunction,ComponentPad*%
%ADD51O,2.100000X1.000000*%
%TD*%
%TA.AperFunction,ComponentPad*%
%ADD52O,1.600000X1.000000*%
%TD*%
%TA.AperFunction,ComponentPad*%
%ADD53RoundRect,0.250000X0.600000X-0.600000X0.600000X0.600000X-0.600000X0.600000X-0.600000X-0.600000X0*%
%TD*%
%TA.AperFunction,ComponentPad*%
%ADD54C,1.700000*%
%TD*%
%TA.AperFunction,ViaPad*%
%ADD55C,0.700000*%
%TD*%
%TA.AperFunction,ViaPad*%
%ADD56C,0.550000*%
%TD*%
%TA.AperFunction,Conductor*%
%ADD57C,0.500000*%
%TD*%
%TA.AperFunction,Conductor*%
%ADD58C,0.250000*%
%TD*%
%TA.AperFunction,Conductor*%
%ADD59C,0.300000*%
%TD*%
%TA.AperFunction,Conductor*%
%ADD60C,0.200000*%
%TD*%
%TA.AperFunction,Conductor*%
%ADD61C,0.261112*%
%TD*%
G04 APERTURE END LIST*
D10*
X163200000Y-103800000D03*
D11*
X115500000Y-108625000D03*
X115500000Y-110175000D03*
D12*
X134600000Y-98750000D03*
X134600000Y-100400000D03*
D13*
X178300000Y-107825000D03*
X178300000Y-106175000D03*
D14*
X170100000Y-121800000D03*
X170100000Y-123700000D03*
D15*
X172779500Y-119950001D03*
X172779500Y-119449999D03*
X172779500Y-118950000D03*
X172779500Y-118450001D03*
X172779500Y-117949999D03*
X169787100Y-117949999D03*
X169787100Y-118450001D03*
X169787100Y-118950000D03*
X169787100Y-119449999D03*
X169787100Y-119950001D03*
D16*
X171783300Y-118060000D03*
X170783300Y-118060000D03*
X170783300Y-118950000D03*
D17*
X171283300Y-118950000D03*
D16*
X170783300Y-119840000D03*
X171783300Y-119840000D03*
X171783300Y-118950000D03*
D18*
X134000000Y-86900000D03*
D19*
X133200000Y-86900000D03*
X132400000Y-86900000D03*
D18*
X131600000Y-86900000D03*
X131600000Y-88700000D03*
D19*
X132400000Y-88700000D03*
X133200000Y-88700000D03*
D18*
X134000000Y-88700000D03*
X139100000Y-86900000D03*
D19*
X138300000Y-86900000D03*
X137500000Y-86900000D03*
D18*
X136700000Y-86900000D03*
X136700000Y-88700000D03*
D19*
X137500000Y-88700000D03*
X138300000Y-88700000D03*
D18*
X139100000Y-88700000D03*
D12*
X116600000Y-103175000D03*
X116600000Y-104825000D03*
D10*
X154800000Y-81300000D03*
X156000000Y-112400000D03*
D20*
X133800000Y-84575000D03*
X133300000Y-84575000D03*
X132800000Y-84575000D03*
X132300000Y-84575000D03*
X131800000Y-84575000D03*
X131800000Y-85425000D03*
X132300000Y-85425000D03*
X132800000Y-85425000D03*
X133300000Y-85425000D03*
X133800000Y-85425000D03*
D12*
X175000000Y-85375000D03*
X175000000Y-87025000D03*
X136200000Y-98750000D03*
X136200000Y-100400000D03*
D10*
X166400000Y-103800000D03*
D21*
X117737500Y-107250000D03*
X117737500Y-107750000D03*
X117737500Y-108250000D03*
X117737500Y-108750000D03*
X117737500Y-109250000D03*
X117737500Y-109750000D03*
X117737500Y-110250000D03*
X117737500Y-110750000D03*
X117737500Y-111250000D03*
X117737500Y-111750000D03*
X117737500Y-112250000D03*
X117737500Y-112750000D03*
D22*
X119150000Y-114162500D03*
X119650000Y-114162500D03*
X120150000Y-114162500D03*
X120650000Y-114162500D03*
X121150000Y-114162500D03*
X121650000Y-114162500D03*
X122150000Y-114162500D03*
X122650000Y-114162500D03*
X123150000Y-114162500D03*
X123650000Y-114162500D03*
X124150000Y-114162500D03*
X124650000Y-114162500D03*
D21*
X126062500Y-112750000D03*
X126062500Y-112250000D03*
X126062500Y-111750000D03*
X126062500Y-111250000D03*
X126062500Y-110750000D03*
X126062500Y-110250000D03*
X126062500Y-109750000D03*
X126062500Y-109250000D03*
X126062500Y-108750000D03*
X126062500Y-108250000D03*
X126062500Y-107750000D03*
X126062500Y-107250000D03*
D22*
X124650000Y-105837500D03*
X124150000Y-105837500D03*
X123650000Y-105837500D03*
X123150000Y-105837500D03*
X122650000Y-105837500D03*
X122150000Y-105837500D03*
X121650000Y-105837500D03*
X121150000Y-105837500D03*
X120650000Y-105837500D03*
X120150000Y-105837500D03*
X119650000Y-105837500D03*
X119150000Y-105837500D03*
D23*
X185000000Y-106212500D03*
X185000000Y-107787500D03*
D24*
X164500000Y-83975000D03*
X164500000Y-82425000D03*
D13*
X125000000Y-96125000D03*
X125000000Y-94475000D03*
D25*
X167925000Y-121750000D03*
X166275000Y-121750000D03*
D12*
X154000000Y-107375000D03*
X154000000Y-109025000D03*
D25*
X177025000Y-120700000D03*
X175375000Y-120700000D03*
D12*
X133000000Y-98750000D03*
X133000000Y-100400000D03*
D26*
X112375000Y-120600000D03*
X114025000Y-120600000D03*
D12*
X175000000Y-79375000D03*
X175000000Y-81025000D03*
X110000000Y-100675000D03*
X110000000Y-102325000D03*
D27*
X108000000Y-98550000D03*
X108000000Y-96450000D03*
D20*
X128700000Y-84575000D03*
X128200000Y-84575000D03*
X127700000Y-84575000D03*
X127200000Y-84575000D03*
X126700000Y-84575000D03*
X126700000Y-85425000D03*
X127200000Y-85425000D03*
X127700000Y-85425000D03*
X128200000Y-85425000D03*
X128700000Y-85425000D03*
D25*
X118025000Y-120600000D03*
X116375000Y-120600000D03*
X168225000Y-94800000D03*
X166575000Y-94800000D03*
D28*
X151850000Y-92250000D03*
X151850000Y-92750000D03*
X151850000Y-93250000D03*
X151850000Y-93750000D03*
X151850000Y-94250000D03*
X151850000Y-94750000D03*
X151850000Y-95250000D03*
X151850000Y-95750000D03*
X151850000Y-96250000D03*
X151850000Y-96750000D03*
X151850000Y-97250000D03*
X151850000Y-97750000D03*
X151850000Y-98250000D03*
X151850000Y-98750000D03*
X151850000Y-99250000D03*
X151850000Y-99750000D03*
X151850000Y-100250000D03*
X151850000Y-100750000D03*
X151850000Y-101250000D03*
X151850000Y-101750000D03*
X151850000Y-102250000D03*
X151850000Y-102750000D03*
X151850000Y-103250000D03*
X151850000Y-103750000D03*
X151850000Y-104250000D03*
X151850000Y-104750000D03*
X151850000Y-105250000D03*
X151850000Y-105750000D03*
X151850000Y-106250000D03*
X151850000Y-106750000D03*
X151850000Y-107250000D03*
X151850000Y-107750000D03*
X151850000Y-108250000D03*
X151850000Y-108750000D03*
X151850000Y-109250000D03*
X151850000Y-109750000D03*
X151850000Y-110250000D03*
X151850000Y-110750000D03*
X151850000Y-111250000D03*
X151850000Y-111750000D03*
D29*
X148600000Y-113650000D03*
X148600000Y-90350000D03*
D30*
X163700000Y-113850000D03*
X163700000Y-111950000D03*
D11*
X109500000Y-108625000D03*
X109500000Y-110175000D03*
D10*
X116900000Y-91300000D03*
D31*
X167025000Y-96595000D03*
X167025000Y-97865000D03*
X167025000Y-99135000D03*
X167025000Y-100405000D03*
X171975000Y-100405000D03*
X171975000Y-99135000D03*
X171975000Y-97865000D03*
X171975000Y-96595000D03*
D11*
X112200000Y-112700000D03*
X112200000Y-114250000D03*
D12*
X182800000Y-106175000D03*
X182800000Y-107825000D03*
D24*
X112200000Y-117450000D03*
X112200000Y-115900000D03*
D10*
X156800000Y-116300000D03*
D26*
X132925000Y-114500000D03*
X134575000Y-114500000D03*
D32*
X185000000Y-112787500D03*
X185000000Y-111212500D03*
D24*
X128900000Y-96075000D03*
X128900000Y-94525000D03*
D10*
X161000000Y-90400000D03*
D26*
X126375000Y-120600000D03*
X128025000Y-120600000D03*
X140375000Y-120600000D03*
X142025000Y-120600000D03*
D13*
X176700000Y-102325000D03*
X176700000Y-100675000D03*
D12*
X107000000Y-100675000D03*
X107000000Y-102325000D03*
D33*
X134449999Y-95500001D03*
X134449999Y-95099999D03*
X134449999Y-94700000D03*
X134449999Y-94300000D03*
X134449999Y-93900001D03*
X134449999Y-93499999D03*
D34*
X133800001Y-92850001D03*
X133399999Y-92850001D03*
X133000000Y-92850001D03*
X132600000Y-92850001D03*
X132200001Y-92850001D03*
X131799999Y-92850001D03*
D33*
X131150001Y-93499999D03*
X131150001Y-93900001D03*
X131150001Y-94300000D03*
X131150001Y-94700000D03*
X131150001Y-95099999D03*
X131150001Y-95500001D03*
D34*
X131799999Y-96149999D03*
X132200001Y-96149999D03*
X132600000Y-96149999D03*
X133000000Y-96149999D03*
X133399999Y-96149999D03*
X133800001Y-96149999D03*
D35*
X132800000Y-94500000D03*
D16*
X132000000Y-94500000D03*
X132800000Y-94500000D03*
X132800000Y-93700000D03*
X133600000Y-95300000D03*
X132800000Y-95300000D03*
X132000000Y-95300000D03*
X133600000Y-94500000D03*
X132000000Y-93700000D03*
X133600000Y-93700000D03*
D36*
X178537500Y-102000000D03*
X181462500Y-102000000D03*
D14*
X172500000Y-121800000D03*
X172500000Y-123700000D03*
D36*
X178537500Y-95000000D03*
X181462500Y-95000000D03*
D37*
X179062500Y-82250000D03*
X179062500Y-84150000D03*
X180937500Y-83200000D03*
D38*
X110250000Y-117200000D03*
X110250000Y-115000000D03*
X108550000Y-115000000D03*
X108550000Y-117200000D03*
D12*
X176700000Y-94675000D03*
X176700000Y-96325000D03*
D13*
X156000000Y-109025000D03*
X156000000Y-107375000D03*
D26*
X154375000Y-120600000D03*
X156025000Y-120600000D03*
D39*
X132250000Y-122600000D03*
X130150000Y-122600000D03*
D25*
X170325000Y-79450000D03*
X168675000Y-79450000D03*
D39*
X140100000Y-122600000D03*
X142200000Y-122600000D03*
D12*
X167900000Y-118125000D03*
X167900000Y-119775000D03*
D13*
X175000000Y-96325000D03*
X175000000Y-94675000D03*
D26*
X111775000Y-79600000D03*
X113425000Y-79600000D03*
D18*
X123800000Y-86900000D03*
D19*
X123000000Y-86900000D03*
X122200000Y-86900000D03*
D18*
X121400000Y-86900000D03*
X121400000Y-88700000D03*
D19*
X122200000Y-88700000D03*
X123000000Y-88700000D03*
D18*
X123800000Y-88700000D03*
D31*
X167025000Y-81295000D03*
X167025000Y-82565000D03*
X167025000Y-83835000D03*
X167025000Y-85105000D03*
X171975000Y-85105000D03*
X171975000Y-83835000D03*
X171975000Y-82565000D03*
X171975000Y-81295000D03*
D26*
X175375000Y-119000000D03*
X177025000Y-119000000D03*
D40*
X116337500Y-86950000D03*
X116337500Y-86000000D03*
X116337500Y-85050000D03*
X114062500Y-85050000D03*
X114062500Y-86000000D03*
X114062500Y-86950000D03*
D20*
X123600000Y-84575000D03*
X123100000Y-84575000D03*
X122600000Y-84575000D03*
X122100000Y-84575000D03*
X121600000Y-84575000D03*
X121600000Y-85425000D03*
X122100000Y-85425000D03*
X122600000Y-85425000D03*
X123100000Y-85425000D03*
X123600000Y-85425000D03*
D27*
X110000000Y-98550000D03*
X110000000Y-96450000D03*
D11*
X128900000Y-109225000D03*
X128900000Y-110775000D03*
D41*
X164475000Y-117937500D03*
X162925000Y-117937500D03*
D24*
X154000000Y-94975000D03*
X154000000Y-93425000D03*
D42*
X180000000Y-118700000D03*
X180000000Y-122700000D03*
D27*
X112000000Y-98550000D03*
X112000000Y-96450000D03*
D14*
X176200000Y-113550000D03*
X176200000Y-115450000D03*
D41*
X116675000Y-83400000D03*
X115125000Y-83400000D03*
D24*
X177000000Y-80975000D03*
X177000000Y-79425000D03*
D26*
X175375000Y-122400000D03*
X177025000Y-122400000D03*
D39*
X118250000Y-122600000D03*
X116150000Y-122600000D03*
D26*
X130575000Y-109000000D03*
X132225000Y-109000000D03*
D11*
X113900000Y-108625000D03*
X113900000Y-110175000D03*
D25*
X146025000Y-120600000D03*
X144375000Y-120600000D03*
D27*
X164000000Y-121700000D03*
X164000000Y-123800000D03*
D24*
X177000000Y-86975000D03*
X177000000Y-85425000D03*
D25*
X170285000Y-102200000D03*
X168635000Y-102200000D03*
D10*
X161000000Y-93900000D03*
D30*
X126800000Y-96250000D03*
X126800000Y-94350000D03*
D25*
X177025000Y-124100000D03*
X175375000Y-124100000D03*
D20*
X144000000Y-84575000D03*
X143500000Y-84575000D03*
X143000000Y-84575000D03*
X142500000Y-84575000D03*
X142000000Y-84575000D03*
X142000000Y-85425000D03*
X142500000Y-85425000D03*
X143000000Y-85425000D03*
X143500000Y-85425000D03*
X144000000Y-85425000D03*
D26*
X130575000Y-111000000D03*
X132225000Y-111000000D03*
D43*
X166750000Y-110600000D03*
X166750000Y-112900000D03*
D44*
X173050000Y-112900000D03*
D43*
X166750000Y-115200000D03*
D18*
X128900000Y-86900000D03*
D19*
X128100000Y-86900000D03*
X127300000Y-86900000D03*
D18*
X126500000Y-86900000D03*
X126500000Y-88700000D03*
D19*
X127300000Y-88700000D03*
X128100000Y-88700000D03*
D18*
X128900000Y-88700000D03*
D10*
X160300000Y-116300000D03*
D14*
X111600000Y-108450000D03*
X111600000Y-110350000D03*
D39*
X154150000Y-122600000D03*
X156250000Y-122600000D03*
D10*
X154800000Y-84800000D03*
D37*
X179062500Y-97550000D03*
X179062500Y-99450000D03*
X180937500Y-98500000D03*
D27*
X112000000Y-100450000D03*
X112000000Y-102550000D03*
D39*
X126100000Y-122600000D03*
X128200000Y-122600000D03*
D26*
X175375000Y-117300000D03*
X177025000Y-117300000D03*
D25*
X167925000Y-123750000D03*
X166275000Y-123750000D03*
D39*
X146250000Y-122600000D03*
X144150000Y-122600000D03*
D26*
X133875000Y-109000000D03*
X135525000Y-109000000D03*
D32*
X166200000Y-119725000D03*
X166200000Y-118150000D03*
D41*
X164475000Y-119937500D03*
X162925000Y-119937500D03*
D30*
X156000000Y-95150000D03*
X156000000Y-93250000D03*
D18*
X144200000Y-86900000D03*
D19*
X143400000Y-86900000D03*
X142600000Y-86900000D03*
D18*
X141800000Y-86900000D03*
X141800000Y-88700000D03*
D19*
X142600000Y-88700000D03*
X143400000Y-88700000D03*
D18*
X144200000Y-88700000D03*
D12*
X182800000Y-111175000D03*
X182800000Y-112825000D03*
X108500000Y-100675000D03*
X108500000Y-102325000D03*
D10*
X120400000Y-91300000D03*
D12*
X113900000Y-115850000D03*
X113900000Y-117500000D03*
D45*
X170825000Y-94800000D03*
X172375000Y-94800000D03*
D25*
X160025000Y-120600000D03*
X158375000Y-120600000D03*
D26*
X111775000Y-91400000D03*
X113425000Y-91400000D03*
D10*
X160000000Y-103800000D03*
D46*
X155950000Y-103662500D03*
X154050000Y-103662500D03*
X155000000Y-105537500D03*
D25*
X132025000Y-120600000D03*
X130375000Y-120600000D03*
D39*
X160250000Y-122600000D03*
X158150000Y-122600000D03*
X112150000Y-122600000D03*
X114250000Y-122600000D03*
D25*
X155825000Y-100700000D03*
X154175000Y-100700000D03*
D20*
X138900000Y-84575000D03*
X138400000Y-84575000D03*
X137900000Y-84575000D03*
X137400000Y-84575000D03*
X136900000Y-84575000D03*
X136900000Y-85425000D03*
X137400000Y-85425000D03*
X137900000Y-85425000D03*
X138400000Y-85425000D03*
X138900000Y-85425000D03*
D47*
X118000000Y-125000000D03*
D48*
X114500000Y-125000000D03*
X111000000Y-125000000D03*
X107500000Y-125000000D03*
D49*
X174710000Y-98500000D03*
D50*
X177250000Y-98500000D03*
D47*
X160000000Y-125000000D03*
D48*
X156500000Y-125000000D03*
X153000000Y-125000000D03*
X149500000Y-125000000D03*
D49*
X174725000Y-83200000D03*
D50*
X177265000Y-83200000D03*
D47*
X184000000Y-81450000D03*
D48*
X184000000Y-84950000D03*
D47*
X184000000Y-118950000D03*
D48*
X184000000Y-122450000D03*
D51*
X111630000Y-81180000D03*
D52*
X107450000Y-81180000D03*
D51*
X111630000Y-89820000D03*
D52*
X107450000Y-89820000D03*
D47*
X132000000Y-125000000D03*
D48*
X128500000Y-125000000D03*
X125000000Y-125000000D03*
X121500000Y-125000000D03*
D53*
X145500000Y-81500000D03*
D54*
X145500000Y-78960000D03*
X142960000Y-81500000D03*
X142960000Y-78960000D03*
X140420000Y-81500000D03*
X140420000Y-78960000D03*
X137880000Y-81500000D03*
X137880000Y-78960000D03*
X135340000Y-81500000D03*
X135340000Y-78960000D03*
X132800000Y-81500000D03*
X132800000Y-78960000D03*
X130260000Y-81500000D03*
X130260000Y-78960000D03*
X127720000Y-81500000D03*
X127720000Y-78960000D03*
X125180000Y-81500000D03*
X125180000Y-78960000D03*
X122640000Y-81500000D03*
X122640000Y-78960000D03*
D47*
X184000000Y-96750000D03*
D48*
X184000000Y-100250000D03*
D47*
X146000000Y-125000000D03*
D48*
X142500000Y-125000000D03*
X139000000Y-125000000D03*
X135500000Y-125000000D03*
D55*
X111200000Y-122600000D03*
X175000000Y-104500000D03*
X162000000Y-76941799D03*
X142800000Y-92700000D03*
X144400000Y-91400000D03*
X186979040Y-82000000D03*
D56*
X137900000Y-83800000D03*
D55*
X142700000Y-111400000D03*
X167000000Y-128839052D03*
X186928500Y-97000000D03*
X107000000Y-106974194D03*
X117300000Y-114700000D03*
X164999999Y-125900000D03*
D56*
X127700000Y-83800000D03*
D55*
X147000000Y-102000000D03*
X147200000Y-121584476D03*
X178300000Y-117300000D03*
X141100000Y-104100000D03*
X140500000Y-86841716D03*
X139000000Y-122600000D03*
X147000000Y-107000000D03*
X152000000Y-86887820D03*
X142000000Y-128481535D03*
X182300000Y-83200000D03*
X132000000Y-76966742D03*
X110800000Y-78700000D03*
X115600000Y-105900000D03*
X113800000Y-81200000D03*
X147000000Y-76950113D03*
X187000000Y-77000000D03*
X117500000Y-94500000D03*
X163500000Y-81994500D03*
X157000000Y-91923831D03*
X157000000Y-82000000D03*
X177800000Y-96700000D03*
X139200000Y-111400000D03*
X172000000Y-91965208D03*
X134500000Y-104531955D03*
X135500000Y-86798816D03*
X129800000Y-111900000D03*
X162000000Y-82000000D03*
X147800000Y-88900000D03*
X165100000Y-111400000D03*
X132000000Y-128487309D03*
X162450000Y-118950000D03*
X113800000Y-89000000D03*
X107000000Y-77000000D03*
X120465982Y-98734515D03*
X137600000Y-121597225D03*
X125750000Y-102550000D03*
X131200000Y-106700000D03*
X137900000Y-95900000D03*
X147800000Y-115100000D03*
X135800000Y-89500000D03*
X113800000Y-89800000D03*
X163500000Y-86600000D03*
X172000000Y-76925170D03*
X151677268Y-118000000D03*
X167000000Y-91944520D03*
X108000000Y-95200000D03*
X132000000Y-115241302D03*
X186892751Y-92000000D03*
X186775876Y-117000000D03*
X159200000Y-101100000D03*
X186943291Y-87000000D03*
X172000000Y-128890531D03*
X116700000Y-82200000D03*
X112000000Y-76991685D03*
X131400000Y-98900000D03*
X115500000Y-99500000D03*
X119200000Y-122600000D03*
X157000000Y-86887821D03*
X149400000Y-88900000D03*
X140900000Y-89500000D03*
X137000000Y-101913798D03*
X107000000Y-122000000D03*
X141000000Y-111400000D03*
X162500000Y-84300000D03*
X186100000Y-107000000D03*
X179000000Y-98500000D03*
X116600000Y-102100000D03*
X172000000Y-107800000D03*
X162000000Y-101947340D03*
X106991125Y-112000000D03*
X112000000Y-128498857D03*
X186857001Y-102000000D03*
X133200000Y-121600000D03*
X133400000Y-111000000D03*
X133700000Y-102000000D03*
X161000000Y-121600000D03*
X139400000Y-94400000D03*
X147000000Y-128476904D03*
X125550000Y-114700000D03*
X154050000Y-102350000D03*
X140000000Y-89500000D03*
X142700000Y-115300000D03*
X147000000Y-82000000D03*
X182000000Y-86995069D03*
X151641518Y-113000000D03*
X130000000Y-86755917D03*
D56*
X121200000Y-83800000D03*
D55*
X151700000Y-121576496D03*
X165500000Y-107482790D03*
X162000000Y-111979125D03*
X147200000Y-122600000D03*
X162000000Y-97000000D03*
X144200000Y-114200000D03*
X112000000Y-95212212D03*
X157000000Y-128471130D03*
X177000000Y-128942010D03*
X137000000Y-128482678D03*
X167000000Y-76933484D03*
X137000000Y-76958428D03*
D56*
X122600000Y-83800000D03*
D55*
X126950000Y-105550000D03*
X152000000Y-82000000D03*
X125000000Y-122600000D03*
X161200000Y-122600000D03*
X165000000Y-128600000D03*
X122000000Y-76975057D03*
X186756206Y-129000000D03*
X141000000Y-116400000D03*
X186100000Y-112000000D03*
X117800000Y-86000000D03*
X137000000Y-111919542D03*
X122950000Y-111500000D03*
X154800000Y-92700000D03*
X127000000Y-76975056D03*
X181978181Y-117000000D03*
X167000000Y-101972166D03*
X147000000Y-86852070D03*
X110800000Y-92300000D03*
X173610000Y-100400000D03*
X177500000Y-115600000D03*
D56*
X132800000Y-83800000D03*
D55*
X118624503Y-87000000D03*
X161000000Y-107462102D03*
X145100000Y-89500000D03*
X146970208Y-97000000D03*
X162000000Y-86923570D03*
X133200000Y-122600000D03*
D56*
X143000000Y-83800000D03*
D55*
X152000000Y-128475761D03*
X134850000Y-107850000D03*
X119700000Y-116800000D03*
X112100000Y-103800000D03*
X142000000Y-76958428D03*
X107000000Y-128500000D03*
X186758635Y-122000000D03*
X157200000Y-105000000D03*
X112900000Y-110500000D03*
X178275000Y-79425000D03*
X153700000Y-110200000D03*
X157200000Y-108000000D03*
X157000000Y-101922514D03*
X109500000Y-106200000D03*
X182000000Y-128993490D03*
X119200000Y-121600000D03*
X177000000Y-76925169D03*
X177600000Y-109800000D03*
X141400000Y-108100000D03*
X135900000Y-96700000D03*
X182000000Y-92000000D03*
X111400000Y-115000000D03*
X137000000Y-115250000D03*
X173600000Y-94400000D03*
D56*
X181722716Y-100281167D03*
D55*
X132000000Y-111949333D03*
X176000000Y-87600000D03*
X142044622Y-105244622D03*
X172000000Y-86959320D03*
X109800000Y-121600000D03*
X171300000Y-124300000D03*
X162000000Y-91944519D03*
X117000000Y-128494226D03*
X172000000Y-101996992D03*
X114400000Y-79600000D03*
X157000000Y-76941799D03*
X110000000Y-95200000D03*
X177000000Y-91985896D03*
X107400000Y-103800000D03*
X118624503Y-85000000D03*
X109500000Y-103800000D03*
X169600000Y-109200000D03*
X113800000Y-82000000D03*
X117000000Y-117000000D03*
X158500000Y-114000000D03*
X154150000Y-96600000D03*
X120400000Y-112400000D03*
X122000000Y-122000000D03*
X125000000Y-86755917D03*
X152000000Y-76941799D03*
X167000000Y-86948520D03*
X127999938Y-94800000D03*
X123050000Y-107200000D03*
X125300000Y-92550000D03*
X181600000Y-107800000D03*
X149400000Y-115100000D03*
X122000000Y-104000000D03*
X162000000Y-128469987D03*
X153500000Y-99400000D03*
X122000000Y-128493083D03*
X107000000Y-92000000D03*
X127000000Y-128488452D03*
X107500000Y-117200000D03*
X182000000Y-76916855D03*
X114400000Y-91400000D03*
X120200000Y-108950000D03*
X117000000Y-76983371D03*
X153200000Y-122600000D03*
X153700000Y-111250000D03*
X134600000Y-97800000D03*
X128000000Y-95904128D03*
X158200000Y-100800000D03*
X136200000Y-97800000D03*
X163500000Y-84300000D03*
X158200000Y-105600000D03*
X133000000Y-108373500D03*
X133000000Y-97800000D03*
X114500000Y-99500000D03*
X164300000Y-86100000D03*
X141400000Y-107100000D03*
X109500000Y-107100000D03*
X120200000Y-110000000D03*
X170600000Y-109200000D03*
X130500000Y-107500000D03*
X157200000Y-107100000D03*
X164000000Y-128600000D03*
X164000000Y-125900000D03*
X114050000Y-83050000D03*
X114050000Y-87950000D03*
X113000000Y-95212212D03*
X111000000Y-95200000D03*
X107000000Y-95200000D03*
X110800000Y-91400000D03*
D56*
X117800000Y-85000000D03*
X117800000Y-87000000D03*
D55*
X110800000Y-79600000D03*
X139900000Y-110700000D03*
X139900000Y-116600500D03*
X153200500Y-96200000D03*
X141700000Y-110700000D03*
X141700000Y-115600000D03*
X156700000Y-98600000D03*
X116600000Y-105900000D03*
X119150000Y-109250000D03*
X178300000Y-108800000D03*
X110600000Y-103800000D03*
X122100000Y-107200000D03*
X126062500Y-106312500D03*
X113000000Y-104000000D03*
X157225000Y-105925000D03*
X171000000Y-106600000D03*
X141400000Y-106000000D03*
X130500000Y-106000000D03*
X120400000Y-111400000D03*
X141100000Y-103100000D03*
X125100000Y-101800000D03*
X133000000Y-101400000D03*
X126450000Y-103300000D03*
X121400000Y-98700000D03*
X134600000Y-101400000D03*
X128850000Y-111900000D03*
X161000000Y-120600000D03*
X126600000Y-114700000D03*
X151700000Y-120600000D03*
X123600000Y-112200000D03*
X147200000Y-120600000D03*
X137600000Y-120600000D03*
X122300000Y-112200000D03*
X133200000Y-120600000D03*
X120600000Y-116300000D03*
X117700000Y-113800000D03*
X119200000Y-120600000D03*
X116400000Y-115300000D03*
X109800000Y-120600000D03*
X169500000Y-117000000D03*
X168100000Y-117000000D03*
X133598363Y-103998795D03*
X123000000Y-104000000D03*
X127700000Y-104699500D03*
X133599500Y-105300500D03*
X119700000Y-115800000D03*
X142300000Y-104000000D03*
X181500500Y-99487174D03*
X144200000Y-90400000D03*
D56*
X144200000Y-89500000D03*
D55*
X143400000Y-91100000D03*
D56*
X143400000Y-89500000D03*
X142600000Y-89500000D03*
D55*
X142600000Y-91800000D03*
X141800000Y-92600000D03*
D56*
X141800000Y-89500000D03*
X139100000Y-89500000D03*
D55*
X139100000Y-93400000D03*
X138300000Y-94200000D03*
D56*
X138300000Y-89500000D03*
X137500000Y-89500000D03*
D55*
X137500000Y-94900000D03*
D56*
X136700000Y-89500000D03*
D55*
X136700000Y-95500000D03*
X130000000Y-95100000D03*
X125300000Y-93500000D03*
X143300000Y-114500000D03*
X153300000Y-97123500D03*
X143600000Y-110700000D03*
D57*
X172800000Y-121800000D02*
X172800000Y-120050000D01*
D58*
X178400000Y-121000000D02*
X178100000Y-120700000D01*
D57*
X175300000Y-125350000D02*
X174100000Y-125350000D01*
X180000000Y-122700000D02*
X180000000Y-124350000D01*
X181900000Y-121100000D02*
X181900000Y-122200000D01*
X175300000Y-125350000D02*
X168300000Y-125350000D01*
X180000000Y-124350000D02*
X179000000Y-125350000D01*
X181400000Y-122700000D02*
X180000000Y-122700000D01*
D58*
X177700000Y-124100000D02*
X177025000Y-124100000D01*
D57*
X174100000Y-125350000D02*
X174100000Y-123100000D01*
D58*
X178400000Y-122750000D02*
X178400000Y-121000000D01*
X178400000Y-122350000D02*
X178400000Y-123400000D01*
D57*
X184000000Y-119000000D02*
X181900000Y-121100000D01*
D58*
X178450000Y-122700000D02*
X178400000Y-122750000D01*
D57*
X181900000Y-122200000D02*
X181400000Y-122700000D01*
D58*
X180000000Y-122700000D02*
X178450000Y-122700000D01*
X178400000Y-123400000D02*
X177700000Y-124100000D01*
D57*
X168300000Y-125350000D02*
X167925000Y-124975000D01*
D58*
X178100000Y-120700000D02*
X177025000Y-120700000D01*
D57*
X167925000Y-124975000D02*
X167925000Y-123750000D01*
X174100000Y-123100000D02*
X172800000Y-121800000D01*
X179000000Y-125350000D02*
X175300000Y-125350000D01*
X108550000Y-117200000D02*
X107500000Y-117200000D01*
D58*
X176500000Y-119250000D02*
X177025000Y-119250000D01*
X169787100Y-119449999D02*
X169100001Y-119449999D01*
D59*
X151850000Y-110250000D02*
X153650000Y-110250000D01*
X132225000Y-111000000D02*
X133400000Y-111000000D01*
D57*
X113425000Y-79600000D02*
X114400000Y-79600000D01*
D59*
X119200000Y-122600000D02*
X118250000Y-122600000D01*
X112000000Y-96450000D02*
X112000000Y-95212212D01*
X155300000Y-99400000D02*
X155825000Y-99925000D01*
D57*
X173605000Y-100405000D02*
X173610000Y-100400000D01*
D59*
X151850000Y-94250000D02*
X152550000Y-94250000D01*
D57*
X153275000Y-93525000D02*
X154000000Y-93525000D01*
X163500000Y-81994500D02*
X163930500Y-82425000D01*
X164500000Y-82425000D02*
X165545000Y-82425000D01*
D58*
X121600000Y-84300000D02*
X121225500Y-83925500D01*
X132800000Y-83800000D02*
X132800000Y-85425000D01*
D59*
X139000000Y-122600000D02*
X140100000Y-122600000D01*
X177800000Y-96700000D02*
X177425000Y-96325000D01*
X112150000Y-122600000D02*
X111200000Y-122600000D01*
D58*
X177025000Y-117650000D02*
X177025000Y-118125000D01*
D57*
X178600000Y-117300000D02*
X180000000Y-118700000D01*
X165545000Y-82425000D02*
X165690000Y-82570000D01*
X180937500Y-98500000D02*
X179000000Y-98500000D01*
X173200000Y-94800000D02*
X173600000Y-94400000D01*
X164300000Y-110600000D02*
X166750000Y-110600000D01*
D59*
X153500000Y-99400000D02*
X155300000Y-99400000D01*
X112000000Y-103100000D02*
X112100000Y-103200000D01*
X108000000Y-96450000D02*
X108000000Y-95200000D01*
D58*
X121600000Y-84575000D02*
X121600000Y-84300000D01*
D59*
X153200000Y-122600000D02*
X154150000Y-122600000D01*
X147200000Y-122600000D02*
X146250000Y-122600000D01*
D58*
X177025000Y-118125000D02*
X177025000Y-119250000D01*
X116337500Y-86000000D02*
X117800000Y-86000000D01*
D59*
X168135000Y-82565000D02*
X168675000Y-82025000D01*
X153500000Y-99400000D02*
X153150000Y-99750000D01*
D57*
X165690000Y-82570000D02*
X167020000Y-82570000D01*
X180937500Y-83200000D02*
X182300000Y-83200000D01*
D58*
X127700000Y-83800000D02*
X127700000Y-85425000D01*
X121600000Y-85425000D02*
X121600000Y-84575000D01*
X177025000Y-122250000D02*
X176400000Y-122250000D01*
D57*
X113425000Y-91400000D02*
X114400000Y-91400000D01*
D59*
X117737500Y-110250000D02*
X115575000Y-110250000D01*
X161200000Y-122600000D02*
X160250000Y-122600000D01*
D58*
X143000000Y-84575000D02*
X143000000Y-85425000D01*
X169100001Y-119449999D02*
X168775000Y-119775000D01*
D59*
X153650000Y-110250000D02*
X153700000Y-110200000D01*
X152550000Y-94250000D02*
X152950000Y-93850000D01*
D57*
X154050000Y-103662500D02*
X154050000Y-102350000D01*
X172375000Y-94800000D02*
X173200000Y-94800000D01*
D59*
X153150000Y-99750000D02*
X151850000Y-99750000D01*
X112100000Y-103200000D02*
X112100000Y-103800000D01*
X110000000Y-96450000D02*
X110000000Y-95200000D01*
X112000000Y-102550000D02*
X112000000Y-103100000D01*
D57*
X153275000Y-93525000D02*
X152950000Y-93850000D01*
D59*
X133200000Y-122600000D02*
X132250000Y-122600000D01*
D57*
X177025000Y-117300000D02*
X178600000Y-117300000D01*
D58*
X176400000Y-122250000D02*
X176200000Y-122050000D01*
D59*
X168675000Y-82025000D02*
X168675000Y-79450000D01*
D57*
X163930500Y-82425000D02*
X164500000Y-82425000D01*
D58*
X176200000Y-122050000D02*
X176200000Y-119550000D01*
D57*
X116700000Y-82200000D02*
X116675000Y-82225000D01*
D59*
X125000000Y-122600000D02*
X126100000Y-122600000D01*
D57*
X171975000Y-100405000D02*
X173605000Y-100405000D01*
D59*
X182800000Y-107825000D02*
X181625000Y-107825000D01*
X167025000Y-82565000D02*
X168135000Y-82565000D01*
X181625000Y-107825000D02*
X181600000Y-107800000D01*
X177425000Y-96325000D02*
X176700000Y-96325000D01*
D58*
X169787100Y-119449999D02*
X170783301Y-119449999D01*
X143000000Y-84575000D02*
X143000000Y-83850000D01*
D57*
X163700000Y-111950000D02*
X163700000Y-111200000D01*
D59*
X116600000Y-103175000D02*
X116600000Y-102100000D01*
X178275000Y-79425000D02*
X177000000Y-79425000D01*
D58*
X137900000Y-83800000D02*
X137900000Y-85425000D01*
X168775000Y-119775000D02*
X167900000Y-119775000D01*
D57*
X163700000Y-111200000D02*
X164300000Y-110600000D01*
D59*
X155825000Y-99925000D02*
X155825000Y-100700000D01*
D57*
X116675000Y-82225000D02*
X116675000Y-83400000D01*
D58*
X176200000Y-119550000D02*
X176500000Y-119250000D01*
X121225500Y-83925500D02*
X121225500Y-83821202D01*
X122600000Y-83800000D02*
X122600000Y-85425000D01*
D57*
X169787100Y-120050000D02*
X169787100Y-121762100D01*
X167925000Y-121750000D02*
X170050000Y-121750000D01*
X166275000Y-123750000D02*
X166275000Y-121750000D01*
X165412500Y-119725000D02*
X165200000Y-119937500D01*
X164000000Y-121200000D02*
X164475000Y-120725000D01*
X165200000Y-119937500D02*
X164475000Y-119937500D01*
X164025000Y-121675000D02*
X164000000Y-121700000D01*
X166200000Y-119725000D02*
X165412500Y-119725000D01*
X164000000Y-121700000D02*
X166225000Y-121700000D01*
X164000000Y-121700000D02*
X164000000Y-121200000D01*
X164475000Y-120725000D02*
X164475000Y-119937500D01*
X164600000Y-115200000D02*
X166750000Y-115200000D01*
X164475000Y-115325000D02*
X164600000Y-115200000D01*
X163700000Y-114700000D02*
X164200000Y-115200000D01*
X165412500Y-118150000D02*
X165200000Y-117937500D01*
X164475000Y-117937500D02*
X164475000Y-115325000D01*
X165200000Y-117937500D02*
X164475000Y-117937500D01*
X166200000Y-118150000D02*
X165412500Y-118150000D01*
X164200000Y-115200000D02*
X164600000Y-115200000D01*
X163700000Y-113850000D02*
X163700000Y-114700000D01*
X183600000Y-90600000D02*
X172200000Y-90600000D01*
D59*
X151800000Y-111300000D02*
X151850000Y-111250000D01*
D57*
X158200000Y-100800000D02*
X158200000Y-95700000D01*
X125000000Y-127600000D02*
X111700000Y-127600000D01*
X111000000Y-126900000D02*
X111000000Y-125000000D01*
D59*
X133775000Y-109000000D02*
X132225000Y-109000000D01*
X151850000Y-108250000D02*
X150850000Y-108250000D01*
X116625000Y-109750000D02*
X115500000Y-108625000D01*
D57*
X139100000Y-127600000D02*
X125000000Y-127600000D01*
D59*
X150850000Y-111250000D02*
X150750000Y-111150000D01*
D57*
X164500000Y-83975000D02*
X165515000Y-83975000D01*
D59*
X150600000Y-108500000D02*
X150600000Y-111000000D01*
D57*
X128249938Y-96050000D02*
X128074938Y-96225000D01*
D60*
X133000000Y-98750000D02*
X133000000Y-97800000D01*
D59*
X151850000Y-94750000D02*
X152650000Y-94750000D01*
X130025000Y-96075000D02*
X128900000Y-96075000D01*
D57*
X128949938Y-96050000D02*
X128249938Y-96050000D01*
D59*
X170825000Y-95825000D02*
X170825000Y-94800000D01*
X112000000Y-100000000D02*
X112000000Y-100450000D01*
D57*
X186300000Y-109500000D02*
X187600000Y-110800000D01*
D59*
X151850000Y-111250000D02*
X150850000Y-111250000D01*
X150600000Y-111000000D02*
X150750000Y-111150000D01*
X117737500Y-108750000D02*
X116550000Y-108750000D01*
D57*
X157650000Y-95150000D02*
X156000000Y-95150000D01*
X154325000Y-94975000D02*
X154000000Y-94975000D01*
X128074938Y-96225000D02*
X126949938Y-96225000D01*
D59*
X152650000Y-95250000D02*
X152900000Y-95000000D01*
D57*
X139000000Y-125000000D02*
X139000000Y-127500000D01*
X170800000Y-92000000D02*
X170800000Y-94775000D01*
X111700000Y-127600000D02*
X111000000Y-126900000D01*
X186300000Y-109500000D02*
X188000000Y-107800000D01*
X176700000Y-103400000D02*
X177700000Y-104400000D01*
D59*
X171975000Y-96145000D02*
X171790000Y-95960000D01*
D57*
X165515000Y-83975000D02*
X165655000Y-83835000D01*
X164300000Y-86100000D02*
X167200000Y-89000000D01*
X176200000Y-112800000D02*
X179500000Y-109500000D01*
D59*
X117737500Y-109750000D02*
X116625000Y-109750000D01*
D57*
X178300000Y-106175000D02*
X180025000Y-106175000D01*
X188000000Y-107800000D02*
X188000000Y-95000000D01*
X153950000Y-97750000D02*
X154750000Y-97750000D01*
D59*
X139000000Y-127500000D02*
X139100000Y-127600000D01*
X171975000Y-96595000D02*
X170875000Y-96595000D01*
D57*
X163500000Y-84300000D02*
X163825000Y-83975000D01*
X172200000Y-90600000D02*
X170800000Y-92000000D01*
D59*
X112500000Y-99500000D02*
X112000000Y-100000000D01*
D57*
X114500000Y-99500000D02*
X114500000Y-104700000D01*
D59*
X116550000Y-108750000D02*
X116400000Y-108600000D01*
D57*
X153000000Y-125000000D02*
X153000000Y-127400000D01*
X158200000Y-95700000D02*
X157650000Y-95150000D01*
D60*
X130599999Y-95500001D02*
X130400000Y-95700000D01*
D57*
X179500000Y-109500000D02*
X180100000Y-109500000D01*
X153200000Y-127600000D02*
X139100000Y-127600000D01*
X187600000Y-126300000D02*
X186300000Y-127600000D01*
X187600000Y-110800000D02*
X187600000Y-126300000D01*
D59*
X170875000Y-96595000D02*
X170285000Y-97185000D01*
X151850000Y-110750000D02*
X151850000Y-111750000D01*
D57*
X114500000Y-104700000D02*
X111600000Y-107600000D01*
X125000000Y-125000000D02*
X125000000Y-127600000D01*
D59*
X150850000Y-108250000D02*
X150600000Y-108500000D01*
D57*
X180100000Y-106100000D02*
X180100000Y-109500000D01*
D59*
X153950000Y-97750000D02*
X151850000Y-97750000D01*
D57*
X154750000Y-97750000D02*
X155100000Y-97400000D01*
X172300000Y-105600000D02*
X176200000Y-109500000D01*
X180025000Y-106175000D02*
X180100000Y-106100000D01*
D59*
X116400000Y-108600000D02*
X115525000Y-108600000D01*
D57*
X185000000Y-109500000D02*
X186300000Y-109500000D01*
X158200000Y-105600000D02*
X172300000Y-105600000D01*
D59*
X170285000Y-97185000D02*
X170285000Y-102200000D01*
D57*
X186300000Y-127600000D02*
X153200000Y-127600000D01*
D60*
X134600000Y-98750000D02*
X134600000Y-97800000D01*
D59*
X168225000Y-94800000D02*
X170825000Y-94800000D01*
X152650000Y-94750000D02*
X152900000Y-95000000D01*
D57*
X188000000Y-95000000D02*
X183600000Y-90600000D01*
D59*
X171790000Y-95960000D02*
X170960000Y-95960000D01*
X151850000Y-95250000D02*
X152650000Y-95250000D01*
D57*
X179500000Y-104400000D02*
X180100000Y-105000000D01*
X176200000Y-113550000D02*
X176200000Y-112800000D01*
D59*
X130400000Y-95700000D02*
X130025000Y-96075000D01*
D57*
X177700000Y-104400000D02*
X179500000Y-104400000D01*
X163825000Y-83975000D02*
X164500000Y-83975000D01*
X180100000Y-109500000D02*
X185000000Y-109500000D01*
X176700000Y-102325000D02*
X176700000Y-103400000D01*
D60*
X131150001Y-95500001D02*
X130599999Y-95500001D01*
D57*
X167200000Y-89000000D02*
X167800000Y-89000000D01*
X185000000Y-109500000D02*
X185000000Y-107787500D01*
D59*
X171975000Y-96595000D02*
X171975000Y-96145000D01*
D57*
X180100000Y-105000000D02*
X180100000Y-106100000D01*
X158200000Y-105600000D02*
X158200000Y-100800000D01*
X155100000Y-97400000D02*
X155100000Y-95750000D01*
D59*
X153000000Y-127400000D02*
X153200000Y-127600000D01*
D60*
X136200000Y-98750000D02*
X136200000Y-97800000D01*
D59*
X170960000Y-95960000D02*
X170825000Y-95825000D01*
D57*
X111600000Y-107600000D02*
X111600000Y-108450000D01*
X167800000Y-89000000D02*
X170800000Y-92000000D01*
D59*
X114500000Y-99500000D02*
X112500000Y-99500000D01*
D57*
X185000000Y-111212500D02*
X185000000Y-109500000D01*
X152900000Y-95000000D02*
X153975000Y-95000000D01*
X167050000Y-112900000D02*
X173350000Y-112900000D01*
D59*
X153700000Y-111250000D02*
X151850000Y-111250000D01*
D57*
X176200000Y-109500000D02*
X176200000Y-113550000D01*
X165655000Y-83835000D02*
X167025000Y-83835000D01*
X155100000Y-95750000D02*
X154325000Y-94975000D01*
D59*
X129600000Y-109200000D02*
X129800000Y-109000000D01*
X126062500Y-109750000D02*
X127550000Y-109750000D01*
X127550000Y-109750000D02*
X128100000Y-109200000D01*
X129800000Y-109000000D02*
X130575000Y-109000000D01*
X128925000Y-109200000D02*
X129600000Y-109200000D01*
X128100000Y-109200000D02*
X128875000Y-109200000D01*
X109500000Y-107100000D02*
X109500000Y-108625000D01*
X120200000Y-110000000D02*
X120200000Y-110022803D01*
X157689950Y-107100000D02*
X158789950Y-108200000D01*
X130500000Y-107500000D02*
X131600000Y-107500000D01*
X106400000Y-104900000D02*
X108600000Y-107100000D01*
X120200000Y-110022803D02*
X118472803Y-111750000D01*
X157200000Y-107100000D02*
X157689950Y-107100000D01*
X107000000Y-102325000D02*
X107000000Y-102900000D01*
X106400000Y-103500000D02*
X106400000Y-104900000D01*
X108600000Y-107100000D02*
X109500000Y-107100000D01*
X132000000Y-107100000D02*
X141400000Y-107100000D01*
X107000000Y-102900000D02*
X106400000Y-103500000D01*
X158789950Y-108200000D02*
X170200000Y-108200000D01*
X170600000Y-108600000D02*
X170600000Y-109200000D01*
X170200000Y-108200000D02*
X170600000Y-108600000D01*
X131600000Y-107500000D02*
X132000000Y-107100000D01*
X118472803Y-111750000D02*
X117737500Y-111750000D01*
X111575000Y-117450000D02*
X111325000Y-117200000D01*
X111325000Y-117200000D02*
X110250000Y-117200000D01*
X112200000Y-117450000D02*
X111575000Y-117450000D01*
X113900000Y-117500000D02*
X112250000Y-117500000D01*
X109800000Y-112700000D02*
X108550000Y-113950000D01*
X117737500Y-110750000D02*
X116650000Y-110750000D01*
X115794828Y-111600000D02*
X113300000Y-111600000D01*
X112200000Y-112700000D02*
X109800000Y-112700000D01*
X113300000Y-111600000D02*
X112200000Y-112700000D01*
X116650000Y-110750000D02*
X116300000Y-111100000D01*
X108550000Y-113950000D02*
X108550000Y-115000000D01*
X116294828Y-111100000D02*
X115794828Y-111600000D01*
X116300000Y-111100000D02*
X116294828Y-111100000D01*
D57*
X105600000Y-128400000D02*
X105600000Y-84900000D01*
X114050000Y-83050000D02*
X114750000Y-83050000D01*
X110900000Y-84300000D02*
X112150000Y-83050000D01*
X114750000Y-83050000D02*
X115200000Y-83500000D01*
X115200000Y-87600000D02*
X115200000Y-87400000D01*
D59*
X115200000Y-86000000D02*
X115200000Y-84600000D01*
D57*
X105600000Y-84900000D02*
X106200000Y-84300000D01*
X114050000Y-87950000D02*
X114850000Y-87950000D01*
X115200000Y-83500000D02*
X115200000Y-84600000D01*
X112150000Y-83050000D02*
X114050000Y-83050000D01*
D59*
X114062500Y-86000000D02*
X115200000Y-86000000D01*
D57*
X164000000Y-125900000D02*
X164000000Y-123800000D01*
X164000000Y-128600000D02*
X163150000Y-129450000D01*
X106650000Y-129450000D02*
X105600000Y-128400000D01*
X114850000Y-87950000D02*
X115200000Y-87600000D01*
X163150000Y-129450000D02*
X106650000Y-129450000D01*
X106200000Y-84300000D02*
X110900000Y-84300000D01*
D59*
X115200000Y-86000000D02*
X115200000Y-87400000D01*
X182800000Y-106175000D02*
X184962500Y-106175000D01*
X112000000Y-98100000D02*
X112000000Y-98550000D01*
X110000000Y-100100000D02*
X110000000Y-100675000D01*
X111400000Y-99600000D02*
X110500000Y-99600000D01*
X113000000Y-95212212D02*
X113000000Y-97100000D01*
X112000000Y-99000000D02*
X111400000Y-99600000D01*
X110500000Y-99600000D02*
X110000000Y-100100000D01*
X113000000Y-97100000D02*
X112000000Y-98100000D01*
X112000000Y-98550000D02*
X112000000Y-99000000D01*
X110000000Y-99000000D02*
X109400000Y-99600000D01*
X110000000Y-98550000D02*
X110000000Y-99000000D01*
X108500000Y-99800000D02*
X108500000Y-100675000D01*
X111000000Y-95200000D02*
X111000000Y-97100000D01*
X108700000Y-99600000D02*
X108500000Y-99800000D01*
X111000000Y-97100000D02*
X110000000Y-98100000D01*
X109400000Y-99600000D02*
X108700000Y-99600000D01*
X110000000Y-98100000D02*
X110000000Y-98550000D01*
X108000000Y-98000000D02*
X108000000Y-98550000D01*
X107000000Y-99800000D02*
X107000000Y-100675000D01*
X107600000Y-99600000D02*
X107200000Y-99600000D01*
X107200000Y-99600000D02*
X107000000Y-99800000D01*
X108000000Y-99200000D02*
X107600000Y-99600000D01*
X107000000Y-97000000D02*
X108000000Y-98000000D01*
X108000000Y-98550000D02*
X108000000Y-99200000D01*
X107000000Y-95200000D02*
X107000000Y-97000000D01*
D58*
X121900000Y-83900000D02*
X121900000Y-83600000D01*
D59*
X122640000Y-81500000D02*
X122640000Y-82660000D01*
D58*
X122100000Y-84100000D02*
X121900000Y-83900000D01*
X122100000Y-85425000D02*
X122100000Y-84575000D01*
D59*
X121900000Y-83400000D02*
X121900000Y-83600000D01*
D58*
X122100000Y-84575000D02*
X122100000Y-84100000D01*
D59*
X122640000Y-82660000D02*
X121900000Y-83400000D01*
D58*
X122100000Y-86200000D02*
X122100000Y-85425000D01*
X122200000Y-86300000D02*
X122100000Y-86200000D01*
X122200000Y-86950000D02*
X122200000Y-86300000D01*
X123300000Y-84000000D02*
X123300000Y-83600000D01*
D59*
X123980000Y-82220000D02*
X123300000Y-82900000D01*
D58*
X123100000Y-86100000D02*
X123100000Y-85425000D01*
X123000000Y-86950000D02*
X123000000Y-86200000D01*
D59*
X125180000Y-78960000D02*
X123980000Y-80160000D01*
X123980000Y-80160000D02*
X123980000Y-82220000D01*
D58*
X123100000Y-85425000D02*
X123100000Y-84575000D01*
X123100000Y-84200000D02*
X123300000Y-84000000D01*
X123000000Y-86200000D02*
X123100000Y-86100000D01*
D59*
X123300000Y-82900000D02*
X123300000Y-83600000D01*
D58*
X123100000Y-84575000D02*
X123100000Y-84200000D01*
X123600000Y-84575000D02*
X123600000Y-84300000D01*
X123600000Y-84300000D02*
X123900000Y-84000000D01*
D59*
X123900000Y-83200000D02*
X123900000Y-83600000D01*
X124300000Y-82800000D02*
X123900000Y-83200000D01*
D58*
X123800000Y-86400000D02*
X123600000Y-86200000D01*
X123800000Y-86950000D02*
X123800000Y-86400000D01*
D59*
X125180000Y-81500000D02*
X125180000Y-82620000D01*
X125180000Y-82620000D02*
X125000000Y-82800000D01*
D58*
X123600000Y-86200000D02*
X123600000Y-85425000D01*
X123900000Y-84000000D02*
X123900000Y-83600000D01*
X123600000Y-85425000D02*
X123600000Y-84575000D01*
D59*
X125000000Y-82800000D02*
X124300000Y-82800000D01*
D58*
X126500000Y-86950000D02*
X126500000Y-86400000D01*
X126700000Y-84575000D02*
X126700000Y-84300000D01*
X126700000Y-85425000D02*
X126700000Y-84575000D01*
X126700000Y-86200000D02*
X126700000Y-85425000D01*
X126500000Y-86400000D02*
X126700000Y-86200000D01*
X126700000Y-84300000D02*
X126400000Y-84000000D01*
X126400000Y-84000000D02*
X126400000Y-83600000D01*
D59*
X127720000Y-78960000D02*
X126400000Y-80280000D01*
X126400000Y-80280000D02*
X126400000Y-83600000D01*
X127720000Y-82680000D02*
X127000000Y-83400000D01*
D58*
X127200000Y-84575000D02*
X127200000Y-84100000D01*
X127200000Y-84100000D02*
X127000000Y-83900000D01*
D59*
X127000000Y-83400000D02*
X127000000Y-83600000D01*
D58*
X127300000Y-86300000D02*
X127200000Y-86200000D01*
X127000000Y-83900000D02*
X127000000Y-83600000D01*
D59*
X127720000Y-81500000D02*
X127720000Y-82680000D01*
D58*
X127200000Y-86200000D02*
X127200000Y-85425000D01*
X127300000Y-86950000D02*
X127300000Y-86300000D01*
X127200000Y-85425000D02*
X127200000Y-84575000D01*
X128100000Y-86950000D02*
X128100000Y-86300000D01*
X128200000Y-84200000D02*
X128400000Y-84000000D01*
D59*
X128400000Y-82900000D02*
X128400000Y-83600000D01*
D58*
X128100000Y-86300000D02*
X128200000Y-86200000D01*
D59*
X129060000Y-80160000D02*
X129060000Y-82240000D01*
D58*
X128400000Y-84000000D02*
X128400000Y-83600000D01*
X128200000Y-84575000D02*
X128200000Y-84200000D01*
X128200000Y-86200000D02*
X128200000Y-85425000D01*
D59*
X129060000Y-82240000D02*
X128400000Y-82900000D01*
D58*
X128200000Y-85425000D02*
X128200000Y-84575000D01*
D59*
X130260000Y-78960000D02*
X129060000Y-80160000D01*
D58*
X129000000Y-84000000D02*
X129000000Y-83600000D01*
D59*
X129000000Y-83200000D02*
X129000000Y-83600000D01*
D58*
X128900000Y-86950000D02*
X128900000Y-86400000D01*
X128700000Y-84300000D02*
X129000000Y-84000000D01*
D59*
X130260000Y-81500000D02*
X130260000Y-82540000D01*
X130000000Y-82800000D02*
X129400000Y-82800000D01*
D58*
X128700000Y-85425000D02*
X128700000Y-84575000D01*
D59*
X129400000Y-82800000D02*
X129000000Y-83200000D01*
D58*
X128900000Y-86400000D02*
X128700000Y-86200000D01*
X128700000Y-84575000D02*
X128700000Y-84300000D01*
D59*
X130260000Y-82540000D02*
X130000000Y-82800000D01*
D58*
X128700000Y-86200000D02*
X128700000Y-85425000D01*
X131500000Y-84000000D02*
X131500000Y-83600000D01*
X131800000Y-85425000D02*
X131800000Y-84575000D01*
X131800000Y-86100000D02*
X131800000Y-85425000D01*
X131800000Y-84300000D02*
X131500000Y-84000000D01*
X131800000Y-84575000D02*
X131800000Y-84300000D01*
D59*
X132800000Y-78960000D02*
X131500000Y-80260000D01*
D58*
X131600000Y-86300000D02*
X131800000Y-86100000D01*
D59*
X131500000Y-80260000D02*
X131500000Y-83600000D01*
D58*
X131600000Y-86950000D02*
X131600000Y-86300000D01*
X132300000Y-84575000D02*
X132300000Y-84200000D01*
D59*
X132100000Y-83300000D02*
X132100000Y-83600000D01*
D58*
X132400000Y-86300000D02*
X132300000Y-86200000D01*
X132300000Y-86200000D02*
X132300000Y-85425000D01*
D59*
X132800000Y-82600000D02*
X132100000Y-83300000D01*
D58*
X132400000Y-86950000D02*
X132400000Y-86300000D01*
X132100000Y-84000000D02*
X132100000Y-83600000D01*
X132300000Y-85425000D02*
X132300000Y-84575000D01*
D59*
X132800000Y-81500000D02*
X132800000Y-82600000D01*
D58*
X132300000Y-84200000D02*
X132100000Y-84000000D01*
X133300000Y-84200000D02*
X133500000Y-84000000D01*
X133200000Y-86950000D02*
X133200000Y-86300000D01*
X133300000Y-86200000D02*
X133300000Y-85425000D01*
D59*
X135340000Y-78960000D02*
X134100000Y-80200000D01*
D58*
X133300000Y-85425000D02*
X133300000Y-84575000D01*
D59*
X133500000Y-82800000D02*
X133500000Y-83600000D01*
X134100000Y-82200000D02*
X133500000Y-82800000D01*
D58*
X133300000Y-84575000D02*
X133300000Y-84200000D01*
X133500000Y-84000000D02*
X133500000Y-83600000D01*
D59*
X134100000Y-80200000D02*
X134100000Y-82200000D01*
D58*
X133200000Y-86300000D02*
X133300000Y-86200000D01*
D59*
X135100000Y-82800000D02*
X134575000Y-82800000D01*
D58*
X133800000Y-84575000D02*
X133800000Y-84300000D01*
D59*
X135340000Y-82560000D02*
X135100000Y-82800000D01*
D58*
X133800000Y-86200000D02*
X133800000Y-85425000D01*
D59*
X134575000Y-82800000D02*
X134100000Y-83275000D01*
D58*
X133800000Y-84300000D02*
X134100000Y-84000000D01*
X134000000Y-86950000D02*
X134000000Y-86400000D01*
X134000000Y-86400000D02*
X133800000Y-86200000D01*
X134100000Y-84000000D02*
X134100000Y-83600000D01*
X133800000Y-85425000D02*
X133800000Y-84575000D01*
D59*
X135340000Y-81500000D02*
X135340000Y-82560000D01*
X134100000Y-83275000D02*
X134100000Y-83600000D01*
D58*
X136600000Y-84000000D02*
X136600000Y-83600000D01*
D59*
X137880000Y-78960000D02*
X136600000Y-80240000D01*
D58*
X136900000Y-85425000D02*
X136900000Y-84575000D01*
X136900000Y-84575000D02*
X136900000Y-84300000D01*
X136900000Y-86200000D02*
X136900000Y-85425000D01*
X136700000Y-86950000D02*
X136700000Y-86400000D01*
X136700000Y-86400000D02*
X136900000Y-86200000D01*
D59*
X136600000Y-80240000D02*
X136600000Y-83600000D01*
D58*
X136900000Y-84300000D02*
X136600000Y-84000000D01*
D59*
X137200000Y-83300000D02*
X137200000Y-83600000D01*
D58*
X137400000Y-84575000D02*
X137400000Y-84100000D01*
D59*
X137880000Y-82620000D02*
X137200000Y-83300000D01*
D58*
X137400000Y-86200000D02*
X137400000Y-85425000D01*
D59*
X137880000Y-81500000D02*
X137880000Y-82620000D01*
D58*
X137500000Y-86950000D02*
X137500000Y-86300000D01*
X137400000Y-84100000D02*
X137200000Y-83900000D01*
X137500000Y-86300000D02*
X137400000Y-86200000D01*
X137400000Y-84575000D02*
X137400000Y-85425000D01*
X137200000Y-83900000D02*
X137200000Y-83600000D01*
D59*
X140420000Y-78960000D02*
X139080000Y-80300000D01*
X139080000Y-80300000D02*
X139080000Y-82520000D01*
X139080000Y-82520000D02*
X138700000Y-82900000D01*
D58*
X138400000Y-85425000D02*
X138400000Y-84575000D01*
X138700000Y-83800000D02*
X138700000Y-83600000D01*
X138300000Y-86950000D02*
X138300000Y-86300000D01*
X138400000Y-84100000D02*
X138700000Y-83800000D01*
D59*
X138700000Y-82900000D02*
X138700000Y-83600000D01*
D58*
X138400000Y-86200000D02*
X138400000Y-85425000D01*
X138400000Y-84575000D02*
X138400000Y-84100000D01*
X138300000Y-86300000D02*
X138400000Y-86200000D01*
X138900000Y-84575000D02*
X138900000Y-85425000D01*
D59*
X140200000Y-82800000D02*
X139600000Y-82800000D01*
D58*
X139100000Y-86300000D02*
X138900000Y-86100000D01*
X138900000Y-84300000D02*
X139200000Y-84000000D01*
X139100000Y-86950000D02*
X139100000Y-86300000D01*
X139200000Y-84000000D02*
X139200000Y-83600000D01*
D59*
X140420000Y-81500000D02*
X140420000Y-82580000D01*
X139600000Y-82800000D02*
X139200000Y-83200000D01*
D58*
X138900000Y-86100000D02*
X138900000Y-85425000D01*
X138900000Y-84575000D02*
X138900000Y-84300000D01*
D59*
X139200000Y-83200000D02*
X139200000Y-83600000D01*
X140420000Y-82580000D02*
X140200000Y-82800000D01*
D58*
X141800000Y-86950000D02*
X141800000Y-86300000D01*
X142000000Y-85425000D02*
X142000000Y-84575000D01*
X142000000Y-84575000D02*
X142000000Y-84300000D01*
D59*
X141700000Y-80220000D02*
X141700000Y-83600000D01*
X142960000Y-78960000D02*
X141700000Y-80220000D01*
D58*
X142000000Y-84300000D02*
X141700000Y-84000000D01*
X141800000Y-86300000D02*
X142000000Y-86100000D01*
X141700000Y-84000000D02*
X141700000Y-83600000D01*
X142000000Y-86100000D02*
X142000000Y-85425000D01*
X142500000Y-84575000D02*
X142500000Y-84200000D01*
D59*
X142960000Y-81500000D02*
X142960000Y-82640000D01*
D58*
X142500000Y-84200000D02*
X142300000Y-84000000D01*
X142500000Y-86100000D02*
X142500000Y-85425000D01*
X142600000Y-86200000D02*
X142500000Y-86100000D01*
X142600000Y-86950000D02*
X142600000Y-86200000D01*
X142500000Y-85425000D02*
X142500000Y-84575000D01*
D59*
X142300000Y-83300000D02*
X142300000Y-83600000D01*
X142960000Y-82640000D02*
X142300000Y-83300000D01*
D58*
X142300000Y-84000000D02*
X142300000Y-83600000D01*
X143400000Y-86200000D02*
X143500000Y-86100000D01*
X143400000Y-86950000D02*
X143400000Y-86200000D01*
D59*
X144200000Y-80260000D02*
X144200000Y-82400000D01*
D58*
X143700000Y-83900000D02*
X143700000Y-83600000D01*
D59*
X145500000Y-78960000D02*
X144200000Y-80260000D01*
X144200000Y-82400000D02*
X143700000Y-82900000D01*
D58*
X143500000Y-84575000D02*
X143500000Y-84100000D01*
X143500000Y-84100000D02*
X143700000Y-83900000D01*
X143500000Y-86100000D02*
X143500000Y-85425000D01*
D59*
X143700000Y-82900000D02*
X143700000Y-83600000D01*
D58*
X143500000Y-85425000D02*
X143500000Y-84575000D01*
X144000000Y-85425000D02*
X144000000Y-84575000D01*
X144000000Y-84300000D02*
X144300000Y-84000000D01*
X144200000Y-86300000D02*
X144000000Y-86100000D01*
D59*
X145100000Y-82800000D02*
X144700000Y-82800000D01*
X144700000Y-82800000D02*
X144300000Y-83200000D01*
D58*
X144000000Y-86100000D02*
X144000000Y-85425000D01*
D59*
X145500000Y-82400000D02*
X145100000Y-82800000D01*
D58*
X144200000Y-86950000D02*
X144200000Y-86300000D01*
D59*
X144300000Y-83200000D02*
X144300000Y-83600000D01*
D58*
X144000000Y-84575000D02*
X144000000Y-84300000D01*
D59*
X145500000Y-81500000D02*
X145500000Y-82400000D01*
D58*
X144300000Y-84000000D02*
X144300000Y-83600000D01*
D59*
X160000000Y-123700000D02*
X158900000Y-122600000D01*
X160000000Y-125000000D02*
X160000000Y-123700000D01*
X158900000Y-122600000D02*
X158150000Y-122600000D01*
X158150000Y-120825000D02*
X158150000Y-122600000D01*
X156000000Y-120625000D02*
X156000000Y-121600000D01*
X156500000Y-125000000D02*
X156500000Y-123500000D01*
X156500000Y-123500000D02*
X156250000Y-123250000D01*
X156250000Y-123250000D02*
X156250000Y-122600000D01*
X156250000Y-121850000D02*
X156250000Y-122600000D01*
X156000000Y-121600000D02*
X156250000Y-121850000D01*
X144950000Y-122600000D02*
X144150000Y-122600000D01*
X146000000Y-125000000D02*
X146000000Y-123650000D01*
X146000000Y-123650000D02*
X144950000Y-122600000D01*
X144150000Y-120825000D02*
X144150000Y-122600000D01*
X142200000Y-123200000D02*
X142500000Y-123500000D01*
X142200000Y-121800000D02*
X142200000Y-122600000D01*
X142000000Y-120625000D02*
X142000000Y-121600000D01*
X142200000Y-122600000D02*
X142200000Y-123200000D01*
X142000000Y-121600000D02*
X142200000Y-121800000D01*
X142500000Y-123500000D02*
X142500000Y-125000000D01*
X130150000Y-120825000D02*
X130150000Y-122600000D01*
X130900000Y-122600000D02*
X130150000Y-122600000D01*
X132000000Y-123700000D02*
X130900000Y-122600000D01*
X132000000Y-125000000D02*
X132000000Y-123700000D01*
X116400000Y-121400000D02*
X116150000Y-121650000D01*
X116150000Y-121650000D02*
X116150000Y-122600000D01*
X116400000Y-120625000D02*
X116400000Y-121400000D01*
X118000000Y-123700000D02*
X116900000Y-122600000D01*
X118000000Y-125000000D02*
X118000000Y-123700000D01*
X116900000Y-122600000D02*
X116150000Y-122600000D01*
X128200000Y-123200000D02*
X128200000Y-122600000D01*
X128000000Y-121600000D02*
X128200000Y-121800000D01*
X128500000Y-123500000D02*
X128200000Y-123200000D01*
X128000000Y-120625000D02*
X128000000Y-121600000D01*
X128500000Y-125000000D02*
X128500000Y-123500000D01*
X128200000Y-121800000D02*
X128200000Y-122600000D01*
X110800000Y-91400000D02*
X111775000Y-91400000D01*
D61*
X117800000Y-85000000D02*
X117750000Y-85050000D01*
X117750000Y-85050000D02*
X116337500Y-85050000D01*
X117800000Y-87000000D02*
X117750000Y-86950000D01*
X117750000Y-86950000D02*
X116337500Y-86950000D01*
D59*
X110800000Y-79600000D02*
X111775000Y-79600000D01*
X124150000Y-115450000D02*
X124150000Y-114162500D01*
X139900000Y-116600500D02*
X139800500Y-116700000D01*
X139900000Y-110700000D02*
X143800000Y-106800000D01*
X143800000Y-98700000D02*
X146250000Y-96250000D01*
X146250000Y-96250000D02*
X151850000Y-96250000D01*
X139800500Y-116700000D02*
X125400000Y-116700000D01*
X125400000Y-116700000D02*
X124150000Y-115450000D01*
X139900000Y-110700000D02*
X138200000Y-109000000D01*
X143800000Y-106800000D02*
X143800000Y-98700000D01*
X138200000Y-109000000D02*
X135425000Y-109000000D01*
X144800000Y-107600000D02*
X144800000Y-100200000D01*
X151850000Y-96750000D02*
X152650500Y-96750000D01*
X125700000Y-116000000D02*
X124650000Y-114950000D01*
X124650000Y-114950000D02*
X124650000Y-114162500D01*
X148250000Y-96750000D02*
X151850000Y-96750000D01*
X138755275Y-116000000D02*
X125700000Y-116000000D01*
X141700000Y-110700000D02*
X144800000Y-107600000D01*
X144800000Y-100200000D02*
X148250000Y-96750000D01*
X139155275Y-115600000D02*
X138755275Y-116000000D01*
X141700000Y-115600000D02*
X139155275Y-115600000D01*
X152650500Y-96750000D02*
X153200500Y-96200000D01*
X153300000Y-98600000D02*
X156700000Y-98600000D01*
X153054000Y-98600000D02*
X153300000Y-98600000D01*
X151850000Y-98250000D02*
X150050000Y-98250000D01*
X143450000Y-112750000D02*
X128550000Y-112750000D01*
X151850000Y-98250000D02*
X152704000Y-98250000D01*
X148000000Y-108200000D02*
X143450000Y-112750000D01*
X150050000Y-98250000D02*
X148000000Y-100300000D01*
X148000000Y-100300000D02*
X148000000Y-108200000D01*
X152704000Y-98250000D02*
X153054000Y-98600000D01*
X127550000Y-111750000D02*
X126062500Y-111750000D01*
X128550000Y-112750000D02*
X127550000Y-111750000D01*
X151850000Y-98750000D02*
X150500000Y-98750000D01*
X144500000Y-113500000D02*
X128500000Y-113500000D01*
X128500000Y-113500000D02*
X127250000Y-112250000D01*
X149000000Y-100250000D02*
X149000000Y-108398065D01*
X149000000Y-108398065D02*
X148600000Y-108798065D01*
X150500000Y-98750000D02*
X149000000Y-100250000D01*
X148600000Y-109400000D02*
X144500000Y-113500000D01*
X148600000Y-108798065D02*
X148600000Y-109400000D01*
X127250000Y-112250000D02*
X126062500Y-112250000D01*
X150000000Y-100200000D02*
X150950000Y-99250000D01*
X150000000Y-108400000D02*
X150000000Y-100200000D01*
X123650000Y-115750000D02*
X125400000Y-117500000D01*
X150950000Y-99250000D02*
X151850000Y-99250000D01*
X149400000Y-109000000D02*
X150000000Y-108400000D01*
X123650000Y-114162500D02*
X123650000Y-115750000D01*
X125400000Y-117500000D02*
X142300000Y-117500000D01*
X142300000Y-117500000D02*
X149400000Y-110400000D01*
X149400000Y-110400000D02*
X149400000Y-109000000D01*
X151850000Y-100250000D02*
X151850000Y-107750000D01*
X153150000Y-100250000D02*
X151850000Y-100250000D01*
X154175000Y-100700000D02*
X153600000Y-100700000D01*
X153600000Y-100700000D02*
X153150000Y-100250000D01*
X175000000Y-81025000D02*
X175000000Y-82925000D01*
X175875000Y-96575000D02*
X175875000Y-97125000D01*
X175875000Y-97125000D02*
X177250000Y-98500000D01*
X175625000Y-96325000D02*
X175875000Y-96575000D01*
X175000000Y-96325000D02*
X175625000Y-96325000D01*
X156000000Y-107375000D02*
X156000000Y-103712500D01*
X155000000Y-105537500D02*
X155000000Y-106800000D01*
X154425000Y-107375000D02*
X154000000Y-107375000D01*
X155000000Y-106800000D02*
X154425000Y-107375000D01*
D58*
X173299999Y-119449999D02*
X174300000Y-120450000D01*
X174600000Y-122250000D02*
X175375000Y-122250000D01*
X174300000Y-120450000D02*
X174300000Y-121950000D01*
X172779500Y-119449999D02*
X173299999Y-119449999D01*
X174300000Y-121950000D02*
X174600000Y-122250000D01*
X175375000Y-122250000D02*
X175375000Y-123950000D01*
X173800000Y-118950000D02*
X174100000Y-119250000D01*
X174100000Y-119250000D02*
X175375000Y-119250000D01*
X175375000Y-119250000D02*
X175375000Y-120650000D01*
X172779500Y-118950000D02*
X173800000Y-118950000D01*
X174200000Y-117650000D02*
X175375000Y-117650000D01*
X173399999Y-118450001D02*
X174200000Y-117650000D01*
X172779500Y-118450001D02*
X173399999Y-118450001D01*
X168900000Y-118950000D02*
X168700000Y-118750000D01*
X168700000Y-118300000D02*
X168525000Y-118125000D01*
X168525000Y-118125000D02*
X167900000Y-118125000D01*
X168700000Y-118750000D02*
X168700000Y-118300000D01*
X169787100Y-118950000D02*
X168900000Y-118950000D01*
D59*
X119150000Y-109250000D02*
X117737500Y-109250000D01*
X116600000Y-104825000D02*
X116600000Y-105900000D01*
X178300000Y-107825000D02*
X178300000Y-108800000D01*
X127550000Y-110250000D02*
X128100000Y-110800000D01*
X126062500Y-110250000D02*
X127550000Y-110250000D01*
X129675000Y-110775000D02*
X129900000Y-111000000D01*
X128100000Y-110800000D02*
X128875000Y-110800000D01*
X129900000Y-111000000D02*
X130575000Y-111000000D01*
X128900000Y-110775000D02*
X129675000Y-110775000D01*
X182800000Y-112825000D02*
X184962500Y-112825000D01*
X116851935Y-111250000D02*
X116501935Y-111600000D01*
X114900000Y-112600000D02*
X113900000Y-113600000D01*
X116501935Y-111600000D02*
X116501935Y-111605172D01*
X113900000Y-113600000D02*
X113900000Y-115850000D01*
X116501935Y-111605172D02*
X115507107Y-112600000D01*
X117737500Y-111250000D02*
X116851935Y-111250000D01*
X115507107Y-112600000D02*
X114900000Y-112600000D01*
X124400000Y-107750000D02*
X124150000Y-108000000D01*
X110600000Y-103800000D02*
X110000000Y-103200000D01*
X110000000Y-103200000D02*
X110000000Y-102325000D01*
X122800000Y-108000000D02*
X122100000Y-107300000D01*
X126062500Y-107750000D02*
X124400000Y-107750000D01*
X122100000Y-107300000D02*
X122100000Y-107200000D01*
X124150000Y-108000000D02*
X122800000Y-108000000D01*
X157414950Y-105925000D02*
X157225000Y-105925000D01*
X126062500Y-106312500D02*
X126062500Y-107250000D01*
X171000000Y-106600000D02*
X158089950Y-106600000D01*
X112300000Y-104700000D02*
X109300000Y-104700000D01*
X113000000Y-104000000D02*
X112300000Y-104700000D01*
X158089950Y-106600000D02*
X157414950Y-105925000D01*
X109300000Y-104700000D02*
X108500000Y-103900000D01*
X130500000Y-106000000D02*
X141400000Y-106000000D01*
X108500000Y-103900000D02*
X108500000Y-102325000D01*
X161000000Y-90400000D02*
X162400000Y-90400000D01*
X152200000Y-89400000D02*
X160000000Y-89400000D01*
X162400000Y-90400000D02*
X164000000Y-92000000D01*
X164000000Y-92000000D02*
X164000000Y-93300000D01*
X141200000Y-98200000D02*
X147200000Y-92200000D01*
X119650000Y-112150000D02*
X119650000Y-114162500D01*
X141100000Y-103100000D02*
X141200000Y-103000000D01*
X165500000Y-94800000D02*
X166575000Y-94800000D01*
X166575000Y-94800000D02*
X166575000Y-95515000D01*
X166575000Y-95515000D02*
X167025000Y-95965000D01*
X141200000Y-103000000D02*
X141200000Y-98200000D01*
X160000000Y-89400000D02*
X161000000Y-90400000D01*
X120400000Y-111400000D02*
X119650000Y-112150000D01*
X149400000Y-92200000D02*
X152200000Y-89400000D01*
X164000000Y-93300000D02*
X165500000Y-94800000D01*
X167025000Y-95965000D02*
X167025000Y-96595000D01*
X147200000Y-92200000D02*
X149400000Y-92200000D01*
X156000000Y-109025000D02*
X156000000Y-112400000D01*
X150200000Y-118200000D02*
X125300000Y-118200000D01*
X122650000Y-115550000D02*
X122650000Y-114162500D01*
X156000000Y-112400000D02*
X150200000Y-118200000D01*
X125300000Y-118200000D02*
X122650000Y-115550000D01*
X128400000Y-114500000D02*
X132925000Y-114500000D01*
X126650000Y-112750000D02*
X128400000Y-114500000D01*
D60*
X132100000Y-97700000D02*
X132100000Y-100400000D01*
X131400000Y-100400000D02*
X133000000Y-100400000D01*
D59*
X125100000Y-101800000D02*
X120900000Y-101800000D01*
D60*
X120400000Y-91300000D02*
X120400000Y-96582842D01*
X133000000Y-96800000D02*
X132100000Y-97700000D01*
D59*
X119150000Y-103550000D02*
X119150000Y-105837500D01*
D60*
X120400000Y-96582842D02*
X123317158Y-99500000D01*
X123317158Y-99500000D02*
X130500000Y-99500000D01*
X133000000Y-96149999D02*
X133000000Y-96800000D01*
D59*
X120900000Y-101800000D02*
X119150000Y-103550000D01*
D60*
X130500000Y-99500000D02*
X131400000Y-100400000D01*
X133000000Y-101400000D02*
X133000000Y-100400000D01*
X132100000Y-100400000D02*
X133000000Y-100400000D01*
X133399999Y-96149999D02*
X133399999Y-96999999D01*
X134600000Y-101400000D02*
X134600000Y-100400000D01*
D59*
X126450000Y-103300000D02*
X120500000Y-103300000D01*
D60*
X133800000Y-97400000D02*
X133800000Y-100200000D01*
X121350000Y-98700000D02*
X119200000Y-96550000D01*
D59*
X119650000Y-104150000D02*
X119650000Y-105837500D01*
D60*
X134000000Y-100400000D02*
X134600000Y-100400000D01*
X121400000Y-98700000D02*
X121350000Y-98700000D01*
X119200000Y-96550000D02*
X119200000Y-93600000D01*
X133800000Y-100200000D02*
X134000000Y-100400000D01*
X133399999Y-96999999D02*
X133800000Y-97400000D01*
D59*
X120500000Y-103300000D02*
X119650000Y-104150000D01*
D60*
X119200000Y-93600000D02*
X116900000Y-91300000D01*
D59*
X161000000Y-120600000D02*
X160025000Y-120600000D01*
X127842893Y-111250000D02*
X126062500Y-111250000D01*
X128492893Y-111900000D02*
X127842893Y-111250000D01*
X128850000Y-111900000D02*
X128492893Y-111900000D01*
X124600000Y-111400000D02*
X125250000Y-110750000D01*
X124600000Y-112700000D02*
X124600000Y-111400000D01*
X126600000Y-114700000D02*
X124600000Y-112700000D01*
X125250000Y-110750000D02*
X126062500Y-110750000D01*
X151700000Y-120600000D02*
X154375000Y-120600000D01*
X123600000Y-112200000D02*
X123600000Y-110000000D01*
X123600000Y-110000000D02*
X120650000Y-107050000D01*
X120650000Y-107050000D02*
X120650000Y-105837500D01*
X147200000Y-120600000D02*
X146025000Y-120600000D01*
X122300000Y-112200000D02*
X122300000Y-109700000D01*
X122300000Y-109700000D02*
X120150000Y-107550000D01*
X120150000Y-107550000D02*
X120150000Y-105837500D01*
X137600000Y-120600000D02*
X140375000Y-120600000D01*
X120600000Y-116300000D02*
X121150000Y-115750000D01*
X133200000Y-120600000D02*
X132025000Y-120600000D01*
X121150000Y-115750000D02*
X121150000Y-114162500D01*
X121650000Y-117350000D02*
X121650000Y-114162500D01*
X126375000Y-120600000D02*
X124900000Y-120600000D01*
X124900000Y-120600000D02*
X121650000Y-117350000D01*
X119200000Y-120600000D02*
X118025000Y-120600000D01*
X117737500Y-112250000D02*
X118650000Y-112250000D01*
X118500000Y-113400000D02*
X118100000Y-113400000D01*
X118100000Y-113400000D02*
X117700000Y-113800000D01*
X118800000Y-112400000D02*
X118800000Y-113100000D01*
X118800000Y-113100000D02*
X118500000Y-113400000D01*
X118650000Y-112250000D02*
X118800000Y-112400000D01*
X116650000Y-112750000D02*
X116400000Y-113000000D01*
X116400000Y-113000000D02*
X116400000Y-115300000D01*
X112375000Y-120600000D02*
X109800000Y-120600000D01*
X117737500Y-112750000D02*
X116650000Y-112750000D01*
D58*
X169787100Y-117287100D02*
X169787100Y-117949999D01*
X169500000Y-117000000D02*
X169787100Y-117287100D01*
X168700000Y-117400000D02*
X168300000Y-117000000D01*
X169183901Y-118450001D02*
X169150001Y-118416101D01*
X169787100Y-118450001D02*
X169183901Y-118450001D01*
X169150001Y-117850001D02*
X168700000Y-117400000D01*
X169150001Y-118416101D02*
X169150001Y-118400000D01*
X169150001Y-118400000D02*
X169150001Y-117850001D01*
X168300000Y-117000000D02*
X168100000Y-117000000D01*
D59*
X164905000Y-81295000D02*
X167025000Y-81295000D01*
X123650000Y-104650000D02*
X123000000Y-104000000D01*
X136700000Y-103600000D02*
X133997158Y-103600000D01*
X164894500Y-81294500D02*
X150705500Y-81294500D01*
X133997158Y-103600000D02*
X133598363Y-103998795D01*
X150705500Y-81294500D02*
X145900000Y-86100000D01*
X123650000Y-105837500D02*
X123650000Y-104650000D01*
X139300000Y-97500000D02*
X139300000Y-101000000D01*
X145900000Y-86100000D02*
X145900000Y-90900000D01*
X145900000Y-90900000D02*
X139300000Y-97500000D01*
X139300000Y-101000000D02*
X136700000Y-103600000D01*
X140300000Y-97800000D02*
X146600000Y-91500000D01*
X127700000Y-104699500D02*
X127650500Y-104650000D01*
X150550000Y-84800000D02*
X154800000Y-84800000D01*
X161155000Y-85105000D02*
X167025000Y-85105000D01*
X146600000Y-88750000D02*
X150550000Y-84800000D01*
X124602197Y-104650000D02*
X124150000Y-105102197D01*
X133599500Y-105300500D02*
X137199500Y-105300500D01*
X146600000Y-91500000D02*
X146600000Y-88750000D01*
X137199500Y-105300500D02*
X140300000Y-102200000D01*
X124150000Y-105102197D02*
X124150000Y-105837500D01*
X140300000Y-102200000D02*
X140300000Y-97800000D01*
X160850000Y-84800000D02*
X161155000Y-85105000D01*
X127650500Y-104650000D02*
X124602197Y-104650000D01*
X154800000Y-84800000D02*
X160850000Y-84800000D01*
X164000000Y-96900000D02*
X164000000Y-98500000D01*
X151700000Y-90800000D02*
X157900000Y-90800000D01*
X142300000Y-104000000D02*
X142300000Y-98500000D01*
X119150000Y-115250000D02*
X119150000Y-114162500D01*
X149100000Y-93400000D02*
X151700000Y-90800000D01*
X164000000Y-98500000D02*
X166000000Y-100500000D01*
X119700000Y-115800000D02*
X119150000Y-115250000D01*
X147400000Y-93400000D02*
X149100000Y-93400000D01*
X157900000Y-90800000D02*
X164000000Y-96900000D01*
X166000000Y-100500000D02*
X166930000Y-100500000D01*
X142300000Y-98500000D02*
X147400000Y-93400000D01*
D61*
X126080343Y-108732157D02*
X127521163Y-108732157D01*
X109600000Y-88700000D02*
X111350000Y-86950000D01*
X128496164Y-100367844D02*
X120496164Y-100367844D01*
X127521163Y-108732157D02*
X129582156Y-106671164D01*
X110446164Y-93517844D02*
X109600000Y-92671680D01*
X129582156Y-101453836D02*
X128496164Y-100367844D01*
X120496164Y-100367844D02*
X113646164Y-93517844D01*
X113646164Y-93517844D02*
X110446164Y-93517844D01*
X109600000Y-92671680D02*
X109600000Y-88700000D01*
X129582156Y-106671164D02*
X129582156Y-101453836D01*
X111350000Y-86950000D02*
X114062500Y-86950000D01*
X110253836Y-93982156D02*
X109100000Y-92828320D01*
X128303836Y-100832156D02*
X120303836Y-100832156D01*
X113250000Y-85050000D02*
X114062500Y-85050000D01*
X113453836Y-93982156D02*
X110253836Y-93982156D01*
X129117844Y-101646164D02*
X128303836Y-100832156D01*
X129117844Y-106478836D02*
X129117844Y-101646164D01*
X120303836Y-100832156D02*
X113453836Y-93982156D01*
X109100000Y-92828320D02*
X109100000Y-88575563D01*
X111175563Y-86500000D02*
X111800000Y-86500000D01*
X109100000Y-88575563D02*
X111175563Y-86500000D01*
X127328837Y-108267843D02*
X129117844Y-106478836D01*
X111800000Y-86500000D02*
X113250000Y-85050000D01*
X126080343Y-108267843D02*
X127328837Y-108267843D01*
D59*
X114025000Y-121375000D02*
X114025000Y-120600000D01*
X114250000Y-121600000D02*
X114025000Y-121375000D01*
X114250000Y-123050000D02*
X114250000Y-122600000D01*
X114500000Y-125000000D02*
X114500000Y-123300000D01*
X114250000Y-122600000D02*
X114250000Y-121600000D01*
X114500000Y-123300000D02*
X114250000Y-123050000D01*
X181500500Y-99487174D02*
X181463326Y-99450000D01*
X181463326Y-99450000D02*
X179062500Y-99450000D01*
X181462500Y-100952097D02*
X181010403Y-100500000D01*
X179340000Y-100500000D02*
X179062500Y-100222500D01*
X181010403Y-100500000D02*
X179340000Y-100500000D01*
X181462500Y-102000000D02*
X181462500Y-100952097D01*
X179062500Y-100222500D02*
X179062500Y-99450000D01*
X179062500Y-97550000D02*
X181850000Y-97550000D01*
X182200000Y-99800000D02*
X182200000Y-97900000D01*
X182650000Y-100250000D02*
X182200000Y-99800000D01*
X181462500Y-96237500D02*
X181200000Y-96500000D01*
X184000000Y-100250000D02*
X182650000Y-100250000D01*
X179340000Y-96500000D02*
X179062500Y-96777500D01*
X181462500Y-94700000D02*
X181462500Y-96237500D01*
X181200000Y-96500000D02*
X179340000Y-96500000D01*
X182200000Y-97900000D02*
X181850000Y-97550000D01*
X179062500Y-96777500D02*
X179062500Y-97550000D01*
X174325000Y-94675000D02*
X175000000Y-94675000D01*
X171975000Y-97865000D02*
X173135000Y-97865000D01*
X173135000Y-97865000D02*
X173700000Y-97300000D01*
X175000000Y-94675000D02*
X178212500Y-94675000D01*
X173700000Y-95300000D02*
X174325000Y-94675000D01*
X173700000Y-97300000D02*
X173700000Y-95300000D01*
X174000000Y-98565000D02*
X174065000Y-98500000D01*
X173065000Y-99135000D02*
X173700000Y-98500000D01*
X178537500Y-100937500D02*
X178537500Y-102000000D01*
X176700000Y-100675000D02*
X178275000Y-100675000D01*
X174710000Y-98500000D02*
X174710000Y-100110000D01*
X171975000Y-99135000D02*
X173065000Y-99135000D01*
X175275000Y-100675000D02*
X176700000Y-100675000D01*
X174710000Y-100110000D02*
X175275000Y-100675000D01*
X173700000Y-98500000D02*
X174710000Y-98500000D01*
X178275000Y-100675000D02*
X178537500Y-100937500D01*
X168660000Y-97900000D02*
X168660000Y-99100000D01*
X167025000Y-99135000D02*
X168625000Y-99135000D01*
X168660000Y-99100000D02*
X168660000Y-102175000D01*
X167025000Y-97865000D02*
X168625000Y-97865000D01*
X168625000Y-99135000D02*
X168660000Y-99100000D01*
X168625000Y-97865000D02*
X168660000Y-97900000D01*
X181000000Y-81450000D02*
X184000000Y-81450000D01*
X172885000Y-82565000D02*
X173500000Y-81950000D01*
X179062500Y-82250000D02*
X180200000Y-82250000D01*
X173500000Y-81950000D02*
X173500000Y-79950000D01*
X174075000Y-79375000D02*
X175000000Y-79375000D01*
X171975000Y-82565000D02*
X172885000Y-82565000D01*
X176275000Y-80975000D02*
X177000000Y-80975000D01*
X178525000Y-80975000D02*
X179062500Y-81512500D01*
X176000000Y-79700000D02*
X176000000Y-80700000D01*
X175000000Y-79375000D02*
X175675000Y-79375000D01*
X176000000Y-80700000D02*
X176275000Y-80975000D01*
X175675000Y-79375000D02*
X176000000Y-79700000D01*
X177000000Y-80975000D02*
X178525000Y-80975000D01*
X173500000Y-79950000D02*
X174075000Y-79375000D01*
X180200000Y-82250000D02*
X181000000Y-81450000D01*
X179062500Y-81512500D02*
X179062500Y-82250000D01*
X176015000Y-84450000D02*
X177265000Y-83200000D01*
X179062500Y-84887500D02*
X179062500Y-84150000D01*
X180200000Y-84150000D02*
X181000000Y-84950000D01*
X181000000Y-84950000D02*
X184000000Y-84950000D01*
X179062500Y-84150000D02*
X180200000Y-84150000D01*
X177265000Y-83200000D02*
X177265000Y-84435000D01*
X171975000Y-83835000D02*
X172885000Y-83835000D01*
X178525000Y-85425000D02*
X179062500Y-84887500D01*
X177000000Y-85425000D02*
X178525000Y-85425000D01*
X172885000Y-83835000D02*
X173500000Y-84450000D01*
X177265000Y-84435000D02*
X177000000Y-84700000D01*
X177000000Y-84700000D02*
X177000000Y-85425000D01*
X173500000Y-84450000D02*
X176015000Y-84450000D01*
X175000000Y-85375000D02*
X173925000Y-85375000D01*
X173925000Y-85375000D02*
X173655000Y-85105000D01*
X171975000Y-85105000D02*
X173655000Y-85105000D01*
X170325000Y-80775000D02*
X170325000Y-79450000D01*
X170845000Y-81295000D02*
X170325000Y-80775000D01*
X171975000Y-81295000D02*
X170845000Y-81295000D01*
D60*
X136634314Y-90400000D02*
X135334314Y-91700000D01*
D59*
X144200000Y-88650000D02*
X144200000Y-89500000D01*
D60*
X135334314Y-91700000D02*
X134000000Y-91700000D01*
X133399999Y-92300001D02*
X133399999Y-92850001D01*
X134000000Y-91700000D02*
X133399999Y-92300001D01*
X144200000Y-90400000D02*
X136634314Y-90400000D01*
X133800001Y-92499999D02*
X134100000Y-92200000D01*
X133800001Y-92850001D02*
X133800001Y-92499999D01*
D59*
X143400000Y-88650000D02*
X143400000Y-89500000D01*
D60*
X134100000Y-92200000D02*
X135400000Y-92200000D01*
X135400000Y-92200000D02*
X136500000Y-91100000D01*
X136500000Y-91100000D02*
X143400000Y-91100000D01*
X136700000Y-91800000D02*
X142600000Y-91800000D01*
D59*
X142600000Y-88650000D02*
X142600000Y-89500000D01*
D60*
X135000001Y-93499999D02*
X136700000Y-91800000D01*
X134449999Y-93499999D02*
X135000001Y-93499999D01*
D59*
X141800000Y-88650000D02*
X141800000Y-89500000D01*
D60*
X135299999Y-93900001D02*
X136600000Y-92600000D01*
X136600000Y-92600000D02*
X141800000Y-92600000D01*
X134449999Y-93900001D02*
X135299999Y-93900001D01*
D59*
X139100000Y-88650000D02*
X139100000Y-89500000D01*
D60*
X134449999Y-94300000D02*
X135849389Y-94300000D01*
X136749389Y-93400000D02*
X139100000Y-93400000D01*
X135849389Y-94300000D02*
X136749389Y-93400000D01*
X136015075Y-94700000D02*
X136515075Y-94200000D01*
X134449999Y-94700000D02*
X136015075Y-94700000D01*
X136515075Y-94200000D02*
X138300000Y-94200000D01*
D59*
X138300000Y-88650000D02*
X138300000Y-89500000D01*
X137500000Y-88650000D02*
X137500000Y-89500000D01*
D60*
X136430761Y-94850000D02*
X136180762Y-95099999D01*
X137450000Y-94850000D02*
X136430761Y-94850000D01*
X136180762Y-95099999D02*
X134449999Y-95099999D01*
X137500000Y-94900000D02*
X137450000Y-94850000D01*
D59*
X136700000Y-88650000D02*
X136700000Y-89500000D01*
D60*
X134449999Y-95500001D02*
X136700000Y-95500000D01*
X133000000Y-92850001D02*
X133000000Y-92150000D01*
X133000000Y-92150000D02*
X134000000Y-91150000D01*
X134000000Y-91150000D02*
X134000000Y-88650000D01*
X132600000Y-91600000D02*
X133200000Y-91000000D01*
X132600000Y-92850001D02*
X132600000Y-91600000D01*
X133200000Y-91000000D02*
X133200000Y-88650000D01*
X132200001Y-92850001D02*
X132200001Y-90999999D01*
X132200001Y-90999999D02*
X132400000Y-90800000D01*
X132400000Y-90800000D02*
X132400000Y-88650000D01*
X131600000Y-91900000D02*
X131600000Y-88650000D01*
X131799999Y-92099999D02*
X131600000Y-91900000D01*
X131799999Y-92850001D02*
X131799999Y-92099999D01*
X128900000Y-90200000D02*
X131150001Y-92450001D01*
X131150001Y-92450001D02*
X131150001Y-93499999D01*
X128900000Y-88650000D02*
X128900000Y-90200000D01*
X128100000Y-88650000D02*
X128100000Y-90200000D01*
X130400000Y-93541734D02*
X130758267Y-93900001D01*
X130400000Y-92500000D02*
X130400000Y-93541734D01*
X128100000Y-90200000D02*
X130400000Y-92500000D01*
X130758267Y-93900001D02*
X131150001Y-93900001D01*
X129800000Y-93000000D02*
X129800000Y-93404182D01*
X127300000Y-90500000D02*
X129800000Y-93000000D01*
X129800000Y-93404182D02*
X130695818Y-94300000D01*
X130695818Y-94300000D02*
X131150001Y-94300000D01*
X127300000Y-88650000D02*
X127300000Y-90500000D01*
X126500000Y-90700000D02*
X130500000Y-94700000D01*
X126500000Y-88650000D02*
X126500000Y-90700000D01*
X130500000Y-94700000D02*
X131150001Y-94700000D01*
X123804539Y-95197730D02*
X123800000Y-95193191D01*
X123800000Y-95193191D02*
X123800000Y-88650000D01*
X124100000Y-97600000D02*
X123804539Y-97304539D01*
X131799999Y-96149999D02*
X131000001Y-96149999D01*
X123804539Y-97304539D02*
X123804539Y-95197730D01*
X129550000Y-97600000D02*
X124100000Y-97600000D01*
X131000001Y-96149999D02*
X129550000Y-97600000D01*
X131841734Y-96900000D02*
X131092894Y-96900000D01*
X123800000Y-98300000D02*
X123000000Y-97500000D01*
X123000000Y-97500000D02*
X123000000Y-88650000D01*
X131092894Y-96900000D02*
X131092894Y-96907106D01*
X132200001Y-96541733D02*
X131841734Y-96900000D01*
X132200001Y-96149999D02*
X132200001Y-96541733D01*
X131092894Y-96907106D02*
X129700000Y-98300000D01*
X129700000Y-98300000D02*
X123800000Y-98300000D01*
X132600000Y-96604182D02*
X132600000Y-96149999D01*
X123400000Y-98900000D02*
X130304182Y-98900000D01*
X122200000Y-88650000D02*
X122200000Y-97700000D01*
X122200000Y-97700000D02*
X123400000Y-98900000D01*
X130304182Y-98900000D02*
X132600000Y-96604182D01*
X135400000Y-100200000D02*
X135600000Y-100400000D01*
X135400000Y-97300000D02*
X135400000Y-100200000D01*
X133800001Y-96800001D02*
X134100000Y-97100000D01*
X134100000Y-97100000D02*
X135200000Y-97100000D01*
X135200000Y-97100000D02*
X135400000Y-97300000D01*
X133800001Y-96149999D02*
X133800001Y-96800001D01*
X135600000Y-100400000D02*
X136200000Y-100400000D01*
D58*
X125300000Y-93500000D02*
X125000000Y-93800000D01*
X125000000Y-93800000D02*
X125000000Y-94475000D01*
X131150001Y-95099999D02*
X130000000Y-95100000D01*
D59*
X161700000Y-120300000D02*
X161700000Y-121100000D01*
X122150000Y-114162500D02*
X122150000Y-116250000D01*
X181600000Y-113600000D02*
X181600000Y-111600000D01*
X183700000Y-126800000D02*
X186000000Y-124500000D01*
X181600000Y-111600000D02*
X182025000Y-111175000D01*
X182000000Y-114000000D02*
X181600000Y-113600000D01*
X184800000Y-114000000D02*
X182000000Y-114000000D01*
X160800000Y-119400000D02*
X161700000Y-120300000D01*
X125300000Y-119400000D02*
X160800000Y-119400000D01*
X186000000Y-115200000D02*
X184800000Y-114000000D01*
X182025000Y-111175000D02*
X182800000Y-111175000D01*
X162500000Y-126000000D02*
X163300000Y-126800000D01*
X163300000Y-126800000D02*
X183700000Y-126800000D01*
X186000000Y-124500000D02*
X186000000Y-115200000D01*
X122150000Y-116250000D02*
X125300000Y-119400000D01*
X162500000Y-121900000D02*
X162500000Y-126000000D01*
X161700000Y-121100000D02*
X162500000Y-121900000D01*
X153073500Y-97250000D02*
X151850000Y-97250000D01*
X143300000Y-114500000D02*
X134575000Y-114500000D01*
X143600000Y-110700000D02*
X146100000Y-108200000D01*
X153300000Y-97123500D02*
X153073500Y-97250000D01*
X146100000Y-108200000D02*
X146100000Y-100900000D01*
X149750000Y-97250000D02*
X151850000Y-97250000D01*
X146100000Y-100900000D02*
X149750000Y-97250000D01*
X151850000Y-108750000D02*
X151850000Y-109250000D01*
X153225000Y-109025000D02*
X152950000Y-108750000D01*
X151850000Y-109250000D02*
X151850000Y-109750000D01*
X152950000Y-108750000D02*
X151850000Y-108750000D01*
X154000000Y-109025000D02*
X153225000Y-109025000D01*
%TA.AperFunction,Conductor*%
G36*
X149842121Y-88520002D02*
G01*
X149888614Y-88573658D01*
X149900000Y-88626000D01*
X149900000Y-89206253D01*
X149879998Y-89274374D01*
X149826342Y-89320867D01*
X149749418Y-89329832D01*
X149726665Y-89325306D01*
X149712558Y-89322500D01*
X147487442Y-89322500D01*
X147473335Y-89325306D01*
X147450582Y-89329832D01*
X147379868Y-89323504D01*
X147323801Y-89279950D01*
X147300000Y-89206253D01*
X147300000Y-88739293D01*
X147320002Y-88671172D01*
X147336905Y-88650198D01*
X147450198Y-88536905D01*
X147512510Y-88502879D01*
X147539293Y-88500000D01*
X149774000Y-88500000D01*
X149842121Y-88520002D01*
G37*
%TD.AperFunction*%
%TA.AperFunction,Conductor*%
G36*
X174126821Y-110902573D02*
G01*
X174164633Y-110910334D01*
X174167736Y-110910971D01*
X174214307Y-110930930D01*
X174248607Y-110954768D01*
X174267937Y-110971335D01*
X174390476Y-111100000D01*
X176200000Y-113000000D01*
X176887590Y-113000000D01*
X176912171Y-113002421D01*
X176951953Y-113010334D01*
X176997374Y-113029148D01*
X177020582Y-113044655D01*
X177055345Y-113079418D01*
X177070852Y-113102626D01*
X177089666Y-113148047D01*
X177097579Y-113187829D01*
X177100000Y-113212410D01*
X177100000Y-114187590D01*
X177097579Y-114212171D01*
X177089666Y-114251953D01*
X177070852Y-114297374D01*
X177055345Y-114320582D01*
X177020582Y-114355345D01*
X176997374Y-114370852D01*
X176951953Y-114389666D01*
X176912171Y-114397579D01*
X176887590Y-114400000D01*
X174600000Y-114400000D01*
X174535545Y-114480569D01*
X174535540Y-114480574D01*
X174268900Y-114813875D01*
X174248959Y-114833762D01*
X174221831Y-114855345D01*
X174212978Y-114862388D01*
X174162523Y-114886638D01*
X174117692Y-114896852D01*
X174089702Y-114900000D01*
X172112410Y-114900000D01*
X172087829Y-114897579D01*
X172048047Y-114889666D01*
X172002626Y-114870852D01*
X171979418Y-114855345D01*
X171944655Y-114820582D01*
X171929148Y-114797374D01*
X171910334Y-114751953D01*
X171902421Y-114712171D01*
X171900000Y-114687590D01*
X171900000Y-113700000D01*
X165912410Y-113700000D01*
X165887829Y-113697579D01*
X165848047Y-113689666D01*
X165802626Y-113670852D01*
X165779418Y-113655345D01*
X165744655Y-113620582D01*
X165729148Y-113597374D01*
X165710334Y-113551953D01*
X165702421Y-113512171D01*
X165700000Y-113487590D01*
X165700000Y-112312410D01*
X165702421Y-112287829D01*
X165710334Y-112248047D01*
X165729148Y-112202626D01*
X165744655Y-112179418D01*
X165779418Y-112144655D01*
X165802626Y-112129148D01*
X165848047Y-112110334D01*
X165887829Y-112102421D01*
X165912410Y-112100000D01*
X171900000Y-112100000D01*
X171900000Y-111112410D01*
X171902421Y-111087829D01*
X171910334Y-111048047D01*
X171929148Y-111002626D01*
X171944655Y-110979418D01*
X171979418Y-110944655D01*
X172002626Y-110929148D01*
X172048047Y-110910334D01*
X172087829Y-110902421D01*
X172112410Y-110900000D01*
X174101487Y-110900000D01*
X174126821Y-110902573D01*
G37*
%TD.AperFunction*%
%TA.AperFunction,Conductor*%
G36*
X156712171Y-92302421D02*
G01*
X156751953Y-92310334D01*
X156797374Y-92329148D01*
X156820582Y-92344655D01*
X156855345Y-92379418D01*
X156870852Y-92402626D01*
X156889666Y-92448047D01*
X156897579Y-92487829D01*
X156900000Y-92512410D01*
X156900000Y-93687590D01*
X156897579Y-93712171D01*
X156889666Y-93751953D01*
X156870852Y-93797374D01*
X156855345Y-93820582D01*
X156820582Y-93855345D01*
X156797374Y-93870852D01*
X156751953Y-93889666D01*
X156712171Y-93897579D01*
X156687590Y-93900000D01*
X153512410Y-93900000D01*
X153487829Y-93897579D01*
X153448047Y-93889666D01*
X153402626Y-93870852D01*
X153379418Y-93855345D01*
X153344655Y-93820582D01*
X153329148Y-93797374D01*
X153310334Y-93751953D01*
X153302421Y-93712171D01*
X153300000Y-93687590D01*
X153300000Y-92512410D01*
X153302421Y-92487829D01*
X153310334Y-92448047D01*
X153329148Y-92402626D01*
X153344655Y-92379418D01*
X153379418Y-92344655D01*
X153402626Y-92329148D01*
X153448047Y-92310334D01*
X153487829Y-92302421D01*
X153512410Y-92300000D01*
X156687590Y-92300000D01*
X156712171Y-92302421D01*
G37*
%TD.AperFunction*%
%TA.AperFunction,Conductor*%
G36*
X156712171Y-94535960D02*
G01*
X156751953Y-94543873D01*
X156797374Y-94562687D01*
X156820582Y-94578194D01*
X156855345Y-94612957D01*
X156870852Y-94636165D01*
X156889666Y-94681586D01*
X156897579Y-94721368D01*
X156900000Y-94745949D01*
X156900000Y-95637590D01*
X156897579Y-95662171D01*
X156889666Y-95701953D01*
X156870852Y-95747374D01*
X156855345Y-95770582D01*
X156820582Y-95805345D01*
X156797374Y-95820852D01*
X156751953Y-95839666D01*
X156712171Y-95847579D01*
X156687590Y-95850000D01*
X153712410Y-95850000D01*
X153687829Y-95847579D01*
X153648047Y-95839666D01*
X153602626Y-95820852D01*
X153579418Y-95805345D01*
X153544655Y-95770582D01*
X153529148Y-95747374D01*
X153510334Y-95701953D01*
X153502421Y-95662171D01*
X153500000Y-95637590D01*
X153500000Y-94745949D01*
X153502421Y-94721368D01*
X153510334Y-94681586D01*
X153529148Y-94636165D01*
X153544655Y-94612957D01*
X153579418Y-94578194D01*
X153602626Y-94562687D01*
X153648047Y-94543873D01*
X153687829Y-94535960D01*
X153712410Y-94533539D01*
X156687590Y-94533539D01*
X156712171Y-94535960D01*
G37*
%TD.AperFunction*%
%TA.AperFunction,Conductor*%
G36*
X112729327Y-107602421D02*
G01*
X112752498Y-107607030D01*
X112769112Y-107610334D01*
X112814530Y-107629147D01*
X112848269Y-107651690D01*
X112867356Y-107667356D01*
X113100000Y-107900000D01*
X115887590Y-107900000D01*
X115912171Y-107902421D01*
X115951953Y-107910334D01*
X115997374Y-107929148D01*
X116020582Y-107944655D01*
X116055345Y-107979418D01*
X116070852Y-108002626D01*
X116089666Y-108048047D01*
X116097579Y-108087829D01*
X116100000Y-108112410D01*
X116100000Y-108987590D01*
X116097579Y-109012171D01*
X116089666Y-109051953D01*
X116070852Y-109097374D01*
X116055345Y-109120582D01*
X116020582Y-109155345D01*
X115997374Y-109170852D01*
X115951953Y-109189666D01*
X115912171Y-109197579D01*
X115887590Y-109200000D01*
X113495253Y-109200000D01*
X113470673Y-109197579D01*
X113447502Y-109192970D01*
X113430888Y-109189666D01*
X113385470Y-109170853D01*
X113351731Y-109148310D01*
X113332644Y-109132644D01*
X113100000Y-108900000D01*
X110812410Y-108900000D01*
X110787829Y-108897579D01*
X110748047Y-108889666D01*
X110702626Y-108870852D01*
X110679418Y-108855345D01*
X110644655Y-108820582D01*
X110629148Y-108797374D01*
X110610334Y-108751953D01*
X110602421Y-108712171D01*
X110600000Y-108687590D01*
X110600000Y-107812410D01*
X110602421Y-107787829D01*
X110610334Y-107748047D01*
X110629148Y-107702626D01*
X110644655Y-107679418D01*
X110679418Y-107644655D01*
X110702626Y-107629148D01*
X110748047Y-107610334D01*
X110787829Y-107602421D01*
X110812410Y-107600000D01*
X112704747Y-107600000D01*
X112729327Y-107602421D01*
G37*
%TD.AperFunction*%
%TA.AperFunction,Conductor*%
G36*
X134012171Y-108002421D02*
G01*
X134051953Y-108010334D01*
X134097374Y-108029148D01*
X134120582Y-108044655D01*
X134155345Y-108079418D01*
X134170852Y-108102626D01*
X134189666Y-108148047D01*
X134197579Y-108187829D01*
X134200000Y-108212410D01*
X134200000Y-109287590D01*
X134197579Y-109312171D01*
X134189666Y-109351953D01*
X134170852Y-109397374D01*
X134155345Y-109420582D01*
X134120582Y-109455345D01*
X134097374Y-109470852D01*
X134051953Y-109489666D01*
X134012171Y-109497579D01*
X133987590Y-109500000D01*
X132012410Y-109500000D01*
X131987829Y-109497579D01*
X131948047Y-109489666D01*
X131902626Y-109470852D01*
X131879418Y-109455345D01*
X131844655Y-109420582D01*
X131829148Y-109397374D01*
X131810334Y-109351953D01*
X131802421Y-109312171D01*
X131800000Y-109287590D01*
X131800000Y-108212410D01*
X131802421Y-108187829D01*
X131810334Y-108148047D01*
X131829148Y-108102626D01*
X131844655Y-108079418D01*
X131879418Y-108044655D01*
X131902626Y-108029148D01*
X131948047Y-108010334D01*
X131987829Y-108002421D01*
X132012410Y-108000000D01*
X133987590Y-108000000D01*
X134012171Y-108002421D01*
G37*
%TD.AperFunction*%
%TA.AperFunction,Conductor*%
G36*
X177529327Y-114902421D02*
G01*
X177552498Y-114907030D01*
X177569112Y-114910334D01*
X177614530Y-114929147D01*
X177648269Y-114951690D01*
X177667356Y-114967356D01*
X177932644Y-115232644D01*
X177948310Y-115251731D01*
X177970853Y-115285470D01*
X177989666Y-115330889D01*
X177997579Y-115370673D01*
X178000000Y-115395253D01*
X178000000Y-116300000D01*
X178077269Y-116364391D01*
X178077272Y-116364394D01*
X178385868Y-116621557D01*
X178600000Y-116800000D01*
X180787590Y-116800000D01*
X180812171Y-116802421D01*
X180851953Y-116810334D01*
X180897374Y-116829148D01*
X180920582Y-116844655D01*
X180955345Y-116879418D01*
X180970852Y-116902626D01*
X180989666Y-116948047D01*
X180997579Y-116987829D01*
X181000000Y-117012410D01*
X181000000Y-119787590D01*
X180997579Y-119812171D01*
X180989666Y-119851953D01*
X180970852Y-119897374D01*
X180955345Y-119920582D01*
X180920582Y-119955345D01*
X180897374Y-119970852D01*
X180851953Y-119989666D01*
X180812171Y-119997579D01*
X180787590Y-120000000D01*
X178822594Y-120000000D01*
X178791948Y-119996216D01*
X178759525Y-119988086D01*
X178743312Y-119984020D01*
X178689271Y-119955098D01*
X178652147Y-119921398D01*
X178631998Y-119897996D01*
X178586448Y-119829672D01*
X178500000Y-119700000D01*
X176812410Y-119700000D01*
X176787829Y-119697579D01*
X176748047Y-119689666D01*
X176702626Y-119670852D01*
X176679418Y-119655345D01*
X176644655Y-119620582D01*
X176629148Y-119597374D01*
X176610334Y-119551953D01*
X176602421Y-119512171D01*
X176600000Y-119487590D01*
X176600000Y-116800000D01*
X176100000Y-116300000D01*
X175512410Y-116300000D01*
X175487829Y-116297579D01*
X175448047Y-116289666D01*
X175402626Y-116270852D01*
X175379418Y-116255345D01*
X175344655Y-116220582D01*
X175329148Y-116197374D01*
X175310334Y-116151953D01*
X175302421Y-116112171D01*
X175300000Y-116087590D01*
X175300000Y-115112410D01*
X175302421Y-115087829D01*
X175310334Y-115048047D01*
X175329148Y-115002626D01*
X175344655Y-114979418D01*
X175379418Y-114944655D01*
X175402626Y-114929148D01*
X175448047Y-114910334D01*
X175487829Y-114902421D01*
X175512410Y-114900000D01*
X177504747Y-114900000D01*
X177529327Y-114902421D01*
G37*
%TD.AperFunction*%
%TA.AperFunction,Conductor*%
G36*
X171215931Y-94020002D02*
G01*
X171236905Y-94036905D01*
X171363095Y-94163095D01*
X171397121Y-94225407D01*
X171400000Y-94252190D01*
X171400000Y-95470000D01*
X171700000Y-95740000D01*
X172887810Y-95740000D01*
X172955931Y-95760002D01*
X172976905Y-95776905D01*
X173103095Y-95903095D01*
X173137121Y-95965407D01*
X173140000Y-95992190D01*
X173140000Y-96647953D01*
X173119998Y-96716074D01*
X173103270Y-96736873D01*
X172976732Y-96863909D01*
X172914487Y-96898057D01*
X172887956Y-96900988D01*
X172243896Y-96903514D01*
X170842333Y-96909011D01*
X170774136Y-96889276D01*
X170752919Y-96872282D01*
X170627079Y-96746934D01*
X170592932Y-96684688D01*
X170590000Y-96657664D01*
X170590000Y-95990000D01*
X170100000Y-95500000D01*
X168052190Y-95500000D01*
X167984069Y-95479998D01*
X167963095Y-95463095D01*
X167836905Y-95336905D01*
X167802879Y-95274593D01*
X167800000Y-95247810D01*
X167800000Y-94252190D01*
X167820002Y-94184069D01*
X167836905Y-94163095D01*
X167963095Y-94036905D01*
X168025407Y-94002879D01*
X168052190Y-94000000D01*
X171147810Y-94000000D01*
X171215931Y-94020002D01*
G37*
%TD.AperFunction*%
%TA.AperFunction,Conductor*%
G36*
X177512171Y-86502421D02*
G01*
X177551953Y-86510334D01*
X177597374Y-86529148D01*
X177620582Y-86544655D01*
X177655345Y-86579418D01*
X177670852Y-86602626D01*
X177689666Y-86648047D01*
X177697579Y-86687829D01*
X177700000Y-86712410D01*
X177700000Y-87687590D01*
X177697579Y-87712171D01*
X177689666Y-87751953D01*
X177670852Y-87797374D01*
X177655345Y-87820582D01*
X177620582Y-87855345D01*
X177597374Y-87870852D01*
X177551953Y-87889666D01*
X177512171Y-87897579D01*
X177487590Y-87900000D01*
X174512410Y-87900000D01*
X174487829Y-87897579D01*
X174448047Y-87889666D01*
X174402626Y-87870852D01*
X174379418Y-87855345D01*
X174344655Y-87820582D01*
X174329148Y-87797374D01*
X174310334Y-87751953D01*
X174302421Y-87712171D01*
X174300000Y-87687590D01*
X174300000Y-86712410D01*
X174302421Y-86687829D01*
X174310334Y-86648047D01*
X174329148Y-86602626D01*
X174344655Y-86579418D01*
X174379418Y-86544655D01*
X174402626Y-86529148D01*
X174448047Y-86510334D01*
X174487829Y-86502421D01*
X174512410Y-86500000D01*
X177487590Y-86500000D01*
X177512171Y-86502421D01*
G37*
%TD.AperFunction*%
%TA.AperFunction,Conductor*%
G36*
X129187541Y-95500005D02*
G01*
X129212120Y-95502426D01*
X129251903Y-95510339D01*
X129297321Y-95529151D01*
X129320526Y-95544655D01*
X129355290Y-95579416D01*
X129370799Y-95602625D01*
X129389611Y-95648039D01*
X129397527Y-95687822D01*
X129399950Y-95712404D01*
X129399988Y-96387584D01*
X129397569Y-96412161D01*
X129389656Y-96451954D01*
X129370845Y-96497373D01*
X129355337Y-96520584D01*
X129320576Y-96555346D01*
X129297368Y-96570854D01*
X129251944Y-96589670D01*
X129212157Y-96597584D01*
X129187576Y-96600005D01*
X128599938Y-96600000D01*
X128267294Y-96932644D01*
X128248207Y-96948310D01*
X128214468Y-96970853D01*
X128169050Y-96989666D01*
X128152436Y-96992970D01*
X128129265Y-96997579D01*
X128104685Y-97000000D01*
X126095253Y-97000000D01*
X126070673Y-96997579D01*
X126047502Y-96992970D01*
X126030888Y-96989666D01*
X125985470Y-96970853D01*
X125951731Y-96948310D01*
X125932644Y-96932644D01*
X125600000Y-96600000D01*
X124947649Y-96600012D01*
X124712401Y-96600017D01*
X124687822Y-96597596D01*
X124648034Y-96589682D01*
X124602618Y-96570872D01*
X124602591Y-96570854D01*
X124579413Y-96555368D01*
X124544649Y-96520608D01*
X124529141Y-96497401D01*
X124510325Y-96451981D01*
X124502410Y-96412199D01*
X124499988Y-96387619D01*
X124499950Y-95712441D01*
X124502370Y-95687858D01*
X124510282Y-95648073D01*
X124529095Y-95602651D01*
X124544601Y-95579443D01*
X124579361Y-95544679D01*
X124602570Y-95529170D01*
X124647992Y-95510355D01*
X124687778Y-95502441D01*
X124712359Y-95500020D01*
X128199937Y-95500000D01*
X128399939Y-95500000D01*
X129187541Y-95500005D01*
G37*
%TD.AperFunction*%
%TA.AperFunction,Conductor*%
G36*
X167612171Y-109802421D02*
G01*
X167651953Y-109810334D01*
X167697374Y-109829148D01*
X167720582Y-109844655D01*
X167755345Y-109879418D01*
X167770852Y-109902626D01*
X167789666Y-109948047D01*
X167797579Y-109987829D01*
X167800000Y-110012410D01*
X167800000Y-111187590D01*
X167797579Y-111212171D01*
X167789666Y-111251953D01*
X167770852Y-111297374D01*
X167755345Y-111320582D01*
X167720582Y-111355345D01*
X167697374Y-111370852D01*
X167651953Y-111389666D01*
X167612171Y-111397579D01*
X167587590Y-111400000D01*
X165700000Y-111400000D01*
X165644372Y-111446356D01*
X165644373Y-111446356D01*
X165640166Y-111449862D01*
X164564053Y-112346622D01*
X164546111Y-112359106D01*
X164514847Y-112377050D01*
X164473902Y-112391874D01*
X164453306Y-112395488D01*
X164438395Y-112398104D01*
X164416621Y-112400000D01*
X163112410Y-112400000D01*
X163087829Y-112397579D01*
X163048047Y-112389666D01*
X163002626Y-112370852D01*
X162979418Y-112355345D01*
X162944655Y-112320582D01*
X162929148Y-112297374D01*
X162910334Y-112251953D01*
X162902421Y-112212171D01*
X162900000Y-112187590D01*
X162900000Y-111399570D01*
X162902623Y-111373992D01*
X162911180Y-111332717D01*
X162931515Y-111285781D01*
X162955774Y-111251309D01*
X162972639Y-111231901D01*
X164433628Y-109862224D01*
X164452348Y-109847726D01*
X164485265Y-109826865D01*
X164529125Y-109809520D01*
X164567403Y-109802227D01*
X164590985Y-109800000D01*
X167587590Y-109800000D01*
X167612171Y-109802421D01*
G37*
%TD.AperFunction*%
%TA.AperFunction,Conductor*%
G36*
X173112171Y-123102421D02*
G01*
X173151953Y-123110334D01*
X173197374Y-123129148D01*
X173220582Y-123144655D01*
X173255345Y-123179418D01*
X173270852Y-123202626D01*
X173289666Y-123248047D01*
X173297579Y-123287829D01*
X173300000Y-123312410D01*
X173300000Y-124487590D01*
X173297579Y-124512171D01*
X173289666Y-124551953D01*
X173270852Y-124597374D01*
X173255345Y-124620582D01*
X173220582Y-124655345D01*
X173197374Y-124670852D01*
X173151953Y-124689666D01*
X173112171Y-124697579D01*
X173087590Y-124700000D01*
X169512410Y-124700000D01*
X169487829Y-124697579D01*
X169448047Y-124689666D01*
X169402626Y-124670852D01*
X169379418Y-124655345D01*
X169344655Y-124620582D01*
X169329148Y-124597374D01*
X169310334Y-124551953D01*
X169302421Y-124512171D01*
X169300000Y-124487590D01*
X169300000Y-123312410D01*
X169302421Y-123287829D01*
X169310334Y-123248047D01*
X169329148Y-123202626D01*
X169344655Y-123179418D01*
X169379418Y-123144655D01*
X169402626Y-123129148D01*
X169448047Y-123110334D01*
X169487829Y-123102421D01*
X169512410Y-123100000D01*
X173087590Y-123100000D01*
X173112171Y-123102421D01*
G37*
%TD.AperFunction*%
%TA.AperFunction,Conductor*%
G36*
X126940232Y-93717570D02*
G01*
X127843538Y-93728261D01*
X127913193Y-93729085D01*
X127935744Y-93731392D01*
X127964048Y-93736895D01*
X127972417Y-93738522D01*
X128014484Y-93754946D01*
X128046282Y-93774547D01*
X128064427Y-93788127D01*
X128299939Y-94000000D01*
X128376899Y-93999841D01*
X128376900Y-93999841D01*
X128421953Y-93999748D01*
X129187142Y-93998165D01*
X129211760Y-94000542D01*
X129251608Y-94008393D01*
X129297119Y-94027162D01*
X129320373Y-94042657D01*
X129355218Y-94077431D01*
X129370761Y-94100655D01*
X129389622Y-94146129D01*
X129397554Y-94185965D01*
X129399980Y-94210577D01*
X129399951Y-94824498D01*
X129391344Y-94870261D01*
X129372749Y-94917956D01*
X129365309Y-94937039D01*
X129364318Y-94944569D01*
X129359988Y-94977457D01*
X129331266Y-95042384D01*
X129305096Y-95065757D01*
X129297375Y-95070919D01*
X129251978Y-95089742D01*
X129212208Y-95097670D01*
X129187636Y-95100101D01*
X127988623Y-95100669D01*
X126218683Y-95101507D01*
X126186224Y-95097270D01*
X126139524Y-95084844D01*
X126135062Y-95083657D01*
X126078748Y-95051369D01*
X126053284Y-95026121D01*
X126020517Y-94970083D01*
X126006468Y-94919038D01*
X126001955Y-94886617D01*
X126001824Y-94870261D01*
X125994200Y-93922930D01*
X125996482Y-93898024D01*
X126004267Y-93857714D01*
X126023176Y-93811664D01*
X126038849Y-93788179D01*
X126074111Y-93753051D01*
X126097655Y-93737468D01*
X126143773Y-93718736D01*
X126184109Y-93711104D01*
X126209025Y-93708916D01*
X126940232Y-93717570D01*
G37*
%TD.AperFunction*%
%TA.AperFunction,Conductor*%
G36*
X163212171Y-117402421D02*
G01*
X163251953Y-117410334D01*
X163297374Y-117429148D01*
X163320582Y-117444655D01*
X163355345Y-117479418D01*
X163370852Y-117502626D01*
X163389666Y-117548047D01*
X163397579Y-117587829D01*
X163400000Y-117612410D01*
X163400000Y-120187590D01*
X163397579Y-120212171D01*
X163389666Y-120251953D01*
X163370852Y-120297374D01*
X163355345Y-120320582D01*
X163320582Y-120355345D01*
X163297374Y-120370852D01*
X163251953Y-120389666D01*
X163212171Y-120397579D01*
X163187590Y-120400000D01*
X162312410Y-120400000D01*
X162287829Y-120397579D01*
X162273464Y-120394722D01*
X162254870Y-120391023D01*
X162191960Y-120358115D01*
X162156829Y-120296420D01*
X162155406Y-120285681D01*
X162155365Y-120285689D01*
X162144825Y-120227982D01*
X162144174Y-120224075D01*
X162142385Y-120212171D01*
X162135449Y-120166038D01*
X162132321Y-120159525D01*
X162131025Y-120152427D01*
X162114186Y-120120010D01*
X162100000Y-120061928D01*
X162100000Y-117612410D01*
X162102421Y-117587829D01*
X162110334Y-117548047D01*
X162129148Y-117502626D01*
X162144655Y-117479418D01*
X162179418Y-117444655D01*
X162202626Y-117429148D01*
X162248047Y-117410334D01*
X162287829Y-117402421D01*
X162312410Y-117400000D01*
X163187590Y-117400000D01*
X163212171Y-117402421D01*
G37*
%TD.AperFunction*%
%TA.AperFunction,Conductor*%
G36*
X164424407Y-113202722D02*
G01*
X164440622Y-113206148D01*
X164466387Y-113211592D01*
X164514034Y-113232670D01*
X164548835Y-113257765D01*
X164568371Y-113275208D01*
X164593297Y-113302626D01*
X165500000Y-114300000D01*
X167587590Y-114300000D01*
X167612171Y-114302421D01*
X167651953Y-114310334D01*
X167697374Y-114329148D01*
X167720582Y-114344655D01*
X167755345Y-114379418D01*
X167770852Y-114402626D01*
X167789666Y-114448047D01*
X167797579Y-114487829D01*
X167800000Y-114512410D01*
X167800000Y-116004747D01*
X167797579Y-116029327D01*
X167789666Y-116069111D01*
X167770853Y-116114530D01*
X167748310Y-116148269D01*
X167732644Y-116167356D01*
X167000000Y-116900000D01*
X167000000Y-118487590D01*
X166997579Y-118512171D01*
X166989666Y-118551953D01*
X166970852Y-118597374D01*
X166955345Y-118620582D01*
X166920582Y-118655345D01*
X166897374Y-118670852D01*
X166851953Y-118689666D01*
X166812171Y-118697579D01*
X166787590Y-118700000D01*
X164112410Y-118700000D01*
X164087829Y-118697579D01*
X164048047Y-118689666D01*
X164002626Y-118670852D01*
X163979418Y-118655345D01*
X163944655Y-118620582D01*
X163929148Y-118597374D01*
X163910334Y-118551953D01*
X163902421Y-118512171D01*
X163900000Y-118487590D01*
X163900000Y-115600000D01*
X162986121Y-114868896D01*
X162966241Y-114848962D01*
X162937612Y-114812978D01*
X162913362Y-114762523D01*
X162903148Y-114717692D01*
X162900000Y-114689702D01*
X162900000Y-113412410D01*
X162902421Y-113387829D01*
X162910334Y-113348047D01*
X162929148Y-113302626D01*
X162944655Y-113279418D01*
X162979418Y-113244655D01*
X163002626Y-113229148D01*
X163048047Y-113210334D01*
X163087829Y-113202421D01*
X163112410Y-113200000D01*
X164398359Y-113200000D01*
X164424407Y-113202722D01*
G37*
%TD.AperFunction*%
%TA.AperFunction,Conductor*%
G36*
X112729327Y-109302421D02*
G01*
X112752498Y-109307030D01*
X112769112Y-109310334D01*
X112814530Y-109329147D01*
X112848269Y-109351690D01*
X112867356Y-109367356D01*
X113100000Y-109600000D01*
X115887590Y-109600000D01*
X115912171Y-109602421D01*
X115951953Y-109610334D01*
X115997374Y-109629148D01*
X116020582Y-109644655D01*
X116055345Y-109679418D01*
X116070852Y-109702626D01*
X116089666Y-109748047D01*
X116097579Y-109787829D01*
X116100000Y-109812410D01*
X116100000Y-110616545D01*
X116079998Y-110684666D01*
X116045706Y-110719850D01*
X116038749Y-110723191D01*
X116033465Y-110728076D01*
X116033420Y-110728107D01*
X116027040Y-110731420D01*
X116022000Y-110735725D01*
X115984773Y-110772952D01*
X115981208Y-110776381D01*
X115939272Y-110815146D01*
X115935579Y-110821505D01*
X115930062Y-110827663D01*
X115894630Y-110863095D01*
X115832318Y-110897121D01*
X115805535Y-110900000D01*
X108912410Y-110900000D01*
X108887829Y-110897579D01*
X108848047Y-110889666D01*
X108802626Y-110870852D01*
X108779418Y-110855345D01*
X108744655Y-110820582D01*
X108729148Y-110797374D01*
X108710334Y-110751953D01*
X108702421Y-110712171D01*
X108700000Y-110687590D01*
X108700000Y-109812410D01*
X108702421Y-109787829D01*
X108710334Y-109748047D01*
X108729148Y-109702626D01*
X108744655Y-109679418D01*
X108779418Y-109644655D01*
X108802626Y-109629148D01*
X108848047Y-109610334D01*
X108887829Y-109602421D01*
X108912410Y-109600000D01*
X110300000Y-109600000D01*
X110532644Y-109367356D01*
X110551731Y-109351690D01*
X110585470Y-109329147D01*
X110630888Y-109310334D01*
X110647502Y-109307030D01*
X110670673Y-109302421D01*
X110695253Y-109300000D01*
X112704747Y-109300000D01*
X112729327Y-109302421D01*
G37*
%TD.AperFunction*%
%TA.AperFunction,Conductor*%
G36*
X149820132Y-114676496D02*
G01*
X149876199Y-114720050D01*
X149900000Y-114793747D01*
X149900000Y-115374000D01*
X149879998Y-115442121D01*
X149826342Y-115488614D01*
X149774000Y-115500000D01*
X147426000Y-115500000D01*
X147357879Y-115479998D01*
X147311386Y-115426342D01*
X147300000Y-115374000D01*
X147300000Y-114793747D01*
X147320002Y-114725626D01*
X147373658Y-114679133D01*
X147450582Y-114670168D01*
X147473335Y-114674694D01*
X147487442Y-114677500D01*
X149712558Y-114677500D01*
X149726665Y-114674694D01*
X149749418Y-114670168D01*
X149820132Y-114676496D01*
G37*
%TD.AperFunction*%
%TA.AperFunction,Conductor*%
G36*
X112712171Y-113702421D02*
G01*
X112751953Y-113710334D01*
X112797374Y-113729148D01*
X112820582Y-113744655D01*
X112855345Y-113779418D01*
X112870852Y-113802626D01*
X112889666Y-113848047D01*
X112897579Y-113887829D01*
X112900000Y-113912410D01*
X112900000Y-116187590D01*
X112897579Y-116212171D01*
X112889666Y-116251953D01*
X112870852Y-116297374D01*
X112855345Y-116320582D01*
X112820582Y-116355345D01*
X112797374Y-116370852D01*
X112751953Y-116389666D01*
X112712171Y-116397579D01*
X112687590Y-116400000D01*
X111595253Y-116400000D01*
X111570673Y-116397579D01*
X111547502Y-116392970D01*
X111530888Y-116389666D01*
X111485470Y-116370853D01*
X111451731Y-116348310D01*
X111432644Y-116332644D01*
X111000000Y-115900000D01*
X109782431Y-115900000D01*
X109714310Y-115879998D01*
X109667817Y-115826342D01*
X109657168Y-115760391D01*
X109658500Y-115748134D01*
X109658500Y-114251866D01*
X109657169Y-114239609D01*
X109669694Y-114169729D01*
X109718014Y-114117712D01*
X109782431Y-114100000D01*
X111100000Y-114100000D01*
X111432644Y-113767356D01*
X111451731Y-113751690D01*
X111485470Y-113729147D01*
X111530888Y-113710334D01*
X111547502Y-113707030D01*
X111570673Y-113702421D01*
X111595253Y-113700000D01*
X112687590Y-113700000D01*
X112712171Y-113702421D01*
G37*
%TD.AperFunction*%
M02*
